%TF.GenerationSoftware,KiCad,Pcbnew,9.0.3-1.fc42*%
%TF.CreationDate,2025-08-08T09:47:22+02:00*%
%TF.ProjectId,OLB,4f4c422e-6b69-4636-9164-5f7063625858,1*%
%TF.SameCoordinates,Original*%
%TF.FileFunction,Copper,L1,Top*%
%TF.FilePolarity,Positive*%
%FSLAX46Y46*%
G04 Gerber Fmt 4.6, Leading zero omitted, Abs format (unit mm)*
G04 Created by KiCad (PCBNEW 9.0.3-1.fc42) date 2025-08-08 09:47:22*
%MOMM*%
%LPD*%
G01*
G04 APERTURE LIST*
%TA.AperFunction,ComponentPad*%
%ADD10R,1.700000X1.700000*%
%TD*%
%TA.AperFunction,ComponentPad*%
%ADD11O,1.700000X1.700000*%
%TD*%
%TA.AperFunction,ComponentPad*%
%ADD12C,1.400000*%
%TD*%
%TA.AperFunction,ComponentPad*%
%ADD13O,1.400000X1.400000*%
%TD*%
%TA.AperFunction,ViaPad*%
%ADD14C,0.600000*%
%TD*%
%TA.AperFunction,Conductor*%
%ADD15C,0.200000*%
%TD*%
%TA.AperFunction,Conductor*%
%ADD16C,0.800000*%
%TD*%
%TA.AperFunction,Conductor*%
%ADD17C,0.300000*%
%TD*%
%TA.AperFunction,Conductor*%
%ADD18C,0.600000*%
%TD*%
G04 APERTURE END LIST*
D10*
%TO.P,,Gn,GND*%
%TO.N,GND*%
X31500000Y-78000000D03*
%TD*%
D11*
%TO.P,,2,2*%
%TO.N,+BATT*%
X20000000Y-75500000D03*
%TD*%
%TO.P,,2,2*%
%TO.N,+BATT*%
X20000000Y-78000000D03*
%TD*%
%TO.P,,A7,DIO*%
%TO.N,DIO*%
X22000000Y-49300000D03*
%TD*%
D10*
%TO.P,DS18B20,Gn,GND*%
%TO.N,GND*%
X24000000Y-31300000D03*
D11*
%TO.P,DS18B20,TD,D*%
%TO.N,Net-(DS18B20-D)*%
X18960000Y-31300000D03*
%TO.P,DS18B20,TV,Vin*%
%TO.N,Net-(DS18B20-Vin)*%
X21500000Y-31300000D03*
%TD*%
D10*
%TO.P,,Gn,GND*%
%TO.N,GND*%
X22000000Y-51800000D03*
%TD*%
D12*
%TO.P,R2,1*%
%TO.N,Net-(DS18B20-Vin)*%
X21220000Y-36200000D03*
D13*
%TO.P,R2,2*%
%TO.N,Net-(DS18B20-D)*%
X18680000Y-36200000D03*
%TD*%
D11*
%TO.P,,CLK,CLK*%
%TO.N,CLK*%
X22100000Y-47000000D03*
%TD*%
%TO.P,REF\u002A\u002A,1*%
%TO.N,unconnected-(Wio1-Pad5V)*%
X35360000Y-47610000D03*
%TO.P,REF\u002A\u002A,2*%
%TO.N,Net-(GPS1-VIN)*%
X35360000Y-45070000D03*
%TO.P,REF\u002A\u002A,3*%
%TO.N,DIO*%
X35360000Y-42530000D03*
%TO.P,REF\u002A\u002A,4*%
%TO.N,CLK*%
X35360000Y-39990000D03*
%TO.P,REF\u002A\u002A,5*%
%TO.N,RST*%
X35360000Y-37450000D03*
D10*
%TO.P,REF\u002A\u002A,6*%
%TO.N,GND*%
X35360000Y-34910000D03*
D11*
%TO.P,REF\u002A\u002A,7*%
%TO.N,Net-(SD_card_reader1-DI)*%
X35360000Y-32370000D03*
%TO.P,REF\u002A\u002A,8*%
%TO.N,Net-(SD_card_reader1-DO)*%
X35360000Y-29830000D03*
%TO.P,REF\u002A\u002A,9*%
%TO.N,Net-(SD_card_reader1-CS)*%
X35360000Y-27290000D03*
%TO.P,REF\u002A\u002A,10*%
%TO.N,Net-(SD_card_reader1-CLK)*%
X35360000Y-24750000D03*
%TO.P,REF\u002A\u002A,11*%
%TO.N,Net-(R4-Pad2)*%
X35360000Y-22210000D03*
%TO.P,REF\u002A\u002A,12*%
%TO.N,Net-(R3-Pad2)*%
X35360000Y-19670000D03*
%TD*%
D12*
%TO.P,R4,1*%
%TO.N,Net-(DS18B20-Vin)*%
X22100000Y-28620000D03*
D13*
%TO.P,R4,2*%
%TO.N,Net-(R4-Pad2)*%
X22100000Y-26080000D03*
%TD*%
D11*
%TO.P,SW1,1,1*%
%TO.N,Net-(Pololu1-Vin)*%
X26000000Y-72500000D03*
%TO.P,SW1,2,2*%
%TO.N,+BATT*%
X26000000Y-78100000D03*
%TD*%
D12*
%TO.P,R3,1*%
%TO.N,Net-(DS18B20-D)*%
X18700000Y-28170000D03*
D13*
%TO.P,R3,2*%
%TO.N,Net-(R3-Pad2)*%
X18700000Y-25630000D03*
%TD*%
D11*
%TO.P,GPS1,1G,3\u002C3V*%
%TO.N,unconnected-(GPS1-3\u002C3V-Pad1G)*%
X28500000Y-13800000D03*
%TO.P,GPS1,2G,EN*%
%TO.N,Net-(GPS1-EN)*%
X31060000Y-13800000D03*
%TO.P,GPS1,3G,VBAT*%
%TO.N,unconnected-(GPS1-VBAT-Pad3G)*%
X33600000Y-13800000D03*
%TO.P,GPS1,3V,VIN*%
%TO.N,Net-(GPS1-VIN)*%
X46300000Y-13800000D03*
%TO.P,GPS1,4G,FIX*%
%TO.N,unconnected-(GPS1-FIX-Pad4G)*%
X36140000Y-13800000D03*
%TO.P,GPS1,5G,TX*%
%TO.N,Net-(GPS1-TX)*%
X38680000Y-13800000D03*
%TO.P,GPS1,6G,RX*%
%TO.N,Net-(GPS1-RX)*%
X41220000Y-13800000D03*
%TO.P,GPS1,7G,PPS*%
%TO.N,unconnected-(GPS1-PPS-Pad7G)*%
X48840000Y-13800000D03*
D10*
%TO.P,GPS1,Gn,GND*%
%TO.N,GND*%
X43800000Y-13800000D03*
%TD*%
D11*
%TO.P,,RST,RST*%
%TO.N,RST*%
X22100000Y-44700000D03*
%TD*%
D10*
%TO.P,,Gn,GND*%
%TO.N,GND*%
X28700000Y-78100000D03*
%TD*%
D11*
%TO.P,Wio1,3V,3\u002C3V*%
%TO.N,Net-(GPS1-VIN)*%
X31635000Y-45090000D03*
%TO.P,Wio1,5V,5V*%
%TO.N,unconnected-(Wio1-Pad5V)*%
X31635000Y-47630000D03*
%TO.P,Wio1,A0,SDA*%
%TO.N,unconnected-(Wio1-SDA-PadA0)*%
X49400000Y-42530000D03*
%TO.P,Wio1,A1,SCK*%
%TO.N,Net-(SD_card_reader1-CLK)*%
X31635000Y-24770000D03*
%TO.P,Wio1,A3,A3*%
%TO.N,unconnected-(Wio1-PadA3)*%
X49400000Y-37450000D03*
%TO.P,Wio1,A4,A4*%
%TO.N,unconnected-(Wio1-PadA4)*%
X49400000Y-39990000D03*
%TO.P,Wio1,A5,MOSI*%
%TO.N,Net-(SD_card_reader1-DI)*%
X31635000Y-32390000D03*
%TO.P,Wio1,A6,MISO*%
%TO.N,Net-(SD_card_reader1-DO)*%
X31635000Y-29850000D03*
%TO.P,Wio1,A7,DIO*%
%TO.N,DIO*%
X31635000Y-42550000D03*
%TO.P,Wio1,CLK,CLK*%
%TO.N,CLK*%
X31635000Y-40010000D03*
%TO.P,Wio1,D0,D0*%
%TO.N,Net-(GPS1-EN)*%
X49400000Y-29830000D03*
%TO.P,Wio1,D8,SCL*%
%TO.N,unconnected-(Wio1-SCL-PadD8)*%
X49400000Y-45070000D03*
%TO.P,Wio1,D9,D9*%
%TO.N,Net-(R3-Pad2)*%
X31635000Y-19690000D03*
%TO.P,Wio1,D10,D10*%
%TO.N,Net-(R4-Pad2)*%
X31635000Y-22230000D03*
D10*
%TO.P,Wio1,Gn,GND*%
%TO.N,GND*%
X31635000Y-34930000D03*
X49400000Y-47610000D03*
D11*
%TO.P,Wio1,NSS,NSS*%
%TO.N,Net-(SD_card_reader1-CS)*%
X31635000Y-27310000D03*
%TO.P,Wio1,RST,RST*%
%TO.N,RST*%
X31635000Y-37470000D03*
%TO.P,Wio1,RX0,RX*%
%TO.N,unconnected-(Wio1-RX-PadRX0)*%
X49400000Y-34910000D03*
%TO.P,Wio1,RX1,RX1*%
%TO.N,Net-(GPS1-TX)*%
X49400000Y-27290000D03*
%TO.P,Wio1,RX2,RX2*%
%TO.N,unconnected-(Wio1-PadRX2)*%
X49400000Y-22210000D03*
%TO.P,Wio1,TX0,TX*%
%TO.N,unconnected-(Wio1-TX-PadTX0)*%
X49400000Y-32370000D03*
%TO.P,Wio1,TX1,TX1*%
%TO.N,Net-(GPS1-RX)*%
X49400000Y-24750000D03*
%TO.P,Wio1,TX2,TX2*%
%TO.N,unconnected-(Wio1-PadTX2)*%
X49400000Y-19670000D03*
%TD*%
D12*
%TO.P,R1,1*%
%TO.N,GND*%
X21860000Y-17600000D03*
D13*
%TO.P,R1,2*%
%TO.N,Net-(GPS1-EN)*%
X24400000Y-17600000D03*
%TD*%
D10*
%TO.P,RHS Wio pins,1*%
%TO.N,GND*%
X45500000Y-47600000D03*
D11*
%TO.P,RHS Wio pins,2*%
%TO.N,unconnected-(Wio1-SCL-PadD8)*%
X45500000Y-45060000D03*
%TO.P,RHS Wio pins,3*%
%TO.N,unconnected-(Wio1-SDA-PadA0)*%
X45500000Y-42520000D03*
%TO.P,RHS Wio pins,4*%
%TO.N,unconnected-(Wio1-PadA4)*%
X45500000Y-39980000D03*
%TO.P,RHS Wio pins,5*%
%TO.N,unconnected-(Wio1-PadA3)*%
X45500000Y-37440000D03*
%TO.P,RHS Wio pins,6*%
%TO.N,unconnected-(Wio1-RX-PadRX0)*%
X45500000Y-34900000D03*
%TO.P,RHS Wio pins,7*%
%TO.N,unconnected-(Wio1-TX-PadTX0)*%
X45500000Y-32360000D03*
%TO.P,RHS Wio pins,8*%
%TO.N,Net-(GPS1-EN)*%
X45500000Y-29820000D03*
%TO.P,RHS Wio pins,9*%
%TO.N,Net-(GPS1-TX)*%
X45500000Y-27280000D03*
%TO.P,RHS Wio pins,10*%
%TO.N,Net-(GPS1-RX)*%
X45500000Y-24740000D03*
%TO.P,RHS Wio pins,11*%
%TO.N,unconnected-(Wio1-PadRX2)*%
X45500000Y-22200000D03*
%TO.P,RHS Wio pins,12*%
%TO.N,unconnected-(Wio1-PadTX2)*%
X45500000Y-19660000D03*
%TD*%
%TO.P,SD_card_reader1,3V,3V*%
%TO.N,Net-(GPS1-VIN)*%
X51200000Y-59620000D03*
%TO.P,SD_card_reader1,5V,5V*%
%TO.N,unconnected-(SD_card_reader1-Pad5V)*%
X51200000Y-57060000D03*
D10*
%TO.P,SD_card_reader1,Gn,GND*%
%TO.N,GND*%
X51180000Y-62180000D03*
D11*
%TO.P,SD_card_reader1,SDCD,CD*%
%TO.N,unconnected-(SD_card_reader1-CD-PadSDCD)*%
X51200000Y-74800000D03*
%TO.P,SD_card_reader1,SDCL,CLK*%
%TO.N,Net-(SD_card_reader1-CLK)*%
X51200000Y-64700000D03*
%TO.P,SD_card_reader1,SDCS,CS*%
%TO.N,Net-(SD_card_reader1-CS)*%
X51200000Y-72430000D03*
%TO.P,SD_card_reader1,SDDI,DI*%
%TO.N,Net-(SD_card_reader1-DI)*%
X51210000Y-69780000D03*
%TO.P,SD_card_reader1,SDDO,DO*%
%TO.N,Net-(SD_card_reader1-DO)*%
X51210000Y-67220000D03*
%TD*%
%TO.P,Pololu1,3V,Vout*%
%TO.N,Net-(GPS1-VIN)*%
X31450000Y-68000000D03*
D10*
%TO.P,Pololu1,Gn,GND*%
%TO.N,GND*%
X28950000Y-68000000D03*
D11*
%TO.P,Pololu1,PSH,SHDN*%
%TO.N,unconnected-(Pololu1-SHDN-PadPSH)*%
X23950000Y-68000000D03*
%TO.P,Pololu1,Pin,Vin*%
%TO.N,Net-(Pololu1-Vin)*%
X26490000Y-68000000D03*
%TD*%
D14*
%TO.N,Net-(GPS1-EN)*%
X38700000Y-25400000D03*
X38600000Y-19700000D03*
%TO.N,Net-(SD_card_reader1-CLK)*%
X38200000Y-55300000D03*
X43100000Y-57900000D03*
%TO.N,Net-(SD_card_reader1-DI)*%
X26700000Y-37500000D03*
X35200000Y-62600000D03*
X43400000Y-65800000D03*
X19900000Y-47900000D03*
%TO.N,Net-(GPS1-RX)*%
X42600000Y-21840000D03*
X42600000Y-17700000D03*
%TO.N,Net-(SD_card_reader1-CS)*%
X40900000Y-47000000D03*
X38080000Y-37220000D03*
%TO.N,Net-(SD_card_reader1-DO)*%
X30650000Y-63250000D03*
X43700000Y-61900000D03*
%TO.N,DIO*%
X25500000Y-46800000D03*
X28950000Y-43850000D03*
%TO.N,RST*%
X26800000Y-40100000D03*
X24100000Y-42800000D03*
%TO.N,Net-(R3-Pad2)*%
X23960000Y-22360000D03*
X27500000Y-19690000D03*
%TO.N,Net-(R4-Pad2)*%
X25700000Y-25380000D03*
X28300000Y-23800000D03*
%TD*%
D15*
%TO.N,Net-(GPS1-VIN)*%
X31450000Y-68500000D02*
X31950000Y-68000000D01*
X31950000Y-68000000D02*
X33700000Y-68000000D01*
X33700000Y-68000000D02*
X44300000Y-78600000D01*
X52920000Y-75680000D02*
X52920000Y-59700000D01*
X44300000Y-78600000D02*
X50000000Y-78600000D01*
X50000000Y-78600000D02*
X52920000Y-75680000D01*
D16*
%TO.N,+BATT*%
X20000000Y-78000000D02*
X22500000Y-78000000D01*
X20000000Y-75500000D02*
X22500000Y-78000000D01*
X22500000Y-78000000D02*
X25900000Y-78000000D01*
D15*
X25900000Y-78000000D02*
X26000000Y-78100000D01*
D17*
%TO.N,GND*%
X50540000Y-62600000D02*
X51000000Y-62140000D01*
%TO.N,Net-(GPS1-EN)*%
X38600000Y-18700000D02*
X38600000Y-19700000D01*
D15*
X38600000Y-25300000D02*
X38700000Y-25400000D01*
D17*
X43120000Y-29820000D02*
X45500000Y-29820000D01*
X26960000Y-17600000D02*
X30910000Y-13650000D01*
D15*
X49310000Y-29740000D02*
X49400000Y-29830000D01*
D17*
X38700000Y-25400000D02*
X43120000Y-29820000D01*
X36300000Y-16400000D02*
X38600000Y-18700000D01*
X45410000Y-29740000D02*
X49310000Y-29740000D01*
X30910000Y-13650000D02*
X33660000Y-16400000D01*
X33660000Y-16400000D02*
X36300000Y-16400000D01*
X24400000Y-17600000D02*
X26960000Y-17600000D01*
%TO.N,Net-(DS18B20-D)*%
X18680000Y-31400000D02*
X18680000Y-36200000D01*
X18900000Y-28370000D02*
X18700000Y-28170000D01*
X18900000Y-31220000D02*
X18900000Y-28370000D01*
X18680000Y-36200000D02*
X18540000Y-36340000D01*
%TO.N,Net-(DS18B20-Vin)*%
X22100000Y-30700000D02*
X22100000Y-28620000D01*
D15*
X21220000Y-36200000D02*
X20870000Y-36200000D01*
D17*
X21220000Y-36200000D02*
X21220000Y-31580000D01*
X21500000Y-31300000D02*
X22100000Y-30700000D01*
X21220000Y-31580000D02*
X21500000Y-31300000D01*
%TO.N,Net-(SD_card_reader1-CLK)*%
X40910000Y-30300000D02*
X40910000Y-38180000D01*
X38200000Y-55300000D02*
X38200000Y-41040000D01*
X35360000Y-24750000D02*
X31655000Y-24750000D01*
X43100000Y-57900000D02*
X49900000Y-64700000D01*
D15*
X40910000Y-38180000D02*
X40930000Y-38200000D01*
D17*
X38680000Y-28070000D02*
X35360000Y-24750000D01*
X38900000Y-28290000D02*
X38680000Y-28070000D01*
D15*
X31655000Y-24750000D02*
X31635000Y-24770000D01*
D17*
X38200000Y-41040000D02*
X40930000Y-38310000D01*
D15*
X40930000Y-38200000D02*
X40930000Y-38310000D01*
D17*
X49900000Y-64700000D02*
X51200000Y-64700000D01*
X38900000Y-28290000D02*
X40910000Y-30300000D01*
D15*
%TO.N,Net-(SD_card_reader1-DI)*%
X31655000Y-32370000D02*
X31635000Y-32390000D01*
D17*
X35200000Y-62600000D02*
X33900000Y-61300000D01*
X19900000Y-58800000D02*
X19900000Y-47900000D01*
D15*
X31570000Y-32390000D02*
X31635000Y-32390000D01*
D17*
X22400000Y-61300000D02*
X19900000Y-58800000D01*
X26700000Y-36800000D02*
X31110000Y-32390000D01*
X33900000Y-61300000D02*
X22400000Y-61300000D01*
X31110000Y-32390000D02*
X31570000Y-32390000D01*
X47380000Y-69780000D02*
X51210000Y-69780000D01*
X35360000Y-32370000D02*
X31655000Y-32370000D01*
X26700000Y-37500000D02*
X26700000Y-36800000D01*
X43400000Y-65800000D02*
X47380000Y-69780000D01*
D18*
%TO.N,Net-(Pololu1-Vin)*%
X26090000Y-72610000D02*
X26090000Y-68900000D01*
X26090000Y-68900000D02*
X26490000Y-68500000D01*
X26000000Y-72700000D02*
X26090000Y-72610000D01*
D17*
%TO.N,unconnected-(Wio1-PadA4)*%
X45410000Y-39900000D02*
X49310000Y-39900000D01*
D15*
X49310000Y-39900000D02*
X49400000Y-39990000D01*
%TO.N,unconnected-(Wio1-Pad5V)*%
X35340000Y-47630000D02*
X35360000Y-47610000D01*
D17*
X31635000Y-47630000D02*
X35340000Y-47630000D01*
D15*
%TO.N,unconnected-(Wio1-PadA3)*%
X49310000Y-37360000D02*
X49400000Y-37450000D01*
D17*
X45410000Y-37360000D02*
X49310000Y-37360000D01*
D15*
%TO.N,unconnected-(Wio1-SDA-PadA0)*%
X49310000Y-42440000D02*
X49400000Y-42530000D01*
D17*
X45410000Y-42440000D02*
X49310000Y-42440000D01*
D15*
%TO.N,Net-(GPS1-RX)*%
X45410000Y-24660000D02*
X45410000Y-24470000D01*
D17*
X42600000Y-17700000D02*
X41220000Y-16320000D01*
D15*
X49310000Y-24660000D02*
X49400000Y-24750000D01*
D17*
X45410000Y-24660000D02*
X49310000Y-24660000D01*
X41220000Y-16320000D02*
X41220000Y-13500000D01*
X45500000Y-24740000D02*
X42600000Y-21840000D01*
D15*
%TO.N,Net-(GPS1-VIN)*%
X52920000Y-59700000D02*
X52600000Y-59700000D01*
D17*
X30800000Y-51800000D02*
X29500000Y-50500000D01*
X48350000Y-53450000D02*
X48200000Y-53600000D01*
X48800000Y-16000000D02*
X50900000Y-16000000D01*
D15*
X52920000Y-59700000D02*
X52920000Y-50520000D01*
D17*
X52200000Y-17300000D02*
X52200000Y-49600000D01*
X31635000Y-45090000D02*
X35340000Y-45090000D01*
X46600000Y-13800000D02*
X48800000Y-16000000D01*
X29500000Y-50500000D02*
X29500000Y-47225000D01*
X31450000Y-68500000D02*
X37700000Y-62250000D01*
D15*
X52920000Y-55200000D02*
X52920000Y-50520000D01*
D17*
X37700000Y-58700000D02*
X30800000Y-51800000D01*
D15*
X52600000Y-59700000D02*
X52520000Y-59620000D01*
D17*
X50900000Y-16000000D02*
X52200000Y-17300000D01*
X52200000Y-49600000D02*
X48350000Y-53450000D01*
X48350000Y-53450000D02*
X48350000Y-56770000D01*
D15*
X52920000Y-50520000D02*
X52100000Y-49700000D01*
D17*
X48350000Y-56770000D02*
X51200000Y-59620000D01*
D15*
X35340000Y-45090000D02*
X35360000Y-45070000D01*
D17*
X46300000Y-13800000D02*
X46600000Y-13800000D01*
X29500000Y-47225000D02*
X31635000Y-45090000D01*
D15*
X52520000Y-59620000D02*
X51200000Y-59620000D01*
D17*
X37700000Y-62250000D02*
X37700000Y-58700000D01*
D15*
%TO.N,unconnected-(GPS1-FIX-Pad4G)*%
X35950000Y-13750000D02*
X35830000Y-13750000D01*
%TO.N,unconnected-(Wio1-RX-PadRX0)*%
X49310000Y-34820000D02*
X49400000Y-34910000D01*
D17*
X45410000Y-34820000D02*
X49310000Y-34820000D01*
D15*
%TO.N,unconnected-(Wio1-PadRX2)*%
X49310000Y-22120000D02*
X49400000Y-22210000D01*
D17*
X45410000Y-22120000D02*
X49310000Y-22120000D01*
D15*
%TO.N,unconnected-(Wio1-PadTX2)*%
X49310000Y-19580000D02*
X49400000Y-19670000D01*
D17*
X45410000Y-19580000D02*
X49310000Y-19580000D01*
D15*
%TO.N,unconnected-(Wio1-TX-PadTX0)*%
X49310000Y-32280000D02*
X49400000Y-32370000D01*
D17*
X45410000Y-32280000D02*
X49310000Y-32280000D01*
D15*
%TO.N,Net-(SD_card_reader1-CS)*%
X31655000Y-27290000D02*
X31635000Y-27310000D01*
D17*
X38080000Y-30010000D02*
X38080000Y-37220000D01*
X50610000Y-72700000D02*
X51010000Y-72300000D01*
X40900000Y-47000000D02*
X40900000Y-68400000D01*
X35360000Y-27290000D02*
X38080000Y-30010000D01*
D15*
X38080000Y-37220000D02*
X38080000Y-37270000D01*
D17*
X40900000Y-68400000D02*
X44930000Y-72430000D01*
X35360000Y-27290000D02*
X31655000Y-27290000D01*
X44930000Y-72430000D02*
X51200000Y-72430000D01*
D15*
%TO.N,Net-(SD_card_reader1-DO)*%
X31655000Y-29830000D02*
X31635000Y-29850000D01*
D17*
X35360000Y-29830000D02*
X31655000Y-29830000D01*
X30650000Y-63250000D02*
X30300000Y-63600000D01*
X30300000Y-63600000D02*
X21680000Y-63600000D01*
X43700000Y-61900000D02*
X49020000Y-67220000D01*
X18000000Y-59920000D02*
X18000000Y-43080000D01*
X21680000Y-63600000D02*
X18000000Y-59920000D01*
X18000000Y-43080000D02*
X31630000Y-29450000D01*
X31635000Y-29850000D02*
X30850000Y-29850000D01*
X49020000Y-67220000D02*
X51210000Y-67220000D01*
%TO.N,unconnected-(Wio1-SCL-PadD8)*%
X45410000Y-44980000D02*
X49310000Y-44980000D01*
D15*
X49310000Y-44980000D02*
X49400000Y-45070000D01*
%TO.N,Net-(GPS1-TX)*%
X49310000Y-27200000D02*
X49400000Y-27290000D01*
D17*
X38680000Y-13500000D02*
X38680000Y-16580000D01*
X43580000Y-27280000D02*
X45500000Y-27280000D01*
D15*
X45510000Y-27290000D02*
X45500000Y-27280000D01*
D17*
X40700000Y-18600000D02*
X40700000Y-24400000D01*
X40700000Y-24400000D02*
X43580000Y-27280000D01*
X49400000Y-27290000D02*
X45510000Y-27290000D01*
X38680000Y-16580000D02*
X40700000Y-18600000D01*
D15*
%TO.N,DIO*%
X25500000Y-46800000D02*
X23000000Y-49300000D01*
X35340000Y-42550000D02*
X35360000Y-42530000D01*
X31635000Y-42550000D02*
X30250000Y-42550000D01*
X28950000Y-43850000D02*
X28900000Y-43900000D01*
X23000000Y-49300000D02*
X22000000Y-49300000D01*
D17*
X31635000Y-42550000D02*
X35340000Y-42550000D01*
D15*
X30250000Y-42550000D02*
X28950000Y-43850000D01*
%TO.N,CLK*%
X29790000Y-40010000D02*
X22800000Y-47000000D01*
X31635000Y-40010000D02*
X30190000Y-40010000D01*
X30300000Y-40010000D02*
X29790000Y-40010000D01*
D17*
X31635000Y-40010000D02*
X35340000Y-40010000D01*
D15*
X35340000Y-40010000D02*
X35360000Y-39990000D01*
X22800000Y-47000000D02*
X22100000Y-47000000D01*
%TO.N,RST*%
X22600000Y-44200000D02*
X22600000Y-45000000D01*
X24000000Y-42800000D02*
X22600000Y-44200000D01*
X29430000Y-37470000D02*
X31635000Y-37470000D01*
X26800000Y-40100000D02*
X29430000Y-37470000D01*
X35340000Y-37470000D02*
X35360000Y-37450000D01*
D17*
X31635000Y-37470000D02*
X35340000Y-37470000D01*
D15*
X22100000Y-44200000D02*
X22100000Y-44700000D01*
X24100000Y-42800000D02*
X24000000Y-42800000D01*
D17*
%TO.N,Net-(R3-Pad2)*%
X27500000Y-19690000D02*
X31635000Y-19690000D01*
X21970000Y-22360000D02*
X23960000Y-22360000D01*
X35360000Y-19670000D02*
X31655000Y-19670000D01*
D15*
X31100000Y-19650000D02*
X31020000Y-19570000D01*
X31655000Y-19670000D02*
X31635000Y-19690000D01*
D17*
X18700000Y-25630000D02*
X21970000Y-22360000D01*
%TO.N,Net-(R4-Pad2)*%
X29870000Y-22230000D02*
X28300000Y-23800000D01*
D15*
X31655000Y-22210000D02*
X31635000Y-22230000D01*
D17*
X22800000Y-25380000D02*
X25700000Y-25380000D01*
X31635000Y-22230000D02*
X29870000Y-22230000D01*
X35360000Y-22210000D02*
X31655000Y-22210000D01*
D15*
X25700000Y-25380000D02*
X25680000Y-25400000D01*
D17*
X22100000Y-26080000D02*
X22800000Y-25380000D01*
%TD*%
%TA.AperFunction,Conductor*%
%TO.N,Net-(GPS1-VIN)*%
G36*
X27507281Y-12670185D02*
G01*
X27553036Y-12722989D01*
X27562980Y-12792147D01*
X27533955Y-12855703D01*
X27527923Y-12862181D01*
X27469894Y-12920209D01*
X27469890Y-12920213D01*
X27344951Y-13092179D01*
X27248444Y-13281585D01*
X27182753Y-13483760D01*
X27181291Y-13492993D01*
X27149500Y-13693713D01*
X27149500Y-13906287D01*
X27159534Y-13969644D01*
X27182753Y-14116239D01*
X27248444Y-14318414D01*
X27344951Y-14507820D01*
X27469890Y-14679786D01*
X27620213Y-14830109D01*
X27792179Y-14955048D01*
X27792181Y-14955049D01*
X27792184Y-14955051D01*
X27981588Y-15051557D01*
X28183757Y-15117246D01*
X28236085Y-15125534D01*
X28299216Y-15155461D01*
X28336148Y-15214772D01*
X28335152Y-15284635D01*
X28304366Y-15335687D01*
X26726873Y-16913181D01*
X26665550Y-16946666D01*
X26639192Y-16949500D01*
X25474465Y-16949500D01*
X25407426Y-16929815D01*
X25374147Y-16898386D01*
X25315690Y-16817927D01*
X25182073Y-16684310D01*
X25029199Y-16573240D01*
X24860836Y-16487454D01*
X24681118Y-16429059D01*
X24494486Y-16399500D01*
X24494481Y-16399500D01*
X24305519Y-16399500D01*
X24305514Y-16399500D01*
X24118881Y-16429059D01*
X23939163Y-16487454D01*
X23770800Y-16573240D01*
X23695259Y-16628125D01*
X23617927Y-16684310D01*
X23617925Y-16684312D01*
X23617924Y-16684312D01*
X23484312Y-16817924D01*
X23484312Y-16817925D01*
X23484310Y-16817927D01*
X23437043Y-16882984D01*
X23373240Y-16970800D01*
X23287454Y-17139163D01*
X23247931Y-17260803D01*
X23208493Y-17318478D01*
X23144134Y-17345676D01*
X23075288Y-17333761D01*
X23023812Y-17286516D01*
X23012069Y-17260803D01*
X23001649Y-17228734D01*
X22972547Y-17139168D01*
X22972545Y-17139165D01*
X22972545Y-17139163D01*
X22898921Y-16994669D01*
X22886760Y-16970801D01*
X22775690Y-16817927D01*
X22642073Y-16684310D01*
X22489199Y-16573240D01*
X22320836Y-16487454D01*
X22141118Y-16429059D01*
X21954486Y-16399500D01*
X21954481Y-16399500D01*
X21765519Y-16399500D01*
X21765514Y-16399500D01*
X21578881Y-16429059D01*
X21399163Y-16487454D01*
X21230800Y-16573240D01*
X21155259Y-16628125D01*
X21077927Y-16684310D01*
X21077925Y-16684312D01*
X21077924Y-16684312D01*
X20944312Y-16817924D01*
X20944312Y-16817925D01*
X20944310Y-16817927D01*
X20897043Y-16882984D01*
X20833240Y-16970800D01*
X20747454Y-17139163D01*
X20689059Y-17318881D01*
X20659500Y-17505513D01*
X20659500Y-17694486D01*
X20689059Y-17881118D01*
X20747454Y-18060836D01*
X20823604Y-18210288D01*
X20833240Y-18229199D01*
X20944310Y-18382073D01*
X21077927Y-18515690D01*
X21230801Y-18626760D01*
X21295834Y-18659896D01*
X21399163Y-18712545D01*
X21399165Y-18712545D01*
X21399168Y-18712547D01*
X21495497Y-18743846D01*
X21578881Y-18770940D01*
X21765514Y-18800500D01*
X21765519Y-18800500D01*
X21954486Y-18800500D01*
X22141118Y-18770940D01*
X22320832Y-18712547D01*
X22489199Y-18626760D01*
X22642073Y-18515690D01*
X22775690Y-18382073D01*
X22886760Y-18229199D01*
X22972547Y-18060832D01*
X23012069Y-17939195D01*
X23051507Y-17881521D01*
X23115866Y-17854323D01*
X23184712Y-17866238D01*
X23236188Y-17913482D01*
X23247931Y-17939196D01*
X23287454Y-18060836D01*
X23363604Y-18210288D01*
X23373240Y-18229199D01*
X23484310Y-18382073D01*
X23617927Y-18515690D01*
X23770801Y-18626760D01*
X23835834Y-18659896D01*
X23939163Y-18712545D01*
X23939165Y-18712545D01*
X23939168Y-18712547D01*
X24035497Y-18743846D01*
X24118881Y-18770940D01*
X24305514Y-18800500D01*
X24305519Y-18800500D01*
X24494486Y-18800500D01*
X24681118Y-18770940D01*
X24860832Y-18712547D01*
X25029199Y-18626760D01*
X25182073Y-18515690D01*
X25315690Y-18382073D01*
X25374147Y-18301613D01*
X25429478Y-18258949D01*
X25474465Y-18250500D01*
X27024071Y-18250500D01*
X27131153Y-18229199D01*
X27149744Y-18225501D01*
X27268127Y-18176465D01*
X27374669Y-18105277D01*
X30402958Y-15076986D01*
X30464279Y-15043503D01*
X30533971Y-15048487D01*
X30538086Y-15050106D01*
X30541579Y-15051552D01*
X30541588Y-15051557D01*
X30743757Y-15117246D01*
X30953713Y-15150500D01*
X30953714Y-15150500D01*
X31166286Y-15150500D01*
X31166287Y-15150500D01*
X31323928Y-15125532D01*
X31381055Y-15116484D01*
X31381315Y-15118128D01*
X31443852Y-15121250D01*
X31490711Y-15150657D01*
X33245324Y-16905271D01*
X33245327Y-16905274D01*
X33245330Y-16905276D01*
X33296362Y-16939374D01*
X33351873Y-16976465D01*
X33470256Y-17025501D01*
X33470260Y-17025501D01*
X33470261Y-17025502D01*
X33595928Y-17050500D01*
X33595931Y-17050500D01*
X35979192Y-17050500D01*
X36046231Y-17070185D01*
X36066873Y-17086819D01*
X37913181Y-18933126D01*
X37927884Y-18960053D01*
X37944477Y-18985872D01*
X37945368Y-18992072D01*
X37946666Y-18994449D01*
X37949500Y-19020807D01*
X37949500Y-19195064D01*
X37929815Y-19262103D01*
X37928603Y-19263954D01*
X37890608Y-19320817D01*
X37890602Y-19320828D01*
X37830264Y-19466498D01*
X37830261Y-19466510D01*
X37799500Y-19621153D01*
X37799500Y-19778846D01*
X37830261Y-19933489D01*
X37830264Y-19933501D01*
X37890602Y-20079172D01*
X37890609Y-20079185D01*
X37978210Y-20210288D01*
X37978213Y-20210292D01*
X38089707Y-20321786D01*
X38089711Y-20321789D01*
X38220814Y-20409390D01*
X38220827Y-20409397D01*
X38342363Y-20459738D01*
X38366503Y-20469737D01*
X38521153Y-20500499D01*
X38521156Y-20500500D01*
X38521158Y-20500500D01*
X38678844Y-20500500D01*
X38678845Y-20500499D01*
X38833497Y-20469737D01*
X38979179Y-20409394D01*
X39110289Y-20321789D01*
X39221789Y-20210289D01*
X39309394Y-20079179D01*
X39369737Y-19933497D01*
X39400500Y-19778842D01*
X39400500Y-19621158D01*
X39400500Y-19621155D01*
X39400499Y-19621153D01*
X39369738Y-19466510D01*
X39369737Y-19466503D01*
X39323038Y-19353760D01*
X39309397Y-19320828D01*
X39309396Y-19320827D01*
X39309394Y-19320821D01*
X39271396Y-19263953D01*
X39250520Y-19197276D01*
X39250500Y-19195064D01*
X39250500Y-18635928D01*
X39225502Y-18510261D01*
X39225501Y-18510260D01*
X39225501Y-18510256D01*
X39183724Y-18409397D01*
X39176466Y-18391875D01*
X39176461Y-18391866D01*
X39105277Y-18285332D01*
X39070445Y-18250500D01*
X39014669Y-18194724D01*
X38441098Y-17621153D01*
X36714674Y-15894727D01*
X36714673Y-15894726D01*
X36714669Y-15894723D01*
X36608127Y-15823535D01*
X36489744Y-15774499D01*
X36489738Y-15774497D01*
X36364071Y-15749500D01*
X36364069Y-15749500D01*
X33980808Y-15749500D01*
X33913769Y-15729815D01*
X33893127Y-15713181D01*
X33542127Y-15362181D01*
X33508642Y-15300858D01*
X33513626Y-15231166D01*
X33555498Y-15175233D01*
X33620962Y-15150816D01*
X33629808Y-15150500D01*
X33706286Y-15150500D01*
X33706287Y-15150500D01*
X33916243Y-15117246D01*
X34118412Y-15051557D01*
X34307816Y-14955051D01*
X34394138Y-14892335D01*
X34479786Y-14830109D01*
X34479788Y-14830106D01*
X34479792Y-14830104D01*
X34630104Y-14679792D01*
X34630106Y-14679788D01*
X34630109Y-14679786D01*
X34755048Y-14507820D01*
X34755050Y-14507817D01*
X34755051Y-14507816D01*
X34759514Y-14499054D01*
X34807488Y-14448259D01*
X34875308Y-14431463D01*
X34941444Y-14453999D01*
X34980486Y-14499056D01*
X34984951Y-14507820D01*
X35109890Y-14679786D01*
X35260213Y-14830109D01*
X35432179Y-14955048D01*
X35432181Y-14955049D01*
X35432184Y-14955051D01*
X35621588Y-15051557D01*
X35823757Y-15117246D01*
X36033713Y-15150500D01*
X36033714Y-15150500D01*
X36246286Y-15150500D01*
X36246287Y-15150500D01*
X36456243Y-15117246D01*
X36658412Y-15051557D01*
X36847816Y-14955051D01*
X36934138Y-14892335D01*
X37019786Y-14830109D01*
X37019788Y-14830106D01*
X37019792Y-14830104D01*
X37170104Y-14679792D01*
X37170106Y-14679788D01*
X37170109Y-14679786D01*
X37295048Y-14507820D01*
X37295050Y-14507817D01*
X37295051Y-14507816D01*
X37299514Y-14499054D01*
X37347488Y-14448259D01*
X37415308Y-14431463D01*
X37481444Y-14453999D01*
X37520486Y-14499056D01*
X37524951Y-14507820D01*
X37649890Y-14679786D01*
X37649896Y-14679792D01*
X37800208Y-14830104D01*
X37972184Y-14955051D01*
X37972188Y-14955053D01*
X37976126Y-14957914D01*
X37975146Y-14959262D01*
X38017160Y-15005690D01*
X38029500Y-15059617D01*
X38029500Y-16644071D01*
X38037505Y-16684312D01*
X38047522Y-16734669D01*
X38054499Y-16769744D01*
X38103535Y-16888127D01*
X38174723Y-16994669D01*
X38174726Y-16994673D01*
X38174727Y-16994674D01*
X40013181Y-18833127D01*
X40046666Y-18894450D01*
X40049500Y-18920808D01*
X40049500Y-24464069D01*
X40049500Y-24464071D01*
X40049499Y-24464071D01*
X40070519Y-24569735D01*
X40070519Y-24569737D01*
X40074499Y-24589744D01*
X40116277Y-24690606D01*
X40123535Y-24708127D01*
X40176025Y-24786685D01*
X40194726Y-24814673D01*
X43165328Y-27785275D01*
X43261559Y-27849574D01*
X43264180Y-27851325D01*
X43271873Y-27856465D01*
X43390256Y-27905501D01*
X43390260Y-27905501D01*
X43390261Y-27905502D01*
X43515928Y-27930500D01*
X43515931Y-27930500D01*
X44240382Y-27930500D01*
X44307421Y-27950185D01*
X44341099Y-27984591D01*
X44342085Y-27983875D01*
X44469890Y-28159786D01*
X44620213Y-28310109D01*
X44792182Y-28435050D01*
X44800946Y-28439516D01*
X44851742Y-28487491D01*
X44868536Y-28555312D01*
X44845998Y-28621447D01*
X44800946Y-28660484D01*
X44792182Y-28664949D01*
X44620213Y-28789890D01*
X44469890Y-28940213D01*
X44342085Y-29116125D01*
X44340740Y-29115148D01*
X44294295Y-29157166D01*
X44240382Y-29169500D01*
X43440808Y-29169500D01*
X43373769Y-29149815D01*
X43353127Y-29133181D01*
X39517015Y-25297069D01*
X39483530Y-25235746D01*
X39483093Y-25233652D01*
X39469737Y-25166503D01*
X39443976Y-25104309D01*
X39409397Y-25020827D01*
X39409390Y-25020814D01*
X39321789Y-24889711D01*
X39321786Y-24889707D01*
X39210292Y-24778213D01*
X39210288Y-24778210D01*
X39079185Y-24690609D01*
X39079172Y-24690602D01*
X38933501Y-24630264D01*
X38933489Y-24630261D01*
X38778845Y-24599500D01*
X38778842Y-24599500D01*
X38621158Y-24599500D01*
X38621155Y-24599500D01*
X38466510Y-24630261D01*
X38466498Y-24630264D01*
X38320827Y-24690602D01*
X38320814Y-24690609D01*
X38189711Y-24778210D01*
X38189707Y-24778213D01*
X38078213Y-24889707D01*
X38078210Y-24889711D01*
X37990609Y-25020814D01*
X37990602Y-25020827D01*
X37930264Y-25166498D01*
X37930261Y-25166510D01*
X37899500Y-25321153D01*
X37899500Y-25478846D01*
X37930261Y-25633488D01*
X37930264Y-25633501D01*
X37990602Y-25779172D01*
X37990609Y-25779185D01*
X38078210Y-25910288D01*
X38078213Y-25910292D01*
X38189707Y-26021786D01*
X38189711Y-26021789D01*
X38320814Y-26109390D01*
X38320827Y-26109397D01*
X38408230Y-26145599D01*
X38466503Y-26169737D01*
X38533580Y-26183079D01*
X38595488Y-26215461D01*
X38597068Y-26217014D01*
X42705325Y-30325272D01*
X42705326Y-30325273D01*
X42705329Y-30325275D01*
X42705331Y-30325277D01*
X42811873Y-30396465D01*
X42930256Y-30445501D01*
X42930260Y-30445501D01*
X42930261Y-30445502D01*
X43055928Y-30470500D01*
X43055931Y-30470500D01*
X44240382Y-30470500D01*
X44307421Y-30490185D01*
X44341099Y-30524591D01*
X44342085Y-30523875D01*
X44469890Y-30699786D01*
X44620213Y-30850109D01*
X44792182Y-30975050D01*
X44800946Y-30979516D01*
X44851742Y-31027491D01*
X44868536Y-31095312D01*
X44845998Y-31161447D01*
X44800946Y-31200484D01*
X44792182Y-31204949D01*
X44620213Y-31329890D01*
X44469890Y-31480213D01*
X44344951Y-31652179D01*
X44248444Y-31841585D01*
X44182753Y-32043760D01*
X44149500Y-32253713D01*
X44149500Y-32466286D01*
X44178676Y-32650500D01*
X44182754Y-32676243D01*
X44186003Y-32686243D01*
X44248444Y-32878414D01*
X44344951Y-33067820D01*
X44469890Y-33239786D01*
X44620213Y-33390109D01*
X44792182Y-33515050D01*
X44800946Y-33519516D01*
X44851742Y-33567491D01*
X44868536Y-33635312D01*
X44845998Y-33701447D01*
X44800946Y-33740484D01*
X44792182Y-33744949D01*
X44620213Y-33869890D01*
X44469890Y-34020213D01*
X44344951Y-34192179D01*
X44248444Y-34381585D01*
X44182753Y-34583760D01*
X44149500Y-34793713D01*
X44149500Y-35006286D01*
X44173781Y-35159594D01*
X44182754Y-35216243D01*
X44248285Y-35417927D01*
X44248444Y-35418414D01*
X44344951Y-35607820D01*
X44469890Y-35779786D01*
X44620213Y-35930109D01*
X44792182Y-36055050D01*
X44800946Y-36059516D01*
X44851742Y-36107491D01*
X44868536Y-36175312D01*
X44845998Y-36241447D01*
X44800946Y-36280484D01*
X44792182Y-36284949D01*
X44620213Y-36409890D01*
X44469890Y-36560213D01*
X44344951Y-36732179D01*
X44248444Y-36921585D01*
X44182753Y-37123760D01*
X44149500Y-37333713D01*
X44149500Y-37546286D01*
X44178643Y-37730292D01*
X44182754Y-37756243D01*
X44239015Y-37929397D01*
X44248444Y-37958414D01*
X44344951Y-38147820D01*
X44469890Y-38319786D01*
X44620213Y-38470109D01*
X44792182Y-38595050D01*
X44800946Y-38599516D01*
X44851742Y-38647491D01*
X44868536Y-38715312D01*
X44845998Y-38781447D01*
X44800946Y-38820484D01*
X44792182Y-38824949D01*
X44620213Y-38949890D01*
X44469890Y-39100213D01*
X44344951Y-39272179D01*
X44248444Y-39461585D01*
X44182753Y-39663760D01*
X44173717Y-39720814D01*
X44149500Y-39873713D01*
X44149500Y-40086287D01*
X44182754Y-40296243D01*
X44186003Y-40306243D01*
X44248444Y-40498414D01*
X44344951Y-40687820D01*
X44469890Y-40859786D01*
X44620213Y-41010109D01*
X44792182Y-41135050D01*
X44800946Y-41139516D01*
X44851742Y-41187491D01*
X44868536Y-41255312D01*
X44845998Y-41321447D01*
X44800946Y-41360484D01*
X44792182Y-41364949D01*
X44620213Y-41489890D01*
X44469890Y-41640213D01*
X44344951Y-41812179D01*
X44248444Y-42001585D01*
X44182753Y-42203760D01*
X44169140Y-42289711D01*
X44149500Y-42413713D01*
X44149500Y-42626287D01*
X44182754Y-42836243D01*
X44246847Y-43033501D01*
X44248444Y-43038414D01*
X44344951Y-43227820D01*
X44469890Y-43399786D01*
X44620213Y-43550109D01*
X44792182Y-43675050D01*
X44800946Y-43679516D01*
X44851742Y-43727491D01*
X44868536Y-43795312D01*
X44845998Y-43861447D01*
X44800946Y-43900484D01*
X44792182Y-43904949D01*
X44620213Y-44029890D01*
X44469890Y-44180213D01*
X44344951Y-44352179D01*
X44248444Y-44541585D01*
X44182753Y-44743760D01*
X44172850Y-44806286D01*
X44149500Y-44953713D01*
X44149500Y-45166287D01*
X44159534Y-45229644D01*
X44177013Y-45340000D01*
X44182754Y-45376243D01*
X44241136Y-45555925D01*
X44248444Y-45578414D01*
X44344951Y-45767820D01*
X44469890Y-45939786D01*
X44583430Y-46053326D01*
X44616915Y-46114649D01*
X44611931Y-46184341D01*
X44570059Y-46240274D01*
X44539083Y-46257189D01*
X44407669Y-46306203D01*
X44407664Y-46306206D01*
X44292455Y-46392452D01*
X44292452Y-46392455D01*
X44206206Y-46507664D01*
X44206202Y-46507671D01*
X44155908Y-46642517D01*
X44149501Y-46702116D01*
X44149501Y-46702123D01*
X44149500Y-46702135D01*
X44149500Y-48497870D01*
X44149501Y-48497876D01*
X44155908Y-48557483D01*
X44206202Y-48692328D01*
X44206206Y-48692335D01*
X44292452Y-48807544D01*
X44292455Y-48807547D01*
X44407664Y-48893793D01*
X44407671Y-48893797D01*
X44542517Y-48944091D01*
X44542516Y-48944091D01*
X44549444Y-48944835D01*
X44602127Y-48950500D01*
X46397872Y-48950499D01*
X46457483Y-48944091D01*
X46592331Y-48893796D01*
X46707546Y-48807546D01*
X46793796Y-48692331D01*
X46844091Y-48557483D01*
X46850500Y-48497873D01*
X46850499Y-46702128D01*
X46844091Y-46642517D01*
X46836001Y-46620827D01*
X46793797Y-46507671D01*
X46793793Y-46507664D01*
X46707547Y-46392455D01*
X46707544Y-46392452D01*
X46592335Y-46306206D01*
X46592328Y-46306202D01*
X46460917Y-46257189D01*
X46404983Y-46215318D01*
X46380566Y-46149853D01*
X46395418Y-46081580D01*
X46416563Y-46053332D01*
X46530104Y-45939792D01*
X46655051Y-45767816D01*
X46690520Y-45698205D01*
X46690521Y-45698204D01*
X46738495Y-45647409D01*
X46801005Y-45630500D01*
X48093900Y-45630500D01*
X48160939Y-45650185D01*
X48204385Y-45698205D01*
X48244817Y-45777557D01*
X48244951Y-45777819D01*
X48369890Y-45949786D01*
X48483430Y-46063326D01*
X48516915Y-46124649D01*
X48511931Y-46194341D01*
X48470059Y-46250274D01*
X48439083Y-46267189D01*
X48307669Y-46316203D01*
X48307664Y-46316206D01*
X48192455Y-46402452D01*
X48192452Y-46402455D01*
X48106206Y-46517664D01*
X48106202Y-46517671D01*
X48055908Y-46652517D01*
X48050575Y-46702127D01*
X48049501Y-46712123D01*
X48049500Y-46712135D01*
X48049500Y-48507870D01*
X48049501Y-48507876D01*
X48055908Y-48567483D01*
X48106202Y-48702328D01*
X48106206Y-48702335D01*
X48192452Y-48817544D01*
X48192455Y-48817547D01*
X48307664Y-48903793D01*
X48307671Y-48903797D01*
X48442517Y-48954091D01*
X48442516Y-48954091D01*
X48449444Y-48954835D01*
X48502127Y-48960500D01*
X50297872Y-48960499D01*
X50357483Y-48954091D01*
X50492331Y-48903796D01*
X50607546Y-48817546D01*
X50693796Y-48702331D01*
X50744091Y-48567483D01*
X50750500Y-48507873D01*
X50750499Y-46712128D01*
X50744091Y-46652517D01*
X50740361Y-46642517D01*
X50693797Y-46517671D01*
X50693793Y-46517664D01*
X50607547Y-46402455D01*
X50607544Y-46402452D01*
X50492335Y-46316206D01*
X50492328Y-46316202D01*
X50360917Y-46267189D01*
X50304983Y-46225318D01*
X50280566Y-46159853D01*
X50295418Y-46091580D01*
X50316563Y-46063332D01*
X50430104Y-45949792D01*
X50437370Y-45939792D01*
X50555048Y-45777820D01*
X50555049Y-45777819D01*
X50555051Y-45777816D01*
X50651557Y-45588412D01*
X50717246Y-45386243D01*
X50750500Y-45176287D01*
X50750500Y-44963713D01*
X50717246Y-44753757D01*
X50651557Y-44551588D01*
X50555051Y-44362184D01*
X50555049Y-44362181D01*
X50555048Y-44362179D01*
X50430109Y-44190213D01*
X50279786Y-44039890D01*
X50107820Y-43914951D01*
X50099600Y-43910763D01*
X50099054Y-43910485D01*
X50048259Y-43862512D01*
X50031463Y-43794692D01*
X50053999Y-43728556D01*
X50099054Y-43689515D01*
X50107816Y-43685051D01*
X50174202Y-43636819D01*
X50279786Y-43560109D01*
X50279788Y-43560106D01*
X50279792Y-43560104D01*
X50430104Y-43409792D01*
X50430106Y-43409788D01*
X50430109Y-43409786D01*
X50543384Y-43253875D01*
X50555051Y-43237816D01*
X50651557Y-43048412D01*
X50717246Y-42846243D01*
X50750500Y-42636287D01*
X50750500Y-42423713D01*
X50717246Y-42213757D01*
X50651557Y-42011588D01*
X50555051Y-41822184D01*
X50555049Y-41822181D01*
X50555048Y-41822179D01*
X50430109Y-41650213D01*
X50279786Y-41499890D01*
X50107820Y-41374951D01*
X50107115Y-41374591D01*
X50099054Y-41370485D01*
X50048259Y-41322512D01*
X50031463Y-41254692D01*
X50053999Y-41188556D01*
X50099054Y-41149515D01*
X50107816Y-41145051D01*
X50129789Y-41129086D01*
X50279786Y-41020109D01*
X50279788Y-41020106D01*
X50279792Y-41020104D01*
X50430104Y-40869792D01*
X50430106Y-40869788D01*
X50430109Y-40869786D01*
X50543384Y-40713875D01*
X50555051Y-40697816D01*
X50651557Y-40508412D01*
X50717246Y-40306243D01*
X50750500Y-40096287D01*
X50750500Y-39883713D01*
X50717246Y-39673757D01*
X50651557Y-39471588D01*
X50555051Y-39282184D01*
X50555049Y-39282181D01*
X50555048Y-39282179D01*
X50430109Y-39110213D01*
X50279786Y-38959890D01*
X50107820Y-38834951D01*
X50107115Y-38834591D01*
X50099054Y-38830485D01*
X50048259Y-38782512D01*
X50031463Y-38714692D01*
X50053999Y-38648556D01*
X50099054Y-38609515D01*
X50107816Y-38605051D01*
X50129789Y-38589086D01*
X50279786Y-38480109D01*
X50279788Y-38480106D01*
X50279792Y-38480104D01*
X50430104Y-38329792D01*
X50430106Y-38329788D01*
X50430109Y-38329786D01*
X50543384Y-38173875D01*
X50555051Y-38157816D01*
X50651557Y-37968412D01*
X50717246Y-37766243D01*
X50750500Y-37556287D01*
X50750500Y-37343713D01*
X50717246Y-37133757D01*
X50651557Y-36931588D01*
X50555051Y-36742184D01*
X50555049Y-36742181D01*
X50555048Y-36742179D01*
X50430109Y-36570213D01*
X50279786Y-36419890D01*
X50107820Y-36294951D01*
X50106897Y-36294481D01*
X50099054Y-36290485D01*
X50048259Y-36242512D01*
X50031463Y-36174692D01*
X50053999Y-36108556D01*
X50099054Y-36069515D01*
X50107816Y-36065051D01*
X50166610Y-36022335D01*
X50279786Y-35940109D01*
X50279788Y-35940106D01*
X50279792Y-35940104D01*
X50430104Y-35789792D01*
X50430106Y-35789788D01*
X50430109Y-35789786D01*
X50555048Y-35617820D01*
X50555049Y-35617819D01*
X50555051Y-35617816D01*
X50651557Y-35428412D01*
X50717246Y-35226243D01*
X50750500Y-35016287D01*
X50750500Y-34803713D01*
X50717246Y-34593757D01*
X50651557Y-34391588D01*
X50555051Y-34202184D01*
X50555049Y-34202181D01*
X50555048Y-34202179D01*
X50430109Y-34030213D01*
X50279786Y-33879890D01*
X50107820Y-33754951D01*
X50107115Y-33754591D01*
X50099054Y-33750485D01*
X50048259Y-33702512D01*
X50031463Y-33634692D01*
X50053999Y-33568556D01*
X50099054Y-33529515D01*
X50107816Y-33525051D01*
X50197554Y-33459853D01*
X50279786Y-33400109D01*
X50279788Y-33400106D01*
X50279792Y-33400104D01*
X50430104Y-33249792D01*
X50430106Y-33249788D01*
X50430109Y-33249786D01*
X50555048Y-33077820D01*
X50555049Y-33077819D01*
X50555051Y-33077816D01*
X50651557Y-32888412D01*
X50717246Y-32686243D01*
X50750500Y-32476287D01*
X50750500Y-32263713D01*
X50717246Y-32053757D01*
X50651557Y-31851588D01*
X50555051Y-31662184D01*
X50555049Y-31662181D01*
X50555048Y-31662179D01*
X50430109Y-31490213D01*
X50279786Y-31339890D01*
X50107820Y-31214951D01*
X50107115Y-31214591D01*
X50099054Y-31210485D01*
X50048259Y-31162512D01*
X50031463Y-31094692D01*
X50053999Y-31028556D01*
X50099054Y-30989515D01*
X50107816Y-30985051D01*
X50129789Y-30969086D01*
X50279786Y-30860109D01*
X50279788Y-30860106D01*
X50279792Y-30860104D01*
X50430104Y-30709792D01*
X50430106Y-30709788D01*
X50430109Y-30709786D01*
X50555048Y-30537820D01*
X50555049Y-30537819D01*
X50555051Y-30537816D01*
X50651557Y-30348412D01*
X50717246Y-30146243D01*
X50750500Y-29936287D01*
X50750500Y-29723713D01*
X50717246Y-29513757D01*
X50651557Y-29311588D01*
X50555051Y-29122184D01*
X50555049Y-29122181D01*
X50555048Y-29122179D01*
X50430109Y-28950213D01*
X50279786Y-28799890D01*
X50107820Y-28674951D01*
X50107115Y-28674591D01*
X50099054Y-28670485D01*
X50048259Y-28622512D01*
X50031463Y-28554692D01*
X50053999Y-28488556D01*
X50099054Y-28449515D01*
X50107816Y-28445051D01*
X50129789Y-28429086D01*
X50279786Y-28320109D01*
X50279788Y-28320106D01*
X50279792Y-28320104D01*
X50430104Y-28169792D01*
X50430106Y-28169788D01*
X50430109Y-28169786D01*
X50555048Y-27997820D01*
X50555047Y-27997820D01*
X50555051Y-27997816D01*
X50651557Y-27808412D01*
X50717246Y-27606243D01*
X50750500Y-27396287D01*
X50750500Y-27183713D01*
X50717246Y-26973757D01*
X50651557Y-26771588D01*
X50555051Y-26582184D01*
X50555049Y-26582181D01*
X50555048Y-26582179D01*
X50430109Y-26410213D01*
X50279786Y-26259890D01*
X50107820Y-26134951D01*
X50107115Y-26134591D01*
X50099054Y-26130485D01*
X50048259Y-26082512D01*
X50031463Y-26014692D01*
X50053999Y-25948556D01*
X50099054Y-25909515D01*
X50107816Y-25905051D01*
X50129789Y-25889086D01*
X50279786Y-25780109D01*
X50279788Y-25780106D01*
X50279792Y-25780104D01*
X50430104Y-25629792D01*
X50430106Y-25629788D01*
X50430109Y-25629786D01*
X50554304Y-25458844D01*
X50555051Y-25457816D01*
X50651557Y-25268412D01*
X50717246Y-25066243D01*
X50750500Y-24856287D01*
X50750500Y-24643713D01*
X50717246Y-24433757D01*
X50651557Y-24231588D01*
X50555051Y-24042184D01*
X50555049Y-24042181D01*
X50555048Y-24042179D01*
X50430109Y-23870213D01*
X50279786Y-23719890D01*
X50107820Y-23594951D01*
X50107115Y-23594591D01*
X50099054Y-23590485D01*
X50048259Y-23542512D01*
X50031463Y-23474692D01*
X50053999Y-23408556D01*
X50099054Y-23369515D01*
X50107816Y-23365051D01*
X50129789Y-23349086D01*
X50279786Y-23240109D01*
X50279788Y-23240106D01*
X50279792Y-23240104D01*
X50430104Y-23089792D01*
X50430106Y-23089788D01*
X50430109Y-23089786D01*
X50555048Y-22917820D01*
X50555049Y-22917819D01*
X50555051Y-22917816D01*
X50651557Y-22728412D01*
X50717246Y-22526243D01*
X50750500Y-22316287D01*
X50750500Y-22103713D01*
X50717246Y-21893757D01*
X50651557Y-21691588D01*
X50555051Y-21502184D01*
X50555049Y-21502181D01*
X50555048Y-21502179D01*
X50430109Y-21330213D01*
X50279786Y-21179890D01*
X50107820Y-21054951D01*
X50107115Y-21054591D01*
X50099054Y-21050485D01*
X50048259Y-21002512D01*
X50031463Y-20934692D01*
X50053999Y-20868556D01*
X50099054Y-20829515D01*
X50107816Y-20825051D01*
X50129789Y-20809086D01*
X50279786Y-20700109D01*
X50279788Y-20700106D01*
X50279792Y-20700104D01*
X50430104Y-20549792D01*
X50430106Y-20549788D01*
X50430109Y-20549786D01*
X50555048Y-20377820D01*
X50555049Y-20377819D01*
X50555051Y-20377816D01*
X50651557Y-20188412D01*
X50717246Y-19986243D01*
X50750500Y-19776287D01*
X50750500Y-19563713D01*
X50717246Y-19353757D01*
X50651557Y-19151588D01*
X50555051Y-18962184D01*
X50555049Y-18962181D01*
X50555048Y-18962179D01*
X50430109Y-18790213D01*
X50279786Y-18639890D01*
X50107820Y-18514951D01*
X49918414Y-18418444D01*
X49918413Y-18418443D01*
X49918412Y-18418443D01*
X49716243Y-18352754D01*
X49716241Y-18352753D01*
X49716240Y-18352753D01*
X49554957Y-18327208D01*
X49506287Y-18319500D01*
X49293713Y-18319500D01*
X49245042Y-18327208D01*
X49083760Y-18352753D01*
X49083757Y-18352754D01*
X48906770Y-18410261D01*
X48881585Y-18418444D01*
X48692179Y-18514951D01*
X48520213Y-18639890D01*
X48369892Y-18790211D01*
X48305833Y-18878384D01*
X48250503Y-18921051D01*
X48205514Y-18929500D01*
X46701751Y-18929500D01*
X46634712Y-18909815D01*
X46601432Y-18878384D01*
X46594938Y-18869446D01*
X46551904Y-18810213D01*
X46530107Y-18780211D01*
X46379786Y-18629890D01*
X46207820Y-18504951D01*
X46018414Y-18408444D01*
X46018413Y-18408443D01*
X46018412Y-18408443D01*
X45816243Y-18342754D01*
X45816241Y-18342753D01*
X45816240Y-18342753D01*
X45654957Y-18317208D01*
X45606287Y-18309500D01*
X45393713Y-18309500D01*
X45345042Y-18317208D01*
X45183760Y-18342753D01*
X44981585Y-18408444D01*
X44792179Y-18504951D01*
X44620213Y-18629890D01*
X44469890Y-18780213D01*
X44344951Y-18952179D01*
X44248444Y-19141585D01*
X44182753Y-19343760D01*
X44149500Y-19553713D01*
X44149500Y-19766286D01*
X44175983Y-19933497D01*
X44182754Y-19976243D01*
X44186003Y-19986243D01*
X44248444Y-20178414D01*
X44344951Y-20367820D01*
X44469890Y-20539786D01*
X44620213Y-20690109D01*
X44792182Y-20815050D01*
X44800946Y-20819516D01*
X44851742Y-20867491D01*
X44868536Y-20935312D01*
X44845998Y-21001447D01*
X44800946Y-21040484D01*
X44792182Y-21044949D01*
X44620213Y-21169890D01*
X44469890Y-21320213D01*
X44344951Y-21492179D01*
X44248444Y-21681585D01*
X44182753Y-21883760D01*
X44149500Y-22093713D01*
X44149500Y-22170192D01*
X44129815Y-22237231D01*
X44077011Y-22282986D01*
X44007853Y-22292930D01*
X43944297Y-22263905D01*
X43937819Y-22257873D01*
X43417015Y-21737069D01*
X43383530Y-21675746D01*
X43383093Y-21673652D01*
X43369737Y-21606503D01*
X43329096Y-21508385D01*
X43309397Y-21460827D01*
X43309390Y-21460814D01*
X43221789Y-21329711D01*
X43221786Y-21329707D01*
X43110292Y-21218213D01*
X43110288Y-21218210D01*
X42979185Y-21130609D01*
X42979172Y-21130602D01*
X42833501Y-21070264D01*
X42833489Y-21070261D01*
X42678845Y-21039500D01*
X42678842Y-21039500D01*
X42521158Y-21039500D01*
X42521155Y-21039500D01*
X42366510Y-21070261D01*
X42366498Y-21070264D01*
X42220827Y-21130602D01*
X42220814Y-21130609D01*
X42089711Y-21218210D01*
X42089707Y-21218213D01*
X41978213Y-21329707D01*
X41978210Y-21329711D01*
X41890609Y-21460814D01*
X41890602Y-21460827D01*
X41830264Y-21606498D01*
X41830261Y-21606510D01*
X41799500Y-21761153D01*
X41799500Y-21918846D01*
X41830261Y-22073489D01*
X41830264Y-22073501D01*
X41890602Y-22219172D01*
X41890609Y-22219185D01*
X41978210Y-22350288D01*
X41978213Y-22350292D01*
X42089707Y-22461786D01*
X42089711Y-22461789D01*
X42220814Y-22549390D01*
X42220827Y-22549397D01*
X42308230Y-22585599D01*
X42366503Y-22609737D01*
X42433580Y-22623079D01*
X42495490Y-22655463D01*
X42497069Y-22657015D01*
X44149342Y-24309288D01*
X44182827Y-24370611D01*
X44182319Y-24418755D01*
X44183516Y-24418945D01*
X44176369Y-24464069D01*
X44149500Y-24633713D01*
X44149500Y-24846287D01*
X44156377Y-24889707D01*
X44177144Y-25020827D01*
X44182754Y-25056243D01*
X44241078Y-25235746D01*
X44248444Y-25258414D01*
X44344951Y-25447820D01*
X44469890Y-25619786D01*
X44620213Y-25770109D01*
X44792182Y-25895050D01*
X44800946Y-25899516D01*
X44851742Y-25947491D01*
X44868536Y-26015312D01*
X44845998Y-26081447D01*
X44800946Y-26120484D01*
X44792182Y-26124949D01*
X44620213Y-26249890D01*
X44469890Y-26400213D01*
X44342085Y-26576125D01*
X44340740Y-26575148D01*
X44294295Y-26617166D01*
X44240382Y-26629500D01*
X43900808Y-26629500D01*
X43833769Y-26609815D01*
X43813127Y-26593181D01*
X41386819Y-24166873D01*
X41353334Y-24105550D01*
X41350500Y-24079192D01*
X41350500Y-18535928D01*
X41325502Y-18410261D01*
X41325501Y-18410260D01*
X41325501Y-18410256D01*
X41276465Y-18291873D01*
X41266170Y-18276465D01*
X41254466Y-18258949D01*
X41205279Y-18185334D01*
X41205273Y-18185326D01*
X39366819Y-16346872D01*
X39333334Y-16285549D01*
X39330500Y-16259191D01*
X39330500Y-15059617D01*
X39350185Y-14992578D01*
X39384592Y-14958902D01*
X39383874Y-14957914D01*
X39387811Y-14955053D01*
X39387816Y-14955051D01*
X39559792Y-14830104D01*
X39710104Y-14679792D01*
X39710106Y-14679788D01*
X39710109Y-14679786D01*
X39835048Y-14507820D01*
X39835050Y-14507817D01*
X39835051Y-14507816D01*
X39839514Y-14499054D01*
X39887488Y-14448259D01*
X39955308Y-14431463D01*
X40021444Y-14453999D01*
X40060486Y-14499056D01*
X40064951Y-14507820D01*
X40189890Y-14679786D01*
X40189896Y-14679792D01*
X40340208Y-14830104D01*
X40512184Y-14955051D01*
X40512188Y-14955053D01*
X40516126Y-14957914D01*
X40515146Y-14959262D01*
X40557160Y-15005690D01*
X40569500Y-15059617D01*
X40569500Y-16384071D01*
X40590065Y-16487453D01*
X40594499Y-16509744D01*
X40643535Y-16628127D01*
X40681075Y-16684310D01*
X40714724Y-16734670D01*
X40714727Y-16734674D01*
X41782984Y-17802930D01*
X41816469Y-17864253D01*
X41816920Y-17866420D01*
X41830261Y-17933489D01*
X41830264Y-17933501D01*
X41890602Y-18079172D01*
X41890609Y-18079185D01*
X41978210Y-18210288D01*
X41978213Y-18210292D01*
X42089707Y-18321786D01*
X42089711Y-18321789D01*
X42220814Y-18409390D01*
X42220827Y-18409397D01*
X42290954Y-18438444D01*
X42366503Y-18469737D01*
X42521153Y-18500499D01*
X42521156Y-18500500D01*
X42521158Y-18500500D01*
X42678844Y-18500500D01*
X42678845Y-18500499D01*
X42833497Y-18469737D01*
X42977098Y-18410256D01*
X42979172Y-18409397D01*
X42979172Y-18409396D01*
X42979179Y-18409394D01*
X43110289Y-18321789D01*
X43221789Y-18210289D01*
X43309394Y-18079179D01*
X43369737Y-17933497D01*
X43400500Y-17778842D01*
X43400500Y-17621158D01*
X43400500Y-17621155D01*
X43400499Y-17621153D01*
X43377498Y-17505519D01*
X43369737Y-17466503D01*
X43369735Y-17466498D01*
X43309397Y-17320827D01*
X43309390Y-17320814D01*
X43221789Y-17189711D01*
X43221786Y-17189707D01*
X43110292Y-17078213D01*
X43110288Y-17078210D01*
X42979185Y-16990609D01*
X42979172Y-16990602D01*
X42833501Y-16930264D01*
X42833489Y-16930261D01*
X42766420Y-16916920D01*
X42704509Y-16884535D01*
X42702930Y-16882984D01*
X41906819Y-16086873D01*
X41873334Y-16025550D01*
X41870500Y-15999192D01*
X41870500Y-15059617D01*
X41890185Y-14992578D01*
X41924592Y-14958902D01*
X41923874Y-14957914D01*
X41927811Y-14955053D01*
X41927816Y-14955051D01*
X42099792Y-14830104D01*
X42245125Y-14684770D01*
X42306444Y-14651288D01*
X42376136Y-14656272D01*
X42432070Y-14698143D01*
X42452591Y-14750294D01*
X42454124Y-14749932D01*
X42455907Y-14757479D01*
X42506202Y-14892328D01*
X42506206Y-14892335D01*
X42592452Y-15007544D01*
X42592455Y-15007547D01*
X42707664Y-15093793D01*
X42707671Y-15093797D01*
X42842517Y-15144091D01*
X42842516Y-15144091D01*
X42849444Y-15144835D01*
X42902127Y-15150500D01*
X44697872Y-15150499D01*
X44757483Y-15144091D01*
X44892331Y-15093796D01*
X45007546Y-15007546D01*
X45093796Y-14892331D01*
X45132136Y-14789535D01*
X45174006Y-14733602D01*
X45239471Y-14709184D01*
X45307744Y-14724035D01*
X45335999Y-14745187D01*
X45420535Y-14829723D01*
X45420540Y-14829727D01*
X45592442Y-14954620D01*
X45781782Y-15051095D01*
X45983871Y-15116757D01*
X46050000Y-15127231D01*
X46050000Y-14233012D01*
X46107007Y-14265925D01*
X46234174Y-14300000D01*
X46365826Y-14300000D01*
X46492993Y-14265925D01*
X46550000Y-14233012D01*
X46550000Y-15127230D01*
X46616126Y-15116757D01*
X46616129Y-15116757D01*
X46818217Y-15051095D01*
X47007557Y-14954620D01*
X47179459Y-14829727D01*
X47179464Y-14829723D01*
X47329723Y-14679464D01*
X47329727Y-14679459D01*
X47454620Y-14507558D01*
X47459232Y-14498507D01*
X47507205Y-14447709D01*
X47575025Y-14430912D01*
X47641161Y-14453447D01*
X47680204Y-14498504D01*
X47684949Y-14507817D01*
X47809890Y-14679786D01*
X47960213Y-14830109D01*
X48132179Y-14955048D01*
X48132181Y-14955049D01*
X48132184Y-14955051D01*
X48321588Y-15051557D01*
X48523757Y-15117246D01*
X48733713Y-15150500D01*
X48733714Y-15150500D01*
X48946286Y-15150500D01*
X48946287Y-15150500D01*
X49156243Y-15117246D01*
X49358412Y-15051557D01*
X49547816Y-14955051D01*
X49634138Y-14892335D01*
X49719786Y-14830109D01*
X49719788Y-14830106D01*
X49719792Y-14830104D01*
X49870104Y-14679792D01*
X49870106Y-14679788D01*
X49870109Y-14679786D01*
X49995048Y-14507820D01*
X49995050Y-14507817D01*
X49995051Y-14507816D01*
X50091557Y-14318412D01*
X50157246Y-14116243D01*
X50190500Y-13906287D01*
X50190500Y-13693713D01*
X50157246Y-13483757D01*
X50091557Y-13281588D01*
X49995051Y-13092184D01*
X49995049Y-13092181D01*
X49995048Y-13092179D01*
X49870109Y-12920213D01*
X49812077Y-12862181D01*
X49778592Y-12800858D01*
X49783576Y-12731166D01*
X49825448Y-12675233D01*
X49890912Y-12650816D01*
X49899758Y-12650500D01*
X52895500Y-12650500D01*
X52962539Y-12670185D01*
X53008294Y-12722989D01*
X53019500Y-12774500D01*
X53019500Y-78925500D01*
X52999815Y-78992539D01*
X52947011Y-79038294D01*
X52895500Y-79049500D01*
X32972244Y-79049500D01*
X32905205Y-79029815D01*
X32859450Y-78977011D01*
X32848954Y-78912247D01*
X32850500Y-78897873D01*
X32850499Y-77102128D01*
X32844091Y-77042517D01*
X32831094Y-77007671D01*
X32793797Y-76907671D01*
X32793793Y-76907664D01*
X32707547Y-76792455D01*
X32707544Y-76792452D01*
X32592335Y-76706206D01*
X32592328Y-76706202D01*
X32457482Y-76655908D01*
X32457483Y-76655908D01*
X32397883Y-76649501D01*
X32397881Y-76649500D01*
X32397873Y-76649500D01*
X32397864Y-76649500D01*
X30602129Y-76649500D01*
X30602123Y-76649501D01*
X30542516Y-76655908D01*
X30407671Y-76706202D01*
X30407664Y-76706206D01*
X30292455Y-76792452D01*
X30292452Y-76792455D01*
X30206206Y-76907664D01*
X30206203Y-76907670D01*
X30190032Y-76951027D01*
X30148160Y-77006960D01*
X30082696Y-77031377D01*
X30014423Y-77016525D01*
X29974584Y-76982004D01*
X29907547Y-76892455D01*
X29907544Y-76892452D01*
X29792335Y-76806206D01*
X29792328Y-76806202D01*
X29657482Y-76755908D01*
X29657483Y-76755908D01*
X29597883Y-76749501D01*
X29597881Y-76749500D01*
X29597873Y-76749500D01*
X29597864Y-76749500D01*
X27802129Y-76749500D01*
X27802123Y-76749501D01*
X27742516Y-76755908D01*
X27607671Y-76806202D01*
X27607664Y-76806206D01*
X27492455Y-76892452D01*
X27492452Y-76892455D01*
X27406206Y-77007664D01*
X27406202Y-77007671D01*
X27355908Y-77142517D01*
X27349501Y-77202116D01*
X27349500Y-77202135D01*
X27349500Y-77278186D01*
X27329815Y-77345225D01*
X27277011Y-77390980D01*
X27207853Y-77400924D01*
X27144297Y-77371899D01*
X27125182Y-77351071D01*
X27030109Y-77220214D01*
X27030105Y-77220209D01*
X26879786Y-77069890D01*
X26707820Y-76944951D01*
X26518414Y-76848444D01*
X26518413Y-76848443D01*
X26518412Y-76848443D01*
X26316243Y-76782754D01*
X26316241Y-76782753D01*
X26316240Y-76782753D01*
X26154957Y-76757208D01*
X26106287Y-76749500D01*
X25893713Y-76749500D01*
X25845042Y-76757208D01*
X25683760Y-76782753D01*
X25481585Y-76848444D01*
X25292179Y-76944951D01*
X25116266Y-77072759D01*
X25115635Y-77071891D01*
X25056581Y-77098359D01*
X25039800Y-77099500D01*
X22924362Y-77099500D01*
X22857323Y-77079815D01*
X22836681Y-77063181D01*
X21386819Y-75613319D01*
X21353334Y-75551996D01*
X21350500Y-75525638D01*
X21350500Y-75393713D01*
X21317246Y-75183760D01*
X21317246Y-75183757D01*
X21251557Y-74981588D01*
X21155051Y-74792184D01*
X21155049Y-74792181D01*
X21155048Y-74792179D01*
X21030109Y-74620213D01*
X20879786Y-74469890D01*
X20707820Y-74344951D01*
X20518414Y-74248444D01*
X20518413Y-74248443D01*
X20518412Y-74248443D01*
X20316243Y-74182754D01*
X20316241Y-74182753D01*
X20316240Y-74182753D01*
X20154957Y-74157208D01*
X20106287Y-74149500D01*
X19893713Y-74149500D01*
X19845042Y-74157208D01*
X19683760Y-74182753D01*
X19481585Y-74248444D01*
X19292179Y-74344951D01*
X19120213Y-74469890D01*
X18969890Y-74620213D01*
X18844951Y-74792179D01*
X18748444Y-74981585D01*
X18682753Y-75183760D01*
X18661426Y-75318414D01*
X18649500Y-75393713D01*
X18649500Y-75606287D01*
X18682754Y-75816243D01*
X18687259Y-75830109D01*
X18748444Y-76018414D01*
X18844951Y-76207820D01*
X18969890Y-76379786D01*
X19120209Y-76530105D01*
X19120214Y-76530109D01*
X19284793Y-76649682D01*
X19327459Y-76705011D01*
X19333438Y-76774625D01*
X19300833Y-76836420D01*
X19284793Y-76850318D01*
X19120214Y-76969890D01*
X19120209Y-76969894D01*
X18969890Y-77120213D01*
X18844951Y-77292179D01*
X18748444Y-77481585D01*
X18682753Y-77683760D01*
X18666915Y-77783757D01*
X18649500Y-77893713D01*
X18649500Y-78106287D01*
X18682754Y-78316243D01*
X18748443Y-78518412D01*
X18799395Y-78618412D01*
X18844951Y-78707819D01*
X18950150Y-78852615D01*
X18973630Y-78918421D01*
X18957804Y-78986475D01*
X18907698Y-79035170D01*
X18849832Y-79049500D01*
X17744500Y-79049500D01*
X17677461Y-79029815D01*
X17631706Y-78977011D01*
X17620500Y-78925500D01*
X17620500Y-67893713D01*
X22599500Y-67893713D01*
X22599500Y-68106286D01*
X22622278Y-68250104D01*
X22632754Y-68316243D01*
X22694186Y-68505311D01*
X22698444Y-68518414D01*
X22794951Y-68707820D01*
X22919890Y-68879786D01*
X23070213Y-69030109D01*
X23242179Y-69155048D01*
X23242181Y-69155049D01*
X23242184Y-69155051D01*
X23431588Y-69251557D01*
X23633757Y-69317246D01*
X23843713Y-69350500D01*
X23843714Y-69350500D01*
X24056286Y-69350500D01*
X24056287Y-69350500D01*
X24266243Y-69317246D01*
X24468412Y-69251557D01*
X24657816Y-69155051D01*
X24709961Y-69117166D01*
X24829786Y-69030109D01*
X24829788Y-69030106D01*
X24829792Y-69030104D01*
X24980104Y-68879792D01*
X25065182Y-68762691D01*
X25120511Y-68720026D01*
X25190124Y-68714047D01*
X25251920Y-68746652D01*
X25286277Y-68807491D01*
X25289500Y-68835577D01*
X25289500Y-71283717D01*
X25269815Y-71350756D01*
X25238385Y-71384035D01*
X25120214Y-71469890D01*
X25120209Y-71469894D01*
X24969890Y-71620213D01*
X24844951Y-71792179D01*
X24748444Y-71981585D01*
X24682753Y-72183760D01*
X24660587Y-72323713D01*
X24649500Y-72393713D01*
X24649500Y-72606287D01*
X24682754Y-72816243D01*
X24744561Y-73006466D01*
X24748444Y-73018414D01*
X24844951Y-73207820D01*
X24969890Y-73379786D01*
X25120213Y-73530109D01*
X25292179Y-73655048D01*
X25292181Y-73655049D01*
X25292184Y-73655051D01*
X25481588Y-73751557D01*
X25683757Y-73817246D01*
X25893713Y-73850500D01*
X25893714Y-73850500D01*
X26106286Y-73850500D01*
X26106287Y-73850500D01*
X26316243Y-73817246D01*
X26518412Y-73751557D01*
X26707816Y-73655051D01*
X26762942Y-73615000D01*
X26879786Y-73530109D01*
X26879788Y-73530106D01*
X26879792Y-73530104D01*
X27030104Y-73379792D01*
X27030106Y-73379788D01*
X27030109Y-73379786D01*
X27155048Y-73207820D01*
X27155047Y-73207820D01*
X27155051Y-73207816D01*
X27251557Y-73018412D01*
X27317246Y-72816243D01*
X27350500Y-72606287D01*
X27350500Y-72393713D01*
X27317246Y-72183757D01*
X27251557Y-71981588D01*
X27155051Y-71792184D01*
X27155049Y-71792181D01*
X27155048Y-71792179D01*
X27030109Y-71620213D01*
X26926819Y-71516923D01*
X26893334Y-71455600D01*
X26890500Y-71429242D01*
X26890500Y-69379959D01*
X26910185Y-69312920D01*
X26962989Y-69267165D01*
X26976160Y-69262036D01*
X27008412Y-69251557D01*
X27197816Y-69155051D01*
X27249961Y-69117166D01*
X27369786Y-69030109D01*
X27369788Y-69030106D01*
X27369792Y-69030104D01*
X27425059Y-68974837D01*
X27486382Y-68941352D01*
X27556074Y-68946336D01*
X27612007Y-68988208D01*
X27628922Y-69019185D01*
X27656202Y-69092328D01*
X27656206Y-69092335D01*
X27742452Y-69207544D01*
X27742455Y-69207547D01*
X27857664Y-69293793D01*
X27857671Y-69293797D01*
X27992517Y-69344091D01*
X27992516Y-69344091D01*
X27999444Y-69344835D01*
X28052127Y-69350500D01*
X29847872Y-69350499D01*
X29907483Y-69344091D01*
X30042331Y-69293796D01*
X30157546Y-69207546D01*
X30243796Y-69092331D01*
X30249841Y-69076125D01*
X30282136Y-68989536D01*
X30324006Y-68933602D01*
X30389471Y-68909184D01*
X30457744Y-68924035D01*
X30485999Y-68945187D01*
X30570535Y-69029723D01*
X30570540Y-69029727D01*
X30742442Y-69154620D01*
X30931782Y-69251095D01*
X31133871Y-69316757D01*
X31200000Y-69327231D01*
X31200000Y-68433012D01*
X31257007Y-68465925D01*
X31384174Y-68500000D01*
X31515826Y-68500000D01*
X31642993Y-68465925D01*
X31700000Y-68433012D01*
X31700000Y-69327230D01*
X31766126Y-69316757D01*
X31766129Y-69316757D01*
X31968217Y-69251095D01*
X32157557Y-69154620D01*
X32329459Y-69029727D01*
X32329464Y-69029723D01*
X32479723Y-68879464D01*
X32479727Y-68879459D01*
X32604620Y-68707557D01*
X32701095Y-68518217D01*
X32766757Y-68316129D01*
X32766757Y-68316126D01*
X32777231Y-68250000D01*
X31883012Y-68250000D01*
X31915925Y-68192993D01*
X31950000Y-68065826D01*
X31950000Y-67934174D01*
X31915925Y-67807007D01*
X31883012Y-67750000D01*
X32777231Y-67750000D01*
X32766757Y-67683873D01*
X32766757Y-67683870D01*
X32701095Y-67481782D01*
X32604620Y-67292442D01*
X32479727Y-67120540D01*
X32479723Y-67120535D01*
X32329464Y-66970276D01*
X32329459Y-66970272D01*
X32157557Y-66845379D01*
X31968215Y-66748903D01*
X31766124Y-66683241D01*
X31700000Y-66672768D01*
X31700000Y-67566988D01*
X31642993Y-67534075D01*
X31515826Y-67500000D01*
X31384174Y-67500000D01*
X31257007Y-67534075D01*
X31200000Y-67566988D01*
X31200000Y-66672768D01*
X31199999Y-66672768D01*
X31133875Y-66683241D01*
X30931784Y-66748903D01*
X30742442Y-66845379D01*
X30570541Y-66970271D01*
X30485999Y-67054813D01*
X30424675Y-67088297D01*
X30354984Y-67083313D01*
X30299050Y-67041441D01*
X30282136Y-67010464D01*
X30243797Y-66907671D01*
X30243793Y-66907664D01*
X30157547Y-66792455D01*
X30157544Y-66792452D01*
X30042335Y-66706206D01*
X30042328Y-66706202D01*
X29907482Y-66655908D01*
X29907483Y-66655908D01*
X29847883Y-66649501D01*
X29847881Y-66649500D01*
X29847873Y-66649500D01*
X29847864Y-66649500D01*
X28052129Y-66649500D01*
X28052123Y-66649501D01*
X27992516Y-66655908D01*
X27857671Y-66706202D01*
X27857664Y-66706206D01*
X27742455Y-66792452D01*
X27742452Y-66792455D01*
X27656206Y-66907664D01*
X27656202Y-66907671D01*
X27628922Y-66980815D01*
X27587051Y-67036749D01*
X27521587Y-67061166D01*
X27453314Y-67046315D01*
X27425059Y-67025163D01*
X27369786Y-66969890D01*
X27197820Y-66844951D01*
X27008414Y-66748444D01*
X27008413Y-66748443D01*
X27008412Y-66748443D01*
X26806243Y-66682754D01*
X26806241Y-66682753D01*
X26806240Y-66682753D01*
X26644957Y-66657208D01*
X26596287Y-66649500D01*
X26383713Y-66649500D01*
X26335042Y-66657208D01*
X26173760Y-66682753D01*
X25971585Y-66748444D01*
X25782179Y-66844951D01*
X25610213Y-66969890D01*
X25459890Y-67120213D01*
X25334949Y-67292182D01*
X25330484Y-67300946D01*
X25282509Y-67351742D01*
X25214688Y-67368536D01*
X25148553Y-67345998D01*
X25109516Y-67300946D01*
X25105050Y-67292182D01*
X24980109Y-67120213D01*
X24829786Y-66969890D01*
X24657820Y-66844951D01*
X24468414Y-66748444D01*
X24468413Y-66748443D01*
X24468412Y-66748443D01*
X24266243Y-66682754D01*
X24266241Y-66682753D01*
X24266240Y-66682753D01*
X24104957Y-66657208D01*
X24056287Y-66649500D01*
X23843713Y-66649500D01*
X23795042Y-66657208D01*
X23633760Y-66682753D01*
X23431585Y-66748444D01*
X23242179Y-66844951D01*
X23070213Y-66969890D01*
X22919890Y-67120213D01*
X22794951Y-67292179D01*
X22698444Y-67481585D01*
X22632753Y-67683760D01*
X22599500Y-67893713D01*
X17620500Y-67893713D01*
X17620500Y-60759808D01*
X17640185Y-60692769D01*
X17692989Y-60647014D01*
X17762147Y-60637070D01*
X17825703Y-60666095D01*
X17832181Y-60672127D01*
X21265325Y-64105272D01*
X21265326Y-64105273D01*
X21265329Y-64105275D01*
X21265331Y-64105277D01*
X21371873Y-64176465D01*
X21490256Y-64225501D01*
X21490260Y-64225501D01*
X21490261Y-64225502D01*
X21615928Y-64250500D01*
X21615931Y-64250500D01*
X30364071Y-64250500D01*
X30448615Y-64233682D01*
X30489744Y-64225501D01*
X30608127Y-64176465D01*
X30714669Y-64105277D01*
X30752929Y-64067015D01*
X30814251Y-64033530D01*
X30816337Y-64033095D01*
X30883497Y-64019737D01*
X31029179Y-63959394D01*
X31160289Y-63871789D01*
X31271789Y-63760289D01*
X31359394Y-63629179D01*
X31419737Y-63483497D01*
X31450500Y-63328842D01*
X31450500Y-63171158D01*
X31450500Y-63171155D01*
X31450499Y-63171153D01*
X31419737Y-63016503D01*
X31419735Y-63016498D01*
X31359397Y-62870827D01*
X31359390Y-62870814D01*
X31271789Y-62739711D01*
X31271786Y-62739707D01*
X31160292Y-62628213D01*
X31160288Y-62628210D01*
X31029185Y-62540609D01*
X31029172Y-62540602D01*
X30883501Y-62480264D01*
X30883489Y-62480261D01*
X30728845Y-62449500D01*
X30728842Y-62449500D01*
X30571158Y-62449500D01*
X30571155Y-62449500D01*
X30416510Y-62480261D01*
X30416498Y-62480264D01*
X30270827Y-62540602D01*
X30270814Y-62540609D01*
X30139711Y-62628210D01*
X30139707Y-62628213D01*
X30028213Y-62739707D01*
X30028210Y-62739711D01*
X29940609Y-62870814D01*
X29940607Y-62870819D01*
X29939725Y-62872949D01*
X29938964Y-62873893D01*
X29937736Y-62876191D01*
X29937300Y-62875958D01*
X29895885Y-62927354D01*
X29829592Y-62949421D01*
X29825162Y-62949500D01*
X22000808Y-62949500D01*
X21933769Y-62929815D01*
X21913127Y-62913181D01*
X18686819Y-59686873D01*
X18653334Y-59625550D01*
X18650500Y-59599192D01*
X18650500Y-43400807D01*
X18670185Y-43333768D01*
X18686814Y-43313131D01*
X30141001Y-31858943D01*
X30202322Y-31825460D01*
X30272014Y-31830444D01*
X30327947Y-31872316D01*
X30352364Y-31937780D01*
X30346611Y-31984944D01*
X30317753Y-32073759D01*
X30317753Y-32073760D01*
X30288574Y-32257988D01*
X30258645Y-32321123D01*
X30253782Y-32326271D01*
X26194727Y-36385325D01*
X26194724Y-36385328D01*
X26138483Y-36469501D01*
X26123535Y-36491872D01*
X26074499Y-36610255D01*
X26074497Y-36610261D01*
X26049500Y-36735928D01*
X26049500Y-36995064D01*
X26029815Y-37062103D01*
X26028603Y-37063954D01*
X25990608Y-37120817D01*
X25990602Y-37120828D01*
X25930264Y-37266498D01*
X25930261Y-37266510D01*
X25899500Y-37421153D01*
X25899500Y-37578846D01*
X25930261Y-37733489D01*
X25930264Y-37733501D01*
X25990602Y-37879172D01*
X25990609Y-37879185D01*
X26078210Y-38010288D01*
X26078213Y-38010292D01*
X26189707Y-38121786D01*
X26189711Y-38121789D01*
X26320814Y-38209390D01*
X26320827Y-38209397D01*
X26466498Y-38269735D01*
X26466503Y-38269737D01*
X26621153Y-38300499D01*
X26621156Y-38300500D01*
X26621158Y-38300500D01*
X26778844Y-38300500D01*
X26778845Y-38300499D01*
X26933497Y-38269737D01*
X27079179Y-38209394D01*
X27210289Y-38121789D01*
X27321789Y-38010289D01*
X27409394Y-37879179D01*
X27469737Y-37733497D01*
X27500500Y-37578842D01*
X27500500Y-37421158D01*
X27500500Y-37421155D01*
X27500499Y-37421153D01*
X27476170Y-37298844D01*
X27469737Y-37266503D01*
X27409394Y-37120821D01*
X27409393Y-37120819D01*
X27408803Y-37119395D01*
X27401334Y-37049925D01*
X27432609Y-36987446D01*
X27435655Y-36984289D01*
X30072821Y-34347123D01*
X30134142Y-34313640D01*
X30203834Y-34318624D01*
X30259767Y-34360496D01*
X30284184Y-34425960D01*
X30284500Y-34434806D01*
X30284500Y-35827870D01*
X30284501Y-35827876D01*
X30290908Y-35887483D01*
X30341202Y-36022328D01*
X30341206Y-36022335D01*
X30427452Y-36137544D01*
X30427455Y-36137547D01*
X30542664Y-36223793D01*
X30542671Y-36223797D01*
X30674082Y-36272810D01*
X30730016Y-36314681D01*
X30754433Y-36380145D01*
X30739582Y-36448418D01*
X30718431Y-36476673D01*
X30604889Y-36590215D01*
X30479948Y-36762184D01*
X30479947Y-36762185D01*
X30459765Y-36801795D01*
X30411791Y-36852591D01*
X30349281Y-36869500D01*
X29516670Y-36869500D01*
X29516654Y-36869499D01*
X29509058Y-36869499D01*
X29350943Y-36869499D01*
X29274579Y-36889961D01*
X29198214Y-36910423D01*
X29198209Y-36910426D01*
X29061290Y-36989475D01*
X29061282Y-36989481D01*
X26785339Y-39265425D01*
X26724016Y-39298910D01*
X26721850Y-39299361D01*
X26566508Y-39330261D01*
X26566498Y-39330264D01*
X26420827Y-39390602D01*
X26420814Y-39390609D01*
X26289711Y-39478210D01*
X26289707Y-39478213D01*
X26178213Y-39589707D01*
X26178210Y-39589711D01*
X26090609Y-39720814D01*
X26090602Y-39720827D01*
X26030264Y-39866498D01*
X26030261Y-39866510D01*
X25999500Y-40021153D01*
X25999500Y-40178846D01*
X26030261Y-40333489D01*
X26030264Y-40333501D01*
X26090602Y-40479172D01*
X26090609Y-40479185D01*
X26178210Y-40610288D01*
X26178213Y-40610292D01*
X26289709Y-40721788D01*
X26420814Y-40809390D01*
X26420827Y-40809397D01*
X26519471Y-40850256D01*
X26566503Y-40869737D01*
X26667326Y-40889792D01*
X26721153Y-40900499D01*
X26721156Y-40900500D01*
X26721158Y-40900500D01*
X26878844Y-40900500D01*
X26878845Y-40900499D01*
X27033497Y-40869737D01*
X27179179Y-40809394D01*
X27179185Y-40809390D01*
X27310291Y-40721788D01*
X27310292Y-40721786D01*
X27421786Y-40610292D01*
X27421789Y-40610289D01*
X27509394Y-40479179D01*
X27569737Y-40333497D01*
X27589113Y-40236085D01*
X27600638Y-40178150D01*
X27633023Y-40116239D01*
X27634517Y-40114717D01*
X29642417Y-38106819D01*
X29703740Y-38073334D01*
X29730098Y-38070500D01*
X30349281Y-38070500D01*
X30416320Y-38090185D01*
X30459765Y-38138205D01*
X30479947Y-38177814D01*
X30479948Y-38177815D01*
X30604890Y-38349786D01*
X30755213Y-38500109D01*
X30927182Y-38625050D01*
X30935946Y-38629516D01*
X30986742Y-38677491D01*
X31003536Y-38745312D01*
X30980998Y-38811447D01*
X30935946Y-38850484D01*
X30927182Y-38854949D01*
X30755213Y-38979890D01*
X30604890Y-39130213D01*
X30479948Y-39302184D01*
X30479947Y-39302185D01*
X30459765Y-39341795D01*
X30411791Y-39392591D01*
X30349281Y-39409500D01*
X29876670Y-39409500D01*
X29876654Y-39409499D01*
X29869058Y-39409499D01*
X29710943Y-39409499D01*
X29558215Y-39450423D01*
X29558213Y-39450423D01*
X29558213Y-39450424D01*
X29421281Y-39529482D01*
X23509568Y-45441195D01*
X23448245Y-45474680D01*
X23378553Y-45469696D01*
X23322620Y-45427824D01*
X23298203Y-45362360D01*
X23311403Y-45297218D01*
X23351555Y-45218416D01*
X23351556Y-45218414D01*
X23351557Y-45218412D01*
X23417246Y-45016243D01*
X23450500Y-44806287D01*
X23450500Y-44593713D01*
X23417246Y-44383757D01*
X23403506Y-44341473D01*
X23401512Y-44271635D01*
X23433755Y-44215478D01*
X24012416Y-43636819D01*
X24073739Y-43603334D01*
X24100097Y-43600500D01*
X24178844Y-43600500D01*
X24178845Y-43600499D01*
X24333497Y-43569737D01*
X24479179Y-43509394D01*
X24610289Y-43421789D01*
X24721789Y-43310289D01*
X24809394Y-43179179D01*
X24869737Y-43033497D01*
X24900500Y-42878842D01*
X24900500Y-42721158D01*
X24900500Y-42721155D01*
X24900499Y-42721153D01*
X24881629Y-42626287D01*
X24869737Y-42566503D01*
X24869735Y-42566498D01*
X24809397Y-42420827D01*
X24809390Y-42420814D01*
X24721789Y-42289711D01*
X24721786Y-42289707D01*
X24610292Y-42178213D01*
X24610288Y-42178210D01*
X24479185Y-42090609D01*
X24479172Y-42090602D01*
X24333501Y-42030264D01*
X24333489Y-42030261D01*
X24178845Y-41999500D01*
X24178842Y-41999500D01*
X24021158Y-41999500D01*
X24021155Y-41999500D01*
X23866510Y-42030261D01*
X23866498Y-42030264D01*
X23720827Y-42090602D01*
X23720814Y-42090609D01*
X23589711Y-42178210D01*
X23589707Y-42178213D01*
X23478213Y-42289707D01*
X23478210Y-42289711D01*
X23390609Y-42420814D01*
X23390602Y-42420827D01*
X23330263Y-42566500D01*
X23330261Y-42566507D01*
X23324192Y-42597019D01*
X23291806Y-42658930D01*
X23290256Y-42660507D01*
X22584522Y-43366241D01*
X22523199Y-43399726D01*
X22458523Y-43396491D01*
X22416245Y-43382754D01*
X22276272Y-43360584D01*
X22206287Y-43349500D01*
X21993713Y-43349500D01*
X21945042Y-43357208D01*
X21783760Y-43382753D01*
X21581585Y-43448444D01*
X21392179Y-43544951D01*
X21220213Y-43669890D01*
X21069890Y-43820213D01*
X20944951Y-43992179D01*
X20848444Y-44181585D01*
X20782753Y-44383760D01*
X20750088Y-44590000D01*
X20749500Y-44593713D01*
X20749500Y-44806287D01*
X20782754Y-45016243D01*
X20834755Y-45176286D01*
X20848444Y-45218414D01*
X20944951Y-45407820D01*
X21069890Y-45579786D01*
X21220208Y-45730104D01*
X21247156Y-45749683D01*
X21289821Y-45805013D01*
X21295799Y-45874627D01*
X21263192Y-45936421D01*
X21247156Y-45950317D01*
X21220208Y-45969895D01*
X21069890Y-46120213D01*
X20944951Y-46292179D01*
X20848444Y-46481585D01*
X20782753Y-46683760D01*
X20769649Y-46766498D01*
X20749500Y-46893713D01*
X20749500Y-47106287D01*
X20753298Y-47130264D01*
X20782753Y-47316240D01*
X20799212Y-47366895D01*
X20801207Y-47436736D01*
X20765126Y-47496569D01*
X20702425Y-47527397D01*
X20633011Y-47519432D01*
X20578922Y-47475204D01*
X20578179Y-47474104D01*
X20521789Y-47389711D01*
X20521786Y-47389707D01*
X20410292Y-47278213D01*
X20410288Y-47278210D01*
X20279185Y-47190609D01*
X20279172Y-47190602D01*
X20133501Y-47130264D01*
X20133489Y-47130261D01*
X19978845Y-47099500D01*
X19978842Y-47099500D01*
X19821158Y-47099500D01*
X19821155Y-47099500D01*
X19666510Y-47130261D01*
X19666498Y-47130264D01*
X19520827Y-47190602D01*
X19520814Y-47190609D01*
X19389711Y-47278210D01*
X19389707Y-47278213D01*
X19278213Y-47389707D01*
X19278210Y-47389711D01*
X19190609Y-47520814D01*
X19190602Y-47520827D01*
X19130264Y-47666498D01*
X19130261Y-47666510D01*
X19099500Y-47821153D01*
X19099500Y-47978846D01*
X19130261Y-48133489D01*
X19130264Y-48133501D01*
X19190602Y-48279172D01*
X19190606Y-48279179D01*
X19228602Y-48336044D01*
X19249480Y-48402721D01*
X19249500Y-48404935D01*
X19249500Y-58864069D01*
X19249500Y-58864071D01*
X19249499Y-58864071D01*
X19274497Y-58989738D01*
X19274499Y-58989744D01*
X19323534Y-59108125D01*
X19394726Y-59214673D01*
X21985326Y-61805273D01*
X21985329Y-61805275D01*
X21985331Y-61805277D01*
X22091873Y-61876465D01*
X22210256Y-61925501D01*
X22210260Y-61925501D01*
X22210261Y-61925502D01*
X22335928Y-61950500D01*
X22335931Y-61950500D01*
X33579192Y-61950500D01*
X33646231Y-61970185D01*
X33666873Y-61986819D01*
X34382984Y-62702930D01*
X34416469Y-62764253D01*
X34416920Y-62766420D01*
X34430261Y-62833489D01*
X34430264Y-62833501D01*
X34490602Y-62979172D01*
X34490609Y-62979185D01*
X34578210Y-63110288D01*
X34578213Y-63110292D01*
X34689707Y-63221786D01*
X34689711Y-63221789D01*
X34820814Y-63309390D01*
X34820827Y-63309397D01*
X34966498Y-63369735D01*
X34966503Y-63369737D01*
X35121153Y-63400499D01*
X35121156Y-63400500D01*
X35121158Y-63400500D01*
X35278844Y-63400500D01*
X35278845Y-63400499D01*
X35433497Y-63369737D01*
X35579179Y-63309394D01*
X35710289Y-63221789D01*
X35821789Y-63110289D01*
X35909394Y-62979179D01*
X35969737Y-62833497D01*
X36000500Y-62678842D01*
X36000500Y-62521158D01*
X36000500Y-62521155D01*
X36000499Y-62521153D01*
X35978447Y-62410292D01*
X35969737Y-62366503D01*
X35933569Y-62279185D01*
X35909397Y-62220827D01*
X35909390Y-62220814D01*
X35821789Y-62089711D01*
X35821786Y-62089707D01*
X35710292Y-61978213D01*
X35710288Y-61978210D01*
X35579185Y-61890609D01*
X35579172Y-61890602D01*
X35433501Y-61830264D01*
X35433489Y-61830261D01*
X35366420Y-61816920D01*
X35304509Y-61784535D01*
X35302930Y-61782984D01*
X34314674Y-60794727D01*
X34314673Y-60794726D01*
X34262414Y-60759808D01*
X34208127Y-60723535D01*
X34089744Y-60674499D01*
X34089738Y-60674497D01*
X33964071Y-60649500D01*
X33964069Y-60649500D01*
X22720808Y-60649500D01*
X22653769Y-60629815D01*
X22633127Y-60613181D01*
X20586819Y-58566873D01*
X20553334Y-58505550D01*
X20550500Y-58479192D01*
X20550500Y-53056893D01*
X20570185Y-52989854D01*
X20622989Y-52944099D01*
X20692147Y-52934155D01*
X20755703Y-52963180D01*
X20773767Y-52982583D01*
X20792454Y-53007546D01*
X20792455Y-53007547D01*
X20907664Y-53093793D01*
X20907671Y-53093797D01*
X21042517Y-53144091D01*
X21042516Y-53144091D01*
X21049444Y-53144835D01*
X21102127Y-53150500D01*
X22897872Y-53150499D01*
X22957483Y-53144091D01*
X23092331Y-53093796D01*
X23207546Y-53007546D01*
X23293796Y-52892331D01*
X23344091Y-52757483D01*
X23350500Y-52697873D01*
X23350499Y-50902128D01*
X23344091Y-50842517D01*
X23293796Y-50707669D01*
X23293795Y-50707668D01*
X23293793Y-50707664D01*
X23207547Y-50592455D01*
X23207544Y-50592452D01*
X23092335Y-50506206D01*
X23092330Y-50506203D01*
X22990050Y-50468055D01*
X22934117Y-50426183D01*
X22909700Y-50360719D01*
X22924552Y-50292446D01*
X22945697Y-50264198D01*
X23030104Y-50179792D01*
X23155051Y-50007816D01*
X23213407Y-49893284D01*
X23225845Y-49880114D01*
X23234149Y-49864009D01*
X23260995Y-49842896D01*
X23261380Y-49842490D01*
X23261537Y-49842398D01*
X23281904Y-49830639D01*
X23368716Y-49780520D01*
X23480520Y-49668716D01*
X23480520Y-49668714D01*
X23490728Y-49658507D01*
X23490729Y-49658504D01*
X25514662Y-47634572D01*
X25575983Y-47601089D01*
X25578150Y-47600638D01*
X25636085Y-47589113D01*
X25733497Y-47569737D01*
X25851592Y-47520821D01*
X25879172Y-47509397D01*
X25879172Y-47509396D01*
X25879179Y-47509394D01*
X26010289Y-47421789D01*
X26121789Y-47310289D01*
X26209394Y-47179179D01*
X26269737Y-47033497D01*
X26300500Y-46878842D01*
X26300500Y-46721158D01*
X26300500Y-46721155D01*
X26300499Y-46721153D01*
X26280543Y-46620827D01*
X26269737Y-46566503D01*
X26249510Y-46517671D01*
X26209397Y-46420827D01*
X26209390Y-46420814D01*
X26121789Y-46289711D01*
X26121786Y-46289707D01*
X26010292Y-46178213D01*
X26010288Y-46178210D01*
X25879185Y-46090609D01*
X25879172Y-46090602D01*
X25733501Y-46030264D01*
X25733489Y-46030261D01*
X25578845Y-45999500D01*
X25578842Y-45999500D01*
X25421158Y-45999500D01*
X25421155Y-45999500D01*
X25266510Y-46030261D01*
X25266498Y-46030264D01*
X25120827Y-46090602D01*
X25120814Y-46090609D01*
X24989711Y-46178210D01*
X24989707Y-46178213D01*
X24878213Y-46289707D01*
X24878210Y-46289711D01*
X24790609Y-46420814D01*
X24790602Y-46420827D01*
X24730264Y-46566498D01*
X24730261Y-46566508D01*
X24699361Y-46721850D01*
X24666976Y-46783761D01*
X24665425Y-46785339D01*
X23118011Y-48332752D01*
X23056688Y-48366237D01*
X22986996Y-48361253D01*
X22942650Y-48332753D01*
X22885649Y-48275753D01*
X22852163Y-48214430D01*
X22857147Y-48144738D01*
X22899018Y-48088805D01*
X22900395Y-48087788D01*
X22979792Y-48030104D01*
X23130104Y-47879792D01*
X23130106Y-47879788D01*
X23130109Y-47879786D01*
X23240740Y-47727513D01*
X23255051Y-47707816D01*
X23348856Y-47523713D01*
X23351555Y-47518416D01*
X23351555Y-47518415D01*
X23351557Y-47518412D01*
X23417246Y-47316243D01*
X23426799Y-47255926D01*
X23456728Y-47192791D01*
X23461573Y-47187660D01*
X30002417Y-40646819D01*
X30063740Y-40613334D01*
X30090098Y-40610500D01*
X30110943Y-40610500D01*
X30349281Y-40610500D01*
X30416320Y-40630185D01*
X30459765Y-40678205D01*
X30479947Y-40717814D01*
X30479948Y-40717815D01*
X30604890Y-40889786D01*
X30755213Y-41040109D01*
X30927182Y-41165050D01*
X30935946Y-41169516D01*
X30986742Y-41217491D01*
X31003536Y-41285312D01*
X30980998Y-41351447D01*
X30935946Y-41390484D01*
X30927182Y-41394949D01*
X30755213Y-41519890D01*
X30604890Y-41670213D01*
X30479948Y-41842184D01*
X30479947Y-41842185D01*
X30459765Y-41881795D01*
X30449316Y-41892857D01*
X30442994Y-41906703D01*
X30425812Y-41917744D01*
X30411791Y-41932591D01*
X30396111Y-41936832D01*
X30384216Y-41944477D01*
X30349281Y-41949500D01*
X30336670Y-41949500D01*
X30336654Y-41949499D01*
X30329058Y-41949499D01*
X30170943Y-41949499D01*
X30094579Y-41969961D01*
X30018214Y-41990423D01*
X30018209Y-41990426D01*
X29881290Y-42069475D01*
X29881282Y-42069481D01*
X28935339Y-43015425D01*
X28874016Y-43048910D01*
X28871850Y-43049361D01*
X28716508Y-43080261D01*
X28716498Y-43080264D01*
X28570827Y-43140602D01*
X28570814Y-43140609D01*
X28439711Y-43228210D01*
X28439707Y-43228213D01*
X28328213Y-43339707D01*
X28328210Y-43339711D01*
X28240609Y-43470814D01*
X28240602Y-43470827D01*
X28180264Y-43616498D01*
X28180261Y-43616510D01*
X28149500Y-43771153D01*
X28149500Y-43928846D01*
X28180261Y-44083489D01*
X28180264Y-44083501D01*
X28240602Y-44229172D01*
X28240609Y-44229185D01*
X28328210Y-44360288D01*
X28328213Y-44360292D01*
X28439707Y-44471786D01*
X28439711Y-44471789D01*
X28570814Y-44559390D01*
X28570827Y-44559397D01*
X28678691Y-44604075D01*
X28716503Y-44619737D01*
X28871153Y-44650499D01*
X28871156Y-44650500D01*
X28871158Y-44650500D01*
X29028844Y-44650500D01*
X29028845Y-44650499D01*
X29183497Y-44619737D01*
X29296166Y-44573067D01*
X29329172Y-44559397D01*
X29329172Y-44559396D01*
X29329179Y-44559394D01*
X29460289Y-44471789D01*
X29571789Y-44360289D01*
X29659394Y-44229179D01*
X29667115Y-44210540D01*
X29719735Y-44083501D01*
X29719737Y-44083497D01*
X29750118Y-43930762D01*
X29750638Y-43928150D01*
X29783023Y-43866239D01*
X29784521Y-43864713D01*
X30340034Y-43309199D01*
X30401355Y-43275716D01*
X30471046Y-43280700D01*
X30526980Y-43322571D01*
X30528031Y-43323997D01*
X30604890Y-43429785D01*
X30604894Y-43429790D01*
X30755213Y-43580109D01*
X30927179Y-43705048D01*
X30927181Y-43705049D01*
X30927184Y-43705051D01*
X30936493Y-43709794D01*
X30987290Y-43757766D01*
X31004087Y-43825587D01*
X30981552Y-43891722D01*
X30936502Y-43930762D01*
X30927443Y-43935378D01*
X30755540Y-44060272D01*
X30755535Y-44060276D01*
X30605276Y-44210535D01*
X30605272Y-44210540D01*
X30480379Y-44382442D01*
X30383904Y-44571782D01*
X30318242Y-44773870D01*
X30318242Y-44773873D01*
X30307769Y-44840000D01*
X31201988Y-44840000D01*
X31169075Y-44897007D01*
X31135000Y-45024174D01*
X31135000Y-45155826D01*
X31169075Y-45282993D01*
X31201988Y-45340000D01*
X30307769Y-45340000D01*
X30318242Y-45406126D01*
X30318242Y-45406129D01*
X30383904Y-45608217D01*
X30480379Y-45797557D01*
X30605272Y-45969459D01*
X30605276Y-45969464D01*
X30755535Y-46119723D01*
X30755540Y-46119727D01*
X30927444Y-46244622D01*
X30936495Y-46249234D01*
X30987292Y-46297208D01*
X31004087Y-46365029D01*
X30981550Y-46431164D01*
X30936499Y-46470202D01*
X30927182Y-46474949D01*
X30755213Y-46599890D01*
X30604890Y-46750213D01*
X30479951Y-46922179D01*
X30383444Y-47111585D01*
X30317753Y-47313760D01*
X30284500Y-47523713D01*
X30284500Y-47736286D01*
X30314585Y-47926239D01*
X30317754Y-47946243D01*
X30382249Y-48144738D01*
X30383444Y-48148414D01*
X30479951Y-48337820D01*
X30604890Y-48509786D01*
X30755213Y-48660109D01*
X30927179Y-48785048D01*
X30927181Y-48785049D01*
X30927184Y-48785051D01*
X31116588Y-48881557D01*
X31318757Y-48947246D01*
X31528713Y-48980500D01*
X31528714Y-48980500D01*
X31741286Y-48980500D01*
X31741287Y-48980500D01*
X31951243Y-48947246D01*
X32153412Y-48881557D01*
X32342816Y-48785051D01*
X32405388Y-48739590D01*
X32514786Y-48660109D01*
X32514788Y-48660106D01*
X32514792Y-48660104D01*
X32665104Y-48509792D01*
X32665106Y-48509788D01*
X32665109Y-48509786D01*
X32792915Y-48333875D01*
X32794259Y-48334851D01*
X32840705Y-48292834D01*
X32894618Y-48280500D01*
X34114656Y-48280500D01*
X34181695Y-48300185D01*
X34214973Y-48331613D01*
X34217326Y-48334851D01*
X34329896Y-48489792D01*
X34480213Y-48640109D01*
X34652179Y-48765048D01*
X34652181Y-48765049D01*
X34652184Y-48765051D01*
X34841588Y-48861557D01*
X35043757Y-48927246D01*
X35253713Y-48960500D01*
X35253714Y-48960500D01*
X35466286Y-48960500D01*
X35466287Y-48960500D01*
X35676243Y-48927246D01*
X35878412Y-48861557D01*
X36067816Y-48765051D01*
X36102860Y-48739590D01*
X36239786Y-48640109D01*
X36239788Y-48640106D01*
X36239792Y-48640104D01*
X36390104Y-48489792D01*
X36390106Y-48489788D01*
X36390109Y-48489786D01*
X36504199Y-48332752D01*
X36515051Y-48317816D01*
X36611557Y-48128412D01*
X36677246Y-47926243D01*
X36710500Y-47716287D01*
X36710500Y-47503713D01*
X36677246Y-47293757D01*
X36611557Y-47091588D01*
X36515051Y-46902184D01*
X36515049Y-46902181D01*
X36515048Y-46902179D01*
X36390109Y-46730213D01*
X36239786Y-46579890D01*
X36067817Y-46454949D01*
X36058504Y-46450204D01*
X36007707Y-46402230D01*
X35990912Y-46334409D01*
X36013449Y-46268274D01*
X36058507Y-46229232D01*
X36067558Y-46224620D01*
X36239459Y-46099727D01*
X36239464Y-46099723D01*
X36389723Y-45949464D01*
X36389727Y-45949459D01*
X36514620Y-45777557D01*
X36611095Y-45588217D01*
X36676757Y-45386129D01*
X36676757Y-45386126D01*
X36687231Y-45320000D01*
X35793012Y-45320000D01*
X35825925Y-45262993D01*
X35860000Y-45135826D01*
X35860000Y-45004174D01*
X35825925Y-44877007D01*
X35793012Y-44820000D01*
X36687231Y-44820000D01*
X36676757Y-44753873D01*
X36676757Y-44753870D01*
X36611095Y-44551782D01*
X36514620Y-44362442D01*
X36389727Y-44190540D01*
X36389723Y-44190535D01*
X36239464Y-44040276D01*
X36239459Y-44040272D01*
X36067555Y-43915377D01*
X36058500Y-43910763D01*
X36007706Y-43862788D01*
X35990912Y-43794966D01*
X36013451Y-43728832D01*
X36058508Y-43689793D01*
X36067816Y-43685051D01*
X36180291Y-43603334D01*
X36239786Y-43560109D01*
X36239788Y-43560106D01*
X36239792Y-43560104D01*
X36390104Y-43409792D01*
X36390106Y-43409788D01*
X36390109Y-43409786D01*
X36503384Y-43253875D01*
X36515051Y-43237816D01*
X36611557Y-43048412D01*
X36677246Y-42846243D01*
X36710500Y-42636287D01*
X36710500Y-42423713D01*
X36677246Y-42213757D01*
X36611557Y-42011588D01*
X36515051Y-41822184D01*
X36515049Y-41822181D01*
X36515048Y-41822179D01*
X36390109Y-41650213D01*
X36239786Y-41499890D01*
X36067820Y-41374951D01*
X36067115Y-41374591D01*
X36059054Y-41370485D01*
X36008259Y-41322512D01*
X35991463Y-41254692D01*
X36013999Y-41188556D01*
X36059054Y-41149515D01*
X36067816Y-41145051D01*
X36089789Y-41129086D01*
X36239786Y-41020109D01*
X36239788Y-41020106D01*
X36239792Y-41020104D01*
X36390104Y-40869792D01*
X36390106Y-40869788D01*
X36390109Y-40869786D01*
X36503384Y-40713875D01*
X36515051Y-40697816D01*
X36611557Y-40508412D01*
X36677246Y-40306243D01*
X36710500Y-40096287D01*
X36710500Y-39883713D01*
X36677246Y-39673757D01*
X36611557Y-39471588D01*
X36515051Y-39282184D01*
X36515049Y-39282181D01*
X36515048Y-39282179D01*
X36390109Y-39110213D01*
X36239786Y-38959890D01*
X36067820Y-38834951D01*
X36067115Y-38834591D01*
X36059054Y-38830485D01*
X36008259Y-38782512D01*
X35991463Y-38714692D01*
X36013999Y-38648556D01*
X36059054Y-38609515D01*
X36067816Y-38605051D01*
X36089789Y-38589086D01*
X36239786Y-38480109D01*
X36239788Y-38480106D01*
X36239792Y-38480104D01*
X36390104Y-38329792D01*
X36390106Y-38329788D01*
X36390109Y-38329786D01*
X36503384Y-38173875D01*
X36515051Y-38157816D01*
X36611557Y-37968412D01*
X36677246Y-37766243D01*
X36710500Y-37556287D01*
X36710500Y-37343713D01*
X36677246Y-37133757D01*
X36611557Y-36931588D01*
X36515051Y-36742184D01*
X36515049Y-36742181D01*
X36515048Y-36742179D01*
X36390109Y-36570213D01*
X36276569Y-36456673D01*
X36243084Y-36395350D01*
X36248068Y-36325658D01*
X36289940Y-36269725D01*
X36320915Y-36252810D01*
X36452331Y-36203796D01*
X36567546Y-36117546D01*
X36653796Y-36002331D01*
X36704091Y-35867483D01*
X36710500Y-35807873D01*
X36710499Y-34012128D01*
X36704091Y-33952517D01*
X36673275Y-33869896D01*
X36653797Y-33817671D01*
X36653793Y-33817664D01*
X36567547Y-33702455D01*
X36567544Y-33702452D01*
X36452335Y-33616206D01*
X36452328Y-33616202D01*
X36320917Y-33567189D01*
X36264983Y-33525318D01*
X36240566Y-33459853D01*
X36255418Y-33391580D01*
X36276563Y-33363332D01*
X36390104Y-33249792D01*
X36397370Y-33239792D01*
X36515048Y-33077820D01*
X36515049Y-33077819D01*
X36515051Y-33077816D01*
X36611557Y-32888412D01*
X36677246Y-32686243D01*
X36710500Y-32476287D01*
X36710500Y-32263713D01*
X36677246Y-32053757D01*
X36611557Y-31851588D01*
X36515051Y-31662184D01*
X36515049Y-31662181D01*
X36515048Y-31662179D01*
X36390109Y-31490213D01*
X36239786Y-31339890D01*
X36067820Y-31214951D01*
X36067115Y-31214591D01*
X36059054Y-31210485D01*
X36008259Y-31162512D01*
X35991463Y-31094692D01*
X36013999Y-31028556D01*
X36059054Y-30989515D01*
X36067816Y-30985051D01*
X36089789Y-30969086D01*
X36239786Y-30860109D01*
X36239788Y-30860106D01*
X36239792Y-30860104D01*
X36390104Y-30709792D01*
X36390106Y-30709788D01*
X36390109Y-30709786D01*
X36515048Y-30537820D01*
X36515049Y-30537819D01*
X36515051Y-30537816D01*
X36611557Y-30348412D01*
X36677246Y-30146243D01*
X36710500Y-29936287D01*
X36710500Y-29859808D01*
X36730185Y-29792769D01*
X36782989Y-29747014D01*
X36852147Y-29737070D01*
X36915703Y-29766095D01*
X36922181Y-29772127D01*
X37393181Y-30243127D01*
X37426666Y-30304450D01*
X37429500Y-30330808D01*
X37429500Y-36715064D01*
X37409815Y-36782103D01*
X37408603Y-36783954D01*
X37370608Y-36840817D01*
X37370602Y-36840828D01*
X37310264Y-36986498D01*
X37310261Y-36986510D01*
X37279500Y-37141153D01*
X37279500Y-37298846D01*
X37310261Y-37453489D01*
X37310264Y-37453501D01*
X37370602Y-37599172D01*
X37370609Y-37599185D01*
X37458210Y-37730288D01*
X37458213Y-37730292D01*
X37569707Y-37841786D01*
X37569711Y-37841789D01*
X37700814Y-37929390D01*
X37700827Y-37929397D01*
X37795024Y-37968414D01*
X37846503Y-37989737D01*
X37972437Y-38014787D01*
X38001153Y-38020499D01*
X38001156Y-38020500D01*
X38001158Y-38020500D01*
X38158844Y-38020500D01*
X38158845Y-38020499D01*
X38313497Y-37989737D01*
X38459179Y-37929394D01*
X38590289Y-37841789D01*
X38701789Y-37730289D01*
X38789394Y-37599179D01*
X38849737Y-37453497D01*
X38880500Y-37298842D01*
X38880500Y-37141158D01*
X38880500Y-37141155D01*
X38880499Y-37141153D01*
X38862356Y-37049944D01*
X38849737Y-36986503D01*
X38847903Y-36982075D01*
X38789397Y-36840828D01*
X38789396Y-36840827D01*
X38789394Y-36840821D01*
X38751396Y-36783953D01*
X38730520Y-36717276D01*
X38730500Y-36715064D01*
X38730500Y-29945928D01*
X38705502Y-29820261D01*
X38705501Y-29820260D01*
X38705501Y-29820256D01*
X38656465Y-29701873D01*
X38639131Y-29675931D01*
X38585277Y-29595331D01*
X38585275Y-29595329D01*
X38585273Y-29595326D01*
X38585272Y-29595325D01*
X36710657Y-27720711D01*
X36677172Y-27659388D01*
X36677689Y-27611245D01*
X36676484Y-27611055D01*
X36699153Y-27467931D01*
X36710500Y-27396287D01*
X36710500Y-27319808D01*
X36730185Y-27252769D01*
X36782989Y-27207014D01*
X36852147Y-27197070D01*
X36915703Y-27226095D01*
X36922181Y-27232127D01*
X40223181Y-30533127D01*
X40256666Y-30594450D01*
X40259500Y-30620808D01*
X40259500Y-38009191D01*
X40239815Y-38076230D01*
X40223181Y-38096872D01*
X37694727Y-40625325D01*
X37694726Y-40625326D01*
X37680365Y-40646819D01*
X37632929Y-40717815D01*
X37630274Y-40721788D01*
X37623533Y-40731875D01*
X37574499Y-40850255D01*
X37574497Y-40850261D01*
X37549500Y-40975928D01*
X37549500Y-54795064D01*
X37529815Y-54862103D01*
X37528603Y-54863954D01*
X37490608Y-54920817D01*
X37490602Y-54920828D01*
X37430264Y-55066498D01*
X37430261Y-55066510D01*
X37399500Y-55221153D01*
X37399500Y-55378846D01*
X37430261Y-55533489D01*
X37430264Y-55533501D01*
X37490602Y-55679172D01*
X37490609Y-55679185D01*
X37578210Y-55810288D01*
X37578213Y-55810292D01*
X37689707Y-55921786D01*
X37689711Y-55921789D01*
X37820814Y-56009390D01*
X37820827Y-56009397D01*
X37966498Y-56069735D01*
X37966503Y-56069737D01*
X38121153Y-56100499D01*
X38121156Y-56100500D01*
X38121158Y-56100500D01*
X38278844Y-56100500D01*
X38278845Y-56100499D01*
X38433497Y-56069737D01*
X38579179Y-56009394D01*
X38710289Y-55921789D01*
X38821789Y-55810289D01*
X38909394Y-55679179D01*
X38969737Y-55533497D01*
X39000500Y-55378842D01*
X39000500Y-55221158D01*
X39000500Y-55221155D01*
X39000499Y-55221153D01*
X38969738Y-55066510D01*
X38969737Y-55066503D01*
X38909394Y-54920821D01*
X38871396Y-54863953D01*
X38850520Y-54797276D01*
X38850500Y-54795064D01*
X38850500Y-46921153D01*
X40099500Y-46921153D01*
X40099500Y-47078846D01*
X40130261Y-47233489D01*
X40130264Y-47233501D01*
X40190602Y-47379172D01*
X40190606Y-47379179D01*
X40228602Y-47436044D01*
X40249480Y-47502721D01*
X40249500Y-47504935D01*
X40249500Y-68464069D01*
X40270671Y-68570500D01*
X40274499Y-68589744D01*
X40310014Y-68675486D01*
X40323535Y-68708127D01*
X40389927Y-68807491D01*
X40394726Y-68814673D01*
X44515325Y-72935272D01*
X44515331Y-72935277D01*
X44621874Y-73006466D01*
X44691221Y-73035189D01*
X44740256Y-73055501D01*
X44740259Y-73055501D01*
X44740260Y-73055502D01*
X44865928Y-73080500D01*
X44865931Y-73080500D01*
X49940382Y-73080500D01*
X50007421Y-73100185D01*
X50041099Y-73134591D01*
X50042085Y-73133875D01*
X50169890Y-73309786D01*
X50320209Y-73460105D01*
X50320214Y-73460109D01*
X50395327Y-73514682D01*
X50437993Y-73570012D01*
X50443972Y-73639625D01*
X50411366Y-73701420D01*
X50395327Y-73715318D01*
X50320214Y-73769890D01*
X50320209Y-73769894D01*
X50169890Y-73920213D01*
X50044951Y-74092179D01*
X49948444Y-74281585D01*
X49882753Y-74483760D01*
X49849500Y-74693713D01*
X49849500Y-74906286D01*
X49882753Y-75116239D01*
X49948444Y-75318414D01*
X50044951Y-75507820D01*
X50169890Y-75679786D01*
X50320213Y-75830109D01*
X50492179Y-75955048D01*
X50492181Y-75955049D01*
X50492184Y-75955051D01*
X50681588Y-76051557D01*
X50883757Y-76117246D01*
X51093713Y-76150500D01*
X51093714Y-76150500D01*
X51306286Y-76150500D01*
X51306287Y-76150500D01*
X51516243Y-76117246D01*
X51718412Y-76051557D01*
X51907816Y-75955051D01*
X51929789Y-75939086D01*
X52079786Y-75830109D01*
X52079788Y-75830106D01*
X52079792Y-75830104D01*
X52230104Y-75679792D01*
X52230106Y-75679788D01*
X52230109Y-75679786D01*
X52355048Y-75507820D01*
X52355047Y-75507820D01*
X52355051Y-75507816D01*
X52451557Y-75318412D01*
X52517246Y-75116243D01*
X52550500Y-74906287D01*
X52550500Y-74693713D01*
X52517246Y-74483757D01*
X52451557Y-74281588D01*
X52355051Y-74092184D01*
X52355049Y-74092181D01*
X52355048Y-74092179D01*
X52230109Y-73920213D01*
X52079792Y-73769896D01*
X52054550Y-73751557D01*
X52004671Y-73715317D01*
X51962006Y-73659989D01*
X51956027Y-73590376D01*
X51988632Y-73528580D01*
X52004671Y-73514682D01*
X52079792Y-73460104D01*
X52230104Y-73309792D01*
X52230106Y-73309788D01*
X52230109Y-73309786D01*
X52355048Y-73137820D01*
X52355047Y-73137820D01*
X52355051Y-73137816D01*
X52451557Y-72948412D01*
X52517246Y-72746243D01*
X52550500Y-72536287D01*
X52550500Y-72323713D01*
X52517246Y-72113757D01*
X52451557Y-71911588D01*
X52355051Y-71722184D01*
X52355049Y-71722181D01*
X52355048Y-71722179D01*
X52230109Y-71550213D01*
X52079786Y-71399890D01*
X51907819Y-71274951D01*
X51907818Y-71274950D01*
X51907816Y-71274949D01*
X51856411Y-71248757D01*
X51796111Y-71218032D01*
X51745315Y-71170057D01*
X51728520Y-71102236D01*
X51751058Y-71036101D01*
X51796112Y-70997062D01*
X51917816Y-70935051D01*
X51969255Y-70897678D01*
X52089786Y-70810109D01*
X52089788Y-70810106D01*
X52089792Y-70810104D01*
X52240104Y-70659792D01*
X52240106Y-70659788D01*
X52240109Y-70659786D01*
X52365048Y-70487820D01*
X52365047Y-70487820D01*
X52365051Y-70487816D01*
X52461557Y-70298412D01*
X52527246Y-70096243D01*
X52560500Y-69886287D01*
X52560500Y-69673713D01*
X52527246Y-69463757D01*
X52461557Y-69261588D01*
X52365051Y-69072184D01*
X52365049Y-69072181D01*
X52365048Y-69072179D01*
X52240109Y-68900213D01*
X52089786Y-68749890D01*
X51917817Y-68624949D01*
X51889429Y-68610485D01*
X51838633Y-68562511D01*
X51821837Y-68494690D01*
X51844374Y-68428555D01*
X51889429Y-68389515D01*
X51895186Y-68386581D01*
X51917816Y-68375051D01*
X51998759Y-68316243D01*
X52089786Y-68250109D01*
X52089788Y-68250106D01*
X52089792Y-68250104D01*
X52240104Y-68099792D01*
X52240106Y-68099788D01*
X52240109Y-68099786D01*
X52365048Y-67927820D01*
X52365047Y-67927820D01*
X52365051Y-67927816D01*
X52461557Y-67738412D01*
X52527246Y-67536243D01*
X52560500Y-67326287D01*
X52560500Y-67113713D01*
X52527246Y-66903757D01*
X52461557Y-66701588D01*
X52365051Y-66512184D01*
X52365049Y-66512181D01*
X52365048Y-66512179D01*
X52240109Y-66340213D01*
X52089786Y-66189890D01*
X51917814Y-66064946D01*
X51913903Y-66062550D01*
X51867029Y-66010737D01*
X51855609Y-65941807D01*
X51883268Y-65877645D01*
X51905812Y-65856506D01*
X51907811Y-65855053D01*
X51907816Y-65855051D01*
X52079792Y-65730104D01*
X52230104Y-65579792D01*
X52230106Y-65579788D01*
X52230109Y-65579786D01*
X52355048Y-65407820D01*
X52355047Y-65407820D01*
X52355051Y-65407816D01*
X52451557Y-65218412D01*
X52517246Y-65016243D01*
X52550500Y-64806287D01*
X52550500Y-64593713D01*
X52517246Y-64383757D01*
X52451557Y-64181588D01*
X52355051Y-63992184D01*
X52355049Y-63992181D01*
X52355048Y-63992179D01*
X52230109Y-63820213D01*
X52125703Y-63715807D01*
X52092218Y-63654484D01*
X52097202Y-63584792D01*
X52139074Y-63528859D01*
X52170051Y-63511944D01*
X52206564Y-63498325D01*
X52272331Y-63473796D01*
X52387546Y-63387546D01*
X52473796Y-63272331D01*
X52524091Y-63137483D01*
X52530500Y-63077873D01*
X52530499Y-61282128D01*
X52524091Y-61222517D01*
X52512187Y-61190602D01*
X52473797Y-61087671D01*
X52473793Y-61087664D01*
X52387547Y-60972455D01*
X52387544Y-60972452D01*
X52272335Y-60886206D01*
X52272328Y-60886202D01*
X52140401Y-60836997D01*
X52084467Y-60795126D01*
X52060050Y-60729662D01*
X52074902Y-60661389D01*
X52096053Y-60633133D01*
X52229728Y-60499458D01*
X52354620Y-60327557D01*
X52451095Y-60138217D01*
X52516757Y-59936129D01*
X52516757Y-59936126D01*
X52527231Y-59870000D01*
X51633012Y-59870000D01*
X51665925Y-59812993D01*
X51700000Y-59685826D01*
X51700000Y-59554174D01*
X51665925Y-59427007D01*
X51633012Y-59370000D01*
X52527231Y-59370000D01*
X52516757Y-59303873D01*
X52516757Y-59303870D01*
X52451095Y-59101782D01*
X52354620Y-58912442D01*
X52229727Y-58740540D01*
X52229723Y-58740535D01*
X52079464Y-58590276D01*
X52079459Y-58590272D01*
X51907555Y-58465377D01*
X51878876Y-58450764D01*
X51828080Y-58402789D01*
X51811286Y-58334968D01*
X51833824Y-58268833D01*
X51878878Y-58229795D01*
X51907816Y-58215051D01*
X51907815Y-58215051D01*
X51907818Y-58215050D01*
X52079786Y-58090109D01*
X52079788Y-58090106D01*
X52079792Y-58090104D01*
X52230104Y-57939792D01*
X52230106Y-57939788D01*
X52230109Y-57939786D01*
X52355048Y-57767820D01*
X52355047Y-57767820D01*
X52355051Y-57767816D01*
X52451557Y-57578412D01*
X52517246Y-57376243D01*
X52550500Y-57166287D01*
X52550500Y-56953713D01*
X52517246Y-56743757D01*
X52451557Y-56541588D01*
X52355051Y-56352184D01*
X52355049Y-56352181D01*
X52355048Y-56352179D01*
X52230109Y-56180213D01*
X52079786Y-56029890D01*
X51907820Y-55904951D01*
X51718414Y-55808444D01*
X51718413Y-55808443D01*
X51718412Y-55808443D01*
X51516243Y-55742754D01*
X51516241Y-55742753D01*
X51516240Y-55742753D01*
X51354957Y-55717208D01*
X51306287Y-55709500D01*
X51093713Y-55709500D01*
X51045042Y-55717208D01*
X50883760Y-55742753D01*
X50681585Y-55808444D01*
X50492179Y-55904951D01*
X50320213Y-56029890D01*
X50169890Y-56180213D01*
X50044951Y-56352179D01*
X49948444Y-56541585D01*
X49882753Y-56743760D01*
X49849500Y-56953713D01*
X49849500Y-57166287D01*
X49882754Y-57376243D01*
X49929732Y-57520827D01*
X49948444Y-57578414D01*
X50044951Y-57767820D01*
X50169890Y-57939786D01*
X50320213Y-58090109D01*
X50492182Y-58215050D01*
X50521121Y-58229795D01*
X50571917Y-58277768D01*
X50588713Y-58345589D01*
X50566176Y-58411724D01*
X50521124Y-58450763D01*
X50492448Y-58465374D01*
X50492446Y-58465376D01*
X50320540Y-58590272D01*
X50320535Y-58590276D01*
X50170276Y-58740535D01*
X50170272Y-58740540D01*
X50045379Y-58912442D01*
X49948904Y-59101782D01*
X49883242Y-59303870D01*
X49883242Y-59303873D01*
X49872769Y-59370000D01*
X50766988Y-59370000D01*
X50734075Y-59427007D01*
X50700000Y-59554174D01*
X50700000Y-59685826D01*
X50734075Y-59812993D01*
X50766988Y-59870000D01*
X49872769Y-59870000D01*
X49883242Y-59936126D01*
X49883242Y-59936129D01*
X49948904Y-60138217D01*
X50045379Y-60327557D01*
X50170272Y-60499459D01*
X50170276Y-60499464D01*
X50295865Y-60625053D01*
X50329350Y-60686376D01*
X50324366Y-60756068D01*
X50282494Y-60812001D01*
X50229745Y-60832759D01*
X50230068Y-60834124D01*
X50222520Y-60835907D01*
X50087671Y-60886202D01*
X50087664Y-60886206D01*
X49972455Y-60972452D01*
X49972452Y-60972455D01*
X49886206Y-61087664D01*
X49886202Y-61087671D01*
X49835908Y-61222517D01*
X49829921Y-61278210D01*
X49829501Y-61282123D01*
X49829500Y-61282135D01*
X49829500Y-63077870D01*
X49829501Y-63077876D01*
X49835908Y-63137483D01*
X49886202Y-63272328D01*
X49886206Y-63272335D01*
X49972452Y-63387544D01*
X49972455Y-63387547D01*
X50087664Y-63473793D01*
X50087671Y-63473797D01*
X50219082Y-63522810D01*
X50245782Y-63542797D01*
X50273004Y-63562067D01*
X50273644Y-63563654D01*
X50275016Y-63564681D01*
X50286672Y-63595932D01*
X50299154Y-63626858D01*
X50298834Y-63628540D01*
X50299433Y-63630145D01*
X50292343Y-63662737D01*
X50286124Y-63695502D01*
X50284829Y-63697280D01*
X50284582Y-63698418D01*
X50265732Y-63724309D01*
X50264579Y-63725524D01*
X50169896Y-63820208D01*
X50153800Y-63842361D01*
X50148220Y-63848247D01*
X50124733Y-63861895D01*
X50103218Y-63878484D01*
X50094967Y-63879192D01*
X50087809Y-63883352D01*
X50060671Y-63882135D01*
X50033604Y-63884459D01*
X50026281Y-63880594D01*
X50018010Y-63880224D01*
X49995837Y-63864528D01*
X49971811Y-63851849D01*
X49970556Y-63850611D01*
X46956942Y-60836997D01*
X43917015Y-57797069D01*
X43883530Y-57735746D01*
X43883093Y-57733652D01*
X43869737Y-57666503D01*
X43833249Y-57578412D01*
X43809397Y-57520827D01*
X43809390Y-57520814D01*
X43721789Y-57389711D01*
X43721786Y-57389707D01*
X43610292Y-57278213D01*
X43610288Y-57278210D01*
X43479185Y-57190609D01*
X43479172Y-57190602D01*
X43333501Y-57130264D01*
X43333489Y-57130261D01*
X43178845Y-57099500D01*
X43178842Y-57099500D01*
X43021158Y-57099500D01*
X43021155Y-57099500D01*
X42866510Y-57130261D01*
X42866498Y-57130264D01*
X42720827Y-57190602D01*
X42720814Y-57190609D01*
X42589711Y-57278210D01*
X42589707Y-57278213D01*
X42478213Y-57389707D01*
X42478210Y-57389711D01*
X42390609Y-57520814D01*
X42390602Y-57520827D01*
X42330264Y-57666498D01*
X42330261Y-57666510D01*
X42299500Y-57821153D01*
X42299500Y-57978846D01*
X42330261Y-58133489D01*
X42330264Y-58133501D01*
X42390602Y-58279172D01*
X42390609Y-58279185D01*
X42478210Y-58410288D01*
X42478213Y-58410292D01*
X42589707Y-58521786D01*
X42589711Y-58521789D01*
X42720814Y-58609390D01*
X42720827Y-58609397D01*
X42808230Y-58645599D01*
X42866503Y-58669737D01*
X42933580Y-58683079D01*
X42995490Y-58715463D01*
X42997069Y-58717015D01*
X49394724Y-65114669D01*
X49458265Y-65178210D01*
X49485332Y-65205277D01*
X49591866Y-65276461D01*
X49591872Y-65276464D01*
X49591873Y-65276465D01*
X49710256Y-65325501D01*
X49710260Y-65325501D01*
X49710261Y-65325502D01*
X49835928Y-65350500D01*
X49835931Y-65350500D01*
X49940382Y-65350500D01*
X50007421Y-65370185D01*
X50041099Y-65404591D01*
X50042085Y-65403875D01*
X50169890Y-65579786D01*
X50320213Y-65730109D01*
X50492182Y-65855050D01*
X50496093Y-65857447D01*
X50542968Y-65909258D01*
X50554391Y-65978188D01*
X50526734Y-66042351D01*
X50504188Y-66063492D01*
X50330214Y-66189890D01*
X50330209Y-66189894D01*
X50179890Y-66340213D01*
X50052085Y-66516125D01*
X50050740Y-66515148D01*
X50004295Y-66557166D01*
X49950382Y-66569500D01*
X49340807Y-66569500D01*
X49273768Y-66549815D01*
X49253126Y-66533181D01*
X44517015Y-61797069D01*
X44483530Y-61735746D01*
X44483093Y-61733652D01*
X44469737Y-61666503D01*
X44445599Y-61608230D01*
X44409397Y-61520827D01*
X44409390Y-61520814D01*
X44321789Y-61389711D01*
X44321786Y-61389707D01*
X44210292Y-61278213D01*
X44210288Y-61278210D01*
X44079185Y-61190609D01*
X44079172Y-61190602D01*
X43933501Y-61130264D01*
X43933489Y-61130261D01*
X43778845Y-61099500D01*
X43778842Y-61099500D01*
X43621158Y-61099500D01*
X43621155Y-61099500D01*
X43466510Y-61130261D01*
X43466498Y-61130264D01*
X43320827Y-61190602D01*
X43320814Y-61190609D01*
X43189711Y-61278210D01*
X43189707Y-61278213D01*
X43078213Y-61389707D01*
X43078210Y-61389711D01*
X42990609Y-61520814D01*
X42990602Y-61520827D01*
X42930264Y-61666498D01*
X42930261Y-61666510D01*
X42899500Y-61821153D01*
X42899500Y-61978846D01*
X42930261Y-62133489D01*
X42930264Y-62133501D01*
X42990602Y-62279172D01*
X42990609Y-62279185D01*
X43078210Y-62410288D01*
X43078213Y-62410292D01*
X43189707Y-62521786D01*
X43189711Y-62521789D01*
X43320814Y-62609390D01*
X43320827Y-62609397D01*
X43366254Y-62628213D01*
X43466503Y-62669737D01*
X43533580Y-62683079D01*
X43595490Y-62715463D01*
X43597069Y-62717015D01*
X48514724Y-67634669D01*
X48563812Y-67683757D01*
X48605332Y-67725277D01*
X48711866Y-67796461D01*
X48711872Y-67796464D01*
X48711873Y-67796465D01*
X48830256Y-67845501D01*
X48830260Y-67845501D01*
X48830261Y-67845502D01*
X48955928Y-67870500D01*
X48955931Y-67870500D01*
X49950382Y-67870500D01*
X50017421Y-67890185D01*
X50051099Y-67924591D01*
X50052085Y-67923875D01*
X50179890Y-68099786D01*
X50330213Y-68250109D01*
X50502184Y-68375051D01*
X50502185Y-68375052D01*
X50530571Y-68389516D01*
X50581367Y-68437490D01*
X50598162Y-68505311D01*
X50575624Y-68571446D01*
X50530571Y-68610484D01*
X50502185Y-68624947D01*
X50502184Y-68624948D01*
X50330213Y-68749890D01*
X50179890Y-68900213D01*
X50052085Y-69076125D01*
X50050740Y-69075148D01*
X50004295Y-69117166D01*
X49950382Y-69129500D01*
X47700808Y-69129500D01*
X47633769Y-69109815D01*
X47613127Y-69093181D01*
X44217015Y-65697069D01*
X44183530Y-65635746D01*
X44183093Y-65633652D01*
X44169737Y-65566503D01*
X44145599Y-65508230D01*
X44109397Y-65420827D01*
X44109390Y-65420814D01*
X44021789Y-65289711D01*
X44021786Y-65289707D01*
X43910292Y-65178213D01*
X43910288Y-65178210D01*
X43779185Y-65090609D01*
X43779172Y-65090602D01*
X43633501Y-65030264D01*
X43633489Y-65030261D01*
X43478845Y-64999500D01*
X43478842Y-64999500D01*
X43321158Y-64999500D01*
X43321155Y-64999500D01*
X43166510Y-65030261D01*
X43166498Y-65030264D01*
X43020827Y-65090602D01*
X43020814Y-65090609D01*
X42889711Y-65178210D01*
X42889707Y-65178213D01*
X42778213Y-65289707D01*
X42778210Y-65289711D01*
X42690609Y-65420814D01*
X42690602Y-65420827D01*
X42630264Y-65566498D01*
X42630261Y-65566510D01*
X42599500Y-65721153D01*
X42599500Y-65878846D01*
X42630261Y-66033489D01*
X42630264Y-66033501D01*
X42690602Y-66179172D01*
X42690609Y-66179185D01*
X42778210Y-66310288D01*
X42778213Y-66310292D01*
X42889707Y-66421786D01*
X42889711Y-66421789D01*
X43020814Y-66509390D01*
X43020827Y-66509397D01*
X43078248Y-66533181D01*
X43166503Y-66569737D01*
X43233580Y-66583079D01*
X43295488Y-66615461D01*
X43297068Y-66617014D01*
X46965325Y-70285272D01*
X46965326Y-70285273D01*
X46965329Y-70285275D01*
X46965331Y-70285277D01*
X47071873Y-70356465D01*
X47190256Y-70405501D01*
X47190260Y-70405501D01*
X47190261Y-70405502D01*
X47315928Y-70430500D01*
X47315931Y-70430500D01*
X49950382Y-70430500D01*
X50017421Y-70450185D01*
X50051099Y-70484591D01*
X50052085Y-70483875D01*
X50179890Y-70659786D01*
X50330213Y-70810109D01*
X50491134Y-70927023D01*
X50502184Y-70935051D01*
X50607071Y-70988493D01*
X50613888Y-70991967D01*
X50664684Y-71039942D01*
X50681479Y-71107763D01*
X50658942Y-71173898D01*
X50613888Y-71212937D01*
X50492180Y-71274951D01*
X50320213Y-71399890D01*
X50169890Y-71550213D01*
X50042085Y-71726125D01*
X50040740Y-71725148D01*
X49994295Y-71767166D01*
X49940382Y-71779500D01*
X45250808Y-71779500D01*
X45183769Y-71759815D01*
X45163127Y-71743181D01*
X41586819Y-68166873D01*
X41553334Y-68105550D01*
X41550500Y-68079192D01*
X41550500Y-47504935D01*
X41570185Y-47437896D01*
X41571366Y-47436090D01*
X41609394Y-47379179D01*
X41669737Y-47233497D01*
X41700500Y-47078842D01*
X41700500Y-46921158D01*
X41700500Y-46921155D01*
X41700499Y-46921153D01*
X41695041Y-46893713D01*
X41669737Y-46766503D01*
X41662990Y-46750213D01*
X41609397Y-46620827D01*
X41609390Y-46620814D01*
X41521789Y-46489711D01*
X41521786Y-46489707D01*
X41410292Y-46378213D01*
X41410288Y-46378210D01*
X41279185Y-46290609D01*
X41279172Y-46290602D01*
X41133501Y-46230264D01*
X41133489Y-46230261D01*
X40978845Y-46199500D01*
X40978842Y-46199500D01*
X40821158Y-46199500D01*
X40821155Y-46199500D01*
X40666510Y-46230261D01*
X40666498Y-46230264D01*
X40520827Y-46290602D01*
X40520814Y-46290609D01*
X40389711Y-46378210D01*
X40389707Y-46378213D01*
X40278213Y-46489707D01*
X40278210Y-46489711D01*
X40190609Y-46620814D01*
X40190602Y-46620827D01*
X40130264Y-46766498D01*
X40130261Y-46766510D01*
X40099500Y-46921153D01*
X38850500Y-46921153D01*
X38850500Y-41360808D01*
X38870185Y-41293769D01*
X38886819Y-41273127D01*
X41435273Y-38724673D01*
X41435277Y-38724669D01*
X41506465Y-38618127D01*
X41555501Y-38499744D01*
X41580499Y-38374069D01*
X41580499Y-38245931D01*
X41566361Y-38174851D01*
X41562883Y-38157367D01*
X41560500Y-38133176D01*
X41560500Y-30235928D01*
X41535502Y-30110261D01*
X41535501Y-30110260D01*
X41535501Y-30110256D01*
X41491737Y-30004600D01*
X41486466Y-29991875D01*
X41486464Y-29991872D01*
X41458153Y-29949501D01*
X41458153Y-29949500D01*
X41415277Y-29885331D01*
X41415271Y-29885324D01*
X39314669Y-27784723D01*
X36710657Y-25180711D01*
X36677172Y-25119388D01*
X36677689Y-25071245D01*
X36676484Y-25071055D01*
X36693105Y-24966111D01*
X36710500Y-24856287D01*
X36710500Y-24643713D01*
X36677246Y-24433757D01*
X36611557Y-24231588D01*
X36515051Y-24042184D01*
X36515049Y-24042181D01*
X36515048Y-24042179D01*
X36390109Y-23870213D01*
X36239786Y-23719890D01*
X36067820Y-23594951D01*
X36067115Y-23594591D01*
X36059054Y-23590485D01*
X36008259Y-23542512D01*
X35991463Y-23474692D01*
X36013999Y-23408556D01*
X36059054Y-23369515D01*
X36067816Y-23365051D01*
X36089789Y-23349086D01*
X36239786Y-23240109D01*
X36239788Y-23240106D01*
X36239792Y-23240104D01*
X36390104Y-23089792D01*
X36390106Y-23089788D01*
X36390109Y-23089786D01*
X36515048Y-22917820D01*
X36515049Y-22917819D01*
X36515051Y-22917816D01*
X36611557Y-22728412D01*
X36677246Y-22526243D01*
X36710500Y-22316287D01*
X36710500Y-22103713D01*
X36677246Y-21893757D01*
X36611557Y-21691588D01*
X36515051Y-21502184D01*
X36515049Y-21502181D01*
X36515048Y-21502179D01*
X36390109Y-21330213D01*
X36239786Y-21179890D01*
X36067820Y-21054951D01*
X36067115Y-21054591D01*
X36059054Y-21050485D01*
X36008259Y-21002512D01*
X35991463Y-20934692D01*
X36013999Y-20868556D01*
X36059054Y-20829515D01*
X36067816Y-20825051D01*
X36089789Y-20809086D01*
X36239786Y-20700109D01*
X36239788Y-20700106D01*
X36239792Y-20700104D01*
X36390104Y-20549792D01*
X36390106Y-20549788D01*
X36390109Y-20549786D01*
X36515048Y-20377820D01*
X36515049Y-20377819D01*
X36515051Y-20377816D01*
X36611557Y-20188412D01*
X36677246Y-19986243D01*
X36710500Y-19776287D01*
X36710500Y-19563713D01*
X36677246Y-19353757D01*
X36611557Y-19151588D01*
X36515051Y-18962184D01*
X36515049Y-18962181D01*
X36515048Y-18962179D01*
X36390109Y-18790213D01*
X36239786Y-18639890D01*
X36067820Y-18514951D01*
X35878414Y-18418444D01*
X35878413Y-18418443D01*
X35878412Y-18418443D01*
X35676243Y-18352754D01*
X35676241Y-18352753D01*
X35676240Y-18352753D01*
X35514957Y-18327208D01*
X35466287Y-18319500D01*
X35253713Y-18319500D01*
X35205042Y-18327208D01*
X35043760Y-18352753D01*
X35043757Y-18352754D01*
X34866770Y-18410261D01*
X34841585Y-18418444D01*
X34652179Y-18514951D01*
X34480213Y-18639890D01*
X34329890Y-18790213D01*
X34202085Y-18966125D01*
X34200740Y-18965148D01*
X34154295Y-19007166D01*
X34100382Y-19019500D01*
X32880344Y-19019500D01*
X32813305Y-18999815D01*
X32780026Y-18968386D01*
X32665104Y-18810208D01*
X32514792Y-18659896D01*
X32514786Y-18659890D01*
X32342820Y-18534951D01*
X32153414Y-18438444D01*
X32153413Y-18438443D01*
X32153412Y-18438443D01*
X31951243Y-18372754D01*
X31951241Y-18372753D01*
X31951240Y-18372753D01*
X31789957Y-18347208D01*
X31741287Y-18339500D01*
X31528713Y-18339500D01*
X31480042Y-18347208D01*
X31318760Y-18372753D01*
X31116585Y-18438444D01*
X30927179Y-18534951D01*
X30755213Y-18659890D01*
X30604890Y-18810213D01*
X30477085Y-18986125D01*
X30475740Y-18985148D01*
X30429295Y-19027166D01*
X30375382Y-19039500D01*
X28004935Y-19039500D01*
X27937896Y-19019815D01*
X27936090Y-19018633D01*
X27879179Y-18980606D01*
X27879172Y-18980602D01*
X27733501Y-18920264D01*
X27733489Y-18920261D01*
X27578845Y-18889500D01*
X27578842Y-18889500D01*
X27421158Y-18889500D01*
X27421155Y-18889500D01*
X27266510Y-18920261D01*
X27266498Y-18920264D01*
X27120827Y-18980602D01*
X27120814Y-18980609D01*
X26989711Y-19068210D01*
X26989707Y-19068213D01*
X26878213Y-19179707D01*
X26878210Y-19179711D01*
X26790609Y-19310814D01*
X26790602Y-19310827D01*
X26730264Y-19456498D01*
X26730261Y-19456510D01*
X26699500Y-19611153D01*
X26699500Y-19768846D01*
X26730261Y-19923489D01*
X26730264Y-19923501D01*
X26790602Y-20069172D01*
X26790609Y-20069185D01*
X26878210Y-20200288D01*
X26878213Y-20200292D01*
X26989707Y-20311786D01*
X26989711Y-20311789D01*
X27120814Y-20399390D01*
X27120827Y-20399397D01*
X27266498Y-20459735D01*
X27266503Y-20459737D01*
X27421153Y-20490499D01*
X27421156Y-20490500D01*
X27421158Y-20490500D01*
X27578844Y-20490500D01*
X27578845Y-20490499D01*
X27733497Y-20459737D01*
X27846166Y-20413067D01*
X27879172Y-20399397D01*
X27879172Y-20399396D01*
X27879179Y-20399394D01*
X27936044Y-20361397D01*
X28002721Y-20340520D01*
X28004935Y-20340500D01*
X30375382Y-20340500D01*
X30442421Y-20360185D01*
X30476099Y-20394591D01*
X30477085Y-20393875D01*
X30604890Y-20569786D01*
X30755213Y-20720109D01*
X30927182Y-20845050D01*
X30935946Y-20849516D01*
X30986742Y-20897491D01*
X31003536Y-20965312D01*
X30980998Y-21031447D01*
X30935946Y-21070484D01*
X30927182Y-21074949D01*
X30755213Y-21199890D01*
X30604890Y-21350213D01*
X30477085Y-21526125D01*
X30475740Y-21525148D01*
X30429295Y-21567166D01*
X30375382Y-21579500D01*
X29805929Y-21579500D01*
X29680261Y-21604497D01*
X29680255Y-21604499D01*
X29561870Y-21653535D01*
X29455331Y-21724722D01*
X29455324Y-21724728D01*
X28197068Y-22982984D01*
X28135745Y-23016469D01*
X28133579Y-23016920D01*
X28066508Y-23030261D01*
X28066498Y-23030264D01*
X27920827Y-23090602D01*
X27920814Y-23090609D01*
X27789711Y-23178210D01*
X27789707Y-23178213D01*
X27678213Y-23289707D01*
X27678210Y-23289711D01*
X27590609Y-23420814D01*
X27590602Y-23420827D01*
X27530264Y-23566498D01*
X27530261Y-23566510D01*
X27499500Y-23721153D01*
X27499500Y-23878846D01*
X27530261Y-24033489D01*
X27530264Y-24033501D01*
X27590602Y-24179172D01*
X27590609Y-24179185D01*
X27678210Y-24310288D01*
X27678213Y-24310292D01*
X27789707Y-24421786D01*
X27789711Y-24421789D01*
X27920814Y-24509390D01*
X27920827Y-24509397D01*
X28066498Y-24569735D01*
X28066503Y-24569737D01*
X28216131Y-24599500D01*
X28221153Y-24600499D01*
X28221156Y-24600500D01*
X28221158Y-24600500D01*
X28378844Y-24600500D01*
X28378845Y-24600499D01*
X28533497Y-24569737D01*
X28679179Y-24509394D01*
X28810289Y-24421789D01*
X28921789Y-24310289D01*
X29009394Y-24179179D01*
X29069737Y-24033497D01*
X29083079Y-23966416D01*
X29115463Y-23904509D01*
X29116958Y-23902986D01*
X30103127Y-22916819D01*
X30130054Y-22902115D01*
X30155873Y-22885523D01*
X30162073Y-22884631D01*
X30164450Y-22883334D01*
X30190808Y-22880500D01*
X30375382Y-22880500D01*
X30442421Y-22900185D01*
X30476099Y-22934591D01*
X30477085Y-22933875D01*
X30604890Y-23109786D01*
X30755213Y-23260109D01*
X30927182Y-23385050D01*
X30935946Y-23389516D01*
X30986742Y-23437491D01*
X31003536Y-23505312D01*
X30980998Y-23571447D01*
X30935946Y-23610484D01*
X30927182Y-23614949D01*
X30755213Y-23739890D01*
X30604890Y-23890213D01*
X30479951Y-24062179D01*
X30383444Y-24251585D01*
X30317753Y-24453760D01*
X30287668Y-24643713D01*
X30284500Y-24663713D01*
X30284500Y-24876287D01*
X30287770Y-24896934D01*
X30315378Y-25071245D01*
X30317754Y-25086243D01*
X30376945Y-25268414D01*
X30383444Y-25288414D01*
X30479951Y-25477820D01*
X30604890Y-25649786D01*
X30755213Y-25800109D01*
X30927182Y-25925050D01*
X30935946Y-25929516D01*
X30986742Y-25977491D01*
X31003536Y-26045312D01*
X30980998Y-26111447D01*
X30935946Y-26150484D01*
X30927182Y-26154949D01*
X30755213Y-26279890D01*
X30604890Y-26430213D01*
X30479951Y-26602179D01*
X30383444Y-26791585D01*
X30317753Y-26993760D01*
X30284500Y-27203713D01*
X30284500Y-27416286D01*
X30315378Y-27611245D01*
X30317754Y-27626243D01*
X30376945Y-27808414D01*
X30383444Y-27828414D01*
X30479951Y-28017820D01*
X30604890Y-28189786D01*
X30755213Y-28340109D01*
X30927182Y-28465050D01*
X30935946Y-28469516D01*
X30986742Y-28517491D01*
X31003536Y-28585312D01*
X30980998Y-28651447D01*
X30935946Y-28690484D01*
X30927182Y-28694949D01*
X30755213Y-28819890D01*
X30604890Y-28970213D01*
X30479951Y-29142179D01*
X30383443Y-29331586D01*
X30359775Y-29404426D01*
X30344947Y-29434996D01*
X30273538Y-29541866D01*
X30273533Y-29541875D01*
X30224499Y-29660255D01*
X30224497Y-29660261D01*
X30199500Y-29785928D01*
X30199500Y-29909191D01*
X30179815Y-29976230D01*
X30163181Y-29996872D01*
X17832181Y-42327872D01*
X17770858Y-42361357D01*
X17701166Y-42356373D01*
X17645233Y-42314501D01*
X17620816Y-42249037D01*
X17620500Y-42240191D01*
X17620500Y-37137625D01*
X17640185Y-37070586D01*
X17692989Y-37024831D01*
X17762147Y-37014887D01*
X17825703Y-37043912D01*
X17832181Y-37049944D01*
X17897927Y-37115690D01*
X18050801Y-37226760D01*
X18128791Y-37266498D01*
X18219163Y-37312545D01*
X18219165Y-37312545D01*
X18219168Y-37312547D01*
X18284310Y-37333713D01*
X18398881Y-37370940D01*
X18585514Y-37400500D01*
X18585519Y-37400500D01*
X18774486Y-37400500D01*
X18961118Y-37370940D01*
X19140832Y-37312547D01*
X19309199Y-37226760D01*
X19462073Y-37115690D01*
X19595690Y-36982073D01*
X19706760Y-36829199D01*
X19792547Y-36660832D01*
X19832069Y-36539195D01*
X19871507Y-36481521D01*
X19935866Y-36454323D01*
X20004712Y-36466238D01*
X20056188Y-36513482D01*
X20067931Y-36539196D01*
X20107454Y-36660836D01*
X20188298Y-36819500D01*
X20193240Y-36829199D01*
X20304310Y-36982073D01*
X20437927Y-37115690D01*
X20590801Y-37226760D01*
X20668791Y-37266498D01*
X20759163Y-37312545D01*
X20759165Y-37312545D01*
X20759168Y-37312547D01*
X20824310Y-37333713D01*
X20938881Y-37370940D01*
X21125514Y-37400500D01*
X21125519Y-37400500D01*
X21314486Y-37400500D01*
X21501118Y-37370940D01*
X21680832Y-37312547D01*
X21849199Y-37226760D01*
X22002073Y-37115690D01*
X22135690Y-36982073D01*
X22246760Y-36829199D01*
X22332547Y-36660832D01*
X22390940Y-36481118D01*
X22399287Y-36428418D01*
X22420500Y-36294486D01*
X22420500Y-36105513D01*
X22390940Y-35918881D01*
X22348994Y-35789786D01*
X22332547Y-35739168D01*
X22332545Y-35739165D01*
X22332545Y-35739163D01*
X22265622Y-35607820D01*
X22246760Y-35570801D01*
X22135690Y-35417927D01*
X22002073Y-35284310D01*
X21984058Y-35271221D01*
X21921613Y-35225851D01*
X21878948Y-35170521D01*
X21870500Y-35125534D01*
X21870500Y-32689707D01*
X21890185Y-32622668D01*
X21942989Y-32576913D01*
X21956170Y-32571780D01*
X22018412Y-32551557D01*
X22207816Y-32455051D01*
X22379792Y-32330104D01*
X22464195Y-32245700D01*
X22525514Y-32212218D01*
X22595206Y-32217202D01*
X22651140Y-32259073D01*
X22668055Y-32290050D01*
X22706203Y-32392330D01*
X22706206Y-32392335D01*
X22792452Y-32507544D01*
X22792455Y-32507547D01*
X22907664Y-32593793D01*
X22907671Y-32593797D01*
X23042517Y-32644091D01*
X23042516Y-32644091D01*
X23049444Y-32644835D01*
X23102127Y-32650500D01*
X24897872Y-32650499D01*
X24957483Y-32644091D01*
X25092331Y-32593796D01*
X25207546Y-32507546D01*
X25293796Y-32392331D01*
X25344091Y-32257483D01*
X25350500Y-32197873D01*
X25350499Y-30402128D01*
X25344091Y-30342517D01*
X25337659Y-30325273D01*
X25293797Y-30207671D01*
X25293793Y-30207664D01*
X25207547Y-30092455D01*
X25207544Y-30092452D01*
X25092335Y-30006206D01*
X25092328Y-30006202D01*
X24957482Y-29955908D01*
X24957483Y-29955908D01*
X24897883Y-29949501D01*
X24897881Y-29949500D01*
X24897873Y-29949500D01*
X24897864Y-29949500D01*
X23102129Y-29949500D01*
X23102123Y-29949501D01*
X23042515Y-29955909D01*
X22917832Y-30002412D01*
X22887225Y-30004600D01*
X22856853Y-30008968D01*
X22852697Y-30007070D01*
X22848141Y-30007396D01*
X22821213Y-29992692D01*
X22793297Y-29979943D01*
X22790826Y-29976098D01*
X22786818Y-29973910D01*
X22772115Y-29946983D01*
X22755523Y-29921165D01*
X22754631Y-29914962D01*
X22753334Y-29912587D01*
X22750500Y-29886230D01*
X22750500Y-29694464D01*
X22770185Y-29627425D01*
X22801616Y-29594145D01*
X22882069Y-29535693D01*
X22882069Y-29535692D01*
X22882073Y-29535690D01*
X23015690Y-29402073D01*
X23126760Y-29249199D01*
X23212547Y-29080832D01*
X23270940Y-28901118D01*
X23286973Y-28799890D01*
X23300500Y-28714486D01*
X23300500Y-28525513D01*
X23270940Y-28338881D01*
X23215997Y-28169786D01*
X23212547Y-28159168D01*
X23212545Y-28159165D01*
X23212545Y-28159163D01*
X23140527Y-28017820D01*
X23126760Y-27990801D01*
X23015690Y-27837927D01*
X22882073Y-27704310D01*
X22729199Y-27593240D01*
X22560836Y-27507454D01*
X22486472Y-27483291D01*
X22439195Y-27467930D01*
X22381521Y-27428493D01*
X22354323Y-27364134D01*
X22366238Y-27295288D01*
X22413482Y-27243812D01*
X22439194Y-27232069D01*
X22560832Y-27192547D01*
X22729199Y-27106760D01*
X22882073Y-26995690D01*
X23015690Y-26862073D01*
X23126760Y-26709199D01*
X23212547Y-26540832D01*
X23270940Y-26361118D01*
X23286973Y-26259890D01*
X23300500Y-26174486D01*
X23300500Y-26154500D01*
X23320185Y-26087461D01*
X23372989Y-26041706D01*
X23424500Y-26030500D01*
X25195065Y-26030500D01*
X25262104Y-26050185D01*
X25263909Y-26051366D01*
X25320821Y-26089394D01*
X25320823Y-26089395D01*
X25320827Y-26089397D01*
X25430801Y-26134949D01*
X25466503Y-26149737D01*
X25590899Y-26174481D01*
X25621153Y-26180499D01*
X25621156Y-26180500D01*
X25621158Y-26180500D01*
X25778844Y-26180500D01*
X25778845Y-26180499D01*
X25933497Y-26149737D01*
X26075698Y-26090836D01*
X26079172Y-26089397D01*
X26079172Y-26089396D01*
X26079179Y-26089394D01*
X26210289Y-26001789D01*
X26321789Y-25890289D01*
X26409394Y-25759179D01*
X26469737Y-25613497D01*
X26500500Y-25458842D01*
X26500500Y-25301158D01*
X26500500Y-25301155D01*
X26500499Y-25301153D01*
X26491997Y-25258412D01*
X26469737Y-25146503D01*
X26444775Y-25086239D01*
X26409397Y-25000827D01*
X26409390Y-25000814D01*
X26321789Y-24869711D01*
X26321786Y-24869707D01*
X26210292Y-24758213D01*
X26210288Y-24758210D01*
X26079185Y-24670609D01*
X26079172Y-24670602D01*
X25933501Y-24610264D01*
X25933489Y-24610261D01*
X25778845Y-24579500D01*
X25778842Y-24579500D01*
X25621158Y-24579500D01*
X25621155Y-24579500D01*
X25466510Y-24610261D01*
X25466498Y-24610264D01*
X25320827Y-24670602D01*
X25320820Y-24670606D01*
X25291928Y-24689911D01*
X25263955Y-24708602D01*
X25197279Y-24729480D01*
X25195065Y-24729500D01*
X22735929Y-24729500D01*
X22610261Y-24754497D01*
X22610255Y-24754499D01*
X22491874Y-24803534D01*
X22383335Y-24876057D01*
X22316657Y-24896934D01*
X22295047Y-24895427D01*
X22194486Y-24879500D01*
X22194481Y-24879500D01*
X22005519Y-24879500D01*
X22005514Y-24879500D01*
X21818881Y-24909059D01*
X21639163Y-24967454D01*
X21470800Y-25053240D01*
X21446019Y-25071245D01*
X21317927Y-25164310D01*
X21317925Y-25164312D01*
X21317924Y-25164312D01*
X21184312Y-25297924D01*
X21184312Y-25297925D01*
X21184310Y-25297927D01*
X21167432Y-25321158D01*
X21073240Y-25450800D01*
X20987454Y-25619163D01*
X20929059Y-25798881D01*
X20899500Y-25985513D01*
X20899500Y-26174486D01*
X20929059Y-26361118D01*
X20987454Y-26540836D01*
X21046521Y-26656760D01*
X21073240Y-26709199D01*
X21184310Y-26862073D01*
X21317927Y-26995690D01*
X21470801Y-27106760D01*
X21542397Y-27143240D01*
X21639163Y-27192545D01*
X21639165Y-27192545D01*
X21639168Y-27192547D01*
X21683693Y-27207014D01*
X21760803Y-27232069D01*
X21818478Y-27271507D01*
X21845676Y-27335866D01*
X21833761Y-27404712D01*
X21786516Y-27456188D01*
X21760803Y-27467931D01*
X21639163Y-27507454D01*
X21470800Y-27593240D01*
X21446019Y-27611245D01*
X21317927Y-27704310D01*
X21317925Y-27704312D01*
X21317924Y-27704312D01*
X21184312Y-27837924D01*
X21184312Y-27837925D01*
X21184310Y-27837927D01*
X21147290Y-27888881D01*
X21073240Y-27990800D01*
X20987454Y-28159163D01*
X20929059Y-28338881D01*
X20899500Y-28525513D01*
X20899500Y-28714486D01*
X20929059Y-28901118D01*
X20987454Y-29080836D01*
X21046521Y-29196760D01*
X21073240Y-29249199D01*
X21184310Y-29402073D01*
X21184312Y-29402075D01*
X21317930Y-29535693D01*
X21398384Y-29594145D01*
X21401725Y-29598477D01*
X21406703Y-29600751D01*
X21422833Y-29625850D01*
X21441051Y-29649475D01*
X21442304Y-29656148D01*
X21444477Y-29659529D01*
X21449500Y-29694464D01*
X21449500Y-29834758D01*
X21429815Y-29901797D01*
X21377011Y-29947552D01*
X21344898Y-29957231D01*
X21183760Y-29982753D01*
X20981585Y-30048444D01*
X20792179Y-30144951D01*
X20620213Y-30269890D01*
X20469890Y-30420213D01*
X20344949Y-30592182D01*
X20340484Y-30600946D01*
X20292509Y-30651742D01*
X20224688Y-30668536D01*
X20158553Y-30645998D01*
X20119516Y-30600946D01*
X20115050Y-30592182D01*
X19990109Y-30420213D01*
X19839786Y-30269890D01*
X19667819Y-30144950D01*
X19618203Y-30119669D01*
X19567408Y-30071694D01*
X19550500Y-30009185D01*
X19550500Y-29068625D01*
X19570185Y-29001586D01*
X19586819Y-28980944D01*
X19597556Y-28970207D01*
X19615690Y-28952073D01*
X19726760Y-28799199D01*
X19812547Y-28630832D01*
X19870940Y-28451118D01*
X19888523Y-28340104D01*
X19900500Y-28264486D01*
X19900500Y-28075513D01*
X19870940Y-27888881D01*
X19837096Y-27784723D01*
X19812547Y-27709168D01*
X19812545Y-27709165D01*
X19812545Y-27709163D01*
X19753479Y-27593240D01*
X19726760Y-27540801D01*
X19615690Y-27387927D01*
X19482073Y-27254310D01*
X19329199Y-27143240D01*
X19160836Y-27057454D01*
X19086472Y-27033291D01*
X19039195Y-27017930D01*
X18981521Y-26978493D01*
X18954323Y-26914134D01*
X18966238Y-26845288D01*
X19013482Y-26793812D01*
X19039194Y-26782069D01*
X19160832Y-26742547D01*
X19329199Y-26656760D01*
X19482073Y-26545690D01*
X19615690Y-26412073D01*
X19726760Y-26259199D01*
X19812547Y-26090832D01*
X19870940Y-25911118D01*
X19873485Y-25895048D01*
X19900500Y-25724486D01*
X19900500Y-25535521D01*
X19900500Y-25535519D01*
X19884941Y-25437287D01*
X19893895Y-25367997D01*
X19919730Y-25330214D01*
X22203127Y-23046819D01*
X22264450Y-23013334D01*
X22290808Y-23010500D01*
X23455065Y-23010500D01*
X23522104Y-23030185D01*
X23523909Y-23031366D01*
X23580821Y-23069394D01*
X23580823Y-23069395D01*
X23580827Y-23069397D01*
X23678351Y-23109792D01*
X23726503Y-23129737D01*
X23881153Y-23160499D01*
X23881156Y-23160500D01*
X23881158Y-23160500D01*
X24038844Y-23160500D01*
X24038845Y-23160499D01*
X24193497Y-23129737D01*
X24339179Y-23069394D01*
X24470289Y-22981789D01*
X24581789Y-22870289D01*
X24669394Y-22739179D01*
X24729737Y-22593497D01*
X24760500Y-22438842D01*
X24760500Y-22281158D01*
X24760500Y-22281155D01*
X24760499Y-22281153D01*
X24748173Y-22219185D01*
X24729737Y-22126503D01*
X24707783Y-22073501D01*
X24669397Y-21980827D01*
X24669390Y-21980814D01*
X24581789Y-21849711D01*
X24581786Y-21849707D01*
X24470292Y-21738213D01*
X24470288Y-21738210D01*
X24339185Y-21650609D01*
X24339172Y-21650602D01*
X24193501Y-21590264D01*
X24193489Y-21590261D01*
X24038845Y-21559500D01*
X24038842Y-21559500D01*
X23881158Y-21559500D01*
X23881155Y-21559500D01*
X23726510Y-21590261D01*
X23726498Y-21590264D01*
X23580827Y-21650602D01*
X23580820Y-21650606D01*
X23576437Y-21653535D01*
X23523955Y-21688602D01*
X23457279Y-21709480D01*
X23455065Y-21709500D01*
X21905929Y-21709500D01*
X21780261Y-21734497D01*
X21780255Y-21734499D01*
X21661870Y-21783535D01*
X21555331Y-21854722D01*
X21555324Y-21854728D01*
X18999787Y-24410265D01*
X18938464Y-24443750D01*
X18892708Y-24445057D01*
X18794486Y-24429500D01*
X18794481Y-24429500D01*
X18605519Y-24429500D01*
X18605514Y-24429500D01*
X18418881Y-24459059D01*
X18239163Y-24517454D01*
X18070800Y-24603240D01*
X18015095Y-24643713D01*
X17917927Y-24714310D01*
X17917925Y-24714312D01*
X17917924Y-24714312D01*
X17832181Y-24800056D01*
X17770858Y-24833541D01*
X17701166Y-24828557D01*
X17645233Y-24786685D01*
X17620816Y-24721221D01*
X17620500Y-24712375D01*
X17620500Y-12774500D01*
X17640185Y-12707461D01*
X17692989Y-12661706D01*
X17744500Y-12650500D01*
X27440242Y-12650500D01*
X27507281Y-12670185D01*
G37*
%TD.AperFunction*%
%TA.AperFunction,Conductor*%
G36*
X34181695Y-43220185D02*
G01*
X34214973Y-43251613D01*
X34286092Y-43349500D01*
X34329896Y-43409792D01*
X34480213Y-43560109D01*
X34652179Y-43685048D01*
X34652181Y-43685049D01*
X34652184Y-43685051D01*
X34661493Y-43689794D01*
X34712290Y-43737766D01*
X34729087Y-43805587D01*
X34706552Y-43871722D01*
X34661502Y-43910762D01*
X34652443Y-43915378D01*
X34480540Y-44040272D01*
X34480535Y-44040276D01*
X34330276Y-44190535D01*
X34330272Y-44190540D01*
X34205379Y-44362442D01*
X34108904Y-44551782D01*
X34043242Y-44753870D01*
X34043242Y-44753873D01*
X34032769Y-44820000D01*
X34926988Y-44820000D01*
X34894075Y-44877007D01*
X34860000Y-45004174D01*
X34860000Y-45135826D01*
X34894075Y-45262993D01*
X34926988Y-45320000D01*
X34032769Y-45320000D01*
X34043242Y-45386126D01*
X34043242Y-45386129D01*
X34108904Y-45588217D01*
X34205379Y-45777557D01*
X34330272Y-45949459D01*
X34330276Y-45949464D01*
X34480535Y-46099723D01*
X34480540Y-46099727D01*
X34652444Y-46224622D01*
X34661495Y-46229234D01*
X34712292Y-46277208D01*
X34729087Y-46345029D01*
X34706550Y-46411164D01*
X34661499Y-46450202D01*
X34652182Y-46454949D01*
X34480213Y-46579890D01*
X34329896Y-46730207D01*
X34289841Y-46785339D01*
X34211104Y-46893713D01*
X34204947Y-46902187D01*
X34200054Y-46911792D01*
X34152081Y-46962589D01*
X34089568Y-46979500D01*
X32894618Y-46979500D01*
X32827579Y-46959815D01*
X32793900Y-46925408D01*
X32792915Y-46926125D01*
X32665109Y-46750213D01*
X32514786Y-46599890D01*
X32342817Y-46474949D01*
X32333504Y-46470204D01*
X32282707Y-46422230D01*
X32265912Y-46354409D01*
X32288449Y-46288274D01*
X32333507Y-46249232D01*
X32342558Y-46244620D01*
X32514459Y-46119727D01*
X32514464Y-46119723D01*
X32664723Y-45969464D01*
X32664727Y-45969459D01*
X32789620Y-45797557D01*
X32886095Y-45608217D01*
X32951757Y-45406129D01*
X32951757Y-45406126D01*
X32962231Y-45340000D01*
X32068012Y-45340000D01*
X32100925Y-45282993D01*
X32135000Y-45155826D01*
X32135000Y-45024174D01*
X32100925Y-44897007D01*
X32068012Y-44840000D01*
X32962231Y-44840000D01*
X32951757Y-44773873D01*
X32951757Y-44773870D01*
X32886095Y-44571782D01*
X32789620Y-44382442D01*
X32664727Y-44210540D01*
X32664723Y-44210535D01*
X32514464Y-44060276D01*
X32514459Y-44060272D01*
X32342555Y-43935377D01*
X32333500Y-43930763D01*
X32282706Y-43882788D01*
X32265912Y-43814966D01*
X32288451Y-43748832D01*
X32333508Y-43709793D01*
X32342816Y-43705051D01*
X32464700Y-43616498D01*
X32514786Y-43580109D01*
X32514788Y-43580106D01*
X32514792Y-43580104D01*
X32665104Y-43429792D01*
X32665106Y-43429788D01*
X32665109Y-43429786D01*
X32792915Y-43253875D01*
X32794259Y-43254851D01*
X32840705Y-43212834D01*
X32894618Y-43200500D01*
X34114656Y-43200500D01*
X34181695Y-43220185D01*
G37*
%TD.AperFunction*%
%TD*%
M02*
