%TF.GenerationSoftware,KiCad,Pcbnew,9.0.3-1.fc42*%
%TF.CreationDate,2025-08-08T09:47:22+02:00*%
%TF.ProjectId,OLB,4f4c422e-6b69-4636-9164-5f7063625858,1*%
%TF.SameCoordinates,Original*%
%TF.FileFunction,Soldermask,Top*%
%TF.FilePolarity,Negative*%
%FSLAX46Y46*%
G04 Gerber Fmt 4.6, Leading zero omitted, Abs format (unit mm)*
G04 Created by KiCad (PCBNEW 9.0.3-1.fc42) date 2025-08-08 09:47:22*
%MOMM*%
%LPD*%
G01*
G04 APERTURE LIST*
%ADD10R,1.700000X1.700000*%
%ADD11O,1.700000X1.700000*%
%ADD12C,1.400000*%
%ADD13O,1.400000X1.400000*%
G04 APERTURE END LIST*
D10*
%TO.C,*%
X31500000Y-78000000D03*
%TD*%
D11*
%TO.C,*%
X20000000Y-75500000D03*
%TD*%
%TO.C,*%
X20000000Y-78000000D03*
%TD*%
%TO.C,*%
X22000000Y-49300000D03*
%TD*%
D10*
%TO.C,DS18B20*%
X24000000Y-31300000D03*
D11*
X18960000Y-31300000D03*
X21500000Y-31300000D03*
%TD*%
D10*
%TO.C,*%
X22000000Y-51800000D03*
%TD*%
D12*
%TO.C,R2*%
X21220000Y-36200000D03*
D13*
X18680000Y-36200000D03*
%TD*%
D11*
%TO.C,*%
X22100000Y-47000000D03*
%TD*%
%TO.C,REF\u002A\u002A*%
X35360000Y-47610000D03*
X35360000Y-45070000D03*
X35360000Y-42530000D03*
X35360000Y-39990000D03*
X35360000Y-37450000D03*
D10*
X35360000Y-34910000D03*
D11*
X35360000Y-32370000D03*
X35360000Y-29830000D03*
X35360000Y-27290000D03*
X35360000Y-24750000D03*
X35360000Y-22210000D03*
X35360000Y-19670000D03*
%TD*%
D12*
%TO.C,R4*%
X22100000Y-28620000D03*
D13*
X22100000Y-26080000D03*
%TD*%
D11*
%TO.C,SW1*%
X26000000Y-72500000D03*
X26000000Y-78100000D03*
%TD*%
D12*
%TO.C,R3*%
X18700000Y-28170000D03*
D13*
X18700000Y-25630000D03*
%TD*%
D11*
%TO.C,GPS1*%
X28500000Y-13800000D03*
X31060000Y-13800000D03*
X33600000Y-13800000D03*
X46300000Y-13800000D03*
X36140000Y-13800000D03*
X38680000Y-13800000D03*
X41220000Y-13800000D03*
X48840000Y-13800000D03*
D10*
X43800000Y-13800000D03*
%TD*%
D11*
%TO.C,*%
X22100000Y-44700000D03*
%TD*%
D10*
%TO.C,*%
X28700000Y-78100000D03*
%TD*%
D11*
%TO.C,Wio1*%
X31635000Y-45090000D03*
X31635000Y-47630000D03*
X49400000Y-42530000D03*
X31635000Y-24770000D03*
X49400000Y-37450000D03*
X49400000Y-39990000D03*
X31635000Y-32390000D03*
X31635000Y-29850000D03*
X31635000Y-42550000D03*
X31635000Y-40010000D03*
X49400000Y-29830000D03*
X49400000Y-45070000D03*
X31635000Y-19690000D03*
X31635000Y-22230000D03*
D10*
X31635000Y-34930000D03*
X49400000Y-47610000D03*
D11*
X31635000Y-27310000D03*
X31635000Y-37470000D03*
X49400000Y-34910000D03*
X49400000Y-27290000D03*
X49400000Y-22210000D03*
X49400000Y-32370000D03*
X49400000Y-24750000D03*
X49400000Y-19670000D03*
%TD*%
D12*
%TO.C,R1*%
X21860000Y-17600000D03*
D13*
X24400000Y-17600000D03*
%TD*%
D10*
%TO.C,RHS Wio pins*%
X45500000Y-47600000D03*
D11*
X45500000Y-45060000D03*
X45500000Y-42520000D03*
X45500000Y-39980000D03*
X45500000Y-37440000D03*
X45500000Y-34900000D03*
X45500000Y-32360000D03*
X45500000Y-29820000D03*
X45500000Y-27280000D03*
X45500000Y-24740000D03*
X45500000Y-22200000D03*
X45500000Y-19660000D03*
%TD*%
%TO.C,SD_card_reader1*%
X51200000Y-59620000D03*
X51200000Y-57060000D03*
D10*
X51180000Y-62180000D03*
D11*
X51200000Y-74800000D03*
X51200000Y-64700000D03*
X51200000Y-72430000D03*
X51210000Y-69780000D03*
X51210000Y-67220000D03*
%TD*%
%TO.C,Pololu1*%
X31450000Y-68000000D03*
D10*
X28950000Y-68000000D03*
D11*
X23950000Y-68000000D03*
X26490000Y-68000000D03*
%TD*%
M02*
