M48
; DRILL file {KiCad 9.0.3-1.fc42} date 2025-08-08T09:47:20+0200
; FORMAT={-:-/ absolute / inch / decimal}
; #@! TF.CreationDate,2025-08-08T09:47:20+02:00
; #@! TF.GenerationSoftware,Kicad,Pcbnew,9.0.3-1.fc42
; #@! TF.FileFunction,MixedPlating,1,2
FMAT,2
INCH
; #@! TA.AperFunction,Plated,PTH,ViaDrill
T1C0.0118
; #@! TA.AperFunction,Plated,PTH,ComponentDrill
T2C0.0276
; #@! TA.AperFunction,Plated,PTH,ComponentDrill
T3C0.0394
%
G90
G05
T1
X0.7835Y-1.8858
X0.9433Y-0.8803
X0.9488Y-1.685
X1.0039Y-1.8425
X1.0118Y-0.9992
X1.0512Y-1.4764
X1.0551Y-1.5787
X1.0827Y-0.7752
X1.1142Y-0.937
X1.1398Y-1.7264
X1.2067Y-2.4902
X1.3858Y-2.4646
X1.4992Y-1.4654
X1.5039Y-2.1772
X1.5197Y-0.7756
X1.5236Y-1.0
X1.6102Y-1.8504
X1.6772Y-0.6969
X1.6772Y-0.8598
X1.6969Y-2.2795
X1.7087Y-2.5906
X1.7205Y-2.437
T2
X0.7354Y-1.4252
X0.7362Y-1.0091
X0.7362Y-1.1091
X0.8354Y-1.4252
X0.8606Y-0.6929
X0.8701Y-1.0268
X0.8701Y-1.1268
X0.9606Y-0.6929
T3
X0.7465Y-1.2323
X0.7874Y-2.9724
X0.7874Y-3.0709
X0.8465Y-1.2323
X0.8661Y-1.9409
X0.8661Y-2.0394
X0.8701Y-1.7598
X0.8701Y-1.8504
X0.9429Y-2.6772
X0.9449Y-1.2323
X1.0236Y-2.8543
X1.0236Y-3.0748
X1.0429Y-2.6772
X1.122Y-0.5433
X1.1299Y-3.0748
X1.1398Y-2.6772
X1.2228Y-0.5433
X1.2382Y-2.6772
X1.2402Y-3.0709
X1.2455Y-0.7752
X1.2455Y-0.8752
X1.2455Y-0.9752
X1.2455Y-1.0752
X1.2455Y-1.1752
X1.2455Y-1.2752
X1.2455Y-1.3752
X1.2455Y-1.4752
X1.2455Y-1.5752
X1.2455Y-1.6752
X1.2455Y-1.7752
X1.2455Y-1.8752
X1.3228Y-0.5433
X1.3921Y-0.7744
X1.3921Y-0.8744
X1.3921Y-0.9744
X1.3921Y-1.0744
X1.3921Y-1.1744
X1.3921Y-1.2744
X1.3921Y-1.3744
X1.3921Y-1.4744
X1.3921Y-1.5744
X1.3921Y-1.6744
X1.3921Y-1.7744
X1.3921Y-1.8744
X1.4228Y-0.5433
X1.5228Y-0.5433
X1.6228Y-0.5433
X1.7244Y-0.5433
X1.7913Y-0.774
X1.7913Y-0.874
X1.7913Y-0.974
X1.7913Y-1.074
X1.7913Y-1.174
X1.7913Y-1.274
X1.7913Y-1.374
X1.7913Y-1.474
X1.7913Y-1.574
X1.7913Y-1.674
X1.7913Y-1.774
X1.7913Y-1.874
X1.8228Y-0.5433
X1.9228Y-0.5433
X1.9449Y-0.7744
X1.9449Y-0.8744
X1.9449Y-0.9744
X1.9449Y-1.0744
X1.9449Y-1.1744
X1.9449Y-1.2744
X1.9449Y-1.3744
X1.9449Y-1.4744
X1.9449Y-1.5744
X1.9449Y-1.6744
X1.9449Y-1.7744
X1.9449Y-1.8744
X2.015Y-2.448
X2.0157Y-2.2465
X2.0157Y-2.3472
X2.0157Y-2.5472
X2.0157Y-2.8516
X2.0157Y-2.9449
X2.0161Y-2.6465
X2.0161Y-2.7472
M30
