%TF.GenerationSoftware,KiCad,Pcbnew,9.0.8*%
%TF.CreationDate,2026-03-24T12:44:56+01:00*%
%TF.ProjectId,moored_PCB,6d6f6f72-6564-45f5-9043-422e6b696361,1*%
%TF.SameCoordinates,Original*%
%TF.FileFunction,Soldermask,Bot*%
%TF.FilePolarity,Negative*%
%FSLAX46Y46*%
G04 Gerber Fmt 4.6, Leading zero omitted, Abs format (unit mm)*
G04 Created by KiCad (PCBNEW 9.0.8) date 2026-03-24 12:44:56*
%MOMM*%
%LPD*%
G01*
G04 APERTURE LIST*
%ADD10O,1.700000X1.700000*%
%ADD11R,1.700000X1.700000*%
%ADD12C,1.400000*%
%ADD13O,1.400000X1.400000*%
%ADD14C,1.700000*%
G04 APERTURE END LIST*
D10*
%TO.C,*%
X18500000Y-13500000D03*
%TD*%
%TO.C,*%
X22000000Y-49300000D03*
%TD*%
D11*
%TO.C,DS18B20*%
X24000000Y-31300000D03*
D10*
X18960000Y-31300000D03*
X21500000Y-31300000D03*
%TD*%
D11*
%TO.C,*%
X22000000Y-51800000D03*
%TD*%
D12*
%TO.C,R2*%
X21220000Y-36200000D03*
D13*
X18680000Y-36200000D03*
%TD*%
D10*
%TO.C,*%
X22100000Y-47000000D03*
%TD*%
%TO.C,REF\u002A\u002A*%
X35360000Y-47610000D03*
X35360000Y-45070000D03*
X35360000Y-42530000D03*
X35360000Y-39990000D03*
X35360000Y-37450000D03*
D11*
X35360000Y-34910000D03*
D10*
X35360000Y-32370000D03*
X35360000Y-29830000D03*
X35360000Y-27290000D03*
X35360000Y-24750000D03*
X35360000Y-22210000D03*
X35360000Y-19670000D03*
%TD*%
D11*
%TO.C,TURB1*%
X77500000Y-43960000D03*
D14*
X77500000Y-46500000D03*
X77500000Y-49040000D03*
%TD*%
D10*
%TO.C,*%
X80000000Y-13500000D03*
%TD*%
D12*
%TO.C,R4*%
X22100000Y-28620000D03*
D13*
X22100000Y-26080000D03*
%TD*%
D10*
%TO.C,Pololu1*%
X31450000Y-68000000D03*
D11*
X28950000Y-68000000D03*
D10*
X23950000Y-68000000D03*
X26490000Y-68000000D03*
%TD*%
%TO.C,SW1*%
X26000000Y-72500000D03*
X26000000Y-78100000D03*
%TD*%
D11*
%TO.C,PH1*%
X77500000Y-30960000D03*
D14*
X77500000Y-33500000D03*
X77500000Y-36040000D03*
%TD*%
D10*
%TO.C,*%
X22500000Y-78000000D03*
%TD*%
D12*
%TO.C,R3*%
X18700000Y-28170000D03*
D13*
X18700000Y-25630000D03*
%TD*%
D10*
%TO.C,GPS1*%
X58320000Y-71500000D03*
X60880000Y-71500000D03*
X63420000Y-71500000D03*
X76120000Y-71500000D03*
X65960000Y-71500000D03*
X68500000Y-71500000D03*
X71040000Y-71500000D03*
X78660000Y-71500000D03*
D11*
X73620000Y-71500000D03*
%TD*%
%TO.C,MF1*%
X62960000Y-25500000D03*
D14*
X65500000Y-25500000D03*
X68040000Y-25500000D03*
X70580000Y-25500000D03*
%TD*%
D10*
%TO.C,*%
X80000000Y-78000000D03*
%TD*%
%TO.C,*%
X22100000Y-44700000D03*
%TD*%
D11*
%TO.C,*%
X28700000Y-78100000D03*
%TD*%
D10*
%TO.C,Wio1*%
X31635000Y-45090000D03*
X31635000Y-47630000D03*
X49400000Y-42530000D03*
X31635000Y-24770000D03*
X49400000Y-37450000D03*
X49400000Y-39990000D03*
X31635000Y-32390000D03*
X31635000Y-29850000D03*
X31635000Y-42550000D03*
X31635000Y-40010000D03*
X49400000Y-29830000D03*
X49400000Y-45070000D03*
X31635000Y-19690000D03*
X31635000Y-22230000D03*
D11*
X31635000Y-34930000D03*
X49400000Y-47610000D03*
D10*
X31635000Y-27310000D03*
X31635000Y-37470000D03*
X49400000Y-34910000D03*
X49400000Y-27290000D03*
X49400000Y-22210000D03*
X49400000Y-32370000D03*
X49400000Y-24750000D03*
X49400000Y-19670000D03*
%TD*%
%TO.C,*%
X18500000Y-78000000D03*
%TD*%
D12*
%TO.C,R1*%
X58280000Y-78000000D03*
D13*
X60820000Y-78000000D03*
%TD*%
D11*
%TO.C,RHS Wio pins*%
X45500000Y-47600000D03*
D10*
X45500000Y-45060000D03*
X45500000Y-42520000D03*
X45500000Y-39980000D03*
X45500000Y-37440000D03*
X45500000Y-34900000D03*
X45500000Y-32360000D03*
X45500000Y-29820000D03*
X45500000Y-27280000D03*
X45500000Y-24740000D03*
X45500000Y-22200000D03*
X45500000Y-19660000D03*
%TD*%
%TO.C,SD_card_reader1*%
X51200000Y-59620000D03*
X51200000Y-57060000D03*
D11*
X51180000Y-62180000D03*
D10*
X51200000Y-74800000D03*
X51200000Y-64700000D03*
X51200000Y-72430000D03*
X51210000Y-69780000D03*
X51210000Y-67220000D03*
%TD*%
M02*
