%TF.GenerationSoftware,KiCad,Pcbnew,9.0.8*%
%TF.CreationDate,2026-03-24T12:44:55+01:00*%
%TF.ProjectId,moored_PCB,6d6f6f72-6564-45f5-9043-422e6b696361,1*%
%TF.SameCoordinates,Original*%
%TF.FileFunction,Legend,Top*%
%TF.FilePolarity,Positive*%
%FSLAX46Y46*%
G04 Gerber Fmt 4.6, Leading zero omitted, Abs format (unit mm)*
G04 Created by KiCad (PCBNEW 9.0.8) date 2026-03-24 12:44:55*
%MOMM*%
%LPD*%
G01*
G04 APERTURE LIST*
%ADD10C,0.100000*%
%ADD11C,0.200000*%
%ADD12C,0.250000*%
%ADD13C,0.150000*%
%ADD14C,0.120000*%
G04 APERTURE END LIST*
D10*
X22022931Y-23328637D02*
X21784836Y-23328637D01*
X21784836Y-23328637D02*
X21761027Y-23566732D01*
X21761027Y-23566732D02*
X21784836Y-23542923D01*
X21784836Y-23542923D02*
X21832455Y-23519113D01*
X21832455Y-23519113D02*
X21951503Y-23519113D01*
X21951503Y-23519113D02*
X21999122Y-23542923D01*
X21999122Y-23542923D02*
X22022931Y-23566732D01*
X22022931Y-23566732D02*
X22046741Y-23614351D01*
X22046741Y-23614351D02*
X22046741Y-23733399D01*
X22046741Y-23733399D02*
X22022931Y-23781018D01*
X22022931Y-23781018D02*
X21999122Y-23804828D01*
X21999122Y-23804828D02*
X21951503Y-23828637D01*
X21951503Y-23828637D02*
X21832455Y-23828637D01*
X21832455Y-23828637D02*
X21784836Y-23804828D01*
X21784836Y-23804828D02*
X21761027Y-23781018D01*
X22356264Y-23328637D02*
X22403883Y-23328637D01*
X22403883Y-23328637D02*
X22451502Y-23352447D01*
X22451502Y-23352447D02*
X22475312Y-23376256D01*
X22475312Y-23376256D02*
X22499121Y-23423875D01*
X22499121Y-23423875D02*
X22522931Y-23519113D01*
X22522931Y-23519113D02*
X22522931Y-23638161D01*
X22522931Y-23638161D02*
X22499121Y-23733399D01*
X22499121Y-23733399D02*
X22475312Y-23781018D01*
X22475312Y-23781018D02*
X22451502Y-23804828D01*
X22451502Y-23804828D02*
X22403883Y-23828637D01*
X22403883Y-23828637D02*
X22356264Y-23828637D01*
X22356264Y-23828637D02*
X22308645Y-23804828D01*
X22308645Y-23804828D02*
X22284836Y-23781018D01*
X22284836Y-23781018D02*
X22261026Y-23733399D01*
X22261026Y-23733399D02*
X22237217Y-23638161D01*
X22237217Y-23638161D02*
X22237217Y-23519113D01*
X22237217Y-23519113D02*
X22261026Y-23423875D01*
X22261026Y-23423875D02*
X22284836Y-23376256D01*
X22284836Y-23376256D02*
X22308645Y-23352447D01*
X22308645Y-23352447D02*
X22356264Y-23328637D01*
X23213406Y-23328637D02*
X23308644Y-23328637D01*
X23308644Y-23328637D02*
X23356263Y-23352447D01*
X23356263Y-23352447D02*
X23403882Y-23400066D01*
X23403882Y-23400066D02*
X23427692Y-23495304D01*
X23427692Y-23495304D02*
X23427692Y-23661970D01*
X23427692Y-23661970D02*
X23403882Y-23757208D01*
X23403882Y-23757208D02*
X23356263Y-23804828D01*
X23356263Y-23804828D02*
X23308644Y-23828637D01*
X23308644Y-23828637D02*
X23213406Y-23828637D01*
X23213406Y-23828637D02*
X23165787Y-23804828D01*
X23165787Y-23804828D02*
X23118168Y-23757208D01*
X23118168Y-23757208D02*
X23094359Y-23661970D01*
X23094359Y-23661970D02*
X23094359Y-23495304D01*
X23094359Y-23495304D02*
X23118168Y-23400066D01*
X23118168Y-23400066D02*
X23165787Y-23352447D01*
X23165787Y-23352447D02*
X23213406Y-23328637D01*
X23641978Y-23828637D02*
X23641978Y-23328637D01*
X23856264Y-23828637D02*
X23856264Y-23566732D01*
X23856264Y-23566732D02*
X23832454Y-23519113D01*
X23832454Y-23519113D02*
X23784835Y-23495304D01*
X23784835Y-23495304D02*
X23713407Y-23495304D01*
X23713407Y-23495304D02*
X23665788Y-23519113D01*
X23665788Y-23519113D02*
X23641978Y-23542923D01*
X24094359Y-23828637D02*
X24094359Y-23495304D01*
X24094359Y-23542923D02*
X24118169Y-23519113D01*
X24118169Y-23519113D02*
X24165788Y-23495304D01*
X24165788Y-23495304D02*
X24237216Y-23495304D01*
X24237216Y-23495304D02*
X24284835Y-23519113D01*
X24284835Y-23519113D02*
X24308645Y-23566732D01*
X24308645Y-23566732D02*
X24308645Y-23828637D01*
X24308645Y-23566732D02*
X24332454Y-23519113D01*
X24332454Y-23519113D02*
X24380073Y-23495304D01*
X24380073Y-23495304D02*
X24451502Y-23495304D01*
X24451502Y-23495304D02*
X24499121Y-23519113D01*
X24499121Y-23519113D02*
X24522931Y-23566732D01*
X24522931Y-23566732D02*
X24522931Y-23828637D01*
X21784836Y-24633609D02*
X21784836Y-24300276D01*
X21784836Y-24395514D02*
X21808646Y-24347895D01*
X21808646Y-24347895D02*
X21832455Y-24324085D01*
X21832455Y-24324085D02*
X21880074Y-24300276D01*
X21880074Y-24300276D02*
X21927693Y-24300276D01*
X22284836Y-24609800D02*
X22237217Y-24633609D01*
X22237217Y-24633609D02*
X22141979Y-24633609D01*
X22141979Y-24633609D02*
X22094360Y-24609800D01*
X22094360Y-24609800D02*
X22070551Y-24562180D01*
X22070551Y-24562180D02*
X22070551Y-24371704D01*
X22070551Y-24371704D02*
X22094360Y-24324085D01*
X22094360Y-24324085D02*
X22141979Y-24300276D01*
X22141979Y-24300276D02*
X22237217Y-24300276D01*
X22237217Y-24300276D02*
X22284836Y-24324085D01*
X22284836Y-24324085D02*
X22308646Y-24371704D01*
X22308646Y-24371704D02*
X22308646Y-24419323D01*
X22308646Y-24419323D02*
X22070551Y-24466942D01*
X22499122Y-24609800D02*
X22546741Y-24633609D01*
X22546741Y-24633609D02*
X22641979Y-24633609D01*
X22641979Y-24633609D02*
X22689598Y-24609800D01*
X22689598Y-24609800D02*
X22713407Y-24562180D01*
X22713407Y-24562180D02*
X22713407Y-24538371D01*
X22713407Y-24538371D02*
X22689598Y-24490752D01*
X22689598Y-24490752D02*
X22641979Y-24466942D01*
X22641979Y-24466942D02*
X22570550Y-24466942D01*
X22570550Y-24466942D02*
X22522931Y-24443133D01*
X22522931Y-24443133D02*
X22499122Y-24395514D01*
X22499122Y-24395514D02*
X22499122Y-24371704D01*
X22499122Y-24371704D02*
X22522931Y-24324085D01*
X22522931Y-24324085D02*
X22570550Y-24300276D01*
X22570550Y-24300276D02*
X22641979Y-24300276D01*
X22641979Y-24300276D02*
X22689598Y-24324085D01*
X22927693Y-24633609D02*
X22927693Y-24300276D01*
X22927693Y-24133609D02*
X22903884Y-24157419D01*
X22903884Y-24157419D02*
X22927693Y-24181228D01*
X22927693Y-24181228D02*
X22951503Y-24157419D01*
X22951503Y-24157419D02*
X22927693Y-24133609D01*
X22927693Y-24133609D02*
X22927693Y-24181228D01*
X23141979Y-24609800D02*
X23189598Y-24633609D01*
X23189598Y-24633609D02*
X23284836Y-24633609D01*
X23284836Y-24633609D02*
X23332455Y-24609800D01*
X23332455Y-24609800D02*
X23356264Y-24562180D01*
X23356264Y-24562180D02*
X23356264Y-24538371D01*
X23356264Y-24538371D02*
X23332455Y-24490752D01*
X23332455Y-24490752D02*
X23284836Y-24466942D01*
X23284836Y-24466942D02*
X23213407Y-24466942D01*
X23213407Y-24466942D02*
X23165788Y-24443133D01*
X23165788Y-24443133D02*
X23141979Y-24395514D01*
X23141979Y-24395514D02*
X23141979Y-24371704D01*
X23141979Y-24371704D02*
X23165788Y-24324085D01*
X23165788Y-24324085D02*
X23213407Y-24300276D01*
X23213407Y-24300276D02*
X23284836Y-24300276D01*
X23284836Y-24300276D02*
X23332455Y-24324085D01*
X23499122Y-24300276D02*
X23689598Y-24300276D01*
X23570550Y-24133609D02*
X23570550Y-24562180D01*
X23570550Y-24562180D02*
X23594360Y-24609800D01*
X23594360Y-24609800D02*
X23641979Y-24633609D01*
X23641979Y-24633609D02*
X23689598Y-24633609D01*
X23927693Y-24633609D02*
X23880074Y-24609800D01*
X23880074Y-24609800D02*
X23856264Y-24585990D01*
X23856264Y-24585990D02*
X23832455Y-24538371D01*
X23832455Y-24538371D02*
X23832455Y-24395514D01*
X23832455Y-24395514D02*
X23856264Y-24347895D01*
X23856264Y-24347895D02*
X23880074Y-24324085D01*
X23880074Y-24324085D02*
X23927693Y-24300276D01*
X23927693Y-24300276D02*
X23999121Y-24300276D01*
X23999121Y-24300276D02*
X24046740Y-24324085D01*
X24046740Y-24324085D02*
X24070550Y-24347895D01*
X24070550Y-24347895D02*
X24094359Y-24395514D01*
X24094359Y-24395514D02*
X24094359Y-24538371D01*
X24094359Y-24538371D02*
X24070550Y-24585990D01*
X24070550Y-24585990D02*
X24046740Y-24609800D01*
X24046740Y-24609800D02*
X23999121Y-24633609D01*
X23999121Y-24633609D02*
X23927693Y-24633609D01*
X24308645Y-24633609D02*
X24308645Y-24300276D01*
X24308645Y-24395514D02*
X24332455Y-24347895D01*
X24332455Y-24347895D02*
X24356264Y-24324085D01*
X24356264Y-24324085D02*
X24403883Y-24300276D01*
X24403883Y-24300276D02*
X24451502Y-24300276D01*
X24594360Y-24609800D02*
X24641979Y-24633609D01*
X24641979Y-24633609D02*
X24737217Y-24633609D01*
X24737217Y-24633609D02*
X24784836Y-24609800D01*
X24784836Y-24609800D02*
X24808645Y-24562180D01*
X24808645Y-24562180D02*
X24808645Y-24538371D01*
X24808645Y-24538371D02*
X24784836Y-24490752D01*
X24784836Y-24490752D02*
X24737217Y-24466942D01*
X24737217Y-24466942D02*
X24665788Y-24466942D01*
X24665788Y-24466942D02*
X24618169Y-24443133D01*
X24618169Y-24443133D02*
X24594360Y-24395514D01*
X24594360Y-24395514D02*
X24594360Y-24371704D01*
X24594360Y-24371704D02*
X24618169Y-24324085D01*
X24618169Y-24324085D02*
X24665788Y-24300276D01*
X24665788Y-24300276D02*
X24737217Y-24300276D01*
X24737217Y-24300276D02*
X24784836Y-24324085D01*
X63096895Y-75367544D02*
X63896895Y-75134211D01*
X63896895Y-75134211D02*
X63096895Y-74900877D01*
X63477847Y-74434211D02*
X63515942Y-74334211D01*
X63515942Y-74334211D02*
X63554038Y-74300877D01*
X63554038Y-74300877D02*
X63630228Y-74267544D01*
X63630228Y-74267544D02*
X63744514Y-74267544D01*
X63744514Y-74267544D02*
X63820704Y-74300877D01*
X63820704Y-74300877D02*
X63858800Y-74334211D01*
X63858800Y-74334211D02*
X63896895Y-74400877D01*
X63896895Y-74400877D02*
X63896895Y-74667544D01*
X63896895Y-74667544D02*
X63096895Y-74667544D01*
X63096895Y-74667544D02*
X63096895Y-74434211D01*
X63096895Y-74434211D02*
X63134990Y-74367544D01*
X63134990Y-74367544D02*
X63173085Y-74334211D01*
X63173085Y-74334211D02*
X63249276Y-74300877D01*
X63249276Y-74300877D02*
X63325466Y-74300877D01*
X63325466Y-74300877D02*
X63401657Y-74334211D01*
X63401657Y-74334211D02*
X63439752Y-74367544D01*
X63439752Y-74367544D02*
X63477847Y-74434211D01*
X63477847Y-74434211D02*
X63477847Y-74667544D01*
X63668323Y-74000877D02*
X63668323Y-73667544D01*
X63896895Y-74067544D02*
X63096895Y-73834211D01*
X63096895Y-73834211D02*
X63896895Y-73600877D01*
X63096895Y-73467544D02*
X63096895Y-73067544D01*
X63896895Y-73267544D02*
X63096895Y-73267544D01*
X65977847Y-74534211D02*
X65977847Y-74767544D01*
X66396895Y-74767544D02*
X65596895Y-74767544D01*
X65596895Y-74767544D02*
X65596895Y-74434211D01*
X66396895Y-74167544D02*
X65596895Y-74167544D01*
X65596895Y-73900878D02*
X66396895Y-73434211D01*
X65596895Y-73434211D02*
X66396895Y-73900878D01*
D11*
X63322054Y-23391695D02*
X63322054Y-22591695D01*
X63322054Y-22591695D02*
X63626816Y-22591695D01*
X63626816Y-22591695D02*
X63703006Y-22629790D01*
X63703006Y-22629790D02*
X63741101Y-22667885D01*
X63741101Y-22667885D02*
X63779197Y-22744076D01*
X63779197Y-22744076D02*
X63779197Y-22858361D01*
X63779197Y-22858361D02*
X63741101Y-22934552D01*
X63741101Y-22934552D02*
X63703006Y-22972647D01*
X63703006Y-22972647D02*
X63626816Y-23010742D01*
X63626816Y-23010742D02*
X63322054Y-23010742D01*
X64122054Y-23391695D02*
X64122054Y-22591695D01*
X64122054Y-22972647D02*
X64579197Y-22972647D01*
X64579197Y-23391695D02*
X64579197Y-22591695D01*
X65569673Y-23391695D02*
X65569673Y-22591695D01*
X65569673Y-22591695D02*
X65836339Y-23163123D01*
X65836339Y-23163123D02*
X66103006Y-22591695D01*
X66103006Y-22591695D02*
X66103006Y-23391695D01*
X66636340Y-22591695D02*
X66788721Y-22591695D01*
X66788721Y-22591695D02*
X66864911Y-22629790D01*
X66864911Y-22629790D02*
X66941102Y-22705980D01*
X66941102Y-22705980D02*
X66979197Y-22858361D01*
X66979197Y-22858361D02*
X66979197Y-23125028D01*
X66979197Y-23125028D02*
X66941102Y-23277409D01*
X66941102Y-23277409D02*
X66864911Y-23353600D01*
X66864911Y-23353600D02*
X66788721Y-23391695D01*
X66788721Y-23391695D02*
X66636340Y-23391695D01*
X66636340Y-23391695D02*
X66560149Y-23353600D01*
X66560149Y-23353600D02*
X66483959Y-23277409D01*
X66483959Y-23277409D02*
X66445863Y-23125028D01*
X66445863Y-23125028D02*
X66445863Y-22858361D01*
X66445863Y-22858361D02*
X66483959Y-22705980D01*
X66483959Y-22705980D02*
X66560149Y-22629790D01*
X66560149Y-22629790D02*
X66636340Y-22591695D01*
X67283958Y-23353600D02*
X67398244Y-23391695D01*
X67398244Y-23391695D02*
X67588720Y-23391695D01*
X67588720Y-23391695D02*
X67664911Y-23353600D01*
X67664911Y-23353600D02*
X67703006Y-23315504D01*
X67703006Y-23315504D02*
X67741101Y-23239314D01*
X67741101Y-23239314D02*
X67741101Y-23163123D01*
X67741101Y-23163123D02*
X67703006Y-23086933D01*
X67703006Y-23086933D02*
X67664911Y-23048838D01*
X67664911Y-23048838D02*
X67588720Y-23010742D01*
X67588720Y-23010742D02*
X67436339Y-22972647D01*
X67436339Y-22972647D02*
X67360149Y-22934552D01*
X67360149Y-22934552D02*
X67322054Y-22896457D01*
X67322054Y-22896457D02*
X67283958Y-22820266D01*
X67283958Y-22820266D02*
X67283958Y-22744076D01*
X67283958Y-22744076D02*
X67322054Y-22667885D01*
X67322054Y-22667885D02*
X67360149Y-22629790D01*
X67360149Y-22629790D02*
X67436339Y-22591695D01*
X67436339Y-22591695D02*
X67626816Y-22591695D01*
X67626816Y-22591695D02*
X67741101Y-22629790D01*
X68350625Y-22972647D02*
X68083959Y-22972647D01*
X68083959Y-23391695D02*
X68083959Y-22591695D01*
X68083959Y-22591695D02*
X68464911Y-22591695D01*
X68769673Y-22972647D02*
X69036339Y-22972647D01*
X69150625Y-23391695D02*
X68769673Y-23391695D01*
X68769673Y-23391695D02*
X68769673Y-22591695D01*
X68769673Y-22591695D02*
X69150625Y-22591695D01*
X69379197Y-22591695D02*
X69836340Y-22591695D01*
X69607768Y-23391695D02*
X69607768Y-22591695D01*
X69322054Y-30891695D02*
X69322054Y-30091695D01*
X69322054Y-30091695D02*
X69588720Y-30663123D01*
X69588720Y-30663123D02*
X69855387Y-30091695D01*
X69855387Y-30091695D02*
X69855387Y-30891695D01*
X70350625Y-30891695D02*
X70274435Y-30853600D01*
X70274435Y-30853600D02*
X70236340Y-30815504D01*
X70236340Y-30815504D02*
X70198244Y-30739314D01*
X70198244Y-30739314D02*
X70198244Y-30510742D01*
X70198244Y-30510742D02*
X70236340Y-30434552D01*
X70236340Y-30434552D02*
X70274435Y-30396457D01*
X70274435Y-30396457D02*
X70350625Y-30358361D01*
X70350625Y-30358361D02*
X70464911Y-30358361D01*
X70464911Y-30358361D02*
X70541102Y-30396457D01*
X70541102Y-30396457D02*
X70579197Y-30434552D01*
X70579197Y-30434552D02*
X70617292Y-30510742D01*
X70617292Y-30510742D02*
X70617292Y-30739314D01*
X70617292Y-30739314D02*
X70579197Y-30815504D01*
X70579197Y-30815504D02*
X70541102Y-30853600D01*
X70541102Y-30853600D02*
X70464911Y-30891695D01*
X70464911Y-30891695D02*
X70350625Y-30891695D01*
X70922054Y-30853600D02*
X70998245Y-30891695D01*
X70998245Y-30891695D02*
X71150626Y-30891695D01*
X71150626Y-30891695D02*
X71226816Y-30853600D01*
X71226816Y-30853600D02*
X71264912Y-30777409D01*
X71264912Y-30777409D02*
X71264912Y-30739314D01*
X71264912Y-30739314D02*
X71226816Y-30663123D01*
X71226816Y-30663123D02*
X71150626Y-30625028D01*
X71150626Y-30625028D02*
X71036340Y-30625028D01*
X71036340Y-30625028D02*
X70960150Y-30586933D01*
X70960150Y-30586933D02*
X70922054Y-30510742D01*
X70922054Y-30510742D02*
X70922054Y-30472647D01*
X70922054Y-30472647D02*
X70960150Y-30396457D01*
X70960150Y-30396457D02*
X71036340Y-30358361D01*
X71036340Y-30358361D02*
X71150626Y-30358361D01*
X71150626Y-30358361D02*
X71226816Y-30396457D01*
X71493483Y-30358361D02*
X71798245Y-30358361D01*
X71607769Y-30891695D02*
X71607769Y-30205980D01*
X71607769Y-30205980D02*
X71645864Y-30129790D01*
X71645864Y-30129790D02*
X71722054Y-30091695D01*
X71722054Y-30091695D02*
X71798245Y-30091695D01*
X72369674Y-30853600D02*
X72293483Y-30891695D01*
X72293483Y-30891695D02*
X72141102Y-30891695D01*
X72141102Y-30891695D02*
X72064912Y-30853600D01*
X72064912Y-30853600D02*
X72026816Y-30777409D01*
X72026816Y-30777409D02*
X72026816Y-30472647D01*
X72026816Y-30472647D02*
X72064912Y-30396457D01*
X72064912Y-30396457D02*
X72141102Y-30358361D01*
X72141102Y-30358361D02*
X72293483Y-30358361D01*
X72293483Y-30358361D02*
X72369674Y-30396457D01*
X72369674Y-30396457D02*
X72407769Y-30472647D01*
X72407769Y-30472647D02*
X72407769Y-30548838D01*
X72407769Y-30548838D02*
X72026816Y-30625028D01*
X72636340Y-30358361D02*
X72941102Y-30358361D01*
X72750626Y-30091695D02*
X72750626Y-30777409D01*
X72750626Y-30777409D02*
X72788721Y-30853600D01*
X72788721Y-30853600D02*
X72864911Y-30891695D01*
X72864911Y-30891695D02*
X72941102Y-30891695D01*
X73969674Y-30091695D02*
X74122055Y-30091695D01*
X74122055Y-30091695D02*
X74198245Y-30129790D01*
X74198245Y-30129790D02*
X74274436Y-30205980D01*
X74274436Y-30205980D02*
X74312531Y-30358361D01*
X74312531Y-30358361D02*
X74312531Y-30625028D01*
X74312531Y-30625028D02*
X74274436Y-30777409D01*
X74274436Y-30777409D02*
X74198245Y-30853600D01*
X74198245Y-30853600D02*
X74122055Y-30891695D01*
X74122055Y-30891695D02*
X73969674Y-30891695D01*
X73969674Y-30891695D02*
X73893483Y-30853600D01*
X73893483Y-30853600D02*
X73817293Y-30777409D01*
X73817293Y-30777409D02*
X73779197Y-30625028D01*
X73779197Y-30625028D02*
X73779197Y-30358361D01*
X73779197Y-30358361D02*
X73817293Y-30205980D01*
X73817293Y-30205980D02*
X73893483Y-30129790D01*
X73893483Y-30129790D02*
X73969674Y-30091695D01*
X74998245Y-30358361D02*
X74998245Y-30891695D01*
X74655388Y-30358361D02*
X74655388Y-30777409D01*
X74655388Y-30777409D02*
X74693483Y-30853600D01*
X74693483Y-30853600D02*
X74769673Y-30891695D01*
X74769673Y-30891695D02*
X74883959Y-30891695D01*
X74883959Y-30891695D02*
X74960150Y-30853600D01*
X74960150Y-30853600D02*
X74998245Y-30815504D01*
X75264912Y-30358361D02*
X75569674Y-30358361D01*
X75379198Y-30091695D02*
X75379198Y-30777409D01*
X75379198Y-30777409D02*
X75417293Y-30853600D01*
X75417293Y-30853600D02*
X75493483Y-30891695D01*
X75493483Y-30891695D02*
X75569674Y-30891695D01*
X69322054Y-44391695D02*
X69322054Y-43591695D01*
X69322054Y-43591695D02*
X69588720Y-44163123D01*
X69588720Y-44163123D02*
X69855387Y-43591695D01*
X69855387Y-43591695D02*
X69855387Y-44391695D01*
X70350625Y-44391695D02*
X70274435Y-44353600D01*
X70274435Y-44353600D02*
X70236340Y-44315504D01*
X70236340Y-44315504D02*
X70198244Y-44239314D01*
X70198244Y-44239314D02*
X70198244Y-44010742D01*
X70198244Y-44010742D02*
X70236340Y-43934552D01*
X70236340Y-43934552D02*
X70274435Y-43896457D01*
X70274435Y-43896457D02*
X70350625Y-43858361D01*
X70350625Y-43858361D02*
X70464911Y-43858361D01*
X70464911Y-43858361D02*
X70541102Y-43896457D01*
X70541102Y-43896457D02*
X70579197Y-43934552D01*
X70579197Y-43934552D02*
X70617292Y-44010742D01*
X70617292Y-44010742D02*
X70617292Y-44239314D01*
X70617292Y-44239314D02*
X70579197Y-44315504D01*
X70579197Y-44315504D02*
X70541102Y-44353600D01*
X70541102Y-44353600D02*
X70464911Y-44391695D01*
X70464911Y-44391695D02*
X70350625Y-44391695D01*
X70922054Y-44353600D02*
X70998245Y-44391695D01*
X70998245Y-44391695D02*
X71150626Y-44391695D01*
X71150626Y-44391695D02*
X71226816Y-44353600D01*
X71226816Y-44353600D02*
X71264912Y-44277409D01*
X71264912Y-44277409D02*
X71264912Y-44239314D01*
X71264912Y-44239314D02*
X71226816Y-44163123D01*
X71226816Y-44163123D02*
X71150626Y-44125028D01*
X71150626Y-44125028D02*
X71036340Y-44125028D01*
X71036340Y-44125028D02*
X70960150Y-44086933D01*
X70960150Y-44086933D02*
X70922054Y-44010742D01*
X70922054Y-44010742D02*
X70922054Y-43972647D01*
X70922054Y-43972647D02*
X70960150Y-43896457D01*
X70960150Y-43896457D02*
X71036340Y-43858361D01*
X71036340Y-43858361D02*
X71150626Y-43858361D01*
X71150626Y-43858361D02*
X71226816Y-43896457D01*
X71493483Y-43858361D02*
X71798245Y-43858361D01*
X71607769Y-44391695D02*
X71607769Y-43705980D01*
X71607769Y-43705980D02*
X71645864Y-43629790D01*
X71645864Y-43629790D02*
X71722054Y-43591695D01*
X71722054Y-43591695D02*
X71798245Y-43591695D01*
X72369674Y-44353600D02*
X72293483Y-44391695D01*
X72293483Y-44391695D02*
X72141102Y-44391695D01*
X72141102Y-44391695D02*
X72064912Y-44353600D01*
X72064912Y-44353600D02*
X72026816Y-44277409D01*
X72026816Y-44277409D02*
X72026816Y-43972647D01*
X72026816Y-43972647D02*
X72064912Y-43896457D01*
X72064912Y-43896457D02*
X72141102Y-43858361D01*
X72141102Y-43858361D02*
X72293483Y-43858361D01*
X72293483Y-43858361D02*
X72369674Y-43896457D01*
X72369674Y-43896457D02*
X72407769Y-43972647D01*
X72407769Y-43972647D02*
X72407769Y-44048838D01*
X72407769Y-44048838D02*
X72026816Y-44125028D01*
X72636340Y-43858361D02*
X72941102Y-43858361D01*
X72750626Y-43591695D02*
X72750626Y-44277409D01*
X72750626Y-44277409D02*
X72788721Y-44353600D01*
X72788721Y-44353600D02*
X72864911Y-44391695D01*
X72864911Y-44391695D02*
X72941102Y-44391695D01*
X73969674Y-43591695D02*
X74122055Y-43591695D01*
X74122055Y-43591695D02*
X74198245Y-43629790D01*
X74198245Y-43629790D02*
X74274436Y-43705980D01*
X74274436Y-43705980D02*
X74312531Y-43858361D01*
X74312531Y-43858361D02*
X74312531Y-44125028D01*
X74312531Y-44125028D02*
X74274436Y-44277409D01*
X74274436Y-44277409D02*
X74198245Y-44353600D01*
X74198245Y-44353600D02*
X74122055Y-44391695D01*
X74122055Y-44391695D02*
X73969674Y-44391695D01*
X73969674Y-44391695D02*
X73893483Y-44353600D01*
X73893483Y-44353600D02*
X73817293Y-44277409D01*
X73817293Y-44277409D02*
X73779197Y-44125028D01*
X73779197Y-44125028D02*
X73779197Y-43858361D01*
X73779197Y-43858361D02*
X73817293Y-43705980D01*
X73817293Y-43705980D02*
X73893483Y-43629790D01*
X73893483Y-43629790D02*
X73969674Y-43591695D01*
X74998245Y-43858361D02*
X74998245Y-44391695D01*
X74655388Y-43858361D02*
X74655388Y-44277409D01*
X74655388Y-44277409D02*
X74693483Y-44353600D01*
X74693483Y-44353600D02*
X74769673Y-44391695D01*
X74769673Y-44391695D02*
X74883959Y-44391695D01*
X74883959Y-44391695D02*
X74960150Y-44353600D01*
X74960150Y-44353600D02*
X74998245Y-44315504D01*
X75264912Y-43858361D02*
X75569674Y-43858361D01*
X75379198Y-43591695D02*
X75379198Y-44277409D01*
X75379198Y-44277409D02*
X75417293Y-44353600D01*
X75417293Y-44353600D02*
X75493483Y-44391695D01*
X75493483Y-44391695D02*
X75569674Y-44391695D01*
X70322054Y-50391695D02*
X70322054Y-49591695D01*
X70322054Y-49591695D02*
X70512530Y-49591695D01*
X70512530Y-49591695D02*
X70626816Y-49629790D01*
X70626816Y-49629790D02*
X70703006Y-49705980D01*
X70703006Y-49705980D02*
X70741101Y-49782171D01*
X70741101Y-49782171D02*
X70779197Y-49934552D01*
X70779197Y-49934552D02*
X70779197Y-50048838D01*
X70779197Y-50048838D02*
X70741101Y-50201219D01*
X70741101Y-50201219D02*
X70703006Y-50277409D01*
X70703006Y-50277409D02*
X70626816Y-50353600D01*
X70626816Y-50353600D02*
X70512530Y-50391695D01*
X70512530Y-50391695D02*
X70322054Y-50391695D01*
X71464911Y-50391695D02*
X71464911Y-49972647D01*
X71464911Y-49972647D02*
X71426816Y-49896457D01*
X71426816Y-49896457D02*
X71350625Y-49858361D01*
X71350625Y-49858361D02*
X71198244Y-49858361D01*
X71198244Y-49858361D02*
X71122054Y-49896457D01*
X71464911Y-50353600D02*
X71388720Y-50391695D01*
X71388720Y-50391695D02*
X71198244Y-50391695D01*
X71198244Y-50391695D02*
X71122054Y-50353600D01*
X71122054Y-50353600D02*
X71083958Y-50277409D01*
X71083958Y-50277409D02*
X71083958Y-50201219D01*
X71083958Y-50201219D02*
X71122054Y-50125028D01*
X71122054Y-50125028D02*
X71198244Y-50086933D01*
X71198244Y-50086933D02*
X71388720Y-50086933D01*
X71388720Y-50086933D02*
X71464911Y-50048838D01*
X71731578Y-49858361D02*
X72036340Y-49858361D01*
X71845864Y-49591695D02*
X71845864Y-50277409D01*
X71845864Y-50277409D02*
X71883959Y-50353600D01*
X71883959Y-50353600D02*
X71960149Y-50391695D01*
X71960149Y-50391695D02*
X72036340Y-50391695D01*
X72645864Y-50391695D02*
X72645864Y-49972647D01*
X72645864Y-49972647D02*
X72607769Y-49896457D01*
X72607769Y-49896457D02*
X72531578Y-49858361D01*
X72531578Y-49858361D02*
X72379197Y-49858361D01*
X72379197Y-49858361D02*
X72303007Y-49896457D01*
X72645864Y-50353600D02*
X72569673Y-50391695D01*
X72569673Y-50391695D02*
X72379197Y-50391695D01*
X72379197Y-50391695D02*
X72303007Y-50353600D01*
X72303007Y-50353600D02*
X72264911Y-50277409D01*
X72264911Y-50277409D02*
X72264911Y-50201219D01*
X72264911Y-50201219D02*
X72303007Y-50125028D01*
X72303007Y-50125028D02*
X72379197Y-50086933D01*
X72379197Y-50086933D02*
X72569673Y-50086933D01*
X72569673Y-50086933D02*
X72645864Y-50048838D01*
X73788722Y-49591695D02*
X73941103Y-49591695D01*
X73941103Y-49591695D02*
X74017293Y-49629790D01*
X74017293Y-49629790D02*
X74093484Y-49705980D01*
X74093484Y-49705980D02*
X74131579Y-49858361D01*
X74131579Y-49858361D02*
X74131579Y-50125028D01*
X74131579Y-50125028D02*
X74093484Y-50277409D01*
X74093484Y-50277409D02*
X74017293Y-50353600D01*
X74017293Y-50353600D02*
X73941103Y-50391695D01*
X73941103Y-50391695D02*
X73788722Y-50391695D01*
X73788722Y-50391695D02*
X73712531Y-50353600D01*
X73712531Y-50353600D02*
X73636341Y-50277409D01*
X73636341Y-50277409D02*
X73598245Y-50125028D01*
X73598245Y-50125028D02*
X73598245Y-49858361D01*
X73598245Y-49858361D02*
X73636341Y-49705980D01*
X73636341Y-49705980D02*
X73712531Y-49629790D01*
X73712531Y-49629790D02*
X73788722Y-49591695D01*
X74817293Y-49858361D02*
X74817293Y-50391695D01*
X74474436Y-49858361D02*
X74474436Y-50277409D01*
X74474436Y-50277409D02*
X74512531Y-50353600D01*
X74512531Y-50353600D02*
X74588721Y-50391695D01*
X74588721Y-50391695D02*
X74703007Y-50391695D01*
X74703007Y-50391695D02*
X74779198Y-50353600D01*
X74779198Y-50353600D02*
X74817293Y-50315504D01*
X75083960Y-49858361D02*
X75388722Y-49858361D01*
X75198246Y-49591695D02*
X75198246Y-50277409D01*
X75198246Y-50277409D02*
X75236341Y-50353600D01*
X75236341Y-50353600D02*
X75312531Y-50391695D01*
X75312531Y-50391695D02*
X75388722Y-50391695D01*
X70822054Y-36391695D02*
X70822054Y-35591695D01*
X70822054Y-35591695D02*
X71012530Y-35591695D01*
X71012530Y-35591695D02*
X71126816Y-35629790D01*
X71126816Y-35629790D02*
X71203006Y-35705980D01*
X71203006Y-35705980D02*
X71241101Y-35782171D01*
X71241101Y-35782171D02*
X71279197Y-35934552D01*
X71279197Y-35934552D02*
X71279197Y-36048838D01*
X71279197Y-36048838D02*
X71241101Y-36201219D01*
X71241101Y-36201219D02*
X71203006Y-36277409D01*
X71203006Y-36277409D02*
X71126816Y-36353600D01*
X71126816Y-36353600D02*
X71012530Y-36391695D01*
X71012530Y-36391695D02*
X70822054Y-36391695D01*
X71964911Y-36391695D02*
X71964911Y-35972647D01*
X71964911Y-35972647D02*
X71926816Y-35896457D01*
X71926816Y-35896457D02*
X71850625Y-35858361D01*
X71850625Y-35858361D02*
X71698244Y-35858361D01*
X71698244Y-35858361D02*
X71622054Y-35896457D01*
X71964911Y-36353600D02*
X71888720Y-36391695D01*
X71888720Y-36391695D02*
X71698244Y-36391695D01*
X71698244Y-36391695D02*
X71622054Y-36353600D01*
X71622054Y-36353600D02*
X71583958Y-36277409D01*
X71583958Y-36277409D02*
X71583958Y-36201219D01*
X71583958Y-36201219D02*
X71622054Y-36125028D01*
X71622054Y-36125028D02*
X71698244Y-36086933D01*
X71698244Y-36086933D02*
X71888720Y-36086933D01*
X71888720Y-36086933D02*
X71964911Y-36048838D01*
X72231578Y-35858361D02*
X72536340Y-35858361D01*
X72345864Y-35591695D02*
X72345864Y-36277409D01*
X72345864Y-36277409D02*
X72383959Y-36353600D01*
X72383959Y-36353600D02*
X72460149Y-36391695D01*
X72460149Y-36391695D02*
X72536340Y-36391695D01*
X73145864Y-36391695D02*
X73145864Y-35972647D01*
X73145864Y-35972647D02*
X73107769Y-35896457D01*
X73107769Y-35896457D02*
X73031578Y-35858361D01*
X73031578Y-35858361D02*
X72879197Y-35858361D01*
X72879197Y-35858361D02*
X72803007Y-35896457D01*
X73145864Y-36353600D02*
X73069673Y-36391695D01*
X73069673Y-36391695D02*
X72879197Y-36391695D01*
X72879197Y-36391695D02*
X72803007Y-36353600D01*
X72803007Y-36353600D02*
X72764911Y-36277409D01*
X72764911Y-36277409D02*
X72764911Y-36201219D01*
X72764911Y-36201219D02*
X72803007Y-36125028D01*
X72803007Y-36125028D02*
X72879197Y-36086933D01*
X72879197Y-36086933D02*
X73069673Y-36086933D01*
X73069673Y-36086933D02*
X73145864Y-36048838D01*
X74288722Y-35591695D02*
X74441103Y-35591695D01*
X74441103Y-35591695D02*
X74517293Y-35629790D01*
X74517293Y-35629790D02*
X74593484Y-35705980D01*
X74593484Y-35705980D02*
X74631579Y-35858361D01*
X74631579Y-35858361D02*
X74631579Y-36125028D01*
X74631579Y-36125028D02*
X74593484Y-36277409D01*
X74593484Y-36277409D02*
X74517293Y-36353600D01*
X74517293Y-36353600D02*
X74441103Y-36391695D01*
X74441103Y-36391695D02*
X74288722Y-36391695D01*
X74288722Y-36391695D02*
X74212531Y-36353600D01*
X74212531Y-36353600D02*
X74136341Y-36277409D01*
X74136341Y-36277409D02*
X74098245Y-36125028D01*
X74098245Y-36125028D02*
X74098245Y-35858361D01*
X74098245Y-35858361D02*
X74136341Y-35705980D01*
X74136341Y-35705980D02*
X74212531Y-35629790D01*
X74212531Y-35629790D02*
X74288722Y-35591695D01*
X75317293Y-35858361D02*
X75317293Y-36391695D01*
X74974436Y-35858361D02*
X74974436Y-36277409D01*
X74974436Y-36277409D02*
X75012531Y-36353600D01*
X75012531Y-36353600D02*
X75088721Y-36391695D01*
X75088721Y-36391695D02*
X75203007Y-36391695D01*
X75203007Y-36391695D02*
X75279198Y-36353600D01*
X75279198Y-36353600D02*
X75317293Y-36315504D01*
X75583960Y-35858361D02*
X75888722Y-35858361D01*
X75698246Y-35591695D02*
X75698246Y-36277409D01*
X75698246Y-36277409D02*
X75736341Y-36353600D01*
X75736341Y-36353600D02*
X75812531Y-36391695D01*
X75812531Y-36391695D02*
X75888722Y-36391695D01*
X73245863Y-33091695D02*
X73741101Y-33091695D01*
X73741101Y-33091695D02*
X73474435Y-33396457D01*
X73474435Y-33396457D02*
X73588720Y-33396457D01*
X73588720Y-33396457D02*
X73664911Y-33434552D01*
X73664911Y-33434552D02*
X73703006Y-33472647D01*
X73703006Y-33472647D02*
X73741101Y-33548838D01*
X73741101Y-33548838D02*
X73741101Y-33739314D01*
X73741101Y-33739314D02*
X73703006Y-33815504D01*
X73703006Y-33815504D02*
X73664911Y-33853600D01*
X73664911Y-33853600D02*
X73588720Y-33891695D01*
X73588720Y-33891695D02*
X73360149Y-33891695D01*
X73360149Y-33891695D02*
X73283958Y-33853600D01*
X73283958Y-33853600D02*
X73245863Y-33815504D01*
X74083959Y-33815504D02*
X74122054Y-33853600D01*
X74122054Y-33853600D02*
X74083959Y-33891695D01*
X74083959Y-33891695D02*
X74045863Y-33853600D01*
X74045863Y-33853600D02*
X74083959Y-33815504D01*
X74083959Y-33815504D02*
X74083959Y-33891695D01*
X74388720Y-33091695D02*
X74883958Y-33091695D01*
X74883958Y-33091695D02*
X74617292Y-33396457D01*
X74617292Y-33396457D02*
X74731577Y-33396457D01*
X74731577Y-33396457D02*
X74807768Y-33434552D01*
X74807768Y-33434552D02*
X74845863Y-33472647D01*
X74845863Y-33472647D02*
X74883958Y-33548838D01*
X74883958Y-33548838D02*
X74883958Y-33739314D01*
X74883958Y-33739314D02*
X74845863Y-33815504D01*
X74845863Y-33815504D02*
X74807768Y-33853600D01*
X74807768Y-33853600D02*
X74731577Y-33891695D01*
X74731577Y-33891695D02*
X74503006Y-33891695D01*
X74503006Y-33891695D02*
X74426815Y-33853600D01*
X74426815Y-33853600D02*
X74388720Y-33815504D01*
X75112530Y-33091695D02*
X75379197Y-33891695D01*
X75379197Y-33891695D02*
X75645863Y-33091695D01*
X73745863Y-46091695D02*
X74241101Y-46091695D01*
X74241101Y-46091695D02*
X73974435Y-46396457D01*
X73974435Y-46396457D02*
X74088720Y-46396457D01*
X74088720Y-46396457D02*
X74164911Y-46434552D01*
X74164911Y-46434552D02*
X74203006Y-46472647D01*
X74203006Y-46472647D02*
X74241101Y-46548838D01*
X74241101Y-46548838D02*
X74241101Y-46739314D01*
X74241101Y-46739314D02*
X74203006Y-46815504D01*
X74203006Y-46815504D02*
X74164911Y-46853600D01*
X74164911Y-46853600D02*
X74088720Y-46891695D01*
X74088720Y-46891695D02*
X73860149Y-46891695D01*
X73860149Y-46891695D02*
X73783958Y-46853600D01*
X73783958Y-46853600D02*
X73745863Y-46815504D01*
X74583959Y-46815504D02*
X74622054Y-46853600D01*
X74622054Y-46853600D02*
X74583959Y-46891695D01*
X74583959Y-46891695D02*
X74545863Y-46853600D01*
X74545863Y-46853600D02*
X74583959Y-46815504D01*
X74583959Y-46815504D02*
X74583959Y-46891695D01*
X74888720Y-46091695D02*
X75383958Y-46091695D01*
X75383958Y-46091695D02*
X75117292Y-46396457D01*
X75117292Y-46396457D02*
X75231577Y-46396457D01*
X75231577Y-46396457D02*
X75307768Y-46434552D01*
X75307768Y-46434552D02*
X75345863Y-46472647D01*
X75345863Y-46472647D02*
X75383958Y-46548838D01*
X75383958Y-46548838D02*
X75383958Y-46739314D01*
X75383958Y-46739314D02*
X75345863Y-46815504D01*
X75345863Y-46815504D02*
X75307768Y-46853600D01*
X75307768Y-46853600D02*
X75231577Y-46891695D01*
X75231577Y-46891695D02*
X75003006Y-46891695D01*
X75003006Y-46891695D02*
X74926815Y-46853600D01*
X74926815Y-46853600D02*
X74888720Y-46815504D01*
X75612530Y-46091695D02*
X75879197Y-46891695D01*
X75879197Y-46891695D02*
X76145863Y-46091695D01*
X80391695Y-35677945D02*
X79591695Y-35677945D01*
X79591695Y-35677945D02*
X79591695Y-35373183D01*
X79591695Y-35373183D02*
X79629790Y-35296993D01*
X79629790Y-35296993D02*
X79667885Y-35258898D01*
X79667885Y-35258898D02*
X79744076Y-35220802D01*
X79744076Y-35220802D02*
X79858361Y-35220802D01*
X79858361Y-35220802D02*
X79934552Y-35258898D01*
X79934552Y-35258898D02*
X79972647Y-35296993D01*
X79972647Y-35296993D02*
X80010742Y-35373183D01*
X80010742Y-35373183D02*
X80010742Y-35677945D01*
X80391695Y-34877945D02*
X79591695Y-34877945D01*
X79972647Y-34877945D02*
X79972647Y-34420802D01*
X80391695Y-34420802D02*
X79591695Y-34420802D01*
X80391695Y-33430326D02*
X79591695Y-33430326D01*
X79591695Y-33430326D02*
X79591695Y-33125564D01*
X79591695Y-33125564D02*
X79629790Y-33049374D01*
X79629790Y-33049374D02*
X79667885Y-33011279D01*
X79667885Y-33011279D02*
X79744076Y-32973183D01*
X79744076Y-32973183D02*
X79858361Y-32973183D01*
X79858361Y-32973183D02*
X79934552Y-33011279D01*
X79934552Y-33011279D02*
X79972647Y-33049374D01*
X79972647Y-33049374D02*
X80010742Y-33125564D01*
X80010742Y-33125564D02*
X80010742Y-33430326D01*
X80391695Y-32630326D02*
X79591695Y-32630326D01*
X80391695Y-32249374D02*
X79591695Y-32249374D01*
X79591695Y-32249374D02*
X80391695Y-31792231D01*
X80391695Y-31792231D02*
X79591695Y-31792231D01*
X80353600Y-31449375D02*
X80391695Y-31335089D01*
X80391695Y-31335089D02*
X80391695Y-31144613D01*
X80391695Y-31144613D02*
X80353600Y-31068422D01*
X80353600Y-31068422D02*
X80315504Y-31030327D01*
X80315504Y-31030327D02*
X80239314Y-30992232D01*
X80239314Y-30992232D02*
X80163123Y-30992232D01*
X80163123Y-30992232D02*
X80086933Y-31030327D01*
X80086933Y-31030327D02*
X80048838Y-31068422D01*
X80048838Y-31068422D02*
X80010742Y-31144613D01*
X80010742Y-31144613D02*
X79972647Y-31296994D01*
X79972647Y-31296994D02*
X79934552Y-31373184D01*
X79934552Y-31373184D02*
X79896457Y-31411279D01*
X79896457Y-31411279D02*
X79820266Y-31449375D01*
X79820266Y-31449375D02*
X79744076Y-31449375D01*
X79744076Y-31449375D02*
X79667885Y-31411279D01*
X79667885Y-31411279D02*
X79629790Y-31373184D01*
X79629790Y-31373184D02*
X79591695Y-31296994D01*
X79591695Y-31296994D02*
X79591695Y-31106517D01*
X79591695Y-31106517D02*
X79629790Y-30992232D01*
X63100209Y-27621101D02*
X63138304Y-27544911D01*
X63138304Y-27544911D02*
X63138304Y-27430625D01*
X63138304Y-27430625D02*
X63100209Y-27316339D01*
X63100209Y-27316339D02*
X63024019Y-27240149D01*
X63024019Y-27240149D02*
X62947828Y-27202054D01*
X62947828Y-27202054D02*
X62795447Y-27163958D01*
X62795447Y-27163958D02*
X62681161Y-27163958D01*
X62681161Y-27163958D02*
X62528780Y-27202054D01*
X62528780Y-27202054D02*
X62452590Y-27240149D01*
X62452590Y-27240149D02*
X62376400Y-27316339D01*
X62376400Y-27316339D02*
X62338304Y-27430625D01*
X62338304Y-27430625D02*
X62338304Y-27506816D01*
X62338304Y-27506816D02*
X62376400Y-27621101D01*
X62376400Y-27621101D02*
X62414495Y-27659197D01*
X62414495Y-27659197D02*
X62681161Y-27659197D01*
X62681161Y-27659197D02*
X62681161Y-27506816D01*
X62338304Y-28002054D02*
X63138304Y-28002054D01*
X63138304Y-28002054D02*
X62338304Y-28459197D01*
X62338304Y-28459197D02*
X63138304Y-28459197D01*
X62338304Y-28840149D02*
X63138304Y-28840149D01*
X63138304Y-28840149D02*
X63138304Y-29030625D01*
X63138304Y-29030625D02*
X63100209Y-29144911D01*
X63100209Y-29144911D02*
X63024019Y-29221101D01*
X63024019Y-29221101D02*
X62947828Y-29259196D01*
X62947828Y-29259196D02*
X62795447Y-29297292D01*
X62795447Y-29297292D02*
X62681161Y-29297292D01*
X62681161Y-29297292D02*
X62528780Y-29259196D01*
X62528780Y-29259196D02*
X62452590Y-29221101D01*
X62452590Y-29221101D02*
X62376400Y-29144911D01*
X62376400Y-29144911D02*
X62338304Y-29030625D01*
X62338304Y-29030625D02*
X62338304Y-28840149D01*
X65908304Y-27207768D02*
X65108304Y-27474435D01*
X65108304Y-27474435D02*
X65908304Y-27741101D01*
X65413066Y-28007768D02*
X65413066Y-28617292D01*
X65108304Y-28312530D02*
X65717828Y-28312530D01*
X67608304Y-27322054D02*
X68408304Y-27322054D01*
X68141638Y-27703006D02*
X67608304Y-27703006D01*
X68065447Y-27703006D02*
X68103542Y-27741101D01*
X68103542Y-27741101D02*
X68141638Y-27817291D01*
X68141638Y-27817291D02*
X68141638Y-27931577D01*
X68141638Y-27931577D02*
X68103542Y-28007768D01*
X68103542Y-28007768D02*
X68027352Y-28045863D01*
X68027352Y-28045863D02*
X67608304Y-28045863D01*
X70908304Y-27474435D02*
X70908304Y-27626816D01*
X70908304Y-27626816D02*
X70870209Y-27703006D01*
X70870209Y-27703006D02*
X70794019Y-27779197D01*
X70794019Y-27779197D02*
X70641638Y-27817292D01*
X70641638Y-27817292D02*
X70374971Y-27817292D01*
X70374971Y-27817292D02*
X70222590Y-27779197D01*
X70222590Y-27779197D02*
X70146400Y-27703006D01*
X70146400Y-27703006D02*
X70108304Y-27626816D01*
X70108304Y-27626816D02*
X70108304Y-27474435D01*
X70108304Y-27474435D02*
X70146400Y-27398244D01*
X70146400Y-27398244D02*
X70222590Y-27322054D01*
X70222590Y-27322054D02*
X70374971Y-27283958D01*
X70374971Y-27283958D02*
X70641638Y-27283958D01*
X70641638Y-27283958D02*
X70794019Y-27322054D01*
X70794019Y-27322054D02*
X70870209Y-27398244D01*
X70870209Y-27398244D02*
X70908304Y-27474435D01*
X70641638Y-28503006D02*
X70108304Y-28503006D01*
X70641638Y-28160149D02*
X70222590Y-28160149D01*
X70222590Y-28160149D02*
X70146400Y-28198244D01*
X70146400Y-28198244D02*
X70108304Y-28274434D01*
X70108304Y-28274434D02*
X70108304Y-28388720D01*
X70108304Y-28388720D02*
X70146400Y-28464911D01*
X70146400Y-28464911D02*
X70184495Y-28503006D01*
X70641638Y-28769673D02*
X70641638Y-29074435D01*
X70908304Y-28883959D02*
X70222590Y-28883959D01*
X70222590Y-28883959D02*
X70146400Y-28922054D01*
X70146400Y-28922054D02*
X70108304Y-28998244D01*
X70108304Y-28998244D02*
X70108304Y-29074435D01*
D10*
X18532455Y-37805752D02*
X18532455Y-38472419D01*
X18294360Y-37424800D02*
X18056265Y-38139085D01*
X18056265Y-38139085D02*
X18675312Y-38139085D01*
X19056265Y-38377180D02*
X19103884Y-38424800D01*
X19103884Y-38424800D02*
X19056265Y-38472419D01*
X19056265Y-38472419D02*
X19008646Y-38424800D01*
X19008646Y-38424800D02*
X19056265Y-38377180D01*
X19056265Y-38377180D02*
X19056265Y-38472419D01*
X19437217Y-37472419D02*
X20103883Y-37472419D01*
X20103883Y-37472419D02*
X19675312Y-38472419D01*
X20484836Y-38472419D02*
X20484836Y-37472419D01*
X20580074Y-38091466D02*
X20865788Y-38472419D01*
X20865788Y-37805752D02*
X20484836Y-38186704D01*
X22246741Y-37472419D02*
X22437217Y-37472419D01*
X22437217Y-37472419D02*
X22532455Y-37520038D01*
X22532455Y-37520038D02*
X22627693Y-37615276D01*
X22627693Y-37615276D02*
X22675312Y-37805752D01*
X22675312Y-37805752D02*
X22675312Y-38139085D01*
X22675312Y-38139085D02*
X22627693Y-38329561D01*
X22627693Y-38329561D02*
X22532455Y-38424800D01*
X22532455Y-38424800D02*
X22437217Y-38472419D01*
X22437217Y-38472419D02*
X22246741Y-38472419D01*
X22246741Y-38472419D02*
X22151503Y-38424800D01*
X22151503Y-38424800D02*
X22056265Y-38329561D01*
X22056265Y-38329561D02*
X22008646Y-38139085D01*
X22008646Y-38139085D02*
X22008646Y-37805752D01*
X22008646Y-37805752D02*
X22056265Y-37615276D01*
X22056265Y-37615276D02*
X22151503Y-37520038D01*
X22151503Y-37520038D02*
X22246741Y-37472419D01*
X23103884Y-38472419D02*
X23103884Y-37472419D01*
X23532455Y-38472419D02*
X23532455Y-37948609D01*
X23532455Y-37948609D02*
X23484836Y-37853371D01*
X23484836Y-37853371D02*
X23389598Y-37805752D01*
X23389598Y-37805752D02*
X23246741Y-37805752D01*
X23246741Y-37805752D02*
X23151503Y-37853371D01*
X23151503Y-37853371D02*
X23103884Y-37900990D01*
X24008646Y-38472419D02*
X24008646Y-37805752D01*
X24008646Y-37900990D02*
X24056265Y-37853371D01*
X24056265Y-37853371D02*
X24151503Y-37805752D01*
X24151503Y-37805752D02*
X24294360Y-37805752D01*
X24294360Y-37805752D02*
X24389598Y-37853371D01*
X24389598Y-37853371D02*
X24437217Y-37948609D01*
X24437217Y-37948609D02*
X24437217Y-38472419D01*
X24437217Y-37948609D02*
X24484836Y-37853371D01*
X24484836Y-37853371D02*
X24580074Y-37805752D01*
X24580074Y-37805752D02*
X24722931Y-37805752D01*
X24722931Y-37805752D02*
X24818170Y-37853371D01*
X24818170Y-37853371D02*
X24865789Y-37948609D01*
X24865789Y-37948609D02*
X24865789Y-38472419D01*
X19727693Y-19972419D02*
X19156265Y-19972419D01*
X19441979Y-19972419D02*
X19441979Y-18972419D01*
X19441979Y-18972419D02*
X19346741Y-19115276D01*
X19346741Y-19115276D02*
X19251503Y-19210514D01*
X19251503Y-19210514D02*
X19156265Y-19258133D01*
X20156265Y-19972419D02*
X20156265Y-18972419D01*
X20251503Y-19591466D02*
X20537217Y-19972419D01*
X20537217Y-19305752D02*
X20156265Y-19686704D01*
X21918170Y-18972419D02*
X22108646Y-18972419D01*
X22108646Y-18972419D02*
X22203884Y-19020038D01*
X22203884Y-19020038D02*
X22299122Y-19115276D01*
X22299122Y-19115276D02*
X22346741Y-19305752D01*
X22346741Y-19305752D02*
X22346741Y-19639085D01*
X22346741Y-19639085D02*
X22299122Y-19829561D01*
X22299122Y-19829561D02*
X22203884Y-19924800D01*
X22203884Y-19924800D02*
X22108646Y-19972419D01*
X22108646Y-19972419D02*
X21918170Y-19972419D01*
X21918170Y-19972419D02*
X21822932Y-19924800D01*
X21822932Y-19924800D02*
X21727694Y-19829561D01*
X21727694Y-19829561D02*
X21680075Y-19639085D01*
X21680075Y-19639085D02*
X21680075Y-19305752D01*
X21680075Y-19305752D02*
X21727694Y-19115276D01*
X21727694Y-19115276D02*
X21822932Y-19020038D01*
X21822932Y-19020038D02*
X21918170Y-18972419D01*
X22775313Y-19972419D02*
X22775313Y-18972419D01*
X23203884Y-19972419D02*
X23203884Y-19448609D01*
X23203884Y-19448609D02*
X23156265Y-19353371D01*
X23156265Y-19353371D02*
X23061027Y-19305752D01*
X23061027Y-19305752D02*
X22918170Y-19305752D01*
X22918170Y-19305752D02*
X22822932Y-19353371D01*
X22822932Y-19353371D02*
X22775313Y-19400990D01*
X23680075Y-19972419D02*
X23680075Y-19305752D01*
X23680075Y-19400990D02*
X23727694Y-19353371D01*
X23727694Y-19353371D02*
X23822932Y-19305752D01*
X23822932Y-19305752D02*
X23965789Y-19305752D01*
X23965789Y-19305752D02*
X24061027Y-19353371D01*
X24061027Y-19353371D02*
X24108646Y-19448609D01*
X24108646Y-19448609D02*
X24108646Y-19972419D01*
X24108646Y-19448609D02*
X24156265Y-19353371D01*
X24156265Y-19353371D02*
X24251503Y-19305752D01*
X24251503Y-19305752D02*
X24394360Y-19305752D01*
X24394360Y-19305752D02*
X24489599Y-19353371D01*
X24489599Y-19353371D02*
X24537218Y-19448609D01*
X24537218Y-19448609D02*
X24537218Y-19972419D01*
D11*
X30393482Y-75414838D02*
X30298244Y-75367219D01*
X30298244Y-75367219D02*
X30155387Y-75367219D01*
X30155387Y-75367219D02*
X30012530Y-75414838D01*
X30012530Y-75414838D02*
X29917292Y-75510076D01*
X29917292Y-75510076D02*
X29869673Y-75605314D01*
X29869673Y-75605314D02*
X29822054Y-75795790D01*
X29822054Y-75795790D02*
X29822054Y-75938647D01*
X29822054Y-75938647D02*
X29869673Y-76129123D01*
X29869673Y-76129123D02*
X29917292Y-76224361D01*
X29917292Y-76224361D02*
X30012530Y-76319600D01*
X30012530Y-76319600D02*
X30155387Y-76367219D01*
X30155387Y-76367219D02*
X30250625Y-76367219D01*
X30250625Y-76367219D02*
X30393482Y-76319600D01*
X30393482Y-76319600D02*
X30441101Y-76271980D01*
X30441101Y-76271980D02*
X30441101Y-75938647D01*
X30441101Y-75938647D02*
X30250625Y-75938647D01*
X30869673Y-76367219D02*
X30869673Y-75367219D01*
X30869673Y-75367219D02*
X31441101Y-76367219D01*
X31441101Y-76367219D02*
X31441101Y-75367219D01*
X31917292Y-76367219D02*
X31917292Y-75367219D01*
X31917292Y-75367219D02*
X32155387Y-75367219D01*
X32155387Y-75367219D02*
X32298244Y-75414838D01*
X32298244Y-75414838D02*
X32393482Y-75510076D01*
X32393482Y-75510076D02*
X32441101Y-75605314D01*
X32441101Y-75605314D02*
X32488720Y-75795790D01*
X32488720Y-75795790D02*
X32488720Y-75938647D01*
X32488720Y-75938647D02*
X32441101Y-76129123D01*
X32441101Y-76129123D02*
X32393482Y-76224361D01*
X32393482Y-76224361D02*
X32298244Y-76319600D01*
X32298244Y-76319600D02*
X32155387Y-76367219D01*
X32155387Y-76367219D02*
X31917292Y-76367219D01*
X33250625Y-75843409D02*
X33393482Y-75891028D01*
X33393482Y-75891028D02*
X33441101Y-75938647D01*
X33441101Y-75938647D02*
X33488720Y-76033885D01*
X33488720Y-76033885D02*
X33488720Y-76176742D01*
X33488720Y-76176742D02*
X33441101Y-76271980D01*
X33441101Y-76271980D02*
X33393482Y-76319600D01*
X33393482Y-76319600D02*
X33298244Y-76367219D01*
X33298244Y-76367219D02*
X32917292Y-76367219D01*
X32917292Y-76367219D02*
X32917292Y-75367219D01*
X32917292Y-75367219D02*
X33250625Y-75367219D01*
X33250625Y-75367219D02*
X33345863Y-75414838D01*
X33345863Y-75414838D02*
X33393482Y-75462457D01*
X33393482Y-75462457D02*
X33441101Y-75557695D01*
X33441101Y-75557695D02*
X33441101Y-75652933D01*
X33441101Y-75652933D02*
X33393482Y-75748171D01*
X33393482Y-75748171D02*
X33345863Y-75795790D01*
X33345863Y-75795790D02*
X33250625Y-75843409D01*
X33250625Y-75843409D02*
X32917292Y-75843409D01*
X33869673Y-76081504D02*
X34345863Y-76081504D01*
X33774435Y-76367219D02*
X34107768Y-75367219D01*
X34107768Y-75367219D02*
X34441101Y-76367219D01*
X34631578Y-75367219D02*
X35203006Y-75367219D01*
X34917292Y-76367219D02*
X34917292Y-75367219D01*
X35393483Y-75367219D02*
X35964911Y-75367219D01*
X35679197Y-76367219D02*
X35679197Y-75367219D01*
D12*
X20364619Y-77240288D02*
X21364619Y-76906955D01*
X21364619Y-76906955D02*
X20364619Y-76573622D01*
X20840809Y-75906955D02*
X20888428Y-75764098D01*
X20888428Y-75764098D02*
X20936047Y-75716479D01*
X20936047Y-75716479D02*
X21031285Y-75668860D01*
X21031285Y-75668860D02*
X21174142Y-75668860D01*
X21174142Y-75668860D02*
X21269380Y-75716479D01*
X21269380Y-75716479D02*
X21317000Y-75764098D01*
X21317000Y-75764098D02*
X21364619Y-75859336D01*
X21364619Y-75859336D02*
X21364619Y-76240288D01*
X21364619Y-76240288D02*
X20364619Y-76240288D01*
X20364619Y-76240288D02*
X20364619Y-75906955D01*
X20364619Y-75906955D02*
X20412238Y-75811717D01*
X20412238Y-75811717D02*
X20459857Y-75764098D01*
X20459857Y-75764098D02*
X20555095Y-75716479D01*
X20555095Y-75716479D02*
X20650333Y-75716479D01*
X20650333Y-75716479D02*
X20745571Y-75764098D01*
X20745571Y-75764098D02*
X20793190Y-75811717D01*
X20793190Y-75811717D02*
X20840809Y-75906955D01*
X20840809Y-75906955D02*
X20840809Y-76240288D01*
X21364619Y-74811717D02*
X20840809Y-74811717D01*
X20840809Y-74811717D02*
X20745571Y-74859336D01*
X20745571Y-74859336D02*
X20697952Y-74954574D01*
X20697952Y-74954574D02*
X20697952Y-75145050D01*
X20697952Y-75145050D02*
X20745571Y-75240288D01*
X21317000Y-74811717D02*
X21364619Y-74906955D01*
X21364619Y-74906955D02*
X21364619Y-75145050D01*
X21364619Y-75145050D02*
X21317000Y-75240288D01*
X21317000Y-75240288D02*
X21221761Y-75287907D01*
X21221761Y-75287907D02*
X21126523Y-75287907D01*
X21126523Y-75287907D02*
X21031285Y-75240288D01*
X21031285Y-75240288D02*
X20983666Y-75145050D01*
X20983666Y-75145050D02*
X20983666Y-74906955D01*
X20983666Y-74906955D02*
X20936047Y-74811717D01*
X20697952Y-74478383D02*
X20697952Y-74097431D01*
X20364619Y-74335526D02*
X21221761Y-74335526D01*
X21221761Y-74335526D02*
X21317000Y-74287907D01*
X21317000Y-74287907D02*
X21364619Y-74192669D01*
X21364619Y-74192669D02*
X21364619Y-74097431D01*
X20697952Y-73906954D02*
X20697952Y-73526002D01*
X20364619Y-73764097D02*
X21221761Y-73764097D01*
X21221761Y-73764097D02*
X21317000Y-73716478D01*
X21317000Y-73716478D02*
X21364619Y-73621240D01*
X21364619Y-73621240D02*
X21364619Y-73526002D01*
X21364619Y-72430763D02*
X20364619Y-72430763D01*
X21364619Y-71954573D02*
X20364619Y-71954573D01*
X20364619Y-71954573D02*
X21364619Y-71383145D01*
X21364619Y-71383145D02*
X20364619Y-71383145D01*
D10*
X22728572Y-34264895D02*
X22728572Y-33464895D01*
X22728572Y-33464895D02*
X22847620Y-33464895D01*
X22847620Y-33464895D02*
X22919048Y-33502990D01*
X22919048Y-33502990D02*
X22966667Y-33579180D01*
X22966667Y-33579180D02*
X22990477Y-33655371D01*
X22990477Y-33655371D02*
X23014286Y-33807752D01*
X23014286Y-33807752D02*
X23014286Y-33922038D01*
X23014286Y-33922038D02*
X22990477Y-34074419D01*
X22990477Y-34074419D02*
X22966667Y-34150609D01*
X22966667Y-34150609D02*
X22919048Y-34226800D01*
X22919048Y-34226800D02*
X22847620Y-34264895D01*
X22847620Y-34264895D02*
X22728572Y-34264895D01*
X23204763Y-34226800D02*
X23276191Y-34264895D01*
X23276191Y-34264895D02*
X23395239Y-34264895D01*
X23395239Y-34264895D02*
X23442858Y-34226800D01*
X23442858Y-34226800D02*
X23466667Y-34188704D01*
X23466667Y-34188704D02*
X23490477Y-34112514D01*
X23490477Y-34112514D02*
X23490477Y-34036323D01*
X23490477Y-34036323D02*
X23466667Y-33960133D01*
X23466667Y-33960133D02*
X23442858Y-33922038D01*
X23442858Y-33922038D02*
X23395239Y-33883942D01*
X23395239Y-33883942D02*
X23300001Y-33845847D01*
X23300001Y-33845847D02*
X23252382Y-33807752D01*
X23252382Y-33807752D02*
X23228572Y-33769657D01*
X23228572Y-33769657D02*
X23204763Y-33693466D01*
X23204763Y-33693466D02*
X23204763Y-33617276D01*
X23204763Y-33617276D02*
X23228572Y-33541085D01*
X23228572Y-33541085D02*
X23252382Y-33502990D01*
X23252382Y-33502990D02*
X23300001Y-33464895D01*
X23300001Y-33464895D02*
X23419048Y-33464895D01*
X23419048Y-33464895D02*
X23490477Y-33502990D01*
X23966667Y-34264895D02*
X23680953Y-34264895D01*
X23823810Y-34264895D02*
X23823810Y-33464895D01*
X23823810Y-33464895D02*
X23776191Y-33579180D01*
X23776191Y-33579180D02*
X23728572Y-33655371D01*
X23728572Y-33655371D02*
X23680953Y-33693466D01*
X24252381Y-33807752D02*
X24204762Y-33769657D01*
X24204762Y-33769657D02*
X24180952Y-33731561D01*
X24180952Y-33731561D02*
X24157143Y-33655371D01*
X24157143Y-33655371D02*
X24157143Y-33617276D01*
X24157143Y-33617276D02*
X24180952Y-33541085D01*
X24180952Y-33541085D02*
X24204762Y-33502990D01*
X24204762Y-33502990D02*
X24252381Y-33464895D01*
X24252381Y-33464895D02*
X24347619Y-33464895D01*
X24347619Y-33464895D02*
X24395238Y-33502990D01*
X24395238Y-33502990D02*
X24419047Y-33541085D01*
X24419047Y-33541085D02*
X24442857Y-33617276D01*
X24442857Y-33617276D02*
X24442857Y-33655371D01*
X24442857Y-33655371D02*
X24419047Y-33731561D01*
X24419047Y-33731561D02*
X24395238Y-33769657D01*
X24395238Y-33769657D02*
X24347619Y-33807752D01*
X24347619Y-33807752D02*
X24252381Y-33807752D01*
X24252381Y-33807752D02*
X24204762Y-33845847D01*
X24204762Y-33845847D02*
X24180952Y-33883942D01*
X24180952Y-33883942D02*
X24157143Y-33960133D01*
X24157143Y-33960133D02*
X24157143Y-34112514D01*
X24157143Y-34112514D02*
X24180952Y-34188704D01*
X24180952Y-34188704D02*
X24204762Y-34226800D01*
X24204762Y-34226800D02*
X24252381Y-34264895D01*
X24252381Y-34264895D02*
X24347619Y-34264895D01*
X24347619Y-34264895D02*
X24395238Y-34226800D01*
X24395238Y-34226800D02*
X24419047Y-34188704D01*
X24419047Y-34188704D02*
X24442857Y-34112514D01*
X24442857Y-34112514D02*
X24442857Y-33960133D01*
X24442857Y-33960133D02*
X24419047Y-33883942D01*
X24419047Y-33883942D02*
X24395238Y-33845847D01*
X24395238Y-33845847D02*
X24347619Y-33807752D01*
X24823809Y-33845847D02*
X24895237Y-33883942D01*
X24895237Y-33883942D02*
X24919047Y-33922038D01*
X24919047Y-33922038D02*
X24942856Y-33998228D01*
X24942856Y-33998228D02*
X24942856Y-34112514D01*
X24942856Y-34112514D02*
X24919047Y-34188704D01*
X24919047Y-34188704D02*
X24895237Y-34226800D01*
X24895237Y-34226800D02*
X24847618Y-34264895D01*
X24847618Y-34264895D02*
X24657142Y-34264895D01*
X24657142Y-34264895D02*
X24657142Y-33464895D01*
X24657142Y-33464895D02*
X24823809Y-33464895D01*
X24823809Y-33464895D02*
X24871428Y-33502990D01*
X24871428Y-33502990D02*
X24895237Y-33541085D01*
X24895237Y-33541085D02*
X24919047Y-33617276D01*
X24919047Y-33617276D02*
X24919047Y-33693466D01*
X24919047Y-33693466D02*
X24895237Y-33769657D01*
X24895237Y-33769657D02*
X24871428Y-33807752D01*
X24871428Y-33807752D02*
X24823809Y-33845847D01*
X24823809Y-33845847D02*
X24657142Y-33845847D01*
X25133333Y-33541085D02*
X25157142Y-33502990D01*
X25157142Y-33502990D02*
X25204761Y-33464895D01*
X25204761Y-33464895D02*
X25323809Y-33464895D01*
X25323809Y-33464895D02*
X25371428Y-33502990D01*
X25371428Y-33502990D02*
X25395237Y-33541085D01*
X25395237Y-33541085D02*
X25419047Y-33617276D01*
X25419047Y-33617276D02*
X25419047Y-33693466D01*
X25419047Y-33693466D02*
X25395237Y-33807752D01*
X25395237Y-33807752D02*
X25109523Y-34264895D01*
X25109523Y-34264895D02*
X25419047Y-34264895D01*
X25728570Y-33464895D02*
X25776189Y-33464895D01*
X25776189Y-33464895D02*
X25823808Y-33502990D01*
X25823808Y-33502990D02*
X25847618Y-33541085D01*
X25847618Y-33541085D02*
X25871427Y-33617276D01*
X25871427Y-33617276D02*
X25895237Y-33769657D01*
X25895237Y-33769657D02*
X25895237Y-33960133D01*
X25895237Y-33960133D02*
X25871427Y-34112514D01*
X25871427Y-34112514D02*
X25847618Y-34188704D01*
X25847618Y-34188704D02*
X25823808Y-34226800D01*
X25823808Y-34226800D02*
X25776189Y-34264895D01*
X25776189Y-34264895D02*
X25728570Y-34264895D01*
X25728570Y-34264895D02*
X25680951Y-34226800D01*
X25680951Y-34226800D02*
X25657142Y-34188704D01*
X25657142Y-34188704D02*
X25633332Y-34112514D01*
X25633332Y-34112514D02*
X25609523Y-33960133D01*
X25609523Y-33960133D02*
X25609523Y-33769657D01*
X25609523Y-33769657D02*
X25633332Y-33617276D01*
X25633332Y-33617276D02*
X25657142Y-33541085D01*
X25657142Y-33541085D02*
X25680951Y-33502990D01*
X25680951Y-33502990D02*
X25728570Y-33464895D01*
X19190866Y-32382455D02*
X19890866Y-32382455D01*
X19890866Y-32382455D02*
X19890866Y-32549122D01*
X19890866Y-32549122D02*
X19857533Y-32649122D01*
X19857533Y-32649122D02*
X19790866Y-32715789D01*
X19790866Y-32715789D02*
X19724200Y-32749122D01*
X19724200Y-32749122D02*
X19590866Y-32782455D01*
X19590866Y-32782455D02*
X19490866Y-32782455D01*
X19490866Y-32782455D02*
X19357533Y-32749122D01*
X19357533Y-32749122D02*
X19290866Y-32715789D01*
X19290866Y-32715789D02*
X19224200Y-32649122D01*
X19224200Y-32649122D02*
X19190866Y-32549122D01*
X19190866Y-32549122D02*
X19190866Y-32382455D01*
X19190866Y-33382455D02*
X19557533Y-33382455D01*
X19557533Y-33382455D02*
X19624200Y-33349122D01*
X19624200Y-33349122D02*
X19657533Y-33282455D01*
X19657533Y-33282455D02*
X19657533Y-33149122D01*
X19657533Y-33149122D02*
X19624200Y-33082455D01*
X19224200Y-33382455D02*
X19190866Y-33315789D01*
X19190866Y-33315789D02*
X19190866Y-33149122D01*
X19190866Y-33149122D02*
X19224200Y-33082455D01*
X19224200Y-33082455D02*
X19290866Y-33049122D01*
X19290866Y-33049122D02*
X19357533Y-33049122D01*
X19357533Y-33049122D02*
X19424200Y-33082455D01*
X19424200Y-33082455D02*
X19457533Y-33149122D01*
X19457533Y-33149122D02*
X19457533Y-33315789D01*
X19457533Y-33315789D02*
X19490866Y-33382455D01*
X19657533Y-33615788D02*
X19657533Y-33882455D01*
X19890866Y-33715788D02*
X19290866Y-33715788D01*
X19290866Y-33715788D02*
X19224200Y-33749122D01*
X19224200Y-33749122D02*
X19190866Y-33815788D01*
X19190866Y-33815788D02*
X19190866Y-33882455D01*
X19190866Y-34415788D02*
X19557533Y-34415788D01*
X19557533Y-34415788D02*
X19624200Y-34382455D01*
X19624200Y-34382455D02*
X19657533Y-34315788D01*
X19657533Y-34315788D02*
X19657533Y-34182455D01*
X19657533Y-34182455D02*
X19624200Y-34115788D01*
X19224200Y-34415788D02*
X19190866Y-34349122D01*
X19190866Y-34349122D02*
X19190866Y-34182455D01*
X19190866Y-34182455D02*
X19224200Y-34115788D01*
X19224200Y-34115788D02*
X19290866Y-34082455D01*
X19290866Y-34082455D02*
X19357533Y-34082455D01*
X19357533Y-34082455D02*
X19424200Y-34115788D01*
X19424200Y-34115788D02*
X19457533Y-34182455D01*
X19457533Y-34182455D02*
X19457533Y-34349122D01*
X19457533Y-34349122D02*
X19490866Y-34415788D01*
X25857533Y-30799122D02*
X25890866Y-30732455D01*
X25890866Y-30732455D02*
X25890866Y-30632455D01*
X25890866Y-30632455D02*
X25857533Y-30532455D01*
X25857533Y-30532455D02*
X25790866Y-30465789D01*
X25790866Y-30465789D02*
X25724200Y-30432455D01*
X25724200Y-30432455D02*
X25590866Y-30399122D01*
X25590866Y-30399122D02*
X25490866Y-30399122D01*
X25490866Y-30399122D02*
X25357533Y-30432455D01*
X25357533Y-30432455D02*
X25290866Y-30465789D01*
X25290866Y-30465789D02*
X25224200Y-30532455D01*
X25224200Y-30532455D02*
X25190866Y-30632455D01*
X25190866Y-30632455D02*
X25190866Y-30699122D01*
X25190866Y-30699122D02*
X25224200Y-30799122D01*
X25224200Y-30799122D02*
X25257533Y-30832455D01*
X25257533Y-30832455D02*
X25490866Y-30832455D01*
X25490866Y-30832455D02*
X25490866Y-30699122D01*
X25190866Y-31132455D02*
X25890866Y-31132455D01*
X25890866Y-31132455D02*
X25190866Y-31532455D01*
X25190866Y-31532455D02*
X25890866Y-31532455D01*
X25190866Y-31865788D02*
X25890866Y-31865788D01*
X25890866Y-31865788D02*
X25890866Y-32032455D01*
X25890866Y-32032455D02*
X25857533Y-32132455D01*
X25857533Y-32132455D02*
X25790866Y-32199122D01*
X25790866Y-32199122D02*
X25724200Y-32232455D01*
X25724200Y-32232455D02*
X25590866Y-32265788D01*
X25590866Y-32265788D02*
X25490866Y-32265788D01*
X25490866Y-32265788D02*
X25357533Y-32232455D01*
X25357533Y-32232455D02*
X25290866Y-32199122D01*
X25290866Y-32199122D02*
X25224200Y-32132455D01*
X25224200Y-32132455D02*
X25190866Y-32032455D01*
X25190866Y-32032455D02*
X25190866Y-31865788D01*
X22390866Y-32332455D02*
X21690866Y-32565789D01*
X21690866Y-32565789D02*
X22390866Y-32799122D01*
X21690866Y-33032455D02*
X22390866Y-33032455D01*
X21690866Y-33365788D02*
X22390866Y-33365788D01*
X22390866Y-33365788D02*
X21690866Y-33765788D01*
X21690866Y-33765788D02*
X22390866Y-33765788D01*
D13*
X23203333Y-36874819D02*
X22870000Y-36398628D01*
X22631905Y-36874819D02*
X22631905Y-35874819D01*
X22631905Y-35874819D02*
X23012857Y-35874819D01*
X23012857Y-35874819D02*
X23108095Y-35922438D01*
X23108095Y-35922438D02*
X23155714Y-35970057D01*
X23155714Y-35970057D02*
X23203333Y-36065295D01*
X23203333Y-36065295D02*
X23203333Y-36208152D01*
X23203333Y-36208152D02*
X23155714Y-36303390D01*
X23155714Y-36303390D02*
X23108095Y-36351009D01*
X23108095Y-36351009D02*
X23012857Y-36398628D01*
X23012857Y-36398628D02*
X22631905Y-36398628D01*
X23584286Y-35970057D02*
X23631905Y-35922438D01*
X23631905Y-35922438D02*
X23727143Y-35874819D01*
X23727143Y-35874819D02*
X23965238Y-35874819D01*
X23965238Y-35874819D02*
X24060476Y-35922438D01*
X24060476Y-35922438D02*
X24108095Y-35970057D01*
X24108095Y-35970057D02*
X24155714Y-36065295D01*
X24155714Y-36065295D02*
X24155714Y-36160533D01*
X24155714Y-36160533D02*
X24108095Y-36303390D01*
X24108095Y-36303390D02*
X23536667Y-36874819D01*
X23536667Y-36874819D02*
X24155714Y-36874819D01*
X75214286Y-41034819D02*
X75785714Y-41034819D01*
X75500000Y-42034819D02*
X75500000Y-41034819D01*
X76119048Y-41034819D02*
X76119048Y-41844342D01*
X76119048Y-41844342D02*
X76166667Y-41939580D01*
X76166667Y-41939580D02*
X76214286Y-41987200D01*
X76214286Y-41987200D02*
X76309524Y-42034819D01*
X76309524Y-42034819D02*
X76500000Y-42034819D01*
X76500000Y-42034819D02*
X76595238Y-41987200D01*
X76595238Y-41987200D02*
X76642857Y-41939580D01*
X76642857Y-41939580D02*
X76690476Y-41844342D01*
X76690476Y-41844342D02*
X76690476Y-41034819D01*
X77738095Y-42034819D02*
X77404762Y-41558628D01*
X77166667Y-42034819D02*
X77166667Y-41034819D01*
X77166667Y-41034819D02*
X77547619Y-41034819D01*
X77547619Y-41034819D02*
X77642857Y-41082438D01*
X77642857Y-41082438D02*
X77690476Y-41130057D01*
X77690476Y-41130057D02*
X77738095Y-41225295D01*
X77738095Y-41225295D02*
X77738095Y-41368152D01*
X77738095Y-41368152D02*
X77690476Y-41463390D01*
X77690476Y-41463390D02*
X77642857Y-41511009D01*
X77642857Y-41511009D02*
X77547619Y-41558628D01*
X77547619Y-41558628D02*
X77166667Y-41558628D01*
X78500000Y-41511009D02*
X78642857Y-41558628D01*
X78642857Y-41558628D02*
X78690476Y-41606247D01*
X78690476Y-41606247D02*
X78738095Y-41701485D01*
X78738095Y-41701485D02*
X78738095Y-41844342D01*
X78738095Y-41844342D02*
X78690476Y-41939580D01*
X78690476Y-41939580D02*
X78642857Y-41987200D01*
X78642857Y-41987200D02*
X78547619Y-42034819D01*
X78547619Y-42034819D02*
X78166667Y-42034819D01*
X78166667Y-42034819D02*
X78166667Y-41034819D01*
X78166667Y-41034819D02*
X78500000Y-41034819D01*
X78500000Y-41034819D02*
X78595238Y-41082438D01*
X78595238Y-41082438D02*
X78642857Y-41130057D01*
X78642857Y-41130057D02*
X78690476Y-41225295D01*
X78690476Y-41225295D02*
X78690476Y-41320533D01*
X78690476Y-41320533D02*
X78642857Y-41415771D01*
X78642857Y-41415771D02*
X78595238Y-41463390D01*
X78595238Y-41463390D02*
X78500000Y-41511009D01*
X78500000Y-41511009D02*
X78166667Y-41511009D01*
X79690476Y-42034819D02*
X79119048Y-42034819D01*
X79404762Y-42034819D02*
X79404762Y-41034819D01*
X79404762Y-41034819D02*
X79309524Y-41177676D01*
X79309524Y-41177676D02*
X79214286Y-41272914D01*
X79214286Y-41272914D02*
X79119048Y-41320533D01*
X20864819Y-27556666D02*
X20388628Y-27889999D01*
X20864819Y-28128094D02*
X19864819Y-28128094D01*
X19864819Y-28128094D02*
X19864819Y-27747142D01*
X19864819Y-27747142D02*
X19912438Y-27651904D01*
X19912438Y-27651904D02*
X19960057Y-27604285D01*
X19960057Y-27604285D02*
X20055295Y-27556666D01*
X20055295Y-27556666D02*
X20198152Y-27556666D01*
X20198152Y-27556666D02*
X20293390Y-27604285D01*
X20293390Y-27604285D02*
X20341009Y-27651904D01*
X20341009Y-27651904D02*
X20388628Y-27747142D01*
X20388628Y-27747142D02*
X20388628Y-28128094D01*
X20198152Y-26699523D02*
X20864819Y-26699523D01*
X19817200Y-26937618D02*
X20531485Y-27175713D01*
X20531485Y-27175713D02*
X20531485Y-26556666D01*
D10*
X27130952Y-71057419D02*
X27130952Y-70057419D01*
X27130952Y-70057419D02*
X27511904Y-70057419D01*
X27511904Y-70057419D02*
X27607142Y-70105038D01*
X27607142Y-70105038D02*
X27654761Y-70152657D01*
X27654761Y-70152657D02*
X27702380Y-70247895D01*
X27702380Y-70247895D02*
X27702380Y-70390752D01*
X27702380Y-70390752D02*
X27654761Y-70485990D01*
X27654761Y-70485990D02*
X27607142Y-70533609D01*
X27607142Y-70533609D02*
X27511904Y-70581228D01*
X27511904Y-70581228D02*
X27130952Y-70581228D01*
X28273809Y-71057419D02*
X28178571Y-71009800D01*
X28178571Y-71009800D02*
X28130952Y-70962180D01*
X28130952Y-70962180D02*
X28083333Y-70866942D01*
X28083333Y-70866942D02*
X28083333Y-70581228D01*
X28083333Y-70581228D02*
X28130952Y-70485990D01*
X28130952Y-70485990D02*
X28178571Y-70438371D01*
X28178571Y-70438371D02*
X28273809Y-70390752D01*
X28273809Y-70390752D02*
X28416666Y-70390752D01*
X28416666Y-70390752D02*
X28511904Y-70438371D01*
X28511904Y-70438371D02*
X28559523Y-70485990D01*
X28559523Y-70485990D02*
X28607142Y-70581228D01*
X28607142Y-70581228D02*
X28607142Y-70866942D01*
X28607142Y-70866942D02*
X28559523Y-70962180D01*
X28559523Y-70962180D02*
X28511904Y-71009800D01*
X28511904Y-71009800D02*
X28416666Y-71057419D01*
X28416666Y-71057419D02*
X28273809Y-71057419D01*
X29178571Y-71057419D02*
X29083333Y-71009800D01*
X29083333Y-71009800D02*
X29035714Y-70914561D01*
X29035714Y-70914561D02*
X29035714Y-70057419D01*
X29702381Y-71057419D02*
X29607143Y-71009800D01*
X29607143Y-71009800D02*
X29559524Y-70962180D01*
X29559524Y-70962180D02*
X29511905Y-70866942D01*
X29511905Y-70866942D02*
X29511905Y-70581228D01*
X29511905Y-70581228D02*
X29559524Y-70485990D01*
X29559524Y-70485990D02*
X29607143Y-70438371D01*
X29607143Y-70438371D02*
X29702381Y-70390752D01*
X29702381Y-70390752D02*
X29845238Y-70390752D01*
X29845238Y-70390752D02*
X29940476Y-70438371D01*
X29940476Y-70438371D02*
X29988095Y-70485990D01*
X29988095Y-70485990D02*
X30035714Y-70581228D01*
X30035714Y-70581228D02*
X30035714Y-70866942D01*
X30035714Y-70866942D02*
X29988095Y-70962180D01*
X29988095Y-70962180D02*
X29940476Y-71009800D01*
X29940476Y-71009800D02*
X29845238Y-71057419D01*
X29845238Y-71057419D02*
X29702381Y-71057419D01*
X30607143Y-71057419D02*
X30511905Y-71009800D01*
X30511905Y-71009800D02*
X30464286Y-70914561D01*
X30464286Y-70914561D02*
X30464286Y-70057419D01*
X31416667Y-70390752D02*
X31416667Y-71057419D01*
X30988096Y-70390752D02*
X30988096Y-70914561D01*
X30988096Y-70914561D02*
X31035715Y-71009800D01*
X31035715Y-71009800D02*
X31130953Y-71057419D01*
X31130953Y-71057419D02*
X31273810Y-71057419D01*
X31273810Y-71057419D02*
X31369048Y-71009800D01*
X31369048Y-71009800D02*
X31416667Y-70962180D01*
X32416667Y-71057419D02*
X31845239Y-71057419D01*
X32130953Y-71057419D02*
X32130953Y-70057419D01*
X32130953Y-70057419D02*
X32035715Y-70200276D01*
X32035715Y-70200276D02*
X31940477Y-70295514D01*
X31940477Y-70295514D02*
X31845239Y-70343133D01*
X24374800Y-65943734D02*
X24422419Y-65800877D01*
X24422419Y-65800877D02*
X24422419Y-65562782D01*
X24422419Y-65562782D02*
X24374800Y-65467544D01*
X24374800Y-65467544D02*
X24327180Y-65419925D01*
X24327180Y-65419925D02*
X24231942Y-65372306D01*
X24231942Y-65372306D02*
X24136704Y-65372306D01*
X24136704Y-65372306D02*
X24041466Y-65419925D01*
X24041466Y-65419925D02*
X23993847Y-65467544D01*
X23993847Y-65467544D02*
X23946228Y-65562782D01*
X23946228Y-65562782D02*
X23898609Y-65753258D01*
X23898609Y-65753258D02*
X23850990Y-65848496D01*
X23850990Y-65848496D02*
X23803371Y-65896115D01*
X23803371Y-65896115D02*
X23708133Y-65943734D01*
X23708133Y-65943734D02*
X23612895Y-65943734D01*
X23612895Y-65943734D02*
X23517657Y-65896115D01*
X23517657Y-65896115D02*
X23470038Y-65848496D01*
X23470038Y-65848496D02*
X23422419Y-65753258D01*
X23422419Y-65753258D02*
X23422419Y-65515163D01*
X23422419Y-65515163D02*
X23470038Y-65372306D01*
X24422419Y-64943734D02*
X23422419Y-64943734D01*
X23898609Y-64943734D02*
X23898609Y-64372306D01*
X24422419Y-64372306D02*
X23422419Y-64372306D01*
X24422419Y-63896115D02*
X23422419Y-63896115D01*
X23422419Y-63896115D02*
X23422419Y-63658020D01*
X23422419Y-63658020D02*
X23470038Y-63515163D01*
X23470038Y-63515163D02*
X23565276Y-63419925D01*
X23565276Y-63419925D02*
X23660514Y-63372306D01*
X23660514Y-63372306D02*
X23850990Y-63324687D01*
X23850990Y-63324687D02*
X23993847Y-63324687D01*
X23993847Y-63324687D02*
X24184323Y-63372306D01*
X24184323Y-63372306D02*
X24279561Y-63419925D01*
X24279561Y-63419925D02*
X24374800Y-63515163D01*
X24374800Y-63515163D02*
X24422419Y-63658020D01*
X24422419Y-63658020D02*
X24422419Y-63896115D01*
X24422419Y-62896115D02*
X23422419Y-62896115D01*
X23422419Y-62896115D02*
X24422419Y-62324687D01*
X24422419Y-62324687D02*
X23422419Y-62324687D01*
X30922419Y-66038972D02*
X31922419Y-65705639D01*
X31922419Y-65705639D02*
X30922419Y-65372306D01*
X30922419Y-64848496D02*
X30922419Y-64658020D01*
X30922419Y-64658020D02*
X30970038Y-64562782D01*
X30970038Y-64562782D02*
X31065276Y-64467544D01*
X31065276Y-64467544D02*
X31255752Y-64419925D01*
X31255752Y-64419925D02*
X31589085Y-64419925D01*
X31589085Y-64419925D02*
X31779561Y-64467544D01*
X31779561Y-64467544D02*
X31874800Y-64562782D01*
X31874800Y-64562782D02*
X31922419Y-64658020D01*
X31922419Y-64658020D02*
X31922419Y-64848496D01*
X31922419Y-64848496D02*
X31874800Y-64943734D01*
X31874800Y-64943734D02*
X31779561Y-65038972D01*
X31779561Y-65038972D02*
X31589085Y-65086591D01*
X31589085Y-65086591D02*
X31255752Y-65086591D01*
X31255752Y-65086591D02*
X31065276Y-65038972D01*
X31065276Y-65038972D02*
X30970038Y-64943734D01*
X30970038Y-64943734D02*
X30922419Y-64848496D01*
X30922419Y-63991353D02*
X31731942Y-63991353D01*
X31731942Y-63991353D02*
X31827180Y-63943734D01*
X31827180Y-63943734D02*
X31874800Y-63896115D01*
X31874800Y-63896115D02*
X31922419Y-63800877D01*
X31922419Y-63800877D02*
X31922419Y-63610401D01*
X31922419Y-63610401D02*
X31874800Y-63515163D01*
X31874800Y-63515163D02*
X31827180Y-63467544D01*
X31827180Y-63467544D02*
X31731942Y-63419925D01*
X31731942Y-63419925D02*
X30922419Y-63419925D01*
X30922419Y-63086591D02*
X30922419Y-62515163D01*
X31922419Y-62800877D02*
X30922419Y-62800877D01*
X28470038Y-65372306D02*
X28422419Y-65467544D01*
X28422419Y-65467544D02*
X28422419Y-65610401D01*
X28422419Y-65610401D02*
X28470038Y-65753258D01*
X28470038Y-65753258D02*
X28565276Y-65848496D01*
X28565276Y-65848496D02*
X28660514Y-65896115D01*
X28660514Y-65896115D02*
X28850990Y-65943734D01*
X28850990Y-65943734D02*
X28993847Y-65943734D01*
X28993847Y-65943734D02*
X29184323Y-65896115D01*
X29184323Y-65896115D02*
X29279561Y-65848496D01*
X29279561Y-65848496D02*
X29374800Y-65753258D01*
X29374800Y-65753258D02*
X29422419Y-65610401D01*
X29422419Y-65610401D02*
X29422419Y-65515163D01*
X29422419Y-65515163D02*
X29374800Y-65372306D01*
X29374800Y-65372306D02*
X29327180Y-65324687D01*
X29327180Y-65324687D02*
X28993847Y-65324687D01*
X28993847Y-65324687D02*
X28993847Y-65515163D01*
X29422419Y-64896115D02*
X28422419Y-64896115D01*
X28422419Y-64896115D02*
X29422419Y-64324687D01*
X29422419Y-64324687D02*
X28422419Y-64324687D01*
X29422419Y-63848496D02*
X28422419Y-63848496D01*
X28422419Y-63848496D02*
X28422419Y-63610401D01*
X28422419Y-63610401D02*
X28470038Y-63467544D01*
X28470038Y-63467544D02*
X28565276Y-63372306D01*
X28565276Y-63372306D02*
X28660514Y-63324687D01*
X28660514Y-63324687D02*
X28850990Y-63277068D01*
X28850990Y-63277068D02*
X28993847Y-63277068D01*
X28993847Y-63277068D02*
X29184323Y-63324687D01*
X29184323Y-63324687D02*
X29279561Y-63372306D01*
X29279561Y-63372306D02*
X29374800Y-63467544D01*
X29374800Y-63467544D02*
X29422419Y-63610401D01*
X29422419Y-63610401D02*
X29422419Y-63848496D01*
X25922419Y-66038972D02*
X26922419Y-65705639D01*
X26922419Y-65705639D02*
X25922419Y-65372306D01*
X26922419Y-65038972D02*
X25922419Y-65038972D01*
X26922419Y-64562782D02*
X25922419Y-64562782D01*
X25922419Y-64562782D02*
X26922419Y-63991354D01*
X26922419Y-63991354D02*
X25922419Y-63991354D01*
X24666667Y-75409800D02*
X24809524Y-75457419D01*
X24809524Y-75457419D02*
X25047619Y-75457419D01*
X25047619Y-75457419D02*
X25142857Y-75409800D01*
X25142857Y-75409800D02*
X25190476Y-75362180D01*
X25190476Y-75362180D02*
X25238095Y-75266942D01*
X25238095Y-75266942D02*
X25238095Y-75171704D01*
X25238095Y-75171704D02*
X25190476Y-75076466D01*
X25190476Y-75076466D02*
X25142857Y-75028847D01*
X25142857Y-75028847D02*
X25047619Y-74981228D01*
X25047619Y-74981228D02*
X24857143Y-74933609D01*
X24857143Y-74933609D02*
X24761905Y-74885990D01*
X24761905Y-74885990D02*
X24714286Y-74838371D01*
X24714286Y-74838371D02*
X24666667Y-74743133D01*
X24666667Y-74743133D02*
X24666667Y-74647895D01*
X24666667Y-74647895D02*
X24714286Y-74552657D01*
X24714286Y-74552657D02*
X24761905Y-74505038D01*
X24761905Y-74505038D02*
X24857143Y-74457419D01*
X24857143Y-74457419D02*
X25095238Y-74457419D01*
X25095238Y-74457419D02*
X25238095Y-74505038D01*
X25571429Y-74457419D02*
X25809524Y-75457419D01*
X25809524Y-75457419D02*
X26000000Y-74743133D01*
X26000000Y-74743133D02*
X26190476Y-75457419D01*
X26190476Y-75457419D02*
X26428572Y-74457419D01*
X27333333Y-75457419D02*
X26761905Y-75457419D01*
X27047619Y-75457419D02*
X27047619Y-74457419D01*
X27047619Y-74457419D02*
X26952381Y-74600276D01*
X26952381Y-74600276D02*
X26857143Y-74695514D01*
X26857143Y-74695514D02*
X26761905Y-74743133D01*
X26161027Y-75872419D02*
X26494360Y-76872419D01*
X26494360Y-76872419D02*
X26827693Y-75872419D01*
X27161027Y-76872419D02*
X27161027Y-76205752D01*
X27161027Y-75872419D02*
X27113408Y-75920038D01*
X27113408Y-75920038D02*
X27161027Y-75967657D01*
X27161027Y-75967657D02*
X27208646Y-75920038D01*
X27208646Y-75920038D02*
X27161027Y-75872419D01*
X27161027Y-75872419D02*
X27161027Y-75967657D01*
X27637217Y-76205752D02*
X27637217Y-76872419D01*
X27637217Y-76300990D02*
X27684836Y-76253371D01*
X27684836Y-76253371D02*
X27780074Y-76205752D01*
X27780074Y-76205752D02*
X27922931Y-76205752D01*
X27922931Y-76205752D02*
X28018169Y-76253371D01*
X28018169Y-76253371D02*
X28065788Y-76348609D01*
X28065788Y-76348609D02*
X28065788Y-76872419D01*
X21461027Y-72272419D02*
X21794360Y-73272419D01*
X21794360Y-73272419D02*
X22127693Y-72272419D01*
X22603884Y-73272419D02*
X22508646Y-73224800D01*
X22508646Y-73224800D02*
X22461027Y-73177180D01*
X22461027Y-73177180D02*
X22413408Y-73081942D01*
X22413408Y-73081942D02*
X22413408Y-72796228D01*
X22413408Y-72796228D02*
X22461027Y-72700990D01*
X22461027Y-72700990D02*
X22508646Y-72653371D01*
X22508646Y-72653371D02*
X22603884Y-72605752D01*
X22603884Y-72605752D02*
X22746741Y-72605752D01*
X22746741Y-72605752D02*
X22841979Y-72653371D01*
X22841979Y-72653371D02*
X22889598Y-72700990D01*
X22889598Y-72700990D02*
X22937217Y-72796228D01*
X22937217Y-72796228D02*
X22937217Y-73081942D01*
X22937217Y-73081942D02*
X22889598Y-73177180D01*
X22889598Y-73177180D02*
X22841979Y-73224800D01*
X22841979Y-73224800D02*
X22746741Y-73272419D01*
X22746741Y-73272419D02*
X22603884Y-73272419D01*
X23794360Y-72605752D02*
X23794360Y-73272419D01*
X23365789Y-72605752D02*
X23365789Y-73129561D01*
X23365789Y-73129561D02*
X23413408Y-73224800D01*
X23413408Y-73224800D02*
X23508646Y-73272419D01*
X23508646Y-73272419D02*
X23651503Y-73272419D01*
X23651503Y-73272419D02*
X23746741Y-73224800D01*
X23746741Y-73224800D02*
X23794360Y-73177180D01*
X24127694Y-72605752D02*
X24508646Y-72605752D01*
X24270551Y-72272419D02*
X24270551Y-73129561D01*
X24270551Y-73129561D02*
X24318170Y-73224800D01*
X24318170Y-73224800D02*
X24413408Y-73272419D01*
X24413408Y-73272419D02*
X24508646Y-73272419D01*
D13*
X76238095Y-29034819D02*
X76238095Y-28034819D01*
X76238095Y-28034819D02*
X76619047Y-28034819D01*
X76619047Y-28034819D02*
X76714285Y-28082438D01*
X76714285Y-28082438D02*
X76761904Y-28130057D01*
X76761904Y-28130057D02*
X76809523Y-28225295D01*
X76809523Y-28225295D02*
X76809523Y-28368152D01*
X76809523Y-28368152D02*
X76761904Y-28463390D01*
X76761904Y-28463390D02*
X76714285Y-28511009D01*
X76714285Y-28511009D02*
X76619047Y-28558628D01*
X76619047Y-28558628D02*
X76238095Y-28558628D01*
X77238095Y-29034819D02*
X77238095Y-28034819D01*
X77238095Y-28511009D02*
X77809523Y-28511009D01*
X77809523Y-29034819D02*
X77809523Y-28034819D01*
X78809523Y-29034819D02*
X78238095Y-29034819D01*
X78523809Y-29034819D02*
X78523809Y-28034819D01*
X78523809Y-28034819D02*
X78428571Y-28177676D01*
X78428571Y-28177676D02*
X78333333Y-28272914D01*
X78333333Y-28272914D02*
X78238095Y-28320533D01*
X19034819Y-23746666D02*
X18558628Y-24079999D01*
X19034819Y-24318094D02*
X18034819Y-24318094D01*
X18034819Y-24318094D02*
X18034819Y-23937142D01*
X18034819Y-23937142D02*
X18082438Y-23841904D01*
X18082438Y-23841904D02*
X18130057Y-23794285D01*
X18130057Y-23794285D02*
X18225295Y-23746666D01*
X18225295Y-23746666D02*
X18368152Y-23746666D01*
X18368152Y-23746666D02*
X18463390Y-23794285D01*
X18463390Y-23794285D02*
X18511009Y-23841904D01*
X18511009Y-23841904D02*
X18558628Y-23937142D01*
X18558628Y-23937142D02*
X18558628Y-24318094D01*
X18034819Y-23413332D02*
X18034819Y-22794285D01*
X18034819Y-22794285D02*
X18415771Y-23127618D01*
X18415771Y-23127618D02*
X18415771Y-22984761D01*
X18415771Y-22984761D02*
X18463390Y-22889523D01*
X18463390Y-22889523D02*
X18511009Y-22841904D01*
X18511009Y-22841904D02*
X18606247Y-22794285D01*
X18606247Y-22794285D02*
X18844342Y-22794285D01*
X18844342Y-22794285D02*
X18939580Y-22841904D01*
X18939580Y-22841904D02*
X18987200Y-22889523D01*
X18987200Y-22889523D02*
X19034819Y-22984761D01*
X19034819Y-22984761D02*
X19034819Y-23270475D01*
X19034819Y-23270475D02*
X18987200Y-23365713D01*
X18987200Y-23365713D02*
X18939580Y-23413332D01*
D10*
X70349523Y-67505038D02*
X70254285Y-67457419D01*
X70254285Y-67457419D02*
X70111428Y-67457419D01*
X70111428Y-67457419D02*
X69968571Y-67505038D01*
X69968571Y-67505038D02*
X69873333Y-67600276D01*
X69873333Y-67600276D02*
X69825714Y-67695514D01*
X69825714Y-67695514D02*
X69778095Y-67885990D01*
X69778095Y-67885990D02*
X69778095Y-68028847D01*
X69778095Y-68028847D02*
X69825714Y-68219323D01*
X69825714Y-68219323D02*
X69873333Y-68314561D01*
X69873333Y-68314561D02*
X69968571Y-68409800D01*
X69968571Y-68409800D02*
X70111428Y-68457419D01*
X70111428Y-68457419D02*
X70206666Y-68457419D01*
X70206666Y-68457419D02*
X70349523Y-68409800D01*
X70349523Y-68409800D02*
X70397142Y-68362180D01*
X70397142Y-68362180D02*
X70397142Y-68028847D01*
X70397142Y-68028847D02*
X70206666Y-68028847D01*
X70825714Y-68457419D02*
X70825714Y-67457419D01*
X70825714Y-67457419D02*
X71206666Y-67457419D01*
X71206666Y-67457419D02*
X71301904Y-67505038D01*
X71301904Y-67505038D02*
X71349523Y-67552657D01*
X71349523Y-67552657D02*
X71397142Y-67647895D01*
X71397142Y-67647895D02*
X71397142Y-67790752D01*
X71397142Y-67790752D02*
X71349523Y-67885990D01*
X71349523Y-67885990D02*
X71301904Y-67933609D01*
X71301904Y-67933609D02*
X71206666Y-67981228D01*
X71206666Y-67981228D02*
X70825714Y-67981228D01*
X71778095Y-68409800D02*
X71920952Y-68457419D01*
X71920952Y-68457419D02*
X72159047Y-68457419D01*
X72159047Y-68457419D02*
X72254285Y-68409800D01*
X72254285Y-68409800D02*
X72301904Y-68362180D01*
X72301904Y-68362180D02*
X72349523Y-68266942D01*
X72349523Y-68266942D02*
X72349523Y-68171704D01*
X72349523Y-68171704D02*
X72301904Y-68076466D01*
X72301904Y-68076466D02*
X72254285Y-68028847D01*
X72254285Y-68028847D02*
X72159047Y-67981228D01*
X72159047Y-67981228D02*
X71968571Y-67933609D01*
X71968571Y-67933609D02*
X71873333Y-67885990D01*
X71873333Y-67885990D02*
X71825714Y-67838371D01*
X71825714Y-67838371D02*
X71778095Y-67743133D01*
X71778095Y-67743133D02*
X71778095Y-67647895D01*
X71778095Y-67647895D02*
X71825714Y-67552657D01*
X71825714Y-67552657D02*
X71873333Y-67505038D01*
X71873333Y-67505038D02*
X71968571Y-67457419D01*
X71968571Y-67457419D02*
X72206666Y-67457419D01*
X72206666Y-67457419D02*
X72349523Y-67505038D01*
X73301904Y-68457419D02*
X72730476Y-68457419D01*
X73016190Y-68457419D02*
X73016190Y-67457419D01*
X73016190Y-67457419D02*
X72920952Y-67600276D01*
X72920952Y-67600276D02*
X72825714Y-67695514D01*
X72825714Y-67695514D02*
X72730476Y-67743133D01*
X60497847Y-74243734D02*
X60497847Y-73977068D01*
X60916895Y-73862782D02*
X60916895Y-74243734D01*
X60916895Y-74243734D02*
X60116895Y-74243734D01*
X60116895Y-74243734D02*
X60116895Y-73862782D01*
X60916895Y-73519924D02*
X60116895Y-73519924D01*
X60116895Y-73519924D02*
X60916895Y-73062781D01*
X60916895Y-73062781D02*
X60116895Y-73062781D01*
X68116895Y-74258020D02*
X68116895Y-73800877D01*
X68916895Y-74029449D02*
X68116895Y-74029449D01*
X68116895Y-73610401D02*
X68916895Y-73077067D01*
X68116895Y-73077067D02*
X68916895Y-73610401D01*
X57716895Y-75219925D02*
X57716895Y-74724687D01*
X57716895Y-74724687D02*
X58021657Y-74991353D01*
X58021657Y-74991353D02*
X58021657Y-74877068D01*
X58021657Y-74877068D02*
X58059752Y-74800877D01*
X58059752Y-74800877D02*
X58097847Y-74762782D01*
X58097847Y-74762782D02*
X58174038Y-74724687D01*
X58174038Y-74724687D02*
X58364514Y-74724687D01*
X58364514Y-74724687D02*
X58440704Y-74762782D01*
X58440704Y-74762782D02*
X58478800Y-74800877D01*
X58478800Y-74800877D02*
X58516895Y-74877068D01*
X58516895Y-74877068D02*
X58516895Y-75105639D01*
X58516895Y-75105639D02*
X58478800Y-75181830D01*
X58478800Y-75181830D02*
X58440704Y-75219925D01*
X58478800Y-74343734D02*
X58516895Y-74343734D01*
X58516895Y-74343734D02*
X58593085Y-74381829D01*
X58593085Y-74381829D02*
X58631180Y-74419925D01*
X57716895Y-74077068D02*
X57716895Y-73581830D01*
X57716895Y-73581830D02*
X58021657Y-73848496D01*
X58021657Y-73848496D02*
X58021657Y-73734211D01*
X58021657Y-73734211D02*
X58059752Y-73658020D01*
X58059752Y-73658020D02*
X58097847Y-73619925D01*
X58097847Y-73619925D02*
X58174038Y-73581830D01*
X58174038Y-73581830D02*
X58364514Y-73581830D01*
X58364514Y-73581830D02*
X58440704Y-73619925D01*
X58440704Y-73619925D02*
X58478800Y-73658020D01*
X58478800Y-73658020D02*
X58516895Y-73734211D01*
X58516895Y-73734211D02*
X58516895Y-73962782D01*
X58516895Y-73962782D02*
X58478800Y-74038973D01*
X58478800Y-74038973D02*
X58440704Y-74077068D01*
X57716895Y-73353258D02*
X58516895Y-73086591D01*
X58516895Y-73086591D02*
X57716895Y-72819925D01*
X75816895Y-74558020D02*
X76616895Y-74291353D01*
X76616895Y-74291353D02*
X75816895Y-74024687D01*
X76616895Y-73758020D02*
X75816895Y-73758020D01*
X76616895Y-73377068D02*
X75816895Y-73377068D01*
X75816895Y-73377068D02*
X76616895Y-72919925D01*
X76616895Y-72919925D02*
X75816895Y-72919925D01*
X71316895Y-73586591D02*
X70935942Y-73853258D01*
X71316895Y-74043734D02*
X70516895Y-74043734D01*
X70516895Y-74043734D02*
X70516895Y-73738972D01*
X70516895Y-73738972D02*
X70554990Y-73662782D01*
X70554990Y-73662782D02*
X70593085Y-73624687D01*
X70593085Y-73624687D02*
X70669276Y-73586591D01*
X70669276Y-73586591D02*
X70783561Y-73586591D01*
X70783561Y-73586591D02*
X70859752Y-73624687D01*
X70859752Y-73624687D02*
X70897847Y-73662782D01*
X70897847Y-73662782D02*
X70935942Y-73738972D01*
X70935942Y-73738972D02*
X70935942Y-74043734D01*
X70516895Y-73319925D02*
X71316895Y-72786591D01*
X70516895Y-72786591D02*
X71316895Y-73319925D01*
X73254990Y-74424687D02*
X73216895Y-74500877D01*
X73216895Y-74500877D02*
X73216895Y-74615163D01*
X73216895Y-74615163D02*
X73254990Y-74729449D01*
X73254990Y-74729449D02*
X73331180Y-74805639D01*
X73331180Y-74805639D02*
X73407371Y-74843734D01*
X73407371Y-74843734D02*
X73559752Y-74881830D01*
X73559752Y-74881830D02*
X73674038Y-74881830D01*
X73674038Y-74881830D02*
X73826419Y-74843734D01*
X73826419Y-74843734D02*
X73902609Y-74805639D01*
X73902609Y-74805639D02*
X73978800Y-74729449D01*
X73978800Y-74729449D02*
X74016895Y-74615163D01*
X74016895Y-74615163D02*
X74016895Y-74538972D01*
X74016895Y-74538972D02*
X73978800Y-74424687D01*
X73978800Y-74424687D02*
X73940704Y-74386591D01*
X73940704Y-74386591D02*
X73674038Y-74386591D01*
X73674038Y-74386591D02*
X73674038Y-74538972D01*
X74016895Y-74043734D02*
X73216895Y-74043734D01*
X73216895Y-74043734D02*
X74016895Y-73586591D01*
X74016895Y-73586591D02*
X73216895Y-73586591D01*
X74016895Y-73205639D02*
X73216895Y-73205639D01*
X73216895Y-73205639D02*
X73216895Y-73015163D01*
X73216895Y-73015163D02*
X73254990Y-72900877D01*
X73254990Y-72900877D02*
X73331180Y-72824687D01*
X73331180Y-72824687D02*
X73407371Y-72786592D01*
X73407371Y-72786592D02*
X73559752Y-72748496D01*
X73559752Y-72748496D02*
X73674038Y-72748496D01*
X73674038Y-72748496D02*
X73826419Y-72786592D01*
X73826419Y-72786592D02*
X73902609Y-72824687D01*
X73902609Y-72824687D02*
X73978800Y-72900877D01*
X73978800Y-72900877D02*
X74016895Y-73015163D01*
X74016895Y-73015163D02*
X74016895Y-73205639D01*
X79216895Y-74643734D02*
X78416895Y-74643734D01*
X78416895Y-74643734D02*
X78416895Y-74338972D01*
X78416895Y-74338972D02*
X78454990Y-74262782D01*
X78454990Y-74262782D02*
X78493085Y-74224687D01*
X78493085Y-74224687D02*
X78569276Y-74186591D01*
X78569276Y-74186591D02*
X78683561Y-74186591D01*
X78683561Y-74186591D02*
X78759752Y-74224687D01*
X78759752Y-74224687D02*
X78797847Y-74262782D01*
X78797847Y-74262782D02*
X78835942Y-74338972D01*
X78835942Y-74338972D02*
X78835942Y-74643734D01*
X79216895Y-73843734D02*
X78416895Y-73843734D01*
X78416895Y-73843734D02*
X78416895Y-73538972D01*
X78416895Y-73538972D02*
X78454990Y-73462782D01*
X78454990Y-73462782D02*
X78493085Y-73424687D01*
X78493085Y-73424687D02*
X78569276Y-73386591D01*
X78569276Y-73386591D02*
X78683561Y-73386591D01*
X78683561Y-73386591D02*
X78759752Y-73424687D01*
X78759752Y-73424687D02*
X78797847Y-73462782D01*
X78797847Y-73462782D02*
X78835942Y-73538972D01*
X78835942Y-73538972D02*
X78835942Y-73843734D01*
X79178800Y-73081830D02*
X79216895Y-72967544D01*
X79216895Y-72967544D02*
X79216895Y-72777068D01*
X79216895Y-72777068D02*
X79178800Y-72700877D01*
X79178800Y-72700877D02*
X79140704Y-72662782D01*
X79140704Y-72662782D02*
X79064514Y-72624687D01*
X79064514Y-72624687D02*
X78988323Y-72624687D01*
X78988323Y-72624687D02*
X78912133Y-72662782D01*
X78912133Y-72662782D02*
X78874038Y-72700877D01*
X78874038Y-72700877D02*
X78835942Y-72777068D01*
X78835942Y-72777068D02*
X78797847Y-72929449D01*
X78797847Y-72929449D02*
X78759752Y-73005639D01*
X78759752Y-73005639D02*
X78721657Y-73043734D01*
X78721657Y-73043734D02*
X78645466Y-73081830D01*
X78645466Y-73081830D02*
X78569276Y-73081830D01*
X78569276Y-73081830D02*
X78493085Y-73043734D01*
X78493085Y-73043734D02*
X78454990Y-73005639D01*
X78454990Y-73005639D02*
X78416895Y-72929449D01*
X78416895Y-72929449D02*
X78416895Y-72738972D01*
X78416895Y-72738972D02*
X78454990Y-72624687D01*
D13*
X61034819Y-26738094D02*
X60034819Y-26738094D01*
X60034819Y-26738094D02*
X60749104Y-26404761D01*
X60749104Y-26404761D02*
X60034819Y-26071428D01*
X60034819Y-26071428D02*
X61034819Y-26071428D01*
X60511009Y-25261904D02*
X60511009Y-25595237D01*
X61034819Y-25595237D02*
X60034819Y-25595237D01*
X60034819Y-25595237D02*
X60034819Y-25119047D01*
X61034819Y-24214285D02*
X61034819Y-24785713D01*
X61034819Y-24499999D02*
X60034819Y-24499999D01*
X60034819Y-24499999D02*
X60177676Y-24595237D01*
X60177676Y-24595237D02*
X60272914Y-24690475D01*
X60272914Y-24690475D02*
X60320533Y-24785713D01*
D10*
X28175312Y-37672419D02*
X27841979Y-37196228D01*
X27603884Y-37672419D02*
X27603884Y-36672419D01*
X27603884Y-36672419D02*
X27984836Y-36672419D01*
X27984836Y-36672419D02*
X28080074Y-36720038D01*
X28080074Y-36720038D02*
X28127693Y-36767657D01*
X28127693Y-36767657D02*
X28175312Y-36862895D01*
X28175312Y-36862895D02*
X28175312Y-37005752D01*
X28175312Y-37005752D02*
X28127693Y-37100990D01*
X28127693Y-37100990D02*
X28080074Y-37148609D01*
X28080074Y-37148609D02*
X27984836Y-37196228D01*
X27984836Y-37196228D02*
X27603884Y-37196228D01*
X28556265Y-37624800D02*
X28699122Y-37672419D01*
X28699122Y-37672419D02*
X28937217Y-37672419D01*
X28937217Y-37672419D02*
X29032455Y-37624800D01*
X29032455Y-37624800D02*
X29080074Y-37577180D01*
X29080074Y-37577180D02*
X29127693Y-37481942D01*
X29127693Y-37481942D02*
X29127693Y-37386704D01*
X29127693Y-37386704D02*
X29080074Y-37291466D01*
X29080074Y-37291466D02*
X29032455Y-37243847D01*
X29032455Y-37243847D02*
X28937217Y-37196228D01*
X28937217Y-37196228D02*
X28746741Y-37148609D01*
X28746741Y-37148609D02*
X28651503Y-37100990D01*
X28651503Y-37100990D02*
X28603884Y-37053371D01*
X28603884Y-37053371D02*
X28556265Y-36958133D01*
X28556265Y-36958133D02*
X28556265Y-36862895D01*
X28556265Y-36862895D02*
X28603884Y-36767657D01*
X28603884Y-36767657D02*
X28651503Y-36720038D01*
X28651503Y-36720038D02*
X28746741Y-36672419D01*
X28746741Y-36672419D02*
X28984836Y-36672419D01*
X28984836Y-36672419D02*
X29127693Y-36720038D01*
X29413408Y-36672419D02*
X29984836Y-36672419D01*
X29699122Y-37672419D02*
X29699122Y-36672419D01*
X41827693Y-47220038D02*
X41732455Y-47172419D01*
X41732455Y-47172419D02*
X41589598Y-47172419D01*
X41589598Y-47172419D02*
X41446741Y-47220038D01*
X41446741Y-47220038D02*
X41351503Y-47315276D01*
X41351503Y-47315276D02*
X41303884Y-47410514D01*
X41303884Y-47410514D02*
X41256265Y-47600990D01*
X41256265Y-47600990D02*
X41256265Y-47743847D01*
X41256265Y-47743847D02*
X41303884Y-47934323D01*
X41303884Y-47934323D02*
X41351503Y-48029561D01*
X41351503Y-48029561D02*
X41446741Y-48124800D01*
X41446741Y-48124800D02*
X41589598Y-48172419D01*
X41589598Y-48172419D02*
X41684836Y-48172419D01*
X41684836Y-48172419D02*
X41827693Y-48124800D01*
X41827693Y-48124800D02*
X41875312Y-48077180D01*
X41875312Y-48077180D02*
X41875312Y-47743847D01*
X41875312Y-47743847D02*
X41684836Y-47743847D01*
X42303884Y-48172419D02*
X42303884Y-47172419D01*
X42303884Y-47172419D02*
X42875312Y-48172419D01*
X42875312Y-48172419D02*
X42875312Y-47172419D01*
X43351503Y-48172419D02*
X43351503Y-47172419D01*
X43351503Y-47172419D02*
X43589598Y-47172419D01*
X43589598Y-47172419D02*
X43732455Y-47220038D01*
X43732455Y-47220038D02*
X43827693Y-47315276D01*
X43827693Y-47315276D02*
X43875312Y-47410514D01*
X43875312Y-47410514D02*
X43922931Y-47600990D01*
X43922931Y-47600990D02*
X43922931Y-47743847D01*
X43922931Y-47743847D02*
X43875312Y-47934323D01*
X43875312Y-47934323D02*
X43827693Y-48029561D01*
X43827693Y-48029561D02*
X43732455Y-48124800D01*
X43732455Y-48124800D02*
X43589598Y-48172419D01*
X43589598Y-48172419D02*
X43351503Y-48172419D01*
X41556265Y-45724800D02*
X41699122Y-45772419D01*
X41699122Y-45772419D02*
X41937217Y-45772419D01*
X41937217Y-45772419D02*
X42032455Y-45724800D01*
X42032455Y-45724800D02*
X42080074Y-45677180D01*
X42080074Y-45677180D02*
X42127693Y-45581942D01*
X42127693Y-45581942D02*
X42127693Y-45486704D01*
X42127693Y-45486704D02*
X42080074Y-45391466D01*
X42080074Y-45391466D02*
X42032455Y-45343847D01*
X42032455Y-45343847D02*
X41937217Y-45296228D01*
X41937217Y-45296228D02*
X41746741Y-45248609D01*
X41746741Y-45248609D02*
X41651503Y-45200990D01*
X41651503Y-45200990D02*
X41603884Y-45153371D01*
X41603884Y-45153371D02*
X41556265Y-45058133D01*
X41556265Y-45058133D02*
X41556265Y-44962895D01*
X41556265Y-44962895D02*
X41603884Y-44867657D01*
X41603884Y-44867657D02*
X41651503Y-44820038D01*
X41651503Y-44820038D02*
X41746741Y-44772419D01*
X41746741Y-44772419D02*
X41984836Y-44772419D01*
X41984836Y-44772419D02*
X42127693Y-44820038D01*
X43127693Y-45677180D02*
X43080074Y-45724800D01*
X43080074Y-45724800D02*
X42937217Y-45772419D01*
X42937217Y-45772419D02*
X42841979Y-45772419D01*
X42841979Y-45772419D02*
X42699122Y-45724800D01*
X42699122Y-45724800D02*
X42603884Y-45629561D01*
X42603884Y-45629561D02*
X42556265Y-45534323D01*
X42556265Y-45534323D02*
X42508646Y-45343847D01*
X42508646Y-45343847D02*
X42508646Y-45200990D01*
X42508646Y-45200990D02*
X42556265Y-45010514D01*
X42556265Y-45010514D02*
X42603884Y-44915276D01*
X42603884Y-44915276D02*
X42699122Y-44820038D01*
X42699122Y-44820038D02*
X42841979Y-44772419D01*
X42841979Y-44772419D02*
X42937217Y-44772419D01*
X42937217Y-44772419D02*
X43080074Y-44820038D01*
X43080074Y-44820038D02*
X43127693Y-44867657D01*
X44032455Y-45772419D02*
X43556265Y-45772419D01*
X43556265Y-45772419D02*
X43556265Y-44772419D01*
X27927693Y-34620038D02*
X27832455Y-34572419D01*
X27832455Y-34572419D02*
X27689598Y-34572419D01*
X27689598Y-34572419D02*
X27546741Y-34620038D01*
X27546741Y-34620038D02*
X27451503Y-34715276D01*
X27451503Y-34715276D02*
X27403884Y-34810514D01*
X27403884Y-34810514D02*
X27356265Y-35000990D01*
X27356265Y-35000990D02*
X27356265Y-35143847D01*
X27356265Y-35143847D02*
X27403884Y-35334323D01*
X27403884Y-35334323D02*
X27451503Y-35429561D01*
X27451503Y-35429561D02*
X27546741Y-35524800D01*
X27546741Y-35524800D02*
X27689598Y-35572419D01*
X27689598Y-35572419D02*
X27784836Y-35572419D01*
X27784836Y-35572419D02*
X27927693Y-35524800D01*
X27927693Y-35524800D02*
X27975312Y-35477180D01*
X27975312Y-35477180D02*
X27975312Y-35143847D01*
X27975312Y-35143847D02*
X27784836Y-35143847D01*
X28403884Y-35572419D02*
X28403884Y-34572419D01*
X28403884Y-34572419D02*
X28975312Y-35572419D01*
X28975312Y-35572419D02*
X28975312Y-34572419D01*
X29451503Y-35572419D02*
X29451503Y-34572419D01*
X29451503Y-34572419D02*
X29689598Y-34572419D01*
X29689598Y-34572419D02*
X29832455Y-34620038D01*
X29832455Y-34620038D02*
X29927693Y-34715276D01*
X29927693Y-34715276D02*
X29975312Y-34810514D01*
X29975312Y-34810514D02*
X30022931Y-35000990D01*
X30022931Y-35000990D02*
X30022931Y-35143847D01*
X30022931Y-35143847D02*
X29975312Y-35334323D01*
X29975312Y-35334323D02*
X29927693Y-35429561D01*
X29927693Y-35429561D02*
X29832455Y-35524800D01*
X29832455Y-35524800D02*
X29689598Y-35572419D01*
X29689598Y-35572419D02*
X29451503Y-35572419D01*
X42756265Y-37586704D02*
X43232455Y-37586704D01*
X42661027Y-37872419D02*
X42994360Y-36872419D01*
X42994360Y-36872419D02*
X43327693Y-37872419D01*
X43565789Y-36872419D02*
X44184836Y-36872419D01*
X44184836Y-36872419D02*
X43851503Y-37253371D01*
X43851503Y-37253371D02*
X43994360Y-37253371D01*
X43994360Y-37253371D02*
X44089598Y-37300990D01*
X44089598Y-37300990D02*
X44137217Y-37348609D01*
X44137217Y-37348609D02*
X44184836Y-37443847D01*
X44184836Y-37443847D02*
X44184836Y-37681942D01*
X44184836Y-37681942D02*
X44137217Y-37777180D01*
X44137217Y-37777180D02*
X44089598Y-37824800D01*
X44089598Y-37824800D02*
X43994360Y-37872419D01*
X43994360Y-37872419D02*
X43708646Y-37872419D01*
X43708646Y-37872419D02*
X43613408Y-37824800D01*
X43613408Y-37824800D02*
X43565789Y-37777180D01*
X27438884Y-19852419D02*
X27438884Y-18852419D01*
X27438884Y-18852419D02*
X27676979Y-18852419D01*
X27676979Y-18852419D02*
X27819836Y-18900038D01*
X27819836Y-18900038D02*
X27915074Y-18995276D01*
X27915074Y-18995276D02*
X27962693Y-19090514D01*
X27962693Y-19090514D02*
X28010312Y-19280990D01*
X28010312Y-19280990D02*
X28010312Y-19423847D01*
X28010312Y-19423847D02*
X27962693Y-19614323D01*
X27962693Y-19614323D02*
X27915074Y-19709561D01*
X27915074Y-19709561D02*
X27819836Y-19804800D01*
X27819836Y-19804800D02*
X27676979Y-19852419D01*
X27676979Y-19852419D02*
X27438884Y-19852419D01*
X28486503Y-19852419D02*
X28676979Y-19852419D01*
X28676979Y-19852419D02*
X28772217Y-19804800D01*
X28772217Y-19804800D02*
X28819836Y-19757180D01*
X28819836Y-19757180D02*
X28915074Y-19614323D01*
X28915074Y-19614323D02*
X28962693Y-19423847D01*
X28962693Y-19423847D02*
X28962693Y-19042895D01*
X28962693Y-19042895D02*
X28915074Y-18947657D01*
X28915074Y-18947657D02*
X28867455Y-18900038D01*
X28867455Y-18900038D02*
X28772217Y-18852419D01*
X28772217Y-18852419D02*
X28581741Y-18852419D01*
X28581741Y-18852419D02*
X28486503Y-18900038D01*
X28486503Y-18900038D02*
X28438884Y-18947657D01*
X28438884Y-18947657D02*
X28391265Y-19042895D01*
X28391265Y-19042895D02*
X28391265Y-19280990D01*
X28391265Y-19280990D02*
X28438884Y-19376228D01*
X28438884Y-19376228D02*
X28486503Y-19423847D01*
X28486503Y-19423847D02*
X28581741Y-19471466D01*
X28581741Y-19471466D02*
X28772217Y-19471466D01*
X28772217Y-19471466D02*
X28867455Y-19423847D01*
X28867455Y-19423847D02*
X28915074Y-19376228D01*
X28915074Y-19376228D02*
X28962693Y-19280990D01*
X26538884Y-32952419D02*
X26538884Y-31952419D01*
X26538884Y-31952419D02*
X26872217Y-32666704D01*
X26872217Y-32666704D02*
X27205550Y-31952419D01*
X27205550Y-31952419D02*
X27205550Y-32952419D01*
X27872217Y-31952419D02*
X28062693Y-31952419D01*
X28062693Y-31952419D02*
X28157931Y-32000038D01*
X28157931Y-32000038D02*
X28253169Y-32095276D01*
X28253169Y-32095276D02*
X28300788Y-32285752D01*
X28300788Y-32285752D02*
X28300788Y-32619085D01*
X28300788Y-32619085D02*
X28253169Y-32809561D01*
X28253169Y-32809561D02*
X28157931Y-32904800D01*
X28157931Y-32904800D02*
X28062693Y-32952419D01*
X28062693Y-32952419D02*
X27872217Y-32952419D01*
X27872217Y-32952419D02*
X27776979Y-32904800D01*
X27776979Y-32904800D02*
X27681741Y-32809561D01*
X27681741Y-32809561D02*
X27634122Y-32619085D01*
X27634122Y-32619085D02*
X27634122Y-32285752D01*
X27634122Y-32285752D02*
X27681741Y-32095276D01*
X27681741Y-32095276D02*
X27776979Y-32000038D01*
X27776979Y-32000038D02*
X27872217Y-31952419D01*
X28681741Y-32904800D02*
X28824598Y-32952419D01*
X28824598Y-32952419D02*
X29062693Y-32952419D01*
X29062693Y-32952419D02*
X29157931Y-32904800D01*
X29157931Y-32904800D02*
X29205550Y-32857180D01*
X29205550Y-32857180D02*
X29253169Y-32761942D01*
X29253169Y-32761942D02*
X29253169Y-32666704D01*
X29253169Y-32666704D02*
X29205550Y-32571466D01*
X29205550Y-32571466D02*
X29157931Y-32523847D01*
X29157931Y-32523847D02*
X29062693Y-32476228D01*
X29062693Y-32476228D02*
X28872217Y-32428609D01*
X28872217Y-32428609D02*
X28776979Y-32380990D01*
X28776979Y-32380990D02*
X28729360Y-32333371D01*
X28729360Y-32333371D02*
X28681741Y-32238133D01*
X28681741Y-32238133D02*
X28681741Y-32142895D01*
X28681741Y-32142895D02*
X28729360Y-32047657D01*
X28729360Y-32047657D02*
X28776979Y-32000038D01*
X28776979Y-32000038D02*
X28872217Y-31952419D01*
X28872217Y-31952419D02*
X29110312Y-31952419D01*
X29110312Y-31952419D02*
X29253169Y-32000038D01*
X29681741Y-32952419D02*
X29681741Y-31952419D01*
X28180074Y-47152419D02*
X27703884Y-47152419D01*
X27703884Y-47152419D02*
X27656265Y-47628609D01*
X27656265Y-47628609D02*
X27703884Y-47580990D01*
X27703884Y-47580990D02*
X27799122Y-47533371D01*
X27799122Y-47533371D02*
X28037217Y-47533371D01*
X28037217Y-47533371D02*
X28132455Y-47580990D01*
X28132455Y-47580990D02*
X28180074Y-47628609D01*
X28180074Y-47628609D02*
X28227693Y-47723847D01*
X28227693Y-47723847D02*
X28227693Y-47961942D01*
X28227693Y-47961942D02*
X28180074Y-48057180D01*
X28180074Y-48057180D02*
X28132455Y-48104800D01*
X28132455Y-48104800D02*
X28037217Y-48152419D01*
X28037217Y-48152419D02*
X27799122Y-48152419D01*
X27799122Y-48152419D02*
X27703884Y-48104800D01*
X27703884Y-48104800D02*
X27656265Y-48057180D01*
X28513408Y-47152419D02*
X28846741Y-48152419D01*
X28846741Y-48152419D02*
X29180074Y-47152419D01*
X26538884Y-30552419D02*
X26538884Y-29552419D01*
X26538884Y-29552419D02*
X26872217Y-30266704D01*
X26872217Y-30266704D02*
X27205550Y-29552419D01*
X27205550Y-29552419D02*
X27205550Y-30552419D01*
X27681741Y-30552419D02*
X27681741Y-29552419D01*
X28110312Y-30504800D02*
X28253169Y-30552419D01*
X28253169Y-30552419D02*
X28491264Y-30552419D01*
X28491264Y-30552419D02*
X28586502Y-30504800D01*
X28586502Y-30504800D02*
X28634121Y-30457180D01*
X28634121Y-30457180D02*
X28681740Y-30361942D01*
X28681740Y-30361942D02*
X28681740Y-30266704D01*
X28681740Y-30266704D02*
X28634121Y-30171466D01*
X28634121Y-30171466D02*
X28586502Y-30123847D01*
X28586502Y-30123847D02*
X28491264Y-30076228D01*
X28491264Y-30076228D02*
X28300788Y-30028609D01*
X28300788Y-30028609D02*
X28205550Y-29980990D01*
X28205550Y-29980990D02*
X28157931Y-29933371D01*
X28157931Y-29933371D02*
X28110312Y-29838133D01*
X28110312Y-29838133D02*
X28110312Y-29742895D01*
X28110312Y-29742895D02*
X28157931Y-29647657D01*
X28157931Y-29647657D02*
X28205550Y-29600038D01*
X28205550Y-29600038D02*
X28300788Y-29552419D01*
X28300788Y-29552419D02*
X28538883Y-29552419D01*
X28538883Y-29552419D02*
X28681740Y-29600038D01*
X29300788Y-29552419D02*
X29491264Y-29552419D01*
X29491264Y-29552419D02*
X29586502Y-29600038D01*
X29586502Y-29600038D02*
X29681740Y-29695276D01*
X29681740Y-29695276D02*
X29729359Y-29885752D01*
X29729359Y-29885752D02*
X29729359Y-30219085D01*
X29729359Y-30219085D02*
X29681740Y-30409561D01*
X29681740Y-30409561D02*
X29586502Y-30504800D01*
X29586502Y-30504800D02*
X29491264Y-30552419D01*
X29491264Y-30552419D02*
X29300788Y-30552419D01*
X29300788Y-30552419D02*
X29205550Y-30504800D01*
X29205550Y-30504800D02*
X29110312Y-30409561D01*
X29110312Y-30409561D02*
X29062693Y-30219085D01*
X29062693Y-30219085D02*
X29062693Y-29885752D01*
X29062693Y-29885752D02*
X29110312Y-29695276D01*
X29110312Y-29695276D02*
X29205550Y-29600038D01*
X29205550Y-29600038D02*
X29300788Y-29552419D01*
X26608646Y-44752419D02*
X27227693Y-44752419D01*
X27227693Y-44752419D02*
X26894360Y-45133371D01*
X26894360Y-45133371D02*
X27037217Y-45133371D01*
X27037217Y-45133371D02*
X27132455Y-45180990D01*
X27132455Y-45180990D02*
X27180074Y-45228609D01*
X27180074Y-45228609D02*
X27227693Y-45323847D01*
X27227693Y-45323847D02*
X27227693Y-45561942D01*
X27227693Y-45561942D02*
X27180074Y-45657180D01*
X27180074Y-45657180D02*
X27132455Y-45704800D01*
X27132455Y-45704800D02*
X27037217Y-45752419D01*
X27037217Y-45752419D02*
X26751503Y-45752419D01*
X26751503Y-45752419D02*
X26656265Y-45704800D01*
X26656265Y-45704800D02*
X26608646Y-45657180D01*
X27703884Y-45704800D02*
X27703884Y-45752419D01*
X27703884Y-45752419D02*
X27656265Y-45847657D01*
X27656265Y-45847657D02*
X27608646Y-45895276D01*
X28037217Y-44752419D02*
X28656264Y-44752419D01*
X28656264Y-44752419D02*
X28322931Y-45133371D01*
X28322931Y-45133371D02*
X28465788Y-45133371D01*
X28465788Y-45133371D02*
X28561026Y-45180990D01*
X28561026Y-45180990D02*
X28608645Y-45228609D01*
X28608645Y-45228609D02*
X28656264Y-45323847D01*
X28656264Y-45323847D02*
X28656264Y-45561942D01*
X28656264Y-45561942D02*
X28608645Y-45657180D01*
X28608645Y-45657180D02*
X28561026Y-45704800D01*
X28561026Y-45704800D02*
X28465788Y-45752419D01*
X28465788Y-45752419D02*
X28180074Y-45752419D01*
X28180074Y-45752419D02*
X28084836Y-45704800D01*
X28084836Y-45704800D02*
X28037217Y-45657180D01*
X28941979Y-44752419D02*
X29275312Y-45752419D01*
X29275312Y-45752419D02*
X29608645Y-44752419D01*
X41761027Y-18972419D02*
X42332455Y-18972419D01*
X42046741Y-19972419D02*
X42046741Y-18972419D01*
X42570551Y-18972419D02*
X43237217Y-19972419D01*
X43237217Y-18972419D02*
X42570551Y-19972419D01*
X43570551Y-19067657D02*
X43618170Y-19020038D01*
X43618170Y-19020038D02*
X43713408Y-18972419D01*
X43713408Y-18972419D02*
X43951503Y-18972419D01*
X43951503Y-18972419D02*
X44046741Y-19020038D01*
X44046741Y-19020038D02*
X44094360Y-19067657D01*
X44094360Y-19067657D02*
X44141979Y-19162895D01*
X44141979Y-19162895D02*
X44141979Y-19258133D01*
X44141979Y-19258133D02*
X44094360Y-19400990D01*
X44094360Y-19400990D02*
X43522932Y-19972419D01*
X43522932Y-19972419D02*
X44141979Y-19972419D01*
X27138884Y-22452419D02*
X27138884Y-21452419D01*
X27138884Y-21452419D02*
X27376979Y-21452419D01*
X27376979Y-21452419D02*
X27519836Y-21500038D01*
X27519836Y-21500038D02*
X27615074Y-21595276D01*
X27615074Y-21595276D02*
X27662693Y-21690514D01*
X27662693Y-21690514D02*
X27710312Y-21880990D01*
X27710312Y-21880990D02*
X27710312Y-22023847D01*
X27710312Y-22023847D02*
X27662693Y-22214323D01*
X27662693Y-22214323D02*
X27615074Y-22309561D01*
X27615074Y-22309561D02*
X27519836Y-22404800D01*
X27519836Y-22404800D02*
X27376979Y-22452419D01*
X27376979Y-22452419D02*
X27138884Y-22452419D01*
X28662693Y-22452419D02*
X28091265Y-22452419D01*
X28376979Y-22452419D02*
X28376979Y-21452419D01*
X28376979Y-21452419D02*
X28281741Y-21595276D01*
X28281741Y-21595276D02*
X28186503Y-21690514D01*
X28186503Y-21690514D02*
X28091265Y-21738133D01*
X29281741Y-21452419D02*
X29376979Y-21452419D01*
X29376979Y-21452419D02*
X29472217Y-21500038D01*
X29472217Y-21500038D02*
X29519836Y-21547657D01*
X29519836Y-21547657D02*
X29567455Y-21642895D01*
X29567455Y-21642895D02*
X29615074Y-21833371D01*
X29615074Y-21833371D02*
X29615074Y-22071466D01*
X29615074Y-22071466D02*
X29567455Y-22261942D01*
X29567455Y-22261942D02*
X29519836Y-22357180D01*
X29519836Y-22357180D02*
X29472217Y-22404800D01*
X29472217Y-22404800D02*
X29376979Y-22452419D01*
X29376979Y-22452419D02*
X29281741Y-22452419D01*
X29281741Y-22452419D02*
X29186503Y-22404800D01*
X29186503Y-22404800D02*
X29138884Y-22357180D01*
X29138884Y-22357180D02*
X29091265Y-22261942D01*
X29091265Y-22261942D02*
X29043646Y-22071466D01*
X29043646Y-22071466D02*
X29043646Y-21833371D01*
X29043646Y-21833371D02*
X29091265Y-21642895D01*
X29091265Y-21642895D02*
X29138884Y-21547657D01*
X29138884Y-21547657D02*
X29186503Y-21500038D01*
X29186503Y-21500038D02*
X29281741Y-21452419D01*
X42556265Y-40086704D02*
X43032455Y-40086704D01*
X42461027Y-40372419D02*
X42794360Y-39372419D01*
X42794360Y-39372419D02*
X43127693Y-40372419D01*
X43889598Y-39705752D02*
X43889598Y-40372419D01*
X43651503Y-39324800D02*
X43413408Y-40039085D01*
X43413408Y-40039085D02*
X44032455Y-40039085D01*
X27138884Y-27952419D02*
X27138884Y-26952419D01*
X27138884Y-26952419D02*
X27710312Y-27952419D01*
X27710312Y-27952419D02*
X27710312Y-26952419D01*
X28138884Y-27904800D02*
X28281741Y-27952419D01*
X28281741Y-27952419D02*
X28519836Y-27952419D01*
X28519836Y-27952419D02*
X28615074Y-27904800D01*
X28615074Y-27904800D02*
X28662693Y-27857180D01*
X28662693Y-27857180D02*
X28710312Y-27761942D01*
X28710312Y-27761942D02*
X28710312Y-27666704D01*
X28710312Y-27666704D02*
X28662693Y-27571466D01*
X28662693Y-27571466D02*
X28615074Y-27523847D01*
X28615074Y-27523847D02*
X28519836Y-27476228D01*
X28519836Y-27476228D02*
X28329360Y-27428609D01*
X28329360Y-27428609D02*
X28234122Y-27380990D01*
X28234122Y-27380990D02*
X28186503Y-27333371D01*
X28186503Y-27333371D02*
X28138884Y-27238133D01*
X28138884Y-27238133D02*
X28138884Y-27142895D01*
X28138884Y-27142895D02*
X28186503Y-27047657D01*
X28186503Y-27047657D02*
X28234122Y-27000038D01*
X28234122Y-27000038D02*
X28329360Y-26952419D01*
X28329360Y-26952419D02*
X28567455Y-26952419D01*
X28567455Y-26952419D02*
X28710312Y-27000038D01*
X29091265Y-27904800D02*
X29234122Y-27952419D01*
X29234122Y-27952419D02*
X29472217Y-27952419D01*
X29472217Y-27952419D02*
X29567455Y-27904800D01*
X29567455Y-27904800D02*
X29615074Y-27857180D01*
X29615074Y-27857180D02*
X29662693Y-27761942D01*
X29662693Y-27761942D02*
X29662693Y-27666704D01*
X29662693Y-27666704D02*
X29615074Y-27571466D01*
X29615074Y-27571466D02*
X29567455Y-27523847D01*
X29567455Y-27523847D02*
X29472217Y-27476228D01*
X29472217Y-27476228D02*
X29281741Y-27428609D01*
X29281741Y-27428609D02*
X29186503Y-27380990D01*
X29186503Y-27380990D02*
X29138884Y-27333371D01*
X29138884Y-27333371D02*
X29091265Y-27238133D01*
X29091265Y-27238133D02*
X29091265Y-27142895D01*
X29091265Y-27142895D02*
X29138884Y-27047657D01*
X29138884Y-27047657D02*
X29186503Y-27000038D01*
X29186503Y-27000038D02*
X29281741Y-26952419D01*
X29281741Y-26952419D02*
X29519836Y-26952419D01*
X29519836Y-26952419D02*
X29662693Y-27000038D01*
X27875312Y-40477180D02*
X27827693Y-40524800D01*
X27827693Y-40524800D02*
X27684836Y-40572419D01*
X27684836Y-40572419D02*
X27589598Y-40572419D01*
X27589598Y-40572419D02*
X27446741Y-40524800D01*
X27446741Y-40524800D02*
X27351503Y-40429561D01*
X27351503Y-40429561D02*
X27303884Y-40334323D01*
X27303884Y-40334323D02*
X27256265Y-40143847D01*
X27256265Y-40143847D02*
X27256265Y-40000990D01*
X27256265Y-40000990D02*
X27303884Y-39810514D01*
X27303884Y-39810514D02*
X27351503Y-39715276D01*
X27351503Y-39715276D02*
X27446741Y-39620038D01*
X27446741Y-39620038D02*
X27589598Y-39572419D01*
X27589598Y-39572419D02*
X27684836Y-39572419D01*
X27684836Y-39572419D02*
X27827693Y-39620038D01*
X27827693Y-39620038D02*
X27875312Y-39667657D01*
X28780074Y-40572419D02*
X28303884Y-40572419D01*
X28303884Y-40572419D02*
X28303884Y-39572419D01*
X29113408Y-40572419D02*
X29113408Y-39572419D01*
X29684836Y-40572419D02*
X29256265Y-40000990D01*
X29684836Y-39572419D02*
X29113408Y-40143847D01*
X27803884Y-42972419D02*
X27803884Y-41972419D01*
X27803884Y-41972419D02*
X28041979Y-41972419D01*
X28041979Y-41972419D02*
X28184836Y-42020038D01*
X28184836Y-42020038D02*
X28280074Y-42115276D01*
X28280074Y-42115276D02*
X28327693Y-42210514D01*
X28327693Y-42210514D02*
X28375312Y-42400990D01*
X28375312Y-42400990D02*
X28375312Y-42543847D01*
X28375312Y-42543847D02*
X28327693Y-42734323D01*
X28327693Y-42734323D02*
X28280074Y-42829561D01*
X28280074Y-42829561D02*
X28184836Y-42924800D01*
X28184836Y-42924800D02*
X28041979Y-42972419D01*
X28041979Y-42972419D02*
X27803884Y-42972419D01*
X28803884Y-42972419D02*
X28803884Y-41972419D01*
X29470550Y-41972419D02*
X29661026Y-41972419D01*
X29661026Y-41972419D02*
X29756264Y-42020038D01*
X29756264Y-42020038D02*
X29851502Y-42115276D01*
X29851502Y-42115276D02*
X29899121Y-42305752D01*
X29899121Y-42305752D02*
X29899121Y-42639085D01*
X29899121Y-42639085D02*
X29851502Y-42829561D01*
X29851502Y-42829561D02*
X29756264Y-42924800D01*
X29756264Y-42924800D02*
X29661026Y-42972419D01*
X29661026Y-42972419D02*
X29470550Y-42972419D01*
X29470550Y-42972419D02*
X29375312Y-42924800D01*
X29375312Y-42924800D02*
X29280074Y-42829561D01*
X29280074Y-42829561D02*
X29232455Y-42639085D01*
X29232455Y-42639085D02*
X29232455Y-42305752D01*
X29232455Y-42305752D02*
X29280074Y-42115276D01*
X29280074Y-42115276D02*
X29375312Y-42020038D01*
X29375312Y-42020038D02*
X29470550Y-41972419D01*
X42375312Y-22372419D02*
X42041979Y-21896228D01*
X41803884Y-22372419D02*
X41803884Y-21372419D01*
X41803884Y-21372419D02*
X42184836Y-21372419D01*
X42184836Y-21372419D02*
X42280074Y-21420038D01*
X42280074Y-21420038D02*
X42327693Y-21467657D01*
X42327693Y-21467657D02*
X42375312Y-21562895D01*
X42375312Y-21562895D02*
X42375312Y-21705752D01*
X42375312Y-21705752D02*
X42327693Y-21800990D01*
X42327693Y-21800990D02*
X42280074Y-21848609D01*
X42280074Y-21848609D02*
X42184836Y-21896228D01*
X42184836Y-21896228D02*
X41803884Y-21896228D01*
X42708646Y-21372419D02*
X43375312Y-22372419D01*
X43375312Y-21372419D02*
X42708646Y-22372419D01*
X43708646Y-21467657D02*
X43756265Y-21420038D01*
X43756265Y-21420038D02*
X43851503Y-21372419D01*
X43851503Y-21372419D02*
X44089598Y-21372419D01*
X44089598Y-21372419D02*
X44184836Y-21420038D01*
X44184836Y-21420038D02*
X44232455Y-21467657D01*
X44232455Y-21467657D02*
X44280074Y-21562895D01*
X44280074Y-21562895D02*
X44280074Y-21658133D01*
X44280074Y-21658133D02*
X44232455Y-21800990D01*
X44232455Y-21800990D02*
X43661027Y-22372419D01*
X43661027Y-22372419D02*
X44280074Y-22372419D01*
X42575312Y-27772419D02*
X42241979Y-27296228D01*
X42003884Y-27772419D02*
X42003884Y-26772419D01*
X42003884Y-26772419D02*
X42384836Y-26772419D01*
X42384836Y-26772419D02*
X42480074Y-26820038D01*
X42480074Y-26820038D02*
X42527693Y-26867657D01*
X42527693Y-26867657D02*
X42575312Y-26962895D01*
X42575312Y-26962895D02*
X42575312Y-27105752D01*
X42575312Y-27105752D02*
X42527693Y-27200990D01*
X42527693Y-27200990D02*
X42480074Y-27248609D01*
X42480074Y-27248609D02*
X42384836Y-27296228D01*
X42384836Y-27296228D02*
X42003884Y-27296228D01*
X42908646Y-26772419D02*
X43575312Y-27772419D01*
X43575312Y-26772419D02*
X42908646Y-27772419D01*
X44480074Y-27772419D02*
X43908646Y-27772419D01*
X44194360Y-27772419D02*
X44194360Y-26772419D01*
X44194360Y-26772419D02*
X44099122Y-26915276D01*
X44099122Y-26915276D02*
X44003884Y-27010514D01*
X44003884Y-27010514D02*
X43908646Y-27058133D01*
X42561027Y-32072419D02*
X43132455Y-32072419D01*
X42846741Y-33072419D02*
X42846741Y-32072419D01*
X43370551Y-32072419D02*
X44037217Y-33072419D01*
X44037217Y-32072419D02*
X43370551Y-33072419D01*
X43375312Y-35372419D02*
X43041979Y-34896228D01*
X42803884Y-35372419D02*
X42803884Y-34372419D01*
X42803884Y-34372419D02*
X43184836Y-34372419D01*
X43184836Y-34372419D02*
X43280074Y-34420038D01*
X43280074Y-34420038D02*
X43327693Y-34467657D01*
X43327693Y-34467657D02*
X43375312Y-34562895D01*
X43375312Y-34562895D02*
X43375312Y-34705752D01*
X43375312Y-34705752D02*
X43327693Y-34800990D01*
X43327693Y-34800990D02*
X43280074Y-34848609D01*
X43280074Y-34848609D02*
X43184836Y-34896228D01*
X43184836Y-34896228D02*
X42803884Y-34896228D01*
X43708646Y-34372419D02*
X44375312Y-35372419D01*
X44375312Y-34372419D02*
X43708646Y-35372419D01*
X42061027Y-24072419D02*
X42632455Y-24072419D01*
X42346741Y-25072419D02*
X42346741Y-24072419D01*
X42870551Y-24072419D02*
X43537217Y-25072419D01*
X43537217Y-24072419D02*
X42870551Y-25072419D01*
X44441979Y-25072419D02*
X43870551Y-25072419D01*
X44156265Y-25072419D02*
X44156265Y-24072419D01*
X44156265Y-24072419D02*
X44061027Y-24215276D01*
X44061027Y-24215276D02*
X43965789Y-24310514D01*
X43965789Y-24310514D02*
X43870551Y-24358133D01*
X27091265Y-25204800D02*
X27234122Y-25252419D01*
X27234122Y-25252419D02*
X27472217Y-25252419D01*
X27472217Y-25252419D02*
X27567455Y-25204800D01*
X27567455Y-25204800D02*
X27615074Y-25157180D01*
X27615074Y-25157180D02*
X27662693Y-25061942D01*
X27662693Y-25061942D02*
X27662693Y-24966704D01*
X27662693Y-24966704D02*
X27615074Y-24871466D01*
X27615074Y-24871466D02*
X27567455Y-24823847D01*
X27567455Y-24823847D02*
X27472217Y-24776228D01*
X27472217Y-24776228D02*
X27281741Y-24728609D01*
X27281741Y-24728609D02*
X27186503Y-24680990D01*
X27186503Y-24680990D02*
X27138884Y-24633371D01*
X27138884Y-24633371D02*
X27091265Y-24538133D01*
X27091265Y-24538133D02*
X27091265Y-24442895D01*
X27091265Y-24442895D02*
X27138884Y-24347657D01*
X27138884Y-24347657D02*
X27186503Y-24300038D01*
X27186503Y-24300038D02*
X27281741Y-24252419D01*
X27281741Y-24252419D02*
X27519836Y-24252419D01*
X27519836Y-24252419D02*
X27662693Y-24300038D01*
X28662693Y-25157180D02*
X28615074Y-25204800D01*
X28615074Y-25204800D02*
X28472217Y-25252419D01*
X28472217Y-25252419D02*
X28376979Y-25252419D01*
X28376979Y-25252419D02*
X28234122Y-25204800D01*
X28234122Y-25204800D02*
X28138884Y-25109561D01*
X28138884Y-25109561D02*
X28091265Y-25014323D01*
X28091265Y-25014323D02*
X28043646Y-24823847D01*
X28043646Y-24823847D02*
X28043646Y-24680990D01*
X28043646Y-24680990D02*
X28091265Y-24490514D01*
X28091265Y-24490514D02*
X28138884Y-24395276D01*
X28138884Y-24395276D02*
X28234122Y-24300038D01*
X28234122Y-24300038D02*
X28376979Y-24252419D01*
X28376979Y-24252419D02*
X28472217Y-24252419D01*
X28472217Y-24252419D02*
X28615074Y-24300038D01*
X28615074Y-24300038D02*
X28662693Y-24347657D01*
X29091265Y-25252419D02*
X29091265Y-24252419D01*
X29662693Y-25252419D02*
X29234122Y-24680990D01*
X29662693Y-24252419D02*
X29091265Y-24823847D01*
X41456265Y-43324800D02*
X41599122Y-43372419D01*
X41599122Y-43372419D02*
X41837217Y-43372419D01*
X41837217Y-43372419D02*
X41932455Y-43324800D01*
X41932455Y-43324800D02*
X41980074Y-43277180D01*
X41980074Y-43277180D02*
X42027693Y-43181942D01*
X42027693Y-43181942D02*
X42027693Y-43086704D01*
X42027693Y-43086704D02*
X41980074Y-42991466D01*
X41980074Y-42991466D02*
X41932455Y-42943847D01*
X41932455Y-42943847D02*
X41837217Y-42896228D01*
X41837217Y-42896228D02*
X41646741Y-42848609D01*
X41646741Y-42848609D02*
X41551503Y-42800990D01*
X41551503Y-42800990D02*
X41503884Y-42753371D01*
X41503884Y-42753371D02*
X41456265Y-42658133D01*
X41456265Y-42658133D02*
X41456265Y-42562895D01*
X41456265Y-42562895D02*
X41503884Y-42467657D01*
X41503884Y-42467657D02*
X41551503Y-42420038D01*
X41551503Y-42420038D02*
X41646741Y-42372419D01*
X41646741Y-42372419D02*
X41884836Y-42372419D01*
X41884836Y-42372419D02*
X42027693Y-42420038D01*
X42456265Y-43372419D02*
X42456265Y-42372419D01*
X42456265Y-42372419D02*
X42694360Y-42372419D01*
X42694360Y-42372419D02*
X42837217Y-42420038D01*
X42837217Y-42420038D02*
X42932455Y-42515276D01*
X42932455Y-42515276D02*
X42980074Y-42610514D01*
X42980074Y-42610514D02*
X43027693Y-42800990D01*
X43027693Y-42800990D02*
X43027693Y-42943847D01*
X43027693Y-42943847D02*
X42980074Y-43134323D01*
X42980074Y-43134323D02*
X42932455Y-43229561D01*
X42932455Y-43229561D02*
X42837217Y-43324800D01*
X42837217Y-43324800D02*
X42694360Y-43372419D01*
X42694360Y-43372419D02*
X42456265Y-43372419D01*
X43408646Y-43086704D02*
X43884836Y-43086704D01*
X43313408Y-43372419D02*
X43646741Y-42372419D01*
X43646741Y-42372419D02*
X43980074Y-43372419D01*
X42803884Y-30372419D02*
X42803884Y-29372419D01*
X42803884Y-29372419D02*
X43041979Y-29372419D01*
X43041979Y-29372419D02*
X43184836Y-29420038D01*
X43184836Y-29420038D02*
X43280074Y-29515276D01*
X43280074Y-29515276D02*
X43327693Y-29610514D01*
X43327693Y-29610514D02*
X43375312Y-29800990D01*
X43375312Y-29800990D02*
X43375312Y-29943847D01*
X43375312Y-29943847D02*
X43327693Y-30134323D01*
X43327693Y-30134323D02*
X43280074Y-30229561D01*
X43280074Y-30229561D02*
X43184836Y-30324800D01*
X43184836Y-30324800D02*
X43041979Y-30372419D01*
X43041979Y-30372419D02*
X42803884Y-30372419D01*
X43994360Y-29372419D02*
X44089598Y-29372419D01*
X44089598Y-29372419D02*
X44184836Y-29420038D01*
X44184836Y-29420038D02*
X44232455Y-29467657D01*
X44232455Y-29467657D02*
X44280074Y-29562895D01*
X44280074Y-29562895D02*
X44327693Y-29753371D01*
X44327693Y-29753371D02*
X44327693Y-29991466D01*
X44327693Y-29991466D02*
X44280074Y-30181942D01*
X44280074Y-30181942D02*
X44232455Y-30277180D01*
X44232455Y-30277180D02*
X44184836Y-30324800D01*
X44184836Y-30324800D02*
X44089598Y-30372419D01*
X44089598Y-30372419D02*
X43994360Y-30372419D01*
X43994360Y-30372419D02*
X43899122Y-30324800D01*
X43899122Y-30324800D02*
X43851503Y-30277180D01*
X43851503Y-30277180D02*
X43803884Y-30181942D01*
X43803884Y-30181942D02*
X43756265Y-29991466D01*
X43756265Y-29991466D02*
X43756265Y-29753371D01*
X43756265Y-29753371D02*
X43803884Y-29562895D01*
X43803884Y-29562895D02*
X43851503Y-29467657D01*
X43851503Y-29467657D02*
X43899122Y-29420038D01*
X43899122Y-29420038D02*
X43994360Y-29372419D01*
D13*
X59253333Y-76754819D02*
X58920000Y-76278628D01*
X58681905Y-76754819D02*
X58681905Y-75754819D01*
X58681905Y-75754819D02*
X59062857Y-75754819D01*
X59062857Y-75754819D02*
X59158095Y-75802438D01*
X59158095Y-75802438D02*
X59205714Y-75850057D01*
X59205714Y-75850057D02*
X59253333Y-75945295D01*
X59253333Y-75945295D02*
X59253333Y-76088152D01*
X59253333Y-76088152D02*
X59205714Y-76183390D01*
X59205714Y-76183390D02*
X59158095Y-76231009D01*
X59158095Y-76231009D02*
X59062857Y-76278628D01*
X59062857Y-76278628D02*
X58681905Y-76278628D01*
X60205714Y-76754819D02*
X59634286Y-76754819D01*
X59920000Y-76754819D02*
X59920000Y-75754819D01*
X59920000Y-75754819D02*
X59824762Y-75897676D01*
X59824762Y-75897676D02*
X59729524Y-75992914D01*
X59729524Y-75992914D02*
X59634286Y-76040533D01*
X62380952Y-77954819D02*
X61809524Y-77954819D01*
X62095238Y-77954819D02*
X62095238Y-76954819D01*
X62095238Y-76954819D02*
X62000000Y-77097676D01*
X62000000Y-77097676D02*
X61904762Y-77192914D01*
X61904762Y-77192914D02*
X61809524Y-77240533D01*
X63000000Y-76954819D02*
X63095238Y-76954819D01*
X63095238Y-76954819D02*
X63190476Y-77002438D01*
X63190476Y-77002438D02*
X63238095Y-77050057D01*
X63238095Y-77050057D02*
X63285714Y-77145295D01*
X63285714Y-77145295D02*
X63333333Y-77335771D01*
X63333333Y-77335771D02*
X63333333Y-77573866D01*
X63333333Y-77573866D02*
X63285714Y-77764342D01*
X63285714Y-77764342D02*
X63238095Y-77859580D01*
X63238095Y-77859580D02*
X63190476Y-77907200D01*
X63190476Y-77907200D02*
X63095238Y-77954819D01*
X63095238Y-77954819D02*
X63000000Y-77954819D01*
X63000000Y-77954819D02*
X62904762Y-77907200D01*
X62904762Y-77907200D02*
X62857143Y-77859580D01*
X62857143Y-77859580D02*
X62809524Y-77764342D01*
X62809524Y-77764342D02*
X62761905Y-77573866D01*
X62761905Y-77573866D02*
X62761905Y-77335771D01*
X62761905Y-77335771D02*
X62809524Y-77145295D01*
X62809524Y-77145295D02*
X62857143Y-77050057D01*
X62857143Y-77050057D02*
X62904762Y-77002438D01*
X62904762Y-77002438D02*
X63000000Y-76954819D01*
X63761905Y-77954819D02*
X63761905Y-76954819D01*
X63857143Y-77573866D02*
X64142857Y-77954819D01*
X64142857Y-77288152D02*
X63761905Y-77669104D01*
X65523810Y-76954819D02*
X65714286Y-76954819D01*
X65714286Y-76954819D02*
X65809524Y-77002438D01*
X65809524Y-77002438D02*
X65904762Y-77097676D01*
X65904762Y-77097676D02*
X65952381Y-77288152D01*
X65952381Y-77288152D02*
X65952381Y-77621485D01*
X65952381Y-77621485D02*
X65904762Y-77811961D01*
X65904762Y-77811961D02*
X65809524Y-77907200D01*
X65809524Y-77907200D02*
X65714286Y-77954819D01*
X65714286Y-77954819D02*
X65523810Y-77954819D01*
X65523810Y-77954819D02*
X65428572Y-77907200D01*
X65428572Y-77907200D02*
X65333334Y-77811961D01*
X65333334Y-77811961D02*
X65285715Y-77621485D01*
X65285715Y-77621485D02*
X65285715Y-77288152D01*
X65285715Y-77288152D02*
X65333334Y-77097676D01*
X65333334Y-77097676D02*
X65428572Y-77002438D01*
X65428572Y-77002438D02*
X65523810Y-76954819D01*
X66380953Y-77954819D02*
X66380953Y-76954819D01*
X66809524Y-77954819D02*
X66809524Y-77431009D01*
X66809524Y-77431009D02*
X66761905Y-77335771D01*
X66761905Y-77335771D02*
X66666667Y-77288152D01*
X66666667Y-77288152D02*
X66523810Y-77288152D01*
X66523810Y-77288152D02*
X66428572Y-77335771D01*
X66428572Y-77335771D02*
X66380953Y-77383390D01*
X67285715Y-77954819D02*
X67285715Y-77288152D01*
X67285715Y-77383390D02*
X67333334Y-77335771D01*
X67333334Y-77335771D02*
X67428572Y-77288152D01*
X67428572Y-77288152D02*
X67571429Y-77288152D01*
X67571429Y-77288152D02*
X67666667Y-77335771D01*
X67666667Y-77335771D02*
X67714286Y-77431009D01*
X67714286Y-77431009D02*
X67714286Y-77954819D01*
X67714286Y-77431009D02*
X67761905Y-77335771D01*
X67761905Y-77335771D02*
X67857143Y-77288152D01*
X67857143Y-77288152D02*
X68000000Y-77288152D01*
X68000000Y-77288152D02*
X68095239Y-77335771D01*
X68095239Y-77335771D02*
X68142858Y-77431009D01*
X68142858Y-77431009D02*
X68142858Y-77954819D01*
D14*
%TO.C,R2*%
X20300000Y-36200000D02*
X19680000Y-36200000D01*
X22140000Y-36200000D02*
G75*
G02*
X20300000Y-36200000I-920000J0D01*
G01*
X20300000Y-36200000D02*
G75*
G02*
X22140000Y-36200000I920000J0D01*
G01*
%TO.C,REF\u002A\u002A*%
X34030000Y-46340000D02*
X34030000Y-18340000D01*
X36690000Y-18340000D02*
X34030000Y-18340000D01*
X36690000Y-46340000D02*
X34030000Y-46340000D01*
X36690000Y-46340000D02*
X36690000Y-18340000D01*
X36690000Y-47610000D02*
X36690000Y-48940000D01*
X36690000Y-48940000D02*
X35360000Y-48940000D01*
%TO.C,TURB1*%
X76120000Y-42580000D02*
X77500000Y-42580000D01*
X76120000Y-43960000D02*
X76120000Y-42580000D01*
X76120000Y-45230000D02*
X76120000Y-50420000D01*
X76120000Y-45230000D02*
X78880000Y-45230000D01*
X76120000Y-50420000D02*
X78880000Y-50420000D01*
X78880000Y-45230000D02*
X78880000Y-50420000D01*
%TO.C,R4*%
X22100000Y-27700000D02*
X22100000Y-27080000D01*
X23020000Y-28620000D02*
G75*
G02*
X21180000Y-28620000I-920000J0D01*
G01*
X21180000Y-28620000D02*
G75*
G02*
X23020000Y-28620000I920000J0D01*
G01*
%TO.C,PH1*%
X76120000Y-29580000D02*
X77500000Y-29580000D01*
X76120000Y-30960000D02*
X76120000Y-29580000D01*
X76120000Y-32230000D02*
X76120000Y-37420000D01*
X76120000Y-32230000D02*
X78880000Y-32230000D01*
X76120000Y-37420000D02*
X78880000Y-37420000D01*
X78880000Y-32230000D02*
X78880000Y-37420000D01*
%TO.C,R3*%
X18700000Y-27250000D02*
X18700000Y-26630000D01*
X19620000Y-28170000D02*
G75*
G02*
X17780000Y-28170000I-920000J0D01*
G01*
X17780000Y-28170000D02*
G75*
G02*
X19620000Y-28170000I920000J0D01*
G01*
%TO.C,MF1*%
X61580000Y-26880000D02*
X61580000Y-25500000D01*
X62960000Y-26880000D02*
X61580000Y-26880000D01*
X64230000Y-24120000D02*
X71960000Y-24120000D01*
X64230000Y-26880000D02*
X64230000Y-24120000D01*
X64230000Y-26880000D02*
X71960000Y-26880000D01*
X71960000Y-26880000D02*
X71960000Y-24120000D01*
%TO.C,Wio1*%
X30305000Y-46360000D02*
X30305000Y-18360000D01*
X32965000Y-18360000D02*
X30305000Y-18360000D01*
X32965000Y-46360000D02*
X30305000Y-46360000D01*
X32965000Y-46360000D02*
X32965000Y-18360000D01*
X32965000Y-47630000D02*
X32965000Y-48960000D01*
X32965000Y-48960000D02*
X31635000Y-48960000D01*
X48070000Y-46340000D02*
X48070000Y-18340000D01*
X48070000Y-48940000D02*
X48070000Y-47610000D01*
X49400000Y-48940000D02*
X48070000Y-48940000D01*
X50730000Y-18340000D02*
X48070000Y-18340000D01*
X50730000Y-46340000D02*
X48070000Y-46340000D01*
X50730000Y-46340000D02*
X50730000Y-18340000D01*
%TO.C,R1*%
X59200000Y-78000000D02*
X59820000Y-78000000D01*
X59200000Y-78000000D02*
G75*
G02*
X57360000Y-78000000I-920000J0D01*
G01*
X57360000Y-78000000D02*
G75*
G02*
X59200000Y-78000000I920000J0D01*
G01*
%TD*%
M02*
