%TF.GenerationSoftware,KiCad,Pcbnew,9.0.8*%
%TF.CreationDate,2026-03-24T12:44:55+01:00*%
%TF.ProjectId,moored_PCB,6d6f6f72-6564-45f5-9043-422e6b696361,1*%
%TF.SameCoordinates,Original*%
%TF.FileFunction,Copper,L2,Bot*%
%TF.FilePolarity,Positive*%
%FSLAX46Y46*%
G04 Gerber Fmt 4.6, Leading zero omitted, Abs format (unit mm)*
G04 Created by KiCad (PCBNEW 9.0.8) date 2026-03-24 12:44:55*
%MOMM*%
%LPD*%
G01*
G04 APERTURE LIST*
%TA.AperFunction,ComponentPad*%
%ADD10O,1.700000X1.700000*%
%TD*%
%TA.AperFunction,ComponentPad*%
%ADD11R,1.700000X1.700000*%
%TD*%
%TA.AperFunction,ComponentPad*%
%ADD12C,1.400000*%
%TD*%
%TA.AperFunction,ComponentPad*%
%ADD13O,1.400000X1.400000*%
%TD*%
%TA.AperFunction,ComponentPad*%
%ADD14C,1.700000*%
%TD*%
%TA.AperFunction,ViaPad*%
%ADD15C,0.600000*%
%TD*%
%TA.AperFunction,Conductor*%
%ADD16C,0.500000*%
%TD*%
%TA.AperFunction,Conductor*%
%ADD17C,0.300000*%
%TD*%
%TA.AperFunction,Conductor*%
%ADD18C,0.200000*%
%TD*%
%TA.AperFunction,Conductor*%
%ADD19C,0.400000*%
%TD*%
G04 APERTURE END LIST*
D10*
%TO.P,,*%
%TO.N,*%
X18500000Y-13500000D03*
%TD*%
%TO.P,,A7,DIO*%
%TO.N,DIO*%
X22000000Y-49300000D03*
%TD*%
D11*
%TO.P,DS18B20,Gn,GND*%
%TO.N,GND*%
X24000000Y-31300000D03*
D10*
%TO.P,DS18B20,TD,D*%
%TO.N,Net-(DS18B20-D)*%
X18960000Y-31300000D03*
%TO.P,DS18B20,TV,Vin*%
%TO.N,Net-(DS18B20-Vin)*%
X21500000Y-31300000D03*
%TD*%
D11*
%TO.P,,Gn,GND*%
%TO.N,GND*%
X22000000Y-51800000D03*
%TD*%
D12*
%TO.P,R2,1*%
%TO.N,Net-(DS18B20-Vin)*%
X21220000Y-36200000D03*
D13*
%TO.P,R2,2*%
%TO.N,Net-(DS18B20-D)*%
X18680000Y-36200000D03*
%TD*%
D10*
%TO.P,,CLK,CLK*%
%TO.N,CLK*%
X22100000Y-47000000D03*
%TD*%
%TO.P,REF\u002A\u002A,1*%
%TO.N,unconnected-(Wio1-Pad5V)*%
X35360000Y-47610000D03*
%TO.P,REF\u002A\u002A,2*%
%TO.N,3V*%
X35360000Y-45070000D03*
%TO.P,REF\u002A\u002A,3*%
%TO.N,DIO*%
X35360000Y-42530000D03*
%TO.P,REF\u002A\u002A,4*%
%TO.N,CLK*%
X35360000Y-39990000D03*
%TO.P,REF\u002A\u002A,5*%
%TO.N,RST*%
X35360000Y-37450000D03*
D11*
%TO.P,REF\u002A\u002A,6*%
%TO.N,GND*%
X35360000Y-34910000D03*
D10*
%TO.P,REF\u002A\u002A,7*%
%TO.N,Net-(SD_card_reader1-DI)*%
X35360000Y-32370000D03*
%TO.P,REF\u002A\u002A,8*%
%TO.N,Net-(SD_card_reader1-DO)*%
X35360000Y-29830000D03*
%TO.P,REF\u002A\u002A,9*%
%TO.N,Net-(SD_card_reader1-CS)*%
X35360000Y-27290000D03*
%TO.P,REF\u002A\u002A,10*%
%TO.N,Net-(SD_card_reader1-CLK)*%
X35360000Y-24750000D03*
%TO.P,REF\u002A\u002A,11*%
%TO.N,Net-(R4-Pad2)*%
X35360000Y-22210000D03*
%TO.P,REF\u002A\u002A,12*%
%TO.N,Net-(R3-Pad2)*%
X35360000Y-19670000D03*
%TD*%
D11*
%TO.P,TURB1,1*%
%TO.N,unconnected-(GPS1-PPS-Pad7G)*%
X77500000Y-43960000D03*
D14*
%TO.P,TURB1,2*%
%TO.N,3V*%
X77500000Y-46500000D03*
%TO.P,TURB1,3*%
%TO.N,unconnected-(Wio1-PadA4)*%
X77500000Y-49040000D03*
%TD*%
D10*
%TO.P,,*%
%TO.N,*%
X80000000Y-13500000D03*
%TD*%
D12*
%TO.P,R4,1*%
%TO.N,Net-(DS18B20-Vin)*%
X22100000Y-28620000D03*
D13*
%TO.P,R4,2*%
%TO.N,Net-(R4-Pad2)*%
X22100000Y-26080000D03*
%TD*%
D10*
%TO.P,Pololu1,3V,Vout*%
%TO.N,3V*%
X31450000Y-68000000D03*
D11*
%TO.P,Pololu1,Gn,GND*%
%TO.N,GND*%
X28950000Y-68000000D03*
D10*
%TO.P,Pololu1,PSH,SHDN*%
%TO.N,unconnected-(Pololu1-SHDN-PadPSH)*%
X23950000Y-68000000D03*
%TO.P,Pololu1,Pin,Vin*%
%TO.N,Net-(Pololu1-Vin)*%
X26490000Y-68000000D03*
%TD*%
%TO.P,SW1,1,1*%
%TO.N,Net-(Pololu1-Vin)*%
X26000000Y-72500000D03*
%TO.P,SW1,2,2*%
%TO.N,+BATT*%
X26000000Y-78100000D03*
%TD*%
D11*
%TO.P,PH1,1*%
%TO.N,unconnected-(GPS1-PPS-Pad7G)*%
X77500000Y-30960000D03*
D14*
%TO.P,PH1,2*%
%TO.N,3V*%
X77500000Y-33500000D03*
%TO.P,PH1,3*%
%TO.N,A3*%
X77500000Y-36040000D03*
%TD*%
D10*
%TO.P,,2,2*%
%TO.N,+BATT*%
X22500000Y-78000000D03*
%TD*%
D12*
%TO.P,R3,1*%
%TO.N,Net-(DS18B20-D)*%
X18700000Y-28170000D03*
D13*
%TO.P,R3,2*%
%TO.N,Net-(R3-Pad2)*%
X18700000Y-25630000D03*
%TD*%
D10*
%TO.P,GPS1,1G,3\u002C3V*%
%TO.N,unconnected-(GPS1-3\u002C3V-Pad1G)*%
X58320000Y-71500000D03*
%TO.P,GPS1,2G,EN*%
%TO.N,Net-(GPS1-EN)*%
X60880000Y-71500000D03*
%TO.P,GPS1,3G,VBAT*%
%TO.N,unconnected-(GPS1-VBAT-Pad3G)*%
X63420000Y-71500000D03*
%TO.P,GPS1,3V,VIN*%
%TO.N,3V*%
X76120000Y-71500000D03*
%TO.P,GPS1,4G,FIX*%
%TO.N,unconnected-(GPS1-FIX-Pad4G)*%
X65960000Y-71500000D03*
%TO.P,GPS1,5G,TX*%
%TO.N,Net-(GPS1-TX)*%
X68500000Y-71500000D03*
%TO.P,GPS1,6G,RX*%
%TO.N,Net-(GPS1-RX)*%
X71040000Y-71500000D03*
%TO.P,GPS1,7G,PPS*%
%TO.N,N/C*%
X78660000Y-71500000D03*
D11*
%TO.P,GPS1,Gn,GND*%
%TO.N,GND*%
X73620000Y-71500000D03*
%TD*%
%TO.P,MF1,1*%
%TO.N,GND*%
X62960000Y-25500000D03*
D14*
%TO.P,MF1,2*%
%TO.N,3V*%
X65500000Y-25500000D03*
%TO.P,MF1,3*%
%TO.N,Net-(R4-Pad2)*%
X68040000Y-25500000D03*
%TO.P,MF1,Out*%
%TO.N,unconnected-(GPS1-PPS-Pad7G)*%
X70580000Y-25500000D03*
%TD*%
D10*
%TO.P,,*%
%TO.N,*%
X80000000Y-78000000D03*
%TD*%
%TO.P,,RST,RST*%
%TO.N,RST*%
X22100000Y-44700000D03*
%TD*%
D11*
%TO.P,,Gn,GND*%
%TO.N,GND*%
X28700000Y-78100000D03*
%TD*%
D10*
%TO.P,Wio1,3V,3\u002C3V*%
%TO.N,3V*%
X31635000Y-45090000D03*
%TO.P,Wio1,5V,5V*%
%TO.N,unconnected-(Wio1-Pad5V)*%
X31635000Y-47630000D03*
%TO.P,Wio1,A0,SDA*%
%TO.N,unconnected-(Wio1-SDA-PadA0)*%
X49400000Y-42530000D03*
%TO.P,Wio1,A1,SCK*%
%TO.N,Net-(SD_card_reader1-CLK)*%
X31635000Y-24770000D03*
%TO.P,Wio1,A3,A3*%
%TO.N,A3*%
X49400000Y-37450000D03*
%TO.P,Wio1,A4,A4*%
%TO.N,unconnected-(Wio1-PadA4)*%
X49400000Y-39990000D03*
%TO.P,Wio1,A5,MOSI*%
%TO.N,Net-(SD_card_reader1-DI)*%
X31635000Y-32390000D03*
%TO.P,Wio1,A6,MISO*%
%TO.N,Net-(SD_card_reader1-DO)*%
X31635000Y-29850000D03*
%TO.P,Wio1,A7,DIO*%
%TO.N,DIO*%
X31635000Y-42550000D03*
%TO.P,Wio1,CLK,CLK*%
%TO.N,CLK*%
X31635000Y-40010000D03*
%TO.P,Wio1,D0,D0*%
%TO.N,Net-(GPS1-EN)*%
X49400000Y-29830000D03*
%TO.P,Wio1,D8,SCL*%
%TO.N,unconnected-(Wio1-SCL-PadD8)*%
X49400000Y-45070000D03*
%TO.P,Wio1,D9,D9*%
%TO.N,Net-(R3-Pad2)*%
X31635000Y-19690000D03*
%TO.P,Wio1,D10,D10*%
%TO.N,Net-(R4-Pad2)*%
X31635000Y-22230000D03*
D11*
%TO.P,Wio1,Gn,GND*%
%TO.N,GND*%
X31635000Y-34930000D03*
X49400000Y-47610000D03*
D10*
%TO.P,Wio1,NSS,NSS*%
%TO.N,Net-(SD_card_reader1-CS)*%
X31635000Y-27310000D03*
%TO.P,Wio1,RST,RST*%
%TO.N,RST*%
X31635000Y-37470000D03*
%TO.P,Wio1,RX0,RX*%
%TO.N,unconnected-(Wio1-RX-PadRX0)*%
X49400000Y-34910000D03*
%TO.P,Wio1,RX1,RX1*%
%TO.N,Net-(GPS1-TX)*%
X49400000Y-27290000D03*
%TO.P,Wio1,RX2,RX2*%
%TO.N,unconnected-(Wio1-PadRX2)*%
X49400000Y-22210000D03*
%TO.P,Wio1,TX0,TX*%
%TO.N,unconnected-(Wio1-TX-PadTX0)*%
X49400000Y-32370000D03*
%TO.P,Wio1,TX1,TX1*%
%TO.N,Net-(GPS1-RX)*%
X49400000Y-24750000D03*
%TO.P,Wio1,TX2,TX2*%
%TO.N,unconnected-(Wio1-PadTX2)*%
X49400000Y-19670000D03*
%TD*%
%TO.P,,*%
%TO.N,*%
X18500000Y-78000000D03*
%TD*%
D12*
%TO.P,R1,1*%
%TO.N,GND*%
X58280000Y-78000000D03*
D13*
%TO.P,R1,2*%
%TO.N,Net-(GPS1-EN)*%
X60820000Y-78000000D03*
%TD*%
D11*
%TO.P,RHS Wio pins,1*%
%TO.N,GND*%
X45500000Y-47600000D03*
D10*
%TO.P,RHS Wio pins,2*%
%TO.N,unconnected-(Wio1-SCL-PadD8)*%
X45500000Y-45060000D03*
%TO.P,RHS Wio pins,3*%
%TO.N,unconnected-(Wio1-SDA-PadA0)*%
X45500000Y-42520000D03*
%TO.P,RHS Wio pins,4*%
%TO.N,unconnected-(Wio1-PadA4)*%
X45500000Y-39980000D03*
%TO.P,RHS Wio pins,5*%
%TO.N,A3*%
X45500000Y-37440000D03*
%TO.P,RHS Wio pins,6*%
%TO.N,unconnected-(Wio1-RX-PadRX0)*%
X45500000Y-34900000D03*
%TO.P,RHS Wio pins,7*%
%TO.N,unconnected-(Wio1-TX-PadTX0)*%
X45500000Y-32360000D03*
%TO.P,RHS Wio pins,8*%
%TO.N,Net-(GPS1-EN)*%
X45500000Y-29820000D03*
%TO.P,RHS Wio pins,9*%
%TO.N,Net-(GPS1-TX)*%
X45500000Y-27280000D03*
%TO.P,RHS Wio pins,10*%
%TO.N,Net-(GPS1-RX)*%
X45500000Y-24740000D03*
%TO.P,RHS Wio pins,11*%
%TO.N,unconnected-(Wio1-PadRX2)*%
X45500000Y-22200000D03*
%TO.P,RHS Wio pins,12*%
%TO.N,unconnected-(Wio1-PadTX2)*%
X45500000Y-19660000D03*
%TD*%
%TO.P,SD_card_reader1,3V,3V*%
%TO.N,3V*%
X51200000Y-59620000D03*
%TO.P,SD_card_reader1,5V,5V*%
%TO.N,unconnected-(SD_card_reader1-Pad5V)*%
X51200000Y-57060000D03*
D11*
%TO.P,SD_card_reader1,Gn,GND*%
%TO.N,GND*%
X51180000Y-62180000D03*
D10*
%TO.P,SD_card_reader1,SDCD,CD*%
%TO.N,unconnected-(SD_card_reader1-CD-PadSDCD)*%
X51200000Y-74800000D03*
%TO.P,SD_card_reader1,SDCL,CLK*%
%TO.N,Net-(SD_card_reader1-CLK)*%
X51200000Y-64700000D03*
%TO.P,SD_card_reader1,SDCS,CS*%
%TO.N,Net-(SD_card_reader1-CS)*%
X51200000Y-72430000D03*
%TO.P,SD_card_reader1,SDDI,DI*%
%TO.N,Net-(SD_card_reader1-DI)*%
X51210000Y-69780000D03*
%TO.P,SD_card_reader1,SDDO,DO*%
%TO.N,Net-(SD_card_reader1-DO)*%
X51210000Y-67220000D03*
%TD*%
D15*
%TO.N,Net-(GPS1-EN)*%
X60500000Y-61000000D03*
X59500000Y-53000000D03*
%TO.N,Net-(SD_card_reader1-CLK)*%
X38200000Y-55300000D03*
X43100000Y-57900000D03*
%TO.N,Net-(SD_card_reader1-DI)*%
X26700000Y-37500000D03*
X33900000Y-61300000D03*
X43400000Y-65800000D03*
X19900000Y-47900000D03*
%TO.N,unconnected-(Wio1-PadA4)*%
X56500000Y-42000000D03*
X72000000Y-49500000D03*
%TO.N,Net-(GPS1-RX)*%
X65000000Y-52500000D03*
X70500000Y-57500000D03*
%TO.N,Net-(SD_card_reader1-CS)*%
X40900000Y-47000000D03*
X38080000Y-37220000D03*
%TO.N,Net-(SD_card_reader1-DO)*%
X30650000Y-63250000D03*
X43700000Y-61900000D03*
%TO.N,Net-(GPS1-TX)*%
X62000000Y-53000000D03*
X64500000Y-60500000D03*
%TO.N,DIO*%
X25500000Y-46800000D03*
X28950000Y-43850000D03*
%TO.N,RST*%
X26800000Y-40100000D03*
X24100000Y-42800000D03*
%TO.N,Net-(R3-Pad2)*%
X23960000Y-22360000D03*
X27500000Y-19690000D03*
%TO.N,Net-(R4-Pad2)*%
X25700000Y-25380000D03*
X50000000Y-17150000D03*
X28300000Y-23800000D03*
X59500000Y-17000000D03*
%TO.N,A3*%
X57000000Y-36500000D03*
X72000000Y-36000000D03*
%TD*%
D16*
%TO.N,GND*%
X56100000Y-64500000D02*
X55500000Y-65100000D01*
X73620000Y-68620000D02*
X69500000Y-64500000D01*
X49500000Y-78000000D02*
X31500000Y-78000000D01*
X73620000Y-71500000D02*
X73620000Y-68620000D01*
X54000000Y-76000000D02*
X51600000Y-78400000D01*
X31500000Y-78000000D02*
X28800000Y-78000000D01*
X52000000Y-46600000D02*
X50990000Y-47610000D01*
X55500000Y-74000000D02*
X55500000Y-74500000D01*
D17*
X35360000Y-34910000D02*
X31655000Y-34910000D01*
D16*
X55500000Y-74500000D02*
X54000000Y-76000000D01*
X55000000Y-46000000D02*
X54400000Y-46600000D01*
X52600000Y-62200000D02*
X54000000Y-60800000D01*
X54000000Y-76000000D02*
X56000000Y-78000000D01*
X45410000Y-47520000D02*
X49310000Y-47520000D01*
D17*
X24000000Y-31400000D02*
X27530000Y-34930000D01*
D16*
X55500000Y-65100000D02*
X52600000Y-62200000D01*
X54000000Y-52210000D02*
X52645000Y-50855000D01*
D17*
X62920000Y-25460000D02*
X62960000Y-25500000D01*
D16*
X49400000Y-47610000D02*
X52645000Y-50855000D01*
X62920000Y-25540000D02*
X55000000Y-33460000D01*
X21400000Y-60950000D02*
X21400000Y-51700000D01*
X69500000Y-64500000D02*
X56100000Y-64500000D01*
X54000000Y-60800000D02*
X54000000Y-58260000D01*
X52300000Y-62200000D02*
X52280000Y-62180000D01*
X54000000Y-58260000D02*
X54000000Y-52210000D01*
D18*
X28800000Y-78000000D02*
X28700000Y-78100000D01*
X52645000Y-50855000D02*
X52770000Y-50980000D01*
D16*
X55000000Y-33460000D02*
X55000000Y-46000000D01*
X55500000Y-74500000D02*
X55500000Y-65100000D01*
D18*
X49310000Y-47520000D02*
X49400000Y-47610000D01*
D17*
X27530000Y-34930000D02*
X31635000Y-34930000D01*
D16*
X54400000Y-46600000D02*
X52000000Y-46600000D01*
X52280000Y-62180000D02*
X51180000Y-62180000D01*
D17*
X62960000Y-25500000D02*
X62920000Y-25540000D01*
D16*
X56000000Y-78000000D02*
X58280000Y-78000000D01*
X49900000Y-78400000D02*
X49500000Y-78000000D01*
X52600000Y-62200000D02*
X52300000Y-62200000D01*
X28950000Y-68500000D02*
X21400000Y-60950000D01*
X28650000Y-78350000D02*
X28650000Y-68800000D01*
X51600000Y-78400000D02*
X49900000Y-78400000D01*
D17*
X24000000Y-31300000D02*
X23900000Y-31200000D01*
D16*
X50990000Y-47610000D02*
X49400000Y-47610000D01*
D18*
X28650000Y-68800000D02*
X28950000Y-68500000D01*
D16*
X28700000Y-78400000D02*
X28650000Y-78350000D01*
D18*
X31655000Y-34910000D02*
X31635000Y-34930000D01*
D17*
%TO.N,Net-(GPS1-EN)*%
X59500000Y-60000000D02*
X60500000Y-61000000D01*
X59500000Y-53000000D02*
X59500000Y-60000000D01*
%TO.N,Net-(SD_card_reader1-CLK)*%
X43100000Y-57900000D02*
X40800000Y-57900000D01*
X40800000Y-57900000D02*
X38200000Y-55300000D01*
%TO.N,Net-(SD_card_reader1-DI)*%
X35300000Y-62700000D02*
X40300000Y-62700000D01*
X19900000Y-44200000D02*
X19900000Y-47900000D01*
X26600000Y-37500000D02*
X19800000Y-44300000D01*
X26700000Y-37500000D02*
X26600000Y-37400000D01*
X33900000Y-61300000D02*
X35300000Y-62700000D01*
X26700000Y-37500000D02*
X26600000Y-37500000D01*
X40300000Y-62700000D02*
X43400000Y-65800000D01*
%TO.N,unconnected-(Wio1-PadA4)*%
X64000000Y-49500000D02*
X72000000Y-49500000D01*
X56500000Y-42000000D02*
X64000000Y-49500000D01*
D19*
%TO.N,unconnected-(GPS1-PPS-Pad7G)*%
X77500000Y-42500000D02*
X74000000Y-39000000D01*
X74040000Y-28960000D02*
X76000000Y-30920000D01*
X77500000Y-43960000D02*
X77500000Y-42500000D01*
X74000000Y-39000000D02*
X74000000Y-29000000D01*
D18*
X74000000Y-29000000D02*
X74040000Y-28960000D01*
D19*
X70580000Y-25500000D02*
X74040000Y-28960000D01*
X76000000Y-30920000D02*
X77500000Y-30920000D01*
D17*
%TO.N,Net-(GPS1-RX)*%
X65000000Y-52500000D02*
X70000000Y-57500000D01*
X70000000Y-57500000D02*
X70500000Y-57500000D01*
%TO.N,Net-(SD_card_reader1-CS)*%
X40900000Y-41510000D02*
X38080000Y-38690000D01*
X40900000Y-47000000D02*
X40900000Y-41510000D01*
X38080000Y-38690000D02*
X38080000Y-37220000D01*
%TO.N,Net-(SD_card_reader1-DO)*%
X43700000Y-61900000D02*
X42200000Y-60400000D01*
X33500000Y-60400000D02*
X30650000Y-63250000D01*
X42200000Y-60400000D02*
X33500000Y-60400000D01*
%TO.N,Net-(GPS1-TX)*%
X62000000Y-58000000D02*
X64500000Y-60500000D01*
X62000000Y-53000000D02*
X62000000Y-58000000D01*
D18*
%TO.N,DIO*%
X25500000Y-46800000D02*
X25500000Y-46700000D01*
X25500000Y-46700000D02*
X28350000Y-43850000D01*
X28350000Y-43850000D02*
X28950000Y-43850000D01*
%TO.N,RST*%
X26800000Y-40100000D02*
X26700000Y-40000000D01*
X26800000Y-40100000D02*
X24100000Y-42800000D01*
D17*
%TO.N,Net-(R3-Pad2)*%
X27500000Y-19690000D02*
X26630000Y-19690000D01*
X26630000Y-19690000D02*
X23960000Y-22360000D01*
%TO.N,Net-(R4-Pad2)*%
X26720000Y-25380000D02*
X28300000Y-23800000D01*
X50000000Y-17150000D02*
X59350000Y-17150000D01*
X25700000Y-25380000D02*
X26720000Y-25380000D01*
X59350000Y-17150000D02*
X59500000Y-17000000D01*
%TO.N,A3*%
X72000000Y-36000000D02*
X65000000Y-36000000D01*
X64500000Y-36500000D02*
X57000000Y-36500000D01*
X65000000Y-36000000D02*
X64500000Y-36500000D01*
%TD*%
%TA.AperFunction,Conductor*%
%TO.N,GND*%
G36*
X78549080Y-12651275D02*
G01*
X78551751Y-12650614D01*
X78582410Y-12661061D01*
X78613480Y-12670185D01*
X78615280Y-12672263D01*
X78617886Y-12673151D01*
X78638036Y-12698525D01*
X78659235Y-12722989D01*
X78659626Y-12725710D01*
X78661338Y-12727866D01*
X78664571Y-12760100D01*
X78669179Y-12792147D01*
X78668120Y-12795486D01*
X78668311Y-12797387D01*
X78656926Y-12830795D01*
X78609434Y-12924003D01*
X78536446Y-13148631D01*
X78499500Y-13381902D01*
X78499500Y-13618097D01*
X78536446Y-13851368D01*
X78609433Y-14075996D01*
X78716657Y-14286433D01*
X78855483Y-14477510D01*
X79022490Y-14644517D01*
X79213567Y-14783343D01*
X79296262Y-14825478D01*
X79424003Y-14890566D01*
X79424005Y-14890566D01*
X79424008Y-14890568D01*
X79544412Y-14929689D01*
X79648631Y-14963553D01*
X79881903Y-15000500D01*
X79881908Y-15000500D01*
X80118097Y-15000500D01*
X80351368Y-14963553D01*
X80575992Y-14890568D01*
X80786433Y-14783343D01*
X80822614Y-14757055D01*
X80888419Y-14733575D01*
X80956473Y-14749400D01*
X81005169Y-14799505D01*
X81019500Y-14857373D01*
X81019500Y-76642626D01*
X80999815Y-76709665D01*
X80947011Y-76755420D01*
X80877853Y-76765364D01*
X80822615Y-76742944D01*
X80786436Y-76716659D01*
X80786435Y-76716658D01*
X80786433Y-76716657D01*
X80699205Y-76672212D01*
X80575996Y-76609433D01*
X80351368Y-76536446D01*
X80118097Y-76499500D01*
X80118092Y-76499500D01*
X79881908Y-76499500D01*
X79881903Y-76499500D01*
X79648631Y-76536446D01*
X79424003Y-76609433D01*
X79213566Y-76716657D01*
X79120500Y-76784274D01*
X79022490Y-76855483D01*
X79022488Y-76855485D01*
X79022487Y-76855485D01*
X78855485Y-77022487D01*
X78855485Y-77022488D01*
X78855483Y-77022490D01*
X78811732Y-77082708D01*
X78716657Y-77213566D01*
X78609433Y-77424003D01*
X78536446Y-77648631D01*
X78499500Y-77881902D01*
X78499500Y-78118097D01*
X78536446Y-78351368D01*
X78609433Y-78575996D01*
X78676601Y-78707819D01*
X78716657Y-78786433D01*
X78764741Y-78852615D01*
X78788221Y-78918420D01*
X78772396Y-78986474D01*
X78722290Y-79035169D01*
X78664423Y-79049500D01*
X61767625Y-79049500D01*
X61700586Y-79029815D01*
X61654831Y-78977011D01*
X61644887Y-78907853D01*
X61673912Y-78844297D01*
X61679944Y-78837819D01*
X61735690Y-78782073D01*
X61846760Y-78629199D01*
X61932547Y-78460832D01*
X61990940Y-78281118D01*
X62002792Y-78206286D01*
X62020500Y-78094486D01*
X62020500Y-77905513D01*
X61990940Y-77718881D01*
X61932545Y-77539163D01*
X61857655Y-77392184D01*
X61846760Y-77370801D01*
X61735690Y-77217927D01*
X61602073Y-77084310D01*
X61449199Y-76973240D01*
X61393675Y-76944949D01*
X61280836Y-76887454D01*
X61101118Y-76829059D01*
X60914486Y-76799500D01*
X60914481Y-76799500D01*
X60725519Y-76799500D01*
X60725514Y-76799500D01*
X60538881Y-76829059D01*
X60359163Y-76887454D01*
X60190800Y-76973240D01*
X60103579Y-77036610D01*
X60037927Y-77084310D01*
X60037925Y-77084312D01*
X60037924Y-77084312D01*
X59904312Y-77217924D01*
X59904312Y-77217925D01*
X59904310Y-77217927D01*
X59860029Y-77278874D01*
X59793240Y-77370800D01*
X59707454Y-77539163D01*
X59667668Y-77661612D01*
X59628230Y-77719287D01*
X59563871Y-77746485D01*
X59495025Y-77734570D01*
X59443549Y-77687325D01*
X59431806Y-77661611D01*
X59392085Y-77539362D01*
X59306329Y-77371059D01*
X59287883Y-77345670D01*
X59287882Y-77345669D01*
X58633554Y-77999999D01*
X58633554Y-78000000D01*
X59287882Y-78654328D01*
X59287883Y-78654328D01*
X59306331Y-78628937D01*
X59392086Y-78460635D01*
X59431806Y-78338389D01*
X59471243Y-78280713D01*
X59535601Y-78253514D01*
X59604448Y-78265428D01*
X59655924Y-78312672D01*
X59667668Y-78338387D01*
X59707454Y-78460836D01*
X59778362Y-78600000D01*
X59793240Y-78629199D01*
X59904310Y-78782073D01*
X59904312Y-78782075D01*
X59960056Y-78837819D01*
X59993541Y-78899142D01*
X59988557Y-78968834D01*
X59946685Y-79024767D01*
X59881221Y-79049184D01*
X59872375Y-79049500D01*
X59027308Y-79049500D01*
X58960269Y-79029815D01*
X58939627Y-79013181D01*
X58280001Y-78353554D01*
X58280000Y-78353554D01*
X57620371Y-79013181D01*
X57559048Y-79046666D01*
X57532690Y-79049500D01*
X30174000Y-79049500D01*
X30106961Y-79029815D01*
X30061206Y-78977011D01*
X30050000Y-78925500D01*
X30050000Y-78350000D01*
X29133012Y-78350000D01*
X29165925Y-78292993D01*
X29200000Y-78165826D01*
X29200000Y-78034174D01*
X29165925Y-77907007D01*
X29165085Y-77905552D01*
X57080000Y-77905552D01*
X57080000Y-78094447D01*
X57109548Y-78281002D01*
X57167914Y-78460637D01*
X57253666Y-78628933D01*
X57272116Y-78654328D01*
X57926446Y-78000000D01*
X57926446Y-77999999D01*
X57880369Y-77953922D01*
X57930000Y-77953922D01*
X57930000Y-78046078D01*
X57953852Y-78135095D01*
X57999930Y-78214905D01*
X58065095Y-78280070D01*
X58144905Y-78326148D01*
X58233922Y-78350000D01*
X58326078Y-78350000D01*
X58415095Y-78326148D01*
X58494905Y-78280070D01*
X58560070Y-78214905D01*
X58606148Y-78135095D01*
X58630000Y-78046078D01*
X58630000Y-77953922D01*
X58606148Y-77864905D01*
X58560070Y-77785095D01*
X58494905Y-77719930D01*
X58415095Y-77673852D01*
X58326078Y-77650000D01*
X58233922Y-77650000D01*
X58144905Y-77673852D01*
X58065095Y-77719930D01*
X57999930Y-77785095D01*
X57953852Y-77864905D01*
X57930000Y-77953922D01*
X57880369Y-77953922D01*
X57272116Y-77345669D01*
X57272116Y-77345670D01*
X57253669Y-77371060D01*
X57167914Y-77539362D01*
X57109548Y-77718997D01*
X57080000Y-77905552D01*
X29165085Y-77905552D01*
X29133012Y-77850000D01*
X30050000Y-77850000D01*
X30050000Y-77202172D01*
X30049999Y-77202155D01*
X30043598Y-77142627D01*
X30043596Y-77142620D01*
X30021251Y-77082708D01*
X29993354Y-77007913D01*
X29993350Y-77007906D01*
X29981530Y-76992116D01*
X57625669Y-76992116D01*
X58280000Y-77646446D01*
X58280001Y-77646446D01*
X58934328Y-76992116D01*
X58908933Y-76973666D01*
X58740637Y-76887914D01*
X58561002Y-76829548D01*
X58374447Y-76800000D01*
X58185553Y-76800000D01*
X57998997Y-76829548D01*
X57819362Y-76887914D01*
X57651060Y-76973669D01*
X57625670Y-76992116D01*
X57625669Y-76992116D01*
X29981530Y-76992116D01*
X29907190Y-76892812D01*
X29907187Y-76892809D01*
X29792093Y-76806649D01*
X29792086Y-76806645D01*
X29657379Y-76756403D01*
X29657372Y-76756401D01*
X29597844Y-76750000D01*
X28950000Y-76750000D01*
X28950000Y-77666988D01*
X28892993Y-77634075D01*
X28765826Y-77600000D01*
X28634174Y-77600000D01*
X28507007Y-77634075D01*
X28450000Y-77666988D01*
X28450000Y-76750000D01*
X27802155Y-76750000D01*
X27742627Y-76756401D01*
X27742620Y-76756403D01*
X27607913Y-76806645D01*
X27607906Y-76806649D01*
X27492812Y-76892809D01*
X27492809Y-76892812D01*
X27406649Y-77007906D01*
X27406645Y-77007913D01*
X27356403Y-77142620D01*
X27356401Y-77142627D01*
X27350000Y-77202155D01*
X27350000Y-77278874D01*
X27330315Y-77345913D01*
X27277511Y-77391668D01*
X27208353Y-77401612D01*
X27144797Y-77372587D01*
X27125682Y-77351759D01*
X27030109Y-77220214D01*
X27030105Y-77220209D01*
X26879786Y-77069890D01*
X26707820Y-76944951D01*
X26518414Y-76848444D01*
X26518413Y-76848443D01*
X26518412Y-76848443D01*
X26316243Y-76782754D01*
X26316241Y-76782753D01*
X26316240Y-76782753D01*
X26154957Y-76757208D01*
X26106287Y-76749500D01*
X25893713Y-76749500D01*
X25845042Y-76757208D01*
X25683760Y-76782753D01*
X25481585Y-76848444D01*
X25292179Y-76944951D01*
X25120213Y-77069890D01*
X24969890Y-77220213D01*
X24844951Y-77392179D01*
X24748444Y-77581585D01*
X24682753Y-77783760D01*
X24663463Y-77905552D01*
X24649500Y-77993713D01*
X24649500Y-78206287D01*
X24682754Y-78416243D01*
X24697243Y-78460836D01*
X24748444Y-78618414D01*
X24844950Y-78807818D01*
X24877497Y-78852616D01*
X24900976Y-78918422D01*
X24885150Y-78986476D01*
X24835044Y-79035170D01*
X24777178Y-79049500D01*
X23650168Y-79049500D01*
X23583129Y-79029815D01*
X23537374Y-78977011D01*
X23527430Y-78907853D01*
X23549850Y-78852615D01*
X23604661Y-78777171D01*
X23655051Y-78707816D01*
X23751557Y-78518412D01*
X23817246Y-78316243D01*
X23850500Y-78106287D01*
X23850500Y-77893713D01*
X23817246Y-77683757D01*
X23751557Y-77481588D01*
X23655051Y-77292184D01*
X23655049Y-77292181D01*
X23655048Y-77292179D01*
X23530109Y-77120213D01*
X23379786Y-76969890D01*
X23207820Y-76844951D01*
X23018414Y-76748444D01*
X23018413Y-76748443D01*
X23018412Y-76748443D01*
X22816243Y-76682754D01*
X22816241Y-76682753D01*
X22816240Y-76682753D01*
X22654957Y-76657208D01*
X22606287Y-76649500D01*
X22393713Y-76649500D01*
X22345042Y-76657208D01*
X22183760Y-76682753D01*
X21981585Y-76748444D01*
X21792179Y-76844951D01*
X21620213Y-76969890D01*
X21469890Y-77120213D01*
X21344951Y-77292179D01*
X21248444Y-77481585D01*
X21182753Y-77683760D01*
X21149500Y-77893713D01*
X21149500Y-78106286D01*
X21179071Y-78292993D01*
X21182754Y-78316243D01*
X21248443Y-78518412D01*
X21299396Y-78618414D01*
X21344951Y-78707819D01*
X21450150Y-78852615D01*
X21473630Y-78918421D01*
X21457804Y-78986475D01*
X21407698Y-79035170D01*
X21349832Y-79049500D01*
X19835577Y-79049500D01*
X19768538Y-79029815D01*
X19722783Y-78977011D01*
X19712839Y-78907853D01*
X19735258Y-78852615D01*
X19783343Y-78786433D01*
X19890568Y-78575992D01*
X19963553Y-78351368D01*
X19965609Y-78338387D01*
X20000500Y-78118097D01*
X20000500Y-77881902D01*
X19963553Y-77648631D01*
X19890566Y-77424003D01*
X19823398Y-77292179D01*
X19783343Y-77213567D01*
X19644517Y-77022490D01*
X19477510Y-76855483D01*
X19286433Y-76716657D01*
X19075996Y-76609433D01*
X18851368Y-76536446D01*
X18618097Y-76499500D01*
X18618092Y-76499500D01*
X18381908Y-76499500D01*
X18381903Y-76499500D01*
X18148631Y-76536446D01*
X17924003Y-76609433D01*
X17800795Y-76672212D01*
X17732126Y-76685108D01*
X17667385Y-76658832D01*
X17627128Y-76601725D01*
X17620500Y-76561727D01*
X17620500Y-72393713D01*
X24649500Y-72393713D01*
X24649500Y-72606286D01*
X24679128Y-72793354D01*
X24682754Y-72816243D01*
X24693722Y-72850000D01*
X24748444Y-73018414D01*
X24844951Y-73207820D01*
X24969890Y-73379786D01*
X25120213Y-73530109D01*
X25292179Y-73655048D01*
X25292181Y-73655049D01*
X25292184Y-73655051D01*
X25481588Y-73751557D01*
X25683757Y-73817246D01*
X25893713Y-73850500D01*
X25893714Y-73850500D01*
X26106286Y-73850500D01*
X26106287Y-73850500D01*
X26316243Y-73817246D01*
X26518412Y-73751557D01*
X26707816Y-73655051D01*
X26762942Y-73615000D01*
X26879786Y-73530109D01*
X26879788Y-73530106D01*
X26879792Y-73530104D01*
X27030104Y-73379792D01*
X27030106Y-73379788D01*
X27030109Y-73379786D01*
X27155048Y-73207820D01*
X27155047Y-73207820D01*
X27155051Y-73207816D01*
X27251557Y-73018412D01*
X27317246Y-72816243D01*
X27350500Y-72606287D01*
X27350500Y-72393713D01*
X27317246Y-72183757D01*
X27251557Y-71981588D01*
X27155051Y-71792184D01*
X27155049Y-71792181D01*
X27155048Y-71792179D01*
X27030109Y-71620213D01*
X26879786Y-71469890D01*
X26707820Y-71344951D01*
X26518414Y-71248444D01*
X26518413Y-71248443D01*
X26518412Y-71248443D01*
X26316243Y-71182754D01*
X26316241Y-71182753D01*
X26316240Y-71182753D01*
X26154957Y-71157208D01*
X26106287Y-71149500D01*
X25893713Y-71149500D01*
X25845042Y-71157208D01*
X25683760Y-71182753D01*
X25481585Y-71248444D01*
X25292179Y-71344951D01*
X25120213Y-71469890D01*
X24969890Y-71620213D01*
X24844951Y-71792179D01*
X24748444Y-71981585D01*
X24682753Y-72183760D01*
X24649500Y-72393713D01*
X17620500Y-72393713D01*
X17620500Y-67893713D01*
X22599500Y-67893713D01*
X22599500Y-68106286D01*
X22622278Y-68250104D01*
X22632754Y-68316243D01*
X22694186Y-68505311D01*
X22698444Y-68518414D01*
X22794951Y-68707820D01*
X22919890Y-68879786D01*
X23070213Y-69030109D01*
X23242179Y-69155048D01*
X23242181Y-69155049D01*
X23242184Y-69155051D01*
X23431588Y-69251557D01*
X23633757Y-69317246D01*
X23843713Y-69350500D01*
X23843714Y-69350500D01*
X24056286Y-69350500D01*
X24056287Y-69350500D01*
X24266243Y-69317246D01*
X24468412Y-69251557D01*
X24657816Y-69155051D01*
X24744471Y-69092093D01*
X24829786Y-69030109D01*
X24829788Y-69030106D01*
X24829792Y-69030104D01*
X24980104Y-68879792D01*
X24980106Y-68879788D01*
X24980109Y-68879786D01*
X25105048Y-68707820D01*
X25105047Y-68707820D01*
X25105051Y-68707816D01*
X25109514Y-68699054D01*
X25157488Y-68648259D01*
X25225308Y-68631463D01*
X25291444Y-68653999D01*
X25330486Y-68699056D01*
X25334951Y-68707820D01*
X25459890Y-68879786D01*
X25610213Y-69030109D01*
X25782179Y-69155048D01*
X25782181Y-69155049D01*
X25782184Y-69155051D01*
X25971588Y-69251557D01*
X26173757Y-69317246D01*
X26383713Y-69350500D01*
X26383714Y-69350500D01*
X26596286Y-69350500D01*
X26596287Y-69350500D01*
X26806243Y-69317246D01*
X27008412Y-69251557D01*
X27197816Y-69155051D01*
X27284471Y-69092093D01*
X27369786Y-69030109D01*
X27369787Y-69030107D01*
X27369792Y-69030104D01*
X27425448Y-68974447D01*
X27486769Y-68940963D01*
X27556461Y-68945947D01*
X27612394Y-68987818D01*
X27629310Y-69018796D01*
X27656645Y-69092086D01*
X27656649Y-69092093D01*
X27742809Y-69207187D01*
X27742812Y-69207190D01*
X27857906Y-69293350D01*
X27857913Y-69293354D01*
X27992620Y-69343596D01*
X27992627Y-69343598D01*
X28052155Y-69349999D01*
X28052172Y-69350000D01*
X28700000Y-69350000D01*
X28700000Y-68433012D01*
X28757007Y-68465925D01*
X28884174Y-68500000D01*
X29015826Y-68500000D01*
X29142993Y-68465925D01*
X29200000Y-68433012D01*
X29200000Y-69350000D01*
X29847828Y-69350000D01*
X29847844Y-69349999D01*
X29907372Y-69343598D01*
X29907379Y-69343596D01*
X30042086Y-69293354D01*
X30042093Y-69293350D01*
X30157187Y-69207190D01*
X30157190Y-69207187D01*
X30243350Y-69092093D01*
X30243355Y-69092084D01*
X30281555Y-68989663D01*
X30323425Y-68933729D01*
X30388889Y-68909311D01*
X30457162Y-68924162D01*
X30485418Y-68945314D01*
X30570213Y-69030109D01*
X30742179Y-69155048D01*
X30742181Y-69155049D01*
X30742184Y-69155051D01*
X30931588Y-69251557D01*
X31133757Y-69317246D01*
X31343713Y-69350500D01*
X31343714Y-69350500D01*
X31556286Y-69350500D01*
X31556287Y-69350500D01*
X31766243Y-69317246D01*
X31968412Y-69251557D01*
X32157816Y-69155051D01*
X32244471Y-69092093D01*
X32329786Y-69030109D01*
X32329788Y-69030106D01*
X32329792Y-69030104D01*
X32480104Y-68879792D01*
X32480106Y-68879788D01*
X32480109Y-68879786D01*
X32605048Y-68707820D01*
X32605047Y-68707820D01*
X32605051Y-68707816D01*
X32701557Y-68518412D01*
X32767246Y-68316243D01*
X32800500Y-68106287D01*
X32800500Y-67893713D01*
X32767246Y-67683757D01*
X32701557Y-67481588D01*
X32605051Y-67292184D01*
X32605049Y-67292181D01*
X32605048Y-67292179D01*
X32480109Y-67120213D01*
X32329786Y-66969890D01*
X32157820Y-66844951D01*
X31968414Y-66748444D01*
X31968413Y-66748443D01*
X31968412Y-66748443D01*
X31766243Y-66682754D01*
X31766241Y-66682753D01*
X31766240Y-66682753D01*
X31604957Y-66657208D01*
X31556287Y-66649500D01*
X31343713Y-66649500D01*
X31295042Y-66657208D01*
X31133760Y-66682753D01*
X30931585Y-66748444D01*
X30742179Y-66844951D01*
X30570215Y-66969889D01*
X30485418Y-67054686D01*
X30424094Y-67088170D01*
X30354403Y-67083186D01*
X30298469Y-67041314D01*
X30281555Y-67010336D01*
X30243355Y-66907915D01*
X30243350Y-66907906D01*
X30157190Y-66792812D01*
X30157187Y-66792809D01*
X30042093Y-66706649D01*
X30042086Y-66706645D01*
X29907379Y-66656403D01*
X29907372Y-66656401D01*
X29847844Y-66650000D01*
X29200000Y-66650000D01*
X29200000Y-67566988D01*
X29142993Y-67534075D01*
X29015826Y-67500000D01*
X28884174Y-67500000D01*
X28757007Y-67534075D01*
X28700000Y-67566988D01*
X28700000Y-66650000D01*
X28052155Y-66650000D01*
X27992627Y-66656401D01*
X27992620Y-66656403D01*
X27857913Y-66706645D01*
X27857906Y-66706649D01*
X27742812Y-66792809D01*
X27742809Y-66792812D01*
X27656649Y-66907906D01*
X27656646Y-66907911D01*
X27629310Y-66981204D01*
X27587438Y-67037137D01*
X27521974Y-67061554D01*
X27453701Y-67046702D01*
X27425447Y-67025551D01*
X27369786Y-66969890D01*
X27197820Y-66844951D01*
X27008414Y-66748444D01*
X27008413Y-66748443D01*
X27008412Y-66748443D01*
X26806243Y-66682754D01*
X26806241Y-66682753D01*
X26806240Y-66682753D01*
X26644957Y-66657208D01*
X26596287Y-66649500D01*
X26383713Y-66649500D01*
X26335042Y-66657208D01*
X26173760Y-66682753D01*
X25971585Y-66748444D01*
X25782179Y-66844951D01*
X25610213Y-66969890D01*
X25459890Y-67120213D01*
X25334949Y-67292182D01*
X25330484Y-67300946D01*
X25282509Y-67351742D01*
X25214688Y-67368536D01*
X25148553Y-67345998D01*
X25109516Y-67300946D01*
X25105050Y-67292182D01*
X24980109Y-67120213D01*
X24829786Y-66969890D01*
X24657820Y-66844951D01*
X24468414Y-66748444D01*
X24468413Y-66748443D01*
X24468412Y-66748443D01*
X24266243Y-66682754D01*
X24266241Y-66682753D01*
X24266240Y-66682753D01*
X24104957Y-66657208D01*
X24056287Y-66649500D01*
X23843713Y-66649500D01*
X23795042Y-66657208D01*
X23633760Y-66682753D01*
X23431585Y-66748444D01*
X23242179Y-66844951D01*
X23070213Y-66969890D01*
X22919890Y-67120213D01*
X22794951Y-67292179D01*
X22698444Y-67481585D01*
X22632753Y-67683760D01*
X22599500Y-67893713D01*
X17620500Y-67893713D01*
X17620500Y-63171153D01*
X29849500Y-63171153D01*
X29849500Y-63328846D01*
X29880261Y-63483489D01*
X29880264Y-63483501D01*
X29940602Y-63629172D01*
X29940609Y-63629185D01*
X30028210Y-63760288D01*
X30028213Y-63760292D01*
X30139707Y-63871786D01*
X30139711Y-63871789D01*
X30270814Y-63959390D01*
X30270827Y-63959397D01*
X30416498Y-64019735D01*
X30416503Y-64019737D01*
X30571153Y-64050499D01*
X30571156Y-64050500D01*
X30571158Y-64050500D01*
X30728844Y-64050500D01*
X30728845Y-64050499D01*
X30883497Y-64019737D01*
X31029179Y-63959394D01*
X31160289Y-63871789D01*
X31271789Y-63760289D01*
X31359394Y-63629179D01*
X31419737Y-63483497D01*
X31433079Y-63416416D01*
X31465463Y-63354509D01*
X31466959Y-63352985D01*
X33063805Y-61756139D01*
X33125126Y-61722656D01*
X33194818Y-61727640D01*
X33250751Y-61769512D01*
X33254587Y-61774933D01*
X33278209Y-61810287D01*
X33278213Y-61810292D01*
X33389707Y-61921786D01*
X33389711Y-61921789D01*
X33520814Y-62009390D01*
X33520827Y-62009397D01*
X33608230Y-62045599D01*
X33666503Y-62069737D01*
X33733580Y-62083079D01*
X33795488Y-62115461D01*
X33797068Y-62117014D01*
X34885325Y-63205272D01*
X34885326Y-63205273D01*
X34885329Y-63205275D01*
X34885331Y-63205277D01*
X34991873Y-63276465D01*
X35110256Y-63325501D01*
X35110260Y-63325501D01*
X35110261Y-63325502D01*
X35235928Y-63350500D01*
X35235931Y-63350500D01*
X39979192Y-63350500D01*
X40046231Y-63370185D01*
X40066873Y-63386819D01*
X42582984Y-65902930D01*
X42616469Y-65964253D01*
X42616920Y-65966420D01*
X42630261Y-66033489D01*
X42630264Y-66033501D01*
X42690602Y-66179172D01*
X42690609Y-66179185D01*
X42778210Y-66310288D01*
X42778213Y-66310292D01*
X42889707Y-66421786D01*
X42889711Y-66421789D01*
X43020814Y-66509390D01*
X43020827Y-66509397D01*
X43166498Y-66569735D01*
X43166503Y-66569737D01*
X43321153Y-66600499D01*
X43321156Y-66600500D01*
X43321158Y-66600500D01*
X43478844Y-66600500D01*
X43478845Y-66600499D01*
X43633497Y-66569737D01*
X43772443Y-66512184D01*
X43779172Y-66509397D01*
X43779172Y-66509396D01*
X43779179Y-66509394D01*
X43910289Y-66421789D01*
X44021789Y-66310289D01*
X44109394Y-66179179D01*
X44169737Y-66033497D01*
X44200500Y-65878842D01*
X44200500Y-65721158D01*
X44200500Y-65721155D01*
X44200499Y-65721153D01*
X44169738Y-65566510D01*
X44169737Y-65566503D01*
X44169735Y-65566498D01*
X44109397Y-65420827D01*
X44109390Y-65420814D01*
X44021789Y-65289711D01*
X44021786Y-65289707D01*
X43910292Y-65178213D01*
X43910288Y-65178210D01*
X43779185Y-65090609D01*
X43779172Y-65090602D01*
X43633501Y-65030264D01*
X43633489Y-65030261D01*
X43566420Y-65016920D01*
X43504509Y-64984535D01*
X43502930Y-64982984D01*
X40714674Y-62194727D01*
X40714673Y-62194726D01*
X40623024Y-62133489D01*
X40608127Y-62123535D01*
X40489744Y-62074499D01*
X40465804Y-62069737D01*
X40438235Y-62064253D01*
X40364071Y-62049500D01*
X40364069Y-62049500D01*
X35620808Y-62049500D01*
X35553769Y-62029815D01*
X35533127Y-62013181D01*
X34782127Y-61262181D01*
X34748642Y-61200858D01*
X34753626Y-61131166D01*
X34795498Y-61075233D01*
X34860962Y-61050816D01*
X34869808Y-61050500D01*
X41879192Y-61050500D01*
X41946231Y-61070185D01*
X41966873Y-61086819D01*
X42882984Y-62002930D01*
X42916469Y-62064253D01*
X42916920Y-62066420D01*
X42930261Y-62133489D01*
X42930264Y-62133501D01*
X42990602Y-62279172D01*
X42990609Y-62279185D01*
X43078210Y-62410288D01*
X43078213Y-62410292D01*
X43189707Y-62521786D01*
X43189711Y-62521789D01*
X43320814Y-62609390D01*
X43320827Y-62609397D01*
X43366254Y-62628213D01*
X43466503Y-62669737D01*
X43621153Y-62700499D01*
X43621156Y-62700500D01*
X43621158Y-62700500D01*
X43778844Y-62700500D01*
X43778845Y-62700499D01*
X43933497Y-62669737D01*
X44079179Y-62609394D01*
X44210289Y-62521789D01*
X44321789Y-62410289D01*
X44350275Y-62367656D01*
X44388970Y-62309747D01*
X44409391Y-62279183D01*
X44409394Y-62279179D01*
X44469737Y-62133497D01*
X44500500Y-61978842D01*
X44500500Y-61821158D01*
X44500500Y-61821155D01*
X44500499Y-61821153D01*
X44481898Y-61727640D01*
X44469737Y-61666503D01*
X44451215Y-61621786D01*
X44409397Y-61520827D01*
X44409390Y-61520814D01*
X44321789Y-61389711D01*
X44321786Y-61389707D01*
X44214234Y-61282155D01*
X49830000Y-61282155D01*
X49830000Y-61930000D01*
X50746988Y-61930000D01*
X50714075Y-61987007D01*
X50680000Y-62114174D01*
X50680000Y-62245826D01*
X50714075Y-62372993D01*
X50746988Y-62430000D01*
X49830000Y-62430000D01*
X49830000Y-63077844D01*
X49836401Y-63137372D01*
X49836403Y-63137379D01*
X49886645Y-63272086D01*
X49886649Y-63272093D01*
X49972809Y-63387187D01*
X49972812Y-63387190D01*
X50087906Y-63473350D01*
X50087913Y-63473354D01*
X50219470Y-63522422D01*
X50275404Y-63564293D01*
X50299821Y-63629758D01*
X50284969Y-63698031D01*
X50263819Y-63726285D01*
X50169889Y-63820215D01*
X50044951Y-63992179D01*
X49948444Y-64181585D01*
X49882753Y-64383760D01*
X49849500Y-64593713D01*
X49849500Y-64806287D01*
X49882754Y-65016243D01*
X49935381Y-65178213D01*
X49948444Y-65218414D01*
X50044951Y-65407820D01*
X50169890Y-65579786D01*
X50320213Y-65730109D01*
X50492182Y-65855050D01*
X50496093Y-65857447D01*
X50542968Y-65909258D01*
X50554391Y-65978188D01*
X50526734Y-66042351D01*
X50504188Y-66063492D01*
X50330214Y-66189890D01*
X50330209Y-66189894D01*
X50179890Y-66340213D01*
X50054951Y-66512179D01*
X49958444Y-66701585D01*
X49958443Y-66701587D01*
X49958443Y-66701588D01*
X49928803Y-66792809D01*
X49892753Y-66903760D01*
X49859500Y-67113713D01*
X49859500Y-67326286D01*
X49892410Y-67534075D01*
X49892754Y-67536243D01*
X49943685Y-67692993D01*
X49958444Y-67738414D01*
X50054951Y-67927820D01*
X50179890Y-68099786D01*
X50330213Y-68250109D01*
X50502184Y-68375051D01*
X50502185Y-68375052D01*
X50530571Y-68389516D01*
X50581367Y-68437490D01*
X50598162Y-68505311D01*
X50575624Y-68571446D01*
X50530571Y-68610484D01*
X50502185Y-68624947D01*
X50502184Y-68624948D01*
X50330213Y-68749890D01*
X50179890Y-68900213D01*
X50054951Y-69072179D01*
X49958444Y-69261585D01*
X49892753Y-69463760D01*
X49859500Y-69673713D01*
X49859500Y-69886287D01*
X49892754Y-70096243D01*
X49956623Y-70292812D01*
X49958444Y-70298414D01*
X50054951Y-70487820D01*
X50179890Y-70659786D01*
X50330213Y-70810109D01*
X50437646Y-70888162D01*
X50502184Y-70935051D01*
X50593518Y-70981588D01*
X50613888Y-70991967D01*
X50664684Y-71039942D01*
X50681479Y-71107763D01*
X50658942Y-71173898D01*
X50613888Y-71212937D01*
X50492180Y-71274951D01*
X50320213Y-71399890D01*
X50169890Y-71550213D01*
X50044951Y-71722179D01*
X49948444Y-71911585D01*
X49882753Y-72113760D01*
X49849500Y-72323713D01*
X49849500Y-72536286D01*
X49876568Y-72707190D01*
X49882754Y-72746243D01*
X49916629Y-72850500D01*
X49948444Y-72948414D01*
X50044951Y-73137820D01*
X50169890Y-73309786D01*
X50320209Y-73460105D01*
X50320214Y-73460109D01*
X50395327Y-73514682D01*
X50437993Y-73570012D01*
X50443972Y-73639625D01*
X50411366Y-73701420D01*
X50395327Y-73715318D01*
X50320214Y-73769890D01*
X50320209Y-73769894D01*
X50169890Y-73920213D01*
X50044951Y-74092179D01*
X49948444Y-74281585D01*
X49882753Y-74483760D01*
X49849500Y-74693713D01*
X49849500Y-74906286D01*
X49882753Y-75116239D01*
X49948444Y-75318414D01*
X50044951Y-75507820D01*
X50169890Y-75679786D01*
X50320213Y-75830109D01*
X50492179Y-75955048D01*
X50492181Y-75955049D01*
X50492184Y-75955051D01*
X50681588Y-76051557D01*
X50883757Y-76117246D01*
X51093713Y-76150500D01*
X51093714Y-76150500D01*
X51306286Y-76150500D01*
X51306287Y-76150500D01*
X51516243Y-76117246D01*
X51718412Y-76051557D01*
X51907816Y-75955051D01*
X51929789Y-75939086D01*
X52079786Y-75830109D01*
X52079788Y-75830106D01*
X52079792Y-75830104D01*
X52230104Y-75679792D01*
X52230106Y-75679788D01*
X52230109Y-75679786D01*
X52355048Y-75507820D01*
X52355047Y-75507820D01*
X52355051Y-75507816D01*
X52451557Y-75318412D01*
X52517246Y-75116243D01*
X52550500Y-74906287D01*
X52550500Y-74693713D01*
X52517246Y-74483757D01*
X52451557Y-74281588D01*
X52355051Y-74092184D01*
X52355049Y-74092181D01*
X52355048Y-74092179D01*
X52230109Y-73920213D01*
X52079792Y-73769896D01*
X52054550Y-73751557D01*
X52004671Y-73715317D01*
X51962006Y-73659989D01*
X51956027Y-73590376D01*
X51988632Y-73528580D01*
X52004671Y-73514682D01*
X52079792Y-73460104D01*
X52230104Y-73309792D01*
X52230106Y-73309788D01*
X52230109Y-73309786D01*
X52355048Y-73137820D01*
X52355047Y-73137820D01*
X52355051Y-73137816D01*
X52451557Y-72948412D01*
X52517246Y-72746243D01*
X52550500Y-72536287D01*
X52550500Y-72323713D01*
X52517246Y-72113757D01*
X52451557Y-71911588D01*
X52355051Y-71722184D01*
X52355049Y-71722181D01*
X52355048Y-71722179D01*
X52230109Y-71550213D01*
X52079786Y-71399890D01*
X52071284Y-71393713D01*
X56969500Y-71393713D01*
X56969500Y-71606286D01*
X57002753Y-71816239D01*
X57068444Y-72018414D01*
X57164951Y-72207820D01*
X57289890Y-72379786D01*
X57440213Y-72530109D01*
X57612179Y-72655048D01*
X57612181Y-72655049D01*
X57612184Y-72655051D01*
X57801588Y-72751557D01*
X58003757Y-72817246D01*
X58213713Y-72850500D01*
X58213714Y-72850500D01*
X58426286Y-72850500D01*
X58426287Y-72850500D01*
X58636243Y-72817246D01*
X58838412Y-72751557D01*
X59027816Y-72655051D01*
X59049789Y-72639086D01*
X59199786Y-72530109D01*
X59199788Y-72530106D01*
X59199792Y-72530104D01*
X59350104Y-72379792D01*
X59350106Y-72379788D01*
X59350109Y-72379786D01*
X59475050Y-72207817D01*
X59489515Y-72179429D01*
X59537489Y-72128633D01*
X59605310Y-72111837D01*
X59671445Y-72134374D01*
X59710485Y-72179429D01*
X59724949Y-72207817D01*
X59849890Y-72379786D01*
X60000213Y-72530109D01*
X60172179Y-72655048D01*
X60172181Y-72655049D01*
X60172184Y-72655051D01*
X60361588Y-72751557D01*
X60563757Y-72817246D01*
X60773713Y-72850500D01*
X60773714Y-72850500D01*
X60986286Y-72850500D01*
X60986287Y-72850500D01*
X61196243Y-72817246D01*
X61398412Y-72751557D01*
X61587816Y-72655051D01*
X61609789Y-72639086D01*
X61759786Y-72530109D01*
X61759788Y-72530106D01*
X61759792Y-72530104D01*
X61910104Y-72379792D01*
X61910106Y-72379788D01*
X61910109Y-72379786D01*
X62035048Y-72207820D01*
X62035050Y-72207817D01*
X62035051Y-72207816D01*
X62039514Y-72199054D01*
X62087488Y-72148259D01*
X62155308Y-72131463D01*
X62221444Y-72153999D01*
X62260486Y-72199056D01*
X62264951Y-72207820D01*
X62389890Y-72379786D01*
X62540213Y-72530109D01*
X62712179Y-72655048D01*
X62712181Y-72655049D01*
X62712184Y-72655051D01*
X62901588Y-72751557D01*
X63103757Y-72817246D01*
X63313713Y-72850500D01*
X63313714Y-72850500D01*
X63526286Y-72850500D01*
X63526287Y-72850500D01*
X63736243Y-72817246D01*
X63938412Y-72751557D01*
X64127816Y-72655051D01*
X64149789Y-72639086D01*
X64299786Y-72530109D01*
X64299788Y-72530106D01*
X64299792Y-72530104D01*
X64450104Y-72379792D01*
X64450106Y-72379788D01*
X64450109Y-72379786D01*
X64575048Y-72207820D01*
X64575050Y-72207817D01*
X64575051Y-72207816D01*
X64579514Y-72199054D01*
X64627488Y-72148259D01*
X64695308Y-72131463D01*
X64761444Y-72153999D01*
X64800486Y-72199056D01*
X64804951Y-72207820D01*
X64929890Y-72379786D01*
X65080213Y-72530109D01*
X65252179Y-72655048D01*
X65252181Y-72655049D01*
X65252184Y-72655051D01*
X65441588Y-72751557D01*
X65643757Y-72817246D01*
X65853713Y-72850500D01*
X65853714Y-72850500D01*
X66066286Y-72850500D01*
X66066287Y-72850500D01*
X66276243Y-72817246D01*
X66478412Y-72751557D01*
X66667816Y-72655051D01*
X66689789Y-72639086D01*
X66839786Y-72530109D01*
X66839788Y-72530106D01*
X66839792Y-72530104D01*
X66990104Y-72379792D01*
X66990106Y-72379788D01*
X66990109Y-72379786D01*
X67115048Y-72207820D01*
X67115050Y-72207817D01*
X67115051Y-72207816D01*
X67119514Y-72199054D01*
X67167488Y-72148259D01*
X67235308Y-72131463D01*
X67301444Y-72153999D01*
X67340486Y-72199056D01*
X67344951Y-72207820D01*
X67469890Y-72379786D01*
X67620213Y-72530109D01*
X67792179Y-72655048D01*
X67792181Y-72655049D01*
X67792184Y-72655051D01*
X67981588Y-72751557D01*
X68183757Y-72817246D01*
X68393713Y-72850500D01*
X68393714Y-72850500D01*
X68606286Y-72850500D01*
X68606287Y-72850500D01*
X68816243Y-72817246D01*
X69018412Y-72751557D01*
X69207816Y-72655051D01*
X69229789Y-72639086D01*
X69379786Y-72530109D01*
X69379788Y-72530106D01*
X69379792Y-72530104D01*
X69530104Y-72379792D01*
X69530106Y-72379788D01*
X69530109Y-72379786D01*
X69655048Y-72207820D01*
X69655050Y-72207817D01*
X69655051Y-72207816D01*
X69659514Y-72199054D01*
X69707488Y-72148259D01*
X69775308Y-72131463D01*
X69841444Y-72153999D01*
X69880486Y-72199056D01*
X69884951Y-72207820D01*
X70009890Y-72379786D01*
X70160213Y-72530109D01*
X70332179Y-72655048D01*
X70332181Y-72655049D01*
X70332184Y-72655051D01*
X70521588Y-72751557D01*
X70723757Y-72817246D01*
X70933713Y-72850500D01*
X70933714Y-72850500D01*
X71146286Y-72850500D01*
X71146287Y-72850500D01*
X71356243Y-72817246D01*
X71558412Y-72751557D01*
X71747816Y-72655051D01*
X71834471Y-72592093D01*
X71919784Y-72530110D01*
X71919784Y-72530109D01*
X71919792Y-72530104D01*
X72065581Y-72384314D01*
X72126900Y-72350832D01*
X72196592Y-72355816D01*
X72252526Y-72397687D01*
X72273180Y-72450172D01*
X72274620Y-72449832D01*
X72276403Y-72457379D01*
X72326645Y-72592086D01*
X72326649Y-72592093D01*
X72412809Y-72707187D01*
X72412812Y-72707190D01*
X72527906Y-72793350D01*
X72527913Y-72793354D01*
X72662620Y-72843596D01*
X72662627Y-72843598D01*
X72722155Y-72849999D01*
X72722172Y-72850000D01*
X73370000Y-72850000D01*
X73370000Y-71933012D01*
X73427007Y-71965925D01*
X73554174Y-72000000D01*
X73685826Y-72000000D01*
X73812993Y-71965925D01*
X73870000Y-71933012D01*
X73870000Y-72850000D01*
X74517828Y-72850000D01*
X74517844Y-72849999D01*
X74577372Y-72843598D01*
X74577379Y-72843596D01*
X74712086Y-72793354D01*
X74712093Y-72793350D01*
X74827187Y-72707190D01*
X74827190Y-72707187D01*
X74913350Y-72592093D01*
X74913355Y-72592084D01*
X74951555Y-72489663D01*
X74993425Y-72433729D01*
X75058889Y-72409311D01*
X75127162Y-72424162D01*
X75155418Y-72445314D01*
X75240213Y-72530109D01*
X75412179Y-72655048D01*
X75412181Y-72655049D01*
X75412184Y-72655051D01*
X75601588Y-72751557D01*
X75803757Y-72817246D01*
X76013713Y-72850500D01*
X76013714Y-72850500D01*
X76226286Y-72850500D01*
X76226287Y-72850500D01*
X76436243Y-72817246D01*
X76638412Y-72751557D01*
X76827816Y-72655051D01*
X76849789Y-72639086D01*
X76999786Y-72530109D01*
X76999788Y-72530106D01*
X76999792Y-72530104D01*
X77150104Y-72379792D01*
X77150106Y-72379788D01*
X77150109Y-72379786D01*
X77275048Y-72207820D01*
X77275050Y-72207817D01*
X77275051Y-72207816D01*
X77279514Y-72199054D01*
X77327488Y-72148259D01*
X77395308Y-72131463D01*
X77461444Y-72153999D01*
X77500486Y-72199056D01*
X77504951Y-72207820D01*
X77629890Y-72379786D01*
X77780213Y-72530109D01*
X77952179Y-72655048D01*
X77952181Y-72655049D01*
X77952184Y-72655051D01*
X78141588Y-72751557D01*
X78343757Y-72817246D01*
X78553713Y-72850500D01*
X78553714Y-72850500D01*
X78766286Y-72850500D01*
X78766287Y-72850500D01*
X78976243Y-72817246D01*
X79178412Y-72751557D01*
X79367816Y-72655051D01*
X79389789Y-72639086D01*
X79539786Y-72530109D01*
X79539788Y-72530106D01*
X79539792Y-72530104D01*
X79690104Y-72379792D01*
X79690106Y-72379788D01*
X79690109Y-72379786D01*
X79815048Y-72207820D01*
X79815050Y-72207817D01*
X79815051Y-72207816D01*
X79911557Y-72018412D01*
X79977246Y-71816243D01*
X80010500Y-71606287D01*
X80010500Y-71393713D01*
X79977246Y-71183757D01*
X79911557Y-70981588D01*
X79815051Y-70792184D01*
X79815049Y-70792181D01*
X79815048Y-70792179D01*
X79690109Y-70620213D01*
X79539786Y-70469890D01*
X79367820Y-70344951D01*
X79178414Y-70248444D01*
X79178413Y-70248443D01*
X79178412Y-70248443D01*
X78976243Y-70182754D01*
X78976241Y-70182753D01*
X78976240Y-70182753D01*
X78814957Y-70157208D01*
X78766287Y-70149500D01*
X78553713Y-70149500D01*
X78505042Y-70157208D01*
X78343760Y-70182753D01*
X78141585Y-70248444D01*
X77952179Y-70344951D01*
X77780213Y-70469890D01*
X77629890Y-70620213D01*
X77504949Y-70792182D01*
X77500484Y-70800946D01*
X77452509Y-70851742D01*
X77384688Y-70868536D01*
X77318553Y-70845998D01*
X77279516Y-70800946D01*
X77275050Y-70792182D01*
X77150109Y-70620213D01*
X76999786Y-70469890D01*
X76827820Y-70344951D01*
X76638414Y-70248444D01*
X76638413Y-70248443D01*
X76638412Y-70248443D01*
X76436243Y-70182754D01*
X76436241Y-70182753D01*
X76436240Y-70182753D01*
X76274957Y-70157208D01*
X76226287Y-70149500D01*
X76013713Y-70149500D01*
X75965042Y-70157208D01*
X75803760Y-70182753D01*
X75601585Y-70248444D01*
X75412179Y-70344951D01*
X75240215Y-70469889D01*
X75155418Y-70554686D01*
X75094094Y-70588170D01*
X75024403Y-70583186D01*
X74968469Y-70541314D01*
X74951555Y-70510336D01*
X74913355Y-70407915D01*
X74913350Y-70407906D01*
X74827190Y-70292812D01*
X74827187Y-70292809D01*
X74712093Y-70206649D01*
X74712086Y-70206645D01*
X74577379Y-70156403D01*
X74577372Y-70156401D01*
X74517844Y-70150000D01*
X73870000Y-70150000D01*
X73870000Y-71066988D01*
X73812993Y-71034075D01*
X73685826Y-71000000D01*
X73554174Y-71000000D01*
X73427007Y-71034075D01*
X73370000Y-71066988D01*
X73370000Y-70150000D01*
X72722155Y-70150000D01*
X72662627Y-70156401D01*
X72662620Y-70156403D01*
X72527913Y-70206645D01*
X72527906Y-70206649D01*
X72412812Y-70292809D01*
X72412809Y-70292812D01*
X72326649Y-70407906D01*
X72326645Y-70407913D01*
X72276403Y-70542620D01*
X72274620Y-70550168D01*
X72273018Y-70549789D01*
X72249799Y-70605821D01*
X72192401Y-70645661D01*
X72122575Y-70648145D01*
X72065578Y-70615682D01*
X71919786Y-70469890D01*
X71747820Y-70344951D01*
X71558414Y-70248444D01*
X71558413Y-70248443D01*
X71558412Y-70248443D01*
X71356243Y-70182754D01*
X71356241Y-70182753D01*
X71356240Y-70182753D01*
X71194957Y-70157208D01*
X71146287Y-70149500D01*
X70933713Y-70149500D01*
X70885042Y-70157208D01*
X70723760Y-70182753D01*
X70521585Y-70248444D01*
X70332179Y-70344951D01*
X70160213Y-70469890D01*
X70009890Y-70620213D01*
X69884949Y-70792182D01*
X69880484Y-70800946D01*
X69832509Y-70851742D01*
X69764688Y-70868536D01*
X69698553Y-70845998D01*
X69659516Y-70800946D01*
X69655050Y-70792182D01*
X69530109Y-70620213D01*
X69379786Y-70469890D01*
X69207820Y-70344951D01*
X69018414Y-70248444D01*
X69018413Y-70248443D01*
X69018412Y-70248443D01*
X68816243Y-70182754D01*
X68816241Y-70182753D01*
X68816240Y-70182753D01*
X68654957Y-70157208D01*
X68606287Y-70149500D01*
X68393713Y-70149500D01*
X68345042Y-70157208D01*
X68183760Y-70182753D01*
X67981585Y-70248444D01*
X67792179Y-70344951D01*
X67620213Y-70469890D01*
X67469890Y-70620213D01*
X67344949Y-70792182D01*
X67340484Y-70800946D01*
X67292509Y-70851742D01*
X67224688Y-70868536D01*
X67158553Y-70845998D01*
X67119516Y-70800946D01*
X67115050Y-70792182D01*
X66990109Y-70620213D01*
X66839786Y-70469890D01*
X66667820Y-70344951D01*
X66478414Y-70248444D01*
X66478413Y-70248443D01*
X66478412Y-70248443D01*
X66276243Y-70182754D01*
X66276241Y-70182753D01*
X66276240Y-70182753D01*
X66114957Y-70157208D01*
X66066287Y-70149500D01*
X65853713Y-70149500D01*
X65805042Y-70157208D01*
X65643760Y-70182753D01*
X65441585Y-70248444D01*
X65252179Y-70344951D01*
X65080213Y-70469890D01*
X64929890Y-70620213D01*
X64804949Y-70792182D01*
X64800484Y-70800946D01*
X64752509Y-70851742D01*
X64684688Y-70868536D01*
X64618553Y-70845998D01*
X64579516Y-70800946D01*
X64575050Y-70792182D01*
X64450109Y-70620213D01*
X64299786Y-70469890D01*
X64127820Y-70344951D01*
X63938414Y-70248444D01*
X63938413Y-70248443D01*
X63938412Y-70248443D01*
X63736243Y-70182754D01*
X63736241Y-70182753D01*
X63736240Y-70182753D01*
X63574957Y-70157208D01*
X63526287Y-70149500D01*
X63313713Y-70149500D01*
X63265042Y-70157208D01*
X63103760Y-70182753D01*
X62901585Y-70248444D01*
X62712179Y-70344951D01*
X62540213Y-70469890D01*
X62389890Y-70620213D01*
X62264949Y-70792182D01*
X62260484Y-70800946D01*
X62212509Y-70851742D01*
X62144688Y-70868536D01*
X62078553Y-70845998D01*
X62039516Y-70800946D01*
X62035050Y-70792182D01*
X61910109Y-70620213D01*
X61759786Y-70469890D01*
X61587820Y-70344951D01*
X61398414Y-70248444D01*
X61398413Y-70248443D01*
X61398412Y-70248443D01*
X61196243Y-70182754D01*
X61196241Y-70182753D01*
X61196240Y-70182753D01*
X61034957Y-70157208D01*
X60986287Y-70149500D01*
X60773713Y-70149500D01*
X60725042Y-70157208D01*
X60563760Y-70182753D01*
X60361585Y-70248444D01*
X60172179Y-70344951D01*
X60000213Y-70469890D01*
X59849890Y-70620213D01*
X59724948Y-70792184D01*
X59724947Y-70792185D01*
X59710484Y-70820571D01*
X59662510Y-70871367D01*
X59594689Y-70888162D01*
X59528554Y-70865624D01*
X59489516Y-70820571D01*
X59475052Y-70792185D01*
X59475051Y-70792184D01*
X59350109Y-70620213D01*
X59199786Y-70469890D01*
X59027820Y-70344951D01*
X58838414Y-70248444D01*
X58838413Y-70248443D01*
X58838412Y-70248443D01*
X58636243Y-70182754D01*
X58636241Y-70182753D01*
X58636240Y-70182753D01*
X58474957Y-70157208D01*
X58426287Y-70149500D01*
X58213713Y-70149500D01*
X58165042Y-70157208D01*
X58003760Y-70182753D01*
X57801585Y-70248444D01*
X57612179Y-70344951D01*
X57440213Y-70469890D01*
X57289890Y-70620213D01*
X57164951Y-70792179D01*
X57068444Y-70981585D01*
X57002753Y-71183760D01*
X56969500Y-71393713D01*
X52071284Y-71393713D01*
X51907819Y-71274951D01*
X51907818Y-71274950D01*
X51907816Y-71274949D01*
X51855795Y-71248443D01*
X51796111Y-71218032D01*
X51745315Y-71170057D01*
X51728520Y-71102236D01*
X51751058Y-71036101D01*
X51796112Y-70997062D01*
X51917816Y-70935051D01*
X52040388Y-70845998D01*
X52089786Y-70810109D01*
X52089788Y-70810106D01*
X52089792Y-70810104D01*
X52240104Y-70659792D01*
X52240106Y-70659788D01*
X52240109Y-70659786D01*
X52365048Y-70487820D01*
X52365047Y-70487820D01*
X52365051Y-70487816D01*
X52461557Y-70298412D01*
X52527246Y-70096243D01*
X52560500Y-69886287D01*
X52560500Y-69673713D01*
X52527246Y-69463757D01*
X52461557Y-69261588D01*
X52365051Y-69072184D01*
X52365049Y-69072181D01*
X52365048Y-69072179D01*
X52240109Y-68900213D01*
X52089786Y-68749890D01*
X51917817Y-68624949D01*
X51889429Y-68610485D01*
X51838633Y-68562511D01*
X51821837Y-68494690D01*
X51844374Y-68428555D01*
X51889429Y-68389515D01*
X51895186Y-68386581D01*
X51917816Y-68375051D01*
X51998759Y-68316243D01*
X52089786Y-68250109D01*
X52089788Y-68250106D01*
X52089792Y-68250104D01*
X52240104Y-68099792D01*
X52240106Y-68099788D01*
X52240109Y-68099786D01*
X52365048Y-67927820D01*
X52365047Y-67927820D01*
X52365051Y-67927816D01*
X52461557Y-67738412D01*
X52527246Y-67536243D01*
X52560500Y-67326287D01*
X52560500Y-67113713D01*
X52527246Y-66903757D01*
X52461557Y-66701588D01*
X52365051Y-66512184D01*
X52365049Y-66512181D01*
X52365048Y-66512179D01*
X52240109Y-66340213D01*
X52089786Y-66189890D01*
X51917814Y-66064946D01*
X51913903Y-66062550D01*
X51867029Y-66010737D01*
X51855609Y-65941807D01*
X51883268Y-65877645D01*
X51905812Y-65856506D01*
X51907811Y-65855053D01*
X51907816Y-65855051D01*
X52079792Y-65730104D01*
X52230104Y-65579792D01*
X52230106Y-65579788D01*
X52230109Y-65579786D01*
X52355048Y-65407820D01*
X52355047Y-65407820D01*
X52355051Y-65407816D01*
X52451557Y-65218412D01*
X52517246Y-65016243D01*
X52550500Y-64806287D01*
X52550500Y-64593713D01*
X52517246Y-64383757D01*
X52451557Y-64181588D01*
X52355051Y-63992184D01*
X52355049Y-63992181D01*
X52355048Y-63992179D01*
X52230109Y-63820213D01*
X52125314Y-63715418D01*
X52091829Y-63654095D01*
X52096813Y-63584403D01*
X52138685Y-63528470D01*
X52169663Y-63511555D01*
X52272084Y-63473355D01*
X52272093Y-63473350D01*
X52387187Y-63387190D01*
X52387190Y-63387187D01*
X52473350Y-63272093D01*
X52473354Y-63272086D01*
X52523596Y-63137379D01*
X52523598Y-63137372D01*
X52529999Y-63077844D01*
X52530000Y-63077827D01*
X52530000Y-62430000D01*
X51613012Y-62430000D01*
X51645925Y-62372993D01*
X51680000Y-62245826D01*
X51680000Y-62114174D01*
X51645925Y-61987007D01*
X51613012Y-61930000D01*
X52530000Y-61930000D01*
X52530000Y-61282172D01*
X52529999Y-61282155D01*
X52523598Y-61222627D01*
X52523596Y-61222620D01*
X52473354Y-61087913D01*
X52473350Y-61087906D01*
X52387190Y-60972812D01*
X52387187Y-60972809D01*
X52272093Y-60886649D01*
X52272088Y-60886646D01*
X52140528Y-60837577D01*
X52084595Y-60795705D01*
X52060178Y-60730241D01*
X52075030Y-60661968D01*
X52096175Y-60633720D01*
X52230104Y-60499792D01*
X52355051Y-60327816D01*
X52451557Y-60138412D01*
X52517246Y-59936243D01*
X52550500Y-59726287D01*
X52550500Y-59513713D01*
X52517246Y-59303757D01*
X52451557Y-59101588D01*
X52355051Y-58912184D01*
X52355049Y-58912181D01*
X52355048Y-58912179D01*
X52230109Y-58740213D01*
X52079786Y-58589890D01*
X51907817Y-58464949D01*
X51879429Y-58450485D01*
X51828633Y-58402511D01*
X51811837Y-58334690D01*
X51834374Y-58268555D01*
X51879429Y-58229515D01*
X51885186Y-58226581D01*
X51907816Y-58215051D01*
X51996661Y-58150502D01*
X52079786Y-58090109D01*
X52079788Y-58090106D01*
X52079792Y-58090104D01*
X52230104Y-57939792D01*
X52230106Y-57939788D01*
X52230109Y-57939786D01*
X52355048Y-57767820D01*
X52355047Y-57767820D01*
X52355051Y-57767816D01*
X52451557Y-57578412D01*
X52517246Y-57376243D01*
X52550500Y-57166287D01*
X52550500Y-56953713D01*
X52517246Y-56743757D01*
X52451557Y-56541588D01*
X52355051Y-56352184D01*
X52355049Y-56352181D01*
X52355048Y-56352179D01*
X52230109Y-56180213D01*
X52079786Y-56029890D01*
X51907820Y-55904951D01*
X51718414Y-55808444D01*
X51718413Y-55808443D01*
X51718412Y-55808443D01*
X51516243Y-55742754D01*
X51516241Y-55742753D01*
X51516240Y-55742753D01*
X51354957Y-55717208D01*
X51306287Y-55709500D01*
X51093713Y-55709500D01*
X51045042Y-55717208D01*
X50883760Y-55742753D01*
X50681585Y-55808444D01*
X50492179Y-55904951D01*
X50320213Y-56029890D01*
X50169890Y-56180213D01*
X50044951Y-56352179D01*
X49948444Y-56541585D01*
X49882753Y-56743760D01*
X49861458Y-56878211D01*
X49849500Y-56953713D01*
X49849500Y-57166287D01*
X49882754Y-57376243D01*
X49929732Y-57520827D01*
X49948444Y-57578414D01*
X50044951Y-57767820D01*
X50169890Y-57939786D01*
X50320213Y-58090109D01*
X50492184Y-58215051D01*
X50492185Y-58215052D01*
X50520571Y-58229516D01*
X50571367Y-58277490D01*
X50588162Y-58345311D01*
X50565624Y-58411446D01*
X50520571Y-58450484D01*
X50492185Y-58464947D01*
X50492184Y-58464948D01*
X50320213Y-58589890D01*
X50169890Y-58740213D01*
X50044951Y-58912179D01*
X49948444Y-59101585D01*
X49882753Y-59303760D01*
X49849500Y-59513713D01*
X49849500Y-59726287D01*
X49850130Y-59730263D01*
X49876177Y-59894721D01*
X49882754Y-59936243D01*
X49942729Y-60120827D01*
X49948444Y-60138414D01*
X50044951Y-60327820D01*
X50169890Y-60499786D01*
X50295682Y-60625578D01*
X50329167Y-60686901D01*
X50324183Y-60756593D01*
X50282311Y-60812526D01*
X50229827Y-60833180D01*
X50230168Y-60834620D01*
X50222620Y-60836403D01*
X50087913Y-60886645D01*
X50087906Y-60886649D01*
X49972812Y-60972809D01*
X49972809Y-60972812D01*
X49886649Y-61087906D01*
X49886645Y-61087913D01*
X49836403Y-61222620D01*
X49836401Y-61222627D01*
X49830000Y-61282155D01*
X44214234Y-61282155D01*
X44210292Y-61278213D01*
X44210288Y-61278210D01*
X44079185Y-61190609D01*
X44079172Y-61190602D01*
X43933501Y-61130264D01*
X43933489Y-61130261D01*
X43866420Y-61116920D01*
X43804509Y-61084535D01*
X43802930Y-61082984D01*
X42614674Y-59894727D01*
X42614673Y-59894726D01*
X42614666Y-59894721D01*
X42508127Y-59823535D01*
X42389744Y-59774499D01*
X42389738Y-59774497D01*
X42264071Y-59749500D01*
X42264069Y-59749500D01*
X33435931Y-59749500D01*
X33435929Y-59749500D01*
X33310261Y-59774497D01*
X33310251Y-59774500D01*
X33261220Y-59794810D01*
X33191881Y-59823530D01*
X33191863Y-59823540D01*
X33085332Y-59894721D01*
X33085325Y-59894727D01*
X30547068Y-62432984D01*
X30485745Y-62466469D01*
X30483579Y-62466920D01*
X30416508Y-62480261D01*
X30416498Y-62480264D01*
X30270827Y-62540602D01*
X30270814Y-62540609D01*
X30139711Y-62628210D01*
X30139707Y-62628213D01*
X30028213Y-62739707D01*
X30028210Y-62739711D01*
X29940609Y-62870814D01*
X29940602Y-62870827D01*
X29880264Y-63016498D01*
X29880261Y-63016510D01*
X29849500Y-63171153D01*
X17620500Y-63171153D01*
X17620500Y-55221153D01*
X37399500Y-55221153D01*
X37399500Y-55378846D01*
X37430261Y-55533489D01*
X37430264Y-55533501D01*
X37490602Y-55679172D01*
X37490609Y-55679185D01*
X37578210Y-55810288D01*
X37578213Y-55810292D01*
X37689707Y-55921786D01*
X37689711Y-55921789D01*
X37820814Y-56009390D01*
X37820827Y-56009397D01*
X37908230Y-56045599D01*
X37966503Y-56069737D01*
X38033580Y-56083079D01*
X38095488Y-56115461D01*
X38097068Y-56117014D01*
X40385324Y-58405271D01*
X40385327Y-58405274D01*
X40474636Y-58464948D01*
X40474637Y-58464948D01*
X40474638Y-58464949D01*
X40491873Y-58476465D01*
X40610256Y-58525501D01*
X40610260Y-58525501D01*
X40610261Y-58525502D01*
X40735928Y-58550500D01*
X40735931Y-58550500D01*
X42595065Y-58550500D01*
X42662104Y-58570185D01*
X42663909Y-58571366D01*
X42720821Y-58609394D01*
X42720823Y-58609395D01*
X42720827Y-58609397D01*
X42866498Y-58669735D01*
X42866503Y-58669737D01*
X43021153Y-58700499D01*
X43021156Y-58700500D01*
X43021158Y-58700500D01*
X43178844Y-58700500D01*
X43178845Y-58700499D01*
X43333497Y-58669737D01*
X43479179Y-58609394D01*
X43610289Y-58521789D01*
X43721789Y-58410289D01*
X43809394Y-58279179D01*
X43869737Y-58133497D01*
X43900500Y-57978842D01*
X43900500Y-57821158D01*
X43900500Y-57821155D01*
X43900499Y-57821153D01*
X43889890Y-57767820D01*
X43869737Y-57666503D01*
X43833249Y-57578412D01*
X43809397Y-57520827D01*
X43809390Y-57520814D01*
X43721789Y-57389711D01*
X43721786Y-57389707D01*
X43610292Y-57278213D01*
X43610288Y-57278210D01*
X43479185Y-57190609D01*
X43479172Y-57190602D01*
X43333501Y-57130264D01*
X43333489Y-57130261D01*
X43178845Y-57099500D01*
X43178842Y-57099500D01*
X43021158Y-57099500D01*
X43021155Y-57099500D01*
X42866510Y-57130261D01*
X42866498Y-57130264D01*
X42720827Y-57190602D01*
X42720820Y-57190606D01*
X42691928Y-57209911D01*
X42663955Y-57228602D01*
X42597279Y-57249480D01*
X42595065Y-57249500D01*
X41120808Y-57249500D01*
X41053769Y-57229815D01*
X41033127Y-57213181D01*
X39017015Y-55197069D01*
X38983530Y-55135746D01*
X38983093Y-55133652D01*
X38969737Y-55066503D01*
X38945599Y-55008230D01*
X38909397Y-54920827D01*
X38909390Y-54920814D01*
X38821789Y-54789711D01*
X38821786Y-54789707D01*
X38710292Y-54678213D01*
X38710288Y-54678210D01*
X38579185Y-54590609D01*
X38579172Y-54590602D01*
X38433501Y-54530264D01*
X38433489Y-54530261D01*
X38278845Y-54499500D01*
X38278842Y-54499500D01*
X38121158Y-54499500D01*
X38121155Y-54499500D01*
X37966510Y-54530261D01*
X37966498Y-54530264D01*
X37820827Y-54590602D01*
X37820814Y-54590609D01*
X37689711Y-54678210D01*
X37689707Y-54678213D01*
X37578213Y-54789707D01*
X37578210Y-54789711D01*
X37490609Y-54920814D01*
X37490602Y-54920827D01*
X37430264Y-55066498D01*
X37430261Y-55066510D01*
X37399500Y-55221153D01*
X17620500Y-55221153D01*
X17620500Y-47821153D01*
X19099500Y-47821153D01*
X19099500Y-47978846D01*
X19130261Y-48133489D01*
X19130264Y-48133501D01*
X19190602Y-48279172D01*
X19190609Y-48279185D01*
X19278210Y-48410288D01*
X19278213Y-48410292D01*
X19389707Y-48521786D01*
X19389711Y-48521789D01*
X19520814Y-48609390D01*
X19520827Y-48609397D01*
X19666498Y-48669735D01*
X19666503Y-48669737D01*
X19816131Y-48699500D01*
X19821153Y-48700499D01*
X19821156Y-48700500D01*
X19821158Y-48700500D01*
X19978844Y-48700500D01*
X19978845Y-48700499D01*
X20133497Y-48669737D01*
X20279179Y-48609394D01*
X20410289Y-48521789D01*
X20521789Y-48410289D01*
X20609394Y-48279179D01*
X20610814Y-48275752D01*
X20658673Y-48160208D01*
X20669737Y-48133497D01*
X20700500Y-47978842D01*
X20700500Y-47821158D01*
X20700500Y-47821155D01*
X20681873Y-47727513D01*
X20688100Y-47657921D01*
X20730963Y-47602744D01*
X20796853Y-47579499D01*
X20864850Y-47595567D01*
X20913365Y-47645846D01*
X20913974Y-47647025D01*
X20944783Y-47707491D01*
X20944951Y-47707819D01*
X21069890Y-47879786D01*
X21214351Y-48024247D01*
X21247836Y-48085570D01*
X21242852Y-48155262D01*
X21200980Y-48211195D01*
X21199555Y-48212246D01*
X21120214Y-48269890D01*
X21120209Y-48269894D01*
X20969890Y-48420213D01*
X20844951Y-48592179D01*
X20748444Y-48781585D01*
X20682753Y-48983760D01*
X20649500Y-49193713D01*
X20649500Y-49406286D01*
X20676830Y-49578844D01*
X20682754Y-49616243D01*
X20720852Y-49733497D01*
X20748444Y-49818414D01*
X20844951Y-50007820D01*
X20969890Y-50179786D01*
X21054685Y-50264581D01*
X21088170Y-50325904D01*
X21083186Y-50395596D01*
X21041314Y-50451529D01*
X21010337Y-50468444D01*
X20907913Y-50506645D01*
X20907906Y-50506649D01*
X20792812Y-50592809D01*
X20792809Y-50592812D01*
X20706649Y-50707906D01*
X20706645Y-50707913D01*
X20656403Y-50842620D01*
X20656401Y-50842627D01*
X20650000Y-50902155D01*
X20650000Y-51550000D01*
X21566988Y-51550000D01*
X21534075Y-51607007D01*
X21500000Y-51734174D01*
X21500000Y-51865826D01*
X21534075Y-51992993D01*
X21566988Y-52050000D01*
X20650000Y-52050000D01*
X20650000Y-52697844D01*
X20656401Y-52757372D01*
X20656403Y-52757379D01*
X20706645Y-52892086D01*
X20706649Y-52892093D01*
X20792809Y-53007187D01*
X20792812Y-53007190D01*
X20907906Y-53093350D01*
X20907913Y-53093354D01*
X21042620Y-53143596D01*
X21042627Y-53143598D01*
X21102155Y-53149999D01*
X21102172Y-53150000D01*
X21750000Y-53150000D01*
X21750000Y-52233012D01*
X21807007Y-52265925D01*
X21934174Y-52300000D01*
X22065826Y-52300000D01*
X22192993Y-52265925D01*
X22250000Y-52233012D01*
X22250000Y-53150000D01*
X22897828Y-53150000D01*
X22897844Y-53149999D01*
X22957372Y-53143598D01*
X22957379Y-53143596D01*
X23092086Y-53093354D01*
X23092093Y-53093350D01*
X23207187Y-53007190D01*
X23207190Y-53007187D01*
X23271596Y-52921153D01*
X58699500Y-52921153D01*
X58699500Y-53078846D01*
X58730261Y-53233489D01*
X58730264Y-53233501D01*
X58790602Y-53379172D01*
X58790606Y-53379179D01*
X58828602Y-53436044D01*
X58849480Y-53502721D01*
X58849500Y-53504935D01*
X58849500Y-60064069D01*
X58849500Y-60064071D01*
X58849499Y-60064071D01*
X58874497Y-60189738D01*
X58874499Y-60189744D01*
X58916277Y-60290606D01*
X58923535Y-60308127D01*
X58994723Y-60414669D01*
X58994726Y-60414673D01*
X58994727Y-60414674D01*
X59682984Y-61102930D01*
X59716469Y-61164253D01*
X59716920Y-61166420D01*
X59730261Y-61233489D01*
X59730264Y-61233501D01*
X59790602Y-61379172D01*
X59790609Y-61379185D01*
X59878210Y-61510288D01*
X59878213Y-61510292D01*
X59989707Y-61621786D01*
X59989711Y-61621789D01*
X60120814Y-61709390D01*
X60120827Y-61709397D01*
X60233679Y-61756141D01*
X60266503Y-61769737D01*
X60421153Y-61800499D01*
X60421156Y-61800500D01*
X60421158Y-61800500D01*
X60578844Y-61800500D01*
X60578845Y-61800499D01*
X60733497Y-61769737D01*
X60879179Y-61709394D01*
X61010289Y-61621789D01*
X61121789Y-61510289D01*
X61209394Y-61379179D01*
X61269737Y-61233497D01*
X61300500Y-61078842D01*
X61300500Y-60921158D01*
X61300500Y-60921155D01*
X61300499Y-60921153D01*
X61290634Y-60871557D01*
X61269737Y-60766503D01*
X61226438Y-60661968D01*
X61209397Y-60620827D01*
X61209390Y-60620814D01*
X61121789Y-60489711D01*
X61121786Y-60489707D01*
X61010292Y-60378213D01*
X61010288Y-60378210D01*
X60879185Y-60290609D01*
X60879172Y-60290602D01*
X60733501Y-60230264D01*
X60733489Y-60230261D01*
X60666420Y-60216920D01*
X60604509Y-60184535D01*
X60602930Y-60182984D01*
X60186819Y-59766873D01*
X60153334Y-59705550D01*
X60150500Y-59679192D01*
X60150500Y-53504935D01*
X60170185Y-53437896D01*
X60171366Y-53436090D01*
X60209394Y-53379179D01*
X60269737Y-53233497D01*
X60300500Y-53078842D01*
X60300500Y-52921158D01*
X60300500Y-52921155D01*
X60300499Y-52921153D01*
X61199500Y-52921153D01*
X61199500Y-53078846D01*
X61230261Y-53233489D01*
X61230264Y-53233501D01*
X61290602Y-53379172D01*
X61290606Y-53379179D01*
X61328602Y-53436044D01*
X61349480Y-53502721D01*
X61349500Y-53504935D01*
X61349500Y-58064069D01*
X61366693Y-58150500D01*
X61370609Y-58170185D01*
X61374499Y-58189744D01*
X61384981Y-58215051D01*
X61423535Y-58308127D01*
X61494723Y-58414669D01*
X61494726Y-58414673D01*
X61494727Y-58414674D01*
X63682984Y-60602930D01*
X63716469Y-60664253D01*
X63716920Y-60666420D01*
X63730261Y-60733489D01*
X63730264Y-60733501D01*
X63790602Y-60879172D01*
X63790609Y-60879185D01*
X63878210Y-61010288D01*
X63878213Y-61010292D01*
X63989707Y-61121786D01*
X63989711Y-61121789D01*
X64120814Y-61209390D01*
X64120827Y-61209397D01*
X64248261Y-61262181D01*
X64266503Y-61269737D01*
X64421153Y-61300499D01*
X64421156Y-61300500D01*
X64421158Y-61300500D01*
X64578844Y-61300500D01*
X64578845Y-61300499D01*
X64733497Y-61269737D01*
X64879179Y-61209394D01*
X65010289Y-61121789D01*
X65121789Y-61010289D01*
X65209394Y-60879179D01*
X65269737Y-60733497D01*
X65300500Y-60578842D01*
X65300500Y-60421158D01*
X65300500Y-60421155D01*
X65300499Y-60421153D01*
X65281933Y-60327816D01*
X65269737Y-60266503D01*
X65269735Y-60266498D01*
X65209397Y-60120827D01*
X65209390Y-60120814D01*
X65121789Y-59989711D01*
X65121786Y-59989707D01*
X65010292Y-59878213D01*
X65010288Y-59878210D01*
X64879185Y-59790609D01*
X64879172Y-59790602D01*
X64733501Y-59730264D01*
X64733489Y-59730261D01*
X64666420Y-59716920D01*
X64604509Y-59684535D01*
X64602930Y-59682984D01*
X62686819Y-57766873D01*
X62653334Y-57705550D01*
X62650500Y-57679192D01*
X62650500Y-53504935D01*
X62670185Y-53437896D01*
X62671366Y-53436090D01*
X62709394Y-53379179D01*
X62769737Y-53233497D01*
X62800500Y-53078842D01*
X62800500Y-52921158D01*
X62800500Y-52921155D01*
X62800499Y-52921153D01*
X62769737Y-52766503D01*
X62741291Y-52697827D01*
X62709397Y-52620827D01*
X62709390Y-52620814D01*
X62621790Y-52489712D01*
X62621784Y-52489705D01*
X62553232Y-52421153D01*
X64199500Y-52421153D01*
X64199500Y-52578846D01*
X64230261Y-52733489D01*
X64230264Y-52733501D01*
X64290602Y-52879172D01*
X64290609Y-52879185D01*
X64378210Y-53010288D01*
X64378213Y-53010292D01*
X64489707Y-53121786D01*
X64489711Y-53121789D01*
X64620814Y-53209390D01*
X64620827Y-53209397D01*
X64708230Y-53245599D01*
X64766503Y-53269737D01*
X64805125Y-53277419D01*
X64833578Y-53283079D01*
X64895489Y-53315463D01*
X64897068Y-53317015D01*
X69585325Y-58005272D01*
X69585332Y-58005278D01*
X69673320Y-58064069D01*
X69673321Y-58064069D01*
X69691873Y-58076465D01*
X69810256Y-58125501D01*
X69810260Y-58125501D01*
X69810261Y-58125502D01*
X69935928Y-58150500D01*
X69935931Y-58150500D01*
X69995065Y-58150500D01*
X70062104Y-58170185D01*
X70063909Y-58171366D01*
X70120821Y-58209394D01*
X70120823Y-58209395D01*
X70120827Y-58209397D01*
X70263649Y-58268555D01*
X70266503Y-58269737D01*
X70421153Y-58300499D01*
X70421156Y-58300500D01*
X70421158Y-58300500D01*
X70578844Y-58300500D01*
X70578845Y-58300499D01*
X70733497Y-58269737D01*
X70879179Y-58209394D01*
X71010289Y-58121789D01*
X71121789Y-58010289D01*
X71209394Y-57879179D01*
X71269737Y-57733497D01*
X71300500Y-57578842D01*
X71300500Y-57421158D01*
X71300500Y-57421155D01*
X71300499Y-57421153D01*
X71272066Y-57278211D01*
X71269737Y-57266503D01*
X71262686Y-57249480D01*
X71209397Y-57120827D01*
X71209390Y-57120814D01*
X71121789Y-56989711D01*
X71121786Y-56989707D01*
X71010292Y-56878213D01*
X71010288Y-56878210D01*
X70879185Y-56790609D01*
X70879172Y-56790602D01*
X70733501Y-56730264D01*
X70733489Y-56730261D01*
X70578845Y-56699500D01*
X70578842Y-56699500D01*
X70421158Y-56699500D01*
X70421155Y-56699500D01*
X70266505Y-56730261D01*
X70266498Y-56730264D01*
X70260810Y-56732620D01*
X70191340Y-56740084D01*
X70128863Y-56708806D01*
X70125683Y-56705737D01*
X65817015Y-52397069D01*
X65783530Y-52335746D01*
X65783093Y-52333652D01*
X65769737Y-52266503D01*
X65741984Y-52199500D01*
X65709397Y-52120827D01*
X65709390Y-52120814D01*
X65621789Y-51989711D01*
X65621786Y-51989707D01*
X65510292Y-51878213D01*
X65510288Y-51878210D01*
X65379185Y-51790609D01*
X65379172Y-51790602D01*
X65233501Y-51730264D01*
X65233489Y-51730261D01*
X65078845Y-51699500D01*
X65078842Y-51699500D01*
X64921158Y-51699500D01*
X64921155Y-51699500D01*
X64766510Y-51730261D01*
X64766498Y-51730264D01*
X64620827Y-51790602D01*
X64620814Y-51790609D01*
X64489711Y-51878210D01*
X64489707Y-51878213D01*
X64378213Y-51989707D01*
X64378210Y-51989711D01*
X64290609Y-52120814D01*
X64290602Y-52120827D01*
X64230264Y-52266498D01*
X64230261Y-52266510D01*
X64199500Y-52421153D01*
X62553232Y-52421153D01*
X62510292Y-52378213D01*
X62510288Y-52378210D01*
X62379185Y-52290609D01*
X62379172Y-52290602D01*
X62233501Y-52230264D01*
X62233489Y-52230261D01*
X62078845Y-52199500D01*
X62078842Y-52199500D01*
X61921158Y-52199500D01*
X61921155Y-52199500D01*
X61766510Y-52230261D01*
X61766498Y-52230264D01*
X61620827Y-52290602D01*
X61620814Y-52290609D01*
X61489711Y-52378210D01*
X61489707Y-52378213D01*
X61378213Y-52489707D01*
X61378210Y-52489711D01*
X61290609Y-52620814D01*
X61290602Y-52620827D01*
X61230264Y-52766498D01*
X61230261Y-52766510D01*
X61199500Y-52921153D01*
X60300499Y-52921153D01*
X60269737Y-52766503D01*
X60241291Y-52697827D01*
X60209397Y-52620827D01*
X60209390Y-52620814D01*
X60121789Y-52489711D01*
X60121786Y-52489707D01*
X60010292Y-52378213D01*
X60010288Y-52378210D01*
X59879185Y-52290609D01*
X59879172Y-52290602D01*
X59733501Y-52230264D01*
X59733489Y-52230261D01*
X59578845Y-52199500D01*
X59578842Y-52199500D01*
X59421158Y-52199500D01*
X59421155Y-52199500D01*
X59266510Y-52230261D01*
X59266498Y-52230264D01*
X59120827Y-52290602D01*
X59120814Y-52290609D01*
X58989711Y-52378210D01*
X58989707Y-52378213D01*
X58878213Y-52489707D01*
X58878210Y-52489711D01*
X58790609Y-52620814D01*
X58790602Y-52620827D01*
X58730264Y-52766498D01*
X58730261Y-52766510D01*
X58699500Y-52921153D01*
X23271596Y-52921153D01*
X23293350Y-52892093D01*
X23293353Y-52892087D01*
X23300946Y-52871732D01*
X23300946Y-52871731D01*
X23343596Y-52757379D01*
X23343598Y-52757372D01*
X23349999Y-52697844D01*
X23350000Y-52697827D01*
X23350000Y-52050000D01*
X22433012Y-52050000D01*
X22465925Y-51992993D01*
X22500000Y-51865826D01*
X22500000Y-51734174D01*
X22465925Y-51607007D01*
X22433012Y-51550000D01*
X23350000Y-51550000D01*
X23350000Y-50902172D01*
X23349999Y-50902155D01*
X23343598Y-50842627D01*
X23343596Y-50842620D01*
X23293354Y-50707913D01*
X23293350Y-50707906D01*
X23207190Y-50592812D01*
X23207187Y-50592809D01*
X23092093Y-50506649D01*
X23092086Y-50506645D01*
X22989662Y-50468444D01*
X22933728Y-50426573D01*
X22909311Y-50361109D01*
X22924162Y-50292836D01*
X22945308Y-50264587D01*
X23030104Y-50179792D01*
X23069549Y-50125501D01*
X23155048Y-50007820D01*
X23155047Y-50007820D01*
X23155051Y-50007816D01*
X23251557Y-49818412D01*
X23317246Y-49616243D01*
X23350500Y-49406287D01*
X23350500Y-49193713D01*
X23317246Y-48983757D01*
X23251557Y-48781588D01*
X23155051Y-48592184D01*
X23155049Y-48592181D01*
X23155048Y-48592179D01*
X23030109Y-48420213D01*
X22885648Y-48275752D01*
X22852163Y-48214429D01*
X22857147Y-48144737D01*
X22899019Y-48088804D01*
X22900394Y-48087789D01*
X22979792Y-48030104D01*
X23130104Y-47879792D01*
X23130106Y-47879788D01*
X23130109Y-47879786D01*
X23240740Y-47727513D01*
X23255051Y-47707816D01*
X23351557Y-47518412D01*
X23417246Y-47316243D01*
X23450500Y-47106287D01*
X23450500Y-46893713D01*
X23423169Y-46721153D01*
X24699500Y-46721153D01*
X24699500Y-46878846D01*
X24730261Y-47033489D01*
X24730264Y-47033501D01*
X24790602Y-47179172D01*
X24790609Y-47179185D01*
X24878210Y-47310288D01*
X24878213Y-47310292D01*
X24989707Y-47421786D01*
X24989711Y-47421789D01*
X25120814Y-47509390D01*
X25120827Y-47509397D01*
X25266498Y-47569735D01*
X25266503Y-47569737D01*
X25421153Y-47600499D01*
X25421156Y-47600500D01*
X25421158Y-47600500D01*
X25578844Y-47600500D01*
X25578845Y-47600499D01*
X25733497Y-47569737D01*
X25857403Y-47518414D01*
X25879172Y-47509397D01*
X25879172Y-47509396D01*
X25879179Y-47509394D01*
X26010289Y-47421789D01*
X26121789Y-47310289D01*
X26209394Y-47179179D01*
X26269737Y-47033497D01*
X26300500Y-46878842D01*
X26300500Y-46800097D01*
X26320185Y-46733058D01*
X26336819Y-46712416D01*
X27319131Y-45730104D01*
X28454974Y-44594260D01*
X28516295Y-44560777D01*
X28585987Y-44565761D01*
X28590105Y-44567382D01*
X28706771Y-44615706D01*
X28716503Y-44619737D01*
X28853492Y-44646986D01*
X28871153Y-44650499D01*
X28871156Y-44650500D01*
X28871158Y-44650500D01*
X29028844Y-44650500D01*
X29028845Y-44650499D01*
X29183497Y-44619737D01*
X29329179Y-44559394D01*
X29460289Y-44471789D01*
X29571789Y-44360289D01*
X29659394Y-44229179D01*
X29719737Y-44083497D01*
X29750500Y-43928842D01*
X29750500Y-43771158D01*
X29750500Y-43771155D01*
X29750499Y-43771153D01*
X29740037Y-43718556D01*
X29719737Y-43616503D01*
X29719735Y-43616498D01*
X29659397Y-43470827D01*
X29659390Y-43470814D01*
X29571789Y-43339711D01*
X29571786Y-43339707D01*
X29460292Y-43228213D01*
X29460288Y-43228210D01*
X29329185Y-43140609D01*
X29329172Y-43140602D01*
X29183501Y-43080264D01*
X29183489Y-43080261D01*
X29028845Y-43049500D01*
X29028842Y-43049500D01*
X28871158Y-43049500D01*
X28871155Y-43049500D01*
X28716510Y-43080261D01*
X28716498Y-43080264D01*
X28570827Y-43140602D01*
X28570814Y-43140609D01*
X28439127Y-43228601D01*
X28372450Y-43249479D01*
X28370236Y-43249499D01*
X28270943Y-43249499D01*
X28194579Y-43269961D01*
X28118214Y-43290423D01*
X28118209Y-43290426D01*
X27981290Y-43369475D01*
X27981282Y-43369481D01*
X25360507Y-45990256D01*
X25299184Y-46023741D01*
X25297019Y-46024192D01*
X25266507Y-46030261D01*
X25266500Y-46030263D01*
X25120827Y-46090602D01*
X25120814Y-46090609D01*
X24989711Y-46178210D01*
X24989707Y-46178213D01*
X24878213Y-46289707D01*
X24878210Y-46289711D01*
X24790609Y-46420814D01*
X24790602Y-46420827D01*
X24730264Y-46566498D01*
X24730261Y-46566510D01*
X24699500Y-46721153D01*
X23423169Y-46721153D01*
X23417246Y-46683757D01*
X23351557Y-46481588D01*
X23255051Y-46292184D01*
X23255049Y-46292181D01*
X23255048Y-46292179D01*
X23130109Y-46120213D01*
X22979788Y-45969892D01*
X22952847Y-45950319D01*
X22910180Y-45894989D01*
X22904201Y-45825376D01*
X22936806Y-45763581D01*
X22952847Y-45749681D01*
X22979788Y-45730107D01*
X22979788Y-45730106D01*
X22979792Y-45730104D01*
X23130104Y-45579792D01*
X23130106Y-45579788D01*
X23130109Y-45579786D01*
X23255048Y-45407820D01*
X23255047Y-45407820D01*
X23255051Y-45407816D01*
X23351557Y-45218412D01*
X23417246Y-45016243D01*
X23450500Y-44806287D01*
X23450500Y-44593713D01*
X23417246Y-44383757D01*
X23351557Y-44181588D01*
X23255051Y-43992184D01*
X23255049Y-43992181D01*
X23255048Y-43992179D01*
X23130109Y-43820213D01*
X22979786Y-43669890D01*
X22807820Y-43544951D01*
X22618414Y-43448444D01*
X22618413Y-43448443D01*
X22618412Y-43448443D01*
X22416243Y-43382754D01*
X22416241Y-43382753D01*
X22416240Y-43382753D01*
X22254957Y-43357208D01*
X22206287Y-43349500D01*
X21993713Y-43349500D01*
X21986535Y-43350636D01*
X21917244Y-43341680D01*
X21863793Y-43296683D01*
X21843155Y-43229931D01*
X21861881Y-43162618D01*
X21879456Y-43140487D01*
X22298790Y-42721153D01*
X23299500Y-42721153D01*
X23299500Y-42878846D01*
X23330261Y-43033489D01*
X23330264Y-43033501D01*
X23390602Y-43179172D01*
X23390609Y-43179185D01*
X23478210Y-43310288D01*
X23478213Y-43310292D01*
X23589707Y-43421786D01*
X23589711Y-43421789D01*
X23720814Y-43509390D01*
X23720827Y-43509397D01*
X23866498Y-43569735D01*
X23866503Y-43569737D01*
X24021153Y-43600499D01*
X24021156Y-43600500D01*
X24021158Y-43600500D01*
X24178844Y-43600500D01*
X24178845Y-43600499D01*
X24333497Y-43569737D01*
X24479179Y-43509394D01*
X24610289Y-43421789D01*
X24721789Y-43310289D01*
X24809394Y-43179179D01*
X24869737Y-43033497D01*
X24889113Y-42936085D01*
X24900638Y-42878150D01*
X24933023Y-42816239D01*
X24934517Y-42814717D01*
X26814664Y-40934571D01*
X26875985Y-40901088D01*
X26878152Y-40900637D01*
X26878841Y-40900500D01*
X26878842Y-40900500D01*
X27033497Y-40869737D01*
X27179179Y-40809394D01*
X27310289Y-40721789D01*
X27421789Y-40610289D01*
X27509394Y-40479179D01*
X27569737Y-40333497D01*
X27600500Y-40178842D01*
X27600500Y-40021158D01*
X27600500Y-40021155D01*
X27600499Y-40021153D01*
X27569737Y-39866503D01*
X27569735Y-39866498D01*
X27509397Y-39720827D01*
X27509390Y-39720814D01*
X27421789Y-39589711D01*
X27421786Y-39589707D01*
X27310292Y-39478213D01*
X27310288Y-39478210D01*
X27179185Y-39390609D01*
X27179172Y-39390602D01*
X27033501Y-39330264D01*
X27033489Y-39330261D01*
X26878845Y-39299500D01*
X26878842Y-39299500D01*
X26721158Y-39299500D01*
X26721155Y-39299500D01*
X26566510Y-39330261D01*
X26566498Y-39330264D01*
X26420827Y-39390602D01*
X26420814Y-39390609D01*
X26289711Y-39478210D01*
X26289707Y-39478213D01*
X26178213Y-39589707D01*
X26178210Y-39589711D01*
X26090609Y-39720814D01*
X26090602Y-39720827D01*
X26030264Y-39866498D01*
X26030261Y-39866508D01*
X25999362Y-40021848D01*
X25966977Y-40083759D01*
X25965426Y-40085337D01*
X24085339Y-41965425D01*
X24024016Y-41998910D01*
X24021850Y-41999361D01*
X23866508Y-42030261D01*
X23866498Y-42030264D01*
X23720827Y-42090602D01*
X23720814Y-42090609D01*
X23589711Y-42178210D01*
X23589707Y-42178213D01*
X23478213Y-42289707D01*
X23478210Y-42289711D01*
X23390609Y-42420814D01*
X23390602Y-42420827D01*
X23330264Y-42566498D01*
X23330261Y-42566510D01*
X23299500Y-42721153D01*
X22298790Y-42721153D01*
X26683126Y-38336819D01*
X26744449Y-38303334D01*
X26770807Y-38300500D01*
X26778844Y-38300500D01*
X26778845Y-38300499D01*
X26933497Y-38269737D01*
X27079179Y-38209394D01*
X27210289Y-38121789D01*
X27321789Y-38010289D01*
X27409394Y-37879179D01*
X27469737Y-37733497D01*
X27500500Y-37578842D01*
X27500500Y-37421158D01*
X27500500Y-37421155D01*
X27500499Y-37421153D01*
X27492917Y-37383032D01*
X27469738Y-37266508D01*
X27469737Y-37266507D01*
X27469737Y-37266503D01*
X27465145Y-37255416D01*
X27409397Y-37120827D01*
X27409390Y-37120814D01*
X27321789Y-36989711D01*
X27321786Y-36989707D01*
X27210292Y-36878213D01*
X27210288Y-36878210D01*
X27079185Y-36790609D01*
X27079172Y-36790602D01*
X26933501Y-36730264D01*
X26933489Y-36730261D01*
X26778845Y-36699500D01*
X26778842Y-36699500D01*
X26621158Y-36699500D01*
X26621155Y-36699500D01*
X26466510Y-36730261D01*
X26466498Y-36730264D01*
X26320827Y-36790602D01*
X26320814Y-36790609D01*
X26189711Y-36878210D01*
X26189707Y-36878213D01*
X26078213Y-36989707D01*
X26078210Y-36989711D01*
X25990609Y-37120814D01*
X25990604Y-37120824D01*
X25951517Y-37215188D01*
X25924637Y-37255416D01*
X19294727Y-43885325D01*
X19294726Y-43885326D01*
X19223534Y-43991874D01*
X19174499Y-44110255D01*
X19174497Y-44110263D01*
X19149501Y-44235926D01*
X19149501Y-44364073D01*
X19174497Y-44489736D01*
X19174499Y-44489744D01*
X19223533Y-44608124D01*
X19223534Y-44608126D01*
X19223535Y-44608127D01*
X19228600Y-44615708D01*
X19249480Y-44682383D01*
X19249500Y-44684600D01*
X19249500Y-47395064D01*
X19229815Y-47462103D01*
X19228603Y-47463954D01*
X19190608Y-47520817D01*
X19190602Y-47520828D01*
X19130264Y-47666498D01*
X19130261Y-47666510D01*
X19099500Y-47821153D01*
X17620500Y-47821153D01*
X17620500Y-37137625D01*
X17640185Y-37070586D01*
X17692989Y-37024831D01*
X17762147Y-37014887D01*
X17825703Y-37043912D01*
X17832181Y-37049944D01*
X17897927Y-37115690D01*
X18050801Y-37226760D01*
X18072812Y-37237975D01*
X18219163Y-37312545D01*
X18219165Y-37312545D01*
X18219168Y-37312547D01*
X18284310Y-37333713D01*
X18398881Y-37370940D01*
X18585514Y-37400500D01*
X18585519Y-37400500D01*
X18774486Y-37400500D01*
X18961118Y-37370940D01*
X18983360Y-37363713D01*
X19140832Y-37312547D01*
X19309199Y-37226760D01*
X19462073Y-37115690D01*
X19595690Y-36982073D01*
X19706760Y-36829199D01*
X19792547Y-36660832D01*
X19832069Y-36539195D01*
X19871507Y-36481521D01*
X19935866Y-36454323D01*
X20004712Y-36466238D01*
X20056188Y-36513482D01*
X20067931Y-36539196D01*
X20107454Y-36660836D01*
X20178617Y-36800500D01*
X20193240Y-36829199D01*
X20304310Y-36982073D01*
X20437927Y-37115690D01*
X20590801Y-37226760D01*
X20612812Y-37237975D01*
X20759163Y-37312545D01*
X20759165Y-37312545D01*
X20759168Y-37312547D01*
X20824310Y-37333713D01*
X20938881Y-37370940D01*
X21125514Y-37400500D01*
X21125519Y-37400500D01*
X21314486Y-37400500D01*
X21501118Y-37370940D01*
X21523360Y-37363713D01*
X21680832Y-37312547D01*
X21849199Y-37226760D01*
X22002073Y-37115690D01*
X22135690Y-36982073D01*
X22246760Y-36829199D01*
X22332547Y-36660832D01*
X22390940Y-36481118D01*
X22395827Y-36450261D01*
X22420500Y-36294486D01*
X22420500Y-36105513D01*
X22390940Y-35918881D01*
X22348994Y-35789786D01*
X22332547Y-35739168D01*
X22332545Y-35739165D01*
X22332545Y-35739163D01*
X22246759Y-35570800D01*
X22211002Y-35521585D01*
X22135690Y-35417927D01*
X22002073Y-35284310D01*
X21849199Y-35173240D01*
X21823214Y-35160000D01*
X21680836Y-35087454D01*
X21501118Y-35029059D01*
X21314486Y-34999500D01*
X21314481Y-34999500D01*
X21125519Y-34999500D01*
X21125514Y-34999500D01*
X20938881Y-35029059D01*
X20759163Y-35087454D01*
X20590800Y-35173240D01*
X20503579Y-35236610D01*
X20437927Y-35284310D01*
X20437925Y-35284312D01*
X20437924Y-35284312D01*
X20304312Y-35417924D01*
X20304312Y-35417925D01*
X20304310Y-35417927D01*
X20256610Y-35483579D01*
X20193240Y-35570800D01*
X20107454Y-35739163D01*
X20067931Y-35860803D01*
X20028493Y-35918478D01*
X19964134Y-35945676D01*
X19895288Y-35933761D01*
X19843812Y-35886516D01*
X19832069Y-35860803D01*
X19808994Y-35789786D01*
X19792547Y-35739168D01*
X19792545Y-35739165D01*
X19792545Y-35739163D01*
X19706759Y-35570800D01*
X19671002Y-35521585D01*
X19595690Y-35417927D01*
X19462073Y-35284310D01*
X19309199Y-35173240D01*
X19283214Y-35160000D01*
X19140836Y-35087454D01*
X18961118Y-35029059D01*
X18774486Y-34999500D01*
X18774481Y-34999500D01*
X18585519Y-34999500D01*
X18585514Y-34999500D01*
X18398881Y-35029059D01*
X18219163Y-35087454D01*
X18050800Y-35173240D01*
X17963579Y-35236610D01*
X17897927Y-35284310D01*
X17897925Y-35284312D01*
X17897924Y-35284312D01*
X17832181Y-35350056D01*
X17770858Y-35383541D01*
X17701166Y-35378557D01*
X17645233Y-35336685D01*
X17620816Y-35271221D01*
X17620500Y-35262375D01*
X17620500Y-32135577D01*
X17640185Y-32068538D01*
X17692989Y-32022783D01*
X17762147Y-32012839D01*
X17825703Y-32041864D01*
X17844816Y-32062689D01*
X17849066Y-32068538D01*
X17929896Y-32179792D01*
X18080213Y-32330109D01*
X18252179Y-32455048D01*
X18252181Y-32455049D01*
X18252184Y-32455051D01*
X18441588Y-32551557D01*
X18643757Y-32617246D01*
X18853713Y-32650500D01*
X18853714Y-32650500D01*
X19066286Y-32650500D01*
X19066287Y-32650500D01*
X19276243Y-32617246D01*
X19478412Y-32551557D01*
X19667816Y-32455051D01*
X19754471Y-32392093D01*
X19839786Y-32330109D01*
X19839788Y-32330106D01*
X19839792Y-32330104D01*
X19990104Y-32179792D01*
X19990106Y-32179788D01*
X19990109Y-32179786D01*
X20115048Y-32007820D01*
X20115047Y-32007820D01*
X20115051Y-32007816D01*
X20119514Y-31999054D01*
X20167488Y-31948259D01*
X20235308Y-31931463D01*
X20301444Y-31953999D01*
X20340486Y-31999056D01*
X20344951Y-32007820D01*
X20469890Y-32179786D01*
X20620213Y-32330109D01*
X20792179Y-32455048D01*
X20792181Y-32455049D01*
X20792184Y-32455051D01*
X20981588Y-32551557D01*
X21183757Y-32617246D01*
X21393713Y-32650500D01*
X21393714Y-32650500D01*
X21606286Y-32650500D01*
X21606287Y-32650500D01*
X21816243Y-32617246D01*
X22018412Y-32551557D01*
X22207816Y-32455051D01*
X22294471Y-32392093D01*
X22379784Y-32330110D01*
X22379784Y-32330109D01*
X22379792Y-32330104D01*
X22464584Y-32245311D01*
X22525903Y-32211829D01*
X22595595Y-32216813D01*
X22651529Y-32258684D01*
X22668444Y-32289662D01*
X22706645Y-32392086D01*
X22706649Y-32392093D01*
X22792809Y-32507187D01*
X22792812Y-32507190D01*
X22907906Y-32593350D01*
X22907913Y-32593354D01*
X23042620Y-32643596D01*
X23042627Y-32643598D01*
X23102155Y-32649999D01*
X23102172Y-32650000D01*
X23750000Y-32650000D01*
X23750000Y-31733012D01*
X23807007Y-31765925D01*
X23934174Y-31800000D01*
X24065826Y-31800000D01*
X24192993Y-31765925D01*
X24250000Y-31733012D01*
X24250000Y-32650000D01*
X24897828Y-32650000D01*
X24897844Y-32649999D01*
X24957372Y-32643598D01*
X24957379Y-32643596D01*
X25092086Y-32593354D01*
X25092093Y-32593350D01*
X25207187Y-32507190D01*
X25207190Y-32507187D01*
X25293350Y-32392093D01*
X25293354Y-32392086D01*
X25343596Y-32257379D01*
X25343598Y-32257372D01*
X25349999Y-32197844D01*
X25350000Y-32197827D01*
X25350000Y-31550000D01*
X24433012Y-31550000D01*
X24465925Y-31492993D01*
X24500000Y-31365826D01*
X24500000Y-31234174D01*
X24465925Y-31107007D01*
X24433012Y-31050000D01*
X25350000Y-31050000D01*
X25350000Y-30402172D01*
X25349999Y-30402155D01*
X25343598Y-30342627D01*
X25343596Y-30342620D01*
X25293354Y-30207913D01*
X25293350Y-30207906D01*
X25207190Y-30092812D01*
X25207187Y-30092809D01*
X25092093Y-30006649D01*
X25092086Y-30006645D01*
X24957379Y-29956403D01*
X24957372Y-29956401D01*
X24897844Y-29950000D01*
X24250000Y-29950000D01*
X24250000Y-30866988D01*
X24192993Y-30834075D01*
X24065826Y-30800000D01*
X23934174Y-30800000D01*
X23807007Y-30834075D01*
X23750000Y-30866988D01*
X23750000Y-29950000D01*
X23102155Y-29950000D01*
X23042627Y-29956401D01*
X23042620Y-29956403D01*
X22907913Y-30006645D01*
X22907906Y-30006649D01*
X22792812Y-30092809D01*
X22792809Y-30092812D01*
X22706649Y-30207906D01*
X22706645Y-30207913D01*
X22668444Y-30310337D01*
X22626573Y-30366271D01*
X22561108Y-30390688D01*
X22492835Y-30375836D01*
X22464581Y-30354685D01*
X22379786Y-30269890D01*
X22207819Y-30144951D01*
X22207818Y-30144950D01*
X22207816Y-30144949D01*
X22099361Y-30089688D01*
X22031252Y-30054985D01*
X21980456Y-30007010D01*
X21963661Y-29939189D01*
X21986198Y-29873054D01*
X22040914Y-29829603D01*
X22087547Y-29820500D01*
X22194486Y-29820500D01*
X22381118Y-29790940D01*
X22560832Y-29732547D01*
X22729199Y-29646760D01*
X22882073Y-29535690D01*
X23015690Y-29402073D01*
X23126760Y-29249199D01*
X23212547Y-29080832D01*
X23270940Y-28901118D01*
X23286973Y-28799890D01*
X23300500Y-28714486D01*
X23300500Y-28525513D01*
X23270940Y-28338881D01*
X23215997Y-28169786D01*
X23212547Y-28159168D01*
X23212545Y-28159165D01*
X23212545Y-28159163D01*
X23140527Y-28017820D01*
X23126760Y-27990801D01*
X23015690Y-27837927D01*
X22882073Y-27704310D01*
X22729199Y-27593240D01*
X22560836Y-27507454D01*
X22486472Y-27483291D01*
X22439195Y-27467930D01*
X22381521Y-27428493D01*
X22354323Y-27364134D01*
X22366238Y-27295288D01*
X22413482Y-27243812D01*
X22439194Y-27232069D01*
X22560832Y-27192547D01*
X22729199Y-27106760D01*
X22882073Y-26995690D01*
X23015690Y-26862073D01*
X23126760Y-26709199D01*
X23212547Y-26540832D01*
X23270940Y-26361118D01*
X23286973Y-26259890D01*
X23300500Y-26174486D01*
X23300500Y-25985513D01*
X23270940Y-25798881D01*
X23215999Y-25629792D01*
X23212547Y-25619168D01*
X23212545Y-25619165D01*
X23212545Y-25619163D01*
X23140527Y-25477820D01*
X23126760Y-25450801D01*
X23018034Y-25301153D01*
X24899500Y-25301153D01*
X24899500Y-25458846D01*
X24930261Y-25613489D01*
X24930264Y-25613501D01*
X24990602Y-25759172D01*
X24990609Y-25759185D01*
X25078210Y-25890288D01*
X25078213Y-25890292D01*
X25189707Y-26001786D01*
X25189711Y-26001789D01*
X25320814Y-26089390D01*
X25320827Y-26089397D01*
X25422385Y-26131463D01*
X25466503Y-26149737D01*
X25590899Y-26174481D01*
X25621153Y-26180499D01*
X25621156Y-26180500D01*
X25621158Y-26180500D01*
X25778844Y-26180500D01*
X25778845Y-26180499D01*
X25933497Y-26149737D01*
X26075698Y-26090836D01*
X26079172Y-26089397D01*
X26079172Y-26089396D01*
X26079179Y-26089394D01*
X26136044Y-26051397D01*
X26202721Y-26030520D01*
X26204935Y-26030500D01*
X26784071Y-26030500D01*
X26868615Y-26013682D01*
X26909744Y-26005501D01*
X27028127Y-25956465D01*
X27134669Y-25885277D01*
X28402931Y-24617013D01*
X28464252Y-24583530D01*
X28466317Y-24583099D01*
X28533497Y-24569737D01*
X28679179Y-24509394D01*
X28810289Y-24421789D01*
X28921789Y-24310289D01*
X29009394Y-24179179D01*
X29069737Y-24033497D01*
X29100500Y-23878842D01*
X29100500Y-23721158D01*
X29100500Y-23721155D01*
X29100499Y-23721153D01*
X29079374Y-23614951D01*
X29069737Y-23566503D01*
X29036107Y-23485312D01*
X29009397Y-23420827D01*
X29009390Y-23420814D01*
X28921789Y-23289711D01*
X28921786Y-23289707D01*
X28810292Y-23178213D01*
X28810288Y-23178210D01*
X28679185Y-23090609D01*
X28679172Y-23090602D01*
X28533501Y-23030264D01*
X28533489Y-23030261D01*
X28378845Y-22999500D01*
X28378842Y-22999500D01*
X28221158Y-22999500D01*
X28221155Y-22999500D01*
X28066510Y-23030261D01*
X28066498Y-23030264D01*
X27920827Y-23090602D01*
X27920814Y-23090609D01*
X27789711Y-23178210D01*
X27789707Y-23178213D01*
X27678213Y-23289707D01*
X27678210Y-23289711D01*
X27590609Y-23420814D01*
X27590602Y-23420827D01*
X27530264Y-23566498D01*
X27530261Y-23566508D01*
X27516920Y-23633579D01*
X27484535Y-23695490D01*
X27482984Y-23697068D01*
X26486873Y-24693181D01*
X26459945Y-24707884D01*
X26434127Y-24724477D01*
X26427926Y-24725368D01*
X26425550Y-24726666D01*
X26399192Y-24729500D01*
X26204935Y-24729500D01*
X26137896Y-24709815D01*
X26136090Y-24708633D01*
X26079179Y-24670606D01*
X26079172Y-24670602D01*
X25933501Y-24610264D01*
X25933489Y-24610261D01*
X25778845Y-24579500D01*
X25778842Y-24579500D01*
X25621158Y-24579500D01*
X25621155Y-24579500D01*
X25466510Y-24610261D01*
X25466498Y-24610264D01*
X25320827Y-24670602D01*
X25320814Y-24670609D01*
X25189711Y-24758210D01*
X25189707Y-24758213D01*
X25078213Y-24869707D01*
X25078210Y-24869711D01*
X24990609Y-25000814D01*
X24990602Y-25000827D01*
X24930264Y-25146498D01*
X24930261Y-25146510D01*
X24899500Y-25301153D01*
X23018034Y-25301153D01*
X23015690Y-25297927D01*
X22882073Y-25164310D01*
X22729199Y-25053240D01*
X22699974Y-25038349D01*
X22560836Y-24967454D01*
X22381118Y-24909059D01*
X22194486Y-24879500D01*
X22194481Y-24879500D01*
X22005519Y-24879500D01*
X22005514Y-24879500D01*
X21818881Y-24909059D01*
X21639163Y-24967454D01*
X21470800Y-25053240D01*
X21425382Y-25086239D01*
X21317927Y-25164310D01*
X21317925Y-25164312D01*
X21317924Y-25164312D01*
X21184312Y-25297924D01*
X21184312Y-25297925D01*
X21184310Y-25297927D01*
X21181963Y-25301158D01*
X21073240Y-25450800D01*
X20987454Y-25619163D01*
X20929059Y-25798881D01*
X20899500Y-25985513D01*
X20899500Y-26174486D01*
X20929059Y-26361118D01*
X20987454Y-26540836D01*
X21046521Y-26656760D01*
X21073240Y-26709199D01*
X21184310Y-26862073D01*
X21317927Y-26995690D01*
X21470801Y-27106760D01*
X21542397Y-27143240D01*
X21639163Y-27192545D01*
X21639165Y-27192545D01*
X21639168Y-27192547D01*
X21728734Y-27221649D01*
X21760803Y-27232069D01*
X21818478Y-27271507D01*
X21845676Y-27335866D01*
X21833761Y-27404712D01*
X21786516Y-27456188D01*
X21760803Y-27467931D01*
X21639163Y-27507454D01*
X21470800Y-27593240D01*
X21425382Y-27626239D01*
X21317927Y-27704310D01*
X21317925Y-27704312D01*
X21317924Y-27704312D01*
X21184312Y-27837924D01*
X21184312Y-27837925D01*
X21184310Y-27837927D01*
X21147290Y-27888881D01*
X21073240Y-27990800D01*
X20987454Y-28159163D01*
X20929059Y-28338881D01*
X20899500Y-28525513D01*
X20899500Y-28714486D01*
X20929059Y-28901118D01*
X20987454Y-29080836D01*
X21046521Y-29196760D01*
X21073240Y-29249199D01*
X21184310Y-29402073D01*
X21317927Y-29535690D01*
X21470801Y-29646760D01*
X21565173Y-29694844D01*
X21604759Y-29715015D01*
X21655555Y-29762990D01*
X21672350Y-29830811D01*
X21649813Y-29896946D01*
X21595097Y-29940397D01*
X21548464Y-29949500D01*
X21393713Y-29949500D01*
X21345042Y-29957208D01*
X21183760Y-29982753D01*
X20981585Y-30048444D01*
X20792179Y-30144951D01*
X20620213Y-30269890D01*
X20469890Y-30420213D01*
X20344949Y-30592182D01*
X20340484Y-30600946D01*
X20292509Y-30651742D01*
X20224688Y-30668536D01*
X20158553Y-30645998D01*
X20119516Y-30600946D01*
X20115050Y-30592182D01*
X19990109Y-30420213D01*
X19839786Y-30269890D01*
X19667820Y-30144951D01*
X19478414Y-30048444D01*
X19478413Y-30048443D01*
X19478412Y-30048443D01*
X19276243Y-29982754D01*
X19276241Y-29982753D01*
X19276240Y-29982753D01*
X19114957Y-29957208D01*
X19066287Y-29949500D01*
X18853713Y-29949500D01*
X18805042Y-29957208D01*
X18643760Y-29982753D01*
X18441585Y-30048444D01*
X18252179Y-30144951D01*
X18080213Y-30269890D01*
X17929894Y-30420209D01*
X17929890Y-30420214D01*
X17844818Y-30537307D01*
X17789488Y-30579973D01*
X17719875Y-30585952D01*
X17658080Y-30553347D01*
X17623723Y-30492508D01*
X17620500Y-30464422D01*
X17620500Y-29087625D01*
X17640185Y-29020586D01*
X17692989Y-28974831D01*
X17762147Y-28964887D01*
X17825703Y-28993912D01*
X17832181Y-28999944D01*
X17917927Y-29085690D01*
X18070801Y-29196760D01*
X18146167Y-29235161D01*
X18239163Y-29282545D01*
X18239165Y-29282545D01*
X18239168Y-29282547D01*
X18335497Y-29313846D01*
X18418881Y-29340940D01*
X18605514Y-29370500D01*
X18605519Y-29370500D01*
X18794486Y-29370500D01*
X18981118Y-29340940D01*
X19009900Y-29331588D01*
X19160832Y-29282547D01*
X19329199Y-29196760D01*
X19482073Y-29085690D01*
X19615690Y-28952073D01*
X19726760Y-28799199D01*
X19812547Y-28630832D01*
X19870940Y-28451118D01*
X19888523Y-28340104D01*
X19900500Y-28264486D01*
X19900500Y-28075513D01*
X19870940Y-27888881D01*
X19812545Y-27709163D01*
X19726759Y-27540800D01*
X19615690Y-27387927D01*
X19482073Y-27254310D01*
X19329199Y-27143240D01*
X19160836Y-27057454D01*
X19086472Y-27033291D01*
X19039195Y-27017930D01*
X18981521Y-26978493D01*
X18954323Y-26914134D01*
X18966238Y-26845288D01*
X19013482Y-26793812D01*
X19039194Y-26782069D01*
X19160832Y-26742547D01*
X19329199Y-26656760D01*
X19482073Y-26545690D01*
X19615690Y-26412073D01*
X19726760Y-26259199D01*
X19812547Y-26090832D01*
X19870940Y-25911118D01*
X19873485Y-25895048D01*
X19900500Y-25724486D01*
X19900500Y-25535513D01*
X19870940Y-25348881D01*
X19812545Y-25169163D01*
X19753479Y-25053240D01*
X19726760Y-25000801D01*
X19615690Y-24847927D01*
X19482073Y-24714310D01*
X19329199Y-24603240D01*
X19327070Y-24602155D01*
X19160836Y-24517454D01*
X18981118Y-24459059D01*
X18794486Y-24429500D01*
X18794481Y-24429500D01*
X18605519Y-24429500D01*
X18605514Y-24429500D01*
X18418881Y-24459059D01*
X18239163Y-24517454D01*
X18070800Y-24603240D01*
X18015095Y-24643713D01*
X17917927Y-24714310D01*
X17917925Y-24714312D01*
X17917924Y-24714312D01*
X17832181Y-24800056D01*
X17770858Y-24833541D01*
X17701166Y-24828557D01*
X17645233Y-24786685D01*
X17620816Y-24721221D01*
X17620500Y-24712375D01*
X17620500Y-22281153D01*
X23159500Y-22281153D01*
X23159500Y-22438846D01*
X23190261Y-22593489D01*
X23190264Y-22593501D01*
X23250602Y-22739172D01*
X23250609Y-22739185D01*
X23338210Y-22870288D01*
X23338213Y-22870292D01*
X23449707Y-22981786D01*
X23449711Y-22981789D01*
X23580814Y-23069390D01*
X23580827Y-23069397D01*
X23678351Y-23109792D01*
X23726503Y-23129737D01*
X23881153Y-23160499D01*
X23881156Y-23160500D01*
X23881158Y-23160500D01*
X24038844Y-23160500D01*
X24038845Y-23160499D01*
X24193497Y-23129737D01*
X24339179Y-23069394D01*
X24470289Y-22981789D01*
X24581789Y-22870289D01*
X24669394Y-22739179D01*
X24729737Y-22593497D01*
X24743079Y-22526416D01*
X24775463Y-22464509D01*
X24776959Y-22462985D01*
X26863126Y-20376819D01*
X26890053Y-20362115D01*
X26915872Y-20345523D01*
X26922072Y-20344631D01*
X26924449Y-20343334D01*
X26950807Y-20340500D01*
X26995065Y-20340500D01*
X27062104Y-20360185D01*
X27063909Y-20361366D01*
X27120821Y-20399394D01*
X27120823Y-20399395D01*
X27120827Y-20399397D01*
X27266498Y-20459735D01*
X27266503Y-20459737D01*
X27421153Y-20490499D01*
X27421156Y-20490500D01*
X27421158Y-20490500D01*
X27578844Y-20490500D01*
X27578845Y-20490499D01*
X27733497Y-20459737D01*
X27879179Y-20399394D01*
X28010289Y-20311789D01*
X28121789Y-20200289D01*
X28209394Y-20069179D01*
X28269737Y-19923497D01*
X28300500Y-19768842D01*
X28300500Y-19611158D01*
X28295041Y-19583713D01*
X30284500Y-19583713D01*
X30284500Y-19796286D01*
X30314585Y-19986239D01*
X30317754Y-20006243D01*
X30380803Y-20200288D01*
X30383444Y-20208414D01*
X30479951Y-20397820D01*
X30604890Y-20569786D01*
X30755213Y-20720109D01*
X30927182Y-20845050D01*
X30935946Y-20849516D01*
X30986742Y-20897491D01*
X31003536Y-20965312D01*
X30980998Y-21031447D01*
X30935946Y-21070484D01*
X30927182Y-21074949D01*
X30755213Y-21199890D01*
X30604890Y-21350213D01*
X30479951Y-21522179D01*
X30383444Y-21711585D01*
X30317753Y-21913760D01*
X30284500Y-22123713D01*
X30284500Y-22336286D01*
X30314585Y-22526239D01*
X30317754Y-22546243D01*
X30376945Y-22728414D01*
X30383444Y-22748414D01*
X30479951Y-22937820D01*
X30604890Y-23109786D01*
X30755213Y-23260109D01*
X30927182Y-23385050D01*
X30935946Y-23389516D01*
X30986742Y-23437491D01*
X31003536Y-23505312D01*
X30980998Y-23571447D01*
X30935946Y-23610484D01*
X30927182Y-23614949D01*
X30755213Y-23739890D01*
X30604890Y-23890213D01*
X30479951Y-24062179D01*
X30383444Y-24251585D01*
X30317753Y-24453760D01*
X30284500Y-24663713D01*
X30284500Y-24876286D01*
X30314585Y-25066239D01*
X30317754Y-25086243D01*
X30376945Y-25268414D01*
X30383444Y-25288414D01*
X30479951Y-25477820D01*
X30604890Y-25649786D01*
X30755213Y-25800109D01*
X30927182Y-25925050D01*
X30935946Y-25929516D01*
X30986742Y-25977491D01*
X31003536Y-26045312D01*
X30980998Y-26111447D01*
X30935946Y-26150484D01*
X30927182Y-26154949D01*
X30755213Y-26279890D01*
X30604890Y-26430213D01*
X30479951Y-26602179D01*
X30383444Y-26791585D01*
X30383443Y-26791587D01*
X30383443Y-26791588D01*
X30366544Y-26843598D01*
X30317753Y-26993760D01*
X30284500Y-27203713D01*
X30284500Y-27416286D01*
X30314585Y-27606239D01*
X30317754Y-27626243D01*
X30376945Y-27808414D01*
X30383444Y-27828414D01*
X30479951Y-28017820D01*
X30604890Y-28189786D01*
X30755213Y-28340109D01*
X30927182Y-28465050D01*
X30935946Y-28469516D01*
X30986742Y-28517491D01*
X31003536Y-28585312D01*
X30980998Y-28651447D01*
X30935946Y-28690484D01*
X30927182Y-28694949D01*
X30755213Y-28819890D01*
X30604890Y-28970213D01*
X30479951Y-29142179D01*
X30383444Y-29331585D01*
X30317753Y-29533760D01*
X30289045Y-29715015D01*
X30284500Y-29743713D01*
X30284500Y-29956287D01*
X30285459Y-29962344D01*
X30314585Y-30146239D01*
X30317754Y-30166243D01*
X30382747Y-30366271D01*
X30383444Y-30368414D01*
X30479951Y-30557820D01*
X30604890Y-30729786D01*
X30755213Y-30880109D01*
X30927182Y-31005050D01*
X30935946Y-31009516D01*
X30986742Y-31057491D01*
X31003536Y-31125312D01*
X30980998Y-31191447D01*
X30935946Y-31230484D01*
X30927182Y-31234949D01*
X30755213Y-31359890D01*
X30604890Y-31510213D01*
X30479951Y-31682179D01*
X30383444Y-31871585D01*
X30317753Y-32073760D01*
X30289239Y-32253793D01*
X30284500Y-32283713D01*
X30284500Y-32496287D01*
X30286227Y-32507190D01*
X30314585Y-32686239D01*
X30317754Y-32706243D01*
X30376945Y-32888414D01*
X30383444Y-32908414D01*
X30479951Y-33097820D01*
X30604890Y-33269786D01*
X30718818Y-33383714D01*
X30752303Y-33445037D01*
X30747319Y-33514729D01*
X30705447Y-33570662D01*
X30674471Y-33587577D01*
X30542912Y-33636646D01*
X30542906Y-33636649D01*
X30427812Y-33722809D01*
X30427809Y-33722812D01*
X30341649Y-33837906D01*
X30341645Y-33837913D01*
X30291403Y-33972620D01*
X30291401Y-33972627D01*
X30285000Y-34032155D01*
X30285000Y-34680000D01*
X31201988Y-34680000D01*
X31169075Y-34737007D01*
X31135000Y-34864174D01*
X31135000Y-34995826D01*
X31169075Y-35122993D01*
X31201988Y-35180000D01*
X30285000Y-35180000D01*
X30285000Y-35827844D01*
X30291401Y-35887372D01*
X30291403Y-35887379D01*
X30341645Y-36022086D01*
X30341649Y-36022093D01*
X30427809Y-36137187D01*
X30427812Y-36137190D01*
X30542906Y-36223350D01*
X30542913Y-36223354D01*
X30674470Y-36272422D01*
X30730404Y-36314293D01*
X30754821Y-36379758D01*
X30739969Y-36448031D01*
X30718819Y-36476285D01*
X30604889Y-36590215D01*
X30479951Y-36762179D01*
X30383444Y-36951585D01*
X30317753Y-37153760D01*
X30284500Y-37363713D01*
X30284500Y-37576286D01*
X30314585Y-37766239D01*
X30317754Y-37786243D01*
X30376945Y-37968414D01*
X30383444Y-37988414D01*
X30479951Y-38177820D01*
X30604890Y-38349786D01*
X30755213Y-38500109D01*
X30927182Y-38625050D01*
X30935946Y-38629516D01*
X30986742Y-38677491D01*
X31003536Y-38745312D01*
X30980998Y-38811447D01*
X30935946Y-38850484D01*
X30927182Y-38854949D01*
X30755213Y-38979890D01*
X30604890Y-39130213D01*
X30479951Y-39302179D01*
X30383444Y-39491585D01*
X30317753Y-39693760D01*
X30284500Y-39903713D01*
X30284500Y-40116286D01*
X30314585Y-40306239D01*
X30317754Y-40326243D01*
X30376945Y-40508414D01*
X30383444Y-40528414D01*
X30479951Y-40717820D01*
X30604890Y-40889786D01*
X30755213Y-41040109D01*
X30927182Y-41165050D01*
X30935946Y-41169516D01*
X30986742Y-41217491D01*
X31003536Y-41285312D01*
X30980998Y-41351447D01*
X30935946Y-41390484D01*
X30927182Y-41394949D01*
X30755213Y-41519890D01*
X30604890Y-41670213D01*
X30479951Y-41842179D01*
X30383444Y-42031585D01*
X30317753Y-42233760D01*
X30288127Y-42420814D01*
X30284500Y-42443713D01*
X30284500Y-42656287D01*
X30286071Y-42666204D01*
X30314585Y-42846239D01*
X30317754Y-42866243D01*
X30381403Y-43062135D01*
X30383444Y-43068414D01*
X30479951Y-43257820D01*
X30604890Y-43429786D01*
X30755213Y-43580109D01*
X30927182Y-43705050D01*
X30935946Y-43709516D01*
X30986742Y-43757491D01*
X31003536Y-43825312D01*
X30980998Y-43891447D01*
X30935946Y-43930484D01*
X30927182Y-43934949D01*
X30755213Y-44059890D01*
X30604890Y-44210213D01*
X30479951Y-44382179D01*
X30383444Y-44571585D01*
X30317753Y-44773760D01*
X30284500Y-44983713D01*
X30284500Y-45196286D01*
X30314585Y-45386239D01*
X30317754Y-45406243D01*
X30376945Y-45588414D01*
X30383444Y-45608414D01*
X30479951Y-45797820D01*
X30604890Y-45969786D01*
X30755213Y-46120109D01*
X30927182Y-46245050D01*
X30935946Y-46249516D01*
X30986742Y-46297491D01*
X31003536Y-46365312D01*
X30980998Y-46431447D01*
X30935946Y-46470484D01*
X30927182Y-46474949D01*
X30755213Y-46599890D01*
X30604890Y-46750213D01*
X30479951Y-46922179D01*
X30383444Y-47111585D01*
X30383443Y-47111587D01*
X30383443Y-47111588D01*
X30372887Y-47144075D01*
X30317753Y-47313760D01*
X30284500Y-47523713D01*
X30284500Y-47736286D01*
X30314585Y-47926239D01*
X30317754Y-47946243D01*
X30378594Y-48133489D01*
X30383444Y-48148414D01*
X30479951Y-48337820D01*
X30604890Y-48509786D01*
X30755213Y-48660109D01*
X30927179Y-48785048D01*
X30927181Y-48785049D01*
X30927184Y-48785051D01*
X31116588Y-48881557D01*
X31318757Y-48947246D01*
X31528713Y-48980500D01*
X31528714Y-48980500D01*
X31741286Y-48980500D01*
X31741287Y-48980500D01*
X31951243Y-48947246D01*
X32153412Y-48881557D01*
X32342816Y-48785051D01*
X32370348Y-48765048D01*
X32514786Y-48660109D01*
X32514788Y-48660106D01*
X32514792Y-48660104D01*
X32665104Y-48509792D01*
X32665106Y-48509788D01*
X32665109Y-48509786D01*
X32790048Y-48337820D01*
X32790047Y-48337820D01*
X32790051Y-48337816D01*
X32886557Y-48148412D01*
X32952246Y-47946243D01*
X32985500Y-47736287D01*
X32985500Y-47523713D01*
X32952246Y-47313757D01*
X32886557Y-47111588D01*
X32790051Y-46922184D01*
X32790049Y-46922181D01*
X32790048Y-46922179D01*
X32665109Y-46750213D01*
X32514786Y-46599890D01*
X32342820Y-46474951D01*
X32342115Y-46474591D01*
X32334054Y-46470485D01*
X32283259Y-46422512D01*
X32266463Y-46354692D01*
X32288999Y-46288556D01*
X32334054Y-46249515D01*
X32342816Y-46245051D01*
X32425843Y-46184729D01*
X32514786Y-46120109D01*
X32514788Y-46120106D01*
X32514792Y-46120104D01*
X32665104Y-45969792D01*
X32665106Y-45969788D01*
X32665109Y-45969786D01*
X32790048Y-45797820D01*
X32790047Y-45797820D01*
X32790051Y-45797816D01*
X32886557Y-45608412D01*
X32952246Y-45406243D01*
X32985500Y-45196287D01*
X32985500Y-44983713D01*
X32952246Y-44773757D01*
X32886557Y-44571588D01*
X32790051Y-44382184D01*
X32790049Y-44382181D01*
X32790048Y-44382179D01*
X32665109Y-44210213D01*
X32514786Y-44059890D01*
X32342820Y-43934951D01*
X32342115Y-43934591D01*
X32334054Y-43930485D01*
X32283259Y-43882512D01*
X32266463Y-43814692D01*
X32288999Y-43748556D01*
X32334054Y-43709515D01*
X32342816Y-43705051D01*
X32391211Y-43669890D01*
X32514786Y-43580109D01*
X32514788Y-43580106D01*
X32514792Y-43580104D01*
X32665104Y-43429792D01*
X32665106Y-43429788D01*
X32665109Y-43429786D01*
X32790048Y-43257820D01*
X32790047Y-43257820D01*
X32790051Y-43257816D01*
X32886557Y-43068412D01*
X32952246Y-42866243D01*
X32985500Y-42656287D01*
X32985500Y-42443713D01*
X32952246Y-42233757D01*
X32886557Y-42031588D01*
X32790051Y-41842184D01*
X32790049Y-41842181D01*
X32790048Y-41842179D01*
X32665109Y-41670213D01*
X32514786Y-41519890D01*
X32342820Y-41394951D01*
X32342115Y-41394591D01*
X32334054Y-41390485D01*
X32283259Y-41342512D01*
X32266463Y-41274692D01*
X32288999Y-41208556D01*
X32334054Y-41169515D01*
X32342816Y-41165051D01*
X32384112Y-41135048D01*
X32514786Y-41040109D01*
X32514788Y-41040106D01*
X32514792Y-41040104D01*
X32665104Y-40889792D01*
X32665106Y-40889788D01*
X32665109Y-40889786D01*
X32790048Y-40717820D01*
X32790047Y-40717820D01*
X32790051Y-40717816D01*
X32886557Y-40528412D01*
X32952246Y-40326243D01*
X32985500Y-40116287D01*
X32985500Y-39903713D01*
X32952246Y-39693757D01*
X32886557Y-39491588D01*
X32790051Y-39302184D01*
X32790049Y-39302181D01*
X32790048Y-39302179D01*
X32665109Y-39130213D01*
X32514786Y-38979890D01*
X32342820Y-38854951D01*
X32342115Y-38854591D01*
X32334054Y-38850485D01*
X32283259Y-38802512D01*
X32266463Y-38734692D01*
X32288999Y-38668556D01*
X32334054Y-38629515D01*
X32342816Y-38625051D01*
X32384112Y-38595048D01*
X32514786Y-38500109D01*
X32514788Y-38500106D01*
X32514792Y-38500104D01*
X32665104Y-38349792D01*
X32665106Y-38349788D01*
X32665109Y-38349786D01*
X32790048Y-38177820D01*
X32790047Y-38177820D01*
X32790051Y-38177816D01*
X32886557Y-37988412D01*
X32952246Y-37786243D01*
X32985500Y-37576287D01*
X32985500Y-37363713D01*
X32952246Y-37153757D01*
X32886557Y-36951588D01*
X32790051Y-36762184D01*
X32790049Y-36762181D01*
X32790048Y-36762179D01*
X32665109Y-36590213D01*
X32551181Y-36476285D01*
X32517696Y-36414962D01*
X32522680Y-36345270D01*
X32564552Y-36289337D01*
X32595529Y-36272422D01*
X32727086Y-36223354D01*
X32727093Y-36223350D01*
X32842187Y-36137190D01*
X32842190Y-36137187D01*
X32928350Y-36022093D01*
X32928354Y-36022086D01*
X32978596Y-35887379D01*
X32978598Y-35887372D01*
X32984999Y-35827844D01*
X32985000Y-35827827D01*
X32985000Y-35180000D01*
X32068012Y-35180000D01*
X32100925Y-35122993D01*
X32135000Y-34995826D01*
X32135000Y-34864174D01*
X32100925Y-34737007D01*
X32068012Y-34680000D01*
X32985000Y-34680000D01*
X32985000Y-34032172D01*
X32984999Y-34032155D01*
X32978598Y-33972627D01*
X32978596Y-33972620D01*
X32928354Y-33837913D01*
X32928350Y-33837906D01*
X32842190Y-33722812D01*
X32842187Y-33722809D01*
X32727093Y-33636649D01*
X32727088Y-33636646D01*
X32595528Y-33587577D01*
X32539595Y-33545705D01*
X32515178Y-33480241D01*
X32530030Y-33411968D01*
X32551175Y-33383720D01*
X32665104Y-33269792D01*
X32686905Y-33239786D01*
X32790048Y-33097820D01*
X32790047Y-33097820D01*
X32790051Y-33097816D01*
X32886557Y-32908412D01*
X32952246Y-32706243D01*
X32985500Y-32496287D01*
X32985500Y-32283713D01*
X32952246Y-32073757D01*
X32886557Y-31871588D01*
X32790051Y-31682184D01*
X32790049Y-31682181D01*
X32790048Y-31682179D01*
X32665109Y-31510213D01*
X32514786Y-31359890D01*
X32342820Y-31234951D01*
X32341295Y-31234174D01*
X32334054Y-31230485D01*
X32283259Y-31182512D01*
X32266463Y-31114692D01*
X32288999Y-31048556D01*
X32334054Y-31009515D01*
X32342816Y-31005051D01*
X32384112Y-30975048D01*
X32514786Y-30880109D01*
X32514788Y-30880106D01*
X32514792Y-30880104D01*
X32665104Y-30729792D01*
X32665106Y-30729788D01*
X32665109Y-30729786D01*
X32790048Y-30557820D01*
X32790047Y-30557820D01*
X32790051Y-30557816D01*
X32886557Y-30368412D01*
X32952246Y-30166243D01*
X32985500Y-29956287D01*
X32985500Y-29743713D01*
X32952246Y-29533757D01*
X32886557Y-29331588D01*
X32790051Y-29142184D01*
X32790049Y-29142181D01*
X32790048Y-29142179D01*
X32665109Y-28970213D01*
X32514786Y-28819890D01*
X32342820Y-28694951D01*
X32342115Y-28694591D01*
X32334054Y-28690485D01*
X32283259Y-28642512D01*
X32266463Y-28574692D01*
X32288999Y-28508556D01*
X32334054Y-28469515D01*
X32342816Y-28465051D01*
X32384112Y-28435048D01*
X32514786Y-28340109D01*
X32514788Y-28340106D01*
X32514792Y-28340104D01*
X32665104Y-28189792D01*
X32665106Y-28189788D01*
X32665109Y-28189786D01*
X32790048Y-28017820D01*
X32790047Y-28017820D01*
X32790051Y-28017816D01*
X32886557Y-27828412D01*
X32952246Y-27626243D01*
X32985500Y-27416287D01*
X32985500Y-27203713D01*
X32952246Y-26993757D01*
X32886557Y-26791588D01*
X32790051Y-26602184D01*
X32790049Y-26602181D01*
X32790048Y-26602179D01*
X32665109Y-26430213D01*
X32514786Y-26279890D01*
X32342820Y-26154951D01*
X32342115Y-26154591D01*
X32334054Y-26150485D01*
X32283259Y-26102512D01*
X32266463Y-26034692D01*
X32288999Y-25968556D01*
X32334054Y-25929515D01*
X32342816Y-25925051D01*
X32397566Y-25885273D01*
X32514786Y-25800109D01*
X32514788Y-25800106D01*
X32514792Y-25800104D01*
X32665104Y-25649792D01*
X32665106Y-25649788D01*
X32665109Y-25649786D01*
X32790048Y-25477820D01*
X32790047Y-25477820D01*
X32790051Y-25477816D01*
X32886557Y-25288412D01*
X32952246Y-25086243D01*
X32985500Y-24876287D01*
X32985500Y-24663713D01*
X32952246Y-24453757D01*
X32886557Y-24251588D01*
X32790051Y-24062184D01*
X32790049Y-24062181D01*
X32790048Y-24062179D01*
X32665109Y-23890213D01*
X32514786Y-23739890D01*
X32342820Y-23614951D01*
X32342115Y-23614591D01*
X32334054Y-23610485D01*
X32283259Y-23562512D01*
X32266463Y-23494692D01*
X32288999Y-23428556D01*
X32334054Y-23389515D01*
X32342816Y-23385051D01*
X32384112Y-23355048D01*
X32514786Y-23260109D01*
X32514788Y-23260106D01*
X32514792Y-23260104D01*
X32665104Y-23109792D01*
X32665106Y-23109788D01*
X32665109Y-23109786D01*
X32790048Y-22937820D01*
X32790047Y-22937820D01*
X32790051Y-22937816D01*
X32886557Y-22748412D01*
X32952246Y-22546243D01*
X32985500Y-22336287D01*
X32985500Y-22123713D01*
X32952246Y-21913757D01*
X32886557Y-21711588D01*
X32790051Y-21522184D01*
X32790049Y-21522181D01*
X32790048Y-21522179D01*
X32665109Y-21350213D01*
X32514786Y-21199890D01*
X32342820Y-21074951D01*
X32342115Y-21074591D01*
X32334054Y-21070485D01*
X32283259Y-21022512D01*
X32266463Y-20954692D01*
X32288999Y-20888556D01*
X32334054Y-20849515D01*
X32342816Y-20845051D01*
X32384112Y-20815048D01*
X32514786Y-20720109D01*
X32514788Y-20720106D01*
X32514792Y-20720104D01*
X32665104Y-20569792D01*
X32665106Y-20569788D01*
X32665109Y-20569786D01*
X32788902Y-20399397D01*
X32790051Y-20397816D01*
X32886557Y-20208412D01*
X32952246Y-20006243D01*
X32985500Y-19796287D01*
X32985500Y-19583713D01*
X32982332Y-19563713D01*
X34009500Y-19563713D01*
X34009500Y-19776286D01*
X34041169Y-19976239D01*
X34042754Y-19986243D01*
X34105194Y-20178414D01*
X34108444Y-20188414D01*
X34204951Y-20377820D01*
X34329890Y-20549786D01*
X34480213Y-20700109D01*
X34652182Y-20825050D01*
X34660946Y-20829516D01*
X34711742Y-20877491D01*
X34728536Y-20945312D01*
X34705998Y-21011447D01*
X34660946Y-21050484D01*
X34652182Y-21054949D01*
X34480213Y-21179890D01*
X34329890Y-21330213D01*
X34204951Y-21502179D01*
X34108444Y-21691585D01*
X34042753Y-21893760D01*
X34009500Y-22103713D01*
X34009500Y-22316286D01*
X34041169Y-22516239D01*
X34042754Y-22526243D01*
X34105194Y-22718414D01*
X34108444Y-22728414D01*
X34204951Y-22917820D01*
X34329890Y-23089786D01*
X34480213Y-23240109D01*
X34652182Y-23365050D01*
X34660946Y-23369516D01*
X34711742Y-23417491D01*
X34728536Y-23485312D01*
X34705998Y-23551447D01*
X34660946Y-23590484D01*
X34652182Y-23594949D01*
X34480213Y-23719890D01*
X34329890Y-23870213D01*
X34204951Y-24042179D01*
X34108444Y-24231585D01*
X34042753Y-24433760D01*
X34021217Y-24569735D01*
X34009500Y-24643713D01*
X34009500Y-24856287D01*
X34019534Y-24919644D01*
X34041169Y-25056239D01*
X34042754Y-25066243D01*
X34105194Y-25258414D01*
X34108444Y-25268414D01*
X34204951Y-25457820D01*
X34329890Y-25629786D01*
X34480213Y-25780109D01*
X34652182Y-25905050D01*
X34660946Y-25909516D01*
X34711742Y-25957491D01*
X34728536Y-26025312D01*
X34705998Y-26091447D01*
X34660946Y-26130484D01*
X34652182Y-26134949D01*
X34480213Y-26259890D01*
X34329890Y-26410213D01*
X34204951Y-26582179D01*
X34108444Y-26771585D01*
X34042753Y-26973760D01*
X34021688Y-27106759D01*
X34009500Y-27183713D01*
X34009500Y-27396287D01*
X34018987Y-27456188D01*
X34041169Y-27596239D01*
X34042754Y-27606243D01*
X34105194Y-27798414D01*
X34108444Y-27808414D01*
X34204951Y-27997820D01*
X34329890Y-28169786D01*
X34480213Y-28320109D01*
X34652182Y-28445050D01*
X34660946Y-28449516D01*
X34711742Y-28497491D01*
X34728536Y-28565312D01*
X34705998Y-28631447D01*
X34660946Y-28670484D01*
X34652182Y-28674949D01*
X34480213Y-28799890D01*
X34329890Y-28950213D01*
X34204951Y-29122179D01*
X34108444Y-29311585D01*
X34042753Y-29513760D01*
X34009500Y-29723713D01*
X34009500Y-29936286D01*
X34041169Y-30136239D01*
X34042754Y-30146243D01*
X34106563Y-30342627D01*
X34108444Y-30348414D01*
X34204951Y-30537820D01*
X34329890Y-30709786D01*
X34480213Y-30860109D01*
X34652182Y-30985050D01*
X34660946Y-30989516D01*
X34711742Y-31037491D01*
X34728536Y-31105312D01*
X34705998Y-31171447D01*
X34660946Y-31210484D01*
X34652182Y-31214949D01*
X34480213Y-31339890D01*
X34329890Y-31490213D01*
X34204951Y-31662179D01*
X34108444Y-31851585D01*
X34042753Y-32053760D01*
X34009500Y-32263713D01*
X34009500Y-32476286D01*
X34041169Y-32676239D01*
X34042754Y-32686243D01*
X34105194Y-32878414D01*
X34108444Y-32888414D01*
X34204951Y-33077820D01*
X34329890Y-33249786D01*
X34443818Y-33363714D01*
X34477303Y-33425037D01*
X34472319Y-33494729D01*
X34430447Y-33550662D01*
X34399471Y-33567577D01*
X34267912Y-33616646D01*
X34267906Y-33616649D01*
X34152812Y-33702809D01*
X34152809Y-33702812D01*
X34066649Y-33817906D01*
X34066645Y-33817913D01*
X34016403Y-33952620D01*
X34016401Y-33952627D01*
X34010000Y-34012155D01*
X34010000Y-34660000D01*
X34926988Y-34660000D01*
X34894075Y-34717007D01*
X34860000Y-34844174D01*
X34860000Y-34975826D01*
X34894075Y-35102993D01*
X34926988Y-35160000D01*
X34010000Y-35160000D01*
X34010000Y-35807844D01*
X34016401Y-35867372D01*
X34016403Y-35867379D01*
X34066645Y-36002086D01*
X34066649Y-36002093D01*
X34152809Y-36117187D01*
X34152812Y-36117190D01*
X34267906Y-36203350D01*
X34267913Y-36203354D01*
X34399470Y-36252422D01*
X34455404Y-36294293D01*
X34479821Y-36359758D01*
X34464969Y-36428031D01*
X34443819Y-36456285D01*
X34329889Y-36570215D01*
X34204951Y-36742179D01*
X34108444Y-36931585D01*
X34042753Y-37133760D01*
X34014436Y-37312547D01*
X34009500Y-37343713D01*
X34009500Y-37556287D01*
X34019534Y-37619644D01*
X34041169Y-37756239D01*
X34042754Y-37766243D01*
X34105194Y-37958414D01*
X34108444Y-37968414D01*
X34204951Y-38157820D01*
X34329890Y-38329786D01*
X34480213Y-38480109D01*
X34652182Y-38605050D01*
X34660946Y-38609516D01*
X34711742Y-38657491D01*
X34728536Y-38725312D01*
X34705998Y-38791447D01*
X34660946Y-38830484D01*
X34652182Y-38834949D01*
X34480213Y-38959890D01*
X34329890Y-39110213D01*
X34204951Y-39282179D01*
X34108444Y-39471585D01*
X34042753Y-39673760D01*
X34009500Y-39883713D01*
X34009500Y-40096286D01*
X34041169Y-40296239D01*
X34042754Y-40306243D01*
X34105194Y-40498414D01*
X34108444Y-40508414D01*
X34204951Y-40697820D01*
X34329890Y-40869786D01*
X34480213Y-41020109D01*
X34652182Y-41145050D01*
X34660946Y-41149516D01*
X34711742Y-41197491D01*
X34728536Y-41265312D01*
X34705998Y-41331447D01*
X34660946Y-41370484D01*
X34652182Y-41374949D01*
X34480213Y-41499890D01*
X34329890Y-41650213D01*
X34204951Y-41822179D01*
X34108444Y-42011585D01*
X34108443Y-42011587D01*
X34108443Y-42011588D01*
X34042754Y-42213757D01*
X34009500Y-42423713D01*
X34009500Y-42636287D01*
X34014239Y-42666206D01*
X34041169Y-42836239D01*
X34042754Y-42846243D01*
X34105194Y-43038414D01*
X34108444Y-43048414D01*
X34204951Y-43237820D01*
X34329890Y-43409786D01*
X34480213Y-43560109D01*
X34652182Y-43685050D01*
X34660946Y-43689516D01*
X34711742Y-43737491D01*
X34728536Y-43805312D01*
X34705998Y-43871447D01*
X34660946Y-43910484D01*
X34652182Y-43914949D01*
X34480213Y-44039890D01*
X34329890Y-44190213D01*
X34204951Y-44362179D01*
X34108444Y-44551585D01*
X34042753Y-44753760D01*
X34009500Y-44963713D01*
X34009500Y-45176286D01*
X34041169Y-45376239D01*
X34042754Y-45386243D01*
X34105642Y-45579792D01*
X34108444Y-45588414D01*
X34204951Y-45777820D01*
X34329890Y-45949786D01*
X34480213Y-46100109D01*
X34652182Y-46225050D01*
X34660946Y-46229516D01*
X34711742Y-46277491D01*
X34728536Y-46345312D01*
X34705998Y-46411447D01*
X34660946Y-46450484D01*
X34652182Y-46454949D01*
X34480213Y-46579890D01*
X34329890Y-46730213D01*
X34204951Y-46902179D01*
X34108444Y-47091585D01*
X34042753Y-47293760D01*
X34009500Y-47503713D01*
X34009500Y-47716286D01*
X34036213Y-47884949D01*
X34042754Y-47926243D01*
X34099211Y-48100000D01*
X34108444Y-48128414D01*
X34204951Y-48317820D01*
X34329890Y-48489786D01*
X34480213Y-48640109D01*
X34652179Y-48765048D01*
X34652181Y-48765049D01*
X34652184Y-48765051D01*
X34841588Y-48861557D01*
X35043757Y-48927246D01*
X35253713Y-48960500D01*
X35253714Y-48960500D01*
X35466286Y-48960500D01*
X35466287Y-48960500D01*
X35676243Y-48927246D01*
X35878412Y-48861557D01*
X36067816Y-48765051D01*
X36154471Y-48702093D01*
X36239786Y-48640109D01*
X36239788Y-48640106D01*
X36239792Y-48640104D01*
X36390104Y-48489792D01*
X36390106Y-48489788D01*
X36390109Y-48489786D01*
X36515048Y-48317820D01*
X36515047Y-48317820D01*
X36515051Y-48317816D01*
X36611557Y-48128412D01*
X36677246Y-47926243D01*
X36710500Y-47716287D01*
X36710500Y-47503713D01*
X36677246Y-47293757D01*
X36611557Y-47091588D01*
X36515051Y-46902184D01*
X36515049Y-46902181D01*
X36515048Y-46902179D01*
X36390109Y-46730213D01*
X36239786Y-46579890D01*
X36067820Y-46454951D01*
X36067115Y-46454591D01*
X36059054Y-46450485D01*
X36008259Y-46402512D01*
X35991463Y-46334692D01*
X36013999Y-46268556D01*
X36059054Y-46229515D01*
X36067816Y-46225051D01*
X36124653Y-46183757D01*
X36239786Y-46100109D01*
X36239788Y-46100106D01*
X36239792Y-46100104D01*
X36390104Y-45949792D01*
X36390106Y-45949788D01*
X36390109Y-45949786D01*
X36515048Y-45777820D01*
X36515047Y-45777820D01*
X36515051Y-45777816D01*
X36611557Y-45588412D01*
X36677246Y-45386243D01*
X36710500Y-45176287D01*
X36710500Y-44963713D01*
X36677246Y-44753757D01*
X36611557Y-44551588D01*
X36515051Y-44362184D01*
X36515049Y-44362181D01*
X36515048Y-44362179D01*
X36390109Y-44190213D01*
X36239786Y-44039890D01*
X36067820Y-43914951D01*
X36067115Y-43914591D01*
X36059054Y-43910485D01*
X36008259Y-43862512D01*
X35991463Y-43794692D01*
X36013999Y-43728556D01*
X36059054Y-43689515D01*
X36067816Y-43685051D01*
X36089789Y-43669086D01*
X36239786Y-43560109D01*
X36239788Y-43560106D01*
X36239792Y-43560104D01*
X36390104Y-43409792D01*
X36390106Y-43409788D01*
X36390109Y-43409786D01*
X36515048Y-43237820D01*
X36515047Y-43237820D01*
X36515051Y-43237816D01*
X36611557Y-43048412D01*
X36677246Y-42846243D01*
X36710500Y-42636287D01*
X36710500Y-42423713D01*
X36677246Y-42213757D01*
X36611557Y-42011588D01*
X36515051Y-41822184D01*
X36515049Y-41822181D01*
X36515048Y-41822179D01*
X36390109Y-41650213D01*
X36239786Y-41499890D01*
X36067820Y-41374951D01*
X36067115Y-41374591D01*
X36059054Y-41370485D01*
X36008259Y-41322512D01*
X35991463Y-41254692D01*
X36013999Y-41188556D01*
X36059054Y-41149515D01*
X36067816Y-41145051D01*
X36136252Y-41095330D01*
X36239786Y-41020109D01*
X36239788Y-41020106D01*
X36239792Y-41020104D01*
X36390104Y-40869792D01*
X36390106Y-40869788D01*
X36390109Y-40869786D01*
X36515048Y-40697820D01*
X36515047Y-40697820D01*
X36515051Y-40697816D01*
X36611557Y-40508412D01*
X36677246Y-40306243D01*
X36710500Y-40096287D01*
X36710500Y-39883713D01*
X36677246Y-39673757D01*
X36611557Y-39471588D01*
X36515051Y-39282184D01*
X36515049Y-39282181D01*
X36515048Y-39282179D01*
X36390109Y-39110213D01*
X36239786Y-38959890D01*
X36067820Y-38834951D01*
X36067115Y-38834591D01*
X36059054Y-38830485D01*
X36008259Y-38782512D01*
X35991463Y-38714692D01*
X36013999Y-38648556D01*
X36059054Y-38609515D01*
X36067816Y-38605051D01*
X36089789Y-38589086D01*
X36239786Y-38480109D01*
X36239788Y-38480106D01*
X36239792Y-38480104D01*
X36390104Y-38329792D01*
X36390106Y-38329788D01*
X36390109Y-38329786D01*
X36515048Y-38157820D01*
X36515047Y-38157820D01*
X36515051Y-38157816D01*
X36611557Y-37968412D01*
X36677246Y-37766243D01*
X36710500Y-37556287D01*
X36710500Y-37343713D01*
X36702239Y-37291555D01*
X36680526Y-37154464D01*
X36678417Y-37141153D01*
X37279500Y-37141153D01*
X37279500Y-37298846D01*
X37310261Y-37453489D01*
X37310264Y-37453501D01*
X37370602Y-37599172D01*
X37370606Y-37599179D01*
X37408602Y-37656044D01*
X37429480Y-37722721D01*
X37429500Y-37724935D01*
X37429500Y-38754069D01*
X37449567Y-38854949D01*
X37454499Y-38879744D01*
X37483554Y-38949890D01*
X37503535Y-38998127D01*
X37571746Y-39100213D01*
X37574726Y-39104673D01*
X37574727Y-39104674D01*
X40213181Y-41743127D01*
X40246666Y-41804450D01*
X40249500Y-41830808D01*
X40249500Y-46495064D01*
X40229815Y-46562103D01*
X40228603Y-46563954D01*
X40190608Y-46620817D01*
X40190602Y-46620828D01*
X40130264Y-46766498D01*
X40130261Y-46766510D01*
X40099500Y-46921153D01*
X40099500Y-47078846D01*
X40130261Y-47233489D01*
X40130264Y-47233501D01*
X40190602Y-47379172D01*
X40190609Y-47379185D01*
X40278210Y-47510288D01*
X40278213Y-47510292D01*
X40389707Y-47621786D01*
X40389711Y-47621789D01*
X40520814Y-47709390D01*
X40520827Y-47709397D01*
X40622612Y-47751557D01*
X40666503Y-47769737D01*
X40821153Y-47800499D01*
X40821156Y-47800500D01*
X40821158Y-47800500D01*
X40978844Y-47800500D01*
X40978845Y-47800499D01*
X41133497Y-47769737D01*
X41279179Y-47709394D01*
X41282027Y-47707491D01*
X41299920Y-47695536D01*
X41374285Y-47645846D01*
X41410289Y-47621789D01*
X41521789Y-47510289D01*
X41609394Y-47379179D01*
X41669737Y-47233497D01*
X41700500Y-47078842D01*
X41700500Y-46921158D01*
X41700500Y-46921155D01*
X41700499Y-46921153D01*
X41695041Y-46893713D01*
X41669737Y-46766503D01*
X41662990Y-46750213D01*
X41609397Y-46620828D01*
X41609396Y-46620827D01*
X41609394Y-46620821D01*
X41571396Y-46563953D01*
X41550520Y-46497276D01*
X41550500Y-46495064D01*
X41550500Y-41445928D01*
X41525502Y-41320261D01*
X41525501Y-41320260D01*
X41525501Y-41320256D01*
X41476465Y-41201873D01*
X41476464Y-41201872D01*
X41476460Y-41201864D01*
X41454835Y-41169501D01*
X41454833Y-41169499D01*
X41451861Y-41165051D01*
X41405276Y-41095330D01*
X41405274Y-41095328D01*
X41405272Y-41095325D01*
X38766819Y-38456872D01*
X38733334Y-38395549D01*
X38730500Y-38369191D01*
X38730500Y-37724935D01*
X38750185Y-37657896D01*
X38751366Y-37656090D01*
X38789394Y-37599179D01*
X38849737Y-37453497D01*
X38880500Y-37298842D01*
X38880500Y-37141158D01*
X38880500Y-37141155D01*
X38880499Y-37141153D01*
X38854468Y-37010288D01*
X38849737Y-36986503D01*
X38847903Y-36982075D01*
X38789397Y-36840827D01*
X38789390Y-36840814D01*
X38701789Y-36709711D01*
X38701786Y-36709707D01*
X38590292Y-36598213D01*
X38590288Y-36598210D01*
X38459185Y-36510609D01*
X38459172Y-36510602D01*
X38313501Y-36450264D01*
X38313489Y-36450261D01*
X38158845Y-36419500D01*
X38158842Y-36419500D01*
X38001158Y-36419500D01*
X38001155Y-36419500D01*
X37846510Y-36450261D01*
X37846498Y-36450264D01*
X37700827Y-36510602D01*
X37700814Y-36510609D01*
X37569711Y-36598210D01*
X37569707Y-36598213D01*
X37458213Y-36709707D01*
X37458210Y-36709711D01*
X37370609Y-36840814D01*
X37370602Y-36840827D01*
X37310264Y-36986498D01*
X37310261Y-36986510D01*
X37279500Y-37141153D01*
X36678417Y-37141153D01*
X36677246Y-37133757D01*
X36611557Y-36931588D01*
X36515051Y-36742184D01*
X36515049Y-36742181D01*
X36515048Y-36742179D01*
X36390109Y-36570213D01*
X36276181Y-36456285D01*
X36242696Y-36394962D01*
X36247680Y-36325270D01*
X36289552Y-36269337D01*
X36320529Y-36252422D01*
X36452086Y-36203354D01*
X36452093Y-36203350D01*
X36567187Y-36117190D01*
X36567190Y-36117187D01*
X36653350Y-36002093D01*
X36653354Y-36002086D01*
X36703596Y-35867379D01*
X36703598Y-35867372D01*
X36709999Y-35807844D01*
X36710000Y-35807827D01*
X36710000Y-35160000D01*
X35793012Y-35160000D01*
X35825925Y-35102993D01*
X35860000Y-34975826D01*
X35860000Y-34844174D01*
X35825925Y-34717007D01*
X35793012Y-34660000D01*
X36710000Y-34660000D01*
X36710000Y-34012172D01*
X36709999Y-34012155D01*
X36703598Y-33952627D01*
X36703596Y-33952620D01*
X36653354Y-33817913D01*
X36653350Y-33817906D01*
X36567190Y-33702812D01*
X36567187Y-33702809D01*
X36452093Y-33616649D01*
X36452088Y-33616646D01*
X36320528Y-33567577D01*
X36264595Y-33525705D01*
X36240178Y-33460241D01*
X36255030Y-33391968D01*
X36276175Y-33363720D01*
X36390104Y-33249792D01*
X36397370Y-33239792D01*
X36515048Y-33077820D01*
X36515047Y-33077820D01*
X36515051Y-33077816D01*
X36611557Y-32888412D01*
X36677246Y-32686243D01*
X36710500Y-32476287D01*
X36710500Y-32263713D01*
X36677246Y-32053757D01*
X36611557Y-31851588D01*
X36515051Y-31662184D01*
X36515049Y-31662181D01*
X36515048Y-31662179D01*
X36390109Y-31490213D01*
X36239786Y-31339890D01*
X36067820Y-31214951D01*
X36067115Y-31214591D01*
X36059054Y-31210485D01*
X36008259Y-31162512D01*
X35991463Y-31094692D01*
X36013999Y-31028556D01*
X36059054Y-30989515D01*
X36067816Y-30985051D01*
X36089789Y-30969086D01*
X36239786Y-30860109D01*
X36239788Y-30860106D01*
X36239792Y-30860104D01*
X36390104Y-30709792D01*
X36390106Y-30709788D01*
X36390109Y-30709786D01*
X36515048Y-30537820D01*
X36515047Y-30537820D01*
X36515051Y-30537816D01*
X36611557Y-30348412D01*
X36677246Y-30146243D01*
X36710500Y-29936287D01*
X36710500Y-29723713D01*
X36677246Y-29513757D01*
X36611557Y-29311588D01*
X36515051Y-29122184D01*
X36515049Y-29122181D01*
X36515048Y-29122179D01*
X36390109Y-28950213D01*
X36239786Y-28799890D01*
X36067820Y-28674951D01*
X36067115Y-28674591D01*
X36059054Y-28670485D01*
X36008259Y-28622512D01*
X35991463Y-28554692D01*
X36013999Y-28488556D01*
X36059054Y-28449515D01*
X36067816Y-28445051D01*
X36089789Y-28429086D01*
X36239786Y-28320109D01*
X36239788Y-28320106D01*
X36239792Y-28320104D01*
X36390104Y-28169792D01*
X36390106Y-28169788D01*
X36390109Y-28169786D01*
X36515048Y-27997820D01*
X36515047Y-27997820D01*
X36515051Y-27997816D01*
X36611557Y-27808412D01*
X36677246Y-27606243D01*
X36710500Y-27396287D01*
X36710500Y-27183713D01*
X36677246Y-26973757D01*
X36611557Y-26771588D01*
X36515051Y-26582184D01*
X36515049Y-26582181D01*
X36515048Y-26582179D01*
X36390109Y-26410213D01*
X36239786Y-26259890D01*
X36067820Y-26134951D01*
X36060974Y-26131463D01*
X36059054Y-26130485D01*
X36008259Y-26082512D01*
X35991463Y-26014692D01*
X36013999Y-25948556D01*
X36059054Y-25909515D01*
X36067816Y-25905051D01*
X36095040Y-25885272D01*
X36239786Y-25780109D01*
X36239788Y-25780106D01*
X36239792Y-25780104D01*
X36390104Y-25629792D01*
X36390106Y-25629788D01*
X36390109Y-25629786D01*
X36514303Y-25458846D01*
X36515051Y-25457816D01*
X36611557Y-25268412D01*
X36677246Y-25066243D01*
X36710500Y-24856287D01*
X36710500Y-24643713D01*
X36677246Y-24433757D01*
X36611557Y-24231588D01*
X36515051Y-24042184D01*
X36515049Y-24042181D01*
X36515048Y-24042179D01*
X36390109Y-23870213D01*
X36239786Y-23719890D01*
X36067820Y-23594951D01*
X36067115Y-23594591D01*
X36059054Y-23590485D01*
X36008259Y-23542512D01*
X35991463Y-23474692D01*
X36013999Y-23408556D01*
X36059054Y-23369515D01*
X36067816Y-23365051D01*
X36089789Y-23349086D01*
X36239786Y-23240109D01*
X36239788Y-23240106D01*
X36239792Y-23240104D01*
X36390104Y-23089792D01*
X36390106Y-23089788D01*
X36390109Y-23089786D01*
X36515048Y-22917820D01*
X36515047Y-22917820D01*
X36515051Y-22917816D01*
X36611557Y-22728412D01*
X36677246Y-22526243D01*
X36710500Y-22316287D01*
X36710500Y-22103713D01*
X36677246Y-21893757D01*
X36611557Y-21691588D01*
X36515051Y-21502184D01*
X36515049Y-21502181D01*
X36515048Y-21502179D01*
X36390109Y-21330213D01*
X36239786Y-21179890D01*
X36067820Y-21054951D01*
X36067115Y-21054591D01*
X36059054Y-21050485D01*
X36008259Y-21002512D01*
X35991463Y-20934692D01*
X36013999Y-20868556D01*
X36059054Y-20829515D01*
X36067816Y-20825051D01*
X36089789Y-20809086D01*
X36239786Y-20700109D01*
X36239788Y-20700106D01*
X36239792Y-20700104D01*
X36390104Y-20549792D01*
X36390106Y-20549788D01*
X36390109Y-20549786D01*
X36515048Y-20377820D01*
X36515047Y-20377820D01*
X36515051Y-20377816D01*
X36611557Y-20188412D01*
X36677246Y-19986243D01*
X36710500Y-19776287D01*
X36710500Y-19563713D01*
X36708916Y-19553713D01*
X44149500Y-19553713D01*
X44149500Y-19766286D01*
X44174398Y-19923489D01*
X44182754Y-19976243D01*
X44192500Y-20006239D01*
X44248444Y-20178414D01*
X44344951Y-20367820D01*
X44469890Y-20539786D01*
X44620213Y-20690109D01*
X44792182Y-20815050D01*
X44800946Y-20819516D01*
X44851742Y-20867491D01*
X44868536Y-20935312D01*
X44845998Y-21001447D01*
X44800946Y-21040484D01*
X44792182Y-21044949D01*
X44620213Y-21169890D01*
X44469890Y-21320213D01*
X44344951Y-21492179D01*
X44248444Y-21681585D01*
X44182753Y-21883760D01*
X44149500Y-22093713D01*
X44149500Y-22306286D01*
X44178522Y-22489528D01*
X44182754Y-22516243D01*
X44207856Y-22593500D01*
X44248444Y-22718414D01*
X44344951Y-22907820D01*
X44469890Y-23079786D01*
X44620213Y-23230109D01*
X44792182Y-23355050D01*
X44800946Y-23359516D01*
X44851742Y-23407491D01*
X44868536Y-23475312D01*
X44845998Y-23541447D01*
X44800946Y-23580484D01*
X44792182Y-23584949D01*
X44620213Y-23709890D01*
X44469890Y-23860213D01*
X44344951Y-24032179D01*
X44248444Y-24221585D01*
X44182753Y-24423760D01*
X44152145Y-24617015D01*
X44149500Y-24633713D01*
X44149500Y-24846287D01*
X44159442Y-24909059D01*
X44173972Y-25000800D01*
X44182754Y-25056243D01*
X44217867Y-25164310D01*
X44248444Y-25258414D01*
X44344951Y-25447820D01*
X44469890Y-25619786D01*
X44620213Y-25770109D01*
X44792182Y-25895050D01*
X44800946Y-25899516D01*
X44851742Y-25947491D01*
X44868536Y-26015312D01*
X44845998Y-26081447D01*
X44800946Y-26120484D01*
X44792182Y-26124949D01*
X44620213Y-26249890D01*
X44469890Y-26400213D01*
X44344951Y-26572179D01*
X44248444Y-26761585D01*
X44182753Y-26963760D01*
X44160104Y-27106760D01*
X44149500Y-27173713D01*
X44149500Y-27386287D01*
X44156185Y-27428493D01*
X44173972Y-27540800D01*
X44182754Y-27596243D01*
X44217867Y-27704310D01*
X44248444Y-27798414D01*
X44344951Y-27987820D01*
X44469890Y-28159786D01*
X44620213Y-28310109D01*
X44792182Y-28435050D01*
X44800946Y-28439516D01*
X44851742Y-28487491D01*
X44868536Y-28555312D01*
X44845998Y-28621447D01*
X44800946Y-28660484D01*
X44792182Y-28664949D01*
X44620213Y-28789890D01*
X44469890Y-28940213D01*
X44344951Y-29112179D01*
X44248444Y-29301585D01*
X44182753Y-29503760D01*
X44160104Y-29646760D01*
X44149500Y-29713713D01*
X44149500Y-29926287D01*
X44151735Y-29940397D01*
X44175874Y-30092809D01*
X44182754Y-30136243D01*
X44192500Y-30166239D01*
X44248444Y-30338414D01*
X44344951Y-30527820D01*
X44469890Y-30699786D01*
X44620213Y-30850109D01*
X44792182Y-30975050D01*
X44800946Y-30979516D01*
X44851742Y-31027491D01*
X44868536Y-31095312D01*
X44845998Y-31161447D01*
X44800946Y-31200484D01*
X44792182Y-31204949D01*
X44620213Y-31329890D01*
X44469890Y-31480213D01*
X44344951Y-31652179D01*
X44248444Y-31841585D01*
X44182753Y-32043760D01*
X44158349Y-32197844D01*
X44149500Y-32253713D01*
X44149500Y-32466287D01*
X44159534Y-32529644D01*
X44178676Y-32650500D01*
X44182754Y-32676243D01*
X44192500Y-32706239D01*
X44248444Y-32878414D01*
X44344951Y-33067820D01*
X44469890Y-33239786D01*
X44620213Y-33390109D01*
X44792182Y-33515050D01*
X44800946Y-33519516D01*
X44851742Y-33567491D01*
X44868536Y-33635312D01*
X44845998Y-33701447D01*
X44800946Y-33740484D01*
X44792182Y-33744949D01*
X44620213Y-33869890D01*
X44469890Y-34020213D01*
X44344951Y-34192179D01*
X44248444Y-34381585D01*
X44182753Y-34583760D01*
X44149500Y-34793713D01*
X44149500Y-35006286D01*
X44177013Y-35180000D01*
X44182754Y-35216243D01*
X44248285Y-35417927D01*
X44248444Y-35418414D01*
X44344951Y-35607820D01*
X44469890Y-35779786D01*
X44620213Y-35930109D01*
X44792182Y-36055050D01*
X44800946Y-36059516D01*
X44851742Y-36107491D01*
X44868536Y-36175312D01*
X44845998Y-36241447D01*
X44800946Y-36280484D01*
X44792182Y-36284949D01*
X44620213Y-36409890D01*
X44469890Y-36560213D01*
X44344951Y-36732179D01*
X44248444Y-36921585D01*
X44182753Y-37123760D01*
X44149500Y-37333713D01*
X44149500Y-37546286D01*
X44177444Y-37722721D01*
X44182754Y-37756243D01*
X44222700Y-37879185D01*
X44248444Y-37958414D01*
X44344951Y-38147820D01*
X44469890Y-38319786D01*
X44620213Y-38470109D01*
X44792182Y-38595050D01*
X44800946Y-38599516D01*
X44851742Y-38647491D01*
X44868536Y-38715312D01*
X44845998Y-38781447D01*
X44800946Y-38820484D01*
X44792182Y-38824949D01*
X44620213Y-38949890D01*
X44469890Y-39100213D01*
X44344951Y-39272179D01*
X44248444Y-39461585D01*
X44182753Y-39663760D01*
X44178002Y-39693757D01*
X44149500Y-39873713D01*
X44149500Y-40086287D01*
X44182754Y-40296243D01*
X44192500Y-40326239D01*
X44248444Y-40498414D01*
X44344951Y-40687820D01*
X44469890Y-40859786D01*
X44620213Y-41010109D01*
X44792182Y-41135050D01*
X44800946Y-41139516D01*
X44851742Y-41187491D01*
X44868536Y-41255312D01*
X44845998Y-41321447D01*
X44800946Y-41360484D01*
X44792182Y-41364949D01*
X44620213Y-41489890D01*
X44469890Y-41640213D01*
X44344951Y-41812179D01*
X44248444Y-42001585D01*
X44182753Y-42203760D01*
X44149500Y-42413713D01*
X44149500Y-42626286D01*
X44179708Y-42817015D01*
X44182754Y-42836243D01*
X44246847Y-43033501D01*
X44248444Y-43038414D01*
X44344951Y-43227820D01*
X44469890Y-43399786D01*
X44620213Y-43550109D01*
X44792182Y-43675050D01*
X44800946Y-43679516D01*
X44851742Y-43727491D01*
X44868536Y-43795312D01*
X44845998Y-43861447D01*
X44800946Y-43900484D01*
X44792182Y-43904949D01*
X44620213Y-44029890D01*
X44469890Y-44180213D01*
X44344951Y-44352179D01*
X44248444Y-44541585D01*
X44182753Y-44743760D01*
X44164679Y-44857876D01*
X44149500Y-44953713D01*
X44149500Y-45166287D01*
X44182754Y-45376243D01*
X44225133Y-45506673D01*
X44248444Y-45578414D01*
X44344951Y-45767820D01*
X44469890Y-45939786D01*
X44583818Y-46053714D01*
X44617303Y-46115037D01*
X44612319Y-46184729D01*
X44570447Y-46240662D01*
X44539471Y-46257577D01*
X44407912Y-46306646D01*
X44407906Y-46306649D01*
X44292812Y-46392809D01*
X44292809Y-46392812D01*
X44206649Y-46507906D01*
X44206645Y-46507913D01*
X44156403Y-46642620D01*
X44156401Y-46642627D01*
X44150000Y-46702155D01*
X44150000Y-47350000D01*
X45066988Y-47350000D01*
X45034075Y-47407007D01*
X45000000Y-47534174D01*
X45000000Y-47665826D01*
X45034075Y-47792993D01*
X45066988Y-47850000D01*
X44150000Y-47850000D01*
X44150000Y-48497844D01*
X44156401Y-48557372D01*
X44156403Y-48557379D01*
X44206645Y-48692086D01*
X44206649Y-48692093D01*
X44292809Y-48807187D01*
X44292812Y-48807190D01*
X44407906Y-48893350D01*
X44407913Y-48893354D01*
X44542620Y-48943596D01*
X44542627Y-48943598D01*
X44602155Y-48949999D01*
X44602172Y-48950000D01*
X45250000Y-48950000D01*
X45250000Y-48033012D01*
X45307007Y-48065925D01*
X45434174Y-48100000D01*
X45565826Y-48100000D01*
X45692993Y-48065925D01*
X45750000Y-48033012D01*
X45750000Y-48950000D01*
X46397828Y-48950000D01*
X46397844Y-48949999D01*
X46457372Y-48943598D01*
X46457379Y-48943596D01*
X46592086Y-48893354D01*
X46592093Y-48893350D01*
X46707187Y-48807190D01*
X46707190Y-48807187D01*
X46793350Y-48692093D01*
X46793354Y-48692086D01*
X46843596Y-48557379D01*
X46843598Y-48557372D01*
X46849999Y-48497844D01*
X46850000Y-48497827D01*
X46850000Y-47850000D01*
X45933012Y-47850000D01*
X45965925Y-47792993D01*
X46000000Y-47665826D01*
X46000000Y-47534174D01*
X45965925Y-47407007D01*
X45933012Y-47350000D01*
X46850000Y-47350000D01*
X46850000Y-46702172D01*
X46849999Y-46702155D01*
X46843598Y-46642627D01*
X46843596Y-46642620D01*
X46793354Y-46507913D01*
X46793350Y-46507906D01*
X46707190Y-46392812D01*
X46707187Y-46392809D01*
X46592093Y-46306649D01*
X46592088Y-46306646D01*
X46460528Y-46257577D01*
X46404595Y-46215705D01*
X46380178Y-46150241D01*
X46395030Y-46081968D01*
X46416175Y-46053720D01*
X46530104Y-45939792D01*
X46655051Y-45767816D01*
X46751557Y-45578412D01*
X46817246Y-45376243D01*
X46850500Y-45166287D01*
X46850500Y-44953713D01*
X46817246Y-44743757D01*
X46751557Y-44541588D01*
X46655051Y-44352184D01*
X46655049Y-44352181D01*
X46655048Y-44352179D01*
X46530109Y-44180213D01*
X46379786Y-44029890D01*
X46207820Y-43904951D01*
X46207115Y-43904591D01*
X46199054Y-43900485D01*
X46148259Y-43852512D01*
X46131463Y-43784692D01*
X46153999Y-43718556D01*
X46199054Y-43679515D01*
X46207816Y-43675051D01*
X46229789Y-43659086D01*
X46379786Y-43550109D01*
X46379788Y-43550106D01*
X46379792Y-43550104D01*
X46530104Y-43399792D01*
X46530106Y-43399788D01*
X46530109Y-43399786D01*
X46654481Y-43228601D01*
X46655051Y-43227816D01*
X46751557Y-43038412D01*
X46817246Y-42836243D01*
X46850500Y-42626287D01*
X46850500Y-42413713D01*
X46817246Y-42203757D01*
X46751557Y-42001588D01*
X46655051Y-41812184D01*
X46655049Y-41812181D01*
X46655048Y-41812179D01*
X46530109Y-41640213D01*
X46379786Y-41489890D01*
X46207820Y-41364951D01*
X46207115Y-41364591D01*
X46199054Y-41360485D01*
X46148259Y-41312512D01*
X46131463Y-41244692D01*
X46153999Y-41178556D01*
X46199054Y-41139515D01*
X46207816Y-41135051D01*
X46262495Y-41095325D01*
X46379786Y-41010109D01*
X46379788Y-41010106D01*
X46379792Y-41010104D01*
X46530104Y-40859792D01*
X46530106Y-40859788D01*
X46530109Y-40859786D01*
X46655048Y-40687820D01*
X46655047Y-40687820D01*
X46655051Y-40687816D01*
X46751557Y-40498412D01*
X46817246Y-40296243D01*
X46850500Y-40086287D01*
X46850500Y-39873713D01*
X46817246Y-39663757D01*
X46751557Y-39461588D01*
X46655051Y-39272184D01*
X46655049Y-39272181D01*
X46655048Y-39272179D01*
X46530109Y-39100213D01*
X46379786Y-38949890D01*
X46207820Y-38824951D01*
X46207115Y-38824591D01*
X46199054Y-38820485D01*
X46148259Y-38772512D01*
X46131463Y-38704692D01*
X46153999Y-38638556D01*
X46199054Y-38599515D01*
X46207816Y-38595051D01*
X46229789Y-38579086D01*
X46379786Y-38470109D01*
X46379788Y-38470106D01*
X46379792Y-38470104D01*
X46530104Y-38319792D01*
X46530106Y-38319788D01*
X46530109Y-38319786D01*
X46655048Y-38147820D01*
X46655047Y-38147820D01*
X46655051Y-38147816D01*
X46751557Y-37958412D01*
X46817246Y-37756243D01*
X46850500Y-37546287D01*
X46850500Y-37333713D01*
X46817246Y-37123757D01*
X46751557Y-36921588D01*
X46655051Y-36732184D01*
X46655049Y-36732181D01*
X46655048Y-36732179D01*
X46530109Y-36560213D01*
X46379786Y-36409890D01*
X46207820Y-36284951D01*
X46207115Y-36284591D01*
X46199054Y-36280485D01*
X46148259Y-36232512D01*
X46131463Y-36164692D01*
X46153999Y-36098556D01*
X46199054Y-36059515D01*
X46207816Y-36055051D01*
X46280717Y-36002086D01*
X46379786Y-35930109D01*
X46379788Y-35930106D01*
X46379792Y-35930104D01*
X46530104Y-35779792D01*
X46530106Y-35779788D01*
X46530109Y-35779786D01*
X46655048Y-35607820D01*
X46655047Y-35607820D01*
X46655051Y-35607816D01*
X46751557Y-35418412D01*
X46817246Y-35216243D01*
X46850500Y-35006287D01*
X46850500Y-34793713D01*
X46817246Y-34583757D01*
X46751557Y-34381588D01*
X46655051Y-34192184D01*
X46655049Y-34192181D01*
X46655048Y-34192179D01*
X46530109Y-34020213D01*
X46379786Y-33869890D01*
X46207820Y-33744951D01*
X46207115Y-33744591D01*
X46199054Y-33740485D01*
X46148259Y-33692512D01*
X46131463Y-33624692D01*
X46153999Y-33558556D01*
X46199054Y-33519515D01*
X46207816Y-33515051D01*
X46331711Y-33425037D01*
X46379786Y-33390109D01*
X46379788Y-33390106D01*
X46379792Y-33390104D01*
X46530104Y-33239792D01*
X46530106Y-33239788D01*
X46530109Y-33239786D01*
X46655048Y-33067820D01*
X46655047Y-33067820D01*
X46655051Y-33067816D01*
X46751557Y-32878412D01*
X46817246Y-32676243D01*
X46850500Y-32466287D01*
X46850500Y-32253713D01*
X46817246Y-32043757D01*
X46751557Y-31841588D01*
X46655051Y-31652184D01*
X46655049Y-31652181D01*
X46655048Y-31652179D01*
X46530109Y-31480213D01*
X46379786Y-31329890D01*
X46207820Y-31204951D01*
X46207115Y-31204591D01*
X46199054Y-31200485D01*
X46148259Y-31152512D01*
X46131463Y-31084692D01*
X46153999Y-31018556D01*
X46199054Y-30979515D01*
X46207816Y-30975051D01*
X46229789Y-30959086D01*
X46379786Y-30850109D01*
X46379788Y-30850106D01*
X46379792Y-30850104D01*
X46530104Y-30699792D01*
X46530106Y-30699788D01*
X46530109Y-30699786D01*
X46655048Y-30527820D01*
X46655047Y-30527820D01*
X46655051Y-30527816D01*
X46751557Y-30338412D01*
X46817246Y-30136243D01*
X46850500Y-29926287D01*
X46850500Y-29713713D01*
X46817246Y-29503757D01*
X46751557Y-29301588D01*
X46655051Y-29112184D01*
X46655049Y-29112181D01*
X46655048Y-29112179D01*
X46530109Y-28940213D01*
X46379786Y-28789890D01*
X46207820Y-28664951D01*
X46207115Y-28664591D01*
X46199054Y-28660485D01*
X46148259Y-28612512D01*
X46131463Y-28544692D01*
X46153999Y-28478556D01*
X46199054Y-28439515D01*
X46207816Y-28435051D01*
X46234195Y-28415886D01*
X46379786Y-28310109D01*
X46379788Y-28310106D01*
X46379792Y-28310104D01*
X46530104Y-28159792D01*
X46530106Y-28159788D01*
X46530109Y-28159786D01*
X46655048Y-27987820D01*
X46655047Y-27987820D01*
X46655051Y-27987816D01*
X46751557Y-27798412D01*
X46817246Y-27596243D01*
X46850500Y-27386287D01*
X46850500Y-27173713D01*
X46817246Y-26963757D01*
X46751557Y-26761588D01*
X46655051Y-26572184D01*
X46655049Y-26572181D01*
X46655048Y-26572179D01*
X46530109Y-26400213D01*
X46379786Y-26249890D01*
X46207820Y-26124951D01*
X46207115Y-26124591D01*
X46199054Y-26120485D01*
X46148259Y-26072512D01*
X46131463Y-26004692D01*
X46153999Y-25938556D01*
X46199054Y-25899515D01*
X46207816Y-25895051D01*
X46229789Y-25879086D01*
X46379786Y-25770109D01*
X46379788Y-25770106D01*
X46379792Y-25770104D01*
X46530104Y-25619792D01*
X46530106Y-25619788D01*
X46530109Y-25619786D01*
X46655048Y-25447820D01*
X46655047Y-25447820D01*
X46655051Y-25447816D01*
X46751557Y-25258412D01*
X46817246Y-25056243D01*
X46850500Y-24846287D01*
X46850500Y-24633713D01*
X46817246Y-24423757D01*
X46751557Y-24221588D01*
X46655051Y-24032184D01*
X46655049Y-24032181D01*
X46655048Y-24032179D01*
X46530109Y-23860213D01*
X46379786Y-23709890D01*
X46207820Y-23584951D01*
X46207115Y-23584591D01*
X46199054Y-23580485D01*
X46148259Y-23532512D01*
X46131463Y-23464692D01*
X46153999Y-23398556D01*
X46199054Y-23359515D01*
X46207816Y-23355051D01*
X46229789Y-23339086D01*
X46379786Y-23230109D01*
X46379788Y-23230106D01*
X46379792Y-23230104D01*
X46530104Y-23079792D01*
X46530106Y-23079788D01*
X46530109Y-23079786D01*
X46655048Y-22907820D01*
X46655047Y-22907820D01*
X46655051Y-22907816D01*
X46751557Y-22718412D01*
X46817246Y-22516243D01*
X46850500Y-22306287D01*
X46850500Y-22093713D01*
X46817246Y-21883757D01*
X46751557Y-21681588D01*
X46655051Y-21492184D01*
X46655049Y-21492181D01*
X46655048Y-21492179D01*
X46530109Y-21320213D01*
X46379786Y-21169890D01*
X46207820Y-21044951D01*
X46207115Y-21044591D01*
X46199054Y-21040485D01*
X46148259Y-20992512D01*
X46131463Y-20924692D01*
X46153999Y-20858556D01*
X46199054Y-20819515D01*
X46207816Y-20815051D01*
X46229789Y-20799086D01*
X46379786Y-20690109D01*
X46379788Y-20690106D01*
X46379792Y-20690104D01*
X46530104Y-20539792D01*
X46530106Y-20539788D01*
X46530109Y-20539786D01*
X46655048Y-20367820D01*
X46655047Y-20367820D01*
X46655051Y-20367816D01*
X46751557Y-20178412D01*
X46817246Y-19976243D01*
X46850500Y-19766287D01*
X46850500Y-19563713D01*
X48049500Y-19563713D01*
X48049500Y-19776286D01*
X48081169Y-19976239D01*
X48082754Y-19986243D01*
X48145194Y-20178414D01*
X48148444Y-20188414D01*
X48244951Y-20377820D01*
X48369890Y-20549786D01*
X48520213Y-20700109D01*
X48692182Y-20825050D01*
X48700946Y-20829516D01*
X48751742Y-20877491D01*
X48768536Y-20945312D01*
X48745998Y-21011447D01*
X48700946Y-21050484D01*
X48692182Y-21054949D01*
X48520213Y-21179890D01*
X48369890Y-21330213D01*
X48244951Y-21502179D01*
X48148444Y-21691585D01*
X48082753Y-21893760D01*
X48049500Y-22103713D01*
X48049500Y-22316286D01*
X48081169Y-22516239D01*
X48082754Y-22526243D01*
X48145194Y-22718414D01*
X48148444Y-22728414D01*
X48244951Y-22917820D01*
X48369890Y-23089786D01*
X48520213Y-23240109D01*
X48692182Y-23365050D01*
X48700946Y-23369516D01*
X48751742Y-23417491D01*
X48768536Y-23485312D01*
X48745998Y-23551447D01*
X48700946Y-23590484D01*
X48692182Y-23594949D01*
X48520213Y-23719890D01*
X48369890Y-23870213D01*
X48244951Y-24042179D01*
X48148444Y-24231585D01*
X48082753Y-24433760D01*
X48061217Y-24569735D01*
X48049500Y-24643713D01*
X48049500Y-24856287D01*
X48059534Y-24919644D01*
X48081169Y-25056239D01*
X48082754Y-25066243D01*
X48145194Y-25258414D01*
X48148444Y-25268414D01*
X48244951Y-25457820D01*
X48369890Y-25629786D01*
X48520213Y-25780109D01*
X48692182Y-25905050D01*
X48700946Y-25909516D01*
X48751742Y-25957491D01*
X48768536Y-26025312D01*
X48745998Y-26091447D01*
X48700946Y-26130484D01*
X48692182Y-26134949D01*
X48520213Y-26259890D01*
X48369890Y-26410213D01*
X48244951Y-26582179D01*
X48148444Y-26771585D01*
X48082753Y-26973760D01*
X48061688Y-27106759D01*
X48049500Y-27183713D01*
X48049500Y-27396287D01*
X48058987Y-27456188D01*
X48081169Y-27596239D01*
X48082754Y-27606243D01*
X48145194Y-27798414D01*
X48148444Y-27808414D01*
X48244951Y-27997820D01*
X48369890Y-28169786D01*
X48520213Y-28320109D01*
X48692182Y-28445050D01*
X48700946Y-28449516D01*
X48751742Y-28497491D01*
X48768536Y-28565312D01*
X48745998Y-28631447D01*
X48700946Y-28670484D01*
X48692182Y-28674949D01*
X48520213Y-28799890D01*
X48369890Y-28950213D01*
X48244951Y-29122179D01*
X48148444Y-29311585D01*
X48082753Y-29513760D01*
X48049500Y-29723713D01*
X48049500Y-29936286D01*
X48081169Y-30136239D01*
X48082754Y-30146243D01*
X48146563Y-30342627D01*
X48148444Y-30348414D01*
X48244951Y-30537820D01*
X48369890Y-30709786D01*
X48520213Y-30860109D01*
X48692182Y-30985050D01*
X48700946Y-30989516D01*
X48751742Y-31037491D01*
X48768536Y-31105312D01*
X48745998Y-31171447D01*
X48700946Y-31210484D01*
X48692182Y-31214949D01*
X48520213Y-31339890D01*
X48369890Y-31490213D01*
X48244951Y-31662179D01*
X48148444Y-31851585D01*
X48082753Y-32053760D01*
X48049500Y-32263713D01*
X48049500Y-32476286D01*
X48081169Y-32676239D01*
X48082754Y-32686243D01*
X48145194Y-32878414D01*
X48148444Y-32888414D01*
X48244951Y-33077820D01*
X48369890Y-33249786D01*
X48520213Y-33400109D01*
X48692182Y-33525050D01*
X48700946Y-33529516D01*
X48751742Y-33577491D01*
X48768536Y-33645312D01*
X48745998Y-33711447D01*
X48700946Y-33750484D01*
X48692182Y-33754949D01*
X48520213Y-33879890D01*
X48369890Y-34030213D01*
X48244951Y-34202179D01*
X48148444Y-34391585D01*
X48082753Y-34593760D01*
X48049500Y-34803713D01*
X48049500Y-35016286D01*
X48081169Y-35216239D01*
X48082754Y-35226243D01*
X48146858Y-35423535D01*
X48148444Y-35428414D01*
X48244951Y-35617820D01*
X48369890Y-35789786D01*
X48520213Y-35940109D01*
X48692182Y-36065050D01*
X48700946Y-36069516D01*
X48751742Y-36117491D01*
X48768536Y-36185312D01*
X48745998Y-36251447D01*
X48700946Y-36290484D01*
X48692182Y-36294949D01*
X48520213Y-36419890D01*
X48369890Y-36570213D01*
X48244951Y-36742179D01*
X48148444Y-36931585D01*
X48082753Y-37133760D01*
X48054436Y-37312547D01*
X48049500Y-37343713D01*
X48049500Y-37556287D01*
X48059534Y-37619644D01*
X48081169Y-37756239D01*
X48082754Y-37766243D01*
X48145194Y-37958414D01*
X48148444Y-37968414D01*
X48244951Y-38157820D01*
X48369890Y-38329786D01*
X48520213Y-38480109D01*
X48692182Y-38605050D01*
X48700946Y-38609516D01*
X48751742Y-38657491D01*
X48768536Y-38725312D01*
X48745998Y-38791447D01*
X48700946Y-38830484D01*
X48692182Y-38834949D01*
X48520213Y-38959890D01*
X48369890Y-39110213D01*
X48244951Y-39282179D01*
X48148444Y-39471585D01*
X48082753Y-39673760D01*
X48049500Y-39883713D01*
X48049500Y-40096286D01*
X48081169Y-40296239D01*
X48082754Y-40306243D01*
X48145194Y-40498414D01*
X48148444Y-40508414D01*
X48244951Y-40697820D01*
X48369890Y-40869786D01*
X48520213Y-41020109D01*
X48692182Y-41145050D01*
X48700946Y-41149516D01*
X48751742Y-41197491D01*
X48768536Y-41265312D01*
X48745998Y-41331447D01*
X48700946Y-41370484D01*
X48692182Y-41374949D01*
X48520213Y-41499890D01*
X48369890Y-41650213D01*
X48244951Y-41822179D01*
X48148444Y-42011585D01*
X48148443Y-42011587D01*
X48148443Y-42011588D01*
X48082754Y-42213757D01*
X48049500Y-42423713D01*
X48049500Y-42636287D01*
X48054239Y-42666206D01*
X48081169Y-42836239D01*
X48082754Y-42846243D01*
X48145194Y-43038414D01*
X48148444Y-43048414D01*
X48244951Y-43237820D01*
X48369890Y-43409786D01*
X48520213Y-43560109D01*
X48692182Y-43685050D01*
X48700946Y-43689516D01*
X48751742Y-43737491D01*
X48768536Y-43805312D01*
X48745998Y-43871447D01*
X48700946Y-43910484D01*
X48692182Y-43914949D01*
X48520213Y-44039890D01*
X48369890Y-44190213D01*
X48244951Y-44362179D01*
X48148444Y-44551585D01*
X48082753Y-44753760D01*
X48049500Y-44963713D01*
X48049500Y-45176286D01*
X48081169Y-45376239D01*
X48082754Y-45386243D01*
X48145642Y-45579792D01*
X48148444Y-45588414D01*
X48244951Y-45777820D01*
X48369890Y-45949786D01*
X48483818Y-46063714D01*
X48517303Y-46125037D01*
X48512319Y-46194729D01*
X48470447Y-46250662D01*
X48439471Y-46267577D01*
X48307912Y-46316646D01*
X48307906Y-46316649D01*
X48192812Y-46402809D01*
X48192809Y-46402812D01*
X48106649Y-46517906D01*
X48106645Y-46517913D01*
X48056403Y-46652620D01*
X48056401Y-46652627D01*
X48050000Y-46712155D01*
X48050000Y-47360000D01*
X48966988Y-47360000D01*
X48934075Y-47417007D01*
X48900000Y-47544174D01*
X48900000Y-47675826D01*
X48934075Y-47802993D01*
X48966988Y-47860000D01*
X48050000Y-47860000D01*
X48050000Y-48507844D01*
X48056401Y-48567372D01*
X48056403Y-48567379D01*
X48106645Y-48702086D01*
X48106649Y-48702093D01*
X48192809Y-48817187D01*
X48192812Y-48817190D01*
X48307906Y-48903350D01*
X48307913Y-48903354D01*
X48442620Y-48953596D01*
X48442627Y-48953598D01*
X48502155Y-48959999D01*
X48502172Y-48960000D01*
X49150000Y-48960000D01*
X49150000Y-48043012D01*
X49207007Y-48075925D01*
X49334174Y-48110000D01*
X49465826Y-48110000D01*
X49592993Y-48075925D01*
X49650000Y-48043012D01*
X49650000Y-48960000D01*
X50297828Y-48960000D01*
X50297844Y-48959999D01*
X50357372Y-48953598D01*
X50357379Y-48953596D01*
X50492086Y-48903354D01*
X50492093Y-48903350D01*
X50607187Y-48817190D01*
X50607190Y-48817187D01*
X50693350Y-48702093D01*
X50693354Y-48702086D01*
X50743596Y-48567379D01*
X50743598Y-48567372D01*
X50749999Y-48507844D01*
X50750000Y-48507827D01*
X50750000Y-47860000D01*
X49833012Y-47860000D01*
X49865925Y-47802993D01*
X49900000Y-47675826D01*
X49900000Y-47544174D01*
X49865925Y-47417007D01*
X49833012Y-47360000D01*
X50750000Y-47360000D01*
X50750000Y-46712172D01*
X50749999Y-46712155D01*
X50743598Y-46652627D01*
X50743596Y-46652620D01*
X50693354Y-46517913D01*
X50693350Y-46517906D01*
X50607190Y-46402812D01*
X50607187Y-46402809D01*
X50492093Y-46316649D01*
X50492088Y-46316646D01*
X50360528Y-46267577D01*
X50304595Y-46225705D01*
X50280178Y-46160241D01*
X50295030Y-46091968D01*
X50316175Y-46063720D01*
X50430104Y-45949792D01*
X50437370Y-45939792D01*
X50555048Y-45777820D01*
X50555047Y-45777820D01*
X50555051Y-45777816D01*
X50651557Y-45588412D01*
X50717246Y-45386243D01*
X50750500Y-45176287D01*
X50750500Y-44963713D01*
X50717246Y-44753757D01*
X50651557Y-44551588D01*
X50555051Y-44362184D01*
X50555049Y-44362181D01*
X50555048Y-44362179D01*
X50430109Y-44190213D01*
X50279786Y-44039890D01*
X50107820Y-43914951D01*
X50107115Y-43914591D01*
X50099054Y-43910485D01*
X50048259Y-43862512D01*
X50031463Y-43794692D01*
X50053999Y-43728556D01*
X50099054Y-43689515D01*
X50107816Y-43685051D01*
X50129789Y-43669086D01*
X50279786Y-43560109D01*
X50279788Y-43560106D01*
X50279792Y-43560104D01*
X50430104Y-43409792D01*
X50430106Y-43409788D01*
X50430109Y-43409786D01*
X50555048Y-43237820D01*
X50555047Y-43237820D01*
X50555051Y-43237816D01*
X50651557Y-43048412D01*
X50717246Y-42846243D01*
X50750500Y-42636287D01*
X50750500Y-42423713D01*
X50717246Y-42213757D01*
X50651557Y-42011588D01*
X50651555Y-42011585D01*
X50651555Y-42011583D01*
X50631061Y-41971362D01*
X50631060Y-41971361D01*
X50605478Y-41921153D01*
X55699500Y-41921153D01*
X55699500Y-42078846D01*
X55730261Y-42233489D01*
X55730264Y-42233501D01*
X55790602Y-42379172D01*
X55790609Y-42379185D01*
X55878210Y-42510288D01*
X55878213Y-42510292D01*
X55989707Y-42621786D01*
X55989711Y-42621789D01*
X56120814Y-42709390D01*
X56120827Y-42709397D01*
X56208230Y-42745599D01*
X56266503Y-42769737D01*
X56305125Y-42777419D01*
X56333578Y-42783079D01*
X56395489Y-42815463D01*
X56397068Y-42817015D01*
X63585325Y-50005272D01*
X63585332Y-50005278D01*
X63682352Y-50070104D01*
X63691871Y-50076464D01*
X63691872Y-50076464D01*
X63691873Y-50076465D01*
X63810256Y-50125501D01*
X63810260Y-50125501D01*
X63810261Y-50125502D01*
X63935928Y-50150500D01*
X63935931Y-50150500D01*
X64064069Y-50150500D01*
X71495065Y-50150500D01*
X71562104Y-50170185D01*
X71563909Y-50171366D01*
X71620821Y-50209394D01*
X71620823Y-50209395D01*
X71620827Y-50209397D01*
X71754053Y-50264580D01*
X71766503Y-50269737D01*
X71876189Y-50291555D01*
X71921153Y-50300499D01*
X71921156Y-50300500D01*
X71921158Y-50300500D01*
X72078844Y-50300500D01*
X72078845Y-50300499D01*
X72233497Y-50269737D01*
X72379179Y-50209394D01*
X72510289Y-50121789D01*
X72621789Y-50010289D01*
X72709394Y-49879179D01*
X72769737Y-49733497D01*
X72800500Y-49578842D01*
X72800500Y-49421158D01*
X72800500Y-49421155D01*
X72800499Y-49421153D01*
X72797542Y-49406286D01*
X72769737Y-49266503D01*
X72739587Y-49193713D01*
X72709397Y-49120827D01*
X72709390Y-49120814D01*
X72621789Y-48989711D01*
X72621786Y-48989707D01*
X72510292Y-48878213D01*
X72510288Y-48878210D01*
X72379185Y-48790609D01*
X72379172Y-48790602D01*
X72233501Y-48730264D01*
X72233489Y-48730261D01*
X72078845Y-48699500D01*
X72078842Y-48699500D01*
X71921158Y-48699500D01*
X71921155Y-48699500D01*
X71766510Y-48730261D01*
X71766498Y-48730264D01*
X71620827Y-48790602D01*
X71620820Y-48790606D01*
X71596006Y-48807187D01*
X71563955Y-48828602D01*
X71497279Y-48849480D01*
X71495065Y-48849500D01*
X64320808Y-48849500D01*
X64253769Y-48829815D01*
X64233127Y-48813181D01*
X57317015Y-41897069D01*
X57283530Y-41835746D01*
X57283093Y-41833652D01*
X57269737Y-41766503D01*
X57229851Y-41670208D01*
X57209397Y-41620827D01*
X57209390Y-41620814D01*
X57121789Y-41489711D01*
X57121786Y-41489707D01*
X57010292Y-41378213D01*
X57010288Y-41378210D01*
X56879185Y-41290609D01*
X56879172Y-41290602D01*
X56733501Y-41230264D01*
X56733489Y-41230261D01*
X56578845Y-41199500D01*
X56578842Y-41199500D01*
X56421158Y-41199500D01*
X56421155Y-41199500D01*
X56266510Y-41230261D01*
X56266498Y-41230264D01*
X56120827Y-41290602D01*
X56120814Y-41290609D01*
X55989711Y-41378210D01*
X55989707Y-41378213D01*
X55878213Y-41489707D01*
X55878210Y-41489711D01*
X55790609Y-41620814D01*
X55790602Y-41620827D01*
X55730264Y-41766498D01*
X55730261Y-41766510D01*
X55699500Y-41921153D01*
X50605478Y-41921153D01*
X50555051Y-41822184D01*
X50555049Y-41822181D01*
X50555048Y-41822179D01*
X50430109Y-41650213D01*
X50279786Y-41499890D01*
X50107820Y-41374951D01*
X50107115Y-41374591D01*
X50099054Y-41370485D01*
X50048259Y-41322512D01*
X50031463Y-41254692D01*
X50053999Y-41188556D01*
X50099054Y-41149515D01*
X50107816Y-41145051D01*
X50176252Y-41095330D01*
X50279786Y-41020109D01*
X50279788Y-41020106D01*
X50279792Y-41020104D01*
X50430104Y-40869792D01*
X50430106Y-40869788D01*
X50430109Y-40869786D01*
X50555048Y-40697820D01*
X50555047Y-40697820D01*
X50555051Y-40697816D01*
X50651557Y-40508412D01*
X50717246Y-40306243D01*
X50750500Y-40096287D01*
X50750500Y-39883713D01*
X50717246Y-39673757D01*
X50651557Y-39471588D01*
X50555051Y-39282184D01*
X50555049Y-39282181D01*
X50555048Y-39282179D01*
X50430109Y-39110213D01*
X50279786Y-38959890D01*
X50107820Y-38834951D01*
X50107115Y-38834591D01*
X50099054Y-38830485D01*
X50048259Y-38782512D01*
X50031463Y-38714692D01*
X50053999Y-38648556D01*
X50099054Y-38609515D01*
X50107816Y-38605051D01*
X50129789Y-38589086D01*
X50279786Y-38480109D01*
X50279788Y-38480106D01*
X50279792Y-38480104D01*
X50430104Y-38329792D01*
X50430106Y-38329788D01*
X50430109Y-38329786D01*
X50555048Y-38157820D01*
X50555047Y-38157820D01*
X50555051Y-38157816D01*
X50651557Y-37968412D01*
X50717246Y-37766243D01*
X50750500Y-37556287D01*
X50750500Y-37343713D01*
X50717246Y-37133757D01*
X50651557Y-36931588D01*
X50555051Y-36742184D01*
X50555049Y-36742181D01*
X50555048Y-36742179D01*
X50430109Y-36570213D01*
X50281049Y-36421153D01*
X56199500Y-36421153D01*
X56199500Y-36578846D01*
X56230261Y-36733489D01*
X56230264Y-36733501D01*
X56290602Y-36879172D01*
X56290609Y-36879185D01*
X56378210Y-37010288D01*
X56378213Y-37010292D01*
X56489707Y-37121786D01*
X56489711Y-37121789D01*
X56620814Y-37209390D01*
X56620827Y-37209397D01*
X56758683Y-37266498D01*
X56766503Y-37269737D01*
X56876189Y-37291555D01*
X56921153Y-37300499D01*
X56921156Y-37300500D01*
X56921158Y-37300500D01*
X57078844Y-37300500D01*
X57078845Y-37300499D01*
X57233497Y-37269737D01*
X57379179Y-37209394D01*
X57436044Y-37171397D01*
X57502721Y-37150520D01*
X57504935Y-37150500D01*
X64564071Y-37150500D01*
X64648615Y-37133682D01*
X64689744Y-37125501D01*
X64808127Y-37076465D01*
X64811287Y-37074353D01*
X64817648Y-37070104D01*
X64907169Y-37010288D01*
X64914669Y-37005277D01*
X65233127Y-36686819D01*
X65294450Y-36653334D01*
X65320808Y-36650500D01*
X71495065Y-36650500D01*
X71562104Y-36670185D01*
X71563909Y-36671366D01*
X71620821Y-36709394D01*
X71620823Y-36709395D01*
X71620827Y-36709397D01*
X71713590Y-36747820D01*
X71766503Y-36769737D01*
X71921153Y-36800499D01*
X71921156Y-36800500D01*
X71921158Y-36800500D01*
X72078844Y-36800500D01*
X72078845Y-36800499D01*
X72233497Y-36769737D01*
X72378414Y-36709711D01*
X72379172Y-36709397D01*
X72379172Y-36709396D01*
X72379179Y-36709394D01*
X72510289Y-36621789D01*
X72621789Y-36510289D01*
X72709394Y-36379179D01*
X72769737Y-36233497D01*
X72800500Y-36078842D01*
X72800500Y-35921158D01*
X72800500Y-35921155D01*
X72800499Y-35921153D01*
X72793781Y-35887379D01*
X72769737Y-35766503D01*
X72758415Y-35739168D01*
X72709397Y-35620827D01*
X72709390Y-35620814D01*
X72621789Y-35489711D01*
X72621786Y-35489707D01*
X72510292Y-35378213D01*
X72510288Y-35378210D01*
X72379185Y-35290609D01*
X72379172Y-35290602D01*
X72233501Y-35230264D01*
X72233489Y-35230261D01*
X72078845Y-35199500D01*
X72078842Y-35199500D01*
X71921158Y-35199500D01*
X71921155Y-35199500D01*
X71766510Y-35230261D01*
X71766498Y-35230264D01*
X71620827Y-35290602D01*
X71620820Y-35290606D01*
X71591928Y-35309911D01*
X71563955Y-35328602D01*
X71497279Y-35349480D01*
X71495065Y-35349500D01*
X64935929Y-35349500D01*
X64810261Y-35374497D01*
X64810255Y-35374499D01*
X64743337Y-35402218D01*
X64691877Y-35423533D01*
X64691869Y-35423537D01*
X64585326Y-35494726D01*
X64585325Y-35494727D01*
X64266873Y-35813181D01*
X64205550Y-35846666D01*
X64179192Y-35849500D01*
X57504935Y-35849500D01*
X57437896Y-35829815D01*
X57436090Y-35828633D01*
X57379179Y-35790606D01*
X57379172Y-35790602D01*
X57233501Y-35730264D01*
X57233489Y-35730261D01*
X57078845Y-35699500D01*
X57078842Y-35699500D01*
X56921158Y-35699500D01*
X56921155Y-35699500D01*
X56766510Y-35730261D01*
X56766498Y-35730264D01*
X56620827Y-35790602D01*
X56620814Y-35790609D01*
X56489711Y-35878210D01*
X56489707Y-35878213D01*
X56378213Y-35989707D01*
X56378210Y-35989711D01*
X56290609Y-36120814D01*
X56290602Y-36120827D01*
X56230264Y-36266498D01*
X56230261Y-36266510D01*
X56199500Y-36421153D01*
X50281049Y-36421153D01*
X50279786Y-36419890D01*
X50107820Y-36294951D01*
X50106897Y-36294481D01*
X50099054Y-36290485D01*
X50048259Y-36242512D01*
X50031463Y-36174692D01*
X50053999Y-36108556D01*
X50099054Y-36069515D01*
X50107816Y-36065051D01*
X50194471Y-36002093D01*
X50279786Y-35940109D01*
X50279788Y-35940106D01*
X50279792Y-35940104D01*
X50430104Y-35789792D01*
X50430106Y-35789788D01*
X50430109Y-35789786D01*
X50555048Y-35617820D01*
X50555047Y-35617820D01*
X50555051Y-35617816D01*
X50651557Y-35428412D01*
X50717246Y-35226243D01*
X50750500Y-35016287D01*
X50750500Y-34803713D01*
X50717246Y-34593757D01*
X50651557Y-34391588D01*
X50555051Y-34202184D01*
X50555049Y-34202181D01*
X50555048Y-34202179D01*
X50430109Y-34030213D01*
X50279786Y-33879890D01*
X50107820Y-33754951D01*
X50107115Y-33754591D01*
X50099054Y-33750485D01*
X50048259Y-33702512D01*
X50031463Y-33634692D01*
X50053999Y-33568556D01*
X50099054Y-33529515D01*
X50107816Y-33525051D01*
X50217947Y-33445037D01*
X50279786Y-33400109D01*
X50279788Y-33400106D01*
X50279792Y-33400104D01*
X50430104Y-33249792D01*
X50430106Y-33249788D01*
X50430109Y-33249786D01*
X50555048Y-33077820D01*
X50555047Y-33077820D01*
X50555051Y-33077816D01*
X50651557Y-32888412D01*
X50717246Y-32686243D01*
X50750500Y-32476287D01*
X50750500Y-32263713D01*
X50717246Y-32053757D01*
X50651557Y-31851588D01*
X50555051Y-31662184D01*
X50555049Y-31662181D01*
X50555048Y-31662179D01*
X50430109Y-31490213D01*
X50279786Y-31339890D01*
X50107820Y-31214951D01*
X50107115Y-31214591D01*
X50099054Y-31210485D01*
X50048259Y-31162512D01*
X50031463Y-31094692D01*
X50053999Y-31028556D01*
X50099054Y-30989515D01*
X50107816Y-30985051D01*
X50129789Y-30969086D01*
X50279786Y-30860109D01*
X50279788Y-30860106D01*
X50279792Y-30860104D01*
X50430104Y-30709792D01*
X50430106Y-30709788D01*
X50430109Y-30709786D01*
X50555048Y-30537820D01*
X50555047Y-30537820D01*
X50555051Y-30537816D01*
X50651557Y-30348412D01*
X50717246Y-30146243D01*
X50750500Y-29936287D01*
X50750500Y-29723713D01*
X50717246Y-29513757D01*
X50651557Y-29311588D01*
X50555051Y-29122184D01*
X50555049Y-29122181D01*
X50555048Y-29122179D01*
X50430109Y-28950213D01*
X50279786Y-28799890D01*
X50107820Y-28674951D01*
X50107115Y-28674591D01*
X50099054Y-28670485D01*
X50048259Y-28622512D01*
X50031463Y-28554692D01*
X50053999Y-28488556D01*
X50099054Y-28449515D01*
X50107816Y-28445051D01*
X50129789Y-28429086D01*
X50279786Y-28320109D01*
X50279788Y-28320106D01*
X50279792Y-28320104D01*
X50430104Y-28169792D01*
X50430106Y-28169788D01*
X50430109Y-28169786D01*
X50555048Y-27997820D01*
X50555047Y-27997820D01*
X50555051Y-27997816D01*
X50651557Y-27808412D01*
X50717246Y-27606243D01*
X50750500Y-27396287D01*
X50750500Y-27183713D01*
X50717246Y-26973757D01*
X50651557Y-26771588D01*
X50555051Y-26582184D01*
X50555049Y-26582181D01*
X50555048Y-26582179D01*
X50430109Y-26410213D01*
X50279786Y-26259890D01*
X50107820Y-26134951D01*
X50100974Y-26131463D01*
X50099054Y-26130485D01*
X50048259Y-26082512D01*
X50031463Y-26014692D01*
X50053999Y-25948556D01*
X50099054Y-25909515D01*
X50107816Y-25905051D01*
X50135040Y-25885272D01*
X50279786Y-25780109D01*
X50279788Y-25780106D01*
X50279792Y-25780104D01*
X50430104Y-25629792D01*
X50433036Y-25625757D01*
X50433038Y-25625755D01*
X50433039Y-25625753D01*
X50540520Y-25477816D01*
X50555051Y-25457816D01*
X50651557Y-25268412D01*
X50717246Y-25066243D01*
X50750500Y-24856287D01*
X50750500Y-24643713D01*
X50743918Y-24602155D01*
X61610000Y-24602155D01*
X61610000Y-25250000D01*
X62526988Y-25250000D01*
X62494075Y-25307007D01*
X62460000Y-25434174D01*
X62460000Y-25565826D01*
X62494075Y-25692993D01*
X62526988Y-25750000D01*
X61610000Y-25750000D01*
X61610000Y-26397844D01*
X61616401Y-26457372D01*
X61616403Y-26457379D01*
X61666645Y-26592086D01*
X61666649Y-26592093D01*
X61752809Y-26707187D01*
X61752812Y-26707190D01*
X61867906Y-26793350D01*
X61867913Y-26793354D01*
X62002620Y-26843596D01*
X62002627Y-26843598D01*
X62062155Y-26849999D01*
X62062172Y-26850000D01*
X62710000Y-26850000D01*
X62710000Y-25933012D01*
X62767007Y-25965925D01*
X62894174Y-26000000D01*
X63025826Y-26000000D01*
X63152993Y-25965925D01*
X63210000Y-25933012D01*
X63210000Y-26850000D01*
X63857828Y-26850000D01*
X63857844Y-26849999D01*
X63917372Y-26843598D01*
X63917379Y-26843596D01*
X64052086Y-26793354D01*
X64052093Y-26793350D01*
X64167187Y-26707190D01*
X64167190Y-26707187D01*
X64253350Y-26592093D01*
X64253354Y-26592086D01*
X64302422Y-26460529D01*
X64344293Y-26404595D01*
X64409757Y-26380178D01*
X64478030Y-26395030D01*
X64506285Y-26416181D01*
X64620213Y-26530109D01*
X64792179Y-26655048D01*
X64792181Y-26655049D01*
X64792184Y-26655051D01*
X64981588Y-26751557D01*
X65183757Y-26817246D01*
X65393713Y-26850500D01*
X65393714Y-26850500D01*
X65606286Y-26850500D01*
X65606287Y-26850500D01*
X65816243Y-26817246D01*
X66018412Y-26751557D01*
X66207816Y-26655051D01*
X66294471Y-26592093D01*
X66379786Y-26530109D01*
X66379788Y-26530106D01*
X66379792Y-26530104D01*
X66530104Y-26379792D01*
X66530106Y-26379788D01*
X66530109Y-26379786D01*
X66655048Y-26207820D01*
X66655047Y-26207820D01*
X66655051Y-26207816D01*
X66659514Y-26199054D01*
X66707488Y-26148259D01*
X66775308Y-26131463D01*
X66841444Y-26153999D01*
X66880486Y-26199056D01*
X66884951Y-26207820D01*
X67009890Y-26379786D01*
X67160213Y-26530109D01*
X67332179Y-26655048D01*
X67332181Y-26655049D01*
X67332184Y-26655051D01*
X67521588Y-26751557D01*
X67723757Y-26817246D01*
X67933713Y-26850500D01*
X67933714Y-26850500D01*
X68146286Y-26850500D01*
X68146287Y-26850500D01*
X68356243Y-26817246D01*
X68558412Y-26751557D01*
X68747816Y-26655051D01*
X68834471Y-26592093D01*
X68919786Y-26530109D01*
X68919788Y-26530106D01*
X68919792Y-26530104D01*
X69070104Y-26379792D01*
X69070106Y-26379788D01*
X69070109Y-26379786D01*
X69195048Y-26207820D01*
X69195047Y-26207820D01*
X69195051Y-26207816D01*
X69199514Y-26199054D01*
X69247488Y-26148259D01*
X69315308Y-26131463D01*
X69381444Y-26153999D01*
X69420486Y-26199056D01*
X69424951Y-26207820D01*
X69549890Y-26379786D01*
X69700213Y-26530109D01*
X69872179Y-26655048D01*
X69872181Y-26655049D01*
X69872184Y-26655051D01*
X70061588Y-26751557D01*
X70263757Y-26817246D01*
X70473713Y-26850500D01*
X70473714Y-26850500D01*
X70686286Y-26850500D01*
X70686287Y-26850500D01*
X70842771Y-26825715D01*
X70912064Y-26834670D01*
X70949850Y-26860507D01*
X73263181Y-29173838D01*
X73296666Y-29235161D01*
X73299500Y-29261519D01*
X73299500Y-38931006D01*
X73299500Y-39068994D01*
X73299500Y-39068996D01*
X73299499Y-39068996D01*
X73326418Y-39204322D01*
X73326421Y-39204332D01*
X73379222Y-39331807D01*
X73455887Y-39446545D01*
X73455888Y-39446546D01*
X76466341Y-42456997D01*
X76499826Y-42518320D01*
X76494842Y-42588012D01*
X76452970Y-42643945D01*
X76421998Y-42660858D01*
X76407674Y-42666200D01*
X76407664Y-42666206D01*
X76292455Y-42752452D01*
X76292452Y-42752455D01*
X76206206Y-42867664D01*
X76206202Y-42867671D01*
X76155908Y-43002517D01*
X76149501Y-43062116D01*
X76149501Y-43062123D01*
X76149500Y-43062135D01*
X76149500Y-44857870D01*
X76149501Y-44857876D01*
X76155908Y-44917483D01*
X76206202Y-45052328D01*
X76206206Y-45052335D01*
X76292452Y-45167544D01*
X76292455Y-45167547D01*
X76407664Y-45253793D01*
X76407671Y-45253797D01*
X76539082Y-45302810D01*
X76595016Y-45344681D01*
X76619433Y-45410145D01*
X76604582Y-45478418D01*
X76583431Y-45506673D01*
X76469889Y-45620215D01*
X76344951Y-45792179D01*
X76248444Y-45981585D01*
X76182753Y-46183760D01*
X76162512Y-46311557D01*
X76149500Y-46393713D01*
X76149500Y-46606287D01*
X76156840Y-46652627D01*
X76180196Y-46800097D01*
X76182754Y-46816243D01*
X76217176Y-46922184D01*
X76248444Y-47018414D01*
X76344951Y-47207820D01*
X76469890Y-47379786D01*
X76620213Y-47530109D01*
X76792182Y-47655050D01*
X76800946Y-47659516D01*
X76851742Y-47707491D01*
X76868536Y-47775312D01*
X76845998Y-47841447D01*
X76800946Y-47880484D01*
X76792182Y-47884949D01*
X76620213Y-48009890D01*
X76469890Y-48160213D01*
X76344951Y-48332179D01*
X76248444Y-48521585D01*
X76182753Y-48723760D01*
X76149500Y-48933713D01*
X76149500Y-49146286D01*
X76168541Y-49266510D01*
X76182754Y-49356243D01*
X76203846Y-49421158D01*
X76248444Y-49558414D01*
X76344951Y-49747820D01*
X76469890Y-49919786D01*
X76620213Y-50070109D01*
X76792179Y-50195048D01*
X76792181Y-50195049D01*
X76792184Y-50195051D01*
X76981588Y-50291557D01*
X77183757Y-50357246D01*
X77393713Y-50390500D01*
X77393714Y-50390500D01*
X77606286Y-50390500D01*
X77606287Y-50390500D01*
X77816243Y-50357246D01*
X78018412Y-50291557D01*
X78207816Y-50195051D01*
X78303544Y-50125501D01*
X78379786Y-50070109D01*
X78379792Y-50070104D01*
X78444624Y-50005272D01*
X78530104Y-49919792D01*
X78530106Y-49919788D01*
X78530109Y-49919786D01*
X78655048Y-49747820D01*
X78655047Y-49747820D01*
X78655051Y-49747816D01*
X78751557Y-49558412D01*
X78817246Y-49356243D01*
X78850500Y-49146287D01*
X78850500Y-48933713D01*
X78817246Y-48723757D01*
X78751557Y-48521588D01*
X78655051Y-48332184D01*
X78655049Y-48332181D01*
X78655048Y-48332179D01*
X78530109Y-48160213D01*
X78379786Y-48009890D01*
X78207820Y-47884951D01*
X78207115Y-47884591D01*
X78199054Y-47880485D01*
X78148259Y-47832512D01*
X78131463Y-47764692D01*
X78153999Y-47698556D01*
X78199054Y-47659515D01*
X78207816Y-47655051D01*
X78282901Y-47600499D01*
X78379786Y-47530109D01*
X78379788Y-47530106D01*
X78379792Y-47530104D01*
X78530104Y-47379792D01*
X78530106Y-47379788D01*
X78530109Y-47379786D01*
X78655048Y-47207820D01*
X78655047Y-47207820D01*
X78655051Y-47207816D01*
X78751557Y-47018412D01*
X78817246Y-46816243D01*
X78850500Y-46606287D01*
X78850500Y-46393713D01*
X78817246Y-46183757D01*
X78751557Y-45981588D01*
X78655051Y-45792184D01*
X78655049Y-45792181D01*
X78655048Y-45792179D01*
X78530109Y-45620213D01*
X78416569Y-45506673D01*
X78383084Y-45445350D01*
X78388068Y-45375658D01*
X78429940Y-45319725D01*
X78460915Y-45302810D01*
X78592331Y-45253796D01*
X78707546Y-45167546D01*
X78793796Y-45052331D01*
X78844091Y-44917483D01*
X78850500Y-44857873D01*
X78850499Y-43062128D01*
X78844091Y-43002517D01*
X78797963Y-42878842D01*
X78793797Y-42867671D01*
X78793793Y-42867664D01*
X78707547Y-42752455D01*
X78707544Y-42752452D01*
X78592335Y-42666206D01*
X78592328Y-42666202D01*
X78457482Y-42615908D01*
X78457483Y-42615908D01*
X78397883Y-42609501D01*
X78397881Y-42609500D01*
X78397873Y-42609500D01*
X78397865Y-42609500D01*
X78324500Y-42609500D01*
X78323541Y-42609218D01*
X78322579Y-42609485D01*
X78290096Y-42599397D01*
X78257461Y-42589815D01*
X78256807Y-42589060D01*
X78255853Y-42588764D01*
X78233962Y-42562696D01*
X78211706Y-42537011D01*
X78211352Y-42535771D01*
X78210921Y-42535258D01*
X78210134Y-42531500D01*
X78201503Y-42501244D01*
X78200500Y-42493408D01*
X78200500Y-42431007D01*
X78178934Y-42322591D01*
X78173580Y-42295671D01*
X78139650Y-42213757D01*
X78120775Y-42168189D01*
X78120774Y-42168188D01*
X78120771Y-42168182D01*
X78044115Y-42053459D01*
X78002239Y-42011583D01*
X77946542Y-41955886D01*
X76469828Y-40479172D01*
X74736819Y-38746162D01*
X74703334Y-38684839D01*
X74700500Y-38658481D01*
X74700500Y-30910519D01*
X74720185Y-30843480D01*
X74772989Y-30797725D01*
X74842147Y-30787781D01*
X74905703Y-30816806D01*
X74912181Y-30822838D01*
X75553453Y-31464111D01*
X75553454Y-31464112D01*
X75668192Y-31540777D01*
X75795667Y-31593578D01*
X75795672Y-31593580D01*
X75795676Y-31593580D01*
X75795677Y-31593581D01*
X75931003Y-31620500D01*
X75931006Y-31620500D01*
X75931007Y-31620500D01*
X76025501Y-31620500D01*
X76092540Y-31640185D01*
X76138295Y-31692989D01*
X76149501Y-31744500D01*
X76149501Y-31857876D01*
X76155908Y-31917483D01*
X76206202Y-32052328D01*
X76206206Y-32052335D01*
X76292452Y-32167544D01*
X76292455Y-32167547D01*
X76407664Y-32253793D01*
X76407671Y-32253797D01*
X76539082Y-32302810D01*
X76595016Y-32344681D01*
X76619433Y-32410145D01*
X76604582Y-32478418D01*
X76583431Y-32506673D01*
X76469889Y-32620215D01*
X76344951Y-32792179D01*
X76248444Y-32981585D01*
X76182753Y-33183760D01*
X76154251Y-33363714D01*
X76149500Y-33393713D01*
X76149500Y-33606287D01*
X76182754Y-33816243D01*
X76246415Y-34012172D01*
X76248444Y-34018414D01*
X76344951Y-34207820D01*
X76469890Y-34379786D01*
X76620213Y-34530109D01*
X76792182Y-34655050D01*
X76800946Y-34659516D01*
X76851742Y-34707491D01*
X76868536Y-34775312D01*
X76845998Y-34841447D01*
X76800946Y-34880484D01*
X76792182Y-34884949D01*
X76620213Y-35009890D01*
X76469890Y-35160213D01*
X76344951Y-35332179D01*
X76248444Y-35521585D01*
X76182753Y-35723760D01*
X76149500Y-35933713D01*
X76149500Y-36146286D01*
X76176213Y-36314949D01*
X76182754Y-36356243D01*
X76242199Y-36539196D01*
X76248444Y-36558414D01*
X76344951Y-36747820D01*
X76469890Y-36919786D01*
X76620213Y-37070109D01*
X76792179Y-37195048D01*
X76792181Y-37195049D01*
X76792184Y-37195051D01*
X76981588Y-37291557D01*
X77183757Y-37357246D01*
X77393713Y-37390500D01*
X77393714Y-37390500D01*
X77606286Y-37390500D01*
X77606287Y-37390500D01*
X77816243Y-37357246D01*
X78018412Y-37291557D01*
X78207816Y-37195051D01*
X78286857Y-37137625D01*
X78379786Y-37070109D01*
X78379792Y-37070104D01*
X78444624Y-37005272D01*
X78530104Y-36919792D01*
X78530106Y-36919788D01*
X78530109Y-36919786D01*
X78655048Y-36747820D01*
X78655047Y-36747820D01*
X78655051Y-36747816D01*
X78751557Y-36558412D01*
X78817246Y-36356243D01*
X78850500Y-36146287D01*
X78850500Y-35933713D01*
X78817246Y-35723757D01*
X78751557Y-35521588D01*
X78655051Y-35332184D01*
X78655049Y-35332181D01*
X78655048Y-35332179D01*
X78530109Y-35160213D01*
X78379786Y-35009890D01*
X78207820Y-34884951D01*
X78207115Y-34884591D01*
X78199054Y-34880485D01*
X78148259Y-34832512D01*
X78131463Y-34764692D01*
X78153999Y-34698556D01*
X78199054Y-34659515D01*
X78207816Y-34655051D01*
X78279468Y-34602993D01*
X78379786Y-34530109D01*
X78379788Y-34530106D01*
X78379792Y-34530104D01*
X78530104Y-34379792D01*
X78530106Y-34379788D01*
X78530109Y-34379786D01*
X78655048Y-34207820D01*
X78655047Y-34207820D01*
X78655051Y-34207816D01*
X78751557Y-34018412D01*
X78817246Y-33816243D01*
X78850500Y-33606287D01*
X78850500Y-33393713D01*
X78817246Y-33183757D01*
X78751557Y-32981588D01*
X78655051Y-32792184D01*
X78655049Y-32792181D01*
X78655048Y-32792179D01*
X78530109Y-32620213D01*
X78416569Y-32506673D01*
X78383084Y-32445350D01*
X78388068Y-32375658D01*
X78429940Y-32319725D01*
X78460915Y-32302810D01*
X78592331Y-32253796D01*
X78707546Y-32167546D01*
X78793796Y-32052331D01*
X78844091Y-31917483D01*
X78850500Y-31857873D01*
X78850499Y-30062128D01*
X78844091Y-30002517D01*
X78829107Y-29962344D01*
X78793797Y-29867671D01*
X78793793Y-29867664D01*
X78707547Y-29752455D01*
X78707544Y-29752452D01*
X78592335Y-29666206D01*
X78592328Y-29666202D01*
X78457482Y-29615908D01*
X78457483Y-29615908D01*
X78397883Y-29609501D01*
X78397881Y-29609500D01*
X78397873Y-29609500D01*
X78397864Y-29609500D01*
X76602129Y-29609500D01*
X76602123Y-29609501D01*
X76542516Y-29615908D01*
X76407671Y-29666202D01*
X76407664Y-29666206D01*
X76292455Y-29752452D01*
X76292452Y-29752455D01*
X76206206Y-29867664D01*
X76206202Y-29867671D01*
X76200861Y-29881993D01*
X76158990Y-29937927D01*
X76093525Y-29962344D01*
X76025252Y-29947492D01*
X75996998Y-29926341D01*
X71940507Y-25869850D01*
X71907022Y-25808527D01*
X71905715Y-25762771D01*
X71927417Y-25625755D01*
X71930500Y-25606287D01*
X71930500Y-25393713D01*
X71897246Y-25183757D01*
X71831557Y-24981588D01*
X71735051Y-24792184D01*
X71735049Y-24792181D01*
X71735048Y-24792179D01*
X71610109Y-24620213D01*
X71459786Y-24469890D01*
X71287820Y-24344951D01*
X71098414Y-24248444D01*
X71098413Y-24248443D01*
X71098412Y-24248443D01*
X70896243Y-24182754D01*
X70896241Y-24182753D01*
X70896240Y-24182753D01*
X70734957Y-24157208D01*
X70686287Y-24149500D01*
X70473713Y-24149500D01*
X70425042Y-24157208D01*
X70263760Y-24182753D01*
X70061585Y-24248444D01*
X69872179Y-24344951D01*
X69700213Y-24469890D01*
X69549890Y-24620213D01*
X69424949Y-24792182D01*
X69420484Y-24800946D01*
X69372509Y-24851742D01*
X69304688Y-24868536D01*
X69238553Y-24845998D01*
X69199516Y-24800946D01*
X69195050Y-24792182D01*
X69070109Y-24620213D01*
X68919786Y-24469890D01*
X68747820Y-24344951D01*
X68558414Y-24248444D01*
X68558413Y-24248443D01*
X68558412Y-24248443D01*
X68356243Y-24182754D01*
X68356241Y-24182753D01*
X68356240Y-24182753D01*
X68194957Y-24157208D01*
X68146287Y-24149500D01*
X67933713Y-24149500D01*
X67885042Y-24157208D01*
X67723760Y-24182753D01*
X67521585Y-24248444D01*
X67332179Y-24344951D01*
X67160213Y-24469890D01*
X67009890Y-24620213D01*
X66884949Y-24792182D01*
X66880484Y-24800946D01*
X66832509Y-24851742D01*
X66764688Y-24868536D01*
X66698553Y-24845998D01*
X66659516Y-24800946D01*
X66655050Y-24792182D01*
X66530109Y-24620213D01*
X66379786Y-24469890D01*
X66207820Y-24344951D01*
X66018414Y-24248444D01*
X66018413Y-24248443D01*
X66018412Y-24248443D01*
X65816243Y-24182754D01*
X65816241Y-24182753D01*
X65816240Y-24182753D01*
X65654957Y-24157208D01*
X65606287Y-24149500D01*
X65393713Y-24149500D01*
X65345042Y-24157208D01*
X65183760Y-24182753D01*
X64981585Y-24248444D01*
X64792179Y-24344951D01*
X64620215Y-24469889D01*
X64506285Y-24583819D01*
X64444962Y-24617303D01*
X64375270Y-24612319D01*
X64319337Y-24570447D01*
X64302422Y-24539470D01*
X64253354Y-24407913D01*
X64253350Y-24407906D01*
X64167190Y-24292812D01*
X64167187Y-24292809D01*
X64052093Y-24206649D01*
X64052086Y-24206645D01*
X63917379Y-24156403D01*
X63917372Y-24156401D01*
X63857844Y-24150000D01*
X63210000Y-24150000D01*
X63210000Y-25066988D01*
X63152993Y-25034075D01*
X63025826Y-25000000D01*
X62894174Y-25000000D01*
X62767007Y-25034075D01*
X62710000Y-25066988D01*
X62710000Y-24150000D01*
X62062155Y-24150000D01*
X62002627Y-24156401D01*
X62002620Y-24156403D01*
X61867913Y-24206645D01*
X61867906Y-24206649D01*
X61752812Y-24292809D01*
X61752809Y-24292812D01*
X61666649Y-24407906D01*
X61666645Y-24407913D01*
X61616403Y-24542620D01*
X61616401Y-24542627D01*
X61610000Y-24602155D01*
X50743918Y-24602155D01*
X50717246Y-24433757D01*
X50651557Y-24231588D01*
X50555051Y-24042184D01*
X50555049Y-24042181D01*
X50555048Y-24042179D01*
X50430109Y-23870213D01*
X50279786Y-23719890D01*
X50107820Y-23594951D01*
X50107115Y-23594591D01*
X50099054Y-23590485D01*
X50048259Y-23542512D01*
X50031463Y-23474692D01*
X50053999Y-23408556D01*
X50099054Y-23369515D01*
X50107816Y-23365051D01*
X50129789Y-23349086D01*
X50279786Y-23240109D01*
X50279788Y-23240106D01*
X50279792Y-23240104D01*
X50430104Y-23089792D01*
X50430106Y-23089788D01*
X50430109Y-23089786D01*
X50555048Y-22917820D01*
X50555047Y-22917820D01*
X50555051Y-22917816D01*
X50651557Y-22728412D01*
X50717246Y-22526243D01*
X50750500Y-22316287D01*
X50750500Y-22103713D01*
X50717246Y-21893757D01*
X50651557Y-21691588D01*
X50555051Y-21502184D01*
X50555049Y-21502181D01*
X50555048Y-21502179D01*
X50430109Y-21330213D01*
X50279786Y-21179890D01*
X50107820Y-21054951D01*
X50107115Y-21054591D01*
X50099054Y-21050485D01*
X50048259Y-21002512D01*
X50031463Y-20934692D01*
X50053999Y-20868556D01*
X50099054Y-20829515D01*
X50107816Y-20825051D01*
X50129789Y-20809086D01*
X50279786Y-20700109D01*
X50279788Y-20700106D01*
X50279792Y-20700104D01*
X50430104Y-20549792D01*
X50430106Y-20549788D01*
X50430109Y-20549786D01*
X50555048Y-20377820D01*
X50555047Y-20377820D01*
X50555051Y-20377816D01*
X50651557Y-20188412D01*
X50717246Y-19986243D01*
X50750500Y-19776287D01*
X50750500Y-19563713D01*
X50717246Y-19353757D01*
X50651557Y-19151588D01*
X50555051Y-18962184D01*
X50555049Y-18962181D01*
X50555048Y-18962179D01*
X50430109Y-18790213D01*
X50279786Y-18639890D01*
X50107820Y-18514951D01*
X49918414Y-18418444D01*
X49918413Y-18418443D01*
X49918412Y-18418443D01*
X49716243Y-18352754D01*
X49716241Y-18352753D01*
X49716240Y-18352753D01*
X49554957Y-18327208D01*
X49506287Y-18319500D01*
X49293713Y-18319500D01*
X49245042Y-18327208D01*
X49083760Y-18352753D01*
X48881585Y-18418444D01*
X48692179Y-18514951D01*
X48520213Y-18639890D01*
X48369890Y-18790213D01*
X48244951Y-18962179D01*
X48148444Y-19151585D01*
X48082753Y-19353760D01*
X48049500Y-19563713D01*
X46850500Y-19563713D01*
X46850500Y-19553713D01*
X46817246Y-19343757D01*
X46751557Y-19141588D01*
X46655051Y-18952184D01*
X46655049Y-18952181D01*
X46655048Y-18952179D01*
X46530109Y-18780213D01*
X46379786Y-18629890D01*
X46207820Y-18504951D01*
X46018414Y-18408444D01*
X46018413Y-18408443D01*
X46018412Y-18408443D01*
X45816243Y-18342754D01*
X45816241Y-18342753D01*
X45816240Y-18342753D01*
X45654957Y-18317208D01*
X45606287Y-18309500D01*
X45393713Y-18309500D01*
X45345042Y-18317208D01*
X45183760Y-18342753D01*
X44981585Y-18408444D01*
X44792179Y-18504951D01*
X44620213Y-18629890D01*
X44469890Y-18780213D01*
X44344951Y-18952179D01*
X44248444Y-19141585D01*
X44182753Y-19343760D01*
X44149500Y-19553713D01*
X36708916Y-19553713D01*
X36677246Y-19353757D01*
X36611557Y-19151588D01*
X36515051Y-18962184D01*
X36515049Y-18962181D01*
X36515048Y-18962179D01*
X36390109Y-18790213D01*
X36239786Y-18639890D01*
X36067820Y-18514951D01*
X35878414Y-18418444D01*
X35878413Y-18418443D01*
X35878412Y-18418443D01*
X35676243Y-18352754D01*
X35676241Y-18352753D01*
X35676240Y-18352753D01*
X35514957Y-18327208D01*
X35466287Y-18319500D01*
X35253713Y-18319500D01*
X35205042Y-18327208D01*
X35043760Y-18352753D01*
X34841585Y-18418444D01*
X34652179Y-18514951D01*
X34480213Y-18639890D01*
X34329890Y-18790213D01*
X34204951Y-18962179D01*
X34108444Y-19151585D01*
X34042753Y-19353760D01*
X34009500Y-19563713D01*
X32982332Y-19563713D01*
X32952246Y-19373757D01*
X32886557Y-19171588D01*
X32790051Y-18982184D01*
X32790049Y-18982181D01*
X32790048Y-18982179D01*
X32665109Y-18810213D01*
X32514786Y-18659890D01*
X32342820Y-18534951D01*
X32153414Y-18438444D01*
X32153413Y-18438443D01*
X32153412Y-18438443D01*
X31951243Y-18372754D01*
X31951241Y-18372753D01*
X31951240Y-18372753D01*
X31789957Y-18347208D01*
X31741287Y-18339500D01*
X31528713Y-18339500D01*
X31480042Y-18347208D01*
X31318760Y-18372753D01*
X31116585Y-18438444D01*
X30927179Y-18534951D01*
X30755213Y-18659890D01*
X30604890Y-18810213D01*
X30479951Y-18982179D01*
X30383444Y-19171585D01*
X30317753Y-19373760D01*
X30284500Y-19583713D01*
X28295041Y-19583713D01*
X28291062Y-19563712D01*
X28269738Y-19456510D01*
X28269737Y-19456503D01*
X28223038Y-19343760D01*
X28209397Y-19310827D01*
X28209390Y-19310814D01*
X28121789Y-19179711D01*
X28121786Y-19179707D01*
X28010292Y-19068213D01*
X28010288Y-19068210D01*
X27879185Y-18980609D01*
X27879172Y-18980602D01*
X27733501Y-18920264D01*
X27733489Y-18920261D01*
X27578845Y-18889500D01*
X27578842Y-18889500D01*
X27421158Y-18889500D01*
X27421155Y-18889500D01*
X27266510Y-18920261D01*
X27266498Y-18920264D01*
X27120827Y-18980602D01*
X27120820Y-18980606D01*
X27091928Y-18999911D01*
X27063955Y-19018602D01*
X26997279Y-19039480D01*
X26995065Y-19039500D01*
X26565929Y-19039500D01*
X26440261Y-19064497D01*
X26440255Y-19064499D01*
X26321875Y-19113533D01*
X26321866Y-19113538D01*
X26215331Y-19184723D01*
X26215327Y-19184726D01*
X23857068Y-21542984D01*
X23795745Y-21576469D01*
X23793579Y-21576920D01*
X23726508Y-21590261D01*
X23726498Y-21590264D01*
X23580827Y-21650602D01*
X23580814Y-21650609D01*
X23449711Y-21738210D01*
X23449707Y-21738213D01*
X23338213Y-21849707D01*
X23338210Y-21849711D01*
X23250609Y-21980814D01*
X23250602Y-21980827D01*
X23190264Y-22126498D01*
X23190261Y-22126510D01*
X23159500Y-22281153D01*
X17620500Y-22281153D01*
X17620500Y-17071153D01*
X49199500Y-17071153D01*
X49199500Y-17228846D01*
X49230261Y-17383489D01*
X49230264Y-17383501D01*
X49290602Y-17529172D01*
X49290609Y-17529185D01*
X49378210Y-17660288D01*
X49378213Y-17660292D01*
X49489707Y-17771786D01*
X49489711Y-17771789D01*
X49620814Y-17859390D01*
X49620827Y-17859397D01*
X49766498Y-17919735D01*
X49766503Y-17919737D01*
X49921153Y-17950499D01*
X49921156Y-17950500D01*
X49921158Y-17950500D01*
X50078844Y-17950500D01*
X50078845Y-17950499D01*
X50233497Y-17919737D01*
X50379179Y-17859394D01*
X50436044Y-17821397D01*
X50502721Y-17800520D01*
X50504935Y-17800500D01*
X59578844Y-17800500D01*
X59578845Y-17800499D01*
X59733497Y-17769737D01*
X59879179Y-17709394D01*
X60010289Y-17621789D01*
X60121789Y-17510289D01*
X60209394Y-17379179D01*
X60269737Y-17233497D01*
X60300500Y-17078842D01*
X60300500Y-16921158D01*
X60300500Y-16921155D01*
X60300499Y-16921153D01*
X60270596Y-16770821D01*
X60269737Y-16766503D01*
X60269735Y-16766498D01*
X60209397Y-16620827D01*
X60209390Y-16620814D01*
X60121789Y-16489711D01*
X60121786Y-16489707D01*
X60010292Y-16378213D01*
X60010288Y-16378210D01*
X59879185Y-16290609D01*
X59879172Y-16290602D01*
X59733501Y-16230264D01*
X59733489Y-16230261D01*
X59578845Y-16199500D01*
X59578842Y-16199500D01*
X59421158Y-16199500D01*
X59421155Y-16199500D01*
X59266510Y-16230261D01*
X59266498Y-16230264D01*
X59120827Y-16290602D01*
X59120814Y-16290609D01*
X58989712Y-16378209D01*
X58947227Y-16420695D01*
X58904739Y-16463182D01*
X58843419Y-16496666D01*
X58817060Y-16499500D01*
X50504935Y-16499500D01*
X50437896Y-16479815D01*
X50436090Y-16478633D01*
X50379179Y-16440606D01*
X50379172Y-16440602D01*
X50233501Y-16380264D01*
X50233489Y-16380261D01*
X50078845Y-16349500D01*
X50078842Y-16349500D01*
X49921158Y-16349500D01*
X49921155Y-16349500D01*
X49766510Y-16380261D01*
X49766498Y-16380264D01*
X49620827Y-16440602D01*
X49620814Y-16440609D01*
X49489711Y-16528210D01*
X49489707Y-16528213D01*
X49378213Y-16639707D01*
X49378210Y-16639711D01*
X49290609Y-16770814D01*
X49290602Y-16770827D01*
X49230264Y-16916498D01*
X49230261Y-16916510D01*
X49199500Y-17071153D01*
X17620500Y-17071153D01*
X17620500Y-14938272D01*
X17640185Y-14871233D01*
X17692989Y-14825478D01*
X17762147Y-14815534D01*
X17800794Y-14827787D01*
X17849995Y-14852856D01*
X17924001Y-14890565D01*
X17924004Y-14890565D01*
X17924008Y-14890568D01*
X18070825Y-14938272D01*
X18148631Y-14963553D01*
X18381903Y-15000500D01*
X18381908Y-15000500D01*
X18618097Y-15000500D01*
X18851368Y-14963553D01*
X19075992Y-14890568D01*
X19286433Y-14783343D01*
X19477510Y-14644517D01*
X19644517Y-14477510D01*
X19783343Y-14286433D01*
X19890568Y-14075992D01*
X19963553Y-13851368D01*
X20000500Y-13618097D01*
X20000500Y-13381902D01*
X19963553Y-13148631D01*
X19949605Y-13105705D01*
X19890568Y-12924008D01*
X19843074Y-12830795D01*
X19830178Y-12762125D01*
X19856455Y-12697385D01*
X19913561Y-12657128D01*
X19953559Y-12650500D01*
X78546441Y-12650500D01*
X78549080Y-12651275D01*
G37*
%TD.AperFunction*%
%TD*%
M02*
