%TF.GenerationSoftware,KiCad,Pcbnew,9.0.8*%
%TF.CreationDate,2026-03-24T12:44:55+01:00*%
%TF.ProjectId,moored_PCB,6d6f6f72-6564-45f5-9043-422e6b696361,1*%
%TF.SameCoordinates,Original*%
%TF.FileFunction,Legend,Bot*%
%TF.FilePolarity,Positive*%
%FSLAX46Y46*%
G04 Gerber Fmt 4.6, Leading zero omitted, Abs format (unit mm)*
G04 Created by KiCad (PCBNEW 9.0.8) date 2026-03-24 12:44:55*
%MOMM*%
%LPD*%
G01*
G04 APERTURE LIST*
%ADD10C,0.200000*%
%ADD11C,0.250000*%
%ADD12C,0.100000*%
%ADD13C,0.120000*%
G04 APERTURE END LIST*
D10*
X24858898Y-47171980D02*
X24906517Y-47219600D01*
X24906517Y-47219600D02*
X25049374Y-47267219D01*
X25049374Y-47267219D02*
X25144612Y-47267219D01*
X25144612Y-47267219D02*
X25287469Y-47219600D01*
X25287469Y-47219600D02*
X25382707Y-47124361D01*
X25382707Y-47124361D02*
X25430326Y-47029123D01*
X25430326Y-47029123D02*
X25477945Y-46838647D01*
X25477945Y-46838647D02*
X25477945Y-46695790D01*
X25477945Y-46695790D02*
X25430326Y-46505314D01*
X25430326Y-46505314D02*
X25382707Y-46410076D01*
X25382707Y-46410076D02*
X25287469Y-46314838D01*
X25287469Y-46314838D02*
X25144612Y-46267219D01*
X25144612Y-46267219D02*
X25049374Y-46267219D01*
X25049374Y-46267219D02*
X24906517Y-46314838D01*
X24906517Y-46314838D02*
X24858898Y-46362457D01*
X23954136Y-47267219D02*
X24430326Y-47267219D01*
X24430326Y-47267219D02*
X24430326Y-46267219D01*
X23620802Y-47267219D02*
X23620802Y-46267219D01*
X23049374Y-47267219D02*
X23477945Y-46695790D01*
X23049374Y-46267219D02*
X23620802Y-46838647D01*
X25530326Y-49767219D02*
X25530326Y-48767219D01*
X25530326Y-48767219D02*
X25292231Y-48767219D01*
X25292231Y-48767219D02*
X25149374Y-48814838D01*
X25149374Y-48814838D02*
X25054136Y-48910076D01*
X25054136Y-48910076D02*
X25006517Y-49005314D01*
X25006517Y-49005314D02*
X24958898Y-49195790D01*
X24958898Y-49195790D02*
X24958898Y-49338647D01*
X24958898Y-49338647D02*
X25006517Y-49529123D01*
X25006517Y-49529123D02*
X25054136Y-49624361D01*
X25054136Y-49624361D02*
X25149374Y-49719600D01*
X25149374Y-49719600D02*
X25292231Y-49767219D01*
X25292231Y-49767219D02*
X25530326Y-49767219D01*
X24530326Y-49767219D02*
X24530326Y-48767219D01*
X23863660Y-48767219D02*
X23673184Y-48767219D01*
X23673184Y-48767219D02*
X23577946Y-48814838D01*
X23577946Y-48814838D02*
X23482708Y-48910076D01*
X23482708Y-48910076D02*
X23435089Y-49100552D01*
X23435089Y-49100552D02*
X23435089Y-49433885D01*
X23435089Y-49433885D02*
X23482708Y-49624361D01*
X23482708Y-49624361D02*
X23577946Y-49719600D01*
X23577946Y-49719600D02*
X23673184Y-49767219D01*
X23673184Y-49767219D02*
X23863660Y-49767219D01*
X23863660Y-49767219D02*
X23958898Y-49719600D01*
X23958898Y-49719600D02*
X24054136Y-49624361D01*
X24054136Y-49624361D02*
X24101755Y-49433885D01*
X24101755Y-49433885D02*
X24101755Y-49100552D01*
X24101755Y-49100552D02*
X24054136Y-48910076D01*
X24054136Y-48910076D02*
X23958898Y-48814838D01*
X23958898Y-48814838D02*
X23863660Y-48767219D01*
X25306517Y-51514838D02*
X25401755Y-51467219D01*
X25401755Y-51467219D02*
X25544612Y-51467219D01*
X25544612Y-51467219D02*
X25687469Y-51514838D01*
X25687469Y-51514838D02*
X25782707Y-51610076D01*
X25782707Y-51610076D02*
X25830326Y-51705314D01*
X25830326Y-51705314D02*
X25877945Y-51895790D01*
X25877945Y-51895790D02*
X25877945Y-52038647D01*
X25877945Y-52038647D02*
X25830326Y-52229123D01*
X25830326Y-52229123D02*
X25782707Y-52324361D01*
X25782707Y-52324361D02*
X25687469Y-52419600D01*
X25687469Y-52419600D02*
X25544612Y-52467219D01*
X25544612Y-52467219D02*
X25449374Y-52467219D01*
X25449374Y-52467219D02*
X25306517Y-52419600D01*
X25306517Y-52419600D02*
X25258898Y-52371980D01*
X25258898Y-52371980D02*
X25258898Y-52038647D01*
X25258898Y-52038647D02*
X25449374Y-52038647D01*
X24830326Y-52467219D02*
X24830326Y-51467219D01*
X24830326Y-51467219D02*
X24258898Y-52467219D01*
X24258898Y-52467219D02*
X24258898Y-51467219D01*
X23782707Y-52467219D02*
X23782707Y-51467219D01*
X23782707Y-51467219D02*
X23544612Y-51467219D01*
X23544612Y-51467219D02*
X23401755Y-51514838D01*
X23401755Y-51514838D02*
X23306517Y-51610076D01*
X23306517Y-51610076D02*
X23258898Y-51705314D01*
X23258898Y-51705314D02*
X23211279Y-51895790D01*
X23211279Y-51895790D02*
X23211279Y-52038647D01*
X23211279Y-52038647D02*
X23258898Y-52229123D01*
X23258898Y-52229123D02*
X23306517Y-52324361D01*
X23306517Y-52324361D02*
X23401755Y-52419600D01*
X23401755Y-52419600D02*
X23544612Y-52467219D01*
X23544612Y-52467219D02*
X23782707Y-52467219D01*
X25358898Y-44767219D02*
X25692231Y-44291028D01*
X25930326Y-44767219D02*
X25930326Y-43767219D01*
X25930326Y-43767219D02*
X25549374Y-43767219D01*
X25549374Y-43767219D02*
X25454136Y-43814838D01*
X25454136Y-43814838D02*
X25406517Y-43862457D01*
X25406517Y-43862457D02*
X25358898Y-43957695D01*
X25358898Y-43957695D02*
X25358898Y-44100552D01*
X25358898Y-44100552D02*
X25406517Y-44195790D01*
X25406517Y-44195790D02*
X25454136Y-44243409D01*
X25454136Y-44243409D02*
X25549374Y-44291028D01*
X25549374Y-44291028D02*
X25930326Y-44291028D01*
X24977945Y-44719600D02*
X24835088Y-44767219D01*
X24835088Y-44767219D02*
X24596993Y-44767219D01*
X24596993Y-44767219D02*
X24501755Y-44719600D01*
X24501755Y-44719600D02*
X24454136Y-44671980D01*
X24454136Y-44671980D02*
X24406517Y-44576742D01*
X24406517Y-44576742D02*
X24406517Y-44481504D01*
X24406517Y-44481504D02*
X24454136Y-44386266D01*
X24454136Y-44386266D02*
X24501755Y-44338647D01*
X24501755Y-44338647D02*
X24596993Y-44291028D01*
X24596993Y-44291028D02*
X24787469Y-44243409D01*
X24787469Y-44243409D02*
X24882707Y-44195790D01*
X24882707Y-44195790D02*
X24930326Y-44148171D01*
X24930326Y-44148171D02*
X24977945Y-44052933D01*
X24977945Y-44052933D02*
X24977945Y-43957695D01*
X24977945Y-43957695D02*
X24930326Y-43862457D01*
X24930326Y-43862457D02*
X24882707Y-43814838D01*
X24882707Y-43814838D02*
X24787469Y-43767219D01*
X24787469Y-43767219D02*
X24549374Y-43767219D01*
X24549374Y-43767219D02*
X24406517Y-43814838D01*
X24120802Y-43767219D02*
X23549374Y-43767219D01*
X23835088Y-44767219D02*
X23835088Y-43767219D01*
D11*
X44306955Y-50314899D02*
X44116479Y-50314899D01*
X44116479Y-50314899D02*
X44021241Y-50362518D01*
X44021241Y-50362518D02*
X43926003Y-50457756D01*
X43926003Y-50457756D02*
X43878384Y-50648232D01*
X43878384Y-50648232D02*
X43878384Y-50981565D01*
X43878384Y-50981565D02*
X43926003Y-51172041D01*
X43926003Y-51172041D02*
X44021241Y-51267280D01*
X44021241Y-51267280D02*
X44116479Y-51314899D01*
X44116479Y-51314899D02*
X44306955Y-51314899D01*
X44306955Y-51314899D02*
X44402193Y-51267280D01*
X44402193Y-51267280D02*
X44497431Y-51172041D01*
X44497431Y-51172041D02*
X44545050Y-50981565D01*
X44545050Y-50981565D02*
X44545050Y-50648232D01*
X44545050Y-50648232D02*
X44497431Y-50457756D01*
X44497431Y-50457756D02*
X44402193Y-50362518D01*
X44402193Y-50362518D02*
X44306955Y-50314899D01*
X43021241Y-50648232D02*
X43021241Y-51314899D01*
X43449812Y-50648232D02*
X43449812Y-51172041D01*
X43449812Y-51172041D02*
X43402193Y-51267280D01*
X43402193Y-51267280D02*
X43306955Y-51314899D01*
X43306955Y-51314899D02*
X43164098Y-51314899D01*
X43164098Y-51314899D02*
X43068860Y-51267280D01*
X43068860Y-51267280D02*
X43021241Y-51219660D01*
X42687907Y-50648232D02*
X42306955Y-50648232D01*
X42545050Y-50314899D02*
X42545050Y-51172041D01*
X42545050Y-51172041D02*
X42497431Y-51267280D01*
X42497431Y-51267280D02*
X42402193Y-51314899D01*
X42402193Y-51314899D02*
X42306955Y-51314899D01*
X41592669Y-51267280D02*
X41687907Y-51314899D01*
X41687907Y-51314899D02*
X41878383Y-51314899D01*
X41878383Y-51314899D02*
X41973621Y-51267280D01*
X41973621Y-51267280D02*
X42021240Y-51172041D01*
X42021240Y-51172041D02*
X42021240Y-50791089D01*
X42021240Y-50791089D02*
X41973621Y-50695851D01*
X41973621Y-50695851D02*
X41878383Y-50648232D01*
X41878383Y-50648232D02*
X41687907Y-50648232D01*
X41687907Y-50648232D02*
X41592669Y-50695851D01*
X41592669Y-50695851D02*
X41545050Y-50791089D01*
X41545050Y-50791089D02*
X41545050Y-50886327D01*
X41545050Y-50886327D02*
X42021240Y-50981565D01*
X41116478Y-51314899D02*
X41116478Y-50648232D01*
X41116478Y-50838708D02*
X41068859Y-50743470D01*
X41068859Y-50743470D02*
X41021240Y-50695851D01*
X41021240Y-50695851D02*
X40926002Y-50648232D01*
X40926002Y-50648232D02*
X40830764Y-50648232D01*
X39735525Y-51314899D02*
X39735525Y-50648232D01*
X39735525Y-50838708D02*
X39687906Y-50743470D01*
X39687906Y-50743470D02*
X39640287Y-50695851D01*
X39640287Y-50695851D02*
X39545049Y-50648232D01*
X39545049Y-50648232D02*
X39449811Y-50648232D01*
X38973620Y-51314899D02*
X39068858Y-51267280D01*
X39068858Y-51267280D02*
X39116477Y-51219660D01*
X39116477Y-51219660D02*
X39164096Y-51124422D01*
X39164096Y-51124422D02*
X39164096Y-50838708D01*
X39164096Y-50838708D02*
X39116477Y-50743470D01*
X39116477Y-50743470D02*
X39068858Y-50695851D01*
X39068858Y-50695851D02*
X38973620Y-50648232D01*
X38973620Y-50648232D02*
X38830763Y-50648232D01*
X38830763Y-50648232D02*
X38735525Y-50695851D01*
X38735525Y-50695851D02*
X38687906Y-50743470D01*
X38687906Y-50743470D02*
X38640287Y-50838708D01*
X38640287Y-50838708D02*
X38640287Y-51124422D01*
X38640287Y-51124422D02*
X38687906Y-51219660D01*
X38687906Y-51219660D02*
X38735525Y-51267280D01*
X38735525Y-51267280D02*
X38830763Y-51314899D01*
X38830763Y-51314899D02*
X38973620Y-51314899D01*
X38306953Y-50648232D02*
X38116477Y-51314899D01*
X38116477Y-51314899D02*
X37926001Y-50838708D01*
X37926001Y-50838708D02*
X37735525Y-51314899D01*
X37735525Y-51314899D02*
X37545049Y-50648232D01*
X36545048Y-50648232D02*
X36164096Y-50648232D01*
X36402191Y-51314899D02*
X36402191Y-50457756D01*
X36402191Y-50457756D02*
X36354572Y-50362518D01*
X36354572Y-50362518D02*
X36259334Y-50314899D01*
X36259334Y-50314899D02*
X36164096Y-50314899D01*
X35687905Y-51314899D02*
X35783143Y-51267280D01*
X35783143Y-51267280D02*
X35830762Y-51219660D01*
X35830762Y-51219660D02*
X35878381Y-51124422D01*
X35878381Y-51124422D02*
X35878381Y-50838708D01*
X35878381Y-50838708D02*
X35830762Y-50743470D01*
X35830762Y-50743470D02*
X35783143Y-50695851D01*
X35783143Y-50695851D02*
X35687905Y-50648232D01*
X35687905Y-50648232D02*
X35545048Y-50648232D01*
X35545048Y-50648232D02*
X35449810Y-50695851D01*
X35449810Y-50695851D02*
X35402191Y-50743470D01*
X35402191Y-50743470D02*
X35354572Y-50838708D01*
X35354572Y-50838708D02*
X35354572Y-51124422D01*
X35354572Y-51124422D02*
X35402191Y-51219660D01*
X35402191Y-51219660D02*
X35449810Y-51267280D01*
X35449810Y-51267280D02*
X35545048Y-51314899D01*
X35545048Y-51314899D02*
X35687905Y-51314899D01*
X34926000Y-51314899D02*
X34926000Y-50648232D01*
X34926000Y-50838708D02*
X34878381Y-50743470D01*
X34878381Y-50743470D02*
X34830762Y-50695851D01*
X34830762Y-50695851D02*
X34735524Y-50648232D01*
X34735524Y-50648232D02*
X34640286Y-50648232D01*
X33545047Y-51314899D02*
X33545047Y-50648232D01*
X33545047Y-50743470D02*
X33497428Y-50695851D01*
X33497428Y-50695851D02*
X33402190Y-50648232D01*
X33402190Y-50648232D02*
X33259333Y-50648232D01*
X33259333Y-50648232D02*
X33164095Y-50695851D01*
X33164095Y-50695851D02*
X33116476Y-50791089D01*
X33116476Y-50791089D02*
X33116476Y-51314899D01*
X33116476Y-50791089D02*
X33068857Y-50695851D01*
X33068857Y-50695851D02*
X32973619Y-50648232D01*
X32973619Y-50648232D02*
X32830762Y-50648232D01*
X32830762Y-50648232D02*
X32735523Y-50695851D01*
X32735523Y-50695851D02*
X32687904Y-50791089D01*
X32687904Y-50791089D02*
X32687904Y-51314899D01*
X32068857Y-51314899D02*
X32164095Y-51267280D01*
X32164095Y-51267280D02*
X32211714Y-51219660D01*
X32211714Y-51219660D02*
X32259333Y-51124422D01*
X32259333Y-51124422D02*
X32259333Y-50838708D01*
X32259333Y-50838708D02*
X32211714Y-50743470D01*
X32211714Y-50743470D02*
X32164095Y-50695851D01*
X32164095Y-50695851D02*
X32068857Y-50648232D01*
X32068857Y-50648232D02*
X31926000Y-50648232D01*
X31926000Y-50648232D02*
X31830762Y-50695851D01*
X31830762Y-50695851D02*
X31783143Y-50743470D01*
X31783143Y-50743470D02*
X31735524Y-50838708D01*
X31735524Y-50838708D02*
X31735524Y-51124422D01*
X31735524Y-51124422D02*
X31783143Y-51219660D01*
X31783143Y-51219660D02*
X31830762Y-51267280D01*
X31830762Y-51267280D02*
X31926000Y-51314899D01*
X31926000Y-51314899D02*
X32068857Y-51314899D01*
X30878381Y-50648232D02*
X30878381Y-51314899D01*
X31306952Y-50648232D02*
X31306952Y-51172041D01*
X31306952Y-51172041D02*
X31259333Y-51267280D01*
X31259333Y-51267280D02*
X31164095Y-51314899D01*
X31164095Y-51314899D02*
X31021238Y-51314899D01*
X31021238Y-51314899D02*
X30926000Y-51267280D01*
X30926000Y-51267280D02*
X30878381Y-51219660D01*
X30402190Y-50648232D02*
X30402190Y-51314899D01*
X30402190Y-50743470D02*
X30354571Y-50695851D01*
X30354571Y-50695851D02*
X30259333Y-50648232D01*
X30259333Y-50648232D02*
X30116476Y-50648232D01*
X30116476Y-50648232D02*
X30021238Y-50695851D01*
X30021238Y-50695851D02*
X29973619Y-50791089D01*
X29973619Y-50791089D02*
X29973619Y-51314899D01*
X29640285Y-50648232D02*
X29259333Y-50648232D01*
X29497428Y-50314899D02*
X29497428Y-51172041D01*
X29497428Y-51172041D02*
X29449809Y-51267280D01*
X29449809Y-51267280D02*
X29354571Y-51314899D01*
X29354571Y-51314899D02*
X29259333Y-51314899D01*
X28925999Y-51314899D02*
X28925999Y-50648232D01*
X28925999Y-50314899D02*
X28973618Y-50362518D01*
X28973618Y-50362518D02*
X28925999Y-50410137D01*
X28925999Y-50410137D02*
X28878380Y-50362518D01*
X28878380Y-50362518D02*
X28925999Y-50314899D01*
X28925999Y-50314899D02*
X28925999Y-50410137D01*
X28449809Y-50648232D02*
X28449809Y-51314899D01*
X28449809Y-50743470D02*
X28402190Y-50695851D01*
X28402190Y-50695851D02*
X28306952Y-50648232D01*
X28306952Y-50648232D02*
X28164095Y-50648232D01*
X28164095Y-50648232D02*
X28068857Y-50695851D01*
X28068857Y-50695851D02*
X28021238Y-50791089D01*
X28021238Y-50791089D02*
X28021238Y-51314899D01*
X27116476Y-50648232D02*
X27116476Y-51457756D01*
X27116476Y-51457756D02*
X27164095Y-51552994D01*
X27164095Y-51552994D02*
X27211714Y-51600613D01*
X27211714Y-51600613D02*
X27306952Y-51648232D01*
X27306952Y-51648232D02*
X27449809Y-51648232D01*
X27449809Y-51648232D02*
X27545047Y-51600613D01*
X27116476Y-51267280D02*
X27211714Y-51314899D01*
X27211714Y-51314899D02*
X27402190Y-51314899D01*
X27402190Y-51314899D02*
X27497428Y-51267280D01*
X27497428Y-51267280D02*
X27545047Y-51219660D01*
X27545047Y-51219660D02*
X27592666Y-51124422D01*
X27592666Y-51124422D02*
X27592666Y-50838708D01*
X27592666Y-50838708D02*
X27545047Y-50743470D01*
X27545047Y-50743470D02*
X27497428Y-50695851D01*
X27497428Y-50695851D02*
X27402190Y-50648232D01*
X27402190Y-50648232D02*
X27211714Y-50648232D01*
X27211714Y-50648232D02*
X27116476Y-50695851D01*
X44592669Y-51924843D02*
X44354574Y-52924843D01*
X44354574Y-52924843D02*
X44164098Y-52210557D01*
X44164098Y-52210557D02*
X43973622Y-52924843D01*
X43973622Y-52924843D02*
X43735527Y-51924843D01*
X43354574Y-52924843D02*
X43354574Y-52258176D01*
X43354574Y-51924843D02*
X43402193Y-51972462D01*
X43402193Y-51972462D02*
X43354574Y-52020081D01*
X43354574Y-52020081D02*
X43306955Y-51972462D01*
X43306955Y-51972462D02*
X43354574Y-51924843D01*
X43354574Y-51924843D02*
X43354574Y-52020081D01*
X42735527Y-52924843D02*
X42830765Y-52877224D01*
X42830765Y-52877224D02*
X42878384Y-52829604D01*
X42878384Y-52829604D02*
X42926003Y-52734366D01*
X42926003Y-52734366D02*
X42926003Y-52448652D01*
X42926003Y-52448652D02*
X42878384Y-52353414D01*
X42878384Y-52353414D02*
X42830765Y-52305795D01*
X42830765Y-52305795D02*
X42735527Y-52258176D01*
X42735527Y-52258176D02*
X42592670Y-52258176D01*
X42592670Y-52258176D02*
X42497432Y-52305795D01*
X42497432Y-52305795D02*
X42449813Y-52353414D01*
X42449813Y-52353414D02*
X42402194Y-52448652D01*
X42402194Y-52448652D02*
X42402194Y-52734366D01*
X42402194Y-52734366D02*
X42449813Y-52829604D01*
X42449813Y-52829604D02*
X42497432Y-52877224D01*
X42497432Y-52877224D02*
X42592670Y-52924843D01*
X42592670Y-52924843D02*
X42735527Y-52924843D01*
X41211717Y-52401033D02*
X40878384Y-52401033D01*
X40735527Y-52924843D02*
X41211717Y-52924843D01*
X41211717Y-52924843D02*
X41211717Y-51924843D01*
X41211717Y-51924843D02*
X40735527Y-51924843D01*
X39830765Y-51924843D02*
X40306955Y-51924843D01*
X40306955Y-51924843D02*
X40354574Y-52401033D01*
X40354574Y-52401033D02*
X40306955Y-52353414D01*
X40306955Y-52353414D02*
X40211717Y-52305795D01*
X40211717Y-52305795D02*
X39973622Y-52305795D01*
X39973622Y-52305795D02*
X39878384Y-52353414D01*
X39878384Y-52353414D02*
X39830765Y-52401033D01*
X39830765Y-52401033D02*
X39783146Y-52496271D01*
X39783146Y-52496271D02*
X39783146Y-52734366D01*
X39783146Y-52734366D02*
X39830765Y-52829604D01*
X39830765Y-52829604D02*
X39878384Y-52877224D01*
X39878384Y-52877224D02*
X39973622Y-52924843D01*
X39973622Y-52924843D02*
X40211717Y-52924843D01*
X40211717Y-52924843D02*
X40306955Y-52877224D01*
X40306955Y-52877224D02*
X40354574Y-52829604D01*
X38592669Y-52924843D02*
X38592669Y-52258176D01*
X38592669Y-52353414D02*
X38545050Y-52305795D01*
X38545050Y-52305795D02*
X38449812Y-52258176D01*
X38449812Y-52258176D02*
X38306955Y-52258176D01*
X38306955Y-52258176D02*
X38211717Y-52305795D01*
X38211717Y-52305795D02*
X38164098Y-52401033D01*
X38164098Y-52401033D02*
X38164098Y-52924843D01*
X38164098Y-52401033D02*
X38116479Y-52305795D01*
X38116479Y-52305795D02*
X38021241Y-52258176D01*
X38021241Y-52258176D02*
X37878384Y-52258176D01*
X37878384Y-52258176D02*
X37783145Y-52305795D01*
X37783145Y-52305795D02*
X37735526Y-52401033D01*
X37735526Y-52401033D02*
X37735526Y-52924843D01*
X37259336Y-52924843D02*
X37259336Y-52258176D01*
X37259336Y-51924843D02*
X37306955Y-51972462D01*
X37306955Y-51972462D02*
X37259336Y-52020081D01*
X37259336Y-52020081D02*
X37211717Y-51972462D01*
X37211717Y-51972462D02*
X37259336Y-51924843D01*
X37259336Y-51924843D02*
X37259336Y-52020081D01*
X36783146Y-52258176D02*
X36783146Y-52924843D01*
X36783146Y-52353414D02*
X36735527Y-52305795D01*
X36735527Y-52305795D02*
X36640289Y-52258176D01*
X36640289Y-52258176D02*
X36497432Y-52258176D01*
X36497432Y-52258176D02*
X36402194Y-52305795D01*
X36402194Y-52305795D02*
X36354575Y-52401033D01*
X36354575Y-52401033D02*
X36354575Y-52924843D01*
X35878384Y-52924843D02*
X35878384Y-52258176D01*
X35878384Y-51924843D02*
X35926003Y-51972462D01*
X35926003Y-51972462D02*
X35878384Y-52020081D01*
X35878384Y-52020081D02*
X35830765Y-51972462D01*
X35830765Y-51972462D02*
X35878384Y-51924843D01*
X35878384Y-51924843D02*
X35878384Y-52020081D01*
X35402194Y-52829604D02*
X35354575Y-52877224D01*
X35354575Y-52877224D02*
X35402194Y-52924843D01*
X35402194Y-52924843D02*
X35449813Y-52877224D01*
X35449813Y-52877224D02*
X35402194Y-52829604D01*
X35402194Y-52829604D02*
X35402194Y-52924843D01*
X44497431Y-54534787D02*
X44497431Y-53534787D01*
X44021241Y-53868120D02*
X44021241Y-54534787D01*
X44021241Y-53963358D02*
X43973622Y-53915739D01*
X43973622Y-53915739D02*
X43878384Y-53868120D01*
X43878384Y-53868120D02*
X43735527Y-53868120D01*
X43735527Y-53868120D02*
X43640289Y-53915739D01*
X43640289Y-53915739D02*
X43592670Y-54010977D01*
X43592670Y-54010977D02*
X43592670Y-54534787D01*
X43116479Y-53868120D02*
X43116479Y-54534787D01*
X43116479Y-53963358D02*
X43068860Y-53915739D01*
X43068860Y-53915739D02*
X42973622Y-53868120D01*
X42973622Y-53868120D02*
X42830765Y-53868120D01*
X42830765Y-53868120D02*
X42735527Y-53915739D01*
X42735527Y-53915739D02*
X42687908Y-54010977D01*
X42687908Y-54010977D02*
X42687908Y-54534787D01*
X41830765Y-54487168D02*
X41926003Y-54534787D01*
X41926003Y-54534787D02*
X42116479Y-54534787D01*
X42116479Y-54534787D02*
X42211717Y-54487168D01*
X42211717Y-54487168D02*
X42259336Y-54391929D01*
X42259336Y-54391929D02*
X42259336Y-54010977D01*
X42259336Y-54010977D02*
X42211717Y-53915739D01*
X42211717Y-53915739D02*
X42116479Y-53868120D01*
X42116479Y-53868120D02*
X41926003Y-53868120D01*
X41926003Y-53868120D02*
X41830765Y-53915739D01*
X41830765Y-53915739D02*
X41783146Y-54010977D01*
X41783146Y-54010977D02*
X41783146Y-54106215D01*
X41783146Y-54106215D02*
X42259336Y-54201453D01*
X41354574Y-54534787D02*
X41354574Y-53868120D01*
X41354574Y-54058596D02*
X41306955Y-53963358D01*
X41306955Y-53963358D02*
X41259336Y-53915739D01*
X41259336Y-53915739D02*
X41164098Y-53868120D01*
X41164098Y-53868120D02*
X41068860Y-53868120D01*
X39973621Y-54534787D02*
X39973621Y-53868120D01*
X39973621Y-54058596D02*
X39926002Y-53963358D01*
X39926002Y-53963358D02*
X39878383Y-53915739D01*
X39878383Y-53915739D02*
X39783145Y-53868120D01*
X39783145Y-53868120D02*
X39687907Y-53868120D01*
X39211716Y-54534787D02*
X39306954Y-54487168D01*
X39306954Y-54487168D02*
X39354573Y-54439548D01*
X39354573Y-54439548D02*
X39402192Y-54344310D01*
X39402192Y-54344310D02*
X39402192Y-54058596D01*
X39402192Y-54058596D02*
X39354573Y-53963358D01*
X39354573Y-53963358D02*
X39306954Y-53915739D01*
X39306954Y-53915739D02*
X39211716Y-53868120D01*
X39211716Y-53868120D02*
X39068859Y-53868120D01*
X39068859Y-53868120D02*
X38973621Y-53915739D01*
X38973621Y-53915739D02*
X38926002Y-53963358D01*
X38926002Y-53963358D02*
X38878383Y-54058596D01*
X38878383Y-54058596D02*
X38878383Y-54344310D01*
X38878383Y-54344310D02*
X38926002Y-54439548D01*
X38926002Y-54439548D02*
X38973621Y-54487168D01*
X38973621Y-54487168D02*
X39068859Y-54534787D01*
X39068859Y-54534787D02*
X39211716Y-54534787D01*
X38545049Y-53868120D02*
X38354573Y-54534787D01*
X38354573Y-54534787D02*
X38164097Y-54058596D01*
X38164097Y-54058596D02*
X37973621Y-54534787D01*
X37973621Y-54534787D02*
X37783145Y-53868120D01*
X36497430Y-54534787D02*
X36592668Y-54487168D01*
X36592668Y-54487168D02*
X36640287Y-54439548D01*
X36640287Y-54439548D02*
X36687906Y-54344310D01*
X36687906Y-54344310D02*
X36687906Y-54058596D01*
X36687906Y-54058596D02*
X36640287Y-53963358D01*
X36640287Y-53963358D02*
X36592668Y-53915739D01*
X36592668Y-53915739D02*
X36497430Y-53868120D01*
X36497430Y-53868120D02*
X36354573Y-53868120D01*
X36354573Y-53868120D02*
X36259335Y-53915739D01*
X36259335Y-53915739D02*
X36211716Y-53963358D01*
X36211716Y-53963358D02*
X36164097Y-54058596D01*
X36164097Y-54058596D02*
X36164097Y-54344310D01*
X36164097Y-54344310D02*
X36211716Y-54439548D01*
X36211716Y-54439548D02*
X36259335Y-54487168D01*
X36259335Y-54487168D02*
X36354573Y-54534787D01*
X36354573Y-54534787D02*
X36497430Y-54534787D01*
X35735525Y-53868120D02*
X35735525Y-54868120D01*
X35735525Y-53915739D02*
X35640287Y-53868120D01*
X35640287Y-53868120D02*
X35449811Y-53868120D01*
X35449811Y-53868120D02*
X35354573Y-53915739D01*
X35354573Y-53915739D02*
X35306954Y-53963358D01*
X35306954Y-53963358D02*
X35259335Y-54058596D01*
X35259335Y-54058596D02*
X35259335Y-54344310D01*
X35259335Y-54344310D02*
X35306954Y-54439548D01*
X35306954Y-54439548D02*
X35354573Y-54487168D01*
X35354573Y-54487168D02*
X35449811Y-54534787D01*
X35449811Y-54534787D02*
X35640287Y-54534787D01*
X35640287Y-54534787D02*
X35735525Y-54487168D01*
X34973620Y-53868120D02*
X34592668Y-53868120D01*
X34830763Y-53534787D02*
X34830763Y-54391929D01*
X34830763Y-54391929D02*
X34783144Y-54487168D01*
X34783144Y-54487168D02*
X34687906Y-54534787D01*
X34687906Y-54534787D02*
X34592668Y-54534787D01*
X34259334Y-54534787D02*
X34259334Y-53868120D01*
X34259334Y-53534787D02*
X34306953Y-53582406D01*
X34306953Y-53582406D02*
X34259334Y-53630025D01*
X34259334Y-53630025D02*
X34211715Y-53582406D01*
X34211715Y-53582406D02*
X34259334Y-53534787D01*
X34259334Y-53534787D02*
X34259334Y-53630025D01*
X33640287Y-54534787D02*
X33735525Y-54487168D01*
X33735525Y-54487168D02*
X33783144Y-54439548D01*
X33783144Y-54439548D02*
X33830763Y-54344310D01*
X33830763Y-54344310D02*
X33830763Y-54058596D01*
X33830763Y-54058596D02*
X33783144Y-53963358D01*
X33783144Y-53963358D02*
X33735525Y-53915739D01*
X33735525Y-53915739D02*
X33640287Y-53868120D01*
X33640287Y-53868120D02*
X33497430Y-53868120D01*
X33497430Y-53868120D02*
X33402192Y-53915739D01*
X33402192Y-53915739D02*
X33354573Y-53963358D01*
X33354573Y-53963358D02*
X33306954Y-54058596D01*
X33306954Y-54058596D02*
X33306954Y-54344310D01*
X33306954Y-54344310D02*
X33354573Y-54439548D01*
X33354573Y-54439548D02*
X33402192Y-54487168D01*
X33402192Y-54487168D02*
X33497430Y-54534787D01*
X33497430Y-54534787D02*
X33640287Y-54534787D01*
X32878382Y-53868120D02*
X32878382Y-54534787D01*
X32878382Y-53963358D02*
X32830763Y-53915739D01*
X32830763Y-53915739D02*
X32735525Y-53868120D01*
X32735525Y-53868120D02*
X32592668Y-53868120D01*
X32592668Y-53868120D02*
X32497430Y-53915739D01*
X32497430Y-53915739D02*
X32449811Y-54010977D01*
X32449811Y-54010977D02*
X32449811Y-54534787D01*
X31545049Y-54534787D02*
X31545049Y-54010977D01*
X31545049Y-54010977D02*
X31592668Y-53915739D01*
X31592668Y-53915739D02*
X31687906Y-53868120D01*
X31687906Y-53868120D02*
X31878382Y-53868120D01*
X31878382Y-53868120D02*
X31973620Y-53915739D01*
X31545049Y-54487168D02*
X31640287Y-54534787D01*
X31640287Y-54534787D02*
X31878382Y-54534787D01*
X31878382Y-54534787D02*
X31973620Y-54487168D01*
X31973620Y-54487168D02*
X32021239Y-54391929D01*
X32021239Y-54391929D02*
X32021239Y-54296691D01*
X32021239Y-54296691D02*
X31973620Y-54201453D01*
X31973620Y-54201453D02*
X31878382Y-54153834D01*
X31878382Y-54153834D02*
X31640287Y-54153834D01*
X31640287Y-54153834D02*
X31545049Y-54106215D01*
X30926001Y-54534787D02*
X31021239Y-54487168D01*
X31021239Y-54487168D02*
X31068858Y-54391929D01*
X31068858Y-54391929D02*
X31068858Y-53534787D01*
X29783143Y-53868120D02*
X29783143Y-54868120D01*
X29783143Y-53915739D02*
X29687905Y-53868120D01*
X29687905Y-53868120D02*
X29497429Y-53868120D01*
X29497429Y-53868120D02*
X29402191Y-53915739D01*
X29402191Y-53915739D02*
X29354572Y-53963358D01*
X29354572Y-53963358D02*
X29306953Y-54058596D01*
X29306953Y-54058596D02*
X29306953Y-54344310D01*
X29306953Y-54344310D02*
X29354572Y-54439548D01*
X29354572Y-54439548D02*
X29402191Y-54487168D01*
X29402191Y-54487168D02*
X29497429Y-54534787D01*
X29497429Y-54534787D02*
X29687905Y-54534787D01*
X29687905Y-54534787D02*
X29783143Y-54487168D01*
X28878381Y-54534787D02*
X28878381Y-53868120D01*
X28878381Y-53534787D02*
X28926000Y-53582406D01*
X28926000Y-53582406D02*
X28878381Y-53630025D01*
X28878381Y-53630025D02*
X28830762Y-53582406D01*
X28830762Y-53582406D02*
X28878381Y-53534787D01*
X28878381Y-53534787D02*
X28878381Y-53630025D01*
X28402191Y-53868120D02*
X28402191Y-54534787D01*
X28402191Y-53963358D02*
X28354572Y-53915739D01*
X28354572Y-53915739D02*
X28259334Y-53868120D01*
X28259334Y-53868120D02*
X28116477Y-53868120D01*
X28116477Y-53868120D02*
X28021239Y-53915739D01*
X28021239Y-53915739D02*
X27973620Y-54010977D01*
X27973620Y-54010977D02*
X27973620Y-54534787D01*
X44497431Y-56144731D02*
X44497431Y-55478064D01*
X44497431Y-55573302D02*
X44449812Y-55525683D01*
X44449812Y-55525683D02*
X44354574Y-55478064D01*
X44354574Y-55478064D02*
X44211717Y-55478064D01*
X44211717Y-55478064D02*
X44116479Y-55525683D01*
X44116479Y-55525683D02*
X44068860Y-55620921D01*
X44068860Y-55620921D02*
X44068860Y-56144731D01*
X44068860Y-55620921D02*
X44021241Y-55525683D01*
X44021241Y-55525683D02*
X43926003Y-55478064D01*
X43926003Y-55478064D02*
X43783146Y-55478064D01*
X43783146Y-55478064D02*
X43687907Y-55525683D01*
X43687907Y-55525683D02*
X43640288Y-55620921D01*
X43640288Y-55620921D02*
X43640288Y-56144731D01*
X43021241Y-56144731D02*
X43116479Y-56097112D01*
X43116479Y-56097112D02*
X43164098Y-56049492D01*
X43164098Y-56049492D02*
X43211717Y-55954254D01*
X43211717Y-55954254D02*
X43211717Y-55668540D01*
X43211717Y-55668540D02*
X43164098Y-55573302D01*
X43164098Y-55573302D02*
X43116479Y-55525683D01*
X43116479Y-55525683D02*
X43021241Y-55478064D01*
X43021241Y-55478064D02*
X42878384Y-55478064D01*
X42878384Y-55478064D02*
X42783146Y-55525683D01*
X42783146Y-55525683D02*
X42735527Y-55573302D01*
X42735527Y-55573302D02*
X42687908Y-55668540D01*
X42687908Y-55668540D02*
X42687908Y-55954254D01*
X42687908Y-55954254D02*
X42735527Y-56049492D01*
X42735527Y-56049492D02*
X42783146Y-56097112D01*
X42783146Y-56097112D02*
X42878384Y-56144731D01*
X42878384Y-56144731D02*
X43021241Y-56144731D01*
X41830765Y-55478064D02*
X41830765Y-56144731D01*
X42259336Y-55478064D02*
X42259336Y-56001873D01*
X42259336Y-56001873D02*
X42211717Y-56097112D01*
X42211717Y-56097112D02*
X42116479Y-56144731D01*
X42116479Y-56144731D02*
X41973622Y-56144731D01*
X41973622Y-56144731D02*
X41878384Y-56097112D01*
X41878384Y-56097112D02*
X41830765Y-56049492D01*
X41354574Y-55478064D02*
X41354574Y-56144731D01*
X41354574Y-55573302D02*
X41306955Y-55525683D01*
X41306955Y-55525683D02*
X41211717Y-55478064D01*
X41211717Y-55478064D02*
X41068860Y-55478064D01*
X41068860Y-55478064D02*
X40973622Y-55525683D01*
X40973622Y-55525683D02*
X40926003Y-55620921D01*
X40926003Y-55620921D02*
X40926003Y-56144731D01*
X40592669Y-55478064D02*
X40211717Y-55478064D01*
X40449812Y-55144731D02*
X40449812Y-56001873D01*
X40449812Y-56001873D02*
X40402193Y-56097112D01*
X40402193Y-56097112D02*
X40306955Y-56144731D01*
X40306955Y-56144731D02*
X40211717Y-56144731D01*
X39164097Y-56097112D02*
X39068859Y-56144731D01*
X39068859Y-56144731D02*
X38878383Y-56144731D01*
X38878383Y-56144731D02*
X38783145Y-56097112D01*
X38783145Y-56097112D02*
X38735526Y-56001873D01*
X38735526Y-56001873D02*
X38735526Y-55954254D01*
X38735526Y-55954254D02*
X38783145Y-55859016D01*
X38783145Y-55859016D02*
X38878383Y-55811397D01*
X38878383Y-55811397D02*
X39021240Y-55811397D01*
X39021240Y-55811397D02*
X39116478Y-55763778D01*
X39116478Y-55763778D02*
X39164097Y-55668540D01*
X39164097Y-55668540D02*
X39164097Y-55620921D01*
X39164097Y-55620921D02*
X39116478Y-55525683D01*
X39116478Y-55525683D02*
X39021240Y-55478064D01*
X39021240Y-55478064D02*
X38878383Y-55478064D01*
X38878383Y-55478064D02*
X38783145Y-55525683D01*
X38306954Y-55478064D02*
X38306954Y-56478064D01*
X38306954Y-55525683D02*
X38211716Y-55478064D01*
X38211716Y-55478064D02*
X38021240Y-55478064D01*
X38021240Y-55478064D02*
X37926002Y-55525683D01*
X37926002Y-55525683D02*
X37878383Y-55573302D01*
X37878383Y-55573302D02*
X37830764Y-55668540D01*
X37830764Y-55668540D02*
X37830764Y-55954254D01*
X37830764Y-55954254D02*
X37878383Y-56049492D01*
X37878383Y-56049492D02*
X37926002Y-56097112D01*
X37926002Y-56097112D02*
X38021240Y-56144731D01*
X38021240Y-56144731D02*
X38211716Y-56144731D01*
X38211716Y-56144731D02*
X38306954Y-56097112D01*
X37259335Y-56144731D02*
X37354573Y-56097112D01*
X37354573Y-56097112D02*
X37402192Y-56049492D01*
X37402192Y-56049492D02*
X37449811Y-55954254D01*
X37449811Y-55954254D02*
X37449811Y-55668540D01*
X37449811Y-55668540D02*
X37402192Y-55573302D01*
X37402192Y-55573302D02*
X37354573Y-55525683D01*
X37354573Y-55525683D02*
X37259335Y-55478064D01*
X37259335Y-55478064D02*
X37116478Y-55478064D01*
X37116478Y-55478064D02*
X37021240Y-55525683D01*
X37021240Y-55525683D02*
X36973621Y-55573302D01*
X36973621Y-55573302D02*
X36926002Y-55668540D01*
X36926002Y-55668540D02*
X36926002Y-55954254D01*
X36926002Y-55954254D02*
X36973621Y-56049492D01*
X36973621Y-56049492D02*
X37021240Y-56097112D01*
X37021240Y-56097112D02*
X37116478Y-56144731D01*
X37116478Y-56144731D02*
X37259335Y-56144731D01*
X36640287Y-55478064D02*
X36259335Y-55478064D01*
X36497430Y-55144731D02*
X36497430Y-56001873D01*
X36497430Y-56001873D02*
X36449811Y-56097112D01*
X36449811Y-56097112D02*
X36354573Y-56144731D01*
X36354573Y-56144731D02*
X36259335Y-56144731D01*
X35926001Y-56049492D02*
X35878382Y-56097112D01*
X35878382Y-56097112D02*
X35926001Y-56144731D01*
X35926001Y-56144731D02*
X35973620Y-56097112D01*
X35973620Y-56097112D02*
X35926001Y-56049492D01*
X35926001Y-56049492D02*
X35926001Y-56144731D01*
X34687906Y-56144731D02*
X34687906Y-55144731D01*
X34687906Y-55144731D02*
X34354573Y-55859016D01*
X34354573Y-55859016D02*
X34021240Y-55144731D01*
X34021240Y-55144731D02*
X34021240Y-56144731D01*
X33402192Y-56144731D02*
X33497430Y-56097112D01*
X33497430Y-56097112D02*
X33545049Y-56049492D01*
X33545049Y-56049492D02*
X33592668Y-55954254D01*
X33592668Y-55954254D02*
X33592668Y-55668540D01*
X33592668Y-55668540D02*
X33545049Y-55573302D01*
X33545049Y-55573302D02*
X33497430Y-55525683D01*
X33497430Y-55525683D02*
X33402192Y-55478064D01*
X33402192Y-55478064D02*
X33259335Y-55478064D01*
X33259335Y-55478064D02*
X33164097Y-55525683D01*
X33164097Y-55525683D02*
X33116478Y-55573302D01*
X33116478Y-55573302D02*
X33068859Y-55668540D01*
X33068859Y-55668540D02*
X33068859Y-55954254D01*
X33068859Y-55954254D02*
X33116478Y-56049492D01*
X33116478Y-56049492D02*
X33164097Y-56097112D01*
X33164097Y-56097112D02*
X33259335Y-56144731D01*
X33259335Y-56144731D02*
X33402192Y-56144731D01*
X32211716Y-55478064D02*
X32211716Y-56144731D01*
X32640287Y-55478064D02*
X32640287Y-56001873D01*
X32640287Y-56001873D02*
X32592668Y-56097112D01*
X32592668Y-56097112D02*
X32497430Y-56144731D01*
X32497430Y-56144731D02*
X32354573Y-56144731D01*
X32354573Y-56144731D02*
X32259335Y-56097112D01*
X32259335Y-56097112D02*
X32211716Y-56049492D01*
X31735525Y-55478064D02*
X31735525Y-56144731D01*
X31735525Y-55573302D02*
X31687906Y-55525683D01*
X31687906Y-55525683D02*
X31592668Y-55478064D01*
X31592668Y-55478064D02*
X31449811Y-55478064D01*
X31449811Y-55478064D02*
X31354573Y-55525683D01*
X31354573Y-55525683D02*
X31306954Y-55620921D01*
X31306954Y-55620921D02*
X31306954Y-56144731D01*
X30973620Y-55478064D02*
X30592668Y-55478064D01*
X30830763Y-55144731D02*
X30830763Y-56001873D01*
X30830763Y-56001873D02*
X30783144Y-56097112D01*
X30783144Y-56097112D02*
X30687906Y-56144731D01*
X30687906Y-56144731D02*
X30592668Y-56144731D01*
X44497431Y-57088008D02*
X44497431Y-58088008D01*
X44497431Y-57135627D02*
X44402193Y-57088008D01*
X44402193Y-57088008D02*
X44211717Y-57088008D01*
X44211717Y-57088008D02*
X44116479Y-57135627D01*
X44116479Y-57135627D02*
X44068860Y-57183246D01*
X44068860Y-57183246D02*
X44021241Y-57278484D01*
X44021241Y-57278484D02*
X44021241Y-57564198D01*
X44021241Y-57564198D02*
X44068860Y-57659436D01*
X44068860Y-57659436D02*
X44116479Y-57707056D01*
X44116479Y-57707056D02*
X44211717Y-57754675D01*
X44211717Y-57754675D02*
X44402193Y-57754675D01*
X44402193Y-57754675D02*
X44497431Y-57707056D01*
X43592669Y-57754675D02*
X43592669Y-57088008D01*
X43592669Y-56754675D02*
X43640288Y-56802294D01*
X43640288Y-56802294D02*
X43592669Y-56849913D01*
X43592669Y-56849913D02*
X43545050Y-56802294D01*
X43545050Y-56802294D02*
X43592669Y-56754675D01*
X43592669Y-56754675D02*
X43592669Y-56849913D01*
X43116479Y-57088008D02*
X43116479Y-57754675D01*
X43116479Y-57183246D02*
X43068860Y-57135627D01*
X43068860Y-57135627D02*
X42973622Y-57088008D01*
X42973622Y-57088008D02*
X42830765Y-57088008D01*
X42830765Y-57088008D02*
X42735527Y-57135627D01*
X42735527Y-57135627D02*
X42687908Y-57230865D01*
X42687908Y-57230865D02*
X42687908Y-57754675D01*
X41497431Y-57707056D02*
X41402193Y-57754675D01*
X41402193Y-57754675D02*
X41211717Y-57754675D01*
X41211717Y-57754675D02*
X41116479Y-57707056D01*
X41116479Y-57707056D02*
X41068860Y-57611817D01*
X41068860Y-57611817D02*
X41068860Y-57564198D01*
X41068860Y-57564198D02*
X41116479Y-57468960D01*
X41116479Y-57468960D02*
X41211717Y-57421341D01*
X41211717Y-57421341D02*
X41354574Y-57421341D01*
X41354574Y-57421341D02*
X41449812Y-57373722D01*
X41449812Y-57373722D02*
X41497431Y-57278484D01*
X41497431Y-57278484D02*
X41497431Y-57230865D01*
X41497431Y-57230865D02*
X41449812Y-57135627D01*
X41449812Y-57135627D02*
X41354574Y-57088008D01*
X41354574Y-57088008D02*
X41211717Y-57088008D01*
X41211717Y-57088008D02*
X41116479Y-57135627D01*
X40497431Y-57754675D02*
X40592669Y-57707056D01*
X40592669Y-57707056D02*
X40640288Y-57659436D01*
X40640288Y-57659436D02*
X40687907Y-57564198D01*
X40687907Y-57564198D02*
X40687907Y-57278484D01*
X40687907Y-57278484D02*
X40640288Y-57183246D01*
X40640288Y-57183246D02*
X40592669Y-57135627D01*
X40592669Y-57135627D02*
X40497431Y-57088008D01*
X40497431Y-57088008D02*
X40354574Y-57088008D01*
X40354574Y-57088008D02*
X40259336Y-57135627D01*
X40259336Y-57135627D02*
X40211717Y-57183246D01*
X40211717Y-57183246D02*
X40164098Y-57278484D01*
X40164098Y-57278484D02*
X40164098Y-57564198D01*
X40164098Y-57564198D02*
X40211717Y-57659436D01*
X40211717Y-57659436D02*
X40259336Y-57707056D01*
X40259336Y-57707056D02*
X40354574Y-57754675D01*
X40354574Y-57754675D02*
X40497431Y-57754675D01*
X39306955Y-57707056D02*
X39402193Y-57754675D01*
X39402193Y-57754675D02*
X39592669Y-57754675D01*
X39592669Y-57754675D02*
X39687907Y-57707056D01*
X39687907Y-57707056D02*
X39735526Y-57659436D01*
X39735526Y-57659436D02*
X39783145Y-57564198D01*
X39783145Y-57564198D02*
X39783145Y-57278484D01*
X39783145Y-57278484D02*
X39735526Y-57183246D01*
X39735526Y-57183246D02*
X39687907Y-57135627D01*
X39687907Y-57135627D02*
X39592669Y-57088008D01*
X39592669Y-57088008D02*
X39402193Y-57088008D01*
X39402193Y-57088008D02*
X39306955Y-57135627D01*
X38878383Y-57754675D02*
X38878383Y-56754675D01*
X38783145Y-57373722D02*
X38497431Y-57754675D01*
X38497431Y-57088008D02*
X38878383Y-57468960D01*
X37687907Y-57707056D02*
X37783145Y-57754675D01*
X37783145Y-57754675D02*
X37973621Y-57754675D01*
X37973621Y-57754675D02*
X38068859Y-57707056D01*
X38068859Y-57707056D02*
X38116478Y-57611817D01*
X38116478Y-57611817D02*
X38116478Y-57230865D01*
X38116478Y-57230865D02*
X38068859Y-57135627D01*
X38068859Y-57135627D02*
X37973621Y-57088008D01*
X37973621Y-57088008D02*
X37783145Y-57088008D01*
X37783145Y-57088008D02*
X37687907Y-57135627D01*
X37687907Y-57135627D02*
X37640288Y-57230865D01*
X37640288Y-57230865D02*
X37640288Y-57326103D01*
X37640288Y-57326103D02*
X38116478Y-57421341D01*
X37354573Y-57088008D02*
X36973621Y-57088008D01*
X37211716Y-56754675D02*
X37211716Y-57611817D01*
X37211716Y-57611817D02*
X37164097Y-57707056D01*
X37164097Y-57707056D02*
X37068859Y-57754675D01*
X37068859Y-57754675D02*
X36973621Y-57754675D01*
X35735525Y-57754675D02*
X35830763Y-57707056D01*
X35830763Y-57707056D02*
X35878382Y-57659436D01*
X35878382Y-57659436D02*
X35926001Y-57564198D01*
X35926001Y-57564198D02*
X35926001Y-57278484D01*
X35926001Y-57278484D02*
X35878382Y-57183246D01*
X35878382Y-57183246D02*
X35830763Y-57135627D01*
X35830763Y-57135627D02*
X35735525Y-57088008D01*
X35735525Y-57088008D02*
X35592668Y-57088008D01*
X35592668Y-57088008D02*
X35497430Y-57135627D01*
X35497430Y-57135627D02*
X35449811Y-57183246D01*
X35449811Y-57183246D02*
X35402192Y-57278484D01*
X35402192Y-57278484D02*
X35402192Y-57564198D01*
X35402192Y-57564198D02*
X35449811Y-57659436D01*
X35449811Y-57659436D02*
X35497430Y-57707056D01*
X35497430Y-57707056D02*
X35592668Y-57754675D01*
X35592668Y-57754675D02*
X35735525Y-57754675D01*
X34973620Y-57088008D02*
X34973620Y-57754675D01*
X34973620Y-57183246D02*
X34926001Y-57135627D01*
X34926001Y-57135627D02*
X34830763Y-57088008D01*
X34830763Y-57088008D02*
X34687906Y-57088008D01*
X34687906Y-57088008D02*
X34592668Y-57135627D01*
X34592668Y-57135627D02*
X34545049Y-57230865D01*
X34545049Y-57230865D02*
X34545049Y-57754675D01*
X33306953Y-57754675D02*
X33306953Y-56754675D01*
X33306953Y-57135627D02*
X33211715Y-57088008D01*
X33211715Y-57088008D02*
X33021239Y-57088008D01*
X33021239Y-57088008D02*
X32926001Y-57135627D01*
X32926001Y-57135627D02*
X32878382Y-57183246D01*
X32878382Y-57183246D02*
X32830763Y-57278484D01*
X32830763Y-57278484D02*
X32830763Y-57564198D01*
X32830763Y-57564198D02*
X32878382Y-57659436D01*
X32878382Y-57659436D02*
X32926001Y-57707056D01*
X32926001Y-57707056D02*
X33021239Y-57754675D01*
X33021239Y-57754675D02*
X33211715Y-57754675D01*
X33211715Y-57754675D02*
X33306953Y-57707056D01*
X31973620Y-57754675D02*
X31973620Y-57230865D01*
X31973620Y-57230865D02*
X32021239Y-57135627D01*
X32021239Y-57135627D02*
X32116477Y-57088008D01*
X32116477Y-57088008D02*
X32306953Y-57088008D01*
X32306953Y-57088008D02*
X32402191Y-57135627D01*
X31973620Y-57707056D02*
X32068858Y-57754675D01*
X32068858Y-57754675D02*
X32306953Y-57754675D01*
X32306953Y-57754675D02*
X32402191Y-57707056D01*
X32402191Y-57707056D02*
X32449810Y-57611817D01*
X32449810Y-57611817D02*
X32449810Y-57516579D01*
X32449810Y-57516579D02*
X32402191Y-57421341D01*
X32402191Y-57421341D02*
X32306953Y-57373722D01*
X32306953Y-57373722D02*
X32068858Y-57373722D01*
X32068858Y-57373722D02*
X31973620Y-57326103D01*
X31068858Y-57707056D02*
X31164096Y-57754675D01*
X31164096Y-57754675D02*
X31354572Y-57754675D01*
X31354572Y-57754675D02*
X31449810Y-57707056D01*
X31449810Y-57707056D02*
X31497429Y-57659436D01*
X31497429Y-57659436D02*
X31545048Y-57564198D01*
X31545048Y-57564198D02*
X31545048Y-57278484D01*
X31545048Y-57278484D02*
X31497429Y-57183246D01*
X31497429Y-57183246D02*
X31449810Y-57135627D01*
X31449810Y-57135627D02*
X31354572Y-57088008D01*
X31354572Y-57088008D02*
X31164096Y-57088008D01*
X31164096Y-57088008D02*
X31068858Y-57135627D01*
X30640286Y-57754675D02*
X30640286Y-56754675D01*
X30545048Y-57373722D02*
X30259334Y-57754675D01*
X30259334Y-57088008D02*
X30640286Y-57468960D01*
X29116476Y-57707056D02*
X29021238Y-57754675D01*
X29021238Y-57754675D02*
X28830762Y-57754675D01*
X28830762Y-57754675D02*
X28735524Y-57707056D01*
X28735524Y-57707056D02*
X28687905Y-57611817D01*
X28687905Y-57611817D02*
X28687905Y-57564198D01*
X28687905Y-57564198D02*
X28735524Y-57468960D01*
X28735524Y-57468960D02*
X28830762Y-57421341D01*
X28830762Y-57421341D02*
X28973619Y-57421341D01*
X28973619Y-57421341D02*
X29068857Y-57373722D01*
X29068857Y-57373722D02*
X29116476Y-57278484D01*
X29116476Y-57278484D02*
X29116476Y-57230865D01*
X29116476Y-57230865D02*
X29068857Y-57135627D01*
X29068857Y-57135627D02*
X28973619Y-57088008D01*
X28973619Y-57088008D02*
X28830762Y-57088008D01*
X28830762Y-57088008D02*
X28735524Y-57135627D01*
X28259333Y-57754675D02*
X28259333Y-57088008D01*
X28259333Y-56754675D02*
X28306952Y-56802294D01*
X28306952Y-56802294D02*
X28259333Y-56849913D01*
X28259333Y-56849913D02*
X28211714Y-56802294D01*
X28211714Y-56802294D02*
X28259333Y-56754675D01*
X28259333Y-56754675D02*
X28259333Y-56849913D01*
X27354572Y-57754675D02*
X27354572Y-56754675D01*
X27354572Y-57707056D02*
X27449810Y-57754675D01*
X27449810Y-57754675D02*
X27640286Y-57754675D01*
X27640286Y-57754675D02*
X27735524Y-57707056D01*
X27735524Y-57707056D02*
X27783143Y-57659436D01*
X27783143Y-57659436D02*
X27830762Y-57564198D01*
X27830762Y-57564198D02*
X27830762Y-57278484D01*
X27830762Y-57278484D02*
X27783143Y-57183246D01*
X27783143Y-57183246D02*
X27735524Y-57135627D01*
X27735524Y-57135627D02*
X27640286Y-57088008D01*
X27640286Y-57088008D02*
X27449810Y-57088008D01*
X27449810Y-57088008D02*
X27354572Y-57135627D01*
X26497429Y-57707056D02*
X26592667Y-57754675D01*
X26592667Y-57754675D02*
X26783143Y-57754675D01*
X26783143Y-57754675D02*
X26878381Y-57707056D01*
X26878381Y-57707056D02*
X26926000Y-57611817D01*
X26926000Y-57611817D02*
X26926000Y-57230865D01*
X26926000Y-57230865D02*
X26878381Y-57135627D01*
X26878381Y-57135627D02*
X26783143Y-57088008D01*
X26783143Y-57088008D02*
X26592667Y-57088008D01*
X26592667Y-57088008D02*
X26497429Y-57135627D01*
X26497429Y-57135627D02*
X26449810Y-57230865D01*
X26449810Y-57230865D02*
X26449810Y-57326103D01*
X26449810Y-57326103D02*
X26926000Y-57421341D01*
X44354574Y-59364619D02*
X44449812Y-59317000D01*
X44449812Y-59317000D02*
X44497431Y-59269380D01*
X44497431Y-59269380D02*
X44545050Y-59174142D01*
X44545050Y-59174142D02*
X44545050Y-58888428D01*
X44545050Y-58888428D02*
X44497431Y-58793190D01*
X44497431Y-58793190D02*
X44449812Y-58745571D01*
X44449812Y-58745571D02*
X44354574Y-58697952D01*
X44354574Y-58697952D02*
X44211717Y-58697952D01*
X44211717Y-58697952D02*
X44116479Y-58745571D01*
X44116479Y-58745571D02*
X44068860Y-58793190D01*
X44068860Y-58793190D02*
X44021241Y-58888428D01*
X44021241Y-58888428D02*
X44021241Y-59174142D01*
X44021241Y-59174142D02*
X44068860Y-59269380D01*
X44068860Y-59269380D02*
X44116479Y-59317000D01*
X44116479Y-59317000D02*
X44211717Y-59364619D01*
X44211717Y-59364619D02*
X44354574Y-59364619D01*
X43735526Y-58697952D02*
X43354574Y-58697952D01*
X43592669Y-59364619D02*
X43592669Y-58507476D01*
X43592669Y-58507476D02*
X43545050Y-58412238D01*
X43545050Y-58412238D02*
X43449812Y-58364619D01*
X43449812Y-58364619D02*
X43354574Y-58364619D01*
X42259335Y-59364619D02*
X42259335Y-58364619D01*
X42259335Y-58364619D02*
X41878383Y-58364619D01*
X41878383Y-58364619D02*
X41783145Y-58412238D01*
X41783145Y-58412238D02*
X41735526Y-58459857D01*
X41735526Y-58459857D02*
X41687907Y-58555095D01*
X41687907Y-58555095D02*
X41687907Y-58697952D01*
X41687907Y-58697952D02*
X41735526Y-58793190D01*
X41735526Y-58793190D02*
X41783145Y-58840809D01*
X41783145Y-58840809D02*
X41878383Y-58888428D01*
X41878383Y-58888428D02*
X42259335Y-58888428D01*
X40687907Y-59269380D02*
X40735526Y-59317000D01*
X40735526Y-59317000D02*
X40878383Y-59364619D01*
X40878383Y-59364619D02*
X40973621Y-59364619D01*
X40973621Y-59364619D02*
X41116478Y-59317000D01*
X41116478Y-59317000D02*
X41211716Y-59221761D01*
X41211716Y-59221761D02*
X41259335Y-59126523D01*
X41259335Y-59126523D02*
X41306954Y-58936047D01*
X41306954Y-58936047D02*
X41306954Y-58793190D01*
X41306954Y-58793190D02*
X41259335Y-58602714D01*
X41259335Y-58602714D02*
X41211716Y-58507476D01*
X41211716Y-58507476D02*
X41116478Y-58412238D01*
X41116478Y-58412238D02*
X40973621Y-58364619D01*
X40973621Y-58364619D02*
X40878383Y-58364619D01*
X40878383Y-58364619D02*
X40735526Y-58412238D01*
X40735526Y-58412238D02*
X40687907Y-58459857D01*
X39926002Y-58840809D02*
X39783145Y-58888428D01*
X39783145Y-58888428D02*
X39735526Y-58936047D01*
X39735526Y-58936047D02*
X39687907Y-59031285D01*
X39687907Y-59031285D02*
X39687907Y-59174142D01*
X39687907Y-59174142D02*
X39735526Y-59269380D01*
X39735526Y-59269380D02*
X39783145Y-59317000D01*
X39783145Y-59317000D02*
X39878383Y-59364619D01*
X39878383Y-59364619D02*
X40259335Y-59364619D01*
X40259335Y-59364619D02*
X40259335Y-58364619D01*
X40259335Y-58364619D02*
X39926002Y-58364619D01*
X39926002Y-58364619D02*
X39830764Y-58412238D01*
X39830764Y-58412238D02*
X39783145Y-58459857D01*
X39783145Y-58459857D02*
X39735526Y-58555095D01*
X39735526Y-58555095D02*
X39735526Y-58650333D01*
X39735526Y-58650333D02*
X39783145Y-58745571D01*
X39783145Y-58745571D02*
X39830764Y-58793190D01*
X39830764Y-58793190D02*
X39926002Y-58840809D01*
X39926002Y-58840809D02*
X40259335Y-58840809D01*
X39259335Y-59269380D02*
X39211716Y-59317000D01*
X39211716Y-59317000D02*
X39259335Y-59364619D01*
X39259335Y-59364619D02*
X39306954Y-59317000D01*
X39306954Y-59317000D02*
X39259335Y-59269380D01*
X39259335Y-59269380D02*
X39259335Y-59364619D01*
D12*
X29240000Y-16740000D02*
X51510000Y-16740000D01*
X51510000Y-50060000D01*
X29240000Y-50060000D01*
X29240000Y-16740000D01*
X44605639Y-70292419D02*
X44415163Y-70292419D01*
X44415163Y-70292419D02*
X44319925Y-70340038D01*
X44319925Y-70340038D02*
X44224687Y-70435276D01*
X44224687Y-70435276D02*
X44177068Y-70625752D01*
X44177068Y-70625752D02*
X44177068Y-70959085D01*
X44177068Y-70959085D02*
X44224687Y-71149561D01*
X44224687Y-71149561D02*
X44319925Y-71244800D01*
X44319925Y-71244800D02*
X44415163Y-71292419D01*
X44415163Y-71292419D02*
X44605639Y-71292419D01*
X44605639Y-71292419D02*
X44700877Y-71244800D01*
X44700877Y-71244800D02*
X44796115Y-71149561D01*
X44796115Y-71149561D02*
X44843734Y-70959085D01*
X44843734Y-70959085D02*
X44843734Y-70625752D01*
X44843734Y-70625752D02*
X44796115Y-70435276D01*
X44796115Y-70435276D02*
X44700877Y-70340038D01*
X44700877Y-70340038D02*
X44605639Y-70292419D01*
X43272306Y-71292419D02*
X43748496Y-71292419D01*
X43748496Y-71292419D02*
X43748496Y-70292419D01*
X42605639Y-70768609D02*
X42462782Y-70816228D01*
X42462782Y-70816228D02*
X42415163Y-70863847D01*
X42415163Y-70863847D02*
X42367544Y-70959085D01*
X42367544Y-70959085D02*
X42367544Y-71101942D01*
X42367544Y-71101942D02*
X42415163Y-71197180D01*
X42415163Y-71197180D02*
X42462782Y-71244800D01*
X42462782Y-71244800D02*
X42558020Y-71292419D01*
X42558020Y-71292419D02*
X42938972Y-71292419D01*
X42938972Y-71292419D02*
X42938972Y-70292419D01*
X42938972Y-70292419D02*
X42605639Y-70292419D01*
X42605639Y-70292419D02*
X42510401Y-70340038D01*
X42510401Y-70340038D02*
X42462782Y-70387657D01*
X42462782Y-70387657D02*
X42415163Y-70482895D01*
X42415163Y-70482895D02*
X42415163Y-70578133D01*
X42415163Y-70578133D02*
X42462782Y-70673371D01*
X42462782Y-70673371D02*
X42510401Y-70720990D01*
X42510401Y-70720990D02*
X42605639Y-70768609D01*
X42605639Y-70768609D02*
X42938972Y-70768609D01*
X41177067Y-70911466D02*
X40415163Y-70911466D01*
X39177067Y-71292419D02*
X39177067Y-70292419D01*
X39177067Y-70292419D02*
X38796115Y-70292419D01*
X38796115Y-70292419D02*
X38700877Y-70340038D01*
X38700877Y-70340038D02*
X38653258Y-70387657D01*
X38653258Y-70387657D02*
X38605639Y-70482895D01*
X38605639Y-70482895D02*
X38605639Y-70625752D01*
X38605639Y-70625752D02*
X38653258Y-70720990D01*
X38653258Y-70720990D02*
X38700877Y-70768609D01*
X38700877Y-70768609D02*
X38796115Y-70816228D01*
X38796115Y-70816228D02*
X39177067Y-70816228D01*
X37605639Y-71197180D02*
X37653258Y-71244800D01*
X37653258Y-71244800D02*
X37796115Y-71292419D01*
X37796115Y-71292419D02*
X37891353Y-71292419D01*
X37891353Y-71292419D02*
X38034210Y-71244800D01*
X38034210Y-71244800D02*
X38129448Y-71149561D01*
X38129448Y-71149561D02*
X38177067Y-71054323D01*
X38177067Y-71054323D02*
X38224686Y-70863847D01*
X38224686Y-70863847D02*
X38224686Y-70720990D01*
X38224686Y-70720990D02*
X38177067Y-70530514D01*
X38177067Y-70530514D02*
X38129448Y-70435276D01*
X38129448Y-70435276D02*
X38034210Y-70340038D01*
X38034210Y-70340038D02*
X37891353Y-70292419D01*
X37891353Y-70292419D02*
X37796115Y-70292419D01*
X37796115Y-70292419D02*
X37653258Y-70340038D01*
X37653258Y-70340038D02*
X37605639Y-70387657D01*
X36843734Y-70768609D02*
X36700877Y-70816228D01*
X36700877Y-70816228D02*
X36653258Y-70863847D01*
X36653258Y-70863847D02*
X36605639Y-70959085D01*
X36605639Y-70959085D02*
X36605639Y-71101942D01*
X36605639Y-71101942D02*
X36653258Y-71197180D01*
X36653258Y-71197180D02*
X36700877Y-71244800D01*
X36700877Y-71244800D02*
X36796115Y-71292419D01*
X36796115Y-71292419D02*
X37177067Y-71292419D01*
X37177067Y-71292419D02*
X37177067Y-70292419D01*
X37177067Y-70292419D02*
X36843734Y-70292419D01*
X36843734Y-70292419D02*
X36748496Y-70340038D01*
X36748496Y-70340038D02*
X36700877Y-70387657D01*
X36700877Y-70387657D02*
X36653258Y-70482895D01*
X36653258Y-70482895D02*
X36653258Y-70578133D01*
X36653258Y-70578133D02*
X36700877Y-70673371D01*
X36700877Y-70673371D02*
X36748496Y-70720990D01*
X36748496Y-70720990D02*
X36843734Y-70768609D01*
X36843734Y-70768609D02*
X37177067Y-70768609D01*
X35415162Y-70911466D02*
X34653258Y-70911466D01*
X44796115Y-72902363D02*
X44796115Y-71902363D01*
X44796115Y-71902363D02*
X44462782Y-72616648D01*
X44462782Y-72616648D02*
X44129449Y-71902363D01*
X44129449Y-71902363D02*
X44129449Y-72902363D01*
X43510401Y-72902363D02*
X43605639Y-72854744D01*
X43605639Y-72854744D02*
X43653258Y-72807124D01*
X43653258Y-72807124D02*
X43700877Y-72711886D01*
X43700877Y-72711886D02*
X43700877Y-72426172D01*
X43700877Y-72426172D02*
X43653258Y-72330934D01*
X43653258Y-72330934D02*
X43605639Y-72283315D01*
X43605639Y-72283315D02*
X43510401Y-72235696D01*
X43510401Y-72235696D02*
X43367544Y-72235696D01*
X43367544Y-72235696D02*
X43272306Y-72283315D01*
X43272306Y-72283315D02*
X43224687Y-72330934D01*
X43224687Y-72330934D02*
X43177068Y-72426172D01*
X43177068Y-72426172D02*
X43177068Y-72711886D01*
X43177068Y-72711886D02*
X43224687Y-72807124D01*
X43224687Y-72807124D02*
X43272306Y-72854744D01*
X43272306Y-72854744D02*
X43367544Y-72902363D01*
X43367544Y-72902363D02*
X43510401Y-72902363D01*
X42605639Y-72902363D02*
X42700877Y-72854744D01*
X42700877Y-72854744D02*
X42748496Y-72807124D01*
X42748496Y-72807124D02*
X42796115Y-72711886D01*
X42796115Y-72711886D02*
X42796115Y-72426172D01*
X42796115Y-72426172D02*
X42748496Y-72330934D01*
X42748496Y-72330934D02*
X42700877Y-72283315D01*
X42700877Y-72283315D02*
X42605639Y-72235696D01*
X42605639Y-72235696D02*
X42462782Y-72235696D01*
X42462782Y-72235696D02*
X42367544Y-72283315D01*
X42367544Y-72283315D02*
X42319925Y-72330934D01*
X42319925Y-72330934D02*
X42272306Y-72426172D01*
X42272306Y-72426172D02*
X42272306Y-72711886D01*
X42272306Y-72711886D02*
X42319925Y-72807124D01*
X42319925Y-72807124D02*
X42367544Y-72854744D01*
X42367544Y-72854744D02*
X42462782Y-72902363D01*
X42462782Y-72902363D02*
X42605639Y-72902363D01*
X41843734Y-72902363D02*
X41843734Y-72235696D01*
X41843734Y-72426172D02*
X41796115Y-72330934D01*
X41796115Y-72330934D02*
X41748496Y-72283315D01*
X41748496Y-72283315D02*
X41653258Y-72235696D01*
X41653258Y-72235696D02*
X41558020Y-72235696D01*
X40843734Y-72854744D02*
X40938972Y-72902363D01*
X40938972Y-72902363D02*
X41129448Y-72902363D01*
X41129448Y-72902363D02*
X41224686Y-72854744D01*
X41224686Y-72854744D02*
X41272305Y-72759505D01*
X41272305Y-72759505D02*
X41272305Y-72378553D01*
X41272305Y-72378553D02*
X41224686Y-72283315D01*
X41224686Y-72283315D02*
X41129448Y-72235696D01*
X41129448Y-72235696D02*
X40938972Y-72235696D01*
X40938972Y-72235696D02*
X40843734Y-72283315D01*
X40843734Y-72283315D02*
X40796115Y-72378553D01*
X40796115Y-72378553D02*
X40796115Y-72473791D01*
X40796115Y-72473791D02*
X41272305Y-72569029D01*
X39938972Y-72902363D02*
X39938972Y-71902363D01*
X39938972Y-72854744D02*
X40034210Y-72902363D01*
X40034210Y-72902363D02*
X40224686Y-72902363D01*
X40224686Y-72902363D02*
X40319924Y-72854744D01*
X40319924Y-72854744D02*
X40367543Y-72807124D01*
X40367543Y-72807124D02*
X40415162Y-72711886D01*
X40415162Y-72711886D02*
X40415162Y-72426172D01*
X40415162Y-72426172D02*
X40367543Y-72330934D01*
X40367543Y-72330934D02*
X40319924Y-72283315D01*
X40319924Y-72283315D02*
X40224686Y-72235696D01*
X40224686Y-72235696D02*
X40034210Y-72235696D01*
X40034210Y-72235696D02*
X39938972Y-72283315D01*
X38796114Y-72235696D02*
X38558019Y-72902363D01*
X38558019Y-72902363D02*
X38319924Y-72235696D01*
X37510400Y-72902363D02*
X37510400Y-72378553D01*
X37510400Y-72378553D02*
X37558019Y-72283315D01*
X37558019Y-72283315D02*
X37653257Y-72235696D01*
X37653257Y-72235696D02*
X37843733Y-72235696D01*
X37843733Y-72235696D02*
X37938971Y-72283315D01*
X37510400Y-72854744D02*
X37605638Y-72902363D01*
X37605638Y-72902363D02*
X37843733Y-72902363D01*
X37843733Y-72902363D02*
X37938971Y-72854744D01*
X37938971Y-72854744D02*
X37986590Y-72759505D01*
X37986590Y-72759505D02*
X37986590Y-72664267D01*
X37986590Y-72664267D02*
X37938971Y-72569029D01*
X37938971Y-72569029D02*
X37843733Y-72521410D01*
X37843733Y-72521410D02*
X37605638Y-72521410D01*
X37605638Y-72521410D02*
X37510400Y-72473791D01*
X37034209Y-72902363D02*
X37034209Y-72235696D01*
X37034209Y-72426172D02*
X36986590Y-72330934D01*
X36986590Y-72330934D02*
X36938971Y-72283315D01*
X36938971Y-72283315D02*
X36843733Y-72235696D01*
X36843733Y-72235696D02*
X36748495Y-72235696D01*
X36415161Y-72902363D02*
X36415161Y-72235696D01*
X36415161Y-71902363D02*
X36462780Y-71949982D01*
X36462780Y-71949982D02*
X36415161Y-71997601D01*
X36415161Y-71997601D02*
X36367542Y-71949982D01*
X36367542Y-71949982D02*
X36415161Y-71902363D01*
X36415161Y-71902363D02*
X36415161Y-71997601D01*
X35510400Y-72902363D02*
X35510400Y-72378553D01*
X35510400Y-72378553D02*
X35558019Y-72283315D01*
X35558019Y-72283315D02*
X35653257Y-72235696D01*
X35653257Y-72235696D02*
X35843733Y-72235696D01*
X35843733Y-72235696D02*
X35938971Y-72283315D01*
X35510400Y-72854744D02*
X35605638Y-72902363D01*
X35605638Y-72902363D02*
X35843733Y-72902363D01*
X35843733Y-72902363D02*
X35938971Y-72854744D01*
X35938971Y-72854744D02*
X35986590Y-72759505D01*
X35986590Y-72759505D02*
X35986590Y-72664267D01*
X35986590Y-72664267D02*
X35938971Y-72569029D01*
X35938971Y-72569029D02*
X35843733Y-72521410D01*
X35843733Y-72521410D02*
X35605638Y-72521410D01*
X35605638Y-72521410D02*
X35510400Y-72473791D01*
X35034209Y-72235696D02*
X35034209Y-72902363D01*
X35034209Y-72330934D02*
X34986590Y-72283315D01*
X34986590Y-72283315D02*
X34891352Y-72235696D01*
X34891352Y-72235696D02*
X34748495Y-72235696D01*
X34748495Y-72235696D02*
X34653257Y-72283315D01*
X34653257Y-72283315D02*
X34605638Y-72378553D01*
X34605638Y-72378553D02*
X34605638Y-72902363D01*
X34272304Y-72235696D02*
X33891352Y-72235696D01*
X34129447Y-71902363D02*
X34129447Y-72759505D01*
X34129447Y-72759505D02*
X34081828Y-72854744D01*
X34081828Y-72854744D02*
X33986590Y-72902363D01*
X33986590Y-72902363D02*
X33891352Y-72902363D01*
X44938972Y-73512307D02*
X44605639Y-74512307D01*
X44605639Y-74512307D02*
X44272306Y-73512307D01*
X42653258Y-74512307D02*
X43224686Y-74512307D01*
X42938972Y-74512307D02*
X42938972Y-73512307D01*
X42938972Y-73512307D02*
X43034210Y-73655164D01*
X43034210Y-73655164D02*
X43129448Y-73750402D01*
X43129448Y-73750402D02*
X43224686Y-73798021D01*
X42224686Y-74417068D02*
X42177067Y-74464688D01*
X42177067Y-74464688D02*
X42224686Y-74512307D01*
X42224686Y-74512307D02*
X42272305Y-74464688D01*
X42272305Y-74464688D02*
X42224686Y-74417068D01*
X42224686Y-74417068D02*
X42224686Y-74512307D01*
X41558020Y-73512307D02*
X41462782Y-73512307D01*
X41462782Y-73512307D02*
X41367544Y-73559926D01*
X41367544Y-73559926D02*
X41319925Y-73607545D01*
X41319925Y-73607545D02*
X41272306Y-73702783D01*
X41272306Y-73702783D02*
X41224687Y-73893259D01*
X41224687Y-73893259D02*
X41224687Y-74131354D01*
X41224687Y-74131354D02*
X41272306Y-74321830D01*
X41272306Y-74321830D02*
X41319925Y-74417068D01*
X41319925Y-74417068D02*
X41367544Y-74464688D01*
X41367544Y-74464688D02*
X41462782Y-74512307D01*
X41462782Y-74512307D02*
X41558020Y-74512307D01*
X41558020Y-74512307D02*
X41653258Y-74464688D01*
X41653258Y-74464688D02*
X41700877Y-74417068D01*
X41700877Y-74417068D02*
X41748496Y-74321830D01*
X41748496Y-74321830D02*
X41796115Y-74131354D01*
X41796115Y-74131354D02*
X41796115Y-73893259D01*
X41796115Y-73893259D02*
X41748496Y-73702783D01*
X41748496Y-73702783D02*
X41700877Y-73607545D01*
X41700877Y-73607545D02*
X41653258Y-73559926D01*
X41653258Y-73559926D02*
X41558020Y-73512307D01*
X44796115Y-76122251D02*
X44796115Y-75122251D01*
X44462782Y-75455584D02*
X44081830Y-75455584D01*
X44319925Y-76122251D02*
X44319925Y-75265108D01*
X44319925Y-75265108D02*
X44272306Y-75169870D01*
X44272306Y-75169870D02*
X44177068Y-75122251D01*
X44177068Y-75122251D02*
X44081830Y-75122251D01*
X43129448Y-75455584D02*
X42748496Y-75455584D01*
X42986591Y-76122251D02*
X42986591Y-75265108D01*
X42986591Y-75265108D02*
X42938972Y-75169870D01*
X42938972Y-75169870D02*
X42843734Y-75122251D01*
X42843734Y-75122251D02*
X42748496Y-75122251D01*
X42272305Y-76122251D02*
X42367543Y-76074632D01*
X42367543Y-76074632D02*
X42415162Y-76027012D01*
X42415162Y-76027012D02*
X42462781Y-75931774D01*
X42462781Y-75931774D02*
X42462781Y-75646060D01*
X42462781Y-75646060D02*
X42415162Y-75550822D01*
X42415162Y-75550822D02*
X42367543Y-75503203D01*
X42367543Y-75503203D02*
X42272305Y-75455584D01*
X42272305Y-75455584D02*
X42129448Y-75455584D01*
X42129448Y-75455584D02*
X42034210Y-75503203D01*
X42034210Y-75503203D02*
X41986591Y-75550822D01*
X41986591Y-75550822D02*
X41938972Y-75646060D01*
X41938972Y-75646060D02*
X41938972Y-75931774D01*
X41938972Y-75931774D02*
X41986591Y-76027012D01*
X41986591Y-76027012D02*
X42034210Y-76074632D01*
X42034210Y-76074632D02*
X42129448Y-76122251D01*
X42129448Y-76122251D02*
X42272305Y-76122251D01*
X41081829Y-75455584D02*
X41081829Y-76122251D01*
X41510400Y-75455584D02*
X41510400Y-75979393D01*
X41510400Y-75979393D02*
X41462781Y-76074632D01*
X41462781Y-76074632D02*
X41367543Y-76122251D01*
X41367543Y-76122251D02*
X41224686Y-76122251D01*
X41224686Y-76122251D02*
X41129448Y-76074632D01*
X41129448Y-76074632D02*
X41081829Y-76027012D01*
X40605638Y-75455584D02*
X40605638Y-76122251D01*
X40605638Y-75550822D02*
X40558019Y-75503203D01*
X40558019Y-75503203D02*
X40462781Y-75455584D01*
X40462781Y-75455584D02*
X40319924Y-75455584D01*
X40319924Y-75455584D02*
X40224686Y-75503203D01*
X40224686Y-75503203D02*
X40177067Y-75598441D01*
X40177067Y-75598441D02*
X40177067Y-76122251D01*
X39272305Y-76122251D02*
X39272305Y-75122251D01*
X39272305Y-76074632D02*
X39367543Y-76122251D01*
X39367543Y-76122251D02*
X39558019Y-76122251D01*
X39558019Y-76122251D02*
X39653257Y-76074632D01*
X39653257Y-76074632D02*
X39700876Y-76027012D01*
X39700876Y-76027012D02*
X39748495Y-75931774D01*
X39748495Y-75931774D02*
X39748495Y-75646060D01*
X39748495Y-75646060D02*
X39700876Y-75550822D01*
X39700876Y-75550822D02*
X39653257Y-75503203D01*
X39653257Y-75503203D02*
X39558019Y-75455584D01*
X39558019Y-75455584D02*
X39367543Y-75455584D01*
X39367543Y-75455584D02*
X39272305Y-75503203D01*
X38748495Y-76074632D02*
X38748495Y-76122251D01*
X38748495Y-76122251D02*
X38796114Y-76217489D01*
X38796114Y-76217489D02*
X38843733Y-76265108D01*
X37129448Y-76074632D02*
X37224686Y-76122251D01*
X37224686Y-76122251D02*
X37415162Y-76122251D01*
X37415162Y-76122251D02*
X37510400Y-76074632D01*
X37510400Y-76074632D02*
X37558019Y-76027012D01*
X37558019Y-76027012D02*
X37605638Y-75931774D01*
X37605638Y-75931774D02*
X37605638Y-75646060D01*
X37605638Y-75646060D02*
X37558019Y-75550822D01*
X37558019Y-75550822D02*
X37510400Y-75503203D01*
X37510400Y-75503203D02*
X37415162Y-75455584D01*
X37415162Y-75455584D02*
X37224686Y-75455584D01*
X37224686Y-75455584D02*
X37129448Y-75503203D01*
X36558019Y-76122251D02*
X36653257Y-76074632D01*
X36653257Y-76074632D02*
X36700876Y-76027012D01*
X36700876Y-76027012D02*
X36748495Y-75931774D01*
X36748495Y-75931774D02*
X36748495Y-75646060D01*
X36748495Y-75646060D02*
X36700876Y-75550822D01*
X36700876Y-75550822D02*
X36653257Y-75503203D01*
X36653257Y-75503203D02*
X36558019Y-75455584D01*
X36558019Y-75455584D02*
X36415162Y-75455584D01*
X36415162Y-75455584D02*
X36319924Y-75503203D01*
X36319924Y-75503203D02*
X36272305Y-75550822D01*
X36272305Y-75550822D02*
X36224686Y-75646060D01*
X36224686Y-75646060D02*
X36224686Y-75931774D01*
X36224686Y-75931774D02*
X36272305Y-76027012D01*
X36272305Y-76027012D02*
X36319924Y-76074632D01*
X36319924Y-76074632D02*
X36415162Y-76122251D01*
X36415162Y-76122251D02*
X36558019Y-76122251D01*
X35796114Y-75455584D02*
X35796114Y-76122251D01*
X35796114Y-75550822D02*
X35748495Y-75503203D01*
X35748495Y-75503203D02*
X35653257Y-75455584D01*
X35653257Y-75455584D02*
X35510400Y-75455584D01*
X35510400Y-75455584D02*
X35415162Y-75503203D01*
X35415162Y-75503203D02*
X35367543Y-75598441D01*
X35367543Y-75598441D02*
X35367543Y-76122251D01*
X35034209Y-75455584D02*
X34653257Y-75455584D01*
X34891352Y-75122251D02*
X34891352Y-75979393D01*
X34891352Y-75979393D02*
X34843733Y-76074632D01*
X34843733Y-76074632D02*
X34748495Y-76122251D01*
X34748495Y-76122251D02*
X34653257Y-76122251D01*
X33891352Y-76122251D02*
X33891352Y-75598441D01*
X33891352Y-75598441D02*
X33938971Y-75503203D01*
X33938971Y-75503203D02*
X34034209Y-75455584D01*
X34034209Y-75455584D02*
X34224685Y-75455584D01*
X34224685Y-75455584D02*
X34319923Y-75503203D01*
X33891352Y-76074632D02*
X33986590Y-76122251D01*
X33986590Y-76122251D02*
X34224685Y-76122251D01*
X34224685Y-76122251D02*
X34319923Y-76074632D01*
X34319923Y-76074632D02*
X34367542Y-75979393D01*
X34367542Y-75979393D02*
X34367542Y-75884155D01*
X34367542Y-75884155D02*
X34319923Y-75788917D01*
X34319923Y-75788917D02*
X34224685Y-75741298D01*
X34224685Y-75741298D02*
X33986590Y-75741298D01*
X33986590Y-75741298D02*
X33891352Y-75693679D01*
X32986590Y-76074632D02*
X33081828Y-76122251D01*
X33081828Y-76122251D02*
X33272304Y-76122251D01*
X33272304Y-76122251D02*
X33367542Y-76074632D01*
X33367542Y-76074632D02*
X33415161Y-76027012D01*
X33415161Y-76027012D02*
X33462780Y-75931774D01*
X33462780Y-75931774D02*
X33462780Y-75646060D01*
X33462780Y-75646060D02*
X33415161Y-75550822D01*
X33415161Y-75550822D02*
X33367542Y-75503203D01*
X33367542Y-75503203D02*
X33272304Y-75455584D01*
X33272304Y-75455584D02*
X33081828Y-75455584D01*
X33081828Y-75455584D02*
X32986590Y-75503203D01*
X32700875Y-75455584D02*
X32319923Y-75455584D01*
X32558018Y-75122251D02*
X32558018Y-75979393D01*
X32558018Y-75979393D02*
X32510399Y-76074632D01*
X32510399Y-76074632D02*
X32415161Y-76122251D01*
X32415161Y-76122251D02*
X32319923Y-76122251D01*
X44653258Y-77732195D02*
X44748496Y-77684576D01*
X44748496Y-77684576D02*
X44796115Y-77589337D01*
X44796115Y-77589337D02*
X44796115Y-76732195D01*
X43843734Y-77732195D02*
X43843734Y-77208385D01*
X43843734Y-77208385D02*
X43891353Y-77113147D01*
X43891353Y-77113147D02*
X43986591Y-77065528D01*
X43986591Y-77065528D02*
X44177067Y-77065528D01*
X44177067Y-77065528D02*
X44272305Y-77113147D01*
X43843734Y-77684576D02*
X43938972Y-77732195D01*
X43938972Y-77732195D02*
X44177067Y-77732195D01*
X44177067Y-77732195D02*
X44272305Y-77684576D01*
X44272305Y-77684576D02*
X44319924Y-77589337D01*
X44319924Y-77589337D02*
X44319924Y-77494099D01*
X44319924Y-77494099D02*
X44272305Y-77398861D01*
X44272305Y-77398861D02*
X44177067Y-77351242D01*
X44177067Y-77351242D02*
X43938972Y-77351242D01*
X43938972Y-77351242D02*
X43843734Y-77303623D01*
X43367543Y-77732195D02*
X43367543Y-77065528D01*
X43367543Y-77256004D02*
X43319924Y-77160766D01*
X43319924Y-77160766D02*
X43272305Y-77113147D01*
X43272305Y-77113147D02*
X43177067Y-77065528D01*
X43177067Y-77065528D02*
X43081829Y-77065528D01*
X42796114Y-77684576D02*
X42700876Y-77732195D01*
X42700876Y-77732195D02*
X42510400Y-77732195D01*
X42510400Y-77732195D02*
X42415162Y-77684576D01*
X42415162Y-77684576D02*
X42367543Y-77589337D01*
X42367543Y-77589337D02*
X42367543Y-77541718D01*
X42367543Y-77541718D02*
X42415162Y-77446480D01*
X42415162Y-77446480D02*
X42510400Y-77398861D01*
X42510400Y-77398861D02*
X42653257Y-77398861D01*
X42653257Y-77398861D02*
X42748495Y-77351242D01*
X42748495Y-77351242D02*
X42796114Y-77256004D01*
X42796114Y-77256004D02*
X42796114Y-77208385D01*
X42796114Y-77208385D02*
X42748495Y-77113147D01*
X42748495Y-77113147D02*
X42653257Y-77065528D01*
X42653257Y-77065528D02*
X42510400Y-77065528D01*
X42510400Y-77065528D02*
X42415162Y-77113147D01*
X42034209Y-77065528D02*
X41843733Y-77732195D01*
X41843733Y-77732195D02*
X41653257Y-77256004D01*
X41653257Y-77256004D02*
X41462781Y-77732195D01*
X41462781Y-77732195D02*
X41272305Y-77065528D01*
X40462781Y-77732195D02*
X40462781Y-76732195D01*
X40462781Y-77684576D02*
X40558019Y-77732195D01*
X40558019Y-77732195D02*
X40748495Y-77732195D01*
X40748495Y-77732195D02*
X40843733Y-77684576D01*
X40843733Y-77684576D02*
X40891352Y-77636956D01*
X40891352Y-77636956D02*
X40938971Y-77541718D01*
X40938971Y-77541718D02*
X40938971Y-77256004D01*
X40938971Y-77256004D02*
X40891352Y-77160766D01*
X40891352Y-77160766D02*
X40843733Y-77113147D01*
X40843733Y-77113147D02*
X40748495Y-77065528D01*
X40748495Y-77065528D02*
X40558019Y-77065528D01*
X40558019Y-77065528D02*
X40462781Y-77113147D01*
X39367543Y-77256004D02*
X39415162Y-77208385D01*
X39415162Y-77208385D02*
X39510400Y-77160766D01*
X39510400Y-77160766D02*
X39605638Y-77160766D01*
X39605638Y-77160766D02*
X39700876Y-77208385D01*
X39700876Y-77208385D02*
X39748495Y-77256004D01*
X39748495Y-77256004D02*
X39796114Y-77351242D01*
X39796114Y-77351242D02*
X39796114Y-77446480D01*
X39796114Y-77446480D02*
X39748495Y-77541718D01*
X39748495Y-77541718D02*
X39700876Y-77589337D01*
X39700876Y-77589337D02*
X39605638Y-77636956D01*
X39605638Y-77636956D02*
X39510400Y-77636956D01*
X39510400Y-77636956D02*
X39415162Y-77589337D01*
X39415162Y-77589337D02*
X39367543Y-77541718D01*
X39367543Y-77160766D02*
X39367543Y-77541718D01*
X39367543Y-77541718D02*
X39319924Y-77589337D01*
X39319924Y-77589337D02*
X39272305Y-77589337D01*
X39272305Y-77589337D02*
X39177066Y-77541718D01*
X39177066Y-77541718D02*
X39129447Y-77446480D01*
X39129447Y-77446480D02*
X39129447Y-77208385D01*
X39129447Y-77208385D02*
X39224686Y-77065528D01*
X39224686Y-77065528D02*
X39367543Y-76970290D01*
X39367543Y-76970290D02*
X39558019Y-76922671D01*
X39558019Y-76922671D02*
X39748495Y-76970290D01*
X39748495Y-76970290D02*
X39891352Y-77065528D01*
X39891352Y-77065528D02*
X39986590Y-77208385D01*
X39986590Y-77208385D02*
X40034209Y-77398861D01*
X40034209Y-77398861D02*
X39986590Y-77589337D01*
X39986590Y-77589337D02*
X39891352Y-77732195D01*
X39891352Y-77732195D02*
X39748495Y-77827433D01*
X39748495Y-77827433D02*
X39558019Y-77875052D01*
X39558019Y-77875052D02*
X39367543Y-77827433D01*
X39367543Y-77827433D02*
X39224686Y-77732195D01*
X38700876Y-77065528D02*
X38700876Y-78065528D01*
X38700876Y-77113147D02*
X38605638Y-77065528D01*
X38605638Y-77065528D02*
X38415162Y-77065528D01*
X38415162Y-77065528D02*
X38319924Y-77113147D01*
X38319924Y-77113147D02*
X38272305Y-77160766D01*
X38272305Y-77160766D02*
X38224686Y-77256004D01*
X38224686Y-77256004D02*
X38224686Y-77541718D01*
X38224686Y-77541718D02*
X38272305Y-77636956D01*
X38272305Y-77636956D02*
X38319924Y-77684576D01*
X38319924Y-77684576D02*
X38415162Y-77732195D01*
X38415162Y-77732195D02*
X38605638Y-77732195D01*
X38605638Y-77732195D02*
X38700876Y-77684576D01*
X37796114Y-77732195D02*
X37796114Y-77065528D01*
X37796114Y-77256004D02*
X37748495Y-77160766D01*
X37748495Y-77160766D02*
X37700876Y-77113147D01*
X37700876Y-77113147D02*
X37605638Y-77065528D01*
X37605638Y-77065528D02*
X37510400Y-77065528D01*
X37034209Y-77732195D02*
X37129447Y-77684576D01*
X37129447Y-77684576D02*
X37177066Y-77636956D01*
X37177066Y-77636956D02*
X37224685Y-77541718D01*
X37224685Y-77541718D02*
X37224685Y-77256004D01*
X37224685Y-77256004D02*
X37177066Y-77160766D01*
X37177066Y-77160766D02*
X37129447Y-77113147D01*
X37129447Y-77113147D02*
X37034209Y-77065528D01*
X37034209Y-77065528D02*
X36891352Y-77065528D01*
X36891352Y-77065528D02*
X36796114Y-77113147D01*
X36796114Y-77113147D02*
X36748495Y-77160766D01*
X36748495Y-77160766D02*
X36700876Y-77256004D01*
X36700876Y-77256004D02*
X36700876Y-77541718D01*
X36700876Y-77541718D02*
X36748495Y-77636956D01*
X36748495Y-77636956D02*
X36796114Y-77684576D01*
X36796114Y-77684576D02*
X36891352Y-77732195D01*
X36891352Y-77732195D02*
X37034209Y-77732195D01*
X36415161Y-77065528D02*
X36034209Y-77065528D01*
X36272304Y-76732195D02*
X36272304Y-77589337D01*
X36272304Y-77589337D02*
X36224685Y-77684576D01*
X36224685Y-77684576D02*
X36129447Y-77732195D01*
X36129447Y-77732195D02*
X36034209Y-77732195D01*
X35558018Y-77732195D02*
X35653256Y-77684576D01*
X35653256Y-77684576D02*
X35700875Y-77636956D01*
X35700875Y-77636956D02*
X35748494Y-77541718D01*
X35748494Y-77541718D02*
X35748494Y-77256004D01*
X35748494Y-77256004D02*
X35700875Y-77160766D01*
X35700875Y-77160766D02*
X35653256Y-77113147D01*
X35653256Y-77113147D02*
X35558018Y-77065528D01*
X35558018Y-77065528D02*
X35415161Y-77065528D01*
X35415161Y-77065528D02*
X35319923Y-77113147D01*
X35319923Y-77113147D02*
X35272304Y-77160766D01*
X35272304Y-77160766D02*
X35224685Y-77256004D01*
X35224685Y-77256004D02*
X35224685Y-77541718D01*
X35224685Y-77541718D02*
X35272304Y-77636956D01*
X35272304Y-77636956D02*
X35319923Y-77684576D01*
X35319923Y-77684576D02*
X35415161Y-77732195D01*
X35415161Y-77732195D02*
X35558018Y-77732195D01*
X34796113Y-77065528D02*
X34796113Y-77732195D01*
X34796113Y-77160766D02*
X34748494Y-77113147D01*
X34748494Y-77113147D02*
X34653256Y-77065528D01*
X34653256Y-77065528D02*
X34510399Y-77065528D01*
X34510399Y-77065528D02*
X34415161Y-77113147D01*
X34415161Y-77113147D02*
X34367542Y-77208385D01*
X34367542Y-77208385D02*
X34367542Y-77732195D01*
X33891351Y-77636956D02*
X33843732Y-77684576D01*
X33843732Y-77684576D02*
X33891351Y-77732195D01*
X33891351Y-77732195D02*
X33938970Y-77684576D01*
X33938970Y-77684576D02*
X33891351Y-77636956D01*
X33891351Y-77636956D02*
X33891351Y-77732195D01*
X33415161Y-77732195D02*
X33415161Y-77065528D01*
X33415161Y-77160766D02*
X33367542Y-77113147D01*
X33367542Y-77113147D02*
X33272304Y-77065528D01*
X33272304Y-77065528D02*
X33129447Y-77065528D01*
X33129447Y-77065528D02*
X33034209Y-77113147D01*
X33034209Y-77113147D02*
X32986590Y-77208385D01*
X32986590Y-77208385D02*
X32986590Y-77732195D01*
X32986590Y-77208385D02*
X32938971Y-77113147D01*
X32938971Y-77113147D02*
X32843733Y-77065528D01*
X32843733Y-77065528D02*
X32700876Y-77065528D01*
X32700876Y-77065528D02*
X32605637Y-77113147D01*
X32605637Y-77113147D02*
X32558018Y-77208385D01*
X32558018Y-77208385D02*
X32558018Y-77732195D01*
X31700876Y-77684576D02*
X31796114Y-77732195D01*
X31796114Y-77732195D02*
X31986590Y-77732195D01*
X31986590Y-77732195D02*
X32081828Y-77684576D01*
X32081828Y-77684576D02*
X32129447Y-77589337D01*
X32129447Y-77589337D02*
X32129447Y-77208385D01*
X32129447Y-77208385D02*
X32081828Y-77113147D01*
X32081828Y-77113147D02*
X31986590Y-77065528D01*
X31986590Y-77065528D02*
X31796114Y-77065528D01*
X31796114Y-77065528D02*
X31700876Y-77113147D01*
X31700876Y-77113147D02*
X31653257Y-77208385D01*
X31653257Y-77208385D02*
X31653257Y-77303623D01*
X31653257Y-77303623D02*
X32129447Y-77398861D01*
X31150000Y-69500000D02*
X45850000Y-69500000D01*
X45850000Y-78700000D01*
X31150000Y-78700000D01*
X31150000Y-69500000D01*
X46190200Y-71147619D02*
X46142580Y-71004762D01*
X46142580Y-71004762D02*
X46142580Y-70766667D01*
X46142580Y-70766667D02*
X46190200Y-70671429D01*
X46190200Y-70671429D02*
X46237819Y-70623810D01*
X46237819Y-70623810D02*
X46333057Y-70576191D01*
X46333057Y-70576191D02*
X46428295Y-70576191D01*
X46428295Y-70576191D02*
X46523533Y-70623810D01*
X46523533Y-70623810D02*
X46571152Y-70671429D01*
X46571152Y-70671429D02*
X46618771Y-70766667D01*
X46618771Y-70766667D02*
X46666390Y-70957143D01*
X46666390Y-70957143D02*
X46714009Y-71052381D01*
X46714009Y-71052381D02*
X46761628Y-71100000D01*
X46761628Y-71100000D02*
X46856866Y-71147619D01*
X46856866Y-71147619D02*
X46952104Y-71147619D01*
X46952104Y-71147619D02*
X47047342Y-71100000D01*
X47047342Y-71100000D02*
X47094961Y-71052381D01*
X47094961Y-71052381D02*
X47142580Y-70957143D01*
X47142580Y-70957143D02*
X47142580Y-70719048D01*
X47142580Y-70719048D02*
X47094961Y-70576191D01*
X46142580Y-70147619D02*
X47142580Y-70147619D01*
X47142580Y-70147619D02*
X47142580Y-69909524D01*
X47142580Y-69909524D02*
X47094961Y-69766667D01*
X47094961Y-69766667D02*
X46999723Y-69671429D01*
X46999723Y-69671429D02*
X46904485Y-69623810D01*
X46904485Y-69623810D02*
X46714009Y-69576191D01*
X46714009Y-69576191D02*
X46571152Y-69576191D01*
X46571152Y-69576191D02*
X46380676Y-69623810D01*
X46380676Y-69623810D02*
X46285438Y-69671429D01*
X46285438Y-69671429D02*
X46190200Y-69766667D01*
X46190200Y-69766667D02*
X46142580Y-69909524D01*
X46142580Y-69909524D02*
X46142580Y-70147619D01*
X46047342Y-69385715D02*
X46047342Y-68623810D01*
X46190200Y-67957143D02*
X46142580Y-68052381D01*
X46142580Y-68052381D02*
X46142580Y-68242857D01*
X46142580Y-68242857D02*
X46190200Y-68338095D01*
X46190200Y-68338095D02*
X46237819Y-68385714D01*
X46237819Y-68385714D02*
X46333057Y-68433333D01*
X46333057Y-68433333D02*
X46618771Y-68433333D01*
X46618771Y-68433333D02*
X46714009Y-68385714D01*
X46714009Y-68385714D02*
X46761628Y-68338095D01*
X46761628Y-68338095D02*
X46809247Y-68242857D01*
X46809247Y-68242857D02*
X46809247Y-68052381D01*
X46809247Y-68052381D02*
X46761628Y-67957143D01*
X46142580Y-67100000D02*
X46666390Y-67100000D01*
X46666390Y-67100000D02*
X46761628Y-67147619D01*
X46761628Y-67147619D02*
X46809247Y-67242857D01*
X46809247Y-67242857D02*
X46809247Y-67433333D01*
X46809247Y-67433333D02*
X46761628Y-67528571D01*
X46190200Y-67100000D02*
X46142580Y-67195238D01*
X46142580Y-67195238D02*
X46142580Y-67433333D01*
X46142580Y-67433333D02*
X46190200Y-67528571D01*
X46190200Y-67528571D02*
X46285438Y-67576190D01*
X46285438Y-67576190D02*
X46380676Y-67576190D01*
X46380676Y-67576190D02*
X46475914Y-67528571D01*
X46475914Y-67528571D02*
X46523533Y-67433333D01*
X46523533Y-67433333D02*
X46523533Y-67195238D01*
X46523533Y-67195238D02*
X46571152Y-67100000D01*
X46142580Y-66623809D02*
X46809247Y-66623809D01*
X46618771Y-66623809D02*
X46714009Y-66576190D01*
X46714009Y-66576190D02*
X46761628Y-66528571D01*
X46761628Y-66528571D02*
X46809247Y-66433333D01*
X46809247Y-66433333D02*
X46809247Y-66338095D01*
X46142580Y-65576190D02*
X47142580Y-65576190D01*
X46190200Y-65576190D02*
X46142580Y-65671428D01*
X46142580Y-65671428D02*
X46142580Y-65861904D01*
X46142580Y-65861904D02*
X46190200Y-65957142D01*
X46190200Y-65957142D02*
X46237819Y-66004761D01*
X46237819Y-66004761D02*
X46333057Y-66052380D01*
X46333057Y-66052380D02*
X46618771Y-66052380D01*
X46618771Y-66052380D02*
X46714009Y-66004761D01*
X46714009Y-66004761D02*
X46761628Y-65957142D01*
X46761628Y-65957142D02*
X46809247Y-65861904D01*
X46809247Y-65861904D02*
X46809247Y-65671428D01*
X46809247Y-65671428D02*
X46761628Y-65576190D01*
X46047342Y-65338095D02*
X46047342Y-64576190D01*
X46142580Y-64338094D02*
X46809247Y-64338094D01*
X46618771Y-64338094D02*
X46714009Y-64290475D01*
X46714009Y-64290475D02*
X46761628Y-64242856D01*
X46761628Y-64242856D02*
X46809247Y-64147618D01*
X46809247Y-64147618D02*
X46809247Y-64052380D01*
X46190200Y-63338094D02*
X46142580Y-63433332D01*
X46142580Y-63433332D02*
X46142580Y-63623808D01*
X46142580Y-63623808D02*
X46190200Y-63719046D01*
X46190200Y-63719046D02*
X46285438Y-63766665D01*
X46285438Y-63766665D02*
X46666390Y-63766665D01*
X46666390Y-63766665D02*
X46761628Y-63719046D01*
X46761628Y-63719046D02*
X46809247Y-63623808D01*
X46809247Y-63623808D02*
X46809247Y-63433332D01*
X46809247Y-63433332D02*
X46761628Y-63338094D01*
X46761628Y-63338094D02*
X46666390Y-63290475D01*
X46666390Y-63290475D02*
X46571152Y-63290475D01*
X46571152Y-63290475D02*
X46475914Y-63766665D01*
X46142580Y-62433332D02*
X46666390Y-62433332D01*
X46666390Y-62433332D02*
X46761628Y-62480951D01*
X46761628Y-62480951D02*
X46809247Y-62576189D01*
X46809247Y-62576189D02*
X46809247Y-62766665D01*
X46809247Y-62766665D02*
X46761628Y-62861903D01*
X46190200Y-62433332D02*
X46142580Y-62528570D01*
X46142580Y-62528570D02*
X46142580Y-62766665D01*
X46142580Y-62766665D02*
X46190200Y-62861903D01*
X46190200Y-62861903D02*
X46285438Y-62909522D01*
X46285438Y-62909522D02*
X46380676Y-62909522D01*
X46380676Y-62909522D02*
X46475914Y-62861903D01*
X46475914Y-62861903D02*
X46523533Y-62766665D01*
X46523533Y-62766665D02*
X46523533Y-62528570D01*
X46523533Y-62528570D02*
X46571152Y-62433332D01*
X46142580Y-61528570D02*
X47142580Y-61528570D01*
X46190200Y-61528570D02*
X46142580Y-61623808D01*
X46142580Y-61623808D02*
X46142580Y-61814284D01*
X46142580Y-61814284D02*
X46190200Y-61909522D01*
X46190200Y-61909522D02*
X46237819Y-61957141D01*
X46237819Y-61957141D02*
X46333057Y-62004760D01*
X46333057Y-62004760D02*
X46618771Y-62004760D01*
X46618771Y-62004760D02*
X46714009Y-61957141D01*
X46714009Y-61957141D02*
X46761628Y-61909522D01*
X46761628Y-61909522D02*
X46809247Y-61814284D01*
X46809247Y-61814284D02*
X46809247Y-61623808D01*
X46809247Y-61623808D02*
X46761628Y-61528570D01*
X46190200Y-60671427D02*
X46142580Y-60766665D01*
X46142580Y-60766665D02*
X46142580Y-60957141D01*
X46142580Y-60957141D02*
X46190200Y-61052379D01*
X46190200Y-61052379D02*
X46285438Y-61099998D01*
X46285438Y-61099998D02*
X46666390Y-61099998D01*
X46666390Y-61099998D02*
X46761628Y-61052379D01*
X46761628Y-61052379D02*
X46809247Y-60957141D01*
X46809247Y-60957141D02*
X46809247Y-60766665D01*
X46809247Y-60766665D02*
X46761628Y-60671427D01*
X46761628Y-60671427D02*
X46666390Y-60623808D01*
X46666390Y-60623808D02*
X46571152Y-60623808D01*
X46571152Y-60623808D02*
X46475914Y-61099998D01*
X46142580Y-60195236D02*
X46809247Y-60195236D01*
X46618771Y-60195236D02*
X46714009Y-60147617D01*
X46714009Y-60147617D02*
X46761628Y-60099998D01*
X46761628Y-60099998D02*
X46809247Y-60004760D01*
X46809247Y-60004760D02*
X46809247Y-59909522D01*
X46142580Y-59052379D02*
X46142580Y-59623807D01*
X46142580Y-59338093D02*
X47142580Y-59338093D01*
X47142580Y-59338093D02*
X46999723Y-59433331D01*
X46999723Y-59433331D02*
X46904485Y-59528569D01*
X46904485Y-59528569D02*
X46856866Y-59623807D01*
X49472306Y-61820038D02*
X49567544Y-61772419D01*
X49567544Y-61772419D02*
X49710401Y-61772419D01*
X49710401Y-61772419D02*
X49853258Y-61820038D01*
X49853258Y-61820038D02*
X49948496Y-61915276D01*
X49948496Y-61915276D02*
X49996115Y-62010514D01*
X49996115Y-62010514D02*
X50043734Y-62200990D01*
X50043734Y-62200990D02*
X50043734Y-62343847D01*
X50043734Y-62343847D02*
X49996115Y-62534323D01*
X49996115Y-62534323D02*
X49948496Y-62629561D01*
X49948496Y-62629561D02*
X49853258Y-62724800D01*
X49853258Y-62724800D02*
X49710401Y-62772419D01*
X49710401Y-62772419D02*
X49615163Y-62772419D01*
X49615163Y-62772419D02*
X49472306Y-62724800D01*
X49472306Y-62724800D02*
X49424687Y-62677180D01*
X49424687Y-62677180D02*
X49424687Y-62343847D01*
X49424687Y-62343847D02*
X49615163Y-62343847D01*
X48996115Y-62772419D02*
X48996115Y-61772419D01*
X48996115Y-61772419D02*
X48424687Y-62772419D01*
X48424687Y-62772419D02*
X48424687Y-61772419D01*
X47948496Y-62772419D02*
X47948496Y-61772419D01*
X47948496Y-61772419D02*
X47710401Y-61772419D01*
X47710401Y-61772419D02*
X47567544Y-61820038D01*
X47567544Y-61820038D02*
X47472306Y-61915276D01*
X47472306Y-61915276D02*
X47424687Y-62010514D01*
X47424687Y-62010514D02*
X47377068Y-62200990D01*
X47377068Y-62200990D02*
X47377068Y-62343847D01*
X47377068Y-62343847D02*
X47424687Y-62534323D01*
X47424687Y-62534323D02*
X47472306Y-62629561D01*
X47472306Y-62629561D02*
X47567544Y-62724800D01*
X47567544Y-62724800D02*
X47710401Y-62772419D01*
X47710401Y-62772419D02*
X47948496Y-62772419D01*
X49424687Y-64977180D02*
X49472306Y-65024800D01*
X49472306Y-65024800D02*
X49615163Y-65072419D01*
X49615163Y-65072419D02*
X49710401Y-65072419D01*
X49710401Y-65072419D02*
X49853258Y-65024800D01*
X49853258Y-65024800D02*
X49948496Y-64929561D01*
X49948496Y-64929561D02*
X49996115Y-64834323D01*
X49996115Y-64834323D02*
X50043734Y-64643847D01*
X50043734Y-64643847D02*
X50043734Y-64500990D01*
X50043734Y-64500990D02*
X49996115Y-64310514D01*
X49996115Y-64310514D02*
X49948496Y-64215276D01*
X49948496Y-64215276D02*
X49853258Y-64120038D01*
X49853258Y-64120038D02*
X49710401Y-64072419D01*
X49710401Y-64072419D02*
X49615163Y-64072419D01*
X49615163Y-64072419D02*
X49472306Y-64120038D01*
X49472306Y-64120038D02*
X49424687Y-64167657D01*
X48519925Y-65072419D02*
X48996115Y-65072419D01*
X48996115Y-65072419D02*
X48996115Y-64072419D01*
X48186591Y-65072419D02*
X48186591Y-64072419D01*
X47615163Y-65072419D02*
X48043734Y-64500990D01*
X47615163Y-64072419D02*
X48186591Y-64643847D01*
X49796115Y-67572419D02*
X49796115Y-66572419D01*
X49796115Y-66572419D02*
X49558020Y-66572419D01*
X49558020Y-66572419D02*
X49415163Y-66620038D01*
X49415163Y-66620038D02*
X49319925Y-66715276D01*
X49319925Y-66715276D02*
X49272306Y-66810514D01*
X49272306Y-66810514D02*
X49224687Y-67000990D01*
X49224687Y-67000990D02*
X49224687Y-67143847D01*
X49224687Y-67143847D02*
X49272306Y-67334323D01*
X49272306Y-67334323D02*
X49319925Y-67429561D01*
X49319925Y-67429561D02*
X49415163Y-67524800D01*
X49415163Y-67524800D02*
X49558020Y-67572419D01*
X49558020Y-67572419D02*
X49796115Y-67572419D01*
X48605639Y-66572419D02*
X48415163Y-66572419D01*
X48415163Y-66572419D02*
X48319925Y-66620038D01*
X48319925Y-66620038D02*
X48224687Y-66715276D01*
X48224687Y-66715276D02*
X48177068Y-66905752D01*
X48177068Y-66905752D02*
X48177068Y-67239085D01*
X48177068Y-67239085D02*
X48224687Y-67429561D01*
X48224687Y-67429561D02*
X48319925Y-67524800D01*
X48319925Y-67524800D02*
X48415163Y-67572419D01*
X48415163Y-67572419D02*
X48605639Y-67572419D01*
X48605639Y-67572419D02*
X48700877Y-67524800D01*
X48700877Y-67524800D02*
X48796115Y-67429561D01*
X48796115Y-67429561D02*
X48843734Y-67239085D01*
X48843734Y-67239085D02*
X48843734Y-66905752D01*
X48843734Y-66905752D02*
X48796115Y-66715276D01*
X48796115Y-66715276D02*
X48700877Y-66620038D01*
X48700877Y-66620038D02*
X48605639Y-66572419D01*
X48819925Y-56272419D02*
X49296115Y-56272419D01*
X49296115Y-56272419D02*
X49343734Y-56748609D01*
X49343734Y-56748609D02*
X49296115Y-56700990D01*
X49296115Y-56700990D02*
X49200877Y-56653371D01*
X49200877Y-56653371D02*
X48962782Y-56653371D01*
X48962782Y-56653371D02*
X48867544Y-56700990D01*
X48867544Y-56700990D02*
X48819925Y-56748609D01*
X48819925Y-56748609D02*
X48772306Y-56843847D01*
X48772306Y-56843847D02*
X48772306Y-57081942D01*
X48772306Y-57081942D02*
X48819925Y-57177180D01*
X48819925Y-57177180D02*
X48867544Y-57224800D01*
X48867544Y-57224800D02*
X48962782Y-57272419D01*
X48962782Y-57272419D02*
X49200877Y-57272419D01*
X49200877Y-57272419D02*
X49296115Y-57224800D01*
X49296115Y-57224800D02*
X49343734Y-57177180D01*
X48486591Y-56272419D02*
X48153258Y-57272419D01*
X48153258Y-57272419D02*
X47819925Y-56272419D01*
X48824687Y-75277180D02*
X48872306Y-75324800D01*
X48872306Y-75324800D02*
X49015163Y-75372419D01*
X49015163Y-75372419D02*
X49110401Y-75372419D01*
X49110401Y-75372419D02*
X49253258Y-75324800D01*
X49253258Y-75324800D02*
X49348496Y-75229561D01*
X49348496Y-75229561D02*
X49396115Y-75134323D01*
X49396115Y-75134323D02*
X49443734Y-74943847D01*
X49443734Y-74943847D02*
X49443734Y-74800990D01*
X49443734Y-74800990D02*
X49396115Y-74610514D01*
X49396115Y-74610514D02*
X49348496Y-74515276D01*
X49348496Y-74515276D02*
X49253258Y-74420038D01*
X49253258Y-74420038D02*
X49110401Y-74372419D01*
X49110401Y-74372419D02*
X49015163Y-74372419D01*
X49015163Y-74372419D02*
X48872306Y-74420038D01*
X48872306Y-74420038D02*
X48824687Y-74467657D01*
X48396115Y-75372419D02*
X48396115Y-74372419D01*
X48396115Y-74372419D02*
X48158020Y-74372419D01*
X48158020Y-74372419D02*
X48015163Y-74420038D01*
X48015163Y-74420038D02*
X47919925Y-74515276D01*
X47919925Y-74515276D02*
X47872306Y-74610514D01*
X47872306Y-74610514D02*
X47824687Y-74800990D01*
X47824687Y-74800990D02*
X47824687Y-74943847D01*
X47824687Y-74943847D02*
X47872306Y-75134323D01*
X47872306Y-75134323D02*
X47919925Y-75229561D01*
X47919925Y-75229561D02*
X48015163Y-75324800D01*
X48015163Y-75324800D02*
X48158020Y-75372419D01*
X48158020Y-75372419D02*
X48396115Y-75372419D01*
X49196115Y-70172419D02*
X49196115Y-69172419D01*
X49196115Y-69172419D02*
X48958020Y-69172419D01*
X48958020Y-69172419D02*
X48815163Y-69220038D01*
X48815163Y-69220038D02*
X48719925Y-69315276D01*
X48719925Y-69315276D02*
X48672306Y-69410514D01*
X48672306Y-69410514D02*
X48624687Y-69600990D01*
X48624687Y-69600990D02*
X48624687Y-69743847D01*
X48624687Y-69743847D02*
X48672306Y-69934323D01*
X48672306Y-69934323D02*
X48719925Y-70029561D01*
X48719925Y-70029561D02*
X48815163Y-70124800D01*
X48815163Y-70124800D02*
X48958020Y-70172419D01*
X48958020Y-70172419D02*
X49196115Y-70172419D01*
X48196115Y-70172419D02*
X48196115Y-69172419D01*
X49391353Y-58972419D02*
X48772306Y-58972419D01*
X48772306Y-58972419D02*
X49105639Y-59353371D01*
X49105639Y-59353371D02*
X48962782Y-59353371D01*
X48962782Y-59353371D02*
X48867544Y-59400990D01*
X48867544Y-59400990D02*
X48819925Y-59448609D01*
X48819925Y-59448609D02*
X48772306Y-59543847D01*
X48772306Y-59543847D02*
X48772306Y-59781942D01*
X48772306Y-59781942D02*
X48819925Y-59877180D01*
X48819925Y-59877180D02*
X48867544Y-59924800D01*
X48867544Y-59924800D02*
X48962782Y-59972419D01*
X48962782Y-59972419D02*
X49248496Y-59972419D01*
X49248496Y-59972419D02*
X49343734Y-59924800D01*
X49343734Y-59924800D02*
X49391353Y-59877180D01*
X48486591Y-58972419D02*
X48153258Y-59972419D01*
X48153258Y-59972419D02*
X47819925Y-58972419D01*
X49024687Y-72977180D02*
X49072306Y-73024800D01*
X49072306Y-73024800D02*
X49215163Y-73072419D01*
X49215163Y-73072419D02*
X49310401Y-73072419D01*
X49310401Y-73072419D02*
X49453258Y-73024800D01*
X49453258Y-73024800D02*
X49548496Y-72929561D01*
X49548496Y-72929561D02*
X49596115Y-72834323D01*
X49596115Y-72834323D02*
X49643734Y-72643847D01*
X49643734Y-72643847D02*
X49643734Y-72500990D01*
X49643734Y-72500990D02*
X49596115Y-72310514D01*
X49596115Y-72310514D02*
X49548496Y-72215276D01*
X49548496Y-72215276D02*
X49453258Y-72120038D01*
X49453258Y-72120038D02*
X49310401Y-72072419D01*
X49310401Y-72072419D02*
X49215163Y-72072419D01*
X49215163Y-72072419D02*
X49072306Y-72120038D01*
X49072306Y-72120038D02*
X49024687Y-72167657D01*
X48643734Y-73024800D02*
X48500877Y-73072419D01*
X48500877Y-73072419D02*
X48262782Y-73072419D01*
X48262782Y-73072419D02*
X48167544Y-73024800D01*
X48167544Y-73024800D02*
X48119925Y-72977180D01*
X48119925Y-72977180D02*
X48072306Y-72881942D01*
X48072306Y-72881942D02*
X48072306Y-72786704D01*
X48072306Y-72786704D02*
X48119925Y-72691466D01*
X48119925Y-72691466D02*
X48167544Y-72643847D01*
X48167544Y-72643847D02*
X48262782Y-72596228D01*
X48262782Y-72596228D02*
X48453258Y-72548609D01*
X48453258Y-72548609D02*
X48548496Y-72500990D01*
X48548496Y-72500990D02*
X48596115Y-72453371D01*
X48596115Y-72453371D02*
X48643734Y-72358133D01*
X48643734Y-72358133D02*
X48643734Y-72262895D01*
X48643734Y-72262895D02*
X48596115Y-72167657D01*
X48596115Y-72167657D02*
X48548496Y-72120038D01*
X48548496Y-72120038D02*
X48453258Y-72072419D01*
X48453258Y-72072419D02*
X48215163Y-72072419D01*
X48215163Y-72072419D02*
X48072306Y-72120038D01*
D13*
%TO.C,RHS Wio pins*%
X44170000Y-18330000D02*
X44170000Y-46330000D01*
X46830000Y-18330000D02*
X44170000Y-18330000D01*
X46830000Y-18330000D02*
X46830000Y-46330000D01*
X46830000Y-46330000D02*
X44170000Y-46330000D01*
X46830000Y-47600000D02*
X46830000Y-48930000D01*
X46830000Y-48930000D02*
X45500000Y-48930000D01*
%TD*%
M02*
