M48
; DRILL file {KiCad 9.0.8} date 2026-03-24T12:44:51+0100
; FORMAT={-:-/ absolute / metric / decimal}
; #@! TF.CreationDate,2026-03-24T12:44:51+01:00
; #@! TF.GenerationSoftware,Kicad,Pcbnew,9.0.8
; #@! TF.FileFunction,Plated,1,2,PTH
FMAT,2
METRIC
; #@! TA.AperFunction,Plated,PTH,ViaDrill
T1C0.300
; #@! TA.AperFunction,Plated,PTH,ComponentDrill
T2C0.700
; #@! TA.AperFunction,Plated,PTH,ComponentDrill
T3C1.000
; #@! TA.AperFunction,Plated,PTH,ComponentDrill
T4C2.000
%
G90
G05
T1
X19.9Y-47.9
X23.96Y-22.36
X24.1Y-42.8
X25.5Y-46.8
X25.7Y-25.38
X26.7Y-37.5
X26.8Y-40.1
X27.5Y-19.69
X28.3Y-23.8
X28.95Y-43.85
X30.65Y-63.25
X33.9Y-61.3
X38.08Y-37.22
X38.2Y-55.3
X40.9Y-47.0
X43.1Y-57.9
X43.4Y-65.8
X43.7Y-61.9
X50.0Y-17.15
X56.5Y-42.0
X57.0Y-36.5
X59.5Y-17.0
X59.5Y-53.0
X60.5Y-61.0
X62.0Y-53.0
X64.5Y-60.5
X65.0Y-52.5
X70.5Y-57.5
X72.0Y-36.0
X72.0Y-49.5
T2
X18.68Y-36.2
X18.7Y-25.63
X18.7Y-28.17
X21.22Y-36.2
X22.1Y-26.08
X22.1Y-28.62
X58.28Y-78.0
X60.82Y-78.0
T3
X18.96Y-31.3
X21.5Y-31.3
X22.0Y-49.3
X22.0Y-51.8
X22.1Y-44.7
X22.1Y-47.0
X22.5Y-78.0
X23.95Y-68.0
X24.0Y-31.3
X26.0Y-72.5
X26.0Y-78.1
X26.49Y-68.0
X28.7Y-78.1
X28.95Y-68.0
X31.45Y-68.0
X31.635Y-19.69
X31.635Y-22.23
X31.635Y-24.77
X31.635Y-27.31
X31.635Y-29.85
X31.635Y-32.39
X31.635Y-34.93
X31.635Y-37.47
X31.635Y-40.01
X31.635Y-42.55
X31.635Y-45.09
X31.635Y-47.63
X35.36Y-19.67
X35.36Y-22.21
X35.36Y-24.75
X35.36Y-27.29
X35.36Y-29.83
X35.36Y-32.37
X35.36Y-34.91
X35.36Y-37.45
X35.36Y-39.99
X35.36Y-42.53
X35.36Y-45.07
X35.36Y-47.61
X45.5Y-19.66
X45.5Y-22.2
X45.5Y-24.74
X45.5Y-27.28
X45.5Y-29.82
X45.5Y-32.36
X45.5Y-34.9
X45.5Y-37.44
X45.5Y-39.98
X45.5Y-42.52
X45.5Y-45.06
X45.5Y-47.6
X49.4Y-19.67
X49.4Y-22.21
X49.4Y-24.75
X49.4Y-27.29
X49.4Y-29.83
X49.4Y-32.37
X49.4Y-34.91
X49.4Y-37.45
X49.4Y-39.99
X49.4Y-42.53
X49.4Y-45.07
X49.4Y-47.61
X51.18Y-62.18
X51.2Y-57.06
X51.2Y-59.62
X51.2Y-64.7
X51.2Y-72.43
X51.2Y-74.8
X51.21Y-67.22
X51.21Y-69.78
X58.32Y-71.5
X60.88Y-71.5
X62.96Y-25.5
X63.42Y-71.5
X65.5Y-25.5
X65.96Y-71.5
X68.04Y-25.5
X68.5Y-71.5
X70.58Y-25.5
X71.04Y-71.5
X73.62Y-71.5
X76.12Y-71.5
X77.5Y-30.96
X77.5Y-33.5
X77.5Y-36.04
X77.5Y-43.96
X77.5Y-46.5
X77.5Y-49.04
X78.66Y-71.5
T4
X18.5Y-13.5
X18.5Y-78.0
X80.0Y-13.5
X80.0Y-78.0
M30
