%TF.GenerationSoftware,KiCad,Pcbnew,9.0.8*%
%TF.CreationDate,2026-05-11T11:07:21+02:00*%
%TF.ProjectId,BST_PCB,4253545f-5043-4422-9e6b-696361645f70,rev?*%
%TF.SameCoordinates,Original*%
%TF.FileFunction,Soldermask,Top*%
%TF.FilePolarity,Negative*%
%FSLAX46Y46*%
G04 Gerber Fmt 4.6, Leading zero omitted, Abs format (unit mm)*
G04 Created by KiCad (PCBNEW 9.0.8) date 2026-05-11 11:07:21*
%MOMM*%
%LPD*%
G01*
G04 APERTURE LIST*
%ADD10C,1.700000*%
%ADD11R,1.700000X1.700000*%
%ADD12C,5.000000*%
%ADD13O,1.700000X1.700000*%
G04 APERTURE END LIST*
D10*
%TO.C,Supercap1*%
X151260000Y-92550000D03*
D11*
X147850000Y-92550000D03*
%TD*%
D10*
%TO.C,Supercap2*%
X151260000Y-100550000D03*
D11*
X147850000Y-100550000D03*
%TD*%
%TO.C,Supercap reserve*%
X186050000Y-110650000D03*
D10*
X186050000Y-107240000D03*
%TD*%
D12*
%TO.C,*%
X186500000Y-95500000D03*
%TD*%
D10*
%TO.C,Pololu*%
X151000000Y-109380000D03*
D11*
X151000000Y-117000000D03*
X151000000Y-114460000D03*
D10*
X151000000Y-111920000D03*
X151000000Y-119540000D03*
%TD*%
%TO.C,*%
X148500000Y-126500000D03*
%TD*%
D11*
%TO.C,*%
X165000000Y-127500000D03*
%TD*%
%TO.C,*%
X167500000Y-127500000D03*
%TD*%
D12*
%TO.C,*%
X186500000Y-29500000D03*
%TD*%
%TO.C,*%
X245500000Y-95500000D03*
%TD*%
D10*
%TO.C,SD card reader*%
X205000000Y-109012500D03*
X205000000Y-106472500D03*
X205000000Y-124252500D03*
X205000000Y-114092500D03*
X205000000Y-121712500D03*
X205000000Y-119172500D03*
X205000000Y-116632500D03*
D11*
X205000000Y-111552500D03*
%TD*%
D10*
%TO.C,U3*%
X149000000Y-83460000D03*
X149000000Y-86000000D03*
D11*
X149000000Y-78380000D03*
D10*
X149000000Y-80920000D03*
%TD*%
%TO.C,*%
X152000000Y-127000000D03*
%TD*%
D13*
%TO.C,Wio*%
X149200000Y-54160000D03*
X149200000Y-56700000D03*
X166965000Y-51600000D03*
X149200000Y-33840000D03*
X166965000Y-46520000D03*
X166965000Y-49060000D03*
X149200000Y-41460000D03*
X149200000Y-38920000D03*
X149200000Y-51620000D03*
X149200000Y-49080000D03*
X166965000Y-38900000D03*
X166965000Y-54140000D03*
X149200000Y-28760000D03*
X149200000Y-31300000D03*
D11*
X149200000Y-44000000D03*
X166965000Y-56680000D03*
D13*
X149200000Y-36380000D03*
X149200000Y-46540000D03*
X166965000Y-43980000D03*
X166965000Y-36360000D03*
X166965000Y-31280000D03*
X166965000Y-41440000D03*
X166965000Y-33820000D03*
X166965000Y-28740000D03*
%TD*%
D12*
%TO.C,*%
X245500000Y-29500000D03*
%TD*%
D10*
%TO.C,NC2*%
X183500000Y-58760000D03*
X183500000Y-46060000D03*
X183500000Y-35900000D03*
X183500000Y-38440000D03*
X183500000Y-40980000D03*
X183500000Y-43520000D03*
X183500000Y-53680000D03*
X183500000Y-48600000D03*
X183500000Y-56220000D03*
X183500000Y-61300000D03*
X183500000Y-63840000D03*
X183500000Y-66380000D03*
X183500000Y-68920000D03*
X183500000Y-71460000D03*
X183500000Y-74000000D03*
X183500000Y-76540000D03*
X183500000Y-79080000D03*
X183500000Y-81620000D03*
X183500000Y-84160000D03*
X183500000Y-86700000D03*
X183500000Y-89240000D03*
D11*
X183500000Y-51140000D03*
%TD*%
M02*
