%TF.GenerationSoftware,KiCad,Pcbnew,9.0.4-1.fc42*%
%TF.CreationDate,2025-10-10T15:13:49+02:00*%
%TF.ProjectId,BST_PCB,4253545f-5043-4422-9e6b-696361645f70,rev?*%
%TF.SameCoordinates,Original*%
%TF.FileFunction,Legend,Bot*%
%TF.FilePolarity,Positive*%
%FSLAX46Y46*%
G04 Gerber Fmt 4.6, Leading zero omitted, Abs format (unit mm)*
G04 Created by KiCad (PCBNEW 9.0.4-1.fc42) date 2025-10-10 15:13:49*
%MOMM*%
%LPD*%
G01*
G04 APERTURE LIST*
%ADD10C,0.300000*%
G04 APERTURE END LIST*
D10*
X164159774Y-87470996D02*
X163874060Y-87470996D01*
X163874060Y-87470996D02*
X163731203Y-87542425D01*
X163731203Y-87542425D02*
X163588346Y-87685282D01*
X163588346Y-87685282D02*
X163516917Y-87970996D01*
X163516917Y-87970996D02*
X163516917Y-88470996D01*
X163516917Y-88470996D02*
X163588346Y-88756710D01*
X163588346Y-88756710D02*
X163731203Y-88899568D01*
X163731203Y-88899568D02*
X163874060Y-88970996D01*
X163874060Y-88970996D02*
X164159774Y-88970996D01*
X164159774Y-88970996D02*
X164302632Y-88899568D01*
X164302632Y-88899568D02*
X164445489Y-88756710D01*
X164445489Y-88756710D02*
X164516917Y-88470996D01*
X164516917Y-88470996D02*
X164516917Y-87970996D01*
X164516917Y-87970996D02*
X164445489Y-87685282D01*
X164445489Y-87685282D02*
X164302632Y-87542425D01*
X164302632Y-87542425D02*
X164159774Y-87470996D01*
X162159774Y-88970996D02*
X162874060Y-88970996D01*
X162874060Y-88970996D02*
X162874060Y-87470996D01*
X161159774Y-88185282D02*
X160945488Y-88256710D01*
X160945488Y-88256710D02*
X160874059Y-88328139D01*
X160874059Y-88328139D02*
X160802631Y-88470996D01*
X160802631Y-88470996D02*
X160802631Y-88685282D01*
X160802631Y-88685282D02*
X160874059Y-88828139D01*
X160874059Y-88828139D02*
X160945488Y-88899568D01*
X160945488Y-88899568D02*
X161088345Y-88970996D01*
X161088345Y-88970996D02*
X161659774Y-88970996D01*
X161659774Y-88970996D02*
X161659774Y-87470996D01*
X161659774Y-87470996D02*
X161159774Y-87470996D01*
X161159774Y-87470996D02*
X161016917Y-87542425D01*
X161016917Y-87542425D02*
X160945488Y-87613853D01*
X160945488Y-87613853D02*
X160874059Y-87756710D01*
X160874059Y-87756710D02*
X160874059Y-87899568D01*
X160874059Y-87899568D02*
X160945488Y-88042425D01*
X160945488Y-88042425D02*
X161016917Y-88113853D01*
X161016917Y-88113853D02*
X161159774Y-88185282D01*
X161159774Y-88185282D02*
X161659774Y-88185282D01*
X158516917Y-88185282D02*
X158302631Y-88256710D01*
X158302631Y-88256710D02*
X158231202Y-88328139D01*
X158231202Y-88328139D02*
X158159774Y-88470996D01*
X158159774Y-88470996D02*
X158159774Y-88685282D01*
X158159774Y-88685282D02*
X158231202Y-88828139D01*
X158231202Y-88828139D02*
X158302631Y-88899568D01*
X158302631Y-88899568D02*
X158445488Y-88970996D01*
X158445488Y-88970996D02*
X159016917Y-88970996D01*
X159016917Y-88970996D02*
X159016917Y-87470996D01*
X159016917Y-87470996D02*
X158516917Y-87470996D01*
X158516917Y-87470996D02*
X158374060Y-87542425D01*
X158374060Y-87542425D02*
X158302631Y-87613853D01*
X158302631Y-87613853D02*
X158231202Y-87756710D01*
X158231202Y-87756710D02*
X158231202Y-87899568D01*
X158231202Y-87899568D02*
X158302631Y-88042425D01*
X158302631Y-88042425D02*
X158374060Y-88113853D01*
X158374060Y-88113853D02*
X158516917Y-88185282D01*
X158516917Y-88185282D02*
X159016917Y-88185282D01*
X157588345Y-88899568D02*
X157374060Y-88970996D01*
X157374060Y-88970996D02*
X157016917Y-88970996D01*
X157016917Y-88970996D02*
X156874060Y-88899568D01*
X156874060Y-88899568D02*
X156802631Y-88828139D01*
X156802631Y-88828139D02*
X156731202Y-88685282D01*
X156731202Y-88685282D02*
X156731202Y-88542425D01*
X156731202Y-88542425D02*
X156802631Y-88399568D01*
X156802631Y-88399568D02*
X156874060Y-88328139D01*
X156874060Y-88328139D02*
X157016917Y-88256710D01*
X157016917Y-88256710D02*
X157302631Y-88185282D01*
X157302631Y-88185282D02*
X157445488Y-88113853D01*
X157445488Y-88113853D02*
X157516917Y-88042425D01*
X157516917Y-88042425D02*
X157588345Y-87899568D01*
X157588345Y-87899568D02*
X157588345Y-87756710D01*
X157588345Y-87756710D02*
X157516917Y-87613853D01*
X157516917Y-87613853D02*
X157445488Y-87542425D01*
X157445488Y-87542425D02*
X157302631Y-87470996D01*
X157302631Y-87470996D02*
X156945488Y-87470996D01*
X156945488Y-87470996D02*
X156731202Y-87542425D01*
X156302631Y-87470996D02*
X155445489Y-87470996D01*
X155874060Y-88970996D02*
X155874060Y-87470996D01*
X153802632Y-88970996D02*
X153802632Y-87470996D01*
X153802632Y-87470996D02*
X153231203Y-87470996D01*
X153231203Y-87470996D02*
X153088346Y-87542425D01*
X153088346Y-87542425D02*
X153016917Y-87613853D01*
X153016917Y-87613853D02*
X152945489Y-87756710D01*
X152945489Y-87756710D02*
X152945489Y-87970996D01*
X152945489Y-87970996D02*
X153016917Y-88113853D01*
X153016917Y-88113853D02*
X153088346Y-88185282D01*
X153088346Y-88185282D02*
X153231203Y-88256710D01*
X153231203Y-88256710D02*
X153802632Y-88256710D01*
X151445489Y-88828139D02*
X151516917Y-88899568D01*
X151516917Y-88899568D02*
X151731203Y-88970996D01*
X151731203Y-88970996D02*
X151874060Y-88970996D01*
X151874060Y-88970996D02*
X152088346Y-88899568D01*
X152088346Y-88899568D02*
X152231203Y-88756710D01*
X152231203Y-88756710D02*
X152302632Y-88613853D01*
X152302632Y-88613853D02*
X152374060Y-88328139D01*
X152374060Y-88328139D02*
X152374060Y-88113853D01*
X152374060Y-88113853D02*
X152302632Y-87828139D01*
X152302632Y-87828139D02*
X152231203Y-87685282D01*
X152231203Y-87685282D02*
X152088346Y-87542425D01*
X152088346Y-87542425D02*
X151874060Y-87470996D01*
X151874060Y-87470996D02*
X151731203Y-87470996D01*
X151731203Y-87470996D02*
X151516917Y-87542425D01*
X151516917Y-87542425D02*
X151445489Y-87613853D01*
X150302632Y-88185282D02*
X150088346Y-88256710D01*
X150088346Y-88256710D02*
X150016917Y-88328139D01*
X150016917Y-88328139D02*
X149945489Y-88470996D01*
X149945489Y-88470996D02*
X149945489Y-88685282D01*
X149945489Y-88685282D02*
X150016917Y-88828139D01*
X150016917Y-88828139D02*
X150088346Y-88899568D01*
X150088346Y-88899568D02*
X150231203Y-88970996D01*
X150231203Y-88970996D02*
X150802632Y-88970996D01*
X150802632Y-88970996D02*
X150802632Y-87470996D01*
X150802632Y-87470996D02*
X150302632Y-87470996D01*
X150302632Y-87470996D02*
X150159775Y-87542425D01*
X150159775Y-87542425D02*
X150088346Y-87613853D01*
X150088346Y-87613853D02*
X150016917Y-87756710D01*
X150016917Y-87756710D02*
X150016917Y-87899568D01*
X150016917Y-87899568D02*
X150088346Y-88042425D01*
X150088346Y-88042425D02*
X150159775Y-88113853D01*
X150159775Y-88113853D02*
X150302632Y-88185282D01*
X150302632Y-88185282D02*
X150802632Y-88185282D01*
X148374060Y-87470996D02*
X147874060Y-88970996D01*
X147874060Y-88970996D02*
X147374060Y-87470996D01*
X146945489Y-87613853D02*
X146874061Y-87542425D01*
X146874061Y-87542425D02*
X146731204Y-87470996D01*
X146731204Y-87470996D02*
X146374061Y-87470996D01*
X146374061Y-87470996D02*
X146231204Y-87542425D01*
X146231204Y-87542425D02*
X146159775Y-87613853D01*
X146159775Y-87613853D02*
X146088346Y-87756710D01*
X146088346Y-87756710D02*
X146088346Y-87899568D01*
X146088346Y-87899568D02*
X146159775Y-88113853D01*
X146159775Y-88113853D02*
X147016918Y-88970996D01*
X147016918Y-88970996D02*
X146088346Y-88970996D01*
X164445489Y-91385912D02*
X164445489Y-89885912D01*
X163945488Y-90385912D02*
X163374060Y-90385912D01*
X163731203Y-91385912D02*
X163731203Y-90100198D01*
X163731203Y-90100198D02*
X163659774Y-89957341D01*
X163659774Y-89957341D02*
X163516917Y-89885912D01*
X163516917Y-89885912D02*
X163374060Y-89885912D01*
X161945488Y-90385912D02*
X161374060Y-90385912D01*
X161731203Y-91385912D02*
X161731203Y-90100198D01*
X161731203Y-90100198D02*
X161659774Y-89957341D01*
X161659774Y-89957341D02*
X161516917Y-89885912D01*
X161516917Y-89885912D02*
X161374060Y-89885912D01*
X160659774Y-91385912D02*
X160802631Y-91314484D01*
X160802631Y-91314484D02*
X160874060Y-91243055D01*
X160874060Y-91243055D02*
X160945488Y-91100198D01*
X160945488Y-91100198D02*
X160945488Y-90671626D01*
X160945488Y-90671626D02*
X160874060Y-90528769D01*
X160874060Y-90528769D02*
X160802631Y-90457341D01*
X160802631Y-90457341D02*
X160659774Y-90385912D01*
X160659774Y-90385912D02*
X160445488Y-90385912D01*
X160445488Y-90385912D02*
X160302631Y-90457341D01*
X160302631Y-90457341D02*
X160231203Y-90528769D01*
X160231203Y-90528769D02*
X160159774Y-90671626D01*
X160159774Y-90671626D02*
X160159774Y-91100198D01*
X160159774Y-91100198D02*
X160231203Y-91243055D01*
X160231203Y-91243055D02*
X160302631Y-91314484D01*
X160302631Y-91314484D02*
X160445488Y-91385912D01*
X160445488Y-91385912D02*
X160659774Y-91385912D01*
X158874060Y-90385912D02*
X158874060Y-91385912D01*
X159516917Y-90385912D02*
X159516917Y-91171626D01*
X159516917Y-91171626D02*
X159445488Y-91314484D01*
X159445488Y-91314484D02*
X159302631Y-91385912D01*
X159302631Y-91385912D02*
X159088345Y-91385912D01*
X159088345Y-91385912D02*
X158945488Y-91314484D01*
X158945488Y-91314484D02*
X158874060Y-91243055D01*
X158159774Y-90385912D02*
X158159774Y-91385912D01*
X158159774Y-90528769D02*
X158088345Y-90457341D01*
X158088345Y-90457341D02*
X157945488Y-90385912D01*
X157945488Y-90385912D02*
X157731202Y-90385912D01*
X157731202Y-90385912D02*
X157588345Y-90457341D01*
X157588345Y-90457341D02*
X157516917Y-90600198D01*
X157516917Y-90600198D02*
X157516917Y-91385912D01*
X156159774Y-91385912D02*
X156159774Y-89885912D01*
X156159774Y-91314484D02*
X156302631Y-91385912D01*
X156302631Y-91385912D02*
X156588345Y-91385912D01*
X156588345Y-91385912D02*
X156731202Y-91314484D01*
X156731202Y-91314484D02*
X156802631Y-91243055D01*
X156802631Y-91243055D02*
X156874059Y-91100198D01*
X156874059Y-91100198D02*
X156874059Y-90671626D01*
X156874059Y-90671626D02*
X156802631Y-90528769D01*
X156802631Y-90528769D02*
X156731202Y-90457341D01*
X156731202Y-90457341D02*
X156588345Y-90385912D01*
X156588345Y-90385912D02*
X156302631Y-90385912D01*
X156302631Y-90385912D02*
X156159774Y-90457341D01*
X155374059Y-91314484D02*
X155374059Y-91385912D01*
X155374059Y-91385912D02*
X155445488Y-91528769D01*
X155445488Y-91528769D02*
X155516916Y-91600198D01*
X152945488Y-91314484D02*
X153088345Y-91385912D01*
X153088345Y-91385912D02*
X153374059Y-91385912D01*
X153374059Y-91385912D02*
X153516916Y-91314484D01*
X153516916Y-91314484D02*
X153588345Y-91243055D01*
X153588345Y-91243055D02*
X153659773Y-91100198D01*
X153659773Y-91100198D02*
X153659773Y-90671626D01*
X153659773Y-90671626D02*
X153588345Y-90528769D01*
X153588345Y-90528769D02*
X153516916Y-90457341D01*
X153516916Y-90457341D02*
X153374059Y-90385912D01*
X153374059Y-90385912D02*
X153088345Y-90385912D01*
X153088345Y-90385912D02*
X152945488Y-90457341D01*
X152088345Y-91385912D02*
X152231202Y-91314484D01*
X152231202Y-91314484D02*
X152302631Y-91243055D01*
X152302631Y-91243055D02*
X152374059Y-91100198D01*
X152374059Y-91100198D02*
X152374059Y-90671626D01*
X152374059Y-90671626D02*
X152302631Y-90528769D01*
X152302631Y-90528769D02*
X152231202Y-90457341D01*
X152231202Y-90457341D02*
X152088345Y-90385912D01*
X152088345Y-90385912D02*
X151874059Y-90385912D01*
X151874059Y-90385912D02*
X151731202Y-90457341D01*
X151731202Y-90457341D02*
X151659774Y-90528769D01*
X151659774Y-90528769D02*
X151588345Y-90671626D01*
X151588345Y-90671626D02*
X151588345Y-91100198D01*
X151588345Y-91100198D02*
X151659774Y-91243055D01*
X151659774Y-91243055D02*
X151731202Y-91314484D01*
X151731202Y-91314484D02*
X151874059Y-91385912D01*
X151874059Y-91385912D02*
X152088345Y-91385912D01*
X150945488Y-90385912D02*
X150945488Y-91385912D01*
X150945488Y-90528769D02*
X150874059Y-90457341D01*
X150874059Y-90457341D02*
X150731202Y-90385912D01*
X150731202Y-90385912D02*
X150516916Y-90385912D01*
X150516916Y-90385912D02*
X150374059Y-90457341D01*
X150374059Y-90457341D02*
X150302631Y-90600198D01*
X150302631Y-90600198D02*
X150302631Y-91385912D01*
X149802630Y-90385912D02*
X149231202Y-90385912D01*
X149588345Y-89885912D02*
X149588345Y-91171626D01*
X149588345Y-91171626D02*
X149516916Y-91314484D01*
X149516916Y-91314484D02*
X149374059Y-91385912D01*
X149374059Y-91385912D02*
X149231202Y-91385912D01*
X148088345Y-91385912D02*
X148088345Y-90600198D01*
X148088345Y-90600198D02*
X148159773Y-90457341D01*
X148159773Y-90457341D02*
X148302630Y-90385912D01*
X148302630Y-90385912D02*
X148588345Y-90385912D01*
X148588345Y-90385912D02*
X148731202Y-90457341D01*
X148088345Y-91314484D02*
X148231202Y-91385912D01*
X148231202Y-91385912D02*
X148588345Y-91385912D01*
X148588345Y-91385912D02*
X148731202Y-91314484D01*
X148731202Y-91314484D02*
X148802630Y-91171626D01*
X148802630Y-91171626D02*
X148802630Y-91028769D01*
X148802630Y-91028769D02*
X148731202Y-90885912D01*
X148731202Y-90885912D02*
X148588345Y-90814484D01*
X148588345Y-90814484D02*
X148231202Y-90814484D01*
X148231202Y-90814484D02*
X148088345Y-90743055D01*
X146731202Y-91314484D02*
X146874059Y-91385912D01*
X146874059Y-91385912D02*
X147159773Y-91385912D01*
X147159773Y-91385912D02*
X147302630Y-91314484D01*
X147302630Y-91314484D02*
X147374059Y-91243055D01*
X147374059Y-91243055D02*
X147445487Y-91100198D01*
X147445487Y-91100198D02*
X147445487Y-90671626D01*
X147445487Y-90671626D02*
X147374059Y-90528769D01*
X147374059Y-90528769D02*
X147302630Y-90457341D01*
X147302630Y-90457341D02*
X147159773Y-90385912D01*
X147159773Y-90385912D02*
X146874059Y-90385912D01*
X146874059Y-90385912D02*
X146731202Y-90457341D01*
X146302630Y-90385912D02*
X145731202Y-90385912D01*
X146088345Y-89885912D02*
X146088345Y-91171626D01*
X146088345Y-91171626D02*
X146016916Y-91314484D01*
X146016916Y-91314484D02*
X145874059Y-91385912D01*
X145874059Y-91385912D02*
X145731202Y-91385912D01*
X164231203Y-93800828D02*
X164374060Y-93729400D01*
X164374060Y-93729400D02*
X164445489Y-93586542D01*
X164445489Y-93586542D02*
X164445489Y-92300828D01*
X163016918Y-93800828D02*
X163016918Y-93015114D01*
X163016918Y-93015114D02*
X163088346Y-92872257D01*
X163088346Y-92872257D02*
X163231203Y-92800828D01*
X163231203Y-92800828D02*
X163516918Y-92800828D01*
X163516918Y-92800828D02*
X163659775Y-92872257D01*
X163016918Y-93729400D02*
X163159775Y-93800828D01*
X163159775Y-93800828D02*
X163516918Y-93800828D01*
X163516918Y-93800828D02*
X163659775Y-93729400D01*
X163659775Y-93729400D02*
X163731203Y-93586542D01*
X163731203Y-93586542D02*
X163731203Y-93443685D01*
X163731203Y-93443685D02*
X163659775Y-93300828D01*
X163659775Y-93300828D02*
X163516918Y-93229400D01*
X163516918Y-93229400D02*
X163159775Y-93229400D01*
X163159775Y-93229400D02*
X163016918Y-93157971D01*
X162302632Y-93800828D02*
X162302632Y-92800828D01*
X162302632Y-93086542D02*
X162231203Y-92943685D01*
X162231203Y-92943685D02*
X162159775Y-92872257D01*
X162159775Y-92872257D02*
X162016917Y-92800828D01*
X162016917Y-92800828D02*
X161874060Y-92800828D01*
X161445489Y-93729400D02*
X161302632Y-93800828D01*
X161302632Y-93800828D02*
X161016918Y-93800828D01*
X161016918Y-93800828D02*
X160874061Y-93729400D01*
X160874061Y-93729400D02*
X160802632Y-93586542D01*
X160802632Y-93586542D02*
X160802632Y-93515114D01*
X160802632Y-93515114D02*
X160874061Y-93372257D01*
X160874061Y-93372257D02*
X161016918Y-93300828D01*
X161016918Y-93300828D02*
X161231204Y-93300828D01*
X161231204Y-93300828D02*
X161374061Y-93229400D01*
X161374061Y-93229400D02*
X161445489Y-93086542D01*
X161445489Y-93086542D02*
X161445489Y-93015114D01*
X161445489Y-93015114D02*
X161374061Y-92872257D01*
X161374061Y-92872257D02*
X161231204Y-92800828D01*
X161231204Y-92800828D02*
X161016918Y-92800828D01*
X161016918Y-92800828D02*
X160874061Y-92872257D01*
X160302632Y-92800828D02*
X160016918Y-93800828D01*
X160016918Y-93800828D02*
X159731203Y-93086542D01*
X159731203Y-93086542D02*
X159445489Y-93800828D01*
X159445489Y-93800828D02*
X159159775Y-92800828D01*
X157945489Y-93800828D02*
X157945489Y-92300828D01*
X157945489Y-93729400D02*
X158088346Y-93800828D01*
X158088346Y-93800828D02*
X158374060Y-93800828D01*
X158374060Y-93800828D02*
X158516917Y-93729400D01*
X158516917Y-93729400D02*
X158588346Y-93657971D01*
X158588346Y-93657971D02*
X158659774Y-93515114D01*
X158659774Y-93515114D02*
X158659774Y-93086542D01*
X158659774Y-93086542D02*
X158588346Y-92943685D01*
X158588346Y-92943685D02*
X158516917Y-92872257D01*
X158516917Y-92872257D02*
X158374060Y-92800828D01*
X158374060Y-92800828D02*
X158088346Y-92800828D01*
X158088346Y-92800828D02*
X157945489Y-92872257D01*
X156302631Y-93086542D02*
X156374060Y-93015114D01*
X156374060Y-93015114D02*
X156516917Y-92943685D01*
X156516917Y-92943685D02*
X156659774Y-92943685D01*
X156659774Y-92943685D02*
X156802631Y-93015114D01*
X156802631Y-93015114D02*
X156874060Y-93086542D01*
X156874060Y-93086542D02*
X156945488Y-93229400D01*
X156945488Y-93229400D02*
X156945488Y-93372257D01*
X156945488Y-93372257D02*
X156874060Y-93515114D01*
X156874060Y-93515114D02*
X156802631Y-93586542D01*
X156802631Y-93586542D02*
X156659774Y-93657971D01*
X156659774Y-93657971D02*
X156516917Y-93657971D01*
X156516917Y-93657971D02*
X156374060Y-93586542D01*
X156374060Y-93586542D02*
X156302631Y-93515114D01*
X156302631Y-92943685D02*
X156302631Y-93515114D01*
X156302631Y-93515114D02*
X156231203Y-93586542D01*
X156231203Y-93586542D02*
X156159774Y-93586542D01*
X156159774Y-93586542D02*
X156016917Y-93515114D01*
X156016917Y-93515114D02*
X155945488Y-93372257D01*
X155945488Y-93372257D02*
X155945488Y-93015114D01*
X155945488Y-93015114D02*
X156088346Y-92800828D01*
X156088346Y-92800828D02*
X156302631Y-92657971D01*
X156302631Y-92657971D02*
X156588346Y-92586542D01*
X156588346Y-92586542D02*
X156874060Y-92657971D01*
X156874060Y-92657971D02*
X157088346Y-92800828D01*
X157088346Y-92800828D02*
X157231203Y-93015114D01*
X157231203Y-93015114D02*
X157302631Y-93300828D01*
X157302631Y-93300828D02*
X157231203Y-93586542D01*
X157231203Y-93586542D02*
X157088346Y-93800828D01*
X157088346Y-93800828D02*
X156874060Y-93943685D01*
X156874060Y-93943685D02*
X156588346Y-94015114D01*
X156588346Y-94015114D02*
X156302631Y-93943685D01*
X156302631Y-93943685D02*
X156088346Y-93800828D01*
X155302632Y-92800828D02*
X155302632Y-94300828D01*
X155302632Y-92872257D02*
X155159775Y-92800828D01*
X155159775Y-92800828D02*
X154874060Y-92800828D01*
X154874060Y-92800828D02*
X154731203Y-92872257D01*
X154731203Y-92872257D02*
X154659775Y-92943685D01*
X154659775Y-92943685D02*
X154588346Y-93086542D01*
X154588346Y-93086542D02*
X154588346Y-93515114D01*
X154588346Y-93515114D02*
X154659775Y-93657971D01*
X154659775Y-93657971D02*
X154731203Y-93729400D01*
X154731203Y-93729400D02*
X154874060Y-93800828D01*
X154874060Y-93800828D02*
X155159775Y-93800828D01*
X155159775Y-93800828D02*
X155302632Y-93729400D01*
X153945489Y-93800828D02*
X153945489Y-92800828D01*
X153945489Y-93086542D02*
X153874060Y-92943685D01*
X153874060Y-92943685D02*
X153802632Y-92872257D01*
X153802632Y-92872257D02*
X153659774Y-92800828D01*
X153659774Y-92800828D02*
X153516917Y-92800828D01*
X152802632Y-93800828D02*
X152945489Y-93729400D01*
X152945489Y-93729400D02*
X153016918Y-93657971D01*
X153016918Y-93657971D02*
X153088346Y-93515114D01*
X153088346Y-93515114D02*
X153088346Y-93086542D01*
X153088346Y-93086542D02*
X153016918Y-92943685D01*
X153016918Y-92943685D02*
X152945489Y-92872257D01*
X152945489Y-92872257D02*
X152802632Y-92800828D01*
X152802632Y-92800828D02*
X152588346Y-92800828D01*
X152588346Y-92800828D02*
X152445489Y-92872257D01*
X152445489Y-92872257D02*
X152374061Y-92943685D01*
X152374061Y-92943685D02*
X152302632Y-93086542D01*
X152302632Y-93086542D02*
X152302632Y-93515114D01*
X152302632Y-93515114D02*
X152374061Y-93657971D01*
X152374061Y-93657971D02*
X152445489Y-93729400D01*
X152445489Y-93729400D02*
X152588346Y-93800828D01*
X152588346Y-93800828D02*
X152802632Y-93800828D01*
X151874060Y-92800828D02*
X151302632Y-92800828D01*
X151659775Y-92300828D02*
X151659775Y-93586542D01*
X151659775Y-93586542D02*
X151588346Y-93729400D01*
X151588346Y-93729400D02*
X151445489Y-93800828D01*
X151445489Y-93800828D02*
X151302632Y-93800828D01*
X150588346Y-93800828D02*
X150731203Y-93729400D01*
X150731203Y-93729400D02*
X150802632Y-93657971D01*
X150802632Y-93657971D02*
X150874060Y-93515114D01*
X150874060Y-93515114D02*
X150874060Y-93086542D01*
X150874060Y-93086542D02*
X150802632Y-92943685D01*
X150802632Y-92943685D02*
X150731203Y-92872257D01*
X150731203Y-92872257D02*
X150588346Y-92800828D01*
X150588346Y-92800828D02*
X150374060Y-92800828D01*
X150374060Y-92800828D02*
X150231203Y-92872257D01*
X150231203Y-92872257D02*
X150159775Y-92943685D01*
X150159775Y-92943685D02*
X150088346Y-93086542D01*
X150088346Y-93086542D02*
X150088346Y-93515114D01*
X150088346Y-93515114D02*
X150159775Y-93657971D01*
X150159775Y-93657971D02*
X150231203Y-93729400D01*
X150231203Y-93729400D02*
X150374060Y-93800828D01*
X150374060Y-93800828D02*
X150588346Y-93800828D01*
X149445489Y-92800828D02*
X149445489Y-93800828D01*
X149445489Y-92943685D02*
X149374060Y-92872257D01*
X149374060Y-92872257D02*
X149231203Y-92800828D01*
X149231203Y-92800828D02*
X149016917Y-92800828D01*
X149016917Y-92800828D02*
X148874060Y-92872257D01*
X148874060Y-92872257D02*
X148802632Y-93015114D01*
X148802632Y-93015114D02*
X148802632Y-93800828D01*
X148088346Y-93657971D02*
X148016917Y-93729400D01*
X148016917Y-93729400D02*
X148088346Y-93800828D01*
X148088346Y-93800828D02*
X148159774Y-93729400D01*
X148159774Y-93729400D02*
X148088346Y-93657971D01*
X148088346Y-93657971D02*
X148088346Y-93800828D01*
X147374060Y-93800828D02*
X147374060Y-92800828D01*
X147374060Y-92943685D02*
X147302631Y-92872257D01*
X147302631Y-92872257D02*
X147159774Y-92800828D01*
X147159774Y-92800828D02*
X146945488Y-92800828D01*
X146945488Y-92800828D02*
X146802631Y-92872257D01*
X146802631Y-92872257D02*
X146731203Y-93015114D01*
X146731203Y-93015114D02*
X146731203Y-93800828D01*
X146731203Y-93015114D02*
X146659774Y-92872257D01*
X146659774Y-92872257D02*
X146516917Y-92800828D01*
X146516917Y-92800828D02*
X146302631Y-92800828D01*
X146302631Y-92800828D02*
X146159774Y-92872257D01*
X146159774Y-92872257D02*
X146088345Y-93015114D01*
X146088345Y-93015114D02*
X146088345Y-93800828D01*
X144802631Y-93729400D02*
X144945488Y-93800828D01*
X144945488Y-93800828D02*
X145231203Y-93800828D01*
X145231203Y-93800828D02*
X145374060Y-93729400D01*
X145374060Y-93729400D02*
X145445488Y-93586542D01*
X145445488Y-93586542D02*
X145445488Y-93015114D01*
X145445488Y-93015114D02*
X145374060Y-92872257D01*
X145374060Y-92872257D02*
X145231203Y-92800828D01*
X145231203Y-92800828D02*
X144945488Y-92800828D01*
X144945488Y-92800828D02*
X144802631Y-92872257D01*
X144802631Y-92872257D02*
X144731203Y-93015114D01*
X144731203Y-93015114D02*
X144731203Y-93157971D01*
X144731203Y-93157971D02*
X145445488Y-93300828D01*
M02*
