M48
; DRILL file {KiCad 9.0.8} date 2026-05-11T11:07:17+0200
; FORMAT={-:-/ absolute / metric / decimal}
; #@! TF.CreationDate,2026-05-11T11:07:17+02:00
; #@! TF.GenerationSoftware,Kicad,Pcbnew,9.0.8
; #@! TF.FileFunction,Plated,1,2,PTH
FMAT,2
METRIC
; #@! TA.AperFunction,Plated,PTH,ViaDrill
T1C0.300
; #@! TA.AperFunction,Plated,PTH,ComponentDrill
T2C1.000
; #@! TA.AperFunction,Plated,PTH,ComponentDrill
T3C3.000
%
G90
G05
T1
X153.46Y-76.46
X153.5Y-65.0
X153.5Y-68.5
X154.0Y-41.0
X154.5Y-55.5
X156.25Y-51.25
X156.5Y-76.5
X157.0Y-62.084
X163.5Y-71.5
X164.5Y-50.5
X165.5Y-74.5
X168.0Y-68.5
X169.5Y-86.0
X170.5Y-81.0
X171.0Y-68.5
X171.5Y-51.6
X171.75Y-56.75
X172.0Y-103.0
X174.5Y-86.0
X176.0Y-92.5
X177.0Y-68.5
X177.44Y-57.56
X178.5Y-97.5
X180.0Y-61.5
X180.0Y-123.5
X180.5Y-97.5
X181.0Y-120.0
X181.5Y-117.5
T2
X147.85Y-92.55
X147.85Y-100.55
X148.5Y-126.5
X149.0Y-78.38
X149.0Y-80.92
X149.0Y-83.46
X149.0Y-86.0
X149.2Y-28.76
X149.2Y-31.3
X149.2Y-33.84
X149.2Y-36.38
X149.2Y-38.92
X149.2Y-41.46
X149.2Y-44.0
X149.2Y-46.54
X149.2Y-49.08
X149.2Y-51.62
X149.2Y-54.16
X149.2Y-56.7
X151.0Y-109.38
X151.0Y-111.92
X151.0Y-114.46
X151.0Y-117.0
X151.0Y-119.54
X151.26Y-92.55
X151.26Y-100.55
X152.0Y-127.0
X165.0Y-127.5
X166.965Y-28.74
X166.965Y-31.28
X166.965Y-33.82
X166.965Y-36.36
X166.965Y-38.9
X166.965Y-41.44
X166.965Y-43.98
X166.965Y-46.52
X166.965Y-49.06
X166.965Y-51.6
X166.965Y-54.14
X166.965Y-56.68
X167.5Y-127.5
X183.5Y-35.9
X183.5Y-38.44
X183.5Y-40.98
X183.5Y-43.52
X183.5Y-46.06
X183.5Y-48.6
X183.5Y-51.14
X183.5Y-53.68
X183.5Y-56.22
X183.5Y-58.76
X183.5Y-61.3
X183.5Y-63.84
X183.5Y-66.38
X183.5Y-68.92
X183.5Y-71.46
X183.5Y-74.0
X183.5Y-76.54
X183.5Y-79.08
X183.5Y-81.62
X183.5Y-84.16
X183.5Y-86.7
X183.5Y-89.24
X186.05Y-107.24
X186.05Y-110.65
X205.0Y-106.472
X205.0Y-109.012
X205.0Y-111.552
X205.0Y-114.093
X205.0Y-116.632
X205.0Y-119.172
X205.0Y-121.712
X205.0Y-124.252
T3
X186.5Y-29.5
X186.5Y-95.5
X245.5Y-29.5
X245.5Y-95.5
M30
