M48
; DRILL file {KiCad 9.0.4-1.fc42} date 2025-10-10T15:13:47+0200
; FORMAT={-:-/ absolute / inch / decimal}
; #@! TF.CreationDate,2025-10-10T15:13:47+02:00
; #@! TF.GenerationSoftware,Kicad,Pcbnew,9.0.4-1.fc42
; #@! TF.FileFunction,MixedPlating,1,2
FMAT,2
INCH
; #@! TA.AperFunction,Plated,PTH,ViaDrill
T1C0.0118
; #@! TA.AperFunction,Plated,PTH,ComponentDrill
T2C0.0394
; #@! TA.AperFunction,Plated,PTH,ComponentDrill
T3C0.1181
%
G90
G05
T1
X6.0417Y-3.0102
X6.0433Y-2.5591
X6.0433Y-2.6969
X6.063Y-1.6142
X6.0827Y-2.185
X6.1516Y-2.0177
X6.1614Y-3.0118
X6.1811Y-2.4442
X6.3386Y-3.2283
X6.437Y-2.815
X6.4764Y-1.9882
X6.5157Y-2.9331
X6.6142Y-2.6969
X6.6732Y-3.3858
X6.7126Y-3.189
X6.752Y-2.0315
X6.7618Y-2.2343
X6.8701Y-2.8346
X6.8701Y-3.3858
X6.9291Y-3.6417
X6.9685Y-2.6969
X6.9858Y-2.2661
X7.0276Y-4.311
X7.0866Y-2.4213
X7.0866Y-4.8622
X7.1063Y-4.3079
X7.126Y-4.7244
X7.1457Y-4.626
T2
X5.8465Y-4.9803
X5.8661Y-3.0858
X5.8661Y-3.1858
X5.8661Y-3.2858
X5.8661Y-3.3858
X5.874Y-1.1323
X5.874Y-1.2323
X5.874Y-1.3323
X5.874Y-1.4323
X5.874Y-1.5323
X5.874Y-1.6323
X5.874Y-1.7323
X5.874Y-1.8323
X5.874Y-1.9323
X5.874Y-2.0323
X5.874Y-2.1323
X5.874Y-2.2323
X5.9449Y-4.2276
X5.9449Y-4.3276
X5.9449Y-4.4276
X5.9449Y-4.5276
X5.9449Y-4.6276
X5.9843Y-5.0
X6.4961Y-5.0197
X6.5734Y-1.1315
X6.5734Y-1.2315
X6.5734Y-1.3315
X6.5734Y-1.4315
X6.5734Y-1.5315
X6.5734Y-1.6315
X6.5734Y-1.7315
X6.5734Y-1.8315
X6.5734Y-1.9315
X6.5734Y-2.0315
X6.5734Y-2.1315
X6.5734Y-2.2315
X6.5945Y-5.0197
X7.2244Y-1.4134
X7.2244Y-1.5134
X7.2244Y-1.6134
X7.2244Y-1.7134
X7.2244Y-1.8134
X7.2244Y-1.9134
X7.2244Y-2.0134
X7.2244Y-2.1134
X7.2244Y-2.2134
X7.2244Y-2.3134
X7.2244Y-2.4134
X7.2244Y-2.5134
X7.2244Y-2.6134
X7.2244Y-2.7134
X7.2244Y-2.8134
X7.2244Y-2.9134
X7.2244Y-3.0134
X7.2244Y-3.1134
X7.2244Y-3.2134
X7.2244Y-3.3134
X7.2244Y-3.4134
X7.2244Y-3.5134
X7.3248Y-4.222
X7.3248Y-4.3563
X8.0709Y-4.1918
X8.0709Y-4.2918
X8.0709Y-4.3918
X8.0709Y-4.4918
X8.0709Y-4.5918
X8.0709Y-4.6918
X8.0709Y-4.7918
X8.0709Y-4.8918
T3
X7.3425Y-1.1614
X7.3425Y-3.7598
X9.6654Y-1.1614
X9.6654Y-3.7598
M30
