%TF.GenerationSoftware,KiCad,Pcbnew,9.0.8*%
%TF.CreationDate,2026-05-11T11:07:20+02:00*%
%TF.ProjectId,BST_PCB,4253545f-5043-4422-9e6b-696361645f70,rev?*%
%TF.SameCoordinates,Original*%
%TF.FileFunction,Copper,L2,Bot*%
%TF.FilePolarity,Positive*%
%FSLAX46Y46*%
G04 Gerber Fmt 4.6, Leading zero omitted, Abs format (unit mm)*
G04 Created by KiCad (PCBNEW 9.0.8) date 2026-05-11 11:07:20*
%MOMM*%
%LPD*%
G01*
G04 APERTURE LIST*
%TA.AperFunction,ComponentPad*%
%ADD10C,1.700000*%
%TD*%
%TA.AperFunction,ComponentPad*%
%ADD11R,1.700000X1.700000*%
%TD*%
%TA.AperFunction,ComponentPad*%
%ADD12C,5.000000*%
%TD*%
%TA.AperFunction,ComponentPad*%
%ADD13O,1.700000X1.700000*%
%TD*%
%TA.AperFunction,ViaPad*%
%ADD14C,0.600000*%
%TD*%
%TA.AperFunction,Conductor*%
%ADD15C,0.300000*%
%TD*%
%TA.AperFunction,Conductor*%
%ADD16C,0.700000*%
%TD*%
%TA.AperFunction,Conductor*%
%ADD17C,0.200000*%
%TD*%
G04 APERTURE END LIST*
D10*
%TO.P,Supercap1,5V,5v*%
%TO.N,N/C*%
X151260000Y-92550000D03*
D11*
%TO.P,Supercap1,vout,GND*%
%TO.N,GND*%
X147850000Y-92550000D03*
%TD*%
D10*
%TO.P,Supercap2,5V,5v*%
%TO.N,N/C*%
X151260000Y-100550000D03*
D11*
%TO.P,Supercap2,vout,GND*%
%TO.N,GND*%
X147850000Y-100550000D03*
%TD*%
%TO.P,Supercap reserve,vout,GND*%
%TO.N,GND*%
X186050000Y-110650000D03*
D10*
%TO.P,Supercap reserve,5V,5v*%
%TO.N,5v*%
X186050000Y-107240000D03*
%TD*%
D12*
%TO.P,,Vin,Vin*%
%TO.N,N/C*%
X186500000Y-95500000D03*
%TD*%
D10*
%TO.P,Pololu,En*%
%TO.N,N/C*%
X151000000Y-109380000D03*
D11*
%TO.P,Pololu,GND*%
%TO.N,GND*%
X151000000Y-117000000D03*
%TO.P,Pololu,Gn,GND*%
X151000000Y-114460000D03*
D10*
%TO.P,Pololu,Vin*%
%TO.N,VBAT*%
X151000000Y-111920000D03*
%TO.P,Pololu,Vout,Vin*%
%TO.N,5v*%
X151000000Y-119540000D03*
%TD*%
%TO.P,,Vin,Vin*%
%TO.N,VBAT*%
X148500000Y-126500000D03*
%TD*%
D11*
%TO.P,,Gn,GND*%
%TO.N,GND*%
X165000000Y-127500000D03*
%TD*%
%TO.P,,Gn,GND*%
%TO.N,GND*%
X167500000Y-127500000D03*
%TD*%
D12*
%TO.P,,Vin,Vin*%
%TO.N,N/C*%
X186500000Y-29500000D03*
%TD*%
%TO.P,,Vin,Vin*%
%TO.N,N/C*%
X245500000Y-95500000D03*
%TD*%
D10*
%TO.P,SD card reader,3v*%
%TO.N,N/C*%
X205000000Y-109012500D03*
%TO.P,SD card reader,5v*%
%TO.N,5v*%
X205000000Y-106472500D03*
%TO.P,SD card reader,CD,CD*%
%TO.N,unconnected-(U2-PadCD)*%
X205000000Y-124252500D03*
%TO.P,SD card reader,CLK,CLK*%
%TO.N,Net-(U1-SCK)*%
X205000000Y-114092500D03*
%TO.P,SD card reader,CS,CS*%
%TO.N,Net-(U1-NSS)*%
X205000000Y-121712500D03*
%TO.P,SD card reader,DI,DI*%
%TO.N,Net-(U1-MOSI)*%
X205000000Y-119172500D03*
%TO.P,SD card reader,DO,DO*%
%TO.N,Net-(U1-MISO)*%
X205000000Y-116632500D03*
D11*
%TO.P,SD card reader,Gn,GND*%
%TO.N,GND*%
X205000000Y-111552500D03*
%TD*%
D10*
%TO.P,U3,CLK*%
%TO.N,Net-(U1-CLK)*%
X149000000Y-83460000D03*
%TO.P,U3,DIO*%
%TO.N,Net-(U1-DIO)*%
X149000000Y-86000000D03*
D11*
%TO.P,U3,Gn,GND*%
%TO.N,GND*%
X149000000Y-78380000D03*
D10*
%TO.P,U3,RST*%
%TO.N,Net-(NC2-AUX1)*%
X149000000Y-80920000D03*
%TD*%
%TO.P,,Vin,Vin*%
%TO.N,VBAT*%
X152000000Y-127000000D03*
%TD*%
D13*
%TO.P,Wio,3V,3\u002C3V*%
%TO.N,unconnected-(U1-3\u002C3V-Pad3V)*%
X149200000Y-54160000D03*
%TO.P,Wio,5V,5V*%
%TO.N,5v*%
X149200000Y-56700000D03*
%TO.P,Wio,A0,SDA*%
%TO.N,Net-(NC2-SDA)*%
X166965000Y-51600000D03*
%TO.P,Wio,A1,SCK*%
%TO.N,Net-(U1-SCK)*%
X149200000Y-33840000D03*
%TO.P,Wio,A3,A3*%
%TO.N,unconnected-(U1-PadA3)*%
X166965000Y-46520000D03*
%TO.P,Wio,A4,A4*%
%TO.N,unconnected-(U1-PadA4)*%
X166965000Y-49060000D03*
%TO.P,Wio,A5,MOSI*%
%TO.N,Net-(U1-MOSI)*%
X149200000Y-41460000D03*
%TO.P,Wio,A6,CLK*%
%TO.N,Net-(U1-MISO)*%
X149200000Y-38920000D03*
%TO.P,Wio,A7,DIO*%
%TO.N,Net-(U1-DIO)*%
X149200000Y-51620000D03*
%TO.P,Wio,CLK*%
%TO.N,Net-(U1-CLK)*%
X149200000Y-49080000D03*
%TO.P,Wio,D0,D0*%
%TO.N,unconnected-(U1-PadD0)*%
X166965000Y-38900000D03*
%TO.P,Wio,D8,SCL*%
%TO.N,Net-(NC2-SCL)*%
X166965000Y-54140000D03*
%TO.P,Wio,D9,D9*%
%TO.N,unconnected-(U1-PadD9)*%
X149200000Y-28760000D03*
%TO.P,Wio,D10,D10*%
%TO.N,unconnected-(U1-PadD10)*%
X149200000Y-31300000D03*
D11*
%TO.P,Wio,Gn,GND*%
%TO.N,GND*%
X149200000Y-44000000D03*
X166965000Y-56680000D03*
D13*
%TO.P,Wio,NSS*%
%TO.N,Net-(U1-NSS)*%
X149200000Y-36380000D03*
%TO.P,Wio,RST,RST*%
%TO.N,Net-(NC2-AUX1)*%
X149200000Y-46540000D03*
%TO.P,Wio,RX0,RX*%
%TO.N,unconnected-(U1-RX-PadRX0)*%
X166965000Y-43980000D03*
%TO.P,Wio,RX1,RX1*%
%TO.N,unconnected-(U1-PadRX1)*%
X166965000Y-36360000D03*
%TO.P,Wio,RX2,RX2*%
%TO.N,unconnected-(U1-PadRX2)*%
X166965000Y-31280000D03*
%TO.P,Wio,TX0,TX*%
%TO.N,unconnected-(U1-TX-PadTX0)*%
X166965000Y-41440000D03*
%TO.P,Wio,TX1,TX1*%
%TO.N,unconnected-(U1-PadTX1)*%
X166965000Y-33820000D03*
%TO.P,Wio,TX2,TX2*%
%TO.N,unconnected-(U1-PadTX2)*%
X166965000Y-28740000D03*
%TD*%
D12*
%TO.P,,Vin,Vin*%
%TO.N,N/C*%
X245500000Y-29500000D03*
%TD*%
D10*
%TO.P,NC2,*%
%TO.N,*%
X183500000Y-58760000D03*
X183500000Y-46060000D03*
%TO.P,NC2,1n,VUSB*%
%TO.N,unconnected-(NC2-VUSB-Pad1n)*%
X183500000Y-35900000D03*
%TO.P,NC2,2n,BAT*%
%TO.N,unconnected-(NC2-BAT-Pad2n)*%
X183500000Y-38440000D03*
%TO.P,NC2,3n,MAIN*%
%TO.N,unconnected-(NC2-MAIN-Pad3n)*%
X183500000Y-40980000D03*
%TO.P,NC2,4n,VIO*%
%TO.N,unconnected-(NC2-VIO-Pad4n)*%
X183500000Y-43520000D03*
%TO.P,NC2,5n,VIN*%
%TO.N,unconnected-(NC2-VIN-Pad5n)*%
X183500000Y-53680000D03*
%TO.P,NC2,5v*%
%TO.N,5v*%
X183500000Y-48600000D03*
%TO.P,NC2,6n,RST*%
%TO.N,N/C*%
X183500000Y-56220000D03*
%TO.P,NC2,7n,SCL*%
%TO.N,Net-(NC2-SCL)*%
X183500000Y-61300000D03*
%TO.P,NC2,8n,SDA*%
%TO.N,Net-(NC2-SDA)*%
X183500000Y-63840000D03*
%TO.P,NC2,9n,ATTN*%
%TO.N,unconnected-(NC2-ATTN-Pad9n)*%
X183500000Y-66380000D03*
%TO.P,NC2,10n,AUXEN*%
%TO.N,unconnected-(NC2-AUXEN-Pad10n)*%
X183500000Y-68920000D03*
%TO.P,NC2,11n,AUXRX*%
%TO.N,unconnected-(NC2-AUXRX-Pad11n)*%
X183500000Y-71460000D03*
%TO.P,NC2,12n,AUXTX*%
%TO.N,unconnected-(NC2-AUXTX-Pad12n)*%
X183500000Y-74000000D03*
%TO.P,NC2,13n,AUX1*%
%TO.N,Net-(NC2-AUX1)*%
X183500000Y-76540000D03*
%TO.P,NC2,14n,AUX2*%
%TO.N,unconnected-(NC2-AUX2-Pad14n)*%
X183500000Y-79080000D03*
%TO.P,NC2,15n,AUX3*%
%TO.N,unconnected-(NC2-AUX3-Pad15n)*%
X183500000Y-81620000D03*
%TO.P,NC2,16n,AUX4*%
%TO.N,unconnected-(NC2-AUX4-Pad16n)*%
X183500000Y-84160000D03*
%TO.P,NC2,17n,RX*%
%TO.N,unconnected-(NC2-RX-Pad17n)*%
X183500000Y-86700000D03*
%TO.P,NC2,18n,TX*%
%TO.N,unconnected-(NC2-TX-Pad18n)*%
X183500000Y-89240000D03*
D11*
%TO.P,NC2,Gn,GND*%
%TO.N,GND*%
X183500000Y-51140000D03*
%TD*%
D14*
%TO.N,Net-(NC2-SCL)*%
X171750000Y-56750000D03*
X180000000Y-61500000D03*
%TO.N,Net-(NC2-AUX1)*%
X154500000Y-55500000D03*
X163500000Y-71500000D03*
X177000000Y-68500000D03*
X153500000Y-65000000D03*
X153500000Y-68500000D03*
X153460000Y-76460000D03*
%TO.N,Net-(NC2-SDA)*%
X177440000Y-57560000D03*
X171500000Y-51600000D03*
%TO.N,Net-(U1-SCK)*%
X164500000Y-50500000D03*
X172000000Y-103000000D03*
%TO.N,Net-(U1-MOSI)*%
X168000000Y-68500000D03*
X178500000Y-97500000D03*
X170500000Y-81000000D03*
X181000000Y-120000000D03*
%TO.N,Net-(U1-DIO)*%
X157000000Y-62083721D03*
X156500000Y-76500000D03*
%TO.N,Net-(U1-MISO)*%
X181500000Y-117500000D03*
X180500000Y-97500000D03*
X171000000Y-68500000D03*
X174500000Y-86000000D03*
%TO.N,Net-(U1-NSS)*%
X156250000Y-51250000D03*
X176000000Y-92500000D03*
X165500000Y-74500000D03*
X169500000Y-86000000D03*
X180000000Y-123500000D03*
X154000000Y-41000000D03*
%TD*%
D15*
%TO.N,Net-(U1-MISO)*%
X180500000Y-116500000D02*
X181500000Y-117500000D01*
X180500000Y-97500000D02*
X180500000Y-116500000D01*
%TO.N,Net-(U1-MOSI)*%
X178500000Y-97500000D02*
X178500000Y-117500000D01*
X178500000Y-117500000D02*
X181000000Y-120000000D01*
%TO.N,Net-(U1-SCK)*%
X172000000Y-103000000D02*
X161000000Y-92000000D01*
X161000000Y-92000000D02*
X161000000Y-67500000D01*
X161000000Y-67500000D02*
X164500000Y-64000000D01*
X164500000Y-64000000D02*
X164500000Y-50500000D01*
D16*
%TO.N,GND*%
X154250000Y-111750000D02*
X162250000Y-111750000D01*
X149500000Y-63500000D02*
X146000000Y-60000000D01*
X194000000Y-112500000D02*
X195500000Y-111000000D01*
X195500000Y-121052500D02*
X205000000Y-111552500D01*
X149000000Y-68080000D02*
X149580000Y-67500000D01*
X157500000Y-83500000D02*
X152380000Y-78380000D01*
X162250000Y-111750000D02*
X165000000Y-114500000D01*
X157500000Y-107000000D02*
X157500000Y-83500000D01*
X153540000Y-112460000D02*
X154250000Y-111750000D01*
X169000000Y-129000000D02*
X187552500Y-129000000D01*
X165000000Y-123000000D02*
X165000000Y-127500000D01*
X195500000Y-63140000D02*
X183500000Y-51140000D01*
X165000000Y-114500000D02*
X165000000Y-115000000D01*
X152380000Y-78380000D02*
X149000000Y-78380000D01*
X149500000Y-67420000D02*
X149500000Y-63500000D01*
X195500000Y-111000000D02*
X195500000Y-63140000D01*
D17*
X149620000Y-67540000D02*
X149580000Y-67500000D01*
D16*
X165000000Y-123000000D02*
X167500000Y-125500000D01*
D17*
X157420000Y-106920000D02*
X157500000Y-107000000D01*
D16*
X188000000Y-112500000D02*
X194000000Y-112500000D01*
X146000000Y-60000000D02*
X146000000Y-47200000D01*
X195500000Y-121052500D02*
X195500000Y-111000000D01*
X149000000Y-78380000D02*
X149000000Y-68080000D01*
X165000000Y-115000000D02*
X165000000Y-123000000D01*
X146000000Y-47200000D02*
X149200000Y-44000000D01*
X167500000Y-127500000D02*
X169000000Y-129000000D01*
X186050000Y-110550000D02*
X188000000Y-112500000D01*
X151000000Y-115000000D02*
X154250000Y-111750000D01*
X167500000Y-125500000D02*
X167500000Y-127500000D01*
X187552500Y-129000000D02*
X195500000Y-121052500D01*
X157500000Y-107000000D02*
X162250000Y-111750000D01*
D17*
X149580000Y-67500000D02*
X149500000Y-67420000D01*
D15*
%TO.N,Net-(NC2-SCL)*%
X171750000Y-56750000D02*
X176500000Y-61500000D01*
X176500000Y-61500000D02*
X180000000Y-61500000D01*
%TO.N,Net-(NC2-AUX1)*%
X168250000Y-63250000D02*
X163500000Y-68000000D01*
X154500000Y-64000000D02*
X154500000Y-55500000D01*
X163500000Y-68000000D02*
X163500000Y-71500000D01*
X171750000Y-63250000D02*
X168250000Y-63250000D01*
X153500000Y-68500000D02*
X153500000Y-76420000D01*
D17*
X153500000Y-76420000D02*
X153460000Y-76460000D01*
D15*
X177000000Y-68500000D02*
X171750000Y-63250000D01*
X153500000Y-65000000D02*
X154500000Y-64000000D01*
%TO.N,Net-(NC2-SDA)*%
X177440000Y-57540000D02*
X171500000Y-51600000D01*
D17*
X177440000Y-57560000D02*
X177440000Y-57540000D01*
D15*
%TO.N,Net-(U1-MOSI)*%
X170500000Y-71000000D02*
X170500000Y-81000000D01*
X168000000Y-68500000D02*
X170500000Y-71000000D01*
%TO.N,Net-(U1-DIO)*%
X156500000Y-67000000D02*
X157000000Y-66500000D01*
X156500000Y-76500000D02*
X156500000Y-67000000D01*
X157000000Y-66500000D02*
X157000000Y-62083721D01*
%TO.N,Net-(U1-MISO)*%
X171000000Y-68500000D02*
X174500000Y-72000000D01*
X174500000Y-72000000D02*
X174500000Y-86000000D01*
%TO.N,Net-(U1-NSS)*%
X155500000Y-42500000D02*
X155500000Y-50500000D01*
X165500000Y-82000000D02*
X165500000Y-74500000D01*
X155500000Y-50500000D02*
X156250000Y-51250000D01*
X169500000Y-86000000D02*
X165500000Y-82000000D01*
X176000000Y-119500000D02*
X176000000Y-92500000D01*
X180000000Y-123500000D02*
X176000000Y-119500000D01*
X154000000Y-41000000D02*
X155500000Y-42500000D01*
%TD*%
%TA.AperFunction,Conductor*%
%TO.N,GND*%
G36*
X167034075Y-127307007D02*
G01*
X167000000Y-127434174D01*
X167000000Y-127565826D01*
X167034075Y-127692993D01*
X167066988Y-127750000D01*
X165433012Y-127750000D01*
X165465925Y-127692993D01*
X165500000Y-127565826D01*
X165500000Y-127434174D01*
X165465925Y-127307007D01*
X165433012Y-127250000D01*
X167066988Y-127250000D01*
X167034075Y-127307007D01*
G37*
%TD.AperFunction*%
%TA.AperFunction,Conductor*%
G36*
X151250000Y-116566988D02*
G01*
X151192993Y-116534075D01*
X151065826Y-116500000D01*
X150934174Y-116500000D01*
X150807007Y-116534075D01*
X150750000Y-116566988D01*
X150750000Y-114893012D01*
X150807007Y-114925925D01*
X150934174Y-114960000D01*
X151065826Y-114960000D01*
X151192993Y-114925925D01*
X151250000Y-114893012D01*
X151250000Y-116566988D01*
G37*
%TD.AperFunction*%
%TA.AperFunction,Conductor*%
G36*
X249942539Y-25520185D02*
G01*
X249988294Y-25572989D01*
X249999500Y-25624500D01*
X249999500Y-130875500D01*
X249979815Y-130942539D01*
X249927011Y-130988294D01*
X249875500Y-130999500D01*
X144624500Y-130999500D01*
X144557461Y-130979815D01*
X144511706Y-130927011D01*
X144500500Y-130875500D01*
X144500500Y-126393713D01*
X147149500Y-126393713D01*
X147149500Y-126606287D01*
X147182754Y-126816243D01*
X147193892Y-126850523D01*
X147248444Y-127018414D01*
X147344951Y-127207820D01*
X147469890Y-127379786D01*
X147620213Y-127530109D01*
X147792179Y-127655048D01*
X147792181Y-127655049D01*
X147792184Y-127655051D01*
X147981588Y-127751557D01*
X148183757Y-127817246D01*
X148393713Y-127850500D01*
X148393714Y-127850500D01*
X148606286Y-127850500D01*
X148606287Y-127850500D01*
X148816243Y-127817246D01*
X149018412Y-127751557D01*
X149207816Y-127655051D01*
X149330625Y-127565826D01*
X149379786Y-127530109D01*
X149379788Y-127530106D01*
X149379792Y-127530104D01*
X149530104Y-127379792D01*
X149530106Y-127379788D01*
X149530109Y-127379786D01*
X149655048Y-127207820D01*
X149655047Y-127207820D01*
X149655051Y-127207816D01*
X149751557Y-127018412D01*
X149792074Y-126893713D01*
X150649500Y-126893713D01*
X150649500Y-127106287D01*
X150682754Y-127316243D01*
X150721072Y-127434174D01*
X150748444Y-127518414D01*
X150844951Y-127707820D01*
X150969890Y-127879786D01*
X151120213Y-128030109D01*
X151292179Y-128155048D01*
X151292181Y-128155049D01*
X151292184Y-128155051D01*
X151481588Y-128251557D01*
X151683757Y-128317246D01*
X151893713Y-128350500D01*
X151893714Y-128350500D01*
X152106286Y-128350500D01*
X152106287Y-128350500D01*
X152316243Y-128317246D01*
X152518412Y-128251557D01*
X152707816Y-128155051D01*
X152729789Y-128139086D01*
X152879786Y-128030109D01*
X152879788Y-128030106D01*
X152879792Y-128030104D01*
X153030104Y-127879792D01*
X153030106Y-127879788D01*
X153030109Y-127879786D01*
X153155048Y-127707820D01*
X153155047Y-127707820D01*
X153155051Y-127707816D01*
X153251557Y-127518412D01*
X153317246Y-127316243D01*
X153350500Y-127106287D01*
X153350500Y-126893713D01*
X153317246Y-126683757D01*
X153290732Y-126602155D01*
X163650000Y-126602155D01*
X163650000Y-127250000D01*
X164566988Y-127250000D01*
X164534075Y-127307007D01*
X164500000Y-127434174D01*
X164500000Y-127565826D01*
X164534075Y-127692993D01*
X164566988Y-127750000D01*
X163650000Y-127750000D01*
X163650000Y-128397844D01*
X163656401Y-128457372D01*
X163656403Y-128457379D01*
X163706645Y-128592086D01*
X163706649Y-128592093D01*
X163792809Y-128707187D01*
X163792812Y-128707190D01*
X163907906Y-128793350D01*
X163907913Y-128793354D01*
X164042620Y-128843596D01*
X164042627Y-128843598D01*
X164102155Y-128849999D01*
X164102172Y-128850000D01*
X164750000Y-128850000D01*
X164750000Y-127933012D01*
X164807007Y-127965925D01*
X164934174Y-128000000D01*
X165065826Y-128000000D01*
X165192993Y-127965925D01*
X165250000Y-127933012D01*
X165250000Y-128850000D01*
X165897828Y-128850000D01*
X165897844Y-128849999D01*
X165957372Y-128843598D01*
X165957379Y-128843596D01*
X166092086Y-128793354D01*
X166092089Y-128793352D01*
X166175688Y-128730770D01*
X166241152Y-128706352D01*
X166309425Y-128721203D01*
X166324312Y-128730770D01*
X166407910Y-128793352D01*
X166407913Y-128793354D01*
X166542620Y-128843596D01*
X166542627Y-128843598D01*
X166602155Y-128849999D01*
X166602172Y-128850000D01*
X167250000Y-128850000D01*
X167250000Y-127933012D01*
X167307007Y-127965925D01*
X167434174Y-128000000D01*
X167565826Y-128000000D01*
X167692993Y-127965925D01*
X167750000Y-127933012D01*
X167750000Y-128850000D01*
X168397828Y-128850000D01*
X168397844Y-128849999D01*
X168457372Y-128843598D01*
X168457379Y-128843596D01*
X168592086Y-128793354D01*
X168592093Y-128793350D01*
X168707187Y-128707190D01*
X168707190Y-128707187D01*
X168793350Y-128592093D01*
X168793354Y-128592086D01*
X168843596Y-128457379D01*
X168843598Y-128457372D01*
X168849999Y-128397844D01*
X168850000Y-128397827D01*
X168850000Y-127750000D01*
X167933012Y-127750000D01*
X167965925Y-127692993D01*
X168000000Y-127565826D01*
X168000000Y-127434174D01*
X167965925Y-127307007D01*
X167933012Y-127250000D01*
X168850000Y-127250000D01*
X168850000Y-126602172D01*
X168849999Y-126602155D01*
X168843598Y-126542627D01*
X168843596Y-126542620D01*
X168793354Y-126407913D01*
X168793350Y-126407906D01*
X168707190Y-126292812D01*
X168707187Y-126292809D01*
X168592093Y-126206649D01*
X168592086Y-126206645D01*
X168457379Y-126156403D01*
X168457372Y-126156401D01*
X168397844Y-126150000D01*
X167750000Y-126150000D01*
X167750000Y-127066988D01*
X167692993Y-127034075D01*
X167565826Y-127000000D01*
X167434174Y-127000000D01*
X167307007Y-127034075D01*
X167250000Y-127066988D01*
X167250000Y-126150000D01*
X166602155Y-126150000D01*
X166542627Y-126156401D01*
X166542620Y-126156403D01*
X166407913Y-126206645D01*
X166407911Y-126206647D01*
X166324311Y-126269230D01*
X166258847Y-126293647D01*
X166190574Y-126278796D01*
X166175689Y-126269230D01*
X166092088Y-126206647D01*
X166092086Y-126206645D01*
X165957379Y-126156403D01*
X165957372Y-126156401D01*
X165897844Y-126150000D01*
X165250000Y-126150000D01*
X165250000Y-127066988D01*
X165192993Y-127034075D01*
X165065826Y-127000000D01*
X164934174Y-127000000D01*
X164807007Y-127034075D01*
X164750000Y-127066988D01*
X164750000Y-126150000D01*
X164102155Y-126150000D01*
X164042627Y-126156401D01*
X164042620Y-126156403D01*
X163907913Y-126206645D01*
X163907906Y-126206649D01*
X163792812Y-126292809D01*
X163792809Y-126292812D01*
X163706649Y-126407906D01*
X163706645Y-126407913D01*
X163656403Y-126542620D01*
X163656401Y-126542627D01*
X163650000Y-126602155D01*
X153290732Y-126602155D01*
X153251557Y-126481588D01*
X153155051Y-126292184D01*
X153155049Y-126292181D01*
X153155048Y-126292179D01*
X153030109Y-126120213D01*
X152879786Y-125969890D01*
X152707820Y-125844951D01*
X152518414Y-125748444D01*
X152518413Y-125748443D01*
X152518412Y-125748443D01*
X152316243Y-125682754D01*
X152316241Y-125682753D01*
X152316240Y-125682753D01*
X152154957Y-125657208D01*
X152106287Y-125649500D01*
X151893713Y-125649500D01*
X151845042Y-125657208D01*
X151683760Y-125682753D01*
X151481585Y-125748444D01*
X151292179Y-125844951D01*
X151120213Y-125969890D01*
X150969890Y-126120213D01*
X150844951Y-126292179D01*
X150748444Y-126481585D01*
X150682753Y-126683760D01*
X150682753Y-126683762D01*
X150649500Y-126893713D01*
X149792074Y-126893713D01*
X149817246Y-126816243D01*
X149850500Y-126606287D01*
X149850500Y-126393713D01*
X149817246Y-126183757D01*
X149751557Y-125981588D01*
X149655051Y-125792184D01*
X149655049Y-125792181D01*
X149655048Y-125792179D01*
X149530109Y-125620213D01*
X149379786Y-125469890D01*
X149207820Y-125344951D01*
X149018414Y-125248444D01*
X149018413Y-125248443D01*
X149018412Y-125248443D01*
X148816243Y-125182754D01*
X148816241Y-125182753D01*
X148816240Y-125182753D01*
X148654957Y-125157208D01*
X148606287Y-125149500D01*
X148393713Y-125149500D01*
X148345042Y-125157208D01*
X148183760Y-125182753D01*
X147981585Y-125248444D01*
X147792179Y-125344951D01*
X147620213Y-125469890D01*
X147469890Y-125620213D01*
X147344951Y-125792179D01*
X147248444Y-125981585D01*
X147182753Y-126183760D01*
X147165481Y-126292812D01*
X147149500Y-126393713D01*
X144500500Y-126393713D01*
X144500500Y-109273713D01*
X149649500Y-109273713D01*
X149649500Y-109486287D01*
X149682754Y-109696243D01*
X149746454Y-109892292D01*
X149748444Y-109898414D01*
X149844951Y-110087820D01*
X149969890Y-110259786D01*
X150120213Y-110410109D01*
X150292182Y-110535050D01*
X150300946Y-110539516D01*
X150351742Y-110587491D01*
X150368536Y-110655312D01*
X150345998Y-110721447D01*
X150300946Y-110760484D01*
X150292182Y-110764949D01*
X150120213Y-110889890D01*
X149969890Y-111040213D01*
X149844951Y-111212179D01*
X149748444Y-111401585D01*
X149682753Y-111603760D01*
X149649500Y-111813713D01*
X149649500Y-112026286D01*
X149682753Y-112236239D01*
X149748444Y-112438414D01*
X149844951Y-112627820D01*
X149969890Y-112799786D01*
X150083818Y-112913714D01*
X150117303Y-112975037D01*
X150112319Y-113044729D01*
X150070447Y-113100662D01*
X150039471Y-113117577D01*
X149907912Y-113166646D01*
X149907906Y-113166649D01*
X149792812Y-113252809D01*
X149792809Y-113252812D01*
X149706649Y-113367906D01*
X149706645Y-113367913D01*
X149656403Y-113502620D01*
X149656401Y-113502627D01*
X149650000Y-113562155D01*
X149650000Y-114210000D01*
X150566988Y-114210000D01*
X150534075Y-114267007D01*
X150500000Y-114394174D01*
X150500000Y-114525826D01*
X150534075Y-114652993D01*
X150566988Y-114710000D01*
X149650000Y-114710000D01*
X149650000Y-115357844D01*
X149656401Y-115417372D01*
X149656403Y-115417379D01*
X149706645Y-115552086D01*
X149706647Y-115552088D01*
X149784202Y-115655689D01*
X149808619Y-115721153D01*
X149793768Y-115789426D01*
X149784202Y-115804311D01*
X149706647Y-115907911D01*
X149706645Y-115907913D01*
X149656403Y-116042620D01*
X149656401Y-116042627D01*
X149650000Y-116102155D01*
X149650000Y-116750000D01*
X150566988Y-116750000D01*
X150534075Y-116807007D01*
X150500000Y-116934174D01*
X150500000Y-117065826D01*
X150534075Y-117192993D01*
X150566988Y-117250000D01*
X149650000Y-117250000D01*
X149650000Y-117897844D01*
X149656401Y-117957372D01*
X149656403Y-117957379D01*
X149706645Y-118092086D01*
X149706649Y-118092093D01*
X149792809Y-118207187D01*
X149792812Y-118207190D01*
X149907906Y-118293350D01*
X149907913Y-118293354D01*
X150039470Y-118342422D01*
X150095404Y-118384293D01*
X150119821Y-118449758D01*
X150104969Y-118518031D01*
X150083819Y-118546285D01*
X149969889Y-118660215D01*
X149844951Y-118832179D01*
X149748444Y-119021585D01*
X149682753Y-119223760D01*
X149649500Y-119433713D01*
X149649500Y-119646286D01*
X149668541Y-119766510D01*
X149682754Y-119856243D01*
X149746454Y-120052292D01*
X149748444Y-120058414D01*
X149844951Y-120247820D01*
X149969890Y-120419786D01*
X150120213Y-120570109D01*
X150292179Y-120695048D01*
X150292181Y-120695049D01*
X150292184Y-120695051D01*
X150481588Y-120791557D01*
X150683757Y-120857246D01*
X150893713Y-120890500D01*
X150893714Y-120890500D01*
X151106286Y-120890500D01*
X151106287Y-120890500D01*
X151316243Y-120857246D01*
X151518412Y-120791557D01*
X151707816Y-120695051D01*
X151729789Y-120679086D01*
X151879786Y-120570109D01*
X151879788Y-120570106D01*
X151879792Y-120570104D01*
X152030104Y-120419792D01*
X152030106Y-120419788D01*
X152030109Y-120419786D01*
X152155048Y-120247820D01*
X152155047Y-120247820D01*
X152155051Y-120247816D01*
X152251557Y-120058412D01*
X152317246Y-119856243D01*
X152350500Y-119646287D01*
X152350500Y-119433713D01*
X152317246Y-119223757D01*
X152251557Y-119021588D01*
X152155051Y-118832184D01*
X152155049Y-118832181D01*
X152155048Y-118832179D01*
X152030109Y-118660213D01*
X151916181Y-118546285D01*
X151882696Y-118484962D01*
X151887680Y-118415270D01*
X151929552Y-118359337D01*
X151960529Y-118342422D01*
X152092086Y-118293354D01*
X152092093Y-118293350D01*
X152207187Y-118207190D01*
X152207190Y-118207187D01*
X152293350Y-118092093D01*
X152293354Y-118092086D01*
X152343596Y-117957379D01*
X152343598Y-117957372D01*
X152349999Y-117897844D01*
X152350000Y-117897827D01*
X152350000Y-117250000D01*
X151433012Y-117250000D01*
X151465925Y-117192993D01*
X151500000Y-117065826D01*
X151500000Y-116934174D01*
X151465925Y-116807007D01*
X151433012Y-116750000D01*
X152350000Y-116750000D01*
X152350000Y-116102172D01*
X152349999Y-116102155D01*
X152343598Y-116042627D01*
X152343596Y-116042620D01*
X152293354Y-115907913D01*
X152293352Y-115907910D01*
X152215798Y-115804312D01*
X152191380Y-115738848D01*
X152206231Y-115670574D01*
X152215798Y-115655688D01*
X152293352Y-115552089D01*
X152293354Y-115552086D01*
X152343596Y-115417379D01*
X152343598Y-115417372D01*
X152349999Y-115357844D01*
X152350000Y-115357827D01*
X152350000Y-114710000D01*
X151433012Y-114710000D01*
X151465925Y-114652993D01*
X151500000Y-114525826D01*
X151500000Y-114394174D01*
X151465925Y-114267007D01*
X151433012Y-114210000D01*
X152350000Y-114210000D01*
X152350000Y-113562172D01*
X152349999Y-113562155D01*
X152343598Y-113502627D01*
X152343596Y-113502620D01*
X152293354Y-113367913D01*
X152293350Y-113367906D01*
X152207190Y-113252812D01*
X152207187Y-113252809D01*
X152092093Y-113166649D01*
X152092088Y-113166646D01*
X151960528Y-113117577D01*
X151904595Y-113075705D01*
X151880178Y-113010241D01*
X151895030Y-112941968D01*
X151916175Y-112913720D01*
X152030104Y-112799792D01*
X152155051Y-112627816D01*
X152251557Y-112438412D01*
X152317246Y-112236243D01*
X152350500Y-112026287D01*
X152350500Y-111813713D01*
X152317246Y-111603757D01*
X152251557Y-111401588D01*
X152155051Y-111212184D01*
X152155049Y-111212181D01*
X152155048Y-111212179D01*
X152030109Y-111040213D01*
X151879786Y-110889890D01*
X151707820Y-110764951D01*
X151707115Y-110764591D01*
X151699054Y-110760485D01*
X151648259Y-110712512D01*
X151631463Y-110644692D01*
X151653999Y-110578556D01*
X151699054Y-110539515D01*
X151707816Y-110535051D01*
X151729789Y-110519086D01*
X151879786Y-110410109D01*
X151879788Y-110410106D01*
X151879792Y-110410104D01*
X152030104Y-110259792D01*
X152030106Y-110259788D01*
X152030109Y-110259786D01*
X152155048Y-110087820D01*
X152155047Y-110087820D01*
X152155051Y-110087816D01*
X152251557Y-109898412D01*
X152317246Y-109696243D01*
X152350500Y-109486287D01*
X152350500Y-109273713D01*
X152317246Y-109063757D01*
X152251557Y-108861588D01*
X152155051Y-108672184D01*
X152155049Y-108672181D01*
X152155048Y-108672179D01*
X152030109Y-108500213D01*
X151879786Y-108349890D01*
X151707820Y-108224951D01*
X151518414Y-108128444D01*
X151518413Y-108128443D01*
X151518412Y-108128443D01*
X151316243Y-108062754D01*
X151316241Y-108062753D01*
X151316240Y-108062753D01*
X151154957Y-108037208D01*
X151106287Y-108029500D01*
X150893713Y-108029500D01*
X150845042Y-108037208D01*
X150683760Y-108062753D01*
X150481585Y-108128444D01*
X150292179Y-108224951D01*
X150120213Y-108349890D01*
X149969890Y-108500213D01*
X149844951Y-108672179D01*
X149748444Y-108861585D01*
X149682753Y-109063760D01*
X149674038Y-109118786D01*
X149649500Y-109273713D01*
X144500500Y-109273713D01*
X144500500Y-99652155D01*
X146500000Y-99652155D01*
X146500000Y-100300000D01*
X147416988Y-100300000D01*
X147384075Y-100357007D01*
X147350000Y-100484174D01*
X147350000Y-100615826D01*
X147384075Y-100742993D01*
X147416988Y-100800000D01*
X146500000Y-100800000D01*
X146500000Y-101447844D01*
X146506401Y-101507372D01*
X146506403Y-101507379D01*
X146556645Y-101642086D01*
X146556649Y-101642093D01*
X146642809Y-101757187D01*
X146642812Y-101757190D01*
X146757906Y-101843350D01*
X146757913Y-101843354D01*
X146892620Y-101893596D01*
X146892627Y-101893598D01*
X146952155Y-101899999D01*
X146952172Y-101900000D01*
X147600000Y-101900000D01*
X147600000Y-100983012D01*
X147657007Y-101015925D01*
X147784174Y-101050000D01*
X147915826Y-101050000D01*
X148042993Y-101015925D01*
X148100000Y-100983012D01*
X148100000Y-101900000D01*
X148747828Y-101900000D01*
X148747844Y-101899999D01*
X148807372Y-101893598D01*
X148807379Y-101893596D01*
X148942086Y-101843354D01*
X148942093Y-101843350D01*
X149057187Y-101757190D01*
X149057190Y-101757187D01*
X149143350Y-101642093D01*
X149143354Y-101642086D01*
X149193596Y-101507379D01*
X149193598Y-101507372D01*
X149199999Y-101447844D01*
X149200000Y-101447827D01*
X149200000Y-100800000D01*
X148283012Y-100800000D01*
X148315925Y-100742993D01*
X148350000Y-100615826D01*
X148350000Y-100484174D01*
X148339158Y-100443713D01*
X149909500Y-100443713D01*
X149909500Y-100656286D01*
X149942753Y-100866239D01*
X150008444Y-101068414D01*
X150104951Y-101257820D01*
X150229890Y-101429786D01*
X150380213Y-101580109D01*
X150552179Y-101705048D01*
X150552181Y-101705049D01*
X150552184Y-101705051D01*
X150741588Y-101801557D01*
X150943757Y-101867246D01*
X151153713Y-101900500D01*
X151153714Y-101900500D01*
X151366286Y-101900500D01*
X151366287Y-101900500D01*
X151576243Y-101867246D01*
X151778412Y-101801557D01*
X151967816Y-101705051D01*
X152054471Y-101642093D01*
X152139786Y-101580109D01*
X152139788Y-101580106D01*
X152139792Y-101580104D01*
X152290104Y-101429792D01*
X152290106Y-101429788D01*
X152290109Y-101429786D01*
X152415048Y-101257820D01*
X152415047Y-101257820D01*
X152415051Y-101257816D01*
X152511557Y-101068412D01*
X152577246Y-100866243D01*
X152610500Y-100656287D01*
X152610500Y-100443713D01*
X152577246Y-100233757D01*
X152511557Y-100031588D01*
X152415051Y-99842184D01*
X152415049Y-99842181D01*
X152415048Y-99842179D01*
X152290109Y-99670213D01*
X152139786Y-99519890D01*
X151967820Y-99394951D01*
X151778414Y-99298444D01*
X151778413Y-99298443D01*
X151778412Y-99298443D01*
X151576243Y-99232754D01*
X151576241Y-99232753D01*
X151576240Y-99232753D01*
X151414957Y-99207208D01*
X151366287Y-99199500D01*
X151153713Y-99199500D01*
X151105042Y-99207208D01*
X150943760Y-99232753D01*
X150741585Y-99298444D01*
X150552179Y-99394951D01*
X150380213Y-99519890D01*
X150229890Y-99670213D01*
X150104951Y-99842179D01*
X150008444Y-100031585D01*
X149942753Y-100233760D01*
X149909500Y-100443713D01*
X148339158Y-100443713D01*
X148315925Y-100357007D01*
X148283012Y-100300000D01*
X149200000Y-100300000D01*
X149200000Y-99652172D01*
X149199999Y-99652155D01*
X149193598Y-99592627D01*
X149193596Y-99592620D01*
X149143354Y-99457913D01*
X149143350Y-99457906D01*
X149057190Y-99342812D01*
X149057187Y-99342809D01*
X148942093Y-99256649D01*
X148942086Y-99256645D01*
X148807379Y-99206403D01*
X148807372Y-99206401D01*
X148747844Y-99200000D01*
X148100000Y-99200000D01*
X148100000Y-100116988D01*
X148042993Y-100084075D01*
X147915826Y-100050000D01*
X147784174Y-100050000D01*
X147657007Y-100084075D01*
X147600000Y-100116988D01*
X147600000Y-99200000D01*
X146952155Y-99200000D01*
X146892627Y-99206401D01*
X146892620Y-99206403D01*
X146757913Y-99256645D01*
X146757906Y-99256649D01*
X146642812Y-99342809D01*
X146642809Y-99342812D01*
X146556649Y-99457906D01*
X146556645Y-99457913D01*
X146506403Y-99592620D01*
X146506401Y-99592627D01*
X146500000Y-99652155D01*
X144500500Y-99652155D01*
X144500500Y-91652155D01*
X146500000Y-91652155D01*
X146500000Y-92300000D01*
X147416988Y-92300000D01*
X147384075Y-92357007D01*
X147350000Y-92484174D01*
X147350000Y-92615826D01*
X147384075Y-92742993D01*
X147416988Y-92800000D01*
X146500000Y-92800000D01*
X146500000Y-93447844D01*
X146506401Y-93507372D01*
X146506403Y-93507379D01*
X146556645Y-93642086D01*
X146556649Y-93642093D01*
X146642809Y-93757187D01*
X146642812Y-93757190D01*
X146757906Y-93843350D01*
X146757913Y-93843354D01*
X146892620Y-93893596D01*
X146892627Y-93893598D01*
X146952155Y-93899999D01*
X146952172Y-93900000D01*
X147600000Y-93900000D01*
X147600000Y-92983012D01*
X147657007Y-93015925D01*
X147784174Y-93050000D01*
X147915826Y-93050000D01*
X148042993Y-93015925D01*
X148100000Y-92983012D01*
X148100000Y-93900000D01*
X148747828Y-93900000D01*
X148747844Y-93899999D01*
X148807372Y-93893598D01*
X148807379Y-93893596D01*
X148942086Y-93843354D01*
X148942093Y-93843350D01*
X149057187Y-93757190D01*
X149057190Y-93757187D01*
X149143350Y-93642093D01*
X149143354Y-93642086D01*
X149193596Y-93507379D01*
X149193598Y-93507372D01*
X149199999Y-93447844D01*
X149200000Y-93447827D01*
X149200000Y-92800000D01*
X148283012Y-92800000D01*
X148315925Y-92742993D01*
X148350000Y-92615826D01*
X148350000Y-92484174D01*
X148339158Y-92443713D01*
X149909500Y-92443713D01*
X149909500Y-92656287D01*
X149942754Y-92866243D01*
X150002153Y-93049054D01*
X150008444Y-93068414D01*
X150104951Y-93257820D01*
X150229890Y-93429786D01*
X150380213Y-93580109D01*
X150552179Y-93705048D01*
X150552181Y-93705049D01*
X150552184Y-93705051D01*
X150741588Y-93801557D01*
X150943757Y-93867246D01*
X151153713Y-93900500D01*
X151153714Y-93900500D01*
X151366286Y-93900500D01*
X151366287Y-93900500D01*
X151576243Y-93867246D01*
X151778412Y-93801557D01*
X151967816Y-93705051D01*
X152054471Y-93642093D01*
X152139786Y-93580109D01*
X152139788Y-93580106D01*
X152139792Y-93580104D01*
X152290104Y-93429792D01*
X152290106Y-93429788D01*
X152290109Y-93429786D01*
X152415048Y-93257820D01*
X152415047Y-93257820D01*
X152415051Y-93257816D01*
X152511557Y-93068412D01*
X152577246Y-92866243D01*
X152610500Y-92656287D01*
X152610500Y-92443713D01*
X152577246Y-92233757D01*
X152522111Y-92064071D01*
X160349499Y-92064071D01*
X160374497Y-92189738D01*
X160374499Y-92189744D01*
X160423534Y-92308125D01*
X160494726Y-92414673D01*
X160494727Y-92414674D01*
X171182983Y-103102928D01*
X171216468Y-103164251D01*
X171216919Y-103166417D01*
X171230261Y-103233491D01*
X171230263Y-103233499D01*
X171290602Y-103379172D01*
X171290609Y-103379185D01*
X171378210Y-103510288D01*
X171378213Y-103510292D01*
X171489707Y-103621786D01*
X171489711Y-103621789D01*
X171620814Y-103709390D01*
X171620827Y-103709397D01*
X171766498Y-103769735D01*
X171766503Y-103769737D01*
X171921153Y-103800499D01*
X171921156Y-103800500D01*
X171921158Y-103800500D01*
X172078844Y-103800500D01*
X172078845Y-103800499D01*
X172233497Y-103769737D01*
X172379179Y-103709394D01*
X172510289Y-103621789D01*
X172621789Y-103510289D01*
X172709394Y-103379179D01*
X172769737Y-103233497D01*
X172800500Y-103078842D01*
X172800500Y-102921158D01*
X172800500Y-102921155D01*
X172800499Y-102921153D01*
X172769738Y-102766510D01*
X172769737Y-102766503D01*
X172769735Y-102766498D01*
X172709397Y-102620827D01*
X172709390Y-102620814D01*
X172621789Y-102489711D01*
X172621786Y-102489707D01*
X172510292Y-102378213D01*
X172510288Y-102378210D01*
X172379185Y-102290609D01*
X172379172Y-102290602D01*
X172233499Y-102230263D01*
X172233491Y-102230261D01*
X172166417Y-102216919D01*
X172104506Y-102184534D01*
X172102928Y-102182983D01*
X162422693Y-92502747D01*
X162341099Y-92421153D01*
X175199500Y-92421153D01*
X175199500Y-92578846D01*
X175230261Y-92733489D01*
X175230264Y-92733501D01*
X175290602Y-92879172D01*
X175290606Y-92879179D01*
X175328602Y-92936044D01*
X175349480Y-93002721D01*
X175349500Y-93004935D01*
X175349500Y-119564070D01*
X175364314Y-119638540D01*
X175364314Y-119638542D01*
X175365854Y-119646286D01*
X175374499Y-119689744D01*
X175423535Y-119808127D01*
X175471772Y-119880320D01*
X175494726Y-119914673D01*
X175494727Y-119914674D01*
X179182984Y-123602930D01*
X179216469Y-123664253D01*
X179216920Y-123666420D01*
X179230261Y-123733489D01*
X179230264Y-123733501D01*
X179290602Y-123879172D01*
X179290609Y-123879185D01*
X179378210Y-124010288D01*
X179378213Y-124010292D01*
X179489707Y-124121786D01*
X179489711Y-124121789D01*
X179620814Y-124209390D01*
X179620827Y-124209397D01*
X179766498Y-124269735D01*
X179766503Y-124269737D01*
X179921153Y-124300499D01*
X179921156Y-124300500D01*
X179921158Y-124300500D01*
X180078844Y-124300500D01*
X180078845Y-124300499D01*
X180233497Y-124269737D01*
X180379179Y-124209394D01*
X180510289Y-124121789D01*
X180621789Y-124010289D01*
X180709394Y-123879179D01*
X180769737Y-123733497D01*
X180800500Y-123578842D01*
X180800500Y-123421158D01*
X180800500Y-123421155D01*
X180800499Y-123421153D01*
X180769737Y-123266503D01*
X180769735Y-123266498D01*
X180709397Y-123120827D01*
X180709390Y-123120814D01*
X180621789Y-122989711D01*
X180621786Y-122989707D01*
X180510292Y-122878213D01*
X180510288Y-122878210D01*
X180379185Y-122790609D01*
X180379172Y-122790602D01*
X180233501Y-122730264D01*
X180233489Y-122730261D01*
X180166420Y-122716920D01*
X180104509Y-122684535D01*
X180102930Y-122682984D01*
X176686819Y-119266873D01*
X176653334Y-119205550D01*
X176650500Y-119179192D01*
X176650500Y-97421153D01*
X177699500Y-97421153D01*
X177699500Y-97578846D01*
X177730261Y-97733489D01*
X177730264Y-97733501D01*
X177790602Y-97879172D01*
X177790606Y-97879179D01*
X177828602Y-97936044D01*
X177849480Y-98002721D01*
X177849500Y-98004935D01*
X177849500Y-117564069D01*
X177849500Y-117564071D01*
X177849499Y-117564071D01*
X177874497Y-117689738D01*
X177874499Y-117689744D01*
X177916861Y-117792016D01*
X177923535Y-117808127D01*
X177994723Y-117914669D01*
X177994726Y-117914673D01*
X177994727Y-117914674D01*
X180182984Y-120102930D01*
X180216469Y-120164253D01*
X180216920Y-120166420D01*
X180230261Y-120233489D01*
X180230264Y-120233501D01*
X180290602Y-120379172D01*
X180290609Y-120379185D01*
X180378210Y-120510288D01*
X180378213Y-120510292D01*
X180489707Y-120621786D01*
X180489711Y-120621789D01*
X180620814Y-120709390D01*
X180620827Y-120709397D01*
X180766498Y-120769735D01*
X180766503Y-120769737D01*
X180876189Y-120791555D01*
X180921153Y-120800499D01*
X180921156Y-120800500D01*
X180921158Y-120800500D01*
X181078844Y-120800500D01*
X181078845Y-120800499D01*
X181233497Y-120769737D01*
X181379179Y-120709394D01*
X181510289Y-120621789D01*
X181621789Y-120510289D01*
X181709394Y-120379179D01*
X181769737Y-120233497D01*
X181800500Y-120078842D01*
X181800500Y-119921158D01*
X181800500Y-119921155D01*
X181800499Y-119921153D01*
X181792376Y-119880316D01*
X181769737Y-119766503D01*
X181769735Y-119766498D01*
X181709397Y-119620827D01*
X181709390Y-119620814D01*
X181621789Y-119489711D01*
X181621786Y-119489707D01*
X181510292Y-119378213D01*
X181510288Y-119378210D01*
X181379185Y-119290609D01*
X181379172Y-119290602D01*
X181233501Y-119230264D01*
X181233489Y-119230261D01*
X181166420Y-119216920D01*
X181104509Y-119184535D01*
X181102930Y-119182984D01*
X179186819Y-117266873D01*
X179153334Y-117205550D01*
X179150500Y-117179192D01*
X179150500Y-98004935D01*
X179170185Y-97937896D01*
X179171366Y-97936090D01*
X179209394Y-97879179D01*
X179269737Y-97733497D01*
X179300500Y-97578842D01*
X179300500Y-97421158D01*
X179300500Y-97421155D01*
X179300499Y-97421153D01*
X179699500Y-97421153D01*
X179699500Y-97578846D01*
X179730261Y-97733489D01*
X179730264Y-97733501D01*
X179790602Y-97879172D01*
X179790606Y-97879179D01*
X179828602Y-97936044D01*
X179849480Y-98002721D01*
X179849500Y-98004935D01*
X179849500Y-116564069D01*
X179849500Y-116564071D01*
X179849499Y-116564071D01*
X179874497Y-116689738D01*
X179874499Y-116689744D01*
X179916277Y-116790606D01*
X179923535Y-116808127D01*
X179994723Y-116914669D01*
X179994726Y-116914673D01*
X179994727Y-116914674D01*
X180682984Y-117602930D01*
X180716469Y-117664253D01*
X180716920Y-117666420D01*
X180730261Y-117733489D01*
X180730264Y-117733501D01*
X180790602Y-117879172D01*
X180790609Y-117879185D01*
X180878210Y-118010288D01*
X180878213Y-118010292D01*
X180989707Y-118121786D01*
X180989711Y-118121789D01*
X181120814Y-118209390D01*
X181120827Y-118209397D01*
X181266498Y-118269735D01*
X181266503Y-118269737D01*
X181385213Y-118293350D01*
X181421153Y-118300499D01*
X181421156Y-118300500D01*
X181421158Y-118300500D01*
X181578844Y-118300500D01*
X181578845Y-118300499D01*
X181733497Y-118269737D01*
X181879179Y-118209394D01*
X182010289Y-118121789D01*
X182121789Y-118010289D01*
X182209394Y-117879179D01*
X182269737Y-117733497D01*
X182300500Y-117578842D01*
X182300500Y-117421158D01*
X182300500Y-117421155D01*
X182300499Y-117421153D01*
X182277794Y-117307007D01*
X182269737Y-117266503D01*
X182244490Y-117205550D01*
X182209397Y-117120827D01*
X182209390Y-117120814D01*
X182121789Y-116989711D01*
X182121786Y-116989707D01*
X182010292Y-116878213D01*
X182010288Y-116878210D01*
X181879185Y-116790609D01*
X181879172Y-116790602D01*
X181733501Y-116730264D01*
X181733489Y-116730261D01*
X181666420Y-116716920D01*
X181604509Y-116684535D01*
X181602930Y-116682984D01*
X181186819Y-116266873D01*
X181153334Y-116205550D01*
X181150500Y-116179192D01*
X181150500Y-109752155D01*
X184700000Y-109752155D01*
X184700000Y-110400000D01*
X185616988Y-110400000D01*
X185584075Y-110457007D01*
X185550000Y-110584174D01*
X185550000Y-110715826D01*
X185584075Y-110842993D01*
X185616988Y-110900000D01*
X184700000Y-110900000D01*
X184700000Y-111547844D01*
X184706401Y-111607372D01*
X184706403Y-111607379D01*
X184756645Y-111742086D01*
X184756649Y-111742093D01*
X184842809Y-111857187D01*
X184842812Y-111857190D01*
X184957906Y-111943350D01*
X184957913Y-111943354D01*
X185092620Y-111993596D01*
X185092627Y-111993598D01*
X185152155Y-111999999D01*
X185152172Y-112000000D01*
X185800000Y-112000000D01*
X185800000Y-111083012D01*
X185857007Y-111115925D01*
X185984174Y-111150000D01*
X186115826Y-111150000D01*
X186242993Y-111115925D01*
X186300000Y-111083012D01*
X186300000Y-112000000D01*
X186947828Y-112000000D01*
X186947844Y-111999999D01*
X187007372Y-111993598D01*
X187007379Y-111993596D01*
X187142086Y-111943354D01*
X187142093Y-111943350D01*
X187257187Y-111857190D01*
X187257190Y-111857187D01*
X187343350Y-111742093D01*
X187343354Y-111742086D01*
X187393596Y-111607379D01*
X187393598Y-111607372D01*
X187399999Y-111547844D01*
X187400000Y-111547827D01*
X187400000Y-110900000D01*
X186483012Y-110900000D01*
X186515925Y-110842993D01*
X186550000Y-110715826D01*
X186550000Y-110584174D01*
X186515925Y-110457007D01*
X186483012Y-110400000D01*
X187400000Y-110400000D01*
X187400000Y-109752172D01*
X187399999Y-109752155D01*
X187393598Y-109692627D01*
X187393596Y-109692620D01*
X187343354Y-109557913D01*
X187343350Y-109557906D01*
X187257190Y-109442812D01*
X187257187Y-109442809D01*
X187142093Y-109356649D01*
X187142086Y-109356645D01*
X187007379Y-109306403D01*
X187007372Y-109306401D01*
X186947844Y-109300000D01*
X186300000Y-109300000D01*
X186300000Y-110216988D01*
X186242993Y-110184075D01*
X186115826Y-110150000D01*
X185984174Y-110150000D01*
X185857007Y-110184075D01*
X185800000Y-110216988D01*
X185800000Y-109300000D01*
X185152155Y-109300000D01*
X185092627Y-109306401D01*
X185092620Y-109306403D01*
X184957913Y-109356645D01*
X184957906Y-109356649D01*
X184842812Y-109442809D01*
X184842809Y-109442812D01*
X184756649Y-109557906D01*
X184756645Y-109557913D01*
X184706403Y-109692620D01*
X184706401Y-109692627D01*
X184700000Y-109752155D01*
X181150500Y-109752155D01*
X181150500Y-107133713D01*
X184699500Y-107133713D01*
X184699500Y-107346287D01*
X184732754Y-107556243D01*
X184791548Y-107737192D01*
X184798444Y-107758414D01*
X184894951Y-107947820D01*
X185019890Y-108119786D01*
X185170213Y-108270109D01*
X185342179Y-108395048D01*
X185342181Y-108395049D01*
X185342184Y-108395051D01*
X185531588Y-108491557D01*
X185733757Y-108557246D01*
X185943713Y-108590500D01*
X185943714Y-108590500D01*
X186156286Y-108590500D01*
X186156287Y-108590500D01*
X186366243Y-108557246D01*
X186568412Y-108491557D01*
X186757816Y-108395051D01*
X186819975Y-108349890D01*
X186929786Y-108270109D01*
X186929788Y-108270106D01*
X186929792Y-108270104D01*
X187080104Y-108119792D01*
X187080106Y-108119788D01*
X187080109Y-108119786D01*
X187205048Y-107947820D01*
X187205047Y-107947820D01*
X187205051Y-107947816D01*
X187301557Y-107758412D01*
X187367246Y-107556243D01*
X187400500Y-107346287D01*
X187400500Y-107133713D01*
X187367246Y-106923757D01*
X187301557Y-106721588D01*
X187205051Y-106532184D01*
X187133881Y-106434226D01*
X187133880Y-106434223D01*
X187084468Y-106366213D01*
X203649500Y-106366213D01*
X203649500Y-106578786D01*
X203682753Y-106788739D01*
X203748444Y-106990914D01*
X203844951Y-107180320D01*
X203969890Y-107352286D01*
X204120213Y-107502609D01*
X204292182Y-107627550D01*
X204300946Y-107632016D01*
X204351742Y-107679991D01*
X204368536Y-107747812D01*
X204345998Y-107813947D01*
X204300946Y-107852984D01*
X204292182Y-107857449D01*
X204120213Y-107982390D01*
X203969890Y-108132713D01*
X203844951Y-108304679D01*
X203748444Y-108494085D01*
X203748443Y-108494087D01*
X203748443Y-108494088D01*
X203746453Y-108500213D01*
X203682753Y-108696260D01*
X203649500Y-108906213D01*
X203649500Y-109118786D01*
X203679215Y-109306403D01*
X203682754Y-109328743D01*
X203733943Y-109486287D01*
X203748444Y-109530914D01*
X203844951Y-109720320D01*
X203969890Y-109892286D01*
X204083818Y-110006214D01*
X204117303Y-110067537D01*
X204112319Y-110137229D01*
X204070447Y-110193162D01*
X204039471Y-110210077D01*
X203907912Y-110259146D01*
X203907906Y-110259149D01*
X203792812Y-110345309D01*
X203792809Y-110345312D01*
X203706649Y-110460406D01*
X203706645Y-110460413D01*
X203656403Y-110595120D01*
X203656401Y-110595127D01*
X203650000Y-110654655D01*
X203650000Y-111302500D01*
X204566988Y-111302500D01*
X204534075Y-111359507D01*
X204500000Y-111486674D01*
X204500000Y-111618326D01*
X204534075Y-111745493D01*
X204566988Y-111802500D01*
X203650000Y-111802500D01*
X203650000Y-112450344D01*
X203656401Y-112509872D01*
X203656403Y-112509879D01*
X203706645Y-112644586D01*
X203706649Y-112644593D01*
X203792809Y-112759687D01*
X203792812Y-112759690D01*
X203907906Y-112845850D01*
X203907913Y-112845854D01*
X204039470Y-112894922D01*
X204095404Y-112936793D01*
X204119821Y-113002258D01*
X204104969Y-113070531D01*
X204083819Y-113098785D01*
X203969889Y-113212715D01*
X203844951Y-113384679D01*
X203748444Y-113574085D01*
X203682753Y-113776260D01*
X203649500Y-113986213D01*
X203649500Y-114198786D01*
X203682753Y-114408739D01*
X203748444Y-114610914D01*
X203844951Y-114800320D01*
X203969890Y-114972286D01*
X204120213Y-115122609D01*
X204292182Y-115247550D01*
X204300946Y-115252016D01*
X204351742Y-115299991D01*
X204368536Y-115367812D01*
X204345998Y-115433947D01*
X204300946Y-115472984D01*
X204292182Y-115477449D01*
X204120213Y-115602390D01*
X203969890Y-115752713D01*
X203844951Y-115924679D01*
X203748444Y-116114085D01*
X203682753Y-116316260D01*
X203649500Y-116526213D01*
X203649500Y-116738786D01*
X203671582Y-116878210D01*
X203682754Y-116948743D01*
X203696065Y-116989711D01*
X203748444Y-117150914D01*
X203844951Y-117340320D01*
X203969890Y-117512286D01*
X204120213Y-117662609D01*
X204292182Y-117787550D01*
X204300946Y-117792016D01*
X204351742Y-117839991D01*
X204368536Y-117907812D01*
X204345998Y-117973947D01*
X204300946Y-118012984D01*
X204292182Y-118017449D01*
X204120213Y-118142390D01*
X203969890Y-118292713D01*
X203844951Y-118464679D01*
X203748444Y-118654085D01*
X203748443Y-118654087D01*
X203748443Y-118654088D01*
X203746453Y-118660213D01*
X203682753Y-118856260D01*
X203656568Y-119021585D01*
X203649500Y-119066213D01*
X203649500Y-119278787D01*
X203682754Y-119488743D01*
X203748063Y-119689744D01*
X203748444Y-119690914D01*
X203844951Y-119880320D01*
X203969890Y-120052286D01*
X204120213Y-120202609D01*
X204292182Y-120327550D01*
X204300946Y-120332016D01*
X204351742Y-120379991D01*
X204368536Y-120447812D01*
X204345998Y-120513947D01*
X204300946Y-120552984D01*
X204292182Y-120557449D01*
X204120213Y-120682390D01*
X203969890Y-120832713D01*
X203844951Y-121004679D01*
X203748444Y-121194085D01*
X203682753Y-121396260D01*
X203649500Y-121606213D01*
X203649500Y-121818786D01*
X203682753Y-122028739D01*
X203748444Y-122230914D01*
X203844951Y-122420320D01*
X203969890Y-122592286D01*
X204120213Y-122742609D01*
X204292182Y-122867550D01*
X204300946Y-122872016D01*
X204351742Y-122919991D01*
X204368536Y-122987812D01*
X204345998Y-123053947D01*
X204300946Y-123092984D01*
X204292182Y-123097449D01*
X204120213Y-123222390D01*
X203969890Y-123372713D01*
X203844951Y-123544679D01*
X203748444Y-123734085D01*
X203682753Y-123936260D01*
X203649500Y-124146213D01*
X203649500Y-124358786D01*
X203682753Y-124568739D01*
X203748444Y-124770914D01*
X203844951Y-124960320D01*
X203969890Y-125132286D01*
X204120213Y-125282609D01*
X204292179Y-125407548D01*
X204292181Y-125407549D01*
X204292184Y-125407551D01*
X204481588Y-125504057D01*
X204683757Y-125569746D01*
X204893713Y-125603000D01*
X204893714Y-125603000D01*
X205106286Y-125603000D01*
X205106287Y-125603000D01*
X205316243Y-125569746D01*
X205518412Y-125504057D01*
X205707816Y-125407551D01*
X205793981Y-125344949D01*
X205879786Y-125282609D01*
X205879788Y-125282606D01*
X205879792Y-125282604D01*
X206030104Y-125132292D01*
X206030106Y-125132288D01*
X206030109Y-125132286D01*
X206155048Y-124960320D01*
X206155047Y-124960320D01*
X206155051Y-124960316D01*
X206251557Y-124770912D01*
X206317246Y-124568743D01*
X206350500Y-124358787D01*
X206350500Y-124146213D01*
X206317246Y-123936257D01*
X206251557Y-123734088D01*
X206155051Y-123544684D01*
X206155049Y-123544681D01*
X206155048Y-123544679D01*
X206030109Y-123372713D01*
X205879786Y-123222390D01*
X205707820Y-123097451D01*
X205707115Y-123097091D01*
X205699054Y-123092985D01*
X205648259Y-123045012D01*
X205631463Y-122977192D01*
X205653999Y-122911056D01*
X205699054Y-122872015D01*
X205707816Y-122867551D01*
X205729789Y-122851586D01*
X205879786Y-122742609D01*
X205879788Y-122742606D01*
X205879792Y-122742604D01*
X206030104Y-122592292D01*
X206030106Y-122592288D01*
X206030109Y-122592286D01*
X206155048Y-122420320D01*
X206155047Y-122420320D01*
X206155051Y-122420316D01*
X206251557Y-122230912D01*
X206317246Y-122028743D01*
X206350500Y-121818787D01*
X206350500Y-121606213D01*
X206317246Y-121396257D01*
X206251557Y-121194088D01*
X206155051Y-121004684D01*
X206155049Y-121004681D01*
X206155048Y-121004679D01*
X206030109Y-120832713D01*
X205879786Y-120682390D01*
X205707820Y-120557451D01*
X205707115Y-120557091D01*
X205699054Y-120552985D01*
X205648259Y-120505012D01*
X205631463Y-120437192D01*
X205653999Y-120371056D01*
X205699054Y-120332015D01*
X205707816Y-120327551D01*
X205729789Y-120311586D01*
X205879786Y-120202609D01*
X205879788Y-120202606D01*
X205879792Y-120202604D01*
X206030104Y-120052292D01*
X206030106Y-120052288D01*
X206030109Y-120052286D01*
X206155048Y-119880320D01*
X206155047Y-119880320D01*
X206155051Y-119880316D01*
X206251557Y-119690912D01*
X206317246Y-119488743D01*
X206350500Y-119278787D01*
X206350500Y-119066213D01*
X206317246Y-118856257D01*
X206251557Y-118654088D01*
X206155051Y-118464684D01*
X206155049Y-118464681D01*
X206155048Y-118464679D01*
X206030109Y-118292713D01*
X205879786Y-118142390D01*
X205707820Y-118017451D01*
X205707115Y-118017091D01*
X205699054Y-118012985D01*
X205648259Y-117965012D01*
X205631463Y-117897192D01*
X205653999Y-117831056D01*
X205699054Y-117792015D01*
X205707816Y-117787551D01*
X205782210Y-117733501D01*
X205879786Y-117662609D01*
X205879788Y-117662606D01*
X205879792Y-117662604D01*
X206030104Y-117512292D01*
X206030106Y-117512288D01*
X206030109Y-117512286D01*
X206155048Y-117340320D01*
X206155047Y-117340320D01*
X206155051Y-117340316D01*
X206251557Y-117150912D01*
X206317246Y-116948743D01*
X206350500Y-116738787D01*
X206350500Y-116526213D01*
X206317246Y-116316257D01*
X206251557Y-116114088D01*
X206155051Y-115924684D01*
X206155049Y-115924681D01*
X206155048Y-115924679D01*
X206030109Y-115752713D01*
X205879786Y-115602390D01*
X205707820Y-115477451D01*
X205707115Y-115477091D01*
X205699054Y-115472985D01*
X205648259Y-115425012D01*
X205631463Y-115357192D01*
X205653999Y-115291056D01*
X205699054Y-115252015D01*
X205707816Y-115247551D01*
X205729789Y-115231586D01*
X205879786Y-115122609D01*
X205879788Y-115122606D01*
X205879792Y-115122604D01*
X206030104Y-114972292D01*
X206030106Y-114972288D01*
X206030109Y-114972286D01*
X206155048Y-114800320D01*
X206155047Y-114800320D01*
X206155051Y-114800316D01*
X206251557Y-114610912D01*
X206317246Y-114408743D01*
X206350500Y-114198787D01*
X206350500Y-113986213D01*
X206317246Y-113776257D01*
X206251557Y-113574088D01*
X206155051Y-113384684D01*
X206155049Y-113384681D01*
X206155048Y-113384679D01*
X206030109Y-113212713D01*
X205916181Y-113098785D01*
X205882696Y-113037462D01*
X205887680Y-112967770D01*
X205929552Y-112911837D01*
X205960529Y-112894922D01*
X206092086Y-112845854D01*
X206092093Y-112845850D01*
X206207187Y-112759690D01*
X206207190Y-112759687D01*
X206293350Y-112644593D01*
X206293354Y-112644586D01*
X206343596Y-112509879D01*
X206343598Y-112509872D01*
X206349999Y-112450344D01*
X206350000Y-112450327D01*
X206350000Y-111802500D01*
X205433012Y-111802500D01*
X205465925Y-111745493D01*
X205500000Y-111618326D01*
X205500000Y-111486674D01*
X205465925Y-111359507D01*
X205433012Y-111302500D01*
X206350000Y-111302500D01*
X206350000Y-110654672D01*
X206349999Y-110654655D01*
X206343598Y-110595127D01*
X206343596Y-110595120D01*
X206293354Y-110460413D01*
X206293350Y-110460406D01*
X206207190Y-110345312D01*
X206207187Y-110345309D01*
X206092093Y-110259149D01*
X206092088Y-110259146D01*
X205960528Y-110210077D01*
X205904595Y-110168205D01*
X205880178Y-110102741D01*
X205895030Y-110034468D01*
X205916175Y-110006220D01*
X206030104Y-109892292D01*
X206155051Y-109720316D01*
X206251557Y-109530912D01*
X206317246Y-109328743D01*
X206350500Y-109118787D01*
X206350500Y-108906213D01*
X206317246Y-108696257D01*
X206251557Y-108494088D01*
X206155051Y-108304684D01*
X206155049Y-108304681D01*
X206155048Y-108304679D01*
X206030109Y-108132713D01*
X205879786Y-107982390D01*
X205707820Y-107857451D01*
X205707115Y-107857091D01*
X205699054Y-107852985D01*
X205648259Y-107805012D01*
X205631463Y-107737192D01*
X205653999Y-107671056D01*
X205699054Y-107632015D01*
X205707816Y-107627551D01*
X205805964Y-107556243D01*
X205879786Y-107502609D01*
X205879788Y-107502606D01*
X205879792Y-107502604D01*
X206030104Y-107352292D01*
X206030106Y-107352288D01*
X206030109Y-107352286D01*
X206155048Y-107180320D01*
X206155047Y-107180320D01*
X206155051Y-107180316D01*
X206251557Y-106990912D01*
X206317246Y-106788743D01*
X206350500Y-106578787D01*
X206350500Y-106366213D01*
X206317246Y-106156257D01*
X206251557Y-105954088D01*
X206155051Y-105764684D01*
X206155049Y-105764681D01*
X206155048Y-105764679D01*
X206030109Y-105592713D01*
X205879786Y-105442390D01*
X205707820Y-105317451D01*
X205518414Y-105220944D01*
X205518413Y-105220943D01*
X205518412Y-105220943D01*
X205316243Y-105155254D01*
X205316241Y-105155253D01*
X205316240Y-105155253D01*
X205154957Y-105129708D01*
X205106287Y-105122000D01*
X204893713Y-105122000D01*
X204845042Y-105129708D01*
X204683760Y-105155253D01*
X204481585Y-105220944D01*
X204292179Y-105317451D01*
X204120213Y-105442390D01*
X203969890Y-105592713D01*
X203844951Y-105764679D01*
X203748444Y-105954085D01*
X203682753Y-106156260D01*
X203649500Y-106366213D01*
X187084468Y-106366213D01*
X187080109Y-106360214D01*
X187080105Y-106360209D01*
X186929786Y-106209890D01*
X186757820Y-106084951D01*
X186568414Y-105988444D01*
X186568413Y-105988443D01*
X186568412Y-105988443D01*
X186366243Y-105922754D01*
X186366241Y-105922753D01*
X186366240Y-105922753D01*
X186204957Y-105897208D01*
X186156287Y-105889500D01*
X185943713Y-105889500D01*
X185895042Y-105897208D01*
X185733760Y-105922753D01*
X185531585Y-105988444D01*
X185342179Y-106084951D01*
X185170213Y-106209890D01*
X185019890Y-106360213D01*
X184894951Y-106532179D01*
X184798444Y-106721585D01*
X184732753Y-106923760D01*
X184722117Y-106990914D01*
X184699500Y-107133713D01*
X181150500Y-107133713D01*
X181150500Y-98004935D01*
X181170185Y-97937896D01*
X181171366Y-97936090D01*
X181209394Y-97879179D01*
X181269737Y-97733497D01*
X181300500Y-97578842D01*
X181300500Y-97421158D01*
X181300500Y-97421155D01*
X181300499Y-97421153D01*
X181269738Y-97266510D01*
X181269737Y-97266503D01*
X181258360Y-97239037D01*
X181209397Y-97120827D01*
X181209390Y-97120814D01*
X181121789Y-96989711D01*
X181121786Y-96989707D01*
X181010292Y-96878213D01*
X181010288Y-96878210D01*
X180879185Y-96790609D01*
X180879172Y-96790602D01*
X180733501Y-96730264D01*
X180733489Y-96730261D01*
X180578845Y-96699500D01*
X180578842Y-96699500D01*
X180421158Y-96699500D01*
X180421155Y-96699500D01*
X180266510Y-96730261D01*
X180266498Y-96730264D01*
X180120827Y-96790602D01*
X180120814Y-96790609D01*
X179989711Y-96878210D01*
X179989707Y-96878213D01*
X179878213Y-96989707D01*
X179878210Y-96989711D01*
X179790609Y-97120814D01*
X179790602Y-97120827D01*
X179730264Y-97266498D01*
X179730261Y-97266510D01*
X179699500Y-97421153D01*
X179300499Y-97421153D01*
X179269738Y-97266510D01*
X179269737Y-97266503D01*
X179258360Y-97239037D01*
X179209397Y-97120827D01*
X179209390Y-97120814D01*
X179121789Y-96989711D01*
X179121786Y-96989707D01*
X179010292Y-96878213D01*
X179010288Y-96878210D01*
X178879185Y-96790609D01*
X178879172Y-96790602D01*
X178733501Y-96730264D01*
X178733489Y-96730261D01*
X178578845Y-96699500D01*
X178578842Y-96699500D01*
X178421158Y-96699500D01*
X178421155Y-96699500D01*
X178266510Y-96730261D01*
X178266498Y-96730264D01*
X178120827Y-96790602D01*
X178120814Y-96790609D01*
X177989711Y-96878210D01*
X177989707Y-96878213D01*
X177878213Y-96989707D01*
X177878210Y-96989711D01*
X177790609Y-97120814D01*
X177790602Y-97120827D01*
X177730264Y-97266498D01*
X177730261Y-97266510D01*
X177699500Y-97421153D01*
X176650500Y-97421153D01*
X176650500Y-95331491D01*
X183499500Y-95331491D01*
X183499500Y-95668508D01*
X183537231Y-96003381D01*
X183537233Y-96003397D01*
X183612223Y-96331953D01*
X183612227Y-96331965D01*
X183723532Y-96650054D01*
X183869752Y-96953683D01*
X183869754Y-96953686D01*
X184049054Y-97239039D01*
X184259175Y-97502523D01*
X184497477Y-97740825D01*
X184760961Y-97950946D01*
X185046314Y-98130246D01*
X185349949Y-98276469D01*
X185588848Y-98360063D01*
X185668034Y-98387772D01*
X185668046Y-98387776D01*
X185996606Y-98462767D01*
X186331492Y-98500499D01*
X186331493Y-98500500D01*
X186331496Y-98500500D01*
X186668507Y-98500500D01*
X186668507Y-98500499D01*
X187003394Y-98462767D01*
X187331954Y-98387776D01*
X187650051Y-98276469D01*
X187953686Y-98130246D01*
X188239039Y-97950946D01*
X188502523Y-97740825D01*
X188740825Y-97502523D01*
X188950946Y-97239039D01*
X189130246Y-96953686D01*
X189276469Y-96650051D01*
X189387776Y-96331954D01*
X189462767Y-96003394D01*
X189500500Y-95668504D01*
X189500500Y-95331496D01*
X189500499Y-95331491D01*
X242499500Y-95331491D01*
X242499500Y-95668508D01*
X242537231Y-96003381D01*
X242537233Y-96003397D01*
X242612223Y-96331953D01*
X242612227Y-96331965D01*
X242723532Y-96650054D01*
X242869752Y-96953683D01*
X242869754Y-96953686D01*
X243049054Y-97239039D01*
X243259175Y-97502523D01*
X243497477Y-97740825D01*
X243760961Y-97950946D01*
X244046314Y-98130246D01*
X244349949Y-98276469D01*
X244588848Y-98360063D01*
X244668034Y-98387772D01*
X244668046Y-98387776D01*
X244996606Y-98462767D01*
X245331492Y-98500499D01*
X245331493Y-98500500D01*
X245331496Y-98500500D01*
X245668507Y-98500500D01*
X245668507Y-98500499D01*
X246003394Y-98462767D01*
X246331954Y-98387776D01*
X246650051Y-98276469D01*
X246953686Y-98130246D01*
X247239039Y-97950946D01*
X247502523Y-97740825D01*
X247740825Y-97502523D01*
X247950946Y-97239039D01*
X248130246Y-96953686D01*
X248276469Y-96650051D01*
X248387776Y-96331954D01*
X248462767Y-96003394D01*
X248500500Y-95668504D01*
X248500500Y-95331496D01*
X248462767Y-94996606D01*
X248387776Y-94668046D01*
X248276469Y-94349949D01*
X248130246Y-94046314D01*
X247950946Y-93760961D01*
X247740825Y-93497477D01*
X247502523Y-93259175D01*
X247239039Y-93049054D01*
X246953686Y-92869754D01*
X246953683Y-92869752D01*
X246650054Y-92723532D01*
X246331965Y-92612227D01*
X246331953Y-92612223D01*
X246003397Y-92537233D01*
X246003381Y-92537231D01*
X245668508Y-92499500D01*
X245668504Y-92499500D01*
X245331496Y-92499500D01*
X245331491Y-92499500D01*
X244996618Y-92537231D01*
X244996602Y-92537233D01*
X244668046Y-92612223D01*
X244668034Y-92612227D01*
X244349945Y-92723532D01*
X244046316Y-92869752D01*
X243760962Y-93049053D01*
X243497477Y-93259174D01*
X243259174Y-93497477D01*
X243049053Y-93760962D01*
X242869752Y-94046316D01*
X242723532Y-94349945D01*
X242612227Y-94668034D01*
X242612223Y-94668046D01*
X242537233Y-94996602D01*
X242537231Y-94996618D01*
X242499500Y-95331491D01*
X189500499Y-95331491D01*
X189462767Y-94996606D01*
X189387776Y-94668046D01*
X189276469Y-94349949D01*
X189130246Y-94046314D01*
X188950946Y-93760961D01*
X188740825Y-93497477D01*
X188502523Y-93259175D01*
X188239039Y-93049054D01*
X187953686Y-92869754D01*
X187953683Y-92869752D01*
X187650054Y-92723532D01*
X187331965Y-92612227D01*
X187331953Y-92612223D01*
X187003397Y-92537233D01*
X187003381Y-92537231D01*
X186668508Y-92499500D01*
X186668504Y-92499500D01*
X186331496Y-92499500D01*
X186331491Y-92499500D01*
X185996618Y-92537231D01*
X185996602Y-92537233D01*
X185668046Y-92612223D01*
X185668034Y-92612227D01*
X185349945Y-92723532D01*
X185046316Y-92869752D01*
X184760962Y-93049053D01*
X184497477Y-93259174D01*
X184259174Y-93497477D01*
X184049053Y-93760962D01*
X183869752Y-94046316D01*
X183723532Y-94349945D01*
X183612227Y-94668034D01*
X183612223Y-94668046D01*
X183537233Y-94996602D01*
X183537231Y-94996618D01*
X183499500Y-95331491D01*
X176650500Y-95331491D01*
X176650500Y-93004935D01*
X176670185Y-92937896D01*
X176671366Y-92936090D01*
X176709394Y-92879179D01*
X176769737Y-92733497D01*
X176800500Y-92578842D01*
X176800500Y-92421158D01*
X176800500Y-92421155D01*
X176800499Y-92421153D01*
X176787739Y-92357007D01*
X176769737Y-92266503D01*
X176737940Y-92189738D01*
X176709397Y-92120827D01*
X176709390Y-92120814D01*
X176621789Y-91989711D01*
X176621786Y-91989707D01*
X176510292Y-91878213D01*
X176510288Y-91878210D01*
X176379185Y-91790609D01*
X176379172Y-91790602D01*
X176233501Y-91730264D01*
X176233489Y-91730261D01*
X176078845Y-91699500D01*
X176078842Y-91699500D01*
X175921158Y-91699500D01*
X175921155Y-91699500D01*
X175766510Y-91730261D01*
X175766498Y-91730264D01*
X175620827Y-91790602D01*
X175620814Y-91790609D01*
X175489711Y-91878210D01*
X175489707Y-91878213D01*
X175378213Y-91989707D01*
X175378210Y-91989711D01*
X175290609Y-92120814D01*
X175290602Y-92120827D01*
X175230264Y-92266498D01*
X175230261Y-92266510D01*
X175199500Y-92421153D01*
X162341099Y-92421153D01*
X161686819Y-91766873D01*
X161653334Y-91705550D01*
X161650500Y-91679192D01*
X161650500Y-74421153D01*
X164699500Y-74421153D01*
X164699500Y-74578846D01*
X164730261Y-74733489D01*
X164730264Y-74733501D01*
X164790602Y-74879172D01*
X164790606Y-74879179D01*
X164828602Y-74936044D01*
X164849480Y-75002721D01*
X164849500Y-75004935D01*
X164849500Y-82064070D01*
X164865152Y-82142753D01*
X164865152Y-82142755D01*
X164874497Y-82189736D01*
X164874499Y-82189744D01*
X164922218Y-82304949D01*
X164923535Y-82308127D01*
X164994723Y-82414669D01*
X164994726Y-82414673D01*
X164994727Y-82414674D01*
X168682984Y-86102930D01*
X168716469Y-86164253D01*
X168716920Y-86166420D01*
X168730261Y-86233489D01*
X168730264Y-86233501D01*
X168790602Y-86379172D01*
X168790609Y-86379185D01*
X168878210Y-86510288D01*
X168878213Y-86510292D01*
X168989707Y-86621786D01*
X168989711Y-86621789D01*
X169120814Y-86709390D01*
X169120827Y-86709397D01*
X169266498Y-86769735D01*
X169266503Y-86769737D01*
X169421153Y-86800499D01*
X169421156Y-86800500D01*
X169421158Y-86800500D01*
X169578844Y-86800500D01*
X169578845Y-86800499D01*
X169733497Y-86769737D01*
X169879179Y-86709394D01*
X170010289Y-86621789D01*
X170121789Y-86510289D01*
X170209394Y-86379179D01*
X170269737Y-86233497D01*
X170300500Y-86078842D01*
X170300500Y-85921158D01*
X170300500Y-85921155D01*
X170300499Y-85921153D01*
X170295041Y-85893713D01*
X170269737Y-85766503D01*
X170235463Y-85683757D01*
X170209397Y-85620827D01*
X170209390Y-85620814D01*
X170121789Y-85489711D01*
X170121786Y-85489707D01*
X170010292Y-85378213D01*
X170010288Y-85378210D01*
X169879185Y-85290609D01*
X169879172Y-85290602D01*
X169733501Y-85230264D01*
X169733489Y-85230261D01*
X169666420Y-85216920D01*
X169604509Y-85184535D01*
X169602930Y-85182984D01*
X166186819Y-81766873D01*
X166153334Y-81705550D01*
X166150500Y-81679192D01*
X166150500Y-75004935D01*
X166170185Y-74937896D01*
X166171366Y-74936090D01*
X166209394Y-74879179D01*
X166269737Y-74733497D01*
X166300500Y-74578842D01*
X166300500Y-74421158D01*
X166300500Y-74421155D01*
X166300499Y-74421153D01*
X166269738Y-74266510D01*
X166269737Y-74266503D01*
X166269735Y-74266498D01*
X166209397Y-74120827D01*
X166209390Y-74120814D01*
X166121789Y-73989711D01*
X166121786Y-73989707D01*
X166010292Y-73878213D01*
X166010288Y-73878210D01*
X165879185Y-73790609D01*
X165879172Y-73790602D01*
X165733501Y-73730264D01*
X165733489Y-73730261D01*
X165578845Y-73699500D01*
X165578842Y-73699500D01*
X165421158Y-73699500D01*
X165421155Y-73699500D01*
X165266510Y-73730261D01*
X165266498Y-73730264D01*
X165120827Y-73790602D01*
X165120814Y-73790609D01*
X164989711Y-73878210D01*
X164989707Y-73878213D01*
X164878213Y-73989707D01*
X164878210Y-73989711D01*
X164790609Y-74120814D01*
X164790602Y-74120827D01*
X164730264Y-74266498D01*
X164730261Y-74266510D01*
X164699500Y-74421153D01*
X161650500Y-74421153D01*
X161650500Y-71421153D01*
X162699500Y-71421153D01*
X162699500Y-71578846D01*
X162730261Y-71733489D01*
X162730264Y-71733501D01*
X162790602Y-71879172D01*
X162790609Y-71879185D01*
X162878210Y-72010288D01*
X162878213Y-72010292D01*
X162989707Y-72121786D01*
X162989711Y-72121789D01*
X163120814Y-72209390D01*
X163120827Y-72209397D01*
X163265800Y-72269446D01*
X163266503Y-72269737D01*
X163390743Y-72294450D01*
X163421153Y-72300499D01*
X163421156Y-72300500D01*
X163421158Y-72300500D01*
X163578844Y-72300500D01*
X163578845Y-72300499D01*
X163733497Y-72269737D01*
X163879179Y-72209394D01*
X164010289Y-72121789D01*
X164121789Y-72010289D01*
X164209394Y-71879179D01*
X164269737Y-71733497D01*
X164300500Y-71578842D01*
X164300500Y-71421158D01*
X164300500Y-71421155D01*
X164300499Y-71421153D01*
X164269738Y-71266510D01*
X164269737Y-71266503D01*
X164209394Y-71120821D01*
X164171396Y-71063953D01*
X164150520Y-70997276D01*
X164150500Y-70995064D01*
X164150500Y-68421153D01*
X167199500Y-68421153D01*
X167199500Y-68578846D01*
X167230261Y-68733489D01*
X167230264Y-68733501D01*
X167290602Y-68879172D01*
X167290609Y-68879185D01*
X167378210Y-69010288D01*
X167378213Y-69010292D01*
X167489707Y-69121786D01*
X167489711Y-69121789D01*
X167620814Y-69209390D01*
X167620827Y-69209397D01*
X167708230Y-69245599D01*
X167766503Y-69269737D01*
X167833580Y-69283079D01*
X167895490Y-69315463D01*
X167897069Y-69317015D01*
X169813181Y-71233127D01*
X169846666Y-71294450D01*
X169849500Y-71320808D01*
X169849500Y-80495064D01*
X169829815Y-80562103D01*
X169828603Y-80563954D01*
X169790608Y-80620817D01*
X169790602Y-80620828D01*
X169730264Y-80766498D01*
X169730261Y-80766510D01*
X169699500Y-80921153D01*
X169699500Y-81078846D01*
X169730261Y-81233489D01*
X169730264Y-81233501D01*
X169790602Y-81379172D01*
X169790609Y-81379185D01*
X169878210Y-81510288D01*
X169878213Y-81510292D01*
X169989707Y-81621786D01*
X169989711Y-81621789D01*
X170120814Y-81709390D01*
X170120827Y-81709397D01*
X170266498Y-81769735D01*
X170266503Y-81769737D01*
X170417569Y-81799786D01*
X170421153Y-81800499D01*
X170421156Y-81800500D01*
X170421158Y-81800500D01*
X170578844Y-81800500D01*
X170578845Y-81800499D01*
X170733497Y-81769737D01*
X170879179Y-81709394D01*
X171010289Y-81621789D01*
X171121789Y-81510289D01*
X171209394Y-81379179D01*
X171269737Y-81233497D01*
X171300500Y-81078842D01*
X171300500Y-80921158D01*
X171300500Y-80921155D01*
X171300499Y-80921153D01*
X171298714Y-80912179D01*
X171269737Y-80766503D01*
X171209394Y-80620821D01*
X171171396Y-80563953D01*
X171150520Y-80497276D01*
X171150500Y-80495064D01*
X171150500Y-70935928D01*
X171125502Y-70810261D01*
X171125501Y-70810260D01*
X171125501Y-70810256D01*
X171076465Y-70691873D01*
X171070443Y-70682861D01*
X171005277Y-70585331D01*
X171005275Y-70585329D01*
X171005273Y-70585326D01*
X171005272Y-70585325D01*
X168922693Y-68502747D01*
X168841099Y-68421153D01*
X170199500Y-68421153D01*
X170199500Y-68578846D01*
X170230261Y-68733489D01*
X170230264Y-68733501D01*
X170290602Y-68879172D01*
X170290609Y-68879185D01*
X170378210Y-69010288D01*
X170378213Y-69010292D01*
X170489707Y-69121786D01*
X170489711Y-69121789D01*
X170620814Y-69209390D01*
X170620827Y-69209397D01*
X170708230Y-69245599D01*
X170766503Y-69269737D01*
X170833580Y-69283079D01*
X170895490Y-69315463D01*
X170897069Y-69317015D01*
X173813181Y-72233127D01*
X173846666Y-72294450D01*
X173849500Y-72320808D01*
X173849500Y-85495064D01*
X173829815Y-85562103D01*
X173828603Y-85563954D01*
X173790608Y-85620817D01*
X173790602Y-85620828D01*
X173730264Y-85766498D01*
X173730261Y-85766510D01*
X173699500Y-85921153D01*
X173699500Y-86078846D01*
X173730261Y-86233489D01*
X173730264Y-86233501D01*
X173790602Y-86379172D01*
X173790609Y-86379185D01*
X173878210Y-86510288D01*
X173878213Y-86510292D01*
X173989707Y-86621786D01*
X173989711Y-86621789D01*
X174120814Y-86709390D01*
X174120827Y-86709397D01*
X174266498Y-86769735D01*
X174266503Y-86769737D01*
X174421153Y-86800499D01*
X174421156Y-86800500D01*
X174421158Y-86800500D01*
X174578844Y-86800500D01*
X174578845Y-86800499D01*
X174733497Y-86769737D01*
X174879179Y-86709394D01*
X175010289Y-86621789D01*
X175121789Y-86510289D01*
X175209394Y-86379179D01*
X175269737Y-86233497D01*
X175300500Y-86078842D01*
X175300500Y-85921158D01*
X175300500Y-85921155D01*
X175300499Y-85921153D01*
X175295041Y-85893713D01*
X175269737Y-85766503D01*
X175209394Y-85620821D01*
X175171396Y-85563953D01*
X175150520Y-85497276D01*
X175150500Y-85495064D01*
X175150500Y-71935928D01*
X175125502Y-71810261D01*
X175125501Y-71810260D01*
X175125501Y-71810256D01*
X175076465Y-71691873D01*
X175032117Y-71625501D01*
X175005276Y-71585330D01*
X175005274Y-71585327D01*
X175005271Y-71585324D01*
X171817014Y-68397068D01*
X171783529Y-68335745D01*
X171783105Y-68333714D01*
X171769737Y-68266503D01*
X171745599Y-68208230D01*
X171709397Y-68120827D01*
X171709390Y-68120814D01*
X171621789Y-67989711D01*
X171621786Y-67989707D01*
X171510292Y-67878213D01*
X171510288Y-67878210D01*
X171379185Y-67790609D01*
X171379172Y-67790602D01*
X171233501Y-67730264D01*
X171233489Y-67730261D01*
X171078845Y-67699500D01*
X171078842Y-67699500D01*
X170921158Y-67699500D01*
X170921155Y-67699500D01*
X170766510Y-67730261D01*
X170766498Y-67730264D01*
X170620827Y-67790602D01*
X170620814Y-67790609D01*
X170489711Y-67878210D01*
X170489707Y-67878213D01*
X170378213Y-67989707D01*
X170378210Y-67989711D01*
X170290609Y-68120814D01*
X170290602Y-68120827D01*
X170230264Y-68266498D01*
X170230261Y-68266510D01*
X170199500Y-68421153D01*
X168841099Y-68421153D01*
X168817014Y-68397068D01*
X168783529Y-68335745D01*
X168783105Y-68333714D01*
X168769737Y-68266503D01*
X168745599Y-68208230D01*
X168709397Y-68120827D01*
X168709390Y-68120814D01*
X168621789Y-67989711D01*
X168621786Y-67989707D01*
X168510292Y-67878213D01*
X168510288Y-67878210D01*
X168379185Y-67790609D01*
X168379172Y-67790602D01*
X168233501Y-67730264D01*
X168233489Y-67730261D01*
X168078845Y-67699500D01*
X168078842Y-67699500D01*
X167921158Y-67699500D01*
X167921155Y-67699500D01*
X167766510Y-67730261D01*
X167766498Y-67730264D01*
X167620827Y-67790602D01*
X167620814Y-67790609D01*
X167489711Y-67878210D01*
X167489707Y-67878213D01*
X167378213Y-67989707D01*
X167378210Y-67989711D01*
X167290609Y-68120814D01*
X167290602Y-68120827D01*
X167230264Y-68266498D01*
X167230261Y-68266510D01*
X167199500Y-68421153D01*
X164150500Y-68421153D01*
X164150500Y-68320808D01*
X164170185Y-68253769D01*
X164186819Y-68233127D01*
X168483127Y-63936819D01*
X168544450Y-63903334D01*
X168570808Y-63900500D01*
X171429192Y-63900500D01*
X171496231Y-63920185D01*
X171516873Y-63936819D01*
X176182983Y-68602929D01*
X176216468Y-68664252D01*
X176216919Y-68666418D01*
X176230261Y-68733491D01*
X176230263Y-68733499D01*
X176290602Y-68879172D01*
X176290609Y-68879185D01*
X176378210Y-69010288D01*
X176378213Y-69010292D01*
X176489707Y-69121786D01*
X176489711Y-69121789D01*
X176620814Y-69209390D01*
X176620827Y-69209397D01*
X176766498Y-69269735D01*
X176766503Y-69269737D01*
X176870468Y-69290417D01*
X176921153Y-69300499D01*
X176921156Y-69300500D01*
X176921158Y-69300500D01*
X177078844Y-69300500D01*
X177078845Y-69300499D01*
X177233497Y-69269737D01*
X177379179Y-69209394D01*
X177510289Y-69121789D01*
X177621789Y-69010289D01*
X177709394Y-68879179D01*
X177769737Y-68733497D01*
X177800500Y-68578842D01*
X177800500Y-68421158D01*
X177800500Y-68421155D01*
X177800499Y-68421153D01*
X177769738Y-68266510D01*
X177769737Y-68266503D01*
X177769735Y-68266498D01*
X177709397Y-68120827D01*
X177709390Y-68120814D01*
X177621789Y-67989711D01*
X177621786Y-67989707D01*
X177510292Y-67878213D01*
X177510288Y-67878210D01*
X177379185Y-67790609D01*
X177379172Y-67790602D01*
X177233499Y-67730263D01*
X177233491Y-67730261D01*
X177166418Y-67716919D01*
X177104507Y-67684534D01*
X177102929Y-67682983D01*
X172164674Y-62744727D01*
X172164673Y-62744726D01*
X172164669Y-62744723D01*
X172058127Y-62673535D01*
X171939744Y-62624499D01*
X171939738Y-62624497D01*
X171814071Y-62599500D01*
X171814069Y-62599500D01*
X168185931Y-62599500D01*
X168185929Y-62599500D01*
X168060261Y-62624497D01*
X168060255Y-62624499D01*
X167941870Y-62673535D01*
X167835331Y-62744722D01*
X167835324Y-62744728D01*
X162994724Y-67585328D01*
X162951179Y-67650498D01*
X162951180Y-67650499D01*
X162923534Y-67691874D01*
X162874499Y-67810255D01*
X162874497Y-67810261D01*
X162849500Y-67935928D01*
X162849500Y-70995064D01*
X162829815Y-71062103D01*
X162828603Y-71063954D01*
X162790608Y-71120817D01*
X162790602Y-71120828D01*
X162730264Y-71266498D01*
X162730261Y-71266510D01*
X162699500Y-71421153D01*
X161650500Y-71421153D01*
X161650500Y-67820808D01*
X161670185Y-67753769D01*
X161686819Y-67733127D01*
X165005271Y-64414675D01*
X165005272Y-64414674D01*
X165005276Y-64414670D01*
X165076465Y-64308127D01*
X165125501Y-64189744D01*
X165137020Y-64131835D01*
X165150500Y-64064069D01*
X165150500Y-51004935D01*
X165170185Y-50937896D01*
X165171366Y-50936090D01*
X165209394Y-50879179D01*
X165212854Y-50870827D01*
X165229655Y-50830264D01*
X165269737Y-50733497D01*
X165300500Y-50578842D01*
X165300500Y-50421158D01*
X165300500Y-50421155D01*
X165300499Y-50421153D01*
X165282367Y-50330000D01*
X165269737Y-50266503D01*
X165254847Y-50230554D01*
X165209397Y-50120827D01*
X165209390Y-50120814D01*
X165121789Y-49989711D01*
X165121786Y-49989707D01*
X165010292Y-49878213D01*
X165010288Y-49878210D01*
X164879185Y-49790609D01*
X164879172Y-49790602D01*
X164733501Y-49730264D01*
X164733489Y-49730261D01*
X164578845Y-49699500D01*
X164578842Y-49699500D01*
X164421158Y-49699500D01*
X164421155Y-49699500D01*
X164266510Y-49730261D01*
X164266498Y-49730264D01*
X164120827Y-49790602D01*
X164120814Y-49790609D01*
X163989711Y-49878210D01*
X163989707Y-49878213D01*
X163878213Y-49989707D01*
X163878210Y-49989711D01*
X163790609Y-50120814D01*
X163790602Y-50120827D01*
X163730264Y-50266498D01*
X163730261Y-50266510D01*
X163699500Y-50421153D01*
X163699500Y-50578846D01*
X163730261Y-50733489D01*
X163730264Y-50733501D01*
X163790602Y-50879172D01*
X163790606Y-50879179D01*
X163828602Y-50936044D01*
X163849480Y-51002721D01*
X163849500Y-51004935D01*
X163849500Y-63679191D01*
X163829815Y-63746230D01*
X163813181Y-63766872D01*
X160494727Y-67085325D01*
X160494724Y-67085328D01*
X160446742Y-67157140D01*
X160423535Y-67191871D01*
X160374499Y-67310255D01*
X160374497Y-67310261D01*
X160349500Y-67435928D01*
X160349500Y-67435931D01*
X160349500Y-92064069D01*
X160349500Y-92064071D01*
X160349499Y-92064071D01*
X152522111Y-92064071D01*
X152511557Y-92031588D01*
X152415051Y-91842184D01*
X152415049Y-91842181D01*
X152415048Y-91842179D01*
X152290109Y-91670213D01*
X152139786Y-91519890D01*
X151967820Y-91394951D01*
X151778414Y-91298444D01*
X151778413Y-91298443D01*
X151778412Y-91298443D01*
X151576243Y-91232754D01*
X151576241Y-91232753D01*
X151576240Y-91232753D01*
X151414957Y-91207208D01*
X151366287Y-91199500D01*
X151153713Y-91199500D01*
X151105042Y-91207208D01*
X150943760Y-91232753D01*
X150741585Y-91298444D01*
X150552179Y-91394951D01*
X150380213Y-91519890D01*
X150229890Y-91670213D01*
X150104951Y-91842179D01*
X150008444Y-92031585D01*
X149942753Y-92233760D01*
X149914099Y-92414674D01*
X149909500Y-92443713D01*
X148339158Y-92443713D01*
X148315925Y-92357007D01*
X148283012Y-92300000D01*
X149200000Y-92300000D01*
X149200000Y-91652172D01*
X149199999Y-91652155D01*
X149193598Y-91592627D01*
X149193596Y-91592620D01*
X149143354Y-91457913D01*
X149143350Y-91457906D01*
X149057190Y-91342812D01*
X149057187Y-91342809D01*
X148942093Y-91256649D01*
X148942086Y-91256645D01*
X148807379Y-91206403D01*
X148807372Y-91206401D01*
X148747844Y-91200000D01*
X148100000Y-91200000D01*
X148100000Y-92116988D01*
X148042993Y-92084075D01*
X147915826Y-92050000D01*
X147784174Y-92050000D01*
X147657007Y-92084075D01*
X147600000Y-92116988D01*
X147600000Y-91200000D01*
X146952155Y-91200000D01*
X146892627Y-91206401D01*
X146892620Y-91206403D01*
X146757913Y-91256645D01*
X146757906Y-91256649D01*
X146642812Y-91342809D01*
X146642809Y-91342812D01*
X146556649Y-91457906D01*
X146556645Y-91457913D01*
X146506403Y-91592620D01*
X146506401Y-91592627D01*
X146500000Y-91652155D01*
X144500500Y-91652155D01*
X144500500Y-80813713D01*
X147649500Y-80813713D01*
X147649500Y-81026286D01*
X147682753Y-81236239D01*
X147748444Y-81438414D01*
X147844951Y-81627820D01*
X147969890Y-81799786D01*
X148120213Y-81950109D01*
X148292182Y-82075050D01*
X148300946Y-82079516D01*
X148351742Y-82127491D01*
X148368536Y-82195312D01*
X148345998Y-82261447D01*
X148300946Y-82300484D01*
X148292182Y-82304949D01*
X148120213Y-82429890D01*
X147969890Y-82580213D01*
X147844951Y-82752179D01*
X147748444Y-82941585D01*
X147682753Y-83143760D01*
X147649500Y-83353713D01*
X147649500Y-83566286D01*
X147682753Y-83776239D01*
X147748444Y-83978414D01*
X147844951Y-84167820D01*
X147969890Y-84339786D01*
X148120213Y-84490109D01*
X148292182Y-84615050D01*
X148300946Y-84619516D01*
X148351742Y-84667491D01*
X148368536Y-84735312D01*
X148345998Y-84801447D01*
X148300946Y-84840484D01*
X148292182Y-84844949D01*
X148120213Y-84969890D01*
X147969890Y-85120213D01*
X147844951Y-85292179D01*
X147748444Y-85481585D01*
X147682753Y-85683760D01*
X147669649Y-85766498D01*
X147649500Y-85893713D01*
X147649500Y-86106287D01*
X147682754Y-86316243D01*
X147745803Y-86510288D01*
X147748444Y-86518414D01*
X147844951Y-86707820D01*
X147969890Y-86879786D01*
X148120213Y-87030109D01*
X148292179Y-87155048D01*
X148292181Y-87155049D01*
X148292184Y-87155051D01*
X148481588Y-87251557D01*
X148683757Y-87317246D01*
X148893713Y-87350500D01*
X148893714Y-87350500D01*
X149106286Y-87350500D01*
X149106287Y-87350500D01*
X149316243Y-87317246D01*
X149518412Y-87251557D01*
X149707816Y-87155051D01*
X149729789Y-87139086D01*
X149879786Y-87030109D01*
X149879788Y-87030106D01*
X149879792Y-87030104D01*
X150030104Y-86879792D01*
X150030106Y-86879788D01*
X150030109Y-86879786D01*
X150153902Y-86709397D01*
X150155051Y-86707816D01*
X150251557Y-86518412D01*
X150317246Y-86316243D01*
X150350500Y-86106287D01*
X150350500Y-85893713D01*
X150317246Y-85683757D01*
X150251557Y-85481588D01*
X150155051Y-85292184D01*
X150155049Y-85292181D01*
X150155048Y-85292179D01*
X150030109Y-85120213D01*
X149879786Y-84969890D01*
X149707820Y-84844951D01*
X149707115Y-84844591D01*
X149699054Y-84840485D01*
X149648259Y-84792512D01*
X149631463Y-84724692D01*
X149653999Y-84658556D01*
X149699054Y-84619515D01*
X149707816Y-84615051D01*
X149729789Y-84599086D01*
X149879786Y-84490109D01*
X149879788Y-84490106D01*
X149879792Y-84490104D01*
X150030104Y-84339792D01*
X150030106Y-84339788D01*
X150030109Y-84339786D01*
X150155048Y-84167820D01*
X150155047Y-84167820D01*
X150155051Y-84167816D01*
X150251557Y-83978412D01*
X150317246Y-83776243D01*
X150350500Y-83566287D01*
X150350500Y-83353713D01*
X150317246Y-83143757D01*
X150251557Y-82941588D01*
X150155051Y-82752184D01*
X150155049Y-82752181D01*
X150155048Y-82752179D01*
X150030109Y-82580213D01*
X149879786Y-82429890D01*
X149707820Y-82304951D01*
X149707115Y-82304591D01*
X149699054Y-82300485D01*
X149648259Y-82252512D01*
X149631463Y-82184692D01*
X149653999Y-82118556D01*
X149699054Y-82079515D01*
X149707816Y-82075051D01*
X149729789Y-82059086D01*
X149879786Y-81950109D01*
X149879788Y-81950106D01*
X149879792Y-81950104D01*
X150030104Y-81799792D01*
X150030106Y-81799788D01*
X150030109Y-81799786D01*
X150155048Y-81627820D01*
X150155047Y-81627820D01*
X150155051Y-81627816D01*
X150251557Y-81438412D01*
X150317246Y-81236243D01*
X150350500Y-81026287D01*
X150350500Y-80813713D01*
X150317246Y-80603757D01*
X150251557Y-80401588D01*
X150155051Y-80212184D01*
X150155049Y-80212181D01*
X150155048Y-80212179D01*
X150030109Y-80040213D01*
X149916181Y-79926285D01*
X149882696Y-79864962D01*
X149887680Y-79795270D01*
X149929552Y-79739337D01*
X149960529Y-79722422D01*
X150092086Y-79673354D01*
X150092093Y-79673350D01*
X150207187Y-79587190D01*
X150207190Y-79587187D01*
X150293350Y-79472093D01*
X150293354Y-79472086D01*
X150343596Y-79337379D01*
X150343598Y-79337372D01*
X150349999Y-79277844D01*
X150350000Y-79277827D01*
X150350000Y-78630000D01*
X149433012Y-78630000D01*
X149465925Y-78572993D01*
X149500000Y-78445826D01*
X149500000Y-78314174D01*
X149465925Y-78187007D01*
X149433012Y-78130000D01*
X150350000Y-78130000D01*
X150350000Y-77482172D01*
X150349999Y-77482155D01*
X150343598Y-77422627D01*
X150343596Y-77422620D01*
X150293354Y-77287913D01*
X150293350Y-77287906D01*
X150207190Y-77172812D01*
X150207187Y-77172809D01*
X150092093Y-77086649D01*
X150092086Y-77086645D01*
X149957379Y-77036403D01*
X149957372Y-77036401D01*
X149897844Y-77030000D01*
X149250000Y-77030000D01*
X149250000Y-77946988D01*
X149192993Y-77914075D01*
X149065826Y-77880000D01*
X148934174Y-77880000D01*
X148807007Y-77914075D01*
X148750000Y-77946988D01*
X148750000Y-77030000D01*
X148102155Y-77030000D01*
X148042627Y-77036401D01*
X148042620Y-77036403D01*
X147907913Y-77086645D01*
X147907906Y-77086649D01*
X147792812Y-77172809D01*
X147792809Y-77172812D01*
X147706649Y-77287906D01*
X147706645Y-77287913D01*
X147656403Y-77422620D01*
X147656401Y-77422627D01*
X147650000Y-77482155D01*
X147650000Y-78130000D01*
X148566988Y-78130000D01*
X148534075Y-78187007D01*
X148500000Y-78314174D01*
X148500000Y-78445826D01*
X148534075Y-78572993D01*
X148566988Y-78630000D01*
X147650000Y-78630000D01*
X147650000Y-79277844D01*
X147656401Y-79337372D01*
X147656403Y-79337379D01*
X147706645Y-79472086D01*
X147706649Y-79472093D01*
X147792809Y-79587187D01*
X147792812Y-79587190D01*
X147907906Y-79673350D01*
X147907913Y-79673354D01*
X148039470Y-79722422D01*
X148095404Y-79764293D01*
X148119821Y-79829758D01*
X148104969Y-79898031D01*
X148083819Y-79926285D01*
X147969889Y-80040215D01*
X147844951Y-80212179D01*
X147748444Y-80401585D01*
X147682753Y-80603760D01*
X147649500Y-80813713D01*
X144500500Y-80813713D01*
X144500500Y-76381153D01*
X152659500Y-76381153D01*
X152659500Y-76538846D01*
X152690261Y-76693489D01*
X152690264Y-76693501D01*
X152750602Y-76839172D01*
X152750609Y-76839185D01*
X152838210Y-76970288D01*
X152838213Y-76970292D01*
X152949707Y-77081786D01*
X152949711Y-77081789D01*
X153080814Y-77169390D01*
X153080827Y-77169397D01*
X153226498Y-77229735D01*
X153226503Y-77229737D01*
X153381153Y-77260499D01*
X153381156Y-77260500D01*
X153381158Y-77260500D01*
X153538844Y-77260500D01*
X153538845Y-77260499D01*
X153693497Y-77229737D01*
X153830927Y-77172812D01*
X153839172Y-77169397D01*
X153839172Y-77169396D01*
X153839179Y-77169394D01*
X153970289Y-77081789D01*
X154081789Y-76970289D01*
X154169394Y-76839179D01*
X154229737Y-76693497D01*
X154260500Y-76538842D01*
X154260500Y-76421153D01*
X155699500Y-76421153D01*
X155699500Y-76578846D01*
X155730261Y-76733489D01*
X155730264Y-76733501D01*
X155790602Y-76879172D01*
X155790609Y-76879185D01*
X155878210Y-77010288D01*
X155878213Y-77010292D01*
X155989707Y-77121786D01*
X155989711Y-77121789D01*
X156120814Y-77209390D01*
X156120827Y-77209397D01*
X156266498Y-77269735D01*
X156266503Y-77269737D01*
X156421153Y-77300499D01*
X156421156Y-77300500D01*
X156421158Y-77300500D01*
X156578844Y-77300500D01*
X156578845Y-77300499D01*
X156733497Y-77269737D01*
X156879179Y-77209394D01*
X157010289Y-77121789D01*
X157121789Y-77010289D01*
X157209394Y-76879179D01*
X157269737Y-76733497D01*
X157300500Y-76578842D01*
X157300500Y-76421158D01*
X157300500Y-76421155D01*
X157300499Y-76421153D01*
X157269738Y-76266510D01*
X157269737Y-76266503D01*
X157269735Y-76266498D01*
X157209397Y-76120828D01*
X157209396Y-76120827D01*
X157209394Y-76120821D01*
X157171396Y-76063953D01*
X157150520Y-75997276D01*
X157150500Y-75995064D01*
X157150500Y-67320808D01*
X157170185Y-67253769D01*
X157186819Y-67233127D01*
X157505273Y-66914673D01*
X157505277Y-66914669D01*
X157576465Y-66808127D01*
X157625501Y-66689743D01*
X157650500Y-66564069D01*
X157650500Y-66435931D01*
X157650500Y-62588656D01*
X157670185Y-62521617D01*
X157671366Y-62519811D01*
X157709394Y-62462900D01*
X157769737Y-62317218D01*
X157800500Y-62162563D01*
X157800500Y-62004879D01*
X157800500Y-62004876D01*
X157800499Y-62004874D01*
X157769737Y-61850224D01*
X157756560Y-61818412D01*
X157709397Y-61704548D01*
X157709390Y-61704535D01*
X157621789Y-61573432D01*
X157621786Y-61573428D01*
X157510292Y-61461934D01*
X157510288Y-61461931D01*
X157379185Y-61374330D01*
X157379172Y-61374323D01*
X157233501Y-61313985D01*
X157233489Y-61313982D01*
X157078845Y-61283221D01*
X157078842Y-61283221D01*
X156921158Y-61283221D01*
X156921155Y-61283221D01*
X156766510Y-61313982D01*
X156766498Y-61313985D01*
X156620827Y-61374323D01*
X156620814Y-61374330D01*
X156489711Y-61461931D01*
X156489707Y-61461934D01*
X156378213Y-61573428D01*
X156378210Y-61573432D01*
X156290609Y-61704535D01*
X156290602Y-61704548D01*
X156230264Y-61850219D01*
X156230261Y-61850231D01*
X156199500Y-62004874D01*
X156199500Y-62162567D01*
X156230261Y-62317210D01*
X156230264Y-62317222D01*
X156290602Y-62462893D01*
X156290606Y-62462900D01*
X156328602Y-62519765D01*
X156349480Y-62586442D01*
X156349500Y-62588656D01*
X156349500Y-66179191D01*
X156329815Y-66246230D01*
X156313181Y-66266872D01*
X155994727Y-66585325D01*
X155994726Y-66585326D01*
X155936925Y-66671834D01*
X155936923Y-66671837D01*
X155923536Y-66691870D01*
X155923533Y-66691875D01*
X155874499Y-66810255D01*
X155874497Y-66810261D01*
X155849500Y-66935928D01*
X155849500Y-75995064D01*
X155829815Y-76062103D01*
X155828603Y-76063954D01*
X155790608Y-76120817D01*
X155790602Y-76120828D01*
X155730264Y-76266498D01*
X155730261Y-76266510D01*
X155699500Y-76421153D01*
X154260500Y-76421153D01*
X154260500Y-76381158D01*
X154260500Y-76381155D01*
X154260499Y-76381153D01*
X154237695Y-76266510D01*
X154229737Y-76226503D01*
X154185965Y-76120828D01*
X154169397Y-76080828D01*
X154169396Y-76080827D01*
X154169394Y-76080821D01*
X154169390Y-76080815D01*
X154166521Y-76075447D01*
X154168452Y-76074414D01*
X154150520Y-76017137D01*
X154150500Y-76014929D01*
X154150500Y-69004935D01*
X154170185Y-68937896D01*
X154171366Y-68936090D01*
X154209394Y-68879179D01*
X154269737Y-68733497D01*
X154300500Y-68578842D01*
X154300500Y-68421158D01*
X154300500Y-68421155D01*
X154300499Y-68421153D01*
X154269738Y-68266510D01*
X154269737Y-68266503D01*
X154269735Y-68266498D01*
X154209397Y-68120827D01*
X154209390Y-68120814D01*
X154121789Y-67989711D01*
X154121786Y-67989707D01*
X154010292Y-67878213D01*
X154010288Y-67878210D01*
X153879185Y-67790609D01*
X153879172Y-67790602D01*
X153733501Y-67730264D01*
X153733489Y-67730261D01*
X153578845Y-67699500D01*
X153578842Y-67699500D01*
X153421158Y-67699500D01*
X153421155Y-67699500D01*
X153266510Y-67730261D01*
X153266498Y-67730264D01*
X153120827Y-67790602D01*
X153120814Y-67790609D01*
X152989711Y-67878210D01*
X152989707Y-67878213D01*
X152878213Y-67989707D01*
X152878210Y-67989711D01*
X152790609Y-68120814D01*
X152790602Y-68120827D01*
X152730264Y-68266498D01*
X152730261Y-68266510D01*
X152699500Y-68421153D01*
X152699500Y-68578846D01*
X152730261Y-68733489D01*
X152730264Y-68733501D01*
X152790602Y-68879172D01*
X152790606Y-68879179D01*
X152828602Y-68936044D01*
X152849480Y-69002721D01*
X152849500Y-69004935D01*
X152849500Y-75895200D01*
X152829815Y-75962239D01*
X152828602Y-75964091D01*
X152750609Y-76080814D01*
X152750602Y-76080827D01*
X152690264Y-76226498D01*
X152690261Y-76226510D01*
X152659500Y-76381153D01*
X144500500Y-76381153D01*
X144500500Y-64921153D01*
X152699500Y-64921153D01*
X152699500Y-65078846D01*
X152730261Y-65233489D01*
X152730264Y-65233501D01*
X152790602Y-65379172D01*
X152790609Y-65379185D01*
X152878210Y-65510288D01*
X152878213Y-65510292D01*
X152989707Y-65621786D01*
X152989711Y-65621789D01*
X153120814Y-65709390D01*
X153120827Y-65709397D01*
X153266498Y-65769735D01*
X153266503Y-65769737D01*
X153421153Y-65800499D01*
X153421156Y-65800500D01*
X153421158Y-65800500D01*
X153578844Y-65800500D01*
X153578845Y-65800499D01*
X153733497Y-65769737D01*
X153879179Y-65709394D01*
X154010289Y-65621789D01*
X154121789Y-65510289D01*
X154209394Y-65379179D01*
X154269737Y-65233497D01*
X154283079Y-65166416D01*
X154315463Y-65104509D01*
X154316957Y-65102987D01*
X155005277Y-64414669D01*
X155076466Y-64308126D01*
X155125501Y-64189743D01*
X155150500Y-64064069D01*
X155150500Y-63935931D01*
X155150500Y-56004935D01*
X155170185Y-55937896D01*
X155171366Y-55936090D01*
X155209394Y-55879179D01*
X155269737Y-55733497D01*
X155300500Y-55578842D01*
X155300500Y-55421158D01*
X155300500Y-55421155D01*
X155300499Y-55421153D01*
X155289825Y-55367491D01*
X155269737Y-55266503D01*
X155226438Y-55161968D01*
X155209397Y-55120827D01*
X155209390Y-55120814D01*
X155121789Y-54989711D01*
X155121786Y-54989707D01*
X155010292Y-54878213D01*
X155010288Y-54878210D01*
X154879185Y-54790609D01*
X154879172Y-54790602D01*
X154733501Y-54730264D01*
X154733489Y-54730261D01*
X154578845Y-54699500D01*
X154578842Y-54699500D01*
X154421158Y-54699500D01*
X154421155Y-54699500D01*
X154266510Y-54730261D01*
X154266498Y-54730264D01*
X154120827Y-54790602D01*
X154120814Y-54790609D01*
X153989711Y-54878210D01*
X153989707Y-54878213D01*
X153878213Y-54989707D01*
X153878210Y-54989711D01*
X153790609Y-55120814D01*
X153790602Y-55120827D01*
X153730264Y-55266498D01*
X153730261Y-55266510D01*
X153699500Y-55421153D01*
X153699500Y-55578846D01*
X153730261Y-55733489D01*
X153730264Y-55733501D01*
X153790602Y-55879172D01*
X153790606Y-55879179D01*
X153828602Y-55936044D01*
X153849480Y-56002721D01*
X153849500Y-56004935D01*
X153849500Y-63679191D01*
X153829815Y-63746230D01*
X153813181Y-63766872D01*
X153397068Y-64182984D01*
X153335745Y-64216469D01*
X153333579Y-64216920D01*
X153266508Y-64230261D01*
X153266498Y-64230264D01*
X153120827Y-64290602D01*
X153120814Y-64290609D01*
X152989711Y-64378210D01*
X152989707Y-64378213D01*
X152878213Y-64489707D01*
X152878210Y-64489711D01*
X152790609Y-64620814D01*
X152790602Y-64620827D01*
X152730264Y-64766498D01*
X152730261Y-64766510D01*
X152699500Y-64921153D01*
X144500500Y-64921153D01*
X144500500Y-28653713D01*
X147849500Y-28653713D01*
X147849500Y-28866286D01*
X147879585Y-29056239D01*
X147882754Y-29076243D01*
X147946269Y-29271722D01*
X147948444Y-29278414D01*
X148044951Y-29467820D01*
X148169890Y-29639786D01*
X148320213Y-29790109D01*
X148492182Y-29915050D01*
X148500946Y-29919516D01*
X148551742Y-29967491D01*
X148568536Y-30035312D01*
X148545998Y-30101447D01*
X148500946Y-30140484D01*
X148492182Y-30144949D01*
X148320213Y-30269890D01*
X148169890Y-30420213D01*
X148044951Y-30592179D01*
X147948444Y-30781585D01*
X147882753Y-30983760D01*
X147849500Y-31193713D01*
X147849500Y-31406286D01*
X147879585Y-31596239D01*
X147882754Y-31616243D01*
X147941945Y-31798414D01*
X147948444Y-31818414D01*
X148044951Y-32007820D01*
X148169890Y-32179786D01*
X148320213Y-32330109D01*
X148492182Y-32455050D01*
X148500946Y-32459516D01*
X148551742Y-32507491D01*
X148568536Y-32575312D01*
X148545998Y-32641447D01*
X148500946Y-32680484D01*
X148492182Y-32684949D01*
X148320213Y-32809890D01*
X148169890Y-32960213D01*
X148044951Y-33132179D01*
X147948444Y-33321585D01*
X147882753Y-33523760D01*
X147849500Y-33733713D01*
X147849500Y-33946286D01*
X147879585Y-34136239D01*
X147882754Y-34156243D01*
X147941945Y-34338414D01*
X147948444Y-34358414D01*
X148044951Y-34547820D01*
X148169890Y-34719786D01*
X148320213Y-34870109D01*
X148492182Y-34995050D01*
X148500946Y-34999516D01*
X148551742Y-35047491D01*
X148568536Y-35115312D01*
X148545998Y-35181447D01*
X148500946Y-35220484D01*
X148492182Y-35224949D01*
X148320213Y-35349890D01*
X148169890Y-35500213D01*
X148044951Y-35672179D01*
X147948444Y-35861585D01*
X147882753Y-36063760D01*
X147849500Y-36273713D01*
X147849500Y-36486286D01*
X147879585Y-36676239D01*
X147882754Y-36696243D01*
X147941945Y-36878414D01*
X147948444Y-36898414D01*
X148044951Y-37087820D01*
X148169890Y-37259786D01*
X148320213Y-37410109D01*
X148492182Y-37535050D01*
X148500946Y-37539516D01*
X148551742Y-37587491D01*
X148568536Y-37655312D01*
X148545998Y-37721447D01*
X148500946Y-37760484D01*
X148492182Y-37764949D01*
X148320213Y-37889890D01*
X148169890Y-38040213D01*
X148044951Y-38212179D01*
X147948444Y-38401585D01*
X147882753Y-38603760D01*
X147849500Y-38813713D01*
X147849500Y-39026286D01*
X147879585Y-39216239D01*
X147882754Y-39236243D01*
X147941945Y-39418414D01*
X147948444Y-39438414D01*
X148044951Y-39627820D01*
X148169890Y-39799786D01*
X148320213Y-39950109D01*
X148492182Y-40075050D01*
X148500946Y-40079516D01*
X148551742Y-40127491D01*
X148568536Y-40195312D01*
X148545998Y-40261447D01*
X148500946Y-40300484D01*
X148492182Y-40304949D01*
X148320213Y-40429890D01*
X148169890Y-40580213D01*
X148044951Y-40752179D01*
X147948444Y-40941585D01*
X147882753Y-41143760D01*
X147849500Y-41353713D01*
X147849500Y-41566286D01*
X147881723Y-41769737D01*
X147882754Y-41776243D01*
X147941945Y-41958414D01*
X147948444Y-41978414D01*
X148044951Y-42167820D01*
X148169890Y-42339786D01*
X148283818Y-42453714D01*
X148317303Y-42515037D01*
X148312319Y-42584729D01*
X148270447Y-42640662D01*
X148239471Y-42657577D01*
X148107912Y-42706646D01*
X148107906Y-42706649D01*
X147992812Y-42792809D01*
X147992809Y-42792812D01*
X147906649Y-42907906D01*
X147906645Y-42907913D01*
X147856403Y-43042620D01*
X147856401Y-43042627D01*
X147850000Y-43102155D01*
X147850000Y-43750000D01*
X148766988Y-43750000D01*
X148734075Y-43807007D01*
X148700000Y-43934174D01*
X148700000Y-44065826D01*
X148734075Y-44192993D01*
X148766988Y-44250000D01*
X147850000Y-44250000D01*
X147850000Y-44897844D01*
X147856401Y-44957372D01*
X147856403Y-44957379D01*
X147906645Y-45092086D01*
X147906649Y-45092093D01*
X147992809Y-45207187D01*
X147992812Y-45207190D01*
X148107906Y-45293350D01*
X148107913Y-45293354D01*
X148239470Y-45342422D01*
X148295404Y-45384293D01*
X148319821Y-45449758D01*
X148304969Y-45518031D01*
X148283819Y-45546285D01*
X148169889Y-45660215D01*
X148044951Y-45832179D01*
X147948444Y-46021585D01*
X147882753Y-46223760D01*
X147849500Y-46433713D01*
X147849500Y-46646286D01*
X147879585Y-46836239D01*
X147882754Y-46856243D01*
X147941945Y-47038414D01*
X147948444Y-47058414D01*
X148044951Y-47247820D01*
X148169890Y-47419786D01*
X148320213Y-47570109D01*
X148492182Y-47695050D01*
X148500946Y-47699516D01*
X148551742Y-47747491D01*
X148568536Y-47815312D01*
X148545998Y-47881447D01*
X148500946Y-47920484D01*
X148492182Y-47924949D01*
X148320213Y-48049890D01*
X148169890Y-48200213D01*
X148044951Y-48372179D01*
X147948444Y-48561585D01*
X147882753Y-48763760D01*
X147849500Y-48973713D01*
X147849500Y-49186286D01*
X147879585Y-49376239D01*
X147882754Y-49396243D01*
X147946916Y-49593713D01*
X147948444Y-49598414D01*
X148044951Y-49787820D01*
X148169890Y-49959786D01*
X148320213Y-50110109D01*
X148492182Y-50235050D01*
X148500946Y-50239516D01*
X148551742Y-50287491D01*
X148568536Y-50355312D01*
X148545998Y-50421447D01*
X148500946Y-50460484D01*
X148492182Y-50464949D01*
X148320213Y-50589890D01*
X148169890Y-50740213D01*
X148044951Y-50912179D01*
X147948444Y-51101585D01*
X147882753Y-51303760D01*
X147849500Y-51513713D01*
X147849500Y-51726286D01*
X147879585Y-51916239D01*
X147882754Y-51936243D01*
X147941945Y-52118414D01*
X147948444Y-52138414D01*
X148044951Y-52327820D01*
X148169890Y-52499786D01*
X148320213Y-52650109D01*
X148492182Y-52775050D01*
X148500946Y-52779516D01*
X148551742Y-52827491D01*
X148568536Y-52895312D01*
X148545998Y-52961447D01*
X148500946Y-53000484D01*
X148492182Y-53004949D01*
X148320213Y-53129890D01*
X148169890Y-53280213D01*
X148044951Y-53452179D01*
X147948444Y-53641585D01*
X147882753Y-53843760D01*
X147849500Y-54053713D01*
X147849500Y-54266286D01*
X147879585Y-54456239D01*
X147882754Y-54476243D01*
X147941945Y-54658414D01*
X147948444Y-54678414D01*
X148044951Y-54867820D01*
X148169890Y-55039786D01*
X148320213Y-55190109D01*
X148492182Y-55315050D01*
X148500946Y-55319516D01*
X148551742Y-55367491D01*
X148568536Y-55435312D01*
X148545998Y-55501447D01*
X148500946Y-55540484D01*
X148492182Y-55544949D01*
X148320213Y-55669890D01*
X148169890Y-55820213D01*
X148044951Y-55992179D01*
X147948444Y-56181585D01*
X147882753Y-56383760D01*
X147861729Y-56516503D01*
X147849500Y-56593713D01*
X147849500Y-56806287D01*
X147856520Y-56850609D01*
X147877567Y-56983497D01*
X147882754Y-57016243D01*
X147924890Y-57145925D01*
X147948444Y-57218414D01*
X148044951Y-57407820D01*
X148169890Y-57579786D01*
X148320213Y-57730109D01*
X148492179Y-57855048D01*
X148492181Y-57855049D01*
X148492184Y-57855051D01*
X148681588Y-57951557D01*
X148883757Y-58017246D01*
X149093713Y-58050500D01*
X149093714Y-58050500D01*
X149306286Y-58050500D01*
X149306287Y-58050500D01*
X149516243Y-58017246D01*
X149718412Y-57951557D01*
X149907816Y-57855051D01*
X149992533Y-57793501D01*
X150079786Y-57730109D01*
X150079788Y-57730106D01*
X150079792Y-57730104D01*
X150230104Y-57579792D01*
X150230106Y-57579788D01*
X150230109Y-57579786D01*
X150355048Y-57407820D01*
X150355047Y-57407820D01*
X150355051Y-57407816D01*
X150451557Y-57218412D01*
X150517246Y-57016243D01*
X150550500Y-56806287D01*
X150550500Y-56593713D01*
X150517246Y-56383757D01*
X150451557Y-56181588D01*
X150355051Y-55992184D01*
X150355049Y-55992181D01*
X150355048Y-55992179D01*
X150230109Y-55820213D01*
X150079786Y-55669890D01*
X149907820Y-55544951D01*
X149907115Y-55544591D01*
X149899054Y-55540485D01*
X149848259Y-55492512D01*
X149831463Y-55424692D01*
X149853999Y-55358556D01*
X149899054Y-55319515D01*
X149907816Y-55315051D01*
X149935344Y-55295051D01*
X150079786Y-55190109D01*
X150079788Y-55190106D01*
X150079792Y-55190104D01*
X150230104Y-55039792D01*
X150230106Y-55039788D01*
X150230109Y-55039786D01*
X150355048Y-54867820D01*
X150355047Y-54867820D01*
X150355051Y-54867816D01*
X150451557Y-54678412D01*
X150517246Y-54476243D01*
X150550500Y-54266287D01*
X150550500Y-54053713D01*
X150517246Y-53843757D01*
X150451557Y-53641588D01*
X150355051Y-53452184D01*
X150355049Y-53452181D01*
X150355048Y-53452179D01*
X150230109Y-53280213D01*
X150079786Y-53129890D01*
X149907820Y-53004951D01*
X149907115Y-53004591D01*
X149899054Y-53000485D01*
X149848259Y-52952512D01*
X149831463Y-52884692D01*
X149853999Y-52818556D01*
X149899054Y-52779515D01*
X149907816Y-52775051D01*
X150029993Y-52686285D01*
X150079786Y-52650109D01*
X150079788Y-52650106D01*
X150079792Y-52650104D01*
X150230104Y-52499792D01*
X150230106Y-52499788D01*
X150230109Y-52499786D01*
X150340977Y-52347187D01*
X150355051Y-52327816D01*
X150451557Y-52138412D01*
X150517246Y-51936243D01*
X150550500Y-51726287D01*
X150550500Y-51513713D01*
X150517246Y-51303757D01*
X150451557Y-51101588D01*
X150355051Y-50912184D01*
X150355049Y-50912181D01*
X150355048Y-50912179D01*
X150230109Y-50740213D01*
X150079786Y-50589890D01*
X149907820Y-50464951D01*
X149907115Y-50464591D01*
X149899054Y-50460485D01*
X149848259Y-50412512D01*
X149831463Y-50344692D01*
X149853999Y-50278556D01*
X149899054Y-50239515D01*
X149907816Y-50235051D01*
X149984700Y-50179192D01*
X150079786Y-50110109D01*
X150079788Y-50110106D01*
X150079792Y-50110104D01*
X150230104Y-49959792D01*
X150230106Y-49959788D01*
X150230109Y-49959786D01*
X150355048Y-49787820D01*
X150355047Y-49787820D01*
X150355051Y-49787816D01*
X150451557Y-49598412D01*
X150517246Y-49396243D01*
X150550500Y-49186287D01*
X150550500Y-48973713D01*
X150517246Y-48763757D01*
X150451557Y-48561588D01*
X150355051Y-48372184D01*
X150355049Y-48372181D01*
X150355048Y-48372179D01*
X150230109Y-48200213D01*
X150079786Y-48049890D01*
X149907820Y-47924951D01*
X149907115Y-47924591D01*
X149899054Y-47920485D01*
X149848259Y-47872512D01*
X149831463Y-47804692D01*
X149853999Y-47738556D01*
X149899054Y-47699515D01*
X149907816Y-47695051D01*
X149935348Y-47675048D01*
X150079786Y-47570109D01*
X150079788Y-47570106D01*
X150079792Y-47570104D01*
X150230104Y-47419792D01*
X150230106Y-47419788D01*
X150230109Y-47419786D01*
X150355048Y-47247820D01*
X150355047Y-47247820D01*
X150355051Y-47247816D01*
X150451557Y-47058412D01*
X150517246Y-46856243D01*
X150550500Y-46646287D01*
X150550500Y-46433713D01*
X150517246Y-46223757D01*
X150451557Y-46021588D01*
X150355051Y-45832184D01*
X150355049Y-45832181D01*
X150355048Y-45832179D01*
X150230109Y-45660213D01*
X150116181Y-45546285D01*
X150082696Y-45484962D01*
X150087680Y-45415270D01*
X150129552Y-45359337D01*
X150160529Y-45342422D01*
X150292086Y-45293354D01*
X150292093Y-45293350D01*
X150407187Y-45207190D01*
X150407190Y-45207187D01*
X150493350Y-45092093D01*
X150493354Y-45092086D01*
X150543596Y-44957379D01*
X150543598Y-44957372D01*
X150549999Y-44897844D01*
X150550000Y-44897827D01*
X150550000Y-44250000D01*
X149633012Y-44250000D01*
X149665925Y-44192993D01*
X149700000Y-44065826D01*
X149700000Y-43934174D01*
X149665925Y-43807007D01*
X149633012Y-43750000D01*
X150550000Y-43750000D01*
X150550000Y-43102172D01*
X150549999Y-43102155D01*
X150543598Y-43042627D01*
X150543596Y-43042620D01*
X150493354Y-42907913D01*
X150493350Y-42907906D01*
X150407190Y-42792812D01*
X150407187Y-42792809D01*
X150292093Y-42706649D01*
X150292088Y-42706646D01*
X150160528Y-42657577D01*
X150104595Y-42615705D01*
X150080178Y-42550241D01*
X150095030Y-42481968D01*
X150116175Y-42453720D01*
X150230104Y-42339792D01*
X150251560Y-42310261D01*
X150355048Y-42167820D01*
X150355047Y-42167820D01*
X150355051Y-42167816D01*
X150451557Y-41978412D01*
X150517246Y-41776243D01*
X150550500Y-41566287D01*
X150550500Y-41353713D01*
X150517246Y-41143757D01*
X150451557Y-40941588D01*
X150441145Y-40921153D01*
X153199500Y-40921153D01*
X153199500Y-41078846D01*
X153230261Y-41233489D01*
X153230264Y-41233501D01*
X153290602Y-41379172D01*
X153290609Y-41379185D01*
X153378210Y-41510288D01*
X153378213Y-41510292D01*
X153489707Y-41621786D01*
X153489711Y-41621789D01*
X153620814Y-41709390D01*
X153620827Y-41709397D01*
X153708230Y-41745599D01*
X153766503Y-41769737D01*
X153833580Y-41783079D01*
X153895490Y-41815463D01*
X153897069Y-41817015D01*
X154813181Y-42733127D01*
X154846666Y-42794450D01*
X154849500Y-42820808D01*
X154849500Y-50564069D01*
X154849500Y-50564071D01*
X154849499Y-50564071D01*
X154871274Y-50673532D01*
X154874498Y-50689739D01*
X154874500Y-50689746D01*
X154919961Y-50799500D01*
X154923535Y-50808127D01*
X154993063Y-50912184D01*
X154994726Y-50914673D01*
X154994727Y-50914674D01*
X155432984Y-51352929D01*
X155466469Y-51414252D01*
X155466920Y-51416419D01*
X155480261Y-51483489D01*
X155480264Y-51483501D01*
X155540602Y-51629172D01*
X155540609Y-51629185D01*
X155628210Y-51760288D01*
X155628213Y-51760292D01*
X155739707Y-51871786D01*
X155739711Y-51871789D01*
X155870814Y-51959390D01*
X155870827Y-51959397D01*
X156016498Y-52019735D01*
X156016503Y-52019737D01*
X156171153Y-52050499D01*
X156171156Y-52050500D01*
X156171158Y-52050500D01*
X156328844Y-52050500D01*
X156328845Y-52050499D01*
X156483497Y-52019737D01*
X156629179Y-51959394D01*
X156760289Y-51871789D01*
X156871789Y-51760289D01*
X156959394Y-51629179D01*
X157019737Y-51483497D01*
X157050500Y-51328842D01*
X157050500Y-51171158D01*
X157050500Y-51171155D01*
X157050499Y-51171153D01*
X157019737Y-51016503D01*
X157019735Y-51016498D01*
X156959397Y-50870827D01*
X156959390Y-50870814D01*
X156871789Y-50739711D01*
X156871786Y-50739707D01*
X156760292Y-50628213D01*
X156760288Y-50628210D01*
X156629185Y-50540609D01*
X156629172Y-50540602D01*
X156483501Y-50480264D01*
X156483489Y-50480261D01*
X156416419Y-50466920D01*
X156399662Y-50458155D01*
X156381183Y-50454135D01*
X156356141Y-50435389D01*
X156354508Y-50434535D01*
X156352988Y-50433043D01*
X156186816Y-50266871D01*
X156153334Y-50205550D01*
X156150500Y-50179192D01*
X156150500Y-42435928D01*
X156125502Y-42310261D01*
X156125501Y-42310260D01*
X156125501Y-42310256D01*
X156076465Y-42191873D01*
X156038498Y-42135051D01*
X156005276Y-42085330D01*
X156005274Y-42085327D01*
X156005271Y-42085324D01*
X154817014Y-40897068D01*
X154783529Y-40835745D01*
X154783105Y-40833714D01*
X154769737Y-40766503D01*
X154727179Y-40663757D01*
X154709397Y-40620827D01*
X154709390Y-40620814D01*
X154621789Y-40489711D01*
X154621786Y-40489707D01*
X154510292Y-40378213D01*
X154510288Y-40378210D01*
X154379185Y-40290609D01*
X154379172Y-40290602D01*
X154233501Y-40230264D01*
X154233489Y-40230261D01*
X154078845Y-40199500D01*
X154078842Y-40199500D01*
X153921158Y-40199500D01*
X153921155Y-40199500D01*
X153766510Y-40230261D01*
X153766498Y-40230264D01*
X153620827Y-40290602D01*
X153620814Y-40290609D01*
X153489711Y-40378210D01*
X153489707Y-40378213D01*
X153378213Y-40489707D01*
X153378210Y-40489711D01*
X153290609Y-40620814D01*
X153290602Y-40620827D01*
X153230264Y-40766498D01*
X153230261Y-40766510D01*
X153199500Y-40921153D01*
X150441145Y-40921153D01*
X150355051Y-40752184D01*
X150355049Y-40752181D01*
X150355048Y-40752179D01*
X150230109Y-40580213D01*
X150079786Y-40429890D01*
X149907820Y-40304951D01*
X149907115Y-40304591D01*
X149899054Y-40300485D01*
X149848259Y-40252512D01*
X149831463Y-40184692D01*
X149853999Y-40118556D01*
X149899054Y-40079515D01*
X149907816Y-40075051D01*
X149935348Y-40055048D01*
X150079786Y-39950109D01*
X150079788Y-39950106D01*
X150079792Y-39950104D01*
X150230104Y-39799792D01*
X150230106Y-39799788D01*
X150230109Y-39799786D01*
X150355048Y-39627820D01*
X150355047Y-39627820D01*
X150355051Y-39627816D01*
X150451557Y-39438412D01*
X150517246Y-39236243D01*
X150550500Y-39026287D01*
X150550500Y-38813713D01*
X150517246Y-38603757D01*
X150451557Y-38401588D01*
X150355051Y-38212184D01*
X150355049Y-38212181D01*
X150355048Y-38212179D01*
X150230109Y-38040213D01*
X150079786Y-37889890D01*
X149907820Y-37764951D01*
X149907115Y-37764591D01*
X149899054Y-37760485D01*
X149848259Y-37712512D01*
X149831463Y-37644692D01*
X149853999Y-37578556D01*
X149899054Y-37539515D01*
X149907816Y-37535051D01*
X149935348Y-37515048D01*
X150079786Y-37410109D01*
X150079788Y-37410106D01*
X150079792Y-37410104D01*
X150230104Y-37259792D01*
X150230106Y-37259788D01*
X150230109Y-37259786D01*
X150355048Y-37087820D01*
X150355047Y-37087820D01*
X150355051Y-37087816D01*
X150451557Y-36898412D01*
X150517246Y-36696243D01*
X150550500Y-36486287D01*
X150550500Y-36273713D01*
X150517246Y-36063757D01*
X150451557Y-35861588D01*
X150355051Y-35672184D01*
X150355049Y-35672181D01*
X150355048Y-35672179D01*
X150230109Y-35500213D01*
X150079786Y-35349890D01*
X149907820Y-35224951D01*
X149907115Y-35224591D01*
X149899054Y-35220485D01*
X149848259Y-35172512D01*
X149831463Y-35104692D01*
X149853999Y-35038556D01*
X149899054Y-34999515D01*
X149907816Y-34995051D01*
X149935348Y-34975048D01*
X150079786Y-34870109D01*
X150079788Y-34870106D01*
X150079792Y-34870104D01*
X150230104Y-34719792D01*
X150230106Y-34719788D01*
X150230109Y-34719786D01*
X150339086Y-34569789D01*
X150355051Y-34547816D01*
X150451557Y-34358412D01*
X150517246Y-34156243D01*
X150550500Y-33946287D01*
X150550500Y-33733713D01*
X150517246Y-33523757D01*
X150451557Y-33321588D01*
X150355051Y-33132184D01*
X150355049Y-33132181D01*
X150355048Y-33132179D01*
X150230109Y-32960213D01*
X150079786Y-32809890D01*
X149907820Y-32684951D01*
X149907115Y-32684591D01*
X149899054Y-32680485D01*
X149848259Y-32632512D01*
X149831463Y-32564692D01*
X149853999Y-32498556D01*
X149899054Y-32459515D01*
X149907816Y-32455051D01*
X150000413Y-32387776D01*
X150079786Y-32330109D01*
X150079788Y-32330106D01*
X150079792Y-32330104D01*
X150230104Y-32179792D01*
X150230106Y-32179788D01*
X150230109Y-32179786D01*
X150355048Y-32007820D01*
X150355047Y-32007820D01*
X150355051Y-32007816D01*
X150451557Y-31818412D01*
X150517246Y-31616243D01*
X150550500Y-31406287D01*
X150550500Y-31193713D01*
X150517246Y-30983757D01*
X150451557Y-30781588D01*
X150355051Y-30592184D01*
X150355049Y-30592181D01*
X150355048Y-30592179D01*
X150230109Y-30420213D01*
X150079786Y-30269890D01*
X149907820Y-30144951D01*
X149907115Y-30144591D01*
X149899054Y-30140485D01*
X149848259Y-30092512D01*
X149831463Y-30024692D01*
X149853999Y-29958556D01*
X149899054Y-29919515D01*
X149907816Y-29915051D01*
X149935348Y-29895048D01*
X150079786Y-29790109D01*
X150079788Y-29790106D01*
X150079792Y-29790104D01*
X150230104Y-29639792D01*
X150230106Y-29639788D01*
X150230109Y-29639786D01*
X150355048Y-29467820D01*
X150355047Y-29467820D01*
X150355051Y-29467816D01*
X150451557Y-29278412D01*
X150517246Y-29076243D01*
X150550500Y-28866287D01*
X150550500Y-28653713D01*
X150547332Y-28633713D01*
X165614500Y-28633713D01*
X165614500Y-28846287D01*
X165647754Y-29056243D01*
X165654252Y-29076243D01*
X165713444Y-29258414D01*
X165809951Y-29447820D01*
X165934890Y-29619786D01*
X166085213Y-29770109D01*
X166257182Y-29895050D01*
X166265946Y-29899516D01*
X166316742Y-29947491D01*
X166333536Y-30015312D01*
X166310998Y-30081447D01*
X166265946Y-30120484D01*
X166257182Y-30124949D01*
X166085213Y-30249890D01*
X165934890Y-30400213D01*
X165809951Y-30572179D01*
X165713444Y-30761585D01*
X165647753Y-30963760D01*
X165614500Y-31173713D01*
X165614500Y-31386287D01*
X165647754Y-31596243D01*
X165654252Y-31616243D01*
X165713444Y-31798414D01*
X165809951Y-31987820D01*
X165934890Y-32159786D01*
X166085213Y-32310109D01*
X166257182Y-32435050D01*
X166265946Y-32439516D01*
X166316742Y-32487491D01*
X166333536Y-32555312D01*
X166310998Y-32621447D01*
X166265946Y-32660484D01*
X166257182Y-32664949D01*
X166085213Y-32789890D01*
X165934890Y-32940213D01*
X165809951Y-33112179D01*
X165713444Y-33301585D01*
X165647753Y-33503760D01*
X165614500Y-33713713D01*
X165614500Y-33926287D01*
X165647754Y-34136243D01*
X165654252Y-34156243D01*
X165713444Y-34338414D01*
X165809951Y-34527820D01*
X165934890Y-34699786D01*
X166085213Y-34850109D01*
X166257182Y-34975050D01*
X166265946Y-34979516D01*
X166316742Y-35027491D01*
X166333536Y-35095312D01*
X166310998Y-35161447D01*
X166265946Y-35200484D01*
X166257182Y-35204949D01*
X166085213Y-35329890D01*
X165934890Y-35480213D01*
X165809951Y-35652179D01*
X165713444Y-35841585D01*
X165647753Y-36043760D01*
X165620435Y-36216239D01*
X165614500Y-36253713D01*
X165614500Y-36466287D01*
X165647754Y-36676243D01*
X165681399Y-36779792D01*
X165713444Y-36878414D01*
X165809951Y-37067820D01*
X165934890Y-37239786D01*
X166085213Y-37390109D01*
X166257182Y-37515050D01*
X166265946Y-37519516D01*
X166316742Y-37567491D01*
X166333536Y-37635312D01*
X166310998Y-37701447D01*
X166265946Y-37740484D01*
X166257182Y-37744949D01*
X166085213Y-37869890D01*
X165934890Y-38020213D01*
X165809951Y-38192179D01*
X165713444Y-38381585D01*
X165647753Y-38583760D01*
X165620435Y-38756239D01*
X165614500Y-38793713D01*
X165614500Y-39006287D01*
X165647754Y-39216243D01*
X165681399Y-39319792D01*
X165713444Y-39418414D01*
X165809951Y-39607820D01*
X165934890Y-39779786D01*
X166085213Y-39930109D01*
X166257182Y-40055050D01*
X166265946Y-40059516D01*
X166316742Y-40107491D01*
X166333536Y-40175312D01*
X166310998Y-40241447D01*
X166265946Y-40280484D01*
X166257182Y-40284949D01*
X166085213Y-40409890D01*
X165934890Y-40560213D01*
X165809951Y-40732179D01*
X165713444Y-40921585D01*
X165647753Y-41123760D01*
X165630374Y-41233489D01*
X165614500Y-41333713D01*
X165614500Y-41546287D01*
X165647754Y-41756243D01*
X165681399Y-41859792D01*
X165713444Y-41958414D01*
X165809951Y-42147820D01*
X165934890Y-42319786D01*
X166085213Y-42470109D01*
X166257182Y-42595050D01*
X166265946Y-42599516D01*
X166316742Y-42647491D01*
X166333536Y-42715312D01*
X166310998Y-42781447D01*
X166265946Y-42820484D01*
X166257182Y-42824949D01*
X166085213Y-42949890D01*
X165934890Y-43100213D01*
X165809951Y-43272179D01*
X165713444Y-43461585D01*
X165647753Y-43663760D01*
X165643123Y-43692993D01*
X165614500Y-43873713D01*
X165614500Y-44086287D01*
X165647754Y-44296243D01*
X165702887Y-44465925D01*
X165713444Y-44498414D01*
X165809951Y-44687820D01*
X165934890Y-44859786D01*
X166085213Y-45010109D01*
X166257182Y-45135050D01*
X166265946Y-45139516D01*
X166316742Y-45187491D01*
X166333536Y-45255312D01*
X166310998Y-45321447D01*
X166265946Y-45360484D01*
X166257182Y-45364949D01*
X166085213Y-45489890D01*
X165934890Y-45640213D01*
X165809951Y-45812179D01*
X165713444Y-46001585D01*
X165647753Y-46203760D01*
X165620435Y-46376239D01*
X165614500Y-46413713D01*
X165614500Y-46626287D01*
X165647754Y-46836243D01*
X165681399Y-46939792D01*
X165713444Y-47038414D01*
X165809951Y-47227820D01*
X165934890Y-47399786D01*
X166085213Y-47550109D01*
X166257182Y-47675050D01*
X166265946Y-47679516D01*
X166316742Y-47727491D01*
X166333536Y-47795312D01*
X166310998Y-47861447D01*
X166265946Y-47900484D01*
X166257182Y-47904949D01*
X166085213Y-48029890D01*
X165934890Y-48180213D01*
X165809951Y-48352179D01*
X165713444Y-48541585D01*
X165647753Y-48743760D01*
X165620435Y-48916239D01*
X165614500Y-48953713D01*
X165614500Y-49166287D01*
X165647754Y-49376243D01*
X165681399Y-49479792D01*
X165713444Y-49578414D01*
X165809951Y-49767820D01*
X165934890Y-49939786D01*
X166085213Y-50090109D01*
X166257182Y-50215050D01*
X166265946Y-50219516D01*
X166316742Y-50267491D01*
X166333536Y-50335312D01*
X166310998Y-50401447D01*
X166265946Y-50440484D01*
X166257182Y-50444949D01*
X166085213Y-50569890D01*
X165934890Y-50720213D01*
X165809951Y-50892179D01*
X165713444Y-51081585D01*
X165647753Y-51283760D01*
X165614500Y-51493713D01*
X165614500Y-51706286D01*
X165640712Y-51871786D01*
X165647754Y-51916243D01*
X165710803Y-52110288D01*
X165713444Y-52118414D01*
X165809951Y-52307820D01*
X165934890Y-52479786D01*
X166085213Y-52630109D01*
X166257182Y-52755050D01*
X166265946Y-52759516D01*
X166316742Y-52807491D01*
X166333536Y-52875312D01*
X166310998Y-52941447D01*
X166265946Y-52980484D01*
X166257182Y-52984949D01*
X166085213Y-53109890D01*
X165934890Y-53260213D01*
X165809951Y-53432179D01*
X165713444Y-53621585D01*
X165647753Y-53823760D01*
X165620435Y-53996239D01*
X165614500Y-54033713D01*
X165614500Y-54246287D01*
X165647754Y-54456243D01*
X165681399Y-54559792D01*
X165713444Y-54658414D01*
X165809951Y-54847820D01*
X165934890Y-55019786D01*
X166048818Y-55133714D01*
X166082303Y-55195037D01*
X166077319Y-55264729D01*
X166035447Y-55320662D01*
X166004471Y-55337577D01*
X165872912Y-55386646D01*
X165872906Y-55386649D01*
X165757812Y-55472809D01*
X165757809Y-55472812D01*
X165671649Y-55587906D01*
X165671645Y-55587913D01*
X165621403Y-55722620D01*
X165621401Y-55722627D01*
X165615000Y-55782155D01*
X165615000Y-56430000D01*
X166531988Y-56430000D01*
X166499075Y-56487007D01*
X166465000Y-56614174D01*
X166465000Y-56745826D01*
X166499075Y-56872993D01*
X166531988Y-56930000D01*
X165615000Y-56930000D01*
X165615000Y-57577844D01*
X165621401Y-57637372D01*
X165621403Y-57637379D01*
X165671645Y-57772086D01*
X165671649Y-57772093D01*
X165757809Y-57887187D01*
X165757812Y-57887190D01*
X165872906Y-57973350D01*
X165872913Y-57973354D01*
X166007620Y-58023596D01*
X166007627Y-58023598D01*
X166067155Y-58029999D01*
X166067172Y-58030000D01*
X166715000Y-58030000D01*
X166715000Y-57113012D01*
X166772007Y-57145925D01*
X166899174Y-57180000D01*
X167030826Y-57180000D01*
X167157993Y-57145925D01*
X167215000Y-57113012D01*
X167215000Y-58030000D01*
X167862828Y-58030000D01*
X167862844Y-58029999D01*
X167922372Y-58023598D01*
X167922379Y-58023596D01*
X168057086Y-57973354D01*
X168057093Y-57973350D01*
X168172187Y-57887190D01*
X168172190Y-57887187D01*
X168258350Y-57772093D01*
X168258354Y-57772086D01*
X168308596Y-57637379D01*
X168308598Y-57637372D01*
X168314999Y-57577844D01*
X168315000Y-57577827D01*
X168315000Y-56930000D01*
X167398012Y-56930000D01*
X167430925Y-56872993D01*
X167465000Y-56745826D01*
X167465000Y-56671153D01*
X170949500Y-56671153D01*
X170949500Y-56828846D01*
X170980261Y-56983489D01*
X170980264Y-56983501D01*
X171040602Y-57129172D01*
X171040609Y-57129185D01*
X171128210Y-57260288D01*
X171128213Y-57260292D01*
X171239707Y-57371786D01*
X171239711Y-57371789D01*
X171370814Y-57459390D01*
X171370827Y-57459397D01*
X171423352Y-57481153D01*
X171516503Y-57519737D01*
X171555125Y-57527419D01*
X171583578Y-57533079D01*
X171645489Y-57565463D01*
X171647068Y-57567015D01*
X176085324Y-62005271D01*
X176085331Y-62005277D01*
X176191871Y-62076464D01*
X176191870Y-62076464D01*
X176226544Y-62090826D01*
X176310256Y-62125501D01*
X176310260Y-62125501D01*
X176310261Y-62125502D01*
X176435928Y-62150500D01*
X176435931Y-62150500D01*
X179495065Y-62150500D01*
X179562104Y-62170185D01*
X179563909Y-62171366D01*
X179620821Y-62209394D01*
X179620823Y-62209395D01*
X179620827Y-62209397D01*
X179766498Y-62269735D01*
X179766503Y-62269737D01*
X179921153Y-62300499D01*
X179921156Y-62300500D01*
X179921158Y-62300500D01*
X180078844Y-62300500D01*
X180078845Y-62300499D01*
X180233497Y-62269737D01*
X180379179Y-62209394D01*
X180510289Y-62121789D01*
X180621789Y-62010289D01*
X180709394Y-61879179D01*
X180769737Y-61733497D01*
X180800500Y-61578842D01*
X180800500Y-61421158D01*
X180800500Y-61421155D01*
X180800499Y-61421153D01*
X180779182Y-61313985D01*
X180769737Y-61266503D01*
X180739587Y-61193713D01*
X180709397Y-61120827D01*
X180709390Y-61120814D01*
X180621789Y-60989711D01*
X180621786Y-60989707D01*
X180510292Y-60878213D01*
X180510288Y-60878210D01*
X180379185Y-60790609D01*
X180379172Y-60790602D01*
X180233501Y-60730264D01*
X180233489Y-60730261D01*
X180078845Y-60699500D01*
X180078842Y-60699500D01*
X179921158Y-60699500D01*
X179921155Y-60699500D01*
X179766510Y-60730261D01*
X179766498Y-60730264D01*
X179620827Y-60790602D01*
X179620820Y-60790606D01*
X179591928Y-60809911D01*
X179563955Y-60828602D01*
X179497279Y-60849480D01*
X179495065Y-60849500D01*
X176820808Y-60849500D01*
X176753769Y-60829815D01*
X176733127Y-60813181D01*
X172567015Y-56647069D01*
X172533530Y-56585746D01*
X172533093Y-56583652D01*
X172519737Y-56516503D01*
X172483907Y-56430000D01*
X172459397Y-56370827D01*
X172459390Y-56370814D01*
X172371789Y-56239711D01*
X172371786Y-56239707D01*
X172260292Y-56128213D01*
X172260288Y-56128210D01*
X172129185Y-56040609D01*
X172129172Y-56040602D01*
X171983501Y-55980264D01*
X171983489Y-55980261D01*
X171828845Y-55949500D01*
X171828842Y-55949500D01*
X171671158Y-55949500D01*
X171671155Y-55949500D01*
X171516510Y-55980261D01*
X171516498Y-55980264D01*
X171370827Y-56040602D01*
X171370814Y-56040609D01*
X171239711Y-56128210D01*
X171239707Y-56128213D01*
X171128213Y-56239707D01*
X171128210Y-56239711D01*
X171040609Y-56370814D01*
X171040602Y-56370827D01*
X170980264Y-56516498D01*
X170980261Y-56516510D01*
X170949500Y-56671153D01*
X167465000Y-56671153D01*
X167465000Y-56614174D01*
X167430925Y-56487007D01*
X167398012Y-56430000D01*
X168315000Y-56430000D01*
X168315000Y-55782172D01*
X168314999Y-55782155D01*
X168308598Y-55722627D01*
X168308596Y-55722620D01*
X168258354Y-55587913D01*
X168258350Y-55587906D01*
X168172190Y-55472812D01*
X168172187Y-55472809D01*
X168057093Y-55386649D01*
X168057088Y-55386646D01*
X167925528Y-55337577D01*
X167869595Y-55295705D01*
X167845178Y-55230241D01*
X167860030Y-55161968D01*
X167881175Y-55133720D01*
X167995104Y-55019792D01*
X168045811Y-54950000D01*
X168120048Y-54847820D01*
X168120047Y-54847820D01*
X168120051Y-54847816D01*
X168216557Y-54658412D01*
X168282246Y-54456243D01*
X168315500Y-54246287D01*
X168315500Y-54033713D01*
X168282246Y-53823757D01*
X168216557Y-53621588D01*
X168120051Y-53432184D01*
X168120049Y-53432181D01*
X168120048Y-53432179D01*
X167995109Y-53260213D01*
X167844786Y-53109890D01*
X167672820Y-52984951D01*
X167672115Y-52984591D01*
X167664054Y-52980485D01*
X167613259Y-52932512D01*
X167596463Y-52864692D01*
X167618999Y-52798556D01*
X167664054Y-52759515D01*
X167672816Y-52755051D01*
X167806354Y-52658031D01*
X167844786Y-52630109D01*
X167844788Y-52630106D01*
X167844792Y-52630104D01*
X167995104Y-52479792D01*
X167995106Y-52479788D01*
X167995109Y-52479786D01*
X168118902Y-52309397D01*
X168120051Y-52307816D01*
X168216557Y-52118412D01*
X168282246Y-51916243D01*
X168315500Y-51706287D01*
X168315500Y-51521153D01*
X170699500Y-51521153D01*
X170699500Y-51678846D01*
X170730261Y-51833489D01*
X170730264Y-51833501D01*
X170790602Y-51979172D01*
X170790609Y-51979185D01*
X170878210Y-52110288D01*
X170878213Y-52110292D01*
X170989707Y-52221786D01*
X170989711Y-52221789D01*
X171120814Y-52309390D01*
X171120827Y-52309397D01*
X171208230Y-52345599D01*
X171266503Y-52369737D01*
X171333580Y-52383079D01*
X171395490Y-52415463D01*
X171397069Y-52417015D01*
X176618018Y-57637964D01*
X176651503Y-57699287D01*
X176651954Y-57701454D01*
X176670261Y-57793489D01*
X176670264Y-57793501D01*
X176730602Y-57939172D01*
X176730609Y-57939185D01*
X176818210Y-58070288D01*
X176818213Y-58070292D01*
X176929707Y-58181786D01*
X176929711Y-58181789D01*
X177060814Y-58269390D01*
X177060827Y-58269397D01*
X177206498Y-58329735D01*
X177206503Y-58329737D01*
X177361153Y-58360499D01*
X177361156Y-58360500D01*
X177361158Y-58360500D01*
X177518844Y-58360500D01*
X177518845Y-58360499D01*
X177673497Y-58329737D01*
X177819179Y-58269394D01*
X177950289Y-58181789D01*
X178061789Y-58070289D01*
X178149394Y-57939179D01*
X178209737Y-57793497D01*
X178240500Y-57638842D01*
X178240500Y-57481158D01*
X178240500Y-57481155D01*
X178240499Y-57481153D01*
X178229825Y-57427491D01*
X178209737Y-57326503D01*
X178182312Y-57260292D01*
X178149397Y-57180827D01*
X178149390Y-57180814D01*
X178061789Y-57049711D01*
X178061786Y-57049707D01*
X177950292Y-56938213D01*
X177950288Y-56938210D01*
X177819185Y-56850609D01*
X177819172Y-56850602D01*
X177673501Y-56790264D01*
X177673489Y-56790261D01*
X177631386Y-56781886D01*
X177569475Y-56749501D01*
X177567896Y-56747950D01*
X172317015Y-51497069D01*
X172283530Y-51435746D01*
X172283093Y-51433652D01*
X172269737Y-51366503D01*
X172235463Y-51283757D01*
X172209397Y-51220827D01*
X172209390Y-51220814D01*
X172121789Y-51089711D01*
X172121786Y-51089707D01*
X172010292Y-50978213D01*
X172010288Y-50978210D01*
X171879185Y-50890609D01*
X171879172Y-50890602D01*
X171733501Y-50830264D01*
X171733489Y-50830261D01*
X171578845Y-50799500D01*
X171578842Y-50799500D01*
X171421158Y-50799500D01*
X171421155Y-50799500D01*
X171266510Y-50830261D01*
X171266498Y-50830264D01*
X171120827Y-50890602D01*
X171120814Y-50890609D01*
X170989711Y-50978210D01*
X170989707Y-50978213D01*
X170878213Y-51089707D01*
X170878210Y-51089711D01*
X170790609Y-51220814D01*
X170790602Y-51220827D01*
X170730264Y-51366498D01*
X170730261Y-51366510D01*
X170699500Y-51521153D01*
X168315500Y-51521153D01*
X168315500Y-51493713D01*
X168282246Y-51283757D01*
X168216557Y-51081588D01*
X168120051Y-50892184D01*
X168120049Y-50892181D01*
X168120048Y-50892179D01*
X167995109Y-50720213D01*
X167844786Y-50569890D01*
X167672820Y-50444951D01*
X167672115Y-50444591D01*
X167664054Y-50440485D01*
X167613259Y-50392512D01*
X167596463Y-50324692D01*
X167618999Y-50258556D01*
X167664054Y-50219515D01*
X167672816Y-50215051D01*
X167722172Y-50179192D01*
X167844786Y-50090109D01*
X167844788Y-50090106D01*
X167844792Y-50090104D01*
X167995104Y-49939792D01*
X167995106Y-49939788D01*
X167995109Y-49939786D01*
X168120048Y-49767820D01*
X168120047Y-49767820D01*
X168120051Y-49767816D01*
X168216557Y-49578412D01*
X168282246Y-49376243D01*
X168315500Y-49166287D01*
X168315500Y-48953713D01*
X168282246Y-48743757D01*
X168216557Y-48541588D01*
X168120051Y-48352184D01*
X168120049Y-48352181D01*
X168120048Y-48352179D01*
X167995109Y-48180213D01*
X167844786Y-48029890D01*
X167672820Y-47904951D01*
X167672115Y-47904591D01*
X167664054Y-47900485D01*
X167613259Y-47852512D01*
X167596463Y-47784692D01*
X167618999Y-47718556D01*
X167664054Y-47679515D01*
X167672816Y-47675051D01*
X167694789Y-47659086D01*
X167844786Y-47550109D01*
X167844788Y-47550106D01*
X167844792Y-47550104D01*
X167995104Y-47399792D01*
X167995106Y-47399788D01*
X167995109Y-47399786D01*
X168120048Y-47227820D01*
X168120047Y-47227820D01*
X168120051Y-47227816D01*
X168216557Y-47038412D01*
X168282246Y-46836243D01*
X168315500Y-46626287D01*
X168315500Y-46413713D01*
X168282246Y-46203757D01*
X168216557Y-46001588D01*
X168120051Y-45812184D01*
X168120049Y-45812181D01*
X168120048Y-45812179D01*
X167995109Y-45640213D01*
X167844786Y-45489890D01*
X167672820Y-45364951D01*
X167672115Y-45364591D01*
X167664054Y-45360485D01*
X167613259Y-45312512D01*
X167596463Y-45244692D01*
X167618999Y-45178556D01*
X167664054Y-45139515D01*
X167672816Y-45135051D01*
X167731953Y-45092086D01*
X167844786Y-45010109D01*
X167844788Y-45010106D01*
X167844792Y-45010104D01*
X167995104Y-44859792D01*
X167995106Y-44859788D01*
X167995109Y-44859786D01*
X168120048Y-44687820D01*
X168120047Y-44687820D01*
X168120051Y-44687816D01*
X168216557Y-44498412D01*
X168282246Y-44296243D01*
X168315500Y-44086287D01*
X168315500Y-43873713D01*
X168282246Y-43663757D01*
X168216557Y-43461588D01*
X168120051Y-43272184D01*
X168120049Y-43272181D01*
X168120048Y-43272179D01*
X167995109Y-43100213D01*
X167844786Y-42949890D01*
X167672820Y-42824951D01*
X167672115Y-42824591D01*
X167664054Y-42820485D01*
X167613259Y-42772512D01*
X167596463Y-42704692D01*
X167618999Y-42638556D01*
X167664054Y-42599515D01*
X167672816Y-42595051D01*
X167782947Y-42515037D01*
X167844786Y-42470109D01*
X167844788Y-42470106D01*
X167844792Y-42470104D01*
X167995104Y-42319792D01*
X167995106Y-42319788D01*
X167995109Y-42319786D01*
X168120048Y-42147820D01*
X168120047Y-42147820D01*
X168120051Y-42147816D01*
X168216557Y-41958412D01*
X168282246Y-41756243D01*
X168315500Y-41546287D01*
X168315500Y-41333713D01*
X168282246Y-41123757D01*
X168216557Y-40921588D01*
X168120051Y-40732184D01*
X168120049Y-40732181D01*
X168120048Y-40732179D01*
X167995109Y-40560213D01*
X167844786Y-40409890D01*
X167672820Y-40284951D01*
X167672115Y-40284591D01*
X167664054Y-40280485D01*
X167613259Y-40232512D01*
X167596463Y-40164692D01*
X167618999Y-40098556D01*
X167664054Y-40059515D01*
X167672816Y-40055051D01*
X167694789Y-40039086D01*
X167844786Y-39930109D01*
X167844788Y-39930106D01*
X167844792Y-39930104D01*
X167995104Y-39779792D01*
X167995106Y-39779788D01*
X167995109Y-39779786D01*
X168120048Y-39607820D01*
X168120047Y-39607820D01*
X168120051Y-39607816D01*
X168216557Y-39418412D01*
X168282246Y-39216243D01*
X168315500Y-39006287D01*
X168315500Y-38793713D01*
X168282246Y-38583757D01*
X168216557Y-38381588D01*
X168120051Y-38192184D01*
X168120049Y-38192181D01*
X168120048Y-38192179D01*
X167995109Y-38020213D01*
X167844786Y-37869890D01*
X167672820Y-37744951D01*
X167672115Y-37744591D01*
X167664054Y-37740485D01*
X167613259Y-37692512D01*
X167596463Y-37624692D01*
X167618999Y-37558556D01*
X167664054Y-37519515D01*
X167672816Y-37515051D01*
X167694789Y-37499086D01*
X167844786Y-37390109D01*
X167844788Y-37390106D01*
X167844792Y-37390104D01*
X167995104Y-37239792D01*
X167995106Y-37239788D01*
X167995109Y-37239786D01*
X168120048Y-37067820D01*
X168120047Y-37067820D01*
X168120051Y-37067816D01*
X168216557Y-36878412D01*
X168282246Y-36676243D01*
X168315500Y-36466287D01*
X168315500Y-36253713D01*
X168282246Y-36043757D01*
X168216557Y-35841588D01*
X168192164Y-35793713D01*
X182149500Y-35793713D01*
X182149500Y-36006287D01*
X182182754Y-36216243D01*
X182201427Y-36273713D01*
X182248444Y-36418414D01*
X182344951Y-36607820D01*
X182469890Y-36779786D01*
X182620213Y-36930109D01*
X182792182Y-37055050D01*
X182800946Y-37059516D01*
X182851742Y-37107491D01*
X182868536Y-37175312D01*
X182845998Y-37241447D01*
X182800946Y-37280484D01*
X182792182Y-37284949D01*
X182620213Y-37409890D01*
X182469890Y-37560213D01*
X182344951Y-37732179D01*
X182248444Y-37921585D01*
X182182753Y-38123760D01*
X182171917Y-38192179D01*
X182149500Y-38333713D01*
X182149500Y-38546287D01*
X182182754Y-38756243D01*
X182201427Y-38813713D01*
X182248444Y-38958414D01*
X182344951Y-39147820D01*
X182469890Y-39319786D01*
X182620213Y-39470109D01*
X182792182Y-39595050D01*
X182800946Y-39599516D01*
X182851742Y-39647491D01*
X182868536Y-39715312D01*
X182845998Y-39781447D01*
X182800946Y-39820484D01*
X182792182Y-39824949D01*
X182620213Y-39949890D01*
X182469890Y-40100213D01*
X182344951Y-40272179D01*
X182248444Y-40461585D01*
X182182753Y-40663760D01*
X182149500Y-40873713D01*
X182149500Y-41086286D01*
X182172816Y-41233501D01*
X182182754Y-41296243D01*
X182209699Y-41379172D01*
X182248444Y-41498414D01*
X182344951Y-41687820D01*
X182469890Y-41859786D01*
X182620213Y-42010109D01*
X182792182Y-42135050D01*
X182800946Y-42139516D01*
X182851742Y-42187491D01*
X182868536Y-42255312D01*
X182845998Y-42321447D01*
X182800946Y-42360484D01*
X182792182Y-42364949D01*
X182620213Y-42489890D01*
X182469890Y-42640213D01*
X182344951Y-42812179D01*
X182248444Y-43001585D01*
X182182753Y-43203760D01*
X182149500Y-43413713D01*
X182149500Y-43626286D01*
X182182753Y-43836239D01*
X182248444Y-44038414D01*
X182344951Y-44227820D01*
X182469890Y-44399786D01*
X182620213Y-44550109D01*
X182792182Y-44675050D01*
X182800946Y-44679516D01*
X182851742Y-44727491D01*
X182868536Y-44795312D01*
X182845998Y-44861447D01*
X182800946Y-44900484D01*
X182792182Y-44904949D01*
X182620213Y-45029890D01*
X182469890Y-45180213D01*
X182344951Y-45352179D01*
X182248444Y-45541585D01*
X182182753Y-45743760D01*
X182171917Y-45812179D01*
X182149500Y-45953713D01*
X182149500Y-46166287D01*
X182182754Y-46376243D01*
X182201427Y-46433713D01*
X182248444Y-46578414D01*
X182344951Y-46767820D01*
X182469890Y-46939786D01*
X182620213Y-47090109D01*
X182792182Y-47215050D01*
X182800946Y-47219516D01*
X182851742Y-47267491D01*
X182868536Y-47335312D01*
X182845998Y-47401447D01*
X182800946Y-47440484D01*
X182792182Y-47444949D01*
X182620213Y-47569890D01*
X182469890Y-47720213D01*
X182344951Y-47892179D01*
X182248444Y-48081585D01*
X182182753Y-48283760D01*
X182171917Y-48352179D01*
X182149500Y-48493713D01*
X182149500Y-48706287D01*
X182182754Y-48916243D01*
X182201427Y-48973713D01*
X182248444Y-49118414D01*
X182344951Y-49307820D01*
X182469890Y-49479786D01*
X182583818Y-49593714D01*
X182617303Y-49655037D01*
X182612319Y-49724729D01*
X182570447Y-49780662D01*
X182539471Y-49797577D01*
X182407912Y-49846646D01*
X182407906Y-49846649D01*
X182292812Y-49932809D01*
X182292809Y-49932812D01*
X182206649Y-50047906D01*
X182206645Y-50047913D01*
X182156403Y-50182620D01*
X182156401Y-50182627D01*
X182150000Y-50242155D01*
X182150000Y-50890000D01*
X183066988Y-50890000D01*
X183034075Y-50947007D01*
X183000000Y-51074174D01*
X183000000Y-51205826D01*
X183034075Y-51332993D01*
X183066988Y-51390000D01*
X182150000Y-51390000D01*
X182150000Y-52037844D01*
X182156401Y-52097372D01*
X182156403Y-52097379D01*
X182206645Y-52232086D01*
X182206649Y-52232093D01*
X182292809Y-52347187D01*
X182292812Y-52347190D01*
X182407906Y-52433350D01*
X182407913Y-52433354D01*
X182539470Y-52482422D01*
X182595404Y-52524293D01*
X182619821Y-52589758D01*
X182604969Y-52658031D01*
X182583819Y-52686285D01*
X182469889Y-52800215D01*
X182344951Y-52972179D01*
X182248444Y-53161585D01*
X182182753Y-53363760D01*
X182171917Y-53432179D01*
X182149500Y-53573713D01*
X182149500Y-53786287D01*
X182182754Y-53996243D01*
X182201427Y-54053713D01*
X182248444Y-54198414D01*
X182344951Y-54387820D01*
X182469890Y-54559786D01*
X182620213Y-54710109D01*
X182792182Y-54835050D01*
X182800946Y-54839516D01*
X182851742Y-54887491D01*
X182868536Y-54955312D01*
X182845998Y-55021447D01*
X182800946Y-55060484D01*
X182792182Y-55064949D01*
X182620213Y-55189890D01*
X182469890Y-55340213D01*
X182344951Y-55512179D01*
X182248444Y-55701585D01*
X182182753Y-55903760D01*
X182149500Y-56113713D01*
X182149500Y-56326287D01*
X182156898Y-56372993D01*
X182179628Y-56516510D01*
X182182754Y-56536243D01*
X182210121Y-56620471D01*
X182248444Y-56738414D01*
X182344951Y-56927820D01*
X182469890Y-57099786D01*
X182620213Y-57250109D01*
X182792182Y-57375050D01*
X182800946Y-57379516D01*
X182851742Y-57427491D01*
X182868536Y-57495312D01*
X182845998Y-57561447D01*
X182800946Y-57600484D01*
X182792182Y-57604949D01*
X182620213Y-57729890D01*
X182469890Y-57880213D01*
X182344951Y-58052179D01*
X182248444Y-58241585D01*
X182182753Y-58443760D01*
X182149500Y-58653713D01*
X182149500Y-58866286D01*
X182182753Y-59076239D01*
X182248444Y-59278414D01*
X182344951Y-59467820D01*
X182469890Y-59639786D01*
X182620213Y-59790109D01*
X182792182Y-59915050D01*
X182800946Y-59919516D01*
X182851742Y-59967491D01*
X182868536Y-60035312D01*
X182845998Y-60101447D01*
X182800946Y-60140484D01*
X182792182Y-60144949D01*
X182620213Y-60269890D01*
X182469890Y-60420213D01*
X182344951Y-60592179D01*
X182248444Y-60781585D01*
X182182753Y-60983760D01*
X182149500Y-61193713D01*
X182149500Y-61406286D01*
X182176830Y-61578844D01*
X182182754Y-61616243D01*
X182220852Y-61733497D01*
X182248444Y-61818414D01*
X182344951Y-62007820D01*
X182469890Y-62179786D01*
X182620213Y-62330109D01*
X182792182Y-62455050D01*
X182800946Y-62459516D01*
X182851742Y-62507491D01*
X182868536Y-62575312D01*
X182845998Y-62641447D01*
X182800946Y-62680484D01*
X182792182Y-62684949D01*
X182620213Y-62809890D01*
X182469890Y-62960213D01*
X182344951Y-63132179D01*
X182248444Y-63321585D01*
X182182753Y-63523760D01*
X182158135Y-63679191D01*
X182149500Y-63733713D01*
X182149500Y-63946287D01*
X182182754Y-64156243D01*
X182232107Y-64308136D01*
X182248444Y-64358414D01*
X182344951Y-64547820D01*
X182469890Y-64719786D01*
X182620213Y-64870109D01*
X182792182Y-64995050D01*
X182800946Y-64999516D01*
X182851742Y-65047491D01*
X182868536Y-65115312D01*
X182845998Y-65181447D01*
X182800946Y-65220484D01*
X182792182Y-65224949D01*
X182620213Y-65349890D01*
X182469890Y-65500213D01*
X182344951Y-65672179D01*
X182248444Y-65861585D01*
X182182753Y-66063760D01*
X182149500Y-66273713D01*
X182149500Y-66486286D01*
X182182061Y-66691873D01*
X182182754Y-66696243D01*
X182219799Y-66810256D01*
X182248444Y-66898414D01*
X182344951Y-67087820D01*
X182469890Y-67259786D01*
X182620213Y-67410109D01*
X182792182Y-67535050D01*
X182800946Y-67539516D01*
X182851742Y-67587491D01*
X182868536Y-67655312D01*
X182845998Y-67721447D01*
X182800946Y-67760484D01*
X182792182Y-67764949D01*
X182620213Y-67889890D01*
X182469890Y-68040213D01*
X182344951Y-68212179D01*
X182248444Y-68401585D01*
X182182753Y-68603760D01*
X182149500Y-68813713D01*
X182149500Y-69026286D01*
X182178501Y-69209394D01*
X182182754Y-69236243D01*
X182208494Y-69315463D01*
X182248444Y-69438414D01*
X182344951Y-69627820D01*
X182469890Y-69799786D01*
X182620213Y-69950109D01*
X182792182Y-70075050D01*
X182800946Y-70079516D01*
X182851742Y-70127491D01*
X182868536Y-70195312D01*
X182845998Y-70261447D01*
X182800946Y-70300484D01*
X182792182Y-70304949D01*
X182620213Y-70429890D01*
X182469890Y-70580213D01*
X182344951Y-70752179D01*
X182248444Y-70941585D01*
X182182753Y-71143760D01*
X182149500Y-71353713D01*
X182149500Y-71566286D01*
X182175983Y-71733497D01*
X182182754Y-71776243D01*
X182193805Y-71810255D01*
X182248444Y-71978414D01*
X182344951Y-72167820D01*
X182469890Y-72339786D01*
X182620213Y-72490109D01*
X182792182Y-72615050D01*
X182800946Y-72619516D01*
X182851742Y-72667491D01*
X182868536Y-72735312D01*
X182845998Y-72801447D01*
X182800946Y-72840484D01*
X182792182Y-72844949D01*
X182620213Y-72969890D01*
X182469890Y-73120213D01*
X182344951Y-73292179D01*
X182248444Y-73481585D01*
X182182753Y-73683760D01*
X182165830Y-73790609D01*
X182149500Y-73893713D01*
X182149500Y-74106287D01*
X182182754Y-74316243D01*
X182216841Y-74421153D01*
X182248444Y-74518414D01*
X182344951Y-74707820D01*
X182469890Y-74879786D01*
X182620213Y-75030109D01*
X182792182Y-75155050D01*
X182800946Y-75159516D01*
X182851742Y-75207491D01*
X182868536Y-75275312D01*
X182845998Y-75341447D01*
X182800946Y-75380484D01*
X182792182Y-75384949D01*
X182620213Y-75509890D01*
X182469890Y-75660213D01*
X182344951Y-75832179D01*
X182248444Y-76021585D01*
X182182753Y-76223760D01*
X182149500Y-76433713D01*
X182149500Y-76646286D01*
X182163311Y-76733489D01*
X182182754Y-76856243D01*
X182241291Y-77036401D01*
X182248444Y-77058414D01*
X182344951Y-77247820D01*
X182469890Y-77419786D01*
X182620213Y-77570109D01*
X182792182Y-77695050D01*
X182800946Y-77699516D01*
X182851742Y-77747491D01*
X182868536Y-77815312D01*
X182845998Y-77881447D01*
X182800946Y-77920484D01*
X182792182Y-77924949D01*
X182620213Y-78049890D01*
X182469890Y-78200213D01*
X182344951Y-78372179D01*
X182248444Y-78561585D01*
X182182753Y-78763760D01*
X182149500Y-78973713D01*
X182149500Y-79186286D01*
X182173429Y-79337372D01*
X182182754Y-79396243D01*
X182207399Y-79472093D01*
X182248444Y-79598414D01*
X182344951Y-79787820D01*
X182469890Y-79959786D01*
X182620213Y-80110109D01*
X182792182Y-80235050D01*
X182800946Y-80239516D01*
X182851742Y-80287491D01*
X182868536Y-80355312D01*
X182845998Y-80421447D01*
X182800946Y-80460484D01*
X182792182Y-80464949D01*
X182620213Y-80589890D01*
X182469890Y-80740213D01*
X182344951Y-80912179D01*
X182248444Y-81101585D01*
X182182753Y-81303760D01*
X182161426Y-81438414D01*
X182149500Y-81513713D01*
X182149500Y-81726287D01*
X182182754Y-81936243D01*
X182241991Y-82118556D01*
X182248444Y-82138414D01*
X182344951Y-82327820D01*
X182469890Y-82499786D01*
X182620213Y-82650109D01*
X182792182Y-82775050D01*
X182800946Y-82779516D01*
X182851742Y-82827491D01*
X182868536Y-82895312D01*
X182845998Y-82961447D01*
X182800946Y-83000484D01*
X182792182Y-83004949D01*
X182620213Y-83129890D01*
X182469890Y-83280213D01*
X182344951Y-83452179D01*
X182248444Y-83641585D01*
X182182753Y-83843760D01*
X182161426Y-83978414D01*
X182149500Y-84053713D01*
X182149500Y-84266287D01*
X182182754Y-84476243D01*
X182241991Y-84658556D01*
X182248444Y-84678414D01*
X182344951Y-84867820D01*
X182469890Y-85039786D01*
X182620213Y-85190109D01*
X182792182Y-85315050D01*
X182800946Y-85319516D01*
X182851742Y-85367491D01*
X182868536Y-85435312D01*
X182845998Y-85501447D01*
X182800946Y-85540484D01*
X182792182Y-85544949D01*
X182620213Y-85669890D01*
X182469890Y-85820213D01*
X182344951Y-85992179D01*
X182248444Y-86181585D01*
X182182753Y-86383760D01*
X182161426Y-86518414D01*
X182149500Y-86593713D01*
X182149500Y-86806287D01*
X182182754Y-87016243D01*
X182187259Y-87030109D01*
X182248444Y-87218414D01*
X182344951Y-87407820D01*
X182469890Y-87579786D01*
X182620213Y-87730109D01*
X182792182Y-87855050D01*
X182800946Y-87859516D01*
X182851742Y-87907491D01*
X182868536Y-87975312D01*
X182845998Y-88041447D01*
X182800946Y-88080484D01*
X182792182Y-88084949D01*
X182620213Y-88209890D01*
X182469890Y-88360213D01*
X182344951Y-88532179D01*
X182248444Y-88721585D01*
X182182753Y-88923760D01*
X182149500Y-89133713D01*
X182149500Y-89346286D01*
X182182753Y-89556239D01*
X182248444Y-89758414D01*
X182344951Y-89947820D01*
X182469890Y-90119786D01*
X182620213Y-90270109D01*
X182792179Y-90395048D01*
X182792181Y-90395049D01*
X182792184Y-90395051D01*
X182981588Y-90491557D01*
X183183757Y-90557246D01*
X183393713Y-90590500D01*
X183393714Y-90590500D01*
X183606286Y-90590500D01*
X183606287Y-90590500D01*
X183816243Y-90557246D01*
X184018412Y-90491557D01*
X184207816Y-90395051D01*
X184229789Y-90379086D01*
X184379786Y-90270109D01*
X184379788Y-90270106D01*
X184379792Y-90270104D01*
X184530104Y-90119792D01*
X184530106Y-90119788D01*
X184530109Y-90119786D01*
X184655048Y-89947820D01*
X184655047Y-89947820D01*
X184655051Y-89947816D01*
X184751557Y-89758412D01*
X184817246Y-89556243D01*
X184850500Y-89346287D01*
X184850500Y-89133713D01*
X184817246Y-88923757D01*
X184751557Y-88721588D01*
X184655051Y-88532184D01*
X184655049Y-88532181D01*
X184655048Y-88532179D01*
X184530109Y-88360213D01*
X184379786Y-88209890D01*
X184207820Y-88084951D01*
X184207115Y-88084591D01*
X184199054Y-88080485D01*
X184148259Y-88032512D01*
X184131463Y-87964692D01*
X184153999Y-87898556D01*
X184199054Y-87859515D01*
X184207816Y-87855051D01*
X184229789Y-87839086D01*
X184379786Y-87730109D01*
X184379788Y-87730106D01*
X184379792Y-87730104D01*
X184530104Y-87579792D01*
X184530106Y-87579788D01*
X184530109Y-87579786D01*
X184655048Y-87407820D01*
X184655047Y-87407820D01*
X184655051Y-87407816D01*
X184751557Y-87218412D01*
X184817246Y-87016243D01*
X184850500Y-86806287D01*
X184850500Y-86593713D01*
X184817246Y-86383757D01*
X184751557Y-86181588D01*
X184655051Y-85992184D01*
X184655049Y-85992181D01*
X184655048Y-85992179D01*
X184530109Y-85820213D01*
X184379786Y-85669890D01*
X184207820Y-85544951D01*
X184207115Y-85544591D01*
X184199054Y-85540485D01*
X184148259Y-85492512D01*
X184131463Y-85424692D01*
X184153999Y-85358556D01*
X184199054Y-85319515D01*
X184207816Y-85315051D01*
X184241467Y-85290602D01*
X184379786Y-85190109D01*
X184379788Y-85190106D01*
X184379792Y-85190104D01*
X184530104Y-85039792D01*
X184530106Y-85039788D01*
X184530109Y-85039786D01*
X184655048Y-84867820D01*
X184655047Y-84867820D01*
X184655051Y-84867816D01*
X184751557Y-84678412D01*
X184817246Y-84476243D01*
X184850500Y-84266287D01*
X184850500Y-84053713D01*
X184817246Y-83843757D01*
X184751557Y-83641588D01*
X184655051Y-83452184D01*
X184655049Y-83452181D01*
X184655048Y-83452179D01*
X184530109Y-83280213D01*
X184379786Y-83129890D01*
X184207820Y-83004951D01*
X184207115Y-83004591D01*
X184199054Y-83000485D01*
X184148259Y-82952512D01*
X184131463Y-82884692D01*
X184153999Y-82818556D01*
X184199054Y-82779515D01*
X184207816Y-82775051D01*
X184239297Y-82752179D01*
X184379786Y-82650109D01*
X184379788Y-82650106D01*
X184379792Y-82650104D01*
X184530104Y-82499792D01*
X184530106Y-82499788D01*
X184530109Y-82499786D01*
X184655048Y-82327820D01*
X184655047Y-82327820D01*
X184655051Y-82327816D01*
X184751557Y-82138412D01*
X184817246Y-81936243D01*
X184850500Y-81726287D01*
X184850500Y-81513713D01*
X184817246Y-81303757D01*
X184751557Y-81101588D01*
X184655051Y-80912184D01*
X184655049Y-80912181D01*
X184655048Y-80912179D01*
X184530109Y-80740213D01*
X184379786Y-80589890D01*
X184207820Y-80464951D01*
X184207115Y-80464591D01*
X184199054Y-80460485D01*
X184148259Y-80412512D01*
X184131463Y-80344692D01*
X184153999Y-80278556D01*
X184199054Y-80239515D01*
X184207816Y-80235051D01*
X184239297Y-80212179D01*
X184379786Y-80110109D01*
X184379788Y-80110106D01*
X184379792Y-80110104D01*
X184530104Y-79959792D01*
X184530106Y-79959788D01*
X184530109Y-79959786D01*
X184655048Y-79787820D01*
X184655047Y-79787820D01*
X184655051Y-79787816D01*
X184751557Y-79598412D01*
X184817246Y-79396243D01*
X184850500Y-79186287D01*
X184850500Y-78973713D01*
X184817246Y-78763757D01*
X184751557Y-78561588D01*
X184655051Y-78372184D01*
X184655049Y-78372181D01*
X184655048Y-78372179D01*
X184530109Y-78200213D01*
X184379786Y-78049890D01*
X184207820Y-77924951D01*
X184207115Y-77924591D01*
X184199054Y-77920485D01*
X184148259Y-77872512D01*
X184131463Y-77804692D01*
X184153999Y-77738556D01*
X184199054Y-77699515D01*
X184207816Y-77695051D01*
X184229789Y-77679086D01*
X184379786Y-77570109D01*
X184379788Y-77570106D01*
X184379792Y-77570104D01*
X184530104Y-77419792D01*
X184530106Y-77419788D01*
X184530109Y-77419786D01*
X184655048Y-77247820D01*
X184655047Y-77247820D01*
X184655051Y-77247816D01*
X184751557Y-77058412D01*
X184817246Y-76856243D01*
X184850500Y-76646287D01*
X184850500Y-76433713D01*
X184817246Y-76223757D01*
X184751557Y-76021588D01*
X184655051Y-75832184D01*
X184655049Y-75832181D01*
X184655048Y-75832179D01*
X184530109Y-75660213D01*
X184379786Y-75509890D01*
X184207820Y-75384951D01*
X184207115Y-75384591D01*
X184199054Y-75380485D01*
X184148259Y-75332512D01*
X184131463Y-75264692D01*
X184153999Y-75198556D01*
X184199054Y-75159515D01*
X184207816Y-75155051D01*
X184229789Y-75139086D01*
X184379786Y-75030109D01*
X184379788Y-75030106D01*
X184379792Y-75030104D01*
X184530104Y-74879792D01*
X184530106Y-74879788D01*
X184530109Y-74879786D01*
X184655048Y-74707820D01*
X184655047Y-74707820D01*
X184655051Y-74707816D01*
X184751557Y-74518412D01*
X184817246Y-74316243D01*
X184850500Y-74106287D01*
X184850500Y-73893713D01*
X184817246Y-73683757D01*
X184751557Y-73481588D01*
X184655051Y-73292184D01*
X184655049Y-73292181D01*
X184655048Y-73292179D01*
X184530109Y-73120213D01*
X184379786Y-72969890D01*
X184207820Y-72844951D01*
X184207115Y-72844591D01*
X184199054Y-72840485D01*
X184148259Y-72792512D01*
X184131463Y-72724692D01*
X184153999Y-72658556D01*
X184199054Y-72619515D01*
X184207816Y-72615051D01*
X184229789Y-72599086D01*
X184379786Y-72490109D01*
X184379788Y-72490106D01*
X184379792Y-72490104D01*
X184530104Y-72339792D01*
X184530106Y-72339788D01*
X184530109Y-72339786D01*
X184655048Y-72167820D01*
X184655047Y-72167820D01*
X184655051Y-72167816D01*
X184751557Y-71978412D01*
X184817246Y-71776243D01*
X184850500Y-71566287D01*
X184850500Y-71353713D01*
X184817246Y-71143757D01*
X184751557Y-70941588D01*
X184655051Y-70752184D01*
X184655049Y-70752181D01*
X184655048Y-70752179D01*
X184530109Y-70580213D01*
X184379786Y-70429890D01*
X184207820Y-70304951D01*
X184207115Y-70304591D01*
X184199054Y-70300485D01*
X184148259Y-70252512D01*
X184131463Y-70184692D01*
X184153999Y-70118556D01*
X184199054Y-70079515D01*
X184207816Y-70075051D01*
X184229789Y-70059086D01*
X184379786Y-69950109D01*
X184379788Y-69950106D01*
X184379792Y-69950104D01*
X184530104Y-69799792D01*
X184530106Y-69799788D01*
X184530109Y-69799786D01*
X184655048Y-69627820D01*
X184655047Y-69627820D01*
X184655051Y-69627816D01*
X184751557Y-69438412D01*
X184817246Y-69236243D01*
X184850500Y-69026287D01*
X184850500Y-68813713D01*
X184817246Y-68603757D01*
X184751557Y-68401588D01*
X184655051Y-68212184D01*
X184655049Y-68212181D01*
X184655048Y-68212179D01*
X184530109Y-68040213D01*
X184379786Y-67889890D01*
X184207820Y-67764951D01*
X184207115Y-67764591D01*
X184199054Y-67760485D01*
X184148259Y-67712512D01*
X184131463Y-67644692D01*
X184153999Y-67578556D01*
X184199054Y-67539515D01*
X184207816Y-67535051D01*
X184229789Y-67519086D01*
X184379786Y-67410109D01*
X184379788Y-67410106D01*
X184379792Y-67410104D01*
X184530104Y-67259792D01*
X184530106Y-67259788D01*
X184530109Y-67259786D01*
X184655048Y-67087820D01*
X184655047Y-67087820D01*
X184655051Y-67087816D01*
X184751557Y-66898412D01*
X184817246Y-66696243D01*
X184850500Y-66486287D01*
X184850500Y-66273713D01*
X184817246Y-66063757D01*
X184751557Y-65861588D01*
X184655051Y-65672184D01*
X184655049Y-65672181D01*
X184655048Y-65672179D01*
X184530109Y-65500213D01*
X184379786Y-65349890D01*
X184207820Y-65224951D01*
X184207115Y-65224591D01*
X184199054Y-65220485D01*
X184148259Y-65172512D01*
X184131463Y-65104692D01*
X184153999Y-65038556D01*
X184199054Y-64999515D01*
X184207816Y-64995051D01*
X184309529Y-64921153D01*
X184379786Y-64870109D01*
X184379788Y-64870106D01*
X184379792Y-64870104D01*
X184530104Y-64719792D01*
X184530106Y-64719788D01*
X184530109Y-64719786D01*
X184655048Y-64547820D01*
X184655047Y-64547820D01*
X184655051Y-64547816D01*
X184751557Y-64358412D01*
X184817246Y-64156243D01*
X184850500Y-63946287D01*
X184850500Y-63733713D01*
X184817246Y-63523757D01*
X184751557Y-63321588D01*
X184655051Y-63132184D01*
X184655049Y-63132181D01*
X184655048Y-63132179D01*
X184530109Y-62960213D01*
X184379786Y-62809890D01*
X184207820Y-62684951D01*
X184207115Y-62684591D01*
X184199054Y-62680485D01*
X184148259Y-62632512D01*
X184131463Y-62564692D01*
X184153999Y-62498556D01*
X184199054Y-62459515D01*
X184207816Y-62455051D01*
X184229789Y-62439086D01*
X184379786Y-62330109D01*
X184379788Y-62330106D01*
X184379792Y-62330104D01*
X184530104Y-62179792D01*
X184530106Y-62179788D01*
X184530109Y-62179786D01*
X184655048Y-62007820D01*
X184655047Y-62007820D01*
X184655051Y-62007816D01*
X184751557Y-61818412D01*
X184817246Y-61616243D01*
X184850500Y-61406287D01*
X184850500Y-61193713D01*
X184817246Y-60983757D01*
X184751557Y-60781588D01*
X184655051Y-60592184D01*
X184655049Y-60592181D01*
X184655048Y-60592179D01*
X184530109Y-60420213D01*
X184379786Y-60269890D01*
X184207820Y-60144951D01*
X184207115Y-60144591D01*
X184199054Y-60140485D01*
X184148259Y-60092512D01*
X184131463Y-60024692D01*
X184153999Y-59958556D01*
X184199054Y-59919515D01*
X184207816Y-59915051D01*
X184229789Y-59899086D01*
X184379786Y-59790109D01*
X184379788Y-59790106D01*
X184379792Y-59790104D01*
X184530104Y-59639792D01*
X184530106Y-59639788D01*
X184530109Y-59639786D01*
X184655048Y-59467820D01*
X184655047Y-59467820D01*
X184655051Y-59467816D01*
X184751557Y-59278412D01*
X184817246Y-59076243D01*
X184850500Y-58866287D01*
X184850500Y-58653713D01*
X184817246Y-58443757D01*
X184751557Y-58241588D01*
X184655051Y-58052184D01*
X184655049Y-58052181D01*
X184655048Y-58052179D01*
X184530109Y-57880213D01*
X184379786Y-57729890D01*
X184207820Y-57604951D01*
X184207115Y-57604591D01*
X184199054Y-57600485D01*
X184148259Y-57552512D01*
X184131463Y-57484692D01*
X184153999Y-57418556D01*
X184199054Y-57379515D01*
X184207816Y-57375051D01*
X184229789Y-57359086D01*
X184379786Y-57250109D01*
X184379788Y-57250106D01*
X184379792Y-57250104D01*
X184530104Y-57099792D01*
X184530106Y-57099788D01*
X184530109Y-57099786D01*
X184655048Y-56927820D01*
X184655047Y-56927820D01*
X184655051Y-56927816D01*
X184751557Y-56738412D01*
X184817246Y-56536243D01*
X184850500Y-56326287D01*
X184850500Y-56113713D01*
X184817246Y-55903757D01*
X184751557Y-55701588D01*
X184655051Y-55512184D01*
X184655049Y-55512181D01*
X184655048Y-55512179D01*
X184530109Y-55340213D01*
X184379786Y-55189890D01*
X184207820Y-55064951D01*
X184207115Y-55064591D01*
X184199054Y-55060485D01*
X184148259Y-55012512D01*
X184131463Y-54944692D01*
X184153999Y-54878556D01*
X184199054Y-54839515D01*
X184207816Y-54835051D01*
X184268995Y-54790602D01*
X184379786Y-54710109D01*
X184379788Y-54710106D01*
X184379792Y-54710104D01*
X184530104Y-54559792D01*
X184530106Y-54559788D01*
X184530109Y-54559786D01*
X184655048Y-54387820D01*
X184655047Y-54387820D01*
X184655051Y-54387816D01*
X184751557Y-54198412D01*
X184817246Y-53996243D01*
X184850500Y-53786287D01*
X184850500Y-53573713D01*
X184817246Y-53363757D01*
X184751557Y-53161588D01*
X184655051Y-52972184D01*
X184655049Y-52972181D01*
X184655048Y-52972179D01*
X184530109Y-52800213D01*
X184416181Y-52686285D01*
X184382696Y-52624962D01*
X184387680Y-52555270D01*
X184429552Y-52499337D01*
X184460529Y-52482422D01*
X184592086Y-52433354D01*
X184592093Y-52433350D01*
X184707187Y-52347190D01*
X184707190Y-52347187D01*
X184793350Y-52232093D01*
X184793354Y-52232086D01*
X184843596Y-52097379D01*
X184843598Y-52097372D01*
X184849999Y-52037844D01*
X184850000Y-52037827D01*
X184850000Y-51390000D01*
X183933012Y-51390000D01*
X183965925Y-51332993D01*
X184000000Y-51205826D01*
X184000000Y-51074174D01*
X183965925Y-50947007D01*
X183933012Y-50890000D01*
X184850000Y-50890000D01*
X184850000Y-50242172D01*
X184849999Y-50242155D01*
X184843598Y-50182627D01*
X184843596Y-50182620D01*
X184793354Y-50047913D01*
X184793350Y-50047906D01*
X184707190Y-49932812D01*
X184707187Y-49932809D01*
X184592093Y-49846649D01*
X184592088Y-49846646D01*
X184460528Y-49797577D01*
X184404595Y-49755705D01*
X184380178Y-49690241D01*
X184395030Y-49621968D01*
X184416175Y-49593720D01*
X184530104Y-49479792D01*
X184590806Y-49396243D01*
X184655048Y-49307820D01*
X184655047Y-49307820D01*
X184655051Y-49307816D01*
X184751557Y-49118412D01*
X184817246Y-48916243D01*
X184850500Y-48706287D01*
X184850500Y-48493713D01*
X184817246Y-48283757D01*
X184751557Y-48081588D01*
X184655051Y-47892184D01*
X184655049Y-47892181D01*
X184655048Y-47892179D01*
X184530109Y-47720213D01*
X184379786Y-47569890D01*
X184207820Y-47444951D01*
X184207115Y-47444591D01*
X184199054Y-47440485D01*
X184148259Y-47392512D01*
X184131463Y-47324692D01*
X184153999Y-47258556D01*
X184199054Y-47219515D01*
X184207816Y-47215051D01*
X184229789Y-47199086D01*
X184379786Y-47090109D01*
X184379788Y-47090106D01*
X184379792Y-47090104D01*
X184530104Y-46939792D01*
X184530106Y-46939788D01*
X184530109Y-46939786D01*
X184655048Y-46767820D01*
X184655047Y-46767820D01*
X184655051Y-46767816D01*
X184751557Y-46578412D01*
X184817246Y-46376243D01*
X184850500Y-46166287D01*
X184850500Y-45953713D01*
X184817246Y-45743757D01*
X184751557Y-45541588D01*
X184655051Y-45352184D01*
X184655049Y-45352181D01*
X184655048Y-45352179D01*
X184530109Y-45180213D01*
X184379786Y-45029890D01*
X184207820Y-44904951D01*
X184207115Y-44904591D01*
X184199054Y-44900485D01*
X184148259Y-44852512D01*
X184131463Y-44784692D01*
X184153999Y-44718556D01*
X184199054Y-44679515D01*
X184207816Y-44675051D01*
X184229789Y-44659086D01*
X184379786Y-44550109D01*
X184379788Y-44550106D01*
X184379792Y-44550104D01*
X184530104Y-44399792D01*
X184530106Y-44399788D01*
X184530109Y-44399786D01*
X184655048Y-44227820D01*
X184655047Y-44227820D01*
X184655051Y-44227816D01*
X184751557Y-44038412D01*
X184817246Y-43836243D01*
X184850500Y-43626287D01*
X184850500Y-43413713D01*
X184817246Y-43203757D01*
X184751557Y-43001588D01*
X184655051Y-42812184D01*
X184655049Y-42812181D01*
X184655048Y-42812179D01*
X184530109Y-42640213D01*
X184379786Y-42489890D01*
X184207820Y-42364951D01*
X184207115Y-42364591D01*
X184199054Y-42360485D01*
X184148259Y-42312512D01*
X184131463Y-42244692D01*
X184153999Y-42178556D01*
X184199054Y-42139515D01*
X184207816Y-42135051D01*
X184276260Y-42085324D01*
X184379786Y-42010109D01*
X184379788Y-42010106D01*
X184379792Y-42010104D01*
X184530104Y-41859792D01*
X184530106Y-41859788D01*
X184530109Y-41859786D01*
X184655048Y-41687820D01*
X184655047Y-41687820D01*
X184655051Y-41687816D01*
X184751557Y-41498412D01*
X184817246Y-41296243D01*
X184850500Y-41086287D01*
X184850500Y-40873713D01*
X184817246Y-40663757D01*
X184751557Y-40461588D01*
X184655051Y-40272184D01*
X184655049Y-40272181D01*
X184655048Y-40272179D01*
X184530109Y-40100213D01*
X184379786Y-39949890D01*
X184207820Y-39824951D01*
X184207115Y-39824591D01*
X184199054Y-39820485D01*
X184148259Y-39772512D01*
X184131463Y-39704692D01*
X184153999Y-39638556D01*
X184199054Y-39599515D01*
X184207816Y-39595051D01*
X184229789Y-39579086D01*
X184379786Y-39470109D01*
X184379788Y-39470106D01*
X184379792Y-39470104D01*
X184530104Y-39319792D01*
X184530106Y-39319788D01*
X184530109Y-39319786D01*
X184655048Y-39147820D01*
X184655047Y-39147820D01*
X184655051Y-39147816D01*
X184751557Y-38958412D01*
X184817246Y-38756243D01*
X184850500Y-38546287D01*
X184850500Y-38333713D01*
X184817246Y-38123757D01*
X184751557Y-37921588D01*
X184655051Y-37732184D01*
X184655049Y-37732181D01*
X184655048Y-37732179D01*
X184530109Y-37560213D01*
X184379786Y-37409890D01*
X184207820Y-37284951D01*
X184207115Y-37284591D01*
X184199054Y-37280485D01*
X184148259Y-37232512D01*
X184131463Y-37164692D01*
X184153999Y-37098556D01*
X184199054Y-37059515D01*
X184207816Y-37055051D01*
X184229789Y-37039086D01*
X184379786Y-36930109D01*
X184379788Y-36930106D01*
X184379792Y-36930104D01*
X184530104Y-36779792D01*
X184530106Y-36779788D01*
X184530109Y-36779786D01*
X184655048Y-36607820D01*
X184655047Y-36607820D01*
X184655051Y-36607816D01*
X184751557Y-36418412D01*
X184817246Y-36216243D01*
X184850500Y-36006287D01*
X184850500Y-35793713D01*
X184817246Y-35583757D01*
X184751557Y-35381588D01*
X184655051Y-35192184D01*
X184655049Y-35192181D01*
X184655048Y-35192179D01*
X184530109Y-35020213D01*
X184379786Y-34869890D01*
X184207820Y-34744951D01*
X184018414Y-34648444D01*
X184018413Y-34648443D01*
X184018412Y-34648443D01*
X183816243Y-34582754D01*
X183816241Y-34582753D01*
X183816240Y-34582753D01*
X183654957Y-34557208D01*
X183606287Y-34549500D01*
X183393713Y-34549500D01*
X183345042Y-34557208D01*
X183183760Y-34582753D01*
X182981585Y-34648444D01*
X182792179Y-34744951D01*
X182620213Y-34869890D01*
X182469890Y-35020213D01*
X182344951Y-35192179D01*
X182248444Y-35381585D01*
X182182753Y-35583760D01*
X182171917Y-35652179D01*
X182149500Y-35793713D01*
X168192164Y-35793713D01*
X168120051Y-35652184D01*
X168120049Y-35652181D01*
X168120048Y-35652179D01*
X167995109Y-35480213D01*
X167844786Y-35329890D01*
X167672820Y-35204951D01*
X167672115Y-35204591D01*
X167664054Y-35200485D01*
X167613259Y-35152512D01*
X167596463Y-35084692D01*
X167618999Y-35018556D01*
X167664054Y-34979515D01*
X167672816Y-34975051D01*
X167694789Y-34959086D01*
X167844786Y-34850109D01*
X167844788Y-34850106D01*
X167844792Y-34850104D01*
X167995104Y-34699792D01*
X167995106Y-34699788D01*
X167995109Y-34699786D01*
X168120048Y-34527820D01*
X168120047Y-34527820D01*
X168120051Y-34527816D01*
X168216557Y-34338412D01*
X168282246Y-34136243D01*
X168315500Y-33926287D01*
X168315500Y-33713713D01*
X168282246Y-33503757D01*
X168216557Y-33301588D01*
X168120051Y-33112184D01*
X168120049Y-33112181D01*
X168120048Y-33112179D01*
X167995109Y-32940213D01*
X167844786Y-32789890D01*
X167672820Y-32664951D01*
X167672115Y-32664591D01*
X167664054Y-32660485D01*
X167613259Y-32612512D01*
X167596463Y-32544692D01*
X167618999Y-32478556D01*
X167664054Y-32439515D01*
X167672816Y-32435051D01*
X167737885Y-32387776D01*
X167844786Y-32310109D01*
X167844788Y-32310106D01*
X167844792Y-32310104D01*
X167995104Y-32159792D01*
X167995106Y-32159788D01*
X167995109Y-32159786D01*
X168120048Y-31987820D01*
X168120047Y-31987820D01*
X168120051Y-31987816D01*
X168216557Y-31798412D01*
X168282246Y-31596243D01*
X168315500Y-31386287D01*
X168315500Y-31173713D01*
X168282246Y-30963757D01*
X168216557Y-30761588D01*
X168120051Y-30572184D01*
X168120049Y-30572181D01*
X168120048Y-30572179D01*
X167995109Y-30400213D01*
X167844786Y-30249890D01*
X167672820Y-30124951D01*
X167672115Y-30124591D01*
X167664054Y-30120485D01*
X167613259Y-30072512D01*
X167596463Y-30004692D01*
X167618999Y-29938556D01*
X167664054Y-29899515D01*
X167672816Y-29895051D01*
X167694789Y-29879086D01*
X167844786Y-29770109D01*
X167844788Y-29770106D01*
X167844792Y-29770104D01*
X167995104Y-29619792D01*
X167995106Y-29619788D01*
X167995109Y-29619786D01*
X168120048Y-29447820D01*
X168120047Y-29447820D01*
X168120051Y-29447816D01*
X168179321Y-29331491D01*
X183499500Y-29331491D01*
X183499500Y-29668508D01*
X183537231Y-30003381D01*
X183537233Y-30003397D01*
X183612223Y-30331953D01*
X183612227Y-30331965D01*
X183723532Y-30650054D01*
X183869752Y-30953683D01*
X183869754Y-30953686D01*
X184049054Y-31239039D01*
X184259175Y-31502523D01*
X184497477Y-31740825D01*
X184760961Y-31950946D01*
X185046314Y-32130246D01*
X185349949Y-32276469D01*
X185588848Y-32360063D01*
X185668034Y-32387772D01*
X185668046Y-32387776D01*
X185996606Y-32462767D01*
X186331492Y-32500499D01*
X186331493Y-32500500D01*
X186331496Y-32500500D01*
X186668507Y-32500500D01*
X186668507Y-32500499D01*
X187003394Y-32462767D01*
X187331954Y-32387776D01*
X187650051Y-32276469D01*
X187953686Y-32130246D01*
X188239039Y-31950946D01*
X188502523Y-31740825D01*
X188740825Y-31502523D01*
X188950946Y-31239039D01*
X189130246Y-30953686D01*
X189276469Y-30650051D01*
X189387776Y-30331954D01*
X189462767Y-30003394D01*
X189500500Y-29668504D01*
X189500500Y-29331496D01*
X189500499Y-29331491D01*
X242499500Y-29331491D01*
X242499500Y-29668508D01*
X242537231Y-30003381D01*
X242537233Y-30003397D01*
X242612223Y-30331953D01*
X242612227Y-30331965D01*
X242723532Y-30650054D01*
X242869752Y-30953683D01*
X242869754Y-30953686D01*
X243049054Y-31239039D01*
X243259175Y-31502523D01*
X243497477Y-31740825D01*
X243760961Y-31950946D01*
X244046314Y-32130246D01*
X244349949Y-32276469D01*
X244588848Y-32360063D01*
X244668034Y-32387772D01*
X244668046Y-32387776D01*
X244996606Y-32462767D01*
X245331492Y-32500499D01*
X245331493Y-32500500D01*
X245331496Y-32500500D01*
X245668507Y-32500500D01*
X245668507Y-32500499D01*
X246003394Y-32462767D01*
X246331954Y-32387776D01*
X246650051Y-32276469D01*
X246953686Y-32130246D01*
X247239039Y-31950946D01*
X247502523Y-31740825D01*
X247740825Y-31502523D01*
X247950946Y-31239039D01*
X248130246Y-30953686D01*
X248276469Y-30650051D01*
X248387776Y-30331954D01*
X248462767Y-30003394D01*
X248500500Y-29668504D01*
X248500500Y-29331496D01*
X248462767Y-28996606D01*
X248387776Y-28668046D01*
X248380843Y-28648234D01*
X248309295Y-28443760D01*
X248276469Y-28349949D01*
X248130246Y-28046314D01*
X247950946Y-27760961D01*
X247740825Y-27497477D01*
X247502523Y-27259175D01*
X247239039Y-27049054D01*
X246953686Y-26869754D01*
X246953683Y-26869752D01*
X246650054Y-26723532D01*
X246331965Y-26612227D01*
X246331953Y-26612223D01*
X246003397Y-26537233D01*
X246003381Y-26537231D01*
X245668508Y-26499500D01*
X245668504Y-26499500D01*
X245331496Y-26499500D01*
X245331491Y-26499500D01*
X244996618Y-26537231D01*
X244996602Y-26537233D01*
X244668046Y-26612223D01*
X244668034Y-26612227D01*
X244349945Y-26723532D01*
X244046316Y-26869752D01*
X243760962Y-27049053D01*
X243497477Y-27259174D01*
X243259174Y-27497477D01*
X243049053Y-27760962D01*
X242869752Y-28046316D01*
X242723532Y-28349945D01*
X242612227Y-28668034D01*
X242612223Y-28668046D01*
X242537233Y-28996602D01*
X242537231Y-28996618D01*
X242499500Y-29331491D01*
X189500499Y-29331491D01*
X189462767Y-28996606D01*
X189387776Y-28668046D01*
X189380843Y-28648234D01*
X189309295Y-28443760D01*
X189276469Y-28349949D01*
X189130246Y-28046314D01*
X188950946Y-27760961D01*
X188740825Y-27497477D01*
X188502523Y-27259175D01*
X188239039Y-27049054D01*
X187953686Y-26869754D01*
X187953683Y-26869752D01*
X187650054Y-26723532D01*
X187331965Y-26612227D01*
X187331953Y-26612223D01*
X187003397Y-26537233D01*
X187003381Y-26537231D01*
X186668508Y-26499500D01*
X186668504Y-26499500D01*
X186331496Y-26499500D01*
X186331491Y-26499500D01*
X185996618Y-26537231D01*
X185996602Y-26537233D01*
X185668046Y-26612223D01*
X185668034Y-26612227D01*
X185349945Y-26723532D01*
X185046316Y-26869752D01*
X184760962Y-27049053D01*
X184497477Y-27259174D01*
X184259174Y-27497477D01*
X184049053Y-27760962D01*
X183869752Y-28046316D01*
X183723532Y-28349945D01*
X183612227Y-28668034D01*
X183612223Y-28668046D01*
X183537233Y-28996602D01*
X183537231Y-28996618D01*
X183499500Y-29331491D01*
X168179321Y-29331491D01*
X168216557Y-29258412D01*
X168282246Y-29056243D01*
X168315500Y-28846287D01*
X168315500Y-28633713D01*
X168282246Y-28423757D01*
X168216557Y-28221588D01*
X168120051Y-28032184D01*
X168120049Y-28032181D01*
X168120048Y-28032179D01*
X167995109Y-27860213D01*
X167844786Y-27709890D01*
X167672820Y-27584951D01*
X167483414Y-27488444D01*
X167483413Y-27488443D01*
X167483412Y-27488443D01*
X167281243Y-27422754D01*
X167281241Y-27422753D01*
X167281240Y-27422753D01*
X167119957Y-27397208D01*
X167071287Y-27389500D01*
X166858713Y-27389500D01*
X166810042Y-27397208D01*
X166648760Y-27422753D01*
X166446585Y-27488444D01*
X166257179Y-27584951D01*
X166085213Y-27709890D01*
X165934890Y-27860213D01*
X165809951Y-28032179D01*
X165713444Y-28221585D01*
X165647753Y-28423760D01*
X165614500Y-28633713D01*
X150547332Y-28633713D01*
X150517246Y-28443757D01*
X150451557Y-28241588D01*
X150355051Y-28052184D01*
X150355049Y-28052181D01*
X150355048Y-28052179D01*
X150230109Y-27880213D01*
X150079786Y-27729890D01*
X149907820Y-27604951D01*
X149718414Y-27508444D01*
X149718413Y-27508443D01*
X149718412Y-27508443D01*
X149516243Y-27442754D01*
X149516241Y-27442753D01*
X149516240Y-27442753D01*
X149354957Y-27417208D01*
X149306287Y-27409500D01*
X149093713Y-27409500D01*
X149045042Y-27417208D01*
X148883760Y-27442753D01*
X148681585Y-27508444D01*
X148492179Y-27604951D01*
X148320213Y-27729890D01*
X148169890Y-27880213D01*
X148044951Y-28052179D01*
X147948444Y-28241585D01*
X147882753Y-28443760D01*
X147849500Y-28653713D01*
X144500500Y-28653713D01*
X144500500Y-25624500D01*
X144520185Y-25557461D01*
X144572989Y-25511706D01*
X144624500Y-25500500D01*
X249875500Y-25500500D01*
X249942539Y-25520185D01*
G37*
%TD.AperFunction*%
%TD*%
M02*
