%TF.GenerationSoftware,KiCad,Pcbnew,9.0.8*%
%TF.CreationDate,2026-05-11T11:07:20+02:00*%
%TF.ProjectId,BST_PCB,4253545f-5043-4422-9e6b-696361645f70,rev?*%
%TF.SameCoordinates,Original*%
%TF.FileFunction,Copper,L1,Top*%
%TF.FilePolarity,Positive*%
%FSLAX46Y46*%
G04 Gerber Fmt 4.6, Leading zero omitted, Abs format (unit mm)*
G04 Created by KiCad (PCBNEW 9.0.8) date 2026-05-11 11:07:20*
%MOMM*%
%LPD*%
G01*
G04 APERTURE LIST*
%TA.AperFunction,ComponentPad*%
%ADD10C,1.700000*%
%TD*%
%TA.AperFunction,ComponentPad*%
%ADD11R,1.700000X1.700000*%
%TD*%
%TA.AperFunction,ComponentPad*%
%ADD12C,5.000000*%
%TD*%
%TA.AperFunction,ComponentPad*%
%ADD13O,1.700000X1.700000*%
%TD*%
%TA.AperFunction,ViaPad*%
%ADD14C,0.600000*%
%TD*%
%TA.AperFunction,Conductor*%
%ADD15C,0.700000*%
%TD*%
%TA.AperFunction,Conductor*%
%ADD16C,0.900000*%
%TD*%
%TA.AperFunction,Conductor*%
%ADD17C,0.300000*%
%TD*%
%TA.AperFunction,Conductor*%
%ADD18C,0.200000*%
%TD*%
%TA.AperFunction,Conductor*%
%ADD19C,0.600000*%
%TD*%
%TA.AperFunction,Conductor*%
%ADD20C,0.800000*%
%TD*%
G04 APERTURE END LIST*
D10*
%TO.P,Supercap1,5V,5v*%
%TO.N,N/C*%
X151260000Y-92550000D03*
D11*
%TO.P,Supercap1,vout,GND*%
%TO.N,GND*%
X147850000Y-92550000D03*
%TD*%
D10*
%TO.P,Supercap2,5V,5v*%
%TO.N,N/C*%
X151260000Y-100550000D03*
D11*
%TO.P,Supercap2,vout,GND*%
%TO.N,GND*%
X147850000Y-100550000D03*
%TD*%
%TO.P,Supercap reserve,vout,GND*%
%TO.N,GND*%
X186050000Y-110650000D03*
D10*
%TO.P,Supercap reserve,5V,5v*%
%TO.N,5v*%
X186050000Y-107240000D03*
%TD*%
D12*
%TO.P,,Vin,Vin*%
%TO.N,N/C*%
X186500000Y-95500000D03*
%TD*%
D10*
%TO.P,Pololu,En*%
%TO.N,N/C*%
X151000000Y-109380000D03*
D11*
%TO.P,Pololu,GND*%
%TO.N,GND*%
X151000000Y-117000000D03*
%TO.P,Pololu,Gn,GND*%
X151000000Y-114460000D03*
D10*
%TO.P,Pololu,Vin*%
%TO.N,VBAT*%
X151000000Y-111920000D03*
%TO.P,Pololu,Vout,Vin*%
%TO.N,5v*%
X151000000Y-119540000D03*
%TD*%
%TO.P,,Vin,Vin*%
%TO.N,VBAT*%
X148500000Y-126500000D03*
%TD*%
D11*
%TO.P,,Gn,GND*%
%TO.N,GND*%
X165000000Y-127500000D03*
%TD*%
%TO.P,,Gn,GND*%
%TO.N,GND*%
X167500000Y-127500000D03*
%TD*%
D12*
%TO.P,,Vin,Vin*%
%TO.N,N/C*%
X186500000Y-29500000D03*
%TD*%
%TO.P,,Vin,Vin*%
%TO.N,N/C*%
X245500000Y-95500000D03*
%TD*%
D10*
%TO.P,SD card reader,3v*%
%TO.N,N/C*%
X205000000Y-109012500D03*
%TO.P,SD card reader,5v*%
%TO.N,5v*%
X205000000Y-106472500D03*
%TO.P,SD card reader,CD,CD*%
%TO.N,unconnected-(U2-PadCD)*%
X205000000Y-124252500D03*
%TO.P,SD card reader,CLK,CLK*%
%TO.N,Net-(U1-SCK)*%
X205000000Y-114092500D03*
%TO.P,SD card reader,CS,CS*%
%TO.N,Net-(U1-NSS)*%
X205000000Y-121712500D03*
%TO.P,SD card reader,DI,DI*%
%TO.N,Net-(U1-MOSI)*%
X205000000Y-119172500D03*
%TO.P,SD card reader,DO,DO*%
%TO.N,Net-(U1-MISO)*%
X205000000Y-116632500D03*
D11*
%TO.P,SD card reader,Gn,GND*%
%TO.N,GND*%
X205000000Y-111552500D03*
%TD*%
D10*
%TO.P,U3,CLK*%
%TO.N,Net-(U1-CLK)*%
X149000000Y-83460000D03*
%TO.P,U3,DIO*%
%TO.N,Net-(U1-DIO)*%
X149000000Y-86000000D03*
D11*
%TO.P,U3,Gn,GND*%
%TO.N,GND*%
X149000000Y-78380000D03*
D10*
%TO.P,U3,RST*%
%TO.N,Net-(NC2-AUX1)*%
X149000000Y-80920000D03*
%TD*%
%TO.P,,Vin,Vin*%
%TO.N,VBAT*%
X152000000Y-127000000D03*
%TD*%
D13*
%TO.P,Wio,3V,3\u002C3V*%
%TO.N,unconnected-(U1-3\u002C3V-Pad3V)*%
X149200000Y-54160000D03*
%TO.P,Wio,5V,5V*%
%TO.N,5v*%
X149200000Y-56700000D03*
%TO.P,Wio,A0,SDA*%
%TO.N,Net-(NC2-SDA)*%
X166965000Y-51600000D03*
%TO.P,Wio,A1,SCK*%
%TO.N,Net-(U1-SCK)*%
X149200000Y-33840000D03*
%TO.P,Wio,A3,A3*%
%TO.N,unconnected-(U1-PadA3)*%
X166965000Y-46520000D03*
%TO.P,Wio,A4,A4*%
%TO.N,unconnected-(U1-PadA4)*%
X166965000Y-49060000D03*
%TO.P,Wio,A5,MOSI*%
%TO.N,Net-(U1-MOSI)*%
X149200000Y-41460000D03*
%TO.P,Wio,A6,CLK*%
%TO.N,Net-(U1-MISO)*%
X149200000Y-38920000D03*
%TO.P,Wio,A7,DIO*%
%TO.N,Net-(U1-DIO)*%
X149200000Y-51620000D03*
%TO.P,Wio,CLK*%
%TO.N,Net-(U1-CLK)*%
X149200000Y-49080000D03*
%TO.P,Wio,D0,D0*%
%TO.N,unconnected-(U1-PadD0)*%
X166965000Y-38900000D03*
%TO.P,Wio,D8,SCL*%
%TO.N,Net-(NC2-SCL)*%
X166965000Y-54140000D03*
%TO.P,Wio,D9,D9*%
%TO.N,unconnected-(U1-PadD9)*%
X149200000Y-28760000D03*
%TO.P,Wio,D10,D10*%
%TO.N,unconnected-(U1-PadD10)*%
X149200000Y-31300000D03*
D11*
%TO.P,Wio,Gn,GND*%
%TO.N,GND*%
X149200000Y-44000000D03*
X166965000Y-56680000D03*
D13*
%TO.P,Wio,NSS*%
%TO.N,Net-(U1-NSS)*%
X149200000Y-36380000D03*
%TO.P,Wio,RST,RST*%
%TO.N,Net-(NC2-AUX1)*%
X149200000Y-46540000D03*
%TO.P,Wio,RX0,RX*%
%TO.N,unconnected-(U1-RX-PadRX0)*%
X166965000Y-43980000D03*
%TO.P,Wio,RX1,RX1*%
%TO.N,unconnected-(U1-PadRX1)*%
X166965000Y-36360000D03*
%TO.P,Wio,RX2,RX2*%
%TO.N,unconnected-(U1-PadRX2)*%
X166965000Y-31280000D03*
%TO.P,Wio,TX0,TX*%
%TO.N,unconnected-(U1-TX-PadTX0)*%
X166965000Y-41440000D03*
%TO.P,Wio,TX1,TX1*%
%TO.N,unconnected-(U1-PadTX1)*%
X166965000Y-33820000D03*
%TO.P,Wio,TX2,TX2*%
%TO.N,unconnected-(U1-PadTX2)*%
X166965000Y-28740000D03*
%TD*%
D12*
%TO.P,,Vin,Vin*%
%TO.N,N/C*%
X245500000Y-29500000D03*
%TD*%
D10*
%TO.P,NC2,*%
%TO.N,*%
X183500000Y-58760000D03*
X183500000Y-46060000D03*
%TO.P,NC2,1n,VUSB*%
%TO.N,unconnected-(NC2-VUSB-Pad1n)*%
X183500000Y-35900000D03*
%TO.P,NC2,2n,BAT*%
%TO.N,unconnected-(NC2-BAT-Pad2n)*%
X183500000Y-38440000D03*
%TO.P,NC2,3n,MAIN*%
%TO.N,unconnected-(NC2-MAIN-Pad3n)*%
X183500000Y-40980000D03*
%TO.P,NC2,4n,VIO*%
%TO.N,unconnected-(NC2-VIO-Pad4n)*%
X183500000Y-43520000D03*
%TO.P,NC2,5n,VIN*%
%TO.N,unconnected-(NC2-VIN-Pad5n)*%
X183500000Y-53680000D03*
%TO.P,NC2,5v*%
%TO.N,5v*%
X183500000Y-48600000D03*
%TO.P,NC2,6n,RST*%
%TO.N,N/C*%
X183500000Y-56220000D03*
%TO.P,NC2,7n,SCL*%
%TO.N,Net-(NC2-SCL)*%
X183500000Y-61300000D03*
%TO.P,NC2,8n,SDA*%
%TO.N,Net-(NC2-SDA)*%
X183500000Y-63840000D03*
%TO.P,NC2,9n,ATTN*%
%TO.N,unconnected-(NC2-ATTN-Pad9n)*%
X183500000Y-66380000D03*
%TO.P,NC2,10n,AUXEN*%
%TO.N,unconnected-(NC2-AUXEN-Pad10n)*%
X183500000Y-68920000D03*
%TO.P,NC2,11n,AUXRX*%
%TO.N,unconnected-(NC2-AUXRX-Pad11n)*%
X183500000Y-71460000D03*
%TO.P,NC2,12n,AUXTX*%
%TO.N,unconnected-(NC2-AUXTX-Pad12n)*%
X183500000Y-74000000D03*
%TO.P,NC2,13n,AUX1*%
%TO.N,Net-(NC2-AUX1)*%
X183500000Y-76540000D03*
%TO.P,NC2,14n,AUX2*%
%TO.N,unconnected-(NC2-AUX2-Pad14n)*%
X183500000Y-79080000D03*
%TO.P,NC2,15n,AUX3*%
%TO.N,unconnected-(NC2-AUX3-Pad15n)*%
X183500000Y-81620000D03*
%TO.P,NC2,16n,AUX4*%
%TO.N,unconnected-(NC2-AUX4-Pad16n)*%
X183500000Y-84160000D03*
%TO.P,NC2,17n,RX*%
%TO.N,unconnected-(NC2-RX-Pad17n)*%
X183500000Y-86700000D03*
%TO.P,NC2,18n,TX*%
%TO.N,unconnected-(NC2-TX-Pad18n)*%
X183500000Y-89240000D03*
D11*
%TO.P,NC2,Gn,GND*%
%TO.N,GND*%
X183500000Y-51140000D03*
%TD*%
D14*
%TO.N,Net-(NC2-SCL)*%
X171750000Y-56750000D03*
X180000000Y-61500000D03*
%TO.N,Net-(NC2-AUX1)*%
X154500000Y-55500000D03*
X163500000Y-71500000D03*
X177000000Y-68500000D03*
X153500000Y-65000000D03*
X153500000Y-68500000D03*
X153460000Y-76460000D03*
%TO.N,Net-(NC2-SDA)*%
X177440000Y-57560000D03*
X171500000Y-51600000D03*
%TO.N,Net-(U1-SCK)*%
X164500000Y-50500000D03*
X172000000Y-103000000D03*
%TO.N,Net-(U1-MOSI)*%
X168000000Y-68500000D03*
X178500000Y-97500000D03*
X170500000Y-81000000D03*
X181000000Y-120000000D03*
%TO.N,Net-(U1-DIO)*%
X157000000Y-62083721D03*
X156500000Y-76500000D03*
%TO.N,Net-(U1-MISO)*%
X181500000Y-117500000D03*
X180500000Y-97500000D03*
X171000000Y-68500000D03*
X174500000Y-86000000D03*
%TO.N,Net-(U1-NSS)*%
X156250000Y-51250000D03*
X176000000Y-92500000D03*
X165500000Y-74500000D03*
X169500000Y-86000000D03*
X180000000Y-123500000D03*
X154000000Y-41000000D03*
%TD*%
D15*
%TO.N,5v*%
X149200000Y-56700000D02*
X149200000Y-67700000D01*
X149200000Y-67700000D02*
X158500000Y-77000000D01*
X158500000Y-77000000D02*
X158500000Y-82500000D01*
X154000000Y-105500000D02*
X166750000Y-118250000D01*
X158500000Y-82500000D02*
X157750000Y-83250000D01*
X157750000Y-83250000D02*
X157250000Y-83250000D01*
X157250000Y-83250000D02*
X154000000Y-86500000D01*
X154000000Y-86500000D02*
X154000000Y-105500000D01*
D16*
%TO.N,VBAT*%
X148000000Y-115500000D02*
X148000000Y-113000000D01*
X148000000Y-113000000D02*
X149080000Y-111920000D01*
X149080000Y-111920000D02*
X151000000Y-111920000D01*
D15*
%TO.N,5v*%
X157080000Y-114000000D02*
X153540000Y-117540000D01*
X153540000Y-117540000D02*
X153540000Y-117960000D01*
X153540000Y-117960000D02*
X152500000Y-119000000D01*
X152500000Y-119000000D02*
X151540000Y-119000000D01*
X151540000Y-119000000D02*
X151000000Y-119540000D01*
D16*
%TO.N,VBAT*%
X148000000Y-120500000D02*
X148000000Y-120000000D01*
X152000000Y-127000000D02*
X153000000Y-126000000D01*
X153000000Y-126000000D02*
X153000000Y-125000000D01*
X153000000Y-125000000D02*
X150500000Y-122500000D01*
X150500000Y-122500000D02*
X148500000Y-122500000D01*
X148000000Y-120000000D02*
X148000000Y-122000000D01*
X148000000Y-122000000D02*
X148500000Y-122500000D01*
X148500000Y-122500000D02*
X148500000Y-126000000D01*
D17*
%TO.N,Net-(U1-MISO)*%
X180500000Y-97500000D02*
X180500000Y-92000000D01*
X180500000Y-92000000D02*
X174500000Y-86000000D01*
%TO.N,Net-(U1-MOSI)*%
X178500000Y-97500000D02*
X178500000Y-92500000D01*
X178500000Y-92500000D02*
X170500000Y-84500000D01*
X170500000Y-84500000D02*
X170500000Y-81000000D01*
%TO.N,Net-(U1-SCK)*%
X174000000Y-105000000D02*
X174000000Y-109500000D01*
X174000000Y-109500000D02*
X178250000Y-113750000D01*
X178250000Y-113750000D02*
X179750000Y-113750000D01*
X172000000Y-103000000D02*
X174000000Y-105000000D01*
X181000000Y-115000000D02*
X204092500Y-115000000D01*
X179750000Y-113750000D02*
X181000000Y-115000000D01*
X204092500Y-115000000D02*
X205000000Y-114092500D01*
D18*
%TO.N,Net-(NC2-SCL)*%
X183300000Y-61500000D02*
X183500000Y-61300000D01*
D17*
X171750000Y-56750000D02*
X169140000Y-54140000D01*
X180000000Y-61500000D02*
X183300000Y-61500000D01*
X169140000Y-54140000D02*
X166965000Y-54140000D01*
%TO.N,Net-(NC2-AUX1)*%
X177000000Y-70040000D02*
X183500000Y-76540000D01*
X163500000Y-71500000D02*
X163000000Y-72000000D01*
X155500000Y-66000000D02*
X153500000Y-68000000D01*
X162500000Y-72000000D02*
X156500000Y-66000000D01*
D18*
X153500000Y-68000000D02*
X153500000Y-68500000D01*
D17*
X153500000Y-65000000D02*
X153500000Y-68500000D01*
X163000000Y-72000000D02*
X162500000Y-72000000D01*
X154095000Y-55095000D02*
X154095000Y-51435000D01*
X153500000Y-76420000D02*
X153460000Y-76460000D01*
X177000000Y-68500000D02*
X177000000Y-70040000D01*
X154095000Y-51435000D02*
X149200000Y-46540000D01*
X154500000Y-55500000D02*
X154095000Y-55095000D01*
D15*
X153460000Y-76460000D02*
X149000000Y-80920000D01*
D17*
X156500000Y-66000000D02*
X155500000Y-66000000D01*
D18*
%TO.N,Net-(NC2-SDA)*%
X177500000Y-57620000D02*
X177440000Y-57560000D01*
D17*
X166965000Y-51600000D02*
X171500000Y-51600000D01*
X179340000Y-63840000D02*
X183500000Y-63840000D01*
X177440000Y-57560000D02*
X177440000Y-61940000D01*
X171500000Y-51600000D02*
X171600000Y-51600000D01*
X177440000Y-61940000D02*
X179340000Y-63840000D01*
%TO.N,Net-(U1-SCK)*%
X150340000Y-33840000D02*
X149200000Y-33840000D01*
X164500000Y-48000000D02*
X150340000Y-33840000D01*
X164500000Y-50500000D02*
X164500000Y-48000000D01*
%TO.N,Net-(U1-CLK)*%
X149200000Y-49080000D02*
X146780000Y-51500000D01*
X146780000Y-81240000D02*
X149000000Y-83460000D01*
X146780000Y-51500000D02*
X146780000Y-81240000D01*
%TO.N,Net-(U1-MOSI)*%
X181960000Y-120960000D02*
X189500000Y-120960000D01*
X149200000Y-41460000D02*
X161000000Y-53260000D01*
X161000000Y-53260000D02*
X161000000Y-58000000D01*
X161000000Y-58000000D02*
X161000000Y-61500000D01*
X181000000Y-120000000D02*
X181960000Y-120960000D01*
X189500000Y-120960000D02*
X190460000Y-120000000D01*
D18*
X204172500Y-120000000D02*
X205000000Y-119172500D01*
D17*
X190460000Y-120000000D02*
X204172500Y-120000000D01*
X161000000Y-61500000D02*
X168000000Y-68500000D01*
%TO.N,Net-(U1-DIO)*%
X152000000Y-57083721D02*
X152000000Y-54420000D01*
X156500000Y-78500000D02*
X149000000Y-86000000D01*
X152000000Y-54420000D02*
X149200000Y-51620000D01*
X157000000Y-62083721D02*
X152000000Y-57083721D01*
X156500000Y-76500000D02*
X156500000Y-78500000D01*
D15*
%TO.N,5v*%
X187100000Y-48600000D02*
X183500000Y-48600000D01*
X212500000Y-125500000D02*
X212500000Y-113972500D01*
X193500000Y-55000000D02*
X187100000Y-48600000D01*
D19*
X157500000Y-114000000D02*
X157080000Y-114000000D01*
D15*
X166750000Y-118250000D02*
X178000000Y-129500000D01*
X193500000Y-94972500D02*
X193500000Y-55000000D01*
X205000000Y-106472500D02*
X193500000Y-94972500D01*
X212500000Y-113972500D02*
X205000000Y-106472500D01*
X186190000Y-102282500D02*
X193500000Y-94972500D01*
X208500000Y-129500000D02*
X212500000Y-125500000D01*
X178000000Y-129500000D02*
X208500000Y-129500000D01*
X186190000Y-107000000D02*
X186190000Y-102282500D01*
X157500000Y-114000000D02*
X162500000Y-114000000D01*
X162500000Y-114000000D02*
X166750000Y-118250000D01*
D20*
%TO.N,VBAT*%
X148000000Y-115500000D02*
X148000000Y-115075000D01*
D16*
X148000000Y-120000000D02*
X148000000Y-115500000D01*
D17*
%TO.N,Net-(U1-MISO)*%
X181500000Y-117500000D02*
X188580000Y-117500000D01*
X163000000Y-60500000D02*
X171000000Y-68500000D01*
X163000000Y-52720000D02*
X163000000Y-60500000D01*
X149200000Y-38920000D02*
X163000000Y-52720000D01*
X204132500Y-117500000D02*
X205000000Y-116632500D01*
X188580000Y-117500000D02*
X204132500Y-117500000D01*
D18*
%TO.N,Net-(U1-NSS)*%
X149200000Y-36380000D02*
X149380000Y-36380000D01*
D17*
X169500000Y-86000000D02*
X176000000Y-92500000D01*
X159500000Y-59500000D02*
X158500000Y-58500000D01*
X158500000Y-53500000D02*
X156250000Y-51250000D01*
X159500000Y-64000000D02*
X159500000Y-59500000D01*
X149380000Y-36380000D02*
X154000000Y-41000000D01*
X203212500Y-123500000D02*
X205000000Y-121712500D01*
X158500000Y-58500000D02*
X158500000Y-53500000D01*
X180000000Y-123500000D02*
X189500000Y-123500000D01*
X165500000Y-74500000D02*
X165500000Y-70000000D01*
X189500000Y-123500000D02*
X203212500Y-123500000D01*
X165500000Y-70000000D02*
X159500000Y-64000000D01*
%TD*%
%TA.AperFunction,Conductor*%
%TO.N,5v*%
G36*
X249942539Y-25520185D02*
G01*
X249988294Y-25572989D01*
X249999500Y-25624500D01*
X249999500Y-130875500D01*
X249979815Y-130942539D01*
X249927011Y-130988294D01*
X249875500Y-130999500D01*
X144624500Y-130999500D01*
X144557461Y-130979815D01*
X144511706Y-130927011D01*
X144500500Y-130875500D01*
X144500500Y-112906379D01*
X147049500Y-112906379D01*
X147049500Y-122093621D01*
X147086024Y-122277242D01*
X147086027Y-122277251D01*
X147157673Y-122450223D01*
X147157680Y-122450236D01*
X147261697Y-122605907D01*
X147261700Y-122605911D01*
X147513181Y-122857391D01*
X147546666Y-122918714D01*
X147549500Y-122945072D01*
X147549500Y-125489242D01*
X147529815Y-125556281D01*
X147513181Y-125576923D01*
X147469894Y-125620209D01*
X147469890Y-125620213D01*
X147344951Y-125792179D01*
X147248444Y-125981585D01*
X147182753Y-126183760D01*
X147149500Y-126393713D01*
X147149500Y-126606286D01*
X147182753Y-126816239D01*
X147248444Y-127018414D01*
X147344951Y-127207820D01*
X147469890Y-127379786D01*
X147620213Y-127530109D01*
X147792179Y-127655048D01*
X147792181Y-127655049D01*
X147792184Y-127655051D01*
X147981588Y-127751557D01*
X148183757Y-127817246D01*
X148393713Y-127850500D01*
X148393714Y-127850500D01*
X148606286Y-127850500D01*
X148606287Y-127850500D01*
X148816243Y-127817246D01*
X149018412Y-127751557D01*
X149207816Y-127655051D01*
X149229789Y-127639086D01*
X149379786Y-127530109D01*
X149379788Y-127530106D01*
X149379792Y-127530104D01*
X149530104Y-127379792D01*
X149530106Y-127379788D01*
X149530109Y-127379786D01*
X149655048Y-127207820D01*
X149655047Y-127207820D01*
X149655051Y-127207816D01*
X149751557Y-127018412D01*
X149817246Y-126816243D01*
X149850500Y-126606287D01*
X149850500Y-126393713D01*
X149817246Y-126183757D01*
X149751557Y-125981588D01*
X149655051Y-125792184D01*
X149655049Y-125792181D01*
X149655048Y-125792179D01*
X149530109Y-125620213D01*
X149486819Y-125576923D01*
X149453334Y-125515600D01*
X149450500Y-125489242D01*
X149450500Y-123574500D01*
X149470185Y-123507461D01*
X149522989Y-123461706D01*
X149574500Y-123450500D01*
X150054928Y-123450500D01*
X150121967Y-123470185D01*
X150142609Y-123486819D01*
X152013181Y-125357391D01*
X152027884Y-125384318D01*
X152044477Y-125410137D01*
X152045368Y-125416337D01*
X152046666Y-125418714D01*
X152049500Y-125445072D01*
X152049500Y-125525500D01*
X152029815Y-125592539D01*
X151977011Y-125638294D01*
X151925500Y-125649500D01*
X151893713Y-125649500D01*
X151845042Y-125657208D01*
X151683760Y-125682753D01*
X151481585Y-125748444D01*
X151292179Y-125844951D01*
X151120213Y-125969890D01*
X150969890Y-126120213D01*
X150844951Y-126292179D01*
X150748444Y-126481585D01*
X150682753Y-126683760D01*
X150661771Y-126816239D01*
X150649500Y-126893713D01*
X150649500Y-127106287D01*
X150682754Y-127316243D01*
X150703402Y-127379792D01*
X150748444Y-127518414D01*
X150844951Y-127707820D01*
X150969890Y-127879786D01*
X151120213Y-128030109D01*
X151292179Y-128155048D01*
X151292181Y-128155049D01*
X151292184Y-128155051D01*
X151481588Y-128251557D01*
X151683757Y-128317246D01*
X151893713Y-128350500D01*
X151893714Y-128350500D01*
X152106286Y-128350500D01*
X152106287Y-128350500D01*
X152316243Y-128317246D01*
X152518412Y-128251557D01*
X152707816Y-128155051D01*
X152729789Y-128139086D01*
X152879786Y-128030109D01*
X152879788Y-128030106D01*
X152879792Y-128030104D01*
X153030104Y-127879792D01*
X153030106Y-127879788D01*
X153030109Y-127879786D01*
X153155048Y-127707820D01*
X153155047Y-127707820D01*
X153155051Y-127707816D01*
X153251557Y-127518412D01*
X153317246Y-127316243D01*
X153350500Y-127106287D01*
X153350500Y-127045072D01*
X153370185Y-126978033D01*
X153386819Y-126957391D01*
X153738299Y-126605911D01*
X153738302Y-126605908D01*
X153740823Y-126602135D01*
X163649500Y-126602135D01*
X163649500Y-128397870D01*
X163649501Y-128397876D01*
X163655908Y-128457483D01*
X163706202Y-128592328D01*
X163706206Y-128592335D01*
X163792452Y-128707544D01*
X163792455Y-128707547D01*
X163907664Y-128793793D01*
X163907671Y-128793797D01*
X164042517Y-128844091D01*
X164042516Y-128844091D01*
X164049444Y-128844835D01*
X164102127Y-128850500D01*
X165897872Y-128850499D01*
X165957483Y-128844091D01*
X166092331Y-128793796D01*
X166175689Y-128731393D01*
X166241153Y-128706977D01*
X166309426Y-128721828D01*
X166324311Y-128731394D01*
X166407669Y-128793796D01*
X166407671Y-128793797D01*
X166542517Y-128844091D01*
X166542516Y-128844091D01*
X166549444Y-128844835D01*
X166602127Y-128850500D01*
X168397872Y-128850499D01*
X168457483Y-128844091D01*
X168592331Y-128793796D01*
X168707546Y-128707546D01*
X168793796Y-128592331D01*
X168844091Y-128457483D01*
X168850500Y-128397873D01*
X168850499Y-126602128D01*
X168844091Y-126542517D01*
X168809670Y-126450230D01*
X168793797Y-126407671D01*
X168793793Y-126407664D01*
X168707547Y-126292455D01*
X168707544Y-126292452D01*
X168592335Y-126206206D01*
X168592328Y-126206202D01*
X168457482Y-126155908D01*
X168457483Y-126155908D01*
X168397883Y-126149501D01*
X168397881Y-126149500D01*
X168397873Y-126149500D01*
X168397864Y-126149500D01*
X166602129Y-126149500D01*
X166602123Y-126149501D01*
X166542516Y-126155908D01*
X166407671Y-126206202D01*
X166407669Y-126206203D01*
X166324311Y-126268606D01*
X166258847Y-126293023D01*
X166190574Y-126278172D01*
X166175689Y-126268606D01*
X166092330Y-126206203D01*
X166092328Y-126206202D01*
X165957482Y-126155908D01*
X165957483Y-126155908D01*
X165897883Y-126149501D01*
X165897881Y-126149500D01*
X165897873Y-126149500D01*
X165897864Y-126149500D01*
X164102129Y-126149500D01*
X164102123Y-126149501D01*
X164042516Y-126155908D01*
X163907671Y-126206202D01*
X163907664Y-126206206D01*
X163792455Y-126292452D01*
X163792452Y-126292455D01*
X163706206Y-126407664D01*
X163706202Y-126407671D01*
X163655908Y-126542517D01*
X163649501Y-126602116D01*
X163649501Y-126602123D01*
X163649500Y-126602135D01*
X153740823Y-126602135D01*
X153842323Y-126450230D01*
X153884294Y-126348901D01*
X153913973Y-126277251D01*
X153950500Y-126093616D01*
X153950500Y-124906384D01*
X153913973Y-124722749D01*
X153884294Y-124651099D01*
X153842323Y-124549770D01*
X153842320Y-124549765D01*
X153842319Y-124549763D01*
X153738302Y-124394092D01*
X153738299Y-124394088D01*
X151105911Y-121761700D01*
X151105907Y-121761697D01*
X150950236Y-121657680D01*
X150950223Y-121657673D01*
X150859722Y-121620187D01*
X150825984Y-121606213D01*
X150777251Y-121586027D01*
X150685433Y-121567763D01*
X150676110Y-121565908D01*
X150593620Y-121549500D01*
X150593617Y-121549500D01*
X150593616Y-121549500D01*
X149074500Y-121549500D01*
X149007461Y-121529815D01*
X148961706Y-121477011D01*
X148950500Y-121425500D01*
X148950500Y-113445072D01*
X148970185Y-113378033D01*
X148986819Y-113357391D01*
X149437391Y-112906819D01*
X149498714Y-112873334D01*
X149525072Y-112870500D01*
X149989242Y-112870500D01*
X150018682Y-112879144D01*
X150048669Y-112885668D01*
X150053684Y-112889422D01*
X150056281Y-112890185D01*
X150076923Y-112906819D01*
X150083430Y-112913326D01*
X150116915Y-112974649D01*
X150111931Y-113044341D01*
X150070059Y-113100274D01*
X150039083Y-113117189D01*
X149907669Y-113166203D01*
X149907664Y-113166206D01*
X149792455Y-113252452D01*
X149792452Y-113252455D01*
X149706206Y-113367664D01*
X149706202Y-113367671D01*
X149655908Y-113502517D01*
X149649501Y-113562116D01*
X149649501Y-113562123D01*
X149649500Y-113562135D01*
X149649500Y-115357870D01*
X149649501Y-115357876D01*
X149655908Y-115417483D01*
X149706202Y-115552328D01*
X149706203Y-115552330D01*
X149783578Y-115655689D01*
X149807995Y-115721153D01*
X149793144Y-115789426D01*
X149783578Y-115804311D01*
X149706203Y-115907669D01*
X149706202Y-115907671D01*
X149655908Y-116042517D01*
X149649501Y-116102116D01*
X149649501Y-116102123D01*
X149649500Y-116102135D01*
X149649500Y-117897870D01*
X149649501Y-117897876D01*
X149655908Y-117957483D01*
X149706202Y-118092328D01*
X149706206Y-118092335D01*
X149792452Y-118207544D01*
X149792455Y-118207547D01*
X149907664Y-118293793D01*
X149907671Y-118293797D01*
X149925643Y-118300500D01*
X150042517Y-118344091D01*
X150102127Y-118350500D01*
X150112685Y-118350499D01*
X150179723Y-118370179D01*
X150200372Y-118386818D01*
X150870591Y-119057037D01*
X150807007Y-119074075D01*
X150692993Y-119139901D01*
X150599901Y-119232993D01*
X150534075Y-119347007D01*
X150517037Y-119410591D01*
X149884728Y-118778282D01*
X149884727Y-118778282D01*
X149845380Y-118832439D01*
X149748904Y-119021782D01*
X149683242Y-119223869D01*
X149683242Y-119223872D01*
X149650000Y-119433753D01*
X149650000Y-119646246D01*
X149683242Y-119856127D01*
X149683242Y-119856130D01*
X149748904Y-120058217D01*
X149845375Y-120247550D01*
X149884728Y-120301716D01*
X150517037Y-119669408D01*
X150534075Y-119732993D01*
X150599901Y-119847007D01*
X150692993Y-119940099D01*
X150807007Y-120005925D01*
X150870590Y-120022962D01*
X150238282Y-120655269D01*
X150238282Y-120655270D01*
X150292449Y-120694624D01*
X150481782Y-120791095D01*
X150683870Y-120856757D01*
X150893754Y-120890000D01*
X151106246Y-120890000D01*
X151316127Y-120856757D01*
X151316130Y-120856757D01*
X151518217Y-120791095D01*
X151707554Y-120694622D01*
X151761716Y-120655270D01*
X151761717Y-120655270D01*
X151129408Y-120022962D01*
X151192993Y-120005925D01*
X151307007Y-119940099D01*
X151400099Y-119847007D01*
X151465925Y-119732993D01*
X151482962Y-119669408D01*
X152115270Y-120301717D01*
X152115270Y-120301716D01*
X152154622Y-120247554D01*
X152251095Y-120058217D01*
X152316757Y-119856130D01*
X152316757Y-119856127D01*
X152350000Y-119646246D01*
X152350000Y-119433753D01*
X152316757Y-119223872D01*
X152316757Y-119223869D01*
X152251095Y-119021782D01*
X152154624Y-118832449D01*
X152115270Y-118778282D01*
X152115269Y-118778282D01*
X151482962Y-119410590D01*
X151465925Y-119347007D01*
X151400099Y-119232993D01*
X151307007Y-119139901D01*
X151192993Y-119074075D01*
X151129409Y-119057037D01*
X151799627Y-118386818D01*
X151860950Y-118353333D01*
X151887307Y-118350499D01*
X151897872Y-118350499D01*
X151957483Y-118344091D01*
X152092331Y-118293796D01*
X152207546Y-118207546D01*
X152293796Y-118092331D01*
X152344091Y-117957483D01*
X152350500Y-117897873D01*
X152350499Y-116102128D01*
X152344091Y-116042517D01*
X152300140Y-115924679D01*
X152293797Y-115907671D01*
X152293795Y-115907668D01*
X152248667Y-115847385D01*
X152216421Y-115804309D01*
X152192004Y-115738848D01*
X152206855Y-115670575D01*
X152216416Y-115655696D01*
X152293796Y-115552331D01*
X152344091Y-115417483D01*
X152350500Y-115357873D01*
X152350499Y-113562128D01*
X152344091Y-113502517D01*
X152322665Y-113445072D01*
X152293797Y-113367671D01*
X152293793Y-113367664D01*
X152207547Y-113252455D01*
X152207544Y-113252452D01*
X152092335Y-113166206D01*
X152092328Y-113166202D01*
X151960917Y-113117189D01*
X151904983Y-113075318D01*
X151880566Y-113009853D01*
X151895418Y-112941580D01*
X151916563Y-112913332D01*
X152030104Y-112799792D01*
X152058983Y-112760044D01*
X152155048Y-112627820D01*
X152155047Y-112627820D01*
X152155051Y-112627816D01*
X152251557Y-112438412D01*
X152317246Y-112236243D01*
X152350500Y-112026287D01*
X152350500Y-111813713D01*
X152317246Y-111603757D01*
X152251557Y-111401588D01*
X152155051Y-111212184D01*
X152155049Y-111212181D01*
X152155048Y-111212179D01*
X152030109Y-111040213D01*
X151879786Y-110889890D01*
X151707820Y-110764951D01*
X151707115Y-110764591D01*
X151699054Y-110760485D01*
X151648259Y-110712512D01*
X151631463Y-110644692D01*
X151653999Y-110578556D01*
X151699054Y-110539515D01*
X151707816Y-110535051D01*
X151729789Y-110519086D01*
X151879786Y-110410109D01*
X151879788Y-110410106D01*
X151879792Y-110410104D01*
X152030104Y-110259792D01*
X152030106Y-110259788D01*
X152030109Y-110259786D01*
X152155048Y-110087820D01*
X152155047Y-110087820D01*
X152155051Y-110087816D01*
X152251557Y-109898412D01*
X152317246Y-109696243D01*
X152350500Y-109486287D01*
X152350500Y-109273713D01*
X152317246Y-109063757D01*
X152251557Y-108861588D01*
X152155051Y-108672184D01*
X152155049Y-108672181D01*
X152155048Y-108672179D01*
X152030109Y-108500213D01*
X151879786Y-108349890D01*
X151707820Y-108224951D01*
X151518414Y-108128444D01*
X151518413Y-108128443D01*
X151518412Y-108128443D01*
X151316243Y-108062754D01*
X151316241Y-108062753D01*
X151316240Y-108062753D01*
X151154957Y-108037208D01*
X151106287Y-108029500D01*
X150893713Y-108029500D01*
X150845042Y-108037208D01*
X150683760Y-108062753D01*
X150481585Y-108128444D01*
X150292179Y-108224951D01*
X150120213Y-108349890D01*
X149969890Y-108500213D01*
X149844951Y-108672179D01*
X149748444Y-108861585D01*
X149682753Y-109063760D01*
X149649500Y-109273713D01*
X149649500Y-109486286D01*
X149682163Y-109692517D01*
X149682754Y-109696243D01*
X149746454Y-109892292D01*
X149748444Y-109898414D01*
X149844951Y-110087820D01*
X149969890Y-110259786D01*
X150120213Y-110410109D01*
X150292182Y-110535050D01*
X150300946Y-110539516D01*
X150351742Y-110587491D01*
X150368536Y-110655312D01*
X150345998Y-110721447D01*
X150300946Y-110760484D01*
X150292182Y-110764949D01*
X150120213Y-110889890D01*
X150120209Y-110889894D01*
X150076923Y-110933181D01*
X150015600Y-110966666D01*
X149989242Y-110969500D01*
X148986379Y-110969500D01*
X148802756Y-111006025D01*
X148802744Y-111006028D01*
X148736741Y-111033368D01*
X148629776Y-111077673D01*
X148629763Y-111077680D01*
X148474092Y-111181697D01*
X148474088Y-111181700D01*
X147261700Y-112394088D01*
X147261697Y-112394092D01*
X147157678Y-112549766D01*
X147157677Y-112549769D01*
X147125350Y-112627815D01*
X147125350Y-112627816D01*
X147086027Y-112722748D01*
X147086025Y-112722756D01*
X147049500Y-112906379D01*
X144500500Y-112906379D01*
X144500500Y-102921153D01*
X171199500Y-102921153D01*
X171199500Y-103078846D01*
X171230261Y-103233489D01*
X171230264Y-103233501D01*
X171290602Y-103379172D01*
X171290609Y-103379185D01*
X171378210Y-103510288D01*
X171378213Y-103510292D01*
X171489707Y-103621786D01*
X171489711Y-103621789D01*
X171620814Y-103709390D01*
X171620827Y-103709397D01*
X171708230Y-103745599D01*
X171766503Y-103769737D01*
X171833581Y-103783079D01*
X171895490Y-103815463D01*
X171897070Y-103817015D01*
X173313181Y-105233126D01*
X173346666Y-105294449D01*
X173349500Y-105320807D01*
X173349500Y-109564070D01*
X173370936Y-109671830D01*
X173370936Y-109671832D01*
X173374497Y-109689736D01*
X173374501Y-109689749D01*
X173423532Y-109808123D01*
X173423535Y-109808127D01*
X173479771Y-109892292D01*
X173494726Y-109914673D01*
X177835325Y-114255272D01*
X177835332Y-114255278D01*
X177941863Y-114326459D01*
X177941867Y-114326461D01*
X177941874Y-114326466D01*
X177997484Y-114349500D01*
X178060256Y-114375501D01*
X178060260Y-114375501D01*
X178060261Y-114375502D01*
X178185928Y-114400500D01*
X178185931Y-114400500D01*
X179429192Y-114400500D01*
X179496231Y-114420185D01*
X179516873Y-114436819D01*
X180585325Y-115505272D01*
X180585326Y-115505273D01*
X180585329Y-115505275D01*
X180585331Y-115505277D01*
X180691873Y-115576465D01*
X180810256Y-115625501D01*
X180810260Y-115625501D01*
X180810261Y-115625502D01*
X180935928Y-115650500D01*
X180935931Y-115650500D01*
X203800791Y-115650500D01*
X203867830Y-115670185D01*
X203913585Y-115722989D01*
X203923529Y-115792147D01*
X203901109Y-115847385D01*
X203844951Y-115924680D01*
X203748444Y-116114085D01*
X203682753Y-116316260D01*
X203649500Y-116526213D01*
X203649500Y-116725500D01*
X203629815Y-116792539D01*
X203577011Y-116838294D01*
X203525500Y-116849500D01*
X182004935Y-116849500D01*
X181937896Y-116829815D01*
X181936090Y-116828633D01*
X181879179Y-116790606D01*
X181879172Y-116790602D01*
X181733501Y-116730264D01*
X181733489Y-116730261D01*
X181578845Y-116699500D01*
X181578842Y-116699500D01*
X181421158Y-116699500D01*
X181421155Y-116699500D01*
X181266510Y-116730261D01*
X181266498Y-116730264D01*
X181120827Y-116790602D01*
X181120814Y-116790609D01*
X180989711Y-116878210D01*
X180989707Y-116878213D01*
X180878213Y-116989707D01*
X180878210Y-116989711D01*
X180790609Y-117120814D01*
X180790602Y-117120827D01*
X180730264Y-117266498D01*
X180730261Y-117266510D01*
X180699500Y-117421153D01*
X180699500Y-117578846D01*
X180730261Y-117733489D01*
X180730264Y-117733501D01*
X180790602Y-117879172D01*
X180790609Y-117879185D01*
X180878210Y-118010288D01*
X180878213Y-118010292D01*
X180989707Y-118121786D01*
X180989711Y-118121789D01*
X181120814Y-118209390D01*
X181120827Y-118209397D01*
X181266498Y-118269735D01*
X181266503Y-118269737D01*
X181387440Y-118293793D01*
X181421153Y-118300499D01*
X181421156Y-118300500D01*
X181421158Y-118300500D01*
X181578844Y-118300500D01*
X181578845Y-118300499D01*
X181733497Y-118269737D01*
X181879179Y-118209394D01*
X181936044Y-118171397D01*
X182002721Y-118150520D01*
X182004935Y-118150500D01*
X188515931Y-118150500D01*
X203829852Y-118150500D01*
X203896891Y-118170185D01*
X203942646Y-118222989D01*
X203952590Y-118292147D01*
X203930171Y-118347385D01*
X203844948Y-118464684D01*
X203748444Y-118654085D01*
X203682753Y-118856260D01*
X203649500Y-119066213D01*
X203649500Y-119225500D01*
X203629815Y-119292539D01*
X203577011Y-119338294D01*
X203525500Y-119349500D01*
X190395929Y-119349500D01*
X190270261Y-119374497D01*
X190270255Y-119374499D01*
X190151874Y-119423534D01*
X190045326Y-119494726D01*
X190045325Y-119494727D01*
X189266873Y-120273181D01*
X189205550Y-120306666D01*
X189179192Y-120309500D01*
X182280808Y-120309500D01*
X182213769Y-120289815D01*
X182193127Y-120273181D01*
X181817015Y-119897069D01*
X181783530Y-119835746D01*
X181783093Y-119833652D01*
X181769737Y-119766503D01*
X181738427Y-119690914D01*
X181709397Y-119620827D01*
X181709390Y-119620814D01*
X181621789Y-119489711D01*
X181621786Y-119489707D01*
X181510292Y-119378213D01*
X181510288Y-119378210D01*
X181379185Y-119290609D01*
X181379172Y-119290602D01*
X181233501Y-119230264D01*
X181233489Y-119230261D01*
X181078845Y-119199500D01*
X181078842Y-119199500D01*
X180921158Y-119199500D01*
X180921155Y-119199500D01*
X180766510Y-119230261D01*
X180766498Y-119230264D01*
X180620827Y-119290602D01*
X180620814Y-119290609D01*
X180489711Y-119378210D01*
X180489707Y-119378213D01*
X180378213Y-119489707D01*
X180378210Y-119489711D01*
X180290609Y-119620814D01*
X180290602Y-119620827D01*
X180230264Y-119766498D01*
X180230261Y-119766510D01*
X180199500Y-119921153D01*
X180199500Y-120078846D01*
X180230261Y-120233489D01*
X180230264Y-120233501D01*
X180290602Y-120379172D01*
X180290609Y-120379185D01*
X180378210Y-120510288D01*
X180378213Y-120510292D01*
X180489707Y-120621786D01*
X180489711Y-120621789D01*
X180620814Y-120709390D01*
X180620827Y-120709397D01*
X180653642Y-120722989D01*
X180766503Y-120769737D01*
X180833580Y-120783079D01*
X180895488Y-120815461D01*
X180897068Y-120817014D01*
X181545325Y-121465272D01*
X181545332Y-121465278D01*
X181631356Y-121522757D01*
X181631357Y-121522757D01*
X181651873Y-121536465D01*
X181770256Y-121585501D01*
X181770260Y-121585501D01*
X181770261Y-121585502D01*
X181895928Y-121610500D01*
X181895931Y-121610500D01*
X189564071Y-121610500D01*
X189648615Y-121593682D01*
X189689744Y-121585501D01*
X189808127Y-121536465D01*
X189828643Y-121522757D01*
X189828644Y-121522757D01*
X189893016Y-121479744D01*
X189914669Y-121465277D01*
X190693127Y-120686819D01*
X190754450Y-120653334D01*
X190780808Y-120650500D01*
X203858914Y-120650500D01*
X203925953Y-120670185D01*
X203971708Y-120722989D01*
X203981652Y-120792147D01*
X203959232Y-120847385D01*
X203844951Y-121004680D01*
X203748444Y-121194085D01*
X203682753Y-121396260D01*
X203649500Y-121606213D01*
X203649500Y-121818786D01*
X203683516Y-122033555D01*
X203681877Y-122033814D01*
X203678738Y-122096383D01*
X203649342Y-122143210D01*
X202979373Y-122813181D01*
X202918050Y-122846666D01*
X202891692Y-122849500D01*
X180504935Y-122849500D01*
X180437896Y-122829815D01*
X180436090Y-122828633D01*
X180379179Y-122790606D01*
X180379172Y-122790602D01*
X180233501Y-122730264D01*
X180233489Y-122730261D01*
X180078845Y-122699500D01*
X180078842Y-122699500D01*
X179921158Y-122699500D01*
X179921155Y-122699500D01*
X179766510Y-122730261D01*
X179766498Y-122730264D01*
X179620827Y-122790602D01*
X179620814Y-122790609D01*
X179489711Y-122878210D01*
X179489707Y-122878213D01*
X179378213Y-122989707D01*
X179378210Y-122989711D01*
X179290609Y-123120814D01*
X179290602Y-123120827D01*
X179230264Y-123266498D01*
X179230261Y-123266510D01*
X179199500Y-123421153D01*
X179199500Y-123578846D01*
X179230261Y-123733489D01*
X179230264Y-123733501D01*
X179290602Y-123879172D01*
X179290609Y-123879185D01*
X179378210Y-124010288D01*
X179378213Y-124010292D01*
X179489707Y-124121786D01*
X179489711Y-124121789D01*
X179620814Y-124209390D01*
X179620827Y-124209397D01*
X179766498Y-124269735D01*
X179766503Y-124269737D01*
X179921153Y-124300499D01*
X179921156Y-124300500D01*
X179921158Y-124300500D01*
X180078844Y-124300500D01*
X180078845Y-124300499D01*
X180233497Y-124269737D01*
X180379179Y-124209394D01*
X180436044Y-124171397D01*
X180502721Y-124150520D01*
X180504935Y-124150500D01*
X203276571Y-124150500D01*
X203361115Y-124133682D01*
X203402244Y-124125501D01*
X203478047Y-124094101D01*
X203547516Y-124086633D01*
X203609996Y-124117908D01*
X203645648Y-124177997D01*
X203649500Y-124208663D01*
X203649500Y-124358787D01*
X203682754Y-124568743D01*
X203732793Y-124722748D01*
X203748444Y-124770914D01*
X203844951Y-124960320D01*
X203969890Y-125132286D01*
X204120213Y-125282609D01*
X204292179Y-125407548D01*
X204292181Y-125407549D01*
X204292184Y-125407551D01*
X204481588Y-125504057D01*
X204683757Y-125569746D01*
X204893713Y-125603000D01*
X204893714Y-125603000D01*
X205106286Y-125603000D01*
X205106287Y-125603000D01*
X205316243Y-125569746D01*
X205518412Y-125504057D01*
X205707816Y-125407551D01*
X205776856Y-125357391D01*
X205879786Y-125282609D01*
X205879788Y-125282606D01*
X205879792Y-125282604D01*
X206030104Y-125132292D01*
X206030106Y-125132288D01*
X206030109Y-125132286D01*
X206155048Y-124960320D01*
X206155047Y-124960320D01*
X206155051Y-124960316D01*
X206251557Y-124770912D01*
X206317246Y-124568743D01*
X206350500Y-124358787D01*
X206350500Y-124146213D01*
X206317246Y-123936257D01*
X206251557Y-123734088D01*
X206155051Y-123544684D01*
X206155049Y-123544681D01*
X206155048Y-123544679D01*
X206030109Y-123372713D01*
X205879786Y-123222390D01*
X205707820Y-123097451D01*
X205707115Y-123097091D01*
X205699054Y-123092985D01*
X205648259Y-123045012D01*
X205631463Y-122977192D01*
X205653999Y-122911056D01*
X205699054Y-122872015D01*
X205707816Y-122867551D01*
X205761425Y-122828602D01*
X205879786Y-122742609D01*
X205879788Y-122742606D01*
X205879792Y-122742604D01*
X206030104Y-122592292D01*
X206030106Y-122592288D01*
X206030109Y-122592286D01*
X206155048Y-122420320D01*
X206155047Y-122420320D01*
X206155051Y-122420316D01*
X206251557Y-122230912D01*
X206317246Y-122028743D01*
X206350500Y-121818787D01*
X206350500Y-121606213D01*
X206317246Y-121396257D01*
X206251557Y-121194088D01*
X206155051Y-121004684D01*
X206155049Y-121004681D01*
X206155048Y-121004679D01*
X206030109Y-120832713D01*
X205879786Y-120682390D01*
X205707820Y-120557451D01*
X205707115Y-120557091D01*
X205699054Y-120552985D01*
X205648259Y-120505012D01*
X205631463Y-120437192D01*
X205653999Y-120371056D01*
X205699054Y-120332015D01*
X205707816Y-120327551D01*
X205759756Y-120289815D01*
X205879786Y-120202609D01*
X205879788Y-120202606D01*
X205879792Y-120202604D01*
X206030104Y-120052292D01*
X206030106Y-120052288D01*
X206030109Y-120052286D01*
X206155048Y-119880320D01*
X206155047Y-119880320D01*
X206155051Y-119880316D01*
X206251557Y-119690912D01*
X206317246Y-119488743D01*
X206350500Y-119278787D01*
X206350500Y-119066213D01*
X206317246Y-118856257D01*
X206251557Y-118654088D01*
X206155051Y-118464684D01*
X206155049Y-118464681D01*
X206155048Y-118464679D01*
X206030109Y-118292713D01*
X205879786Y-118142390D01*
X205707820Y-118017451D01*
X205707115Y-118017091D01*
X205699054Y-118012985D01*
X205648259Y-117965012D01*
X205631463Y-117897192D01*
X205653999Y-117831056D01*
X205699054Y-117792015D01*
X205707816Y-117787551D01*
X205782210Y-117733501D01*
X205879786Y-117662609D01*
X205879788Y-117662606D01*
X205879792Y-117662604D01*
X206030104Y-117512292D01*
X206030106Y-117512288D01*
X206030109Y-117512286D01*
X206155048Y-117340320D01*
X206155047Y-117340320D01*
X206155051Y-117340316D01*
X206251557Y-117150912D01*
X206317246Y-116948743D01*
X206350500Y-116738787D01*
X206350500Y-116526213D01*
X206317246Y-116316257D01*
X206251557Y-116114088D01*
X206155051Y-115924684D01*
X206155049Y-115924681D01*
X206155048Y-115924679D01*
X206030109Y-115752713D01*
X205879786Y-115602390D01*
X205707820Y-115477451D01*
X205707115Y-115477091D01*
X205699054Y-115472985D01*
X205648259Y-115425012D01*
X205631463Y-115357192D01*
X205653999Y-115291056D01*
X205699054Y-115252015D01*
X205707816Y-115247551D01*
X205729789Y-115231586D01*
X205879786Y-115122609D01*
X205879788Y-115122606D01*
X205879792Y-115122604D01*
X206030104Y-114972292D01*
X206030106Y-114972288D01*
X206030109Y-114972286D01*
X206155048Y-114800320D01*
X206155047Y-114800320D01*
X206155051Y-114800316D01*
X206251557Y-114610912D01*
X206317246Y-114408743D01*
X206350500Y-114198787D01*
X206350500Y-113986213D01*
X206317246Y-113776257D01*
X206251557Y-113574088D01*
X206155051Y-113384684D01*
X206155049Y-113384681D01*
X206155048Y-113384679D01*
X206030109Y-113212713D01*
X205916569Y-113099173D01*
X205883084Y-113037850D01*
X205888068Y-112968158D01*
X205929940Y-112912225D01*
X205960915Y-112895310D01*
X206092331Y-112846296D01*
X206207546Y-112760046D01*
X206293796Y-112644831D01*
X206344091Y-112509983D01*
X206350500Y-112450373D01*
X206350499Y-110654628D01*
X206344091Y-110595017D01*
X206337951Y-110578556D01*
X206293797Y-110460171D01*
X206293793Y-110460164D01*
X206207547Y-110344955D01*
X206207544Y-110344952D01*
X206092335Y-110258706D01*
X206092328Y-110258702D01*
X205960917Y-110209689D01*
X205904983Y-110167818D01*
X205880566Y-110102353D01*
X205895418Y-110034080D01*
X205916563Y-110005832D01*
X206030104Y-109892292D01*
X206155051Y-109720316D01*
X206251557Y-109530912D01*
X206317246Y-109328743D01*
X206350500Y-109118787D01*
X206350500Y-108906213D01*
X206317246Y-108696257D01*
X206251557Y-108494088D01*
X206155051Y-108304684D01*
X206155049Y-108304681D01*
X206155048Y-108304679D01*
X206030109Y-108132713D01*
X205879786Y-107982390D01*
X205707817Y-107857449D01*
X205698504Y-107852704D01*
X205647707Y-107804730D01*
X205630912Y-107736909D01*
X205653449Y-107670774D01*
X205698507Y-107631732D01*
X205707555Y-107627122D01*
X205761716Y-107587770D01*
X205761717Y-107587770D01*
X205129408Y-106955462D01*
X205192993Y-106938425D01*
X205307007Y-106872599D01*
X205400099Y-106779507D01*
X205465925Y-106665493D01*
X205482962Y-106601908D01*
X206115270Y-107234217D01*
X206115270Y-107234216D01*
X206154622Y-107180054D01*
X206251095Y-106990717D01*
X206316757Y-106788630D01*
X206316757Y-106788627D01*
X206350000Y-106578746D01*
X206350000Y-106366253D01*
X206316757Y-106156372D01*
X206316757Y-106156369D01*
X206251095Y-105954282D01*
X206154624Y-105764949D01*
X206115270Y-105710782D01*
X206115269Y-105710782D01*
X205482962Y-106343090D01*
X205465925Y-106279507D01*
X205400099Y-106165493D01*
X205307007Y-106072401D01*
X205192993Y-106006575D01*
X205129409Y-105989537D01*
X205761716Y-105357228D01*
X205707550Y-105317875D01*
X205518217Y-105221404D01*
X205316129Y-105155742D01*
X205106246Y-105122500D01*
X204893754Y-105122500D01*
X204683872Y-105155742D01*
X204683869Y-105155742D01*
X204481782Y-105221404D01*
X204292439Y-105317880D01*
X204238282Y-105357227D01*
X204238282Y-105357228D01*
X204870591Y-105989537D01*
X204807007Y-106006575D01*
X204692993Y-106072401D01*
X204599901Y-106165493D01*
X204534075Y-106279507D01*
X204517037Y-106343090D01*
X203884728Y-105710782D01*
X203884727Y-105710782D01*
X203845380Y-105764939D01*
X203748904Y-105954282D01*
X203683242Y-106156369D01*
X203683242Y-106156372D01*
X203650000Y-106366253D01*
X203650000Y-106578746D01*
X203683242Y-106788627D01*
X203683242Y-106788630D01*
X203748904Y-106990717D01*
X203845375Y-107180050D01*
X203884728Y-107234216D01*
X204517037Y-106601908D01*
X204534075Y-106665493D01*
X204599901Y-106779507D01*
X204692993Y-106872599D01*
X204807007Y-106938425D01*
X204870590Y-106955462D01*
X204238282Y-107587769D01*
X204238282Y-107587770D01*
X204292452Y-107627126D01*
X204292451Y-107627126D01*
X204301495Y-107631734D01*
X204352292Y-107679708D01*
X204369087Y-107747529D01*
X204346550Y-107813664D01*
X204301499Y-107852702D01*
X204292182Y-107857449D01*
X204120213Y-107982390D01*
X203969890Y-108132713D01*
X203844951Y-108304679D01*
X203748444Y-108494085D01*
X203748443Y-108494087D01*
X203748443Y-108494088D01*
X203746453Y-108500213D01*
X203682753Y-108696260D01*
X203649500Y-108906213D01*
X203649500Y-109118786D01*
X203672954Y-109266873D01*
X203682754Y-109328743D01*
X203733943Y-109486287D01*
X203748444Y-109530914D01*
X203844951Y-109720320D01*
X203969890Y-109892286D01*
X204083430Y-110005826D01*
X204116915Y-110067149D01*
X204111931Y-110136841D01*
X204070059Y-110192774D01*
X204039083Y-110209689D01*
X203907669Y-110258703D01*
X203907664Y-110258706D01*
X203792455Y-110344952D01*
X203792452Y-110344955D01*
X203706206Y-110460164D01*
X203706202Y-110460171D01*
X203655908Y-110595017D01*
X203651980Y-110631557D01*
X203649501Y-110654623D01*
X203649500Y-110654635D01*
X203649500Y-112450370D01*
X203649501Y-112450376D01*
X203655908Y-112509983D01*
X203706202Y-112644828D01*
X203706206Y-112644835D01*
X203792452Y-112760044D01*
X203792455Y-112760047D01*
X203907664Y-112846293D01*
X203907671Y-112846297D01*
X204039082Y-112895310D01*
X204095016Y-112937181D01*
X204119433Y-113002645D01*
X204104582Y-113070918D01*
X204083431Y-113099173D01*
X203969889Y-113212715D01*
X203844951Y-113384679D01*
X203748444Y-113574085D01*
X203682753Y-113776260D01*
X203649500Y-113986213D01*
X203649500Y-114198787D01*
X203650658Y-114206102D01*
X203641706Y-114275393D01*
X203596710Y-114328846D01*
X203529959Y-114349487D01*
X203528186Y-114349500D01*
X181320808Y-114349500D01*
X181253769Y-114329815D01*
X181233127Y-114313181D01*
X180164674Y-113244727D01*
X180164673Y-113244726D01*
X180164669Y-113244723D01*
X180058127Y-113173535D01*
X180040433Y-113166206D01*
X179939744Y-113124499D01*
X179939738Y-113124497D01*
X179814071Y-113099500D01*
X179814069Y-113099500D01*
X178570808Y-113099500D01*
X178503769Y-113079815D01*
X178483127Y-113063181D01*
X175172081Y-109752135D01*
X184699500Y-109752135D01*
X184699500Y-111547870D01*
X184699501Y-111547876D01*
X184705908Y-111607483D01*
X184756202Y-111742328D01*
X184756206Y-111742335D01*
X184842452Y-111857544D01*
X184842455Y-111857547D01*
X184957664Y-111943793D01*
X184957671Y-111943797D01*
X185092517Y-111994091D01*
X185092516Y-111994091D01*
X185099444Y-111994835D01*
X185152127Y-112000500D01*
X186947872Y-112000499D01*
X187007483Y-111994091D01*
X187142331Y-111943796D01*
X187257546Y-111857546D01*
X187343796Y-111742331D01*
X187394091Y-111607483D01*
X187400500Y-111547873D01*
X187400499Y-109752128D01*
X187394091Y-109692517D01*
X187386375Y-109671830D01*
X187343797Y-109557671D01*
X187343793Y-109557664D01*
X187257547Y-109442455D01*
X187257544Y-109442452D01*
X187142335Y-109356206D01*
X187142328Y-109356202D01*
X187007482Y-109305908D01*
X187007483Y-109305908D01*
X186947883Y-109299501D01*
X186947881Y-109299500D01*
X186947873Y-109299500D01*
X186947864Y-109299500D01*
X185152129Y-109299500D01*
X185152123Y-109299501D01*
X185092516Y-109305908D01*
X184957671Y-109356202D01*
X184957664Y-109356206D01*
X184842455Y-109442452D01*
X184842452Y-109442455D01*
X184756206Y-109557664D01*
X184756202Y-109557671D01*
X184705908Y-109692517D01*
X184699501Y-109752116D01*
X184699501Y-109752123D01*
X184699500Y-109752135D01*
X175172081Y-109752135D01*
X174686819Y-109266873D01*
X174653334Y-109205550D01*
X174650500Y-109179192D01*
X174650500Y-107133753D01*
X184700000Y-107133753D01*
X184700000Y-107346246D01*
X184733242Y-107556127D01*
X184733242Y-107556130D01*
X184798904Y-107758217D01*
X184895375Y-107947550D01*
X184934728Y-108001716D01*
X185567037Y-107369408D01*
X185584075Y-107432993D01*
X185649901Y-107547007D01*
X185742993Y-107640099D01*
X185857007Y-107705925D01*
X185920590Y-107722962D01*
X185288282Y-108355269D01*
X185288282Y-108355270D01*
X185342449Y-108394624D01*
X185531782Y-108491095D01*
X185733870Y-108556757D01*
X185943754Y-108590000D01*
X186156246Y-108590000D01*
X186366127Y-108556757D01*
X186366130Y-108556757D01*
X186568217Y-108491095D01*
X186757554Y-108394622D01*
X186811716Y-108355270D01*
X186811717Y-108355270D01*
X186179408Y-107722962D01*
X186242993Y-107705925D01*
X186357007Y-107640099D01*
X186450099Y-107547007D01*
X186515925Y-107432993D01*
X186532962Y-107369408D01*
X187165270Y-108001717D01*
X187165270Y-108001716D01*
X187204622Y-107947554D01*
X187301095Y-107758217D01*
X187366757Y-107556130D01*
X187366757Y-107556127D01*
X187400000Y-107346246D01*
X187400000Y-107133753D01*
X187366757Y-106923872D01*
X187366757Y-106923869D01*
X187301095Y-106721782D01*
X187204624Y-106532449D01*
X187165270Y-106478282D01*
X187165269Y-106478282D01*
X186532962Y-107110590D01*
X186515925Y-107047007D01*
X186450099Y-106932993D01*
X186357007Y-106839901D01*
X186242993Y-106774075D01*
X186179409Y-106757037D01*
X186811716Y-106124728D01*
X186757550Y-106085375D01*
X186568217Y-105988904D01*
X186366129Y-105923242D01*
X186156246Y-105890000D01*
X185943754Y-105890000D01*
X185733872Y-105923242D01*
X185733869Y-105923242D01*
X185531782Y-105988904D01*
X185342439Y-106085380D01*
X185288282Y-106124727D01*
X185288282Y-106124728D01*
X185920591Y-106757037D01*
X185857007Y-106774075D01*
X185742993Y-106839901D01*
X185649901Y-106932993D01*
X185584075Y-107047007D01*
X185567037Y-107110590D01*
X184934728Y-106478282D01*
X184934727Y-106478282D01*
X184895380Y-106532439D01*
X184798904Y-106721782D01*
X184733242Y-106923869D01*
X184733242Y-106923872D01*
X184700000Y-107133753D01*
X174650500Y-107133753D01*
X174650500Y-104935928D01*
X174625502Y-104810261D01*
X174625501Y-104810260D01*
X174625501Y-104810256D01*
X174576465Y-104691873D01*
X174576464Y-104691872D01*
X174576461Y-104691866D01*
X174505277Y-104585332D01*
X174505276Y-104585331D01*
X174414669Y-104494724D01*
X172817015Y-102897070D01*
X172783530Y-102835747D01*
X172783095Y-102833660D01*
X172769737Y-102766503D01*
X172745599Y-102708230D01*
X172709397Y-102620827D01*
X172709390Y-102620814D01*
X172621789Y-102489711D01*
X172621786Y-102489707D01*
X172510292Y-102378213D01*
X172510288Y-102378210D01*
X172379185Y-102290609D01*
X172379172Y-102290602D01*
X172233501Y-102230264D01*
X172233489Y-102230261D01*
X172078845Y-102199500D01*
X172078842Y-102199500D01*
X171921158Y-102199500D01*
X171921155Y-102199500D01*
X171766510Y-102230261D01*
X171766498Y-102230264D01*
X171620827Y-102290602D01*
X171620814Y-102290609D01*
X171489711Y-102378210D01*
X171489707Y-102378213D01*
X171378213Y-102489707D01*
X171378210Y-102489711D01*
X171290609Y-102620814D01*
X171290602Y-102620827D01*
X171230264Y-102766498D01*
X171230261Y-102766510D01*
X171199500Y-102921153D01*
X144500500Y-102921153D01*
X144500500Y-99652135D01*
X146499500Y-99652135D01*
X146499500Y-101447870D01*
X146499501Y-101447876D01*
X146505908Y-101507483D01*
X146556202Y-101642328D01*
X146556206Y-101642335D01*
X146642452Y-101757544D01*
X146642455Y-101757547D01*
X146757664Y-101843793D01*
X146757671Y-101843797D01*
X146892517Y-101894091D01*
X146892516Y-101894091D01*
X146899444Y-101894835D01*
X146952127Y-101900500D01*
X148747872Y-101900499D01*
X148807483Y-101894091D01*
X148942331Y-101843796D01*
X149057546Y-101757546D01*
X149143796Y-101642331D01*
X149194091Y-101507483D01*
X149200500Y-101447873D01*
X149200499Y-100443713D01*
X149909500Y-100443713D01*
X149909500Y-100656286D01*
X149942753Y-100866239D01*
X150008444Y-101068414D01*
X150104951Y-101257820D01*
X150229890Y-101429786D01*
X150380213Y-101580109D01*
X150552179Y-101705048D01*
X150552181Y-101705049D01*
X150552184Y-101705051D01*
X150741588Y-101801557D01*
X150943757Y-101867246D01*
X151153713Y-101900500D01*
X151153714Y-101900500D01*
X151366286Y-101900500D01*
X151366287Y-101900500D01*
X151576243Y-101867246D01*
X151778412Y-101801557D01*
X151967816Y-101705051D01*
X152054138Y-101642335D01*
X152139786Y-101580109D01*
X152139788Y-101580106D01*
X152139792Y-101580104D01*
X152290104Y-101429792D01*
X152290106Y-101429788D01*
X152290109Y-101429786D01*
X152415048Y-101257820D01*
X152415047Y-101257820D01*
X152415051Y-101257816D01*
X152511557Y-101068412D01*
X152577246Y-100866243D01*
X152610500Y-100656287D01*
X152610500Y-100443713D01*
X152577246Y-100233757D01*
X152511557Y-100031588D01*
X152415051Y-99842184D01*
X152415049Y-99842181D01*
X152415048Y-99842179D01*
X152290109Y-99670213D01*
X152139786Y-99519890D01*
X151967820Y-99394951D01*
X151778414Y-99298444D01*
X151778413Y-99298443D01*
X151778412Y-99298443D01*
X151576243Y-99232754D01*
X151576241Y-99232753D01*
X151576240Y-99232753D01*
X151414957Y-99207208D01*
X151366287Y-99199500D01*
X151153713Y-99199500D01*
X151105042Y-99207208D01*
X150943760Y-99232753D01*
X150741585Y-99298444D01*
X150552179Y-99394951D01*
X150380213Y-99519890D01*
X150229890Y-99670213D01*
X150104951Y-99842179D01*
X150008444Y-100031585D01*
X149942753Y-100233760D01*
X149909500Y-100443713D01*
X149200499Y-100443713D01*
X149200499Y-99652128D01*
X149194091Y-99592517D01*
X149143796Y-99457669D01*
X149143795Y-99457668D01*
X149143793Y-99457664D01*
X149057547Y-99342455D01*
X149057544Y-99342452D01*
X148942335Y-99256206D01*
X148942328Y-99256202D01*
X148807482Y-99205908D01*
X148807483Y-99205908D01*
X148747883Y-99199501D01*
X148747881Y-99199500D01*
X148747873Y-99199500D01*
X148747864Y-99199500D01*
X146952129Y-99199500D01*
X146952123Y-99199501D01*
X146892516Y-99205908D01*
X146757671Y-99256202D01*
X146757664Y-99256206D01*
X146642455Y-99342452D01*
X146642452Y-99342455D01*
X146556206Y-99457664D01*
X146556202Y-99457671D01*
X146505908Y-99592517D01*
X146499501Y-99652116D01*
X146499501Y-99652123D01*
X146499500Y-99652135D01*
X144500500Y-99652135D01*
X144500500Y-91652135D01*
X146499500Y-91652135D01*
X146499500Y-93447870D01*
X146499501Y-93447876D01*
X146505908Y-93507483D01*
X146556202Y-93642328D01*
X146556206Y-93642335D01*
X146642452Y-93757544D01*
X146642455Y-93757547D01*
X146757664Y-93843793D01*
X146757671Y-93843797D01*
X146892517Y-93894091D01*
X146892516Y-93894091D01*
X146899444Y-93894835D01*
X146952127Y-93900500D01*
X148747872Y-93900499D01*
X148807483Y-93894091D01*
X148942331Y-93843796D01*
X149057546Y-93757546D01*
X149143796Y-93642331D01*
X149194091Y-93507483D01*
X149200500Y-93447873D01*
X149200499Y-92443713D01*
X149909500Y-92443713D01*
X149909500Y-92656287D01*
X149919534Y-92719644D01*
X149935557Y-92820808D01*
X149942754Y-92866243D01*
X150002153Y-93049054D01*
X150008444Y-93068414D01*
X150104951Y-93257820D01*
X150229890Y-93429786D01*
X150380213Y-93580109D01*
X150552179Y-93705048D01*
X150552181Y-93705049D01*
X150552184Y-93705051D01*
X150741588Y-93801557D01*
X150943757Y-93867246D01*
X151153713Y-93900500D01*
X151153714Y-93900500D01*
X151366286Y-93900500D01*
X151366287Y-93900500D01*
X151576243Y-93867246D01*
X151778412Y-93801557D01*
X151967816Y-93705051D01*
X152054138Y-93642335D01*
X152139786Y-93580109D01*
X152139788Y-93580106D01*
X152139792Y-93580104D01*
X152290104Y-93429792D01*
X152290106Y-93429788D01*
X152290109Y-93429786D01*
X152415048Y-93257820D01*
X152415047Y-93257820D01*
X152415051Y-93257816D01*
X152511557Y-93068412D01*
X152577246Y-92866243D01*
X152610500Y-92656287D01*
X152610500Y-92443713D01*
X152577246Y-92233757D01*
X152511557Y-92031588D01*
X152415051Y-91842184D01*
X152415049Y-91842181D01*
X152415048Y-91842179D01*
X152290109Y-91670213D01*
X152139786Y-91519890D01*
X151967820Y-91394951D01*
X151778414Y-91298444D01*
X151778413Y-91298443D01*
X151778412Y-91298443D01*
X151576243Y-91232754D01*
X151576241Y-91232753D01*
X151576240Y-91232753D01*
X151414957Y-91207208D01*
X151366287Y-91199500D01*
X151153713Y-91199500D01*
X151105042Y-91207208D01*
X150943760Y-91232753D01*
X150741585Y-91298444D01*
X150552179Y-91394951D01*
X150380213Y-91519890D01*
X150229890Y-91670213D01*
X150104951Y-91842179D01*
X150008444Y-92031585D01*
X149942753Y-92233760D01*
X149930637Y-92310261D01*
X149909500Y-92443713D01*
X149200499Y-92443713D01*
X149200499Y-91652128D01*
X149194091Y-91592517D01*
X149191410Y-91585330D01*
X149143797Y-91457671D01*
X149143793Y-91457664D01*
X149057547Y-91342455D01*
X149057544Y-91342452D01*
X148942335Y-91256206D01*
X148942328Y-91256202D01*
X148807482Y-91205908D01*
X148807483Y-91205908D01*
X148747883Y-91199501D01*
X148747881Y-91199500D01*
X148747873Y-91199500D01*
X148747864Y-91199500D01*
X146952129Y-91199500D01*
X146952123Y-91199501D01*
X146892516Y-91205908D01*
X146757671Y-91256202D01*
X146757664Y-91256206D01*
X146642455Y-91342452D01*
X146642452Y-91342455D01*
X146556206Y-91457664D01*
X146556202Y-91457671D01*
X146505908Y-91592517D01*
X146499501Y-91652116D01*
X146499501Y-91652123D01*
X146499500Y-91652135D01*
X144500500Y-91652135D01*
X144500500Y-51435928D01*
X146129500Y-51435928D01*
X146129500Y-51435931D01*
X146129500Y-81304069D01*
X146144441Y-81379179D01*
X146152498Y-81419687D01*
X146154499Y-81429745D01*
X146184727Y-81502721D01*
X146203535Y-81548127D01*
X146274723Y-81654669D01*
X146274726Y-81654673D01*
X146274727Y-81654674D01*
X147649342Y-83029288D01*
X147682827Y-83090611D01*
X147682319Y-83138755D01*
X147683516Y-83138945D01*
X147649500Y-83353713D01*
X147649500Y-83566286D01*
X147682753Y-83776239D01*
X147748444Y-83978414D01*
X147844951Y-84167820D01*
X147969890Y-84339786D01*
X148120213Y-84490109D01*
X148292182Y-84615050D01*
X148300946Y-84619516D01*
X148351742Y-84667491D01*
X148368536Y-84735312D01*
X148345998Y-84801447D01*
X148300946Y-84840484D01*
X148292182Y-84844949D01*
X148120213Y-84969890D01*
X147969890Y-85120213D01*
X147844951Y-85292179D01*
X147748444Y-85481585D01*
X147682753Y-85683760D01*
X147658681Y-85835745D01*
X147649500Y-85893713D01*
X147649500Y-86106287D01*
X147682754Y-86316243D01*
X147745803Y-86510288D01*
X147748444Y-86518414D01*
X147844951Y-86707820D01*
X147969890Y-86879786D01*
X148120213Y-87030109D01*
X148292179Y-87155048D01*
X148292181Y-87155049D01*
X148292184Y-87155051D01*
X148481588Y-87251557D01*
X148683757Y-87317246D01*
X148893713Y-87350500D01*
X148893714Y-87350500D01*
X149106286Y-87350500D01*
X149106287Y-87350500D01*
X149316243Y-87317246D01*
X149518412Y-87251557D01*
X149707816Y-87155051D01*
X149729789Y-87139086D01*
X149879786Y-87030109D01*
X149879788Y-87030106D01*
X149879792Y-87030104D01*
X150030104Y-86879792D01*
X150030106Y-86879788D01*
X150030109Y-86879786D01*
X150153902Y-86709397D01*
X150155051Y-86707816D01*
X150251557Y-86518412D01*
X150317246Y-86316243D01*
X150350500Y-86106287D01*
X150350500Y-85921153D01*
X168699500Y-85921153D01*
X168699500Y-86078846D01*
X168730261Y-86233489D01*
X168730264Y-86233501D01*
X168790602Y-86379172D01*
X168790609Y-86379185D01*
X168878210Y-86510288D01*
X168878213Y-86510292D01*
X168989707Y-86621786D01*
X168989711Y-86621789D01*
X169120814Y-86709390D01*
X169120827Y-86709397D01*
X169208230Y-86745599D01*
X169266503Y-86769737D01*
X169333580Y-86783079D01*
X169395490Y-86815463D01*
X169397069Y-86817015D01*
X175182983Y-92602928D01*
X175216468Y-92664251D01*
X175216919Y-92666417D01*
X175230261Y-92733491D01*
X175230263Y-92733499D01*
X175290602Y-92879172D01*
X175290609Y-92879185D01*
X175378210Y-93010288D01*
X175378213Y-93010292D01*
X175489707Y-93121786D01*
X175489711Y-93121789D01*
X175620814Y-93209390D01*
X175620827Y-93209397D01*
X175741001Y-93259174D01*
X175766503Y-93269737D01*
X175921153Y-93300499D01*
X175921156Y-93300500D01*
X175921158Y-93300500D01*
X176078844Y-93300500D01*
X176078845Y-93300499D01*
X176233497Y-93269737D01*
X176379179Y-93209394D01*
X176510289Y-93121789D01*
X176621789Y-93010289D01*
X176709394Y-92879179D01*
X176769737Y-92733497D01*
X176800500Y-92578842D01*
X176800500Y-92421158D01*
X176800500Y-92421155D01*
X176800499Y-92421153D01*
X176769738Y-92266510D01*
X176769737Y-92266503D01*
X176738825Y-92191874D01*
X176709397Y-92120827D01*
X176709390Y-92120814D01*
X176621789Y-91989711D01*
X176621786Y-91989707D01*
X176510292Y-91878213D01*
X176510288Y-91878210D01*
X176379185Y-91790609D01*
X176379172Y-91790602D01*
X176233499Y-91730263D01*
X176233491Y-91730261D01*
X176166417Y-91716919D01*
X176104506Y-91684534D01*
X176102928Y-91682983D01*
X170317015Y-85897069D01*
X170283530Y-85835746D01*
X170283093Y-85833652D01*
X170269737Y-85766503D01*
X170233362Y-85678685D01*
X170209397Y-85620827D01*
X170209390Y-85620814D01*
X170121789Y-85489711D01*
X170121786Y-85489707D01*
X170010292Y-85378213D01*
X170010288Y-85378210D01*
X169879185Y-85290609D01*
X169879172Y-85290602D01*
X169733501Y-85230264D01*
X169733489Y-85230261D01*
X169578845Y-85199500D01*
X169578842Y-85199500D01*
X169421158Y-85199500D01*
X169421155Y-85199500D01*
X169266510Y-85230261D01*
X169266498Y-85230264D01*
X169120827Y-85290602D01*
X169120814Y-85290609D01*
X168989711Y-85378210D01*
X168989707Y-85378213D01*
X168878213Y-85489707D01*
X168878210Y-85489711D01*
X168790609Y-85620814D01*
X168790602Y-85620827D01*
X168730264Y-85766498D01*
X168730261Y-85766510D01*
X168699500Y-85921153D01*
X150350500Y-85921153D01*
X150350500Y-85893713D01*
X150341319Y-85835745D01*
X150316484Y-85678945D01*
X150318123Y-85678685D01*
X150321257Y-85616126D01*
X150350655Y-85569289D01*
X154998792Y-80921153D01*
X169699500Y-80921153D01*
X169699500Y-81078846D01*
X169730261Y-81233489D01*
X169730264Y-81233501D01*
X169790602Y-81379172D01*
X169790606Y-81379179D01*
X169828602Y-81436044D01*
X169849480Y-81502721D01*
X169849500Y-81504935D01*
X169849500Y-84564069D01*
X169866494Y-84649500D01*
X169874499Y-84689744D01*
X169923535Y-84808127D01*
X169963420Y-84867820D01*
X169994726Y-84914673D01*
X169994727Y-84914674D01*
X177813181Y-92733127D01*
X177846666Y-92794450D01*
X177849500Y-92820808D01*
X177849500Y-96995064D01*
X177829815Y-97062103D01*
X177828603Y-97063954D01*
X177790608Y-97120817D01*
X177790602Y-97120828D01*
X177730264Y-97266498D01*
X177730261Y-97266510D01*
X177699500Y-97421153D01*
X177699500Y-97578846D01*
X177730261Y-97733489D01*
X177730264Y-97733501D01*
X177790602Y-97879172D01*
X177790609Y-97879185D01*
X177878210Y-98010288D01*
X177878213Y-98010292D01*
X177989707Y-98121786D01*
X177989711Y-98121789D01*
X178120814Y-98209390D01*
X178120827Y-98209397D01*
X178266498Y-98269735D01*
X178266503Y-98269737D01*
X178421153Y-98300499D01*
X178421156Y-98300500D01*
X178421158Y-98300500D01*
X178578844Y-98300500D01*
X178578845Y-98300499D01*
X178733497Y-98269737D01*
X178879179Y-98209394D01*
X179010289Y-98121789D01*
X179121789Y-98010289D01*
X179209394Y-97879179D01*
X179269737Y-97733497D01*
X179300500Y-97578842D01*
X179300500Y-97421158D01*
X179300500Y-97421155D01*
X179300499Y-97421153D01*
X179269738Y-97266510D01*
X179269737Y-97266503D01*
X179209394Y-97120821D01*
X179171396Y-97063953D01*
X179150520Y-96997276D01*
X179150500Y-96995064D01*
X179150500Y-92435928D01*
X179125502Y-92310261D01*
X179125501Y-92310260D01*
X179125501Y-92310256D01*
X179076465Y-92191873D01*
X179028990Y-92120821D01*
X179028990Y-92120820D01*
X179005274Y-92085327D01*
X172841100Y-85921153D01*
X173699500Y-85921153D01*
X173699500Y-86078846D01*
X173730261Y-86233489D01*
X173730264Y-86233501D01*
X173790602Y-86379172D01*
X173790609Y-86379185D01*
X173878210Y-86510288D01*
X173878213Y-86510292D01*
X173989707Y-86621786D01*
X173989711Y-86621789D01*
X174120814Y-86709390D01*
X174120827Y-86709397D01*
X174208230Y-86745599D01*
X174266503Y-86769737D01*
X174333580Y-86783079D01*
X174395490Y-86815463D01*
X174397069Y-86817015D01*
X179813181Y-92233127D01*
X179846666Y-92294450D01*
X179849500Y-92320808D01*
X179849500Y-96995064D01*
X179829815Y-97062103D01*
X179828603Y-97063954D01*
X179790608Y-97120817D01*
X179790602Y-97120828D01*
X179730264Y-97266498D01*
X179730261Y-97266510D01*
X179699500Y-97421153D01*
X179699500Y-97578846D01*
X179730261Y-97733489D01*
X179730264Y-97733501D01*
X179790602Y-97879172D01*
X179790609Y-97879185D01*
X179878210Y-98010288D01*
X179878213Y-98010292D01*
X179989707Y-98121786D01*
X179989711Y-98121789D01*
X180120814Y-98209390D01*
X180120827Y-98209397D01*
X180266498Y-98269735D01*
X180266503Y-98269737D01*
X180421153Y-98300499D01*
X180421156Y-98300500D01*
X180421158Y-98300500D01*
X180578844Y-98300500D01*
X180578845Y-98300499D01*
X180733497Y-98269737D01*
X180879179Y-98209394D01*
X181010289Y-98121789D01*
X181121789Y-98010289D01*
X181209394Y-97879179D01*
X181269737Y-97733497D01*
X181300500Y-97578842D01*
X181300500Y-97421158D01*
X181300500Y-97421155D01*
X181300499Y-97421153D01*
X181269738Y-97266510D01*
X181269737Y-97266503D01*
X181209394Y-97120821D01*
X181171396Y-97063953D01*
X181150520Y-96997276D01*
X181150500Y-96995064D01*
X181150500Y-95331491D01*
X183499500Y-95331491D01*
X183499500Y-95668508D01*
X183537231Y-96003381D01*
X183537233Y-96003397D01*
X183612223Y-96331953D01*
X183612227Y-96331965D01*
X183723532Y-96650054D01*
X183869752Y-96953683D01*
X183919389Y-97032679D01*
X184049054Y-97239039D01*
X184259175Y-97502523D01*
X184497477Y-97740825D01*
X184760961Y-97950946D01*
X185046314Y-98130246D01*
X185349949Y-98276469D01*
X185588848Y-98360063D01*
X185668034Y-98387772D01*
X185668046Y-98387776D01*
X185996606Y-98462767D01*
X186331492Y-98500499D01*
X186331493Y-98500500D01*
X186331496Y-98500500D01*
X186668507Y-98500500D01*
X186668507Y-98500499D01*
X187003394Y-98462767D01*
X187331954Y-98387776D01*
X187650051Y-98276469D01*
X187953686Y-98130246D01*
X188239039Y-97950946D01*
X188502523Y-97740825D01*
X188740825Y-97502523D01*
X188950946Y-97239039D01*
X189130246Y-96953686D01*
X189276469Y-96650051D01*
X189387776Y-96331954D01*
X189462767Y-96003394D01*
X189500500Y-95668504D01*
X189500500Y-95331496D01*
X189500499Y-95331491D01*
X242499500Y-95331491D01*
X242499500Y-95668508D01*
X242537231Y-96003381D01*
X242537233Y-96003397D01*
X242612223Y-96331953D01*
X242612227Y-96331965D01*
X242723532Y-96650054D01*
X242869752Y-96953683D01*
X242919389Y-97032679D01*
X243049054Y-97239039D01*
X243259175Y-97502523D01*
X243497477Y-97740825D01*
X243760961Y-97950946D01*
X244046314Y-98130246D01*
X244349949Y-98276469D01*
X244588848Y-98360063D01*
X244668034Y-98387772D01*
X244668046Y-98387776D01*
X244996606Y-98462767D01*
X245331492Y-98500499D01*
X245331493Y-98500500D01*
X245331496Y-98500500D01*
X245668507Y-98500500D01*
X245668507Y-98500499D01*
X246003394Y-98462767D01*
X246331954Y-98387776D01*
X246650051Y-98276469D01*
X246953686Y-98130246D01*
X247239039Y-97950946D01*
X247502523Y-97740825D01*
X247740825Y-97502523D01*
X247950946Y-97239039D01*
X248130246Y-96953686D01*
X248276469Y-96650051D01*
X248387776Y-96331954D01*
X248462767Y-96003394D01*
X248500500Y-95668504D01*
X248500500Y-95331496D01*
X248462767Y-94996606D01*
X248387776Y-94668046D01*
X248276469Y-94349949D01*
X248130246Y-94046314D01*
X247950946Y-93760961D01*
X247740825Y-93497477D01*
X247502523Y-93259175D01*
X247239039Y-93049054D01*
X246953686Y-92869754D01*
X246953683Y-92869752D01*
X246650054Y-92723532D01*
X246331965Y-92612227D01*
X246331953Y-92612223D01*
X246003397Y-92537233D01*
X246003381Y-92537231D01*
X245668508Y-92499500D01*
X245668504Y-92499500D01*
X245331496Y-92499500D01*
X245331491Y-92499500D01*
X244996618Y-92537231D01*
X244996602Y-92537233D01*
X244668046Y-92612223D01*
X244668034Y-92612227D01*
X244349945Y-92723532D01*
X244046316Y-92869752D01*
X243760962Y-93049053D01*
X243497477Y-93259174D01*
X243259174Y-93497477D01*
X243049053Y-93760962D01*
X242869752Y-94046316D01*
X242723532Y-94349945D01*
X242612227Y-94668034D01*
X242612223Y-94668046D01*
X242537233Y-94996602D01*
X242537231Y-94996618D01*
X242499500Y-95331491D01*
X189500499Y-95331491D01*
X189462767Y-94996606D01*
X189387776Y-94668046D01*
X189276469Y-94349949D01*
X189130246Y-94046314D01*
X188950946Y-93760961D01*
X188740825Y-93497477D01*
X188502523Y-93259175D01*
X188239039Y-93049054D01*
X187953686Y-92869754D01*
X187953683Y-92869752D01*
X187650054Y-92723532D01*
X187331965Y-92612227D01*
X187331953Y-92612223D01*
X187003397Y-92537233D01*
X187003381Y-92537231D01*
X186668508Y-92499500D01*
X186668504Y-92499500D01*
X186331496Y-92499500D01*
X186331491Y-92499500D01*
X185996618Y-92537231D01*
X185996602Y-92537233D01*
X185668046Y-92612223D01*
X185668034Y-92612227D01*
X185349945Y-92723532D01*
X185046316Y-92869752D01*
X184760962Y-93049053D01*
X184497477Y-93259174D01*
X184259174Y-93497477D01*
X184049053Y-93760962D01*
X183869752Y-94046316D01*
X183723532Y-94349945D01*
X183612227Y-94668034D01*
X183612223Y-94668046D01*
X183537233Y-94996602D01*
X183537231Y-94996618D01*
X183499500Y-95331491D01*
X181150500Y-95331491D01*
X181150500Y-91935928D01*
X181125502Y-91810261D01*
X181125501Y-91810260D01*
X181125501Y-91810256D01*
X181076465Y-91691873D01*
X181076464Y-91691871D01*
X181057419Y-91663367D01*
X181057419Y-91663366D01*
X181005279Y-91585334D01*
X181005273Y-91585326D01*
X175317015Y-85897068D01*
X175283530Y-85835745D01*
X175283079Y-85833578D01*
X175269738Y-85766510D01*
X175269737Y-85766503D01*
X175233362Y-85678685D01*
X175209397Y-85620827D01*
X175209390Y-85620814D01*
X175121789Y-85489711D01*
X175121786Y-85489707D01*
X175010292Y-85378213D01*
X175010288Y-85378210D01*
X174879185Y-85290609D01*
X174879172Y-85290602D01*
X174733501Y-85230264D01*
X174733489Y-85230261D01*
X174578845Y-85199500D01*
X174578842Y-85199500D01*
X174421158Y-85199500D01*
X174421155Y-85199500D01*
X174266510Y-85230261D01*
X174266498Y-85230264D01*
X174120827Y-85290602D01*
X174120814Y-85290609D01*
X173989711Y-85378210D01*
X173989707Y-85378213D01*
X173878213Y-85489707D01*
X173878210Y-85489711D01*
X173790609Y-85620814D01*
X173790602Y-85620827D01*
X173730264Y-85766498D01*
X173730261Y-85766510D01*
X173699500Y-85921153D01*
X172841100Y-85921153D01*
X171186819Y-84266872D01*
X171153334Y-84205549D01*
X171150500Y-84179191D01*
X171150500Y-81504935D01*
X171170185Y-81437896D01*
X171171366Y-81436090D01*
X171209394Y-81379179D01*
X171269737Y-81233497D01*
X171300500Y-81078842D01*
X171300500Y-80921158D01*
X171300500Y-80921155D01*
X171300499Y-80921153D01*
X171281104Y-80823650D01*
X171269737Y-80766503D01*
X171258892Y-80740321D01*
X171209397Y-80620827D01*
X171209390Y-80620814D01*
X171121789Y-80489711D01*
X171121786Y-80489707D01*
X171010292Y-80378213D01*
X171010288Y-80378210D01*
X170879185Y-80290609D01*
X170879172Y-80290602D01*
X170733501Y-80230264D01*
X170733489Y-80230261D01*
X170578845Y-80199500D01*
X170578842Y-80199500D01*
X170421158Y-80199500D01*
X170421155Y-80199500D01*
X170266510Y-80230261D01*
X170266498Y-80230264D01*
X170120827Y-80290602D01*
X170120814Y-80290609D01*
X169989711Y-80378210D01*
X169989707Y-80378213D01*
X169878213Y-80489707D01*
X169878210Y-80489711D01*
X169790609Y-80620814D01*
X169790602Y-80620827D01*
X169730264Y-80766498D01*
X169730261Y-80766510D01*
X169699500Y-80921153D01*
X154998792Y-80921153D01*
X157005277Y-78914669D01*
X157076465Y-78808127D01*
X157125501Y-78689744D01*
X157150500Y-78564069D01*
X157150500Y-77004935D01*
X157170185Y-76937896D01*
X157171366Y-76936090D01*
X157209394Y-76879179D01*
X157269737Y-76733497D01*
X157300500Y-76578842D01*
X157300500Y-76421158D01*
X157300500Y-76421155D01*
X157300499Y-76421153D01*
X157269738Y-76266510D01*
X157269737Y-76266503D01*
X157269735Y-76266498D01*
X157209397Y-76120827D01*
X157209390Y-76120814D01*
X157121789Y-75989711D01*
X157121786Y-75989707D01*
X157010292Y-75878213D01*
X157010288Y-75878210D01*
X156879185Y-75790609D01*
X156879172Y-75790602D01*
X156733501Y-75730264D01*
X156733489Y-75730261D01*
X156578845Y-75699500D01*
X156578842Y-75699500D01*
X156421158Y-75699500D01*
X156421155Y-75699500D01*
X156266510Y-75730261D01*
X156266498Y-75730264D01*
X156120827Y-75790602D01*
X156120814Y-75790609D01*
X155989711Y-75878210D01*
X155989707Y-75878213D01*
X155878213Y-75989707D01*
X155878210Y-75989711D01*
X155790609Y-76120814D01*
X155790602Y-76120827D01*
X155730264Y-76266498D01*
X155730261Y-76266510D01*
X155699500Y-76421153D01*
X155699500Y-76578846D01*
X155730261Y-76733489D01*
X155730264Y-76733501D01*
X155790602Y-76879172D01*
X155790606Y-76879179D01*
X155828602Y-76936044D01*
X155849480Y-77002721D01*
X155849500Y-77004935D01*
X155849500Y-78179191D01*
X155829815Y-78246230D01*
X155813181Y-78266872D01*
X150562181Y-83517872D01*
X150500858Y-83551357D01*
X150431166Y-83546373D01*
X150375233Y-83504501D01*
X150350816Y-83439037D01*
X150350500Y-83430191D01*
X150350500Y-83353713D01*
X150317246Y-83143757D01*
X150251557Y-82941588D01*
X150155051Y-82752184D01*
X150155049Y-82752181D01*
X150155048Y-82752179D01*
X150030109Y-82580213D01*
X149879786Y-82429890D01*
X149707820Y-82304951D01*
X149707115Y-82304591D01*
X149699054Y-82300485D01*
X149648259Y-82252512D01*
X149631463Y-82184692D01*
X149653999Y-82118556D01*
X149699054Y-82079515D01*
X149707816Y-82075051D01*
X149729789Y-82059086D01*
X149879786Y-81950109D01*
X149879788Y-81950106D01*
X149879792Y-81950104D01*
X150030104Y-81799792D01*
X150030106Y-81799788D01*
X150030109Y-81799786D01*
X150155048Y-81627820D01*
X150155047Y-81627820D01*
X150155051Y-81627816D01*
X150251557Y-81438412D01*
X150317246Y-81236243D01*
X150350500Y-81026287D01*
X150350500Y-80823650D01*
X150370185Y-80756611D01*
X150386819Y-80735969D01*
X154120623Y-77002165D01*
X154120626Y-77002162D01*
X154213703Y-76862863D01*
X154277815Y-76708082D01*
X154310499Y-76543767D01*
X154310499Y-76376234D01*
X154288674Y-76266510D01*
X154277817Y-76211926D01*
X154277814Y-76211917D01*
X154213704Y-76057139D01*
X154213702Y-76057136D01*
X154120629Y-75917842D01*
X154120623Y-75917834D01*
X154002165Y-75799376D01*
X154002157Y-75799370D01*
X153862863Y-75706297D01*
X153862860Y-75706295D01*
X153708082Y-75642185D01*
X153708073Y-75642182D01*
X153543770Y-75609501D01*
X153543766Y-75609501D01*
X153376233Y-75609501D01*
X153376228Y-75609501D01*
X153211925Y-75642182D01*
X153211916Y-75642185D01*
X153057143Y-75706293D01*
X153057130Y-75706300D01*
X152917838Y-75799373D01*
X152917834Y-75799376D01*
X150562180Y-78155030D01*
X150500857Y-78188515D01*
X150431165Y-78183531D01*
X150375232Y-78141659D01*
X150350815Y-78076195D01*
X150350499Y-78067349D01*
X150350499Y-77482129D01*
X150350498Y-77482123D01*
X150348470Y-77463258D01*
X150344091Y-77422517D01*
X150343072Y-77419786D01*
X150293797Y-77287671D01*
X150293793Y-77287664D01*
X150207547Y-77172455D01*
X150207544Y-77172452D01*
X150092335Y-77086206D01*
X150092328Y-77086202D01*
X149957482Y-77035908D01*
X149957483Y-77035908D01*
X149897883Y-77029501D01*
X149897881Y-77029500D01*
X149897873Y-77029500D01*
X149897864Y-77029500D01*
X148102129Y-77029500D01*
X148102123Y-77029501D01*
X148042516Y-77035908D01*
X147907671Y-77086202D01*
X147907664Y-77086206D01*
X147792455Y-77172452D01*
X147792452Y-77172455D01*
X147706206Y-77287664D01*
X147706202Y-77287671D01*
X147670682Y-77382907D01*
X147628811Y-77438841D01*
X147563346Y-77463258D01*
X147495074Y-77448406D01*
X147445668Y-77399001D01*
X147430500Y-77339574D01*
X147430500Y-64921153D01*
X152699500Y-64921153D01*
X152699500Y-65078846D01*
X152730261Y-65233489D01*
X152730264Y-65233501D01*
X152790602Y-65379172D01*
X152790606Y-65379179D01*
X152828602Y-65436044D01*
X152849480Y-65502721D01*
X152849500Y-65504935D01*
X152849500Y-67995064D01*
X152829815Y-68062103D01*
X152828603Y-68063954D01*
X152790608Y-68120817D01*
X152790602Y-68120828D01*
X152730264Y-68266498D01*
X152730261Y-68266510D01*
X152699500Y-68421153D01*
X152699500Y-68578846D01*
X152730261Y-68733489D01*
X152730264Y-68733501D01*
X152790602Y-68879172D01*
X152790609Y-68879185D01*
X152878210Y-69010288D01*
X152878213Y-69010292D01*
X152989707Y-69121786D01*
X152989711Y-69121789D01*
X153120814Y-69209390D01*
X153120827Y-69209397D01*
X153266498Y-69269735D01*
X153266503Y-69269737D01*
X153421153Y-69300499D01*
X153421156Y-69300500D01*
X153421158Y-69300500D01*
X153578844Y-69300500D01*
X153578845Y-69300499D01*
X153733497Y-69269737D01*
X153879179Y-69209394D01*
X154010289Y-69121789D01*
X154121789Y-69010289D01*
X154209394Y-68879179D01*
X154269737Y-68733497D01*
X154300500Y-68578842D01*
X154300500Y-68421158D01*
X154300500Y-68421155D01*
X154300499Y-68421153D01*
X154269738Y-68266510D01*
X154269737Y-68266505D01*
X154269737Y-68266503D01*
X154267382Y-68260819D01*
X154259911Y-68191353D01*
X154291183Y-68128872D01*
X154294233Y-68125711D01*
X155733126Y-66686819D01*
X155794449Y-66653334D01*
X155820807Y-66650500D01*
X156179192Y-66650500D01*
X156246231Y-66670185D01*
X156266873Y-66686819D01*
X162085324Y-72505271D01*
X162085331Y-72505277D01*
X162191871Y-72576464D01*
X162191870Y-72576464D01*
X162226544Y-72590826D01*
X162310256Y-72625501D01*
X162310260Y-72625501D01*
X162310261Y-72625502D01*
X162435928Y-72650500D01*
X162435931Y-72650500D01*
X163064071Y-72650500D01*
X163148615Y-72633682D01*
X163189744Y-72625501D01*
X163308127Y-72576465D01*
X163414669Y-72505277D01*
X163602932Y-72317012D01*
X163664251Y-72283530D01*
X163666316Y-72283099D01*
X163733497Y-72269737D01*
X163879179Y-72209394D01*
X164010289Y-72121789D01*
X164121789Y-72010289D01*
X164209394Y-71879179D01*
X164269737Y-71733497D01*
X164300500Y-71578842D01*
X164300500Y-71421158D01*
X164300500Y-71421155D01*
X164300499Y-71421153D01*
X164269738Y-71266510D01*
X164269737Y-71266503D01*
X164218896Y-71143760D01*
X164209397Y-71120827D01*
X164209390Y-71120814D01*
X164121789Y-70989711D01*
X164121786Y-70989707D01*
X164010292Y-70878213D01*
X164010288Y-70878210D01*
X163879185Y-70790609D01*
X163879172Y-70790602D01*
X163733501Y-70730264D01*
X163733489Y-70730261D01*
X163578845Y-70699500D01*
X163578842Y-70699500D01*
X163421158Y-70699500D01*
X163421155Y-70699500D01*
X163266510Y-70730261D01*
X163266498Y-70730264D01*
X163120827Y-70790602D01*
X163120814Y-70790609D01*
X162989711Y-70878210D01*
X162989707Y-70878213D01*
X162878213Y-70989707D01*
X162878210Y-70989711D01*
X162790609Y-71120814D01*
X162790602Y-71120828D01*
X162788444Y-71126038D01*
X162744600Y-71180438D01*
X162678304Y-71202499D01*
X162610606Y-71185216D01*
X162586205Y-71166259D01*
X156914674Y-65494727D01*
X156914673Y-65494726D01*
X156914669Y-65494723D01*
X156808127Y-65423535D01*
X156808122Y-65423533D01*
X156689744Y-65374499D01*
X156689738Y-65374497D01*
X156564071Y-65349500D01*
X156564069Y-65349500D01*
X155435931Y-65349500D01*
X155435929Y-65349500D01*
X155310261Y-65374497D01*
X155310255Y-65374499D01*
X155191875Y-65423533D01*
X155191866Y-65423538D01*
X155085331Y-65494723D01*
X155085327Y-65494726D01*
X154362181Y-66217873D01*
X154300858Y-66251358D01*
X154231166Y-66246374D01*
X154175233Y-66204502D01*
X154150816Y-66139038D01*
X154150500Y-66130192D01*
X154150500Y-65504935D01*
X154170185Y-65437896D01*
X154171366Y-65436090D01*
X154209394Y-65379179D01*
X154269737Y-65233497D01*
X154300500Y-65078842D01*
X154300500Y-64921158D01*
X154300500Y-64921155D01*
X154300499Y-64921153D01*
X154269738Y-64766510D01*
X154269737Y-64766503D01*
X154250389Y-64719792D01*
X154209397Y-64620827D01*
X154209390Y-64620814D01*
X154121789Y-64489711D01*
X154121786Y-64489707D01*
X154010292Y-64378213D01*
X154010288Y-64378210D01*
X153879185Y-64290609D01*
X153879172Y-64290602D01*
X153733501Y-64230264D01*
X153733489Y-64230261D01*
X153578845Y-64199500D01*
X153578842Y-64199500D01*
X153421158Y-64199500D01*
X153421155Y-64199500D01*
X153266510Y-64230261D01*
X153266498Y-64230264D01*
X153120827Y-64290602D01*
X153120814Y-64290609D01*
X152989711Y-64378210D01*
X152989707Y-64378213D01*
X152878213Y-64489707D01*
X152878210Y-64489711D01*
X152790609Y-64620814D01*
X152790602Y-64620827D01*
X152730264Y-64766498D01*
X152730261Y-64766510D01*
X152699500Y-64921153D01*
X147430500Y-64921153D01*
X147430500Y-51820807D01*
X147450185Y-51753768D01*
X147466815Y-51733130D01*
X147637820Y-51562125D01*
X147699142Y-51528641D01*
X147768834Y-51533625D01*
X147824767Y-51575497D01*
X147849184Y-51640961D01*
X147849500Y-51649807D01*
X147849500Y-51726286D01*
X147879585Y-51916239D01*
X147882754Y-51936243D01*
X147941945Y-52118414D01*
X147948444Y-52138414D01*
X148044951Y-52327820D01*
X148169890Y-52499786D01*
X148320213Y-52650109D01*
X148492182Y-52775050D01*
X148500946Y-52779516D01*
X148551742Y-52827491D01*
X148568536Y-52895312D01*
X148545998Y-52961447D01*
X148500946Y-53000484D01*
X148492182Y-53004949D01*
X148320213Y-53129890D01*
X148169890Y-53280213D01*
X148044951Y-53452179D01*
X147948444Y-53641585D01*
X147882753Y-53843760D01*
X147849500Y-54053713D01*
X147849500Y-54266286D01*
X147879585Y-54456239D01*
X147882754Y-54476243D01*
X147941945Y-54658414D01*
X147948444Y-54678414D01*
X148044951Y-54867820D01*
X148169890Y-55039786D01*
X148320213Y-55190109D01*
X148492179Y-55315048D01*
X148492181Y-55315049D01*
X148492184Y-55315051D01*
X148501493Y-55319794D01*
X148552290Y-55367766D01*
X148569087Y-55435587D01*
X148546552Y-55501722D01*
X148501502Y-55540762D01*
X148492443Y-55545378D01*
X148320540Y-55670272D01*
X148320535Y-55670276D01*
X148170276Y-55820535D01*
X148170272Y-55820540D01*
X148045379Y-55992442D01*
X147948904Y-56181782D01*
X147883242Y-56383870D01*
X147883242Y-56383873D01*
X147872769Y-56450000D01*
X148766988Y-56450000D01*
X148734075Y-56507007D01*
X148700000Y-56634174D01*
X148700000Y-56765826D01*
X148734075Y-56892993D01*
X148766988Y-56950000D01*
X147872769Y-56950000D01*
X147883242Y-57016126D01*
X147883242Y-57016129D01*
X147948904Y-57218217D01*
X148045379Y-57407557D01*
X148170272Y-57579459D01*
X148170276Y-57579464D01*
X148320535Y-57729723D01*
X148320540Y-57729727D01*
X148492442Y-57854620D01*
X148681782Y-57951095D01*
X148883871Y-58016757D01*
X148950000Y-58027231D01*
X148950000Y-57133012D01*
X149007007Y-57165925D01*
X149134174Y-57200000D01*
X149265826Y-57200000D01*
X149392993Y-57165925D01*
X149450000Y-57133012D01*
X149450000Y-58027230D01*
X149516126Y-58016757D01*
X149516129Y-58016757D01*
X149718217Y-57951095D01*
X149907557Y-57854620D01*
X150079459Y-57729727D01*
X150079464Y-57729723D01*
X150229723Y-57579464D01*
X150229727Y-57579459D01*
X150354620Y-57407557D01*
X150451095Y-57218217D01*
X150516757Y-57016129D01*
X150516757Y-57016126D01*
X150527231Y-56950000D01*
X149633012Y-56950000D01*
X149665925Y-56892993D01*
X149700000Y-56765826D01*
X149700000Y-56634174D01*
X149665925Y-56507007D01*
X149633012Y-56450000D01*
X150527231Y-56450000D01*
X150516757Y-56383873D01*
X150516757Y-56383870D01*
X150451095Y-56181782D01*
X150354620Y-55992442D01*
X150229727Y-55820540D01*
X150229723Y-55820535D01*
X150079464Y-55670276D01*
X150079459Y-55670272D01*
X149907555Y-55545377D01*
X149898500Y-55540763D01*
X149847706Y-55492788D01*
X149830912Y-55424966D01*
X149853451Y-55358832D01*
X149898508Y-55319793D01*
X149907816Y-55315051D01*
X150025082Y-55229853D01*
X150079786Y-55190109D01*
X150079788Y-55190106D01*
X150079792Y-55190104D01*
X150230104Y-55039792D01*
X150230106Y-55039788D01*
X150230109Y-55039786D01*
X150355048Y-54867820D01*
X150355047Y-54867820D01*
X150355051Y-54867816D01*
X150451557Y-54678412D01*
X150517246Y-54476243D01*
X150550500Y-54266287D01*
X150550500Y-54189808D01*
X150570185Y-54122769D01*
X150622989Y-54077014D01*
X150692147Y-54067070D01*
X150755703Y-54096095D01*
X150762181Y-54102127D01*
X151313181Y-54653127D01*
X151346666Y-54714450D01*
X151349500Y-54740808D01*
X151349500Y-57147792D01*
X151359885Y-57200000D01*
X151369852Y-57250104D01*
X151374499Y-57273465D01*
X151423535Y-57391848D01*
X151494723Y-57498390D01*
X151494726Y-57498394D01*
X151494727Y-57498395D01*
X156182984Y-62186651D01*
X156216469Y-62247974D01*
X156216920Y-62250141D01*
X156230261Y-62317210D01*
X156230264Y-62317222D01*
X156290602Y-62462893D01*
X156290609Y-62462906D01*
X156378210Y-62594009D01*
X156378213Y-62594013D01*
X156489707Y-62705507D01*
X156489711Y-62705510D01*
X156620814Y-62793111D01*
X156620827Y-62793118D01*
X156766498Y-62853456D01*
X156766503Y-62853458D01*
X156921153Y-62884220D01*
X156921156Y-62884221D01*
X156921158Y-62884221D01*
X157078844Y-62884221D01*
X157078845Y-62884220D01*
X157233497Y-62853458D01*
X157379179Y-62793115D01*
X157510289Y-62705510D01*
X157621789Y-62594010D01*
X157709394Y-62462900D01*
X157769737Y-62317218D01*
X157800500Y-62162563D01*
X157800500Y-62004879D01*
X157800500Y-62004876D01*
X157800499Y-62004874D01*
X157782556Y-61914669D01*
X157769737Y-61850224D01*
X157752300Y-61808127D01*
X157709397Y-61704548D01*
X157709390Y-61704535D01*
X157621789Y-61573432D01*
X157621786Y-61573428D01*
X157510292Y-61461934D01*
X157510288Y-61461931D01*
X157379185Y-61374330D01*
X157379172Y-61374323D01*
X157233501Y-61313985D01*
X157233489Y-61313982D01*
X157166420Y-61300641D01*
X157104509Y-61268256D01*
X157102930Y-61266705D01*
X152686819Y-56850594D01*
X152653334Y-56789271D01*
X152650500Y-56762913D01*
X152650500Y-54355928D01*
X152625502Y-54230261D01*
X152625501Y-54230260D01*
X152625501Y-54230256D01*
X152576465Y-54111873D01*
X152552807Y-54076466D01*
X152552807Y-54076465D01*
X152505275Y-54005328D01*
X152505272Y-54005325D01*
X150550657Y-52050711D01*
X150517172Y-51989388D01*
X150517689Y-51941245D01*
X150516484Y-51941055D01*
X150545114Y-51760292D01*
X150550500Y-51726287D01*
X150550500Y-51513713D01*
X150517246Y-51303757D01*
X150451557Y-51101588D01*
X150355051Y-50912184D01*
X150355049Y-50912181D01*
X150355048Y-50912179D01*
X150230109Y-50740213D01*
X150079786Y-50589890D01*
X149907820Y-50464951D01*
X149907115Y-50464591D01*
X149899054Y-50460485D01*
X149848259Y-50412512D01*
X149831463Y-50344692D01*
X149853999Y-50278556D01*
X149899054Y-50239515D01*
X149907816Y-50235051D01*
X149935348Y-50215048D01*
X150079786Y-50110109D01*
X150079788Y-50110106D01*
X150079792Y-50110104D01*
X150230104Y-49959792D01*
X150230106Y-49959788D01*
X150230109Y-49959786D01*
X150353827Y-49789501D01*
X150355051Y-49787816D01*
X150451557Y-49598412D01*
X150517246Y-49396243D01*
X150550500Y-49186287D01*
X150550500Y-49109808D01*
X150570185Y-49042769D01*
X150622989Y-48997014D01*
X150692147Y-48987070D01*
X150755703Y-49016095D01*
X150762181Y-49022127D01*
X153408181Y-51668127D01*
X153441666Y-51729450D01*
X153444500Y-51755808D01*
X153444500Y-55159070D01*
X153456521Y-55219499D01*
X153456521Y-55219501D01*
X153465870Y-55266503D01*
X153469499Y-55284744D01*
X153518535Y-55403127D01*
X153589723Y-55509669D01*
X153682985Y-55602931D01*
X153716469Y-55664252D01*
X153716920Y-55666420D01*
X153730261Y-55733489D01*
X153730264Y-55733501D01*
X153790602Y-55879172D01*
X153790609Y-55879185D01*
X153878210Y-56010288D01*
X153878213Y-56010292D01*
X153989707Y-56121786D01*
X153989711Y-56121789D01*
X154120814Y-56209390D01*
X154120827Y-56209397D01*
X154194013Y-56239711D01*
X154266503Y-56269737D01*
X154418147Y-56299901D01*
X154421153Y-56300499D01*
X154421156Y-56300500D01*
X154421158Y-56300500D01*
X154578844Y-56300500D01*
X154578845Y-56300499D01*
X154733497Y-56269737D01*
X154879179Y-56209394D01*
X155010289Y-56121789D01*
X155121789Y-56010289D01*
X155209394Y-55879179D01*
X155269737Y-55733497D01*
X155300500Y-55578842D01*
X155300500Y-55421158D01*
X155300500Y-55421155D01*
X155300499Y-55421153D01*
X155296913Y-55403125D01*
X155269737Y-55266503D01*
X155269735Y-55266498D01*
X155209397Y-55120827D01*
X155209390Y-55120814D01*
X155121789Y-54989711D01*
X155121786Y-54989707D01*
X155010292Y-54878213D01*
X155010288Y-54878210D01*
X154879185Y-54790609D01*
X154879170Y-54790601D01*
X154822046Y-54766939D01*
X154767643Y-54723098D01*
X154745579Y-54656803D01*
X154745500Y-54652379D01*
X154745500Y-51370928D01*
X154720502Y-51245261D01*
X154720501Y-51245260D01*
X154720501Y-51245256D01*
X154671465Y-51126873D01*
X154641207Y-51081588D01*
X154641207Y-51081587D01*
X154600279Y-51020334D01*
X154600273Y-51020326D01*
X150550657Y-46970711D01*
X150517172Y-46909388D01*
X150517689Y-46861245D01*
X150516484Y-46861055D01*
X150550500Y-46646286D01*
X150550500Y-46433713D01*
X150547332Y-46413713D01*
X150517246Y-46223757D01*
X150451557Y-46021588D01*
X150355051Y-45832184D01*
X150355049Y-45832181D01*
X150355048Y-45832179D01*
X150230109Y-45660213D01*
X150116569Y-45546673D01*
X150083084Y-45485350D01*
X150088068Y-45415658D01*
X150129940Y-45359725D01*
X150160915Y-45342810D01*
X150292331Y-45293796D01*
X150407546Y-45207546D01*
X150493796Y-45092331D01*
X150544091Y-44957483D01*
X150550500Y-44897873D01*
X150550499Y-44029806D01*
X150570183Y-43962768D01*
X150622987Y-43917013D01*
X150692146Y-43907069D01*
X150755702Y-43936094D01*
X150762180Y-43942126D01*
X160313181Y-53493127D01*
X160346666Y-53554450D01*
X160349500Y-53580808D01*
X160349500Y-59227647D01*
X160346325Y-59238458D01*
X160347530Y-59249663D01*
X160336657Y-59271383D01*
X160329815Y-59294686D01*
X160321299Y-59302064D01*
X160316255Y-59312142D01*
X160295365Y-59324536D01*
X160277011Y-59340441D01*
X160265858Y-59342044D01*
X160256167Y-59347795D01*
X160231893Y-59346928D01*
X160207853Y-59350385D01*
X160197603Y-59345704D01*
X160186341Y-59345302D01*
X160166388Y-59331449D01*
X160144297Y-59321360D01*
X160136715Y-59310846D01*
X160128949Y-59305454D01*
X160110939Y-59275100D01*
X160093879Y-59233914D01*
X160093879Y-59233913D01*
X160076469Y-59191881D01*
X160076468Y-59191880D01*
X160076466Y-59191874D01*
X160005277Y-59085331D01*
X160005272Y-59085325D01*
X159186819Y-58266872D01*
X159153334Y-58205549D01*
X159150500Y-58179191D01*
X159150500Y-53435928D01*
X159125502Y-53310261D01*
X159125501Y-53310260D01*
X159125501Y-53310256D01*
X159090301Y-53225276D01*
X159090300Y-53225273D01*
X159076468Y-53191878D01*
X159076462Y-53191868D01*
X159005278Y-53085332D01*
X159005272Y-53085325D01*
X157067014Y-51147068D01*
X157033529Y-51085745D01*
X157033105Y-51083714D01*
X157019737Y-51016503D01*
X156983830Y-50929815D01*
X156959397Y-50870827D01*
X156959390Y-50870814D01*
X156871789Y-50739711D01*
X156871786Y-50739707D01*
X156760292Y-50628213D01*
X156760288Y-50628210D01*
X156629185Y-50540609D01*
X156629172Y-50540602D01*
X156483501Y-50480264D01*
X156483489Y-50480261D01*
X156328845Y-50449500D01*
X156328842Y-50449500D01*
X156171158Y-50449500D01*
X156171155Y-50449500D01*
X156016510Y-50480261D01*
X156016498Y-50480264D01*
X155870827Y-50540602D01*
X155870814Y-50540609D01*
X155739711Y-50628210D01*
X155739707Y-50628213D01*
X155628213Y-50739707D01*
X155628210Y-50739711D01*
X155540609Y-50870814D01*
X155540602Y-50870827D01*
X155480264Y-51016498D01*
X155480261Y-51016510D01*
X155449500Y-51171153D01*
X155449500Y-51328846D01*
X155480261Y-51483489D01*
X155480264Y-51483501D01*
X155540602Y-51629172D01*
X155540609Y-51629185D01*
X155628210Y-51760288D01*
X155628213Y-51760292D01*
X155739707Y-51871786D01*
X155739711Y-51871789D01*
X155870814Y-51959390D01*
X155870827Y-51959397D01*
X155918601Y-51979185D01*
X156016503Y-52019737D01*
X156083580Y-52033079D01*
X156145490Y-52065463D01*
X156147069Y-52067015D01*
X157813181Y-53733127D01*
X157846666Y-53794450D01*
X157849500Y-53820808D01*
X157849500Y-58564070D01*
X157861720Y-58625500D01*
X157861720Y-58625502D01*
X157874497Y-58689736D01*
X157874499Y-58689744D01*
X157923534Y-58808125D01*
X157994726Y-58914673D01*
X157994727Y-58914674D01*
X158813181Y-59733127D01*
X158846666Y-59794450D01*
X158849500Y-59820808D01*
X158849500Y-64064070D01*
X158862980Y-64131834D01*
X158862980Y-64131836D01*
X158874497Y-64189736D01*
X158874499Y-64189744D01*
X158916277Y-64290606D01*
X158923535Y-64308127D01*
X158994719Y-64414663D01*
X158994724Y-64414670D01*
X158994727Y-64414674D01*
X164813181Y-70233127D01*
X164846666Y-70294450D01*
X164849500Y-70320808D01*
X164849500Y-73995064D01*
X164829815Y-74062103D01*
X164828603Y-74063954D01*
X164790608Y-74120817D01*
X164790602Y-74120828D01*
X164730264Y-74266498D01*
X164730261Y-74266510D01*
X164699500Y-74421153D01*
X164699500Y-74578846D01*
X164730261Y-74733489D01*
X164730264Y-74733501D01*
X164790602Y-74879172D01*
X164790609Y-74879185D01*
X164878210Y-75010288D01*
X164878213Y-75010292D01*
X164989707Y-75121786D01*
X164989711Y-75121789D01*
X165120814Y-75209390D01*
X165120827Y-75209397D01*
X165222612Y-75251557D01*
X165266503Y-75269737D01*
X165421153Y-75300499D01*
X165421156Y-75300500D01*
X165421158Y-75300500D01*
X165578844Y-75300500D01*
X165578845Y-75300499D01*
X165733497Y-75269737D01*
X165879179Y-75209394D01*
X166010289Y-75121789D01*
X166121789Y-75010289D01*
X166209394Y-74879179D01*
X166269737Y-74733497D01*
X166300500Y-74578842D01*
X166300500Y-74421158D01*
X166300500Y-74421155D01*
X166300499Y-74421153D01*
X166279630Y-74316239D01*
X166269737Y-74266503D01*
X166209394Y-74120821D01*
X166171396Y-74063953D01*
X166150520Y-73997276D01*
X166150500Y-73995064D01*
X166150500Y-69935928D01*
X166125502Y-69810261D01*
X166125501Y-69810260D01*
X166125501Y-69810256D01*
X166076465Y-69691873D01*
X166033664Y-69627816D01*
X166033664Y-69627815D01*
X166005279Y-69585334D01*
X166005273Y-69585326D01*
X160186819Y-63766872D01*
X160153334Y-63705549D01*
X160150500Y-63679191D01*
X160150500Y-61772352D01*
X160170185Y-61705313D01*
X160222989Y-61659558D01*
X160292147Y-61649614D01*
X160355703Y-61678639D01*
X160389061Y-61724900D01*
X160423532Y-61808123D01*
X160494726Y-61914673D01*
X160494727Y-61914674D01*
X167182984Y-68602930D01*
X167216469Y-68664253D01*
X167216920Y-68666420D01*
X167230261Y-68733489D01*
X167230264Y-68733501D01*
X167290602Y-68879172D01*
X167290609Y-68879185D01*
X167378210Y-69010288D01*
X167378213Y-69010292D01*
X167489707Y-69121786D01*
X167489711Y-69121789D01*
X167620814Y-69209390D01*
X167620827Y-69209397D01*
X167766498Y-69269735D01*
X167766503Y-69269737D01*
X167921153Y-69300499D01*
X167921156Y-69300500D01*
X167921158Y-69300500D01*
X168078844Y-69300500D01*
X168078845Y-69300499D01*
X168233497Y-69269737D01*
X168379179Y-69209394D01*
X168510289Y-69121789D01*
X168621789Y-69010289D01*
X168709394Y-68879179D01*
X168769737Y-68733497D01*
X168800500Y-68578842D01*
X168800500Y-68421158D01*
X168800500Y-68421155D01*
X168800499Y-68421153D01*
X168769738Y-68266510D01*
X168769737Y-68266505D01*
X168769737Y-68266503D01*
X168747238Y-68212184D01*
X168709397Y-68120827D01*
X168709390Y-68120814D01*
X168621789Y-67989711D01*
X168621786Y-67989707D01*
X168510292Y-67878213D01*
X168510288Y-67878210D01*
X168379185Y-67790609D01*
X168379172Y-67790602D01*
X168233501Y-67730264D01*
X168233489Y-67730261D01*
X168166420Y-67716920D01*
X168104509Y-67684535D01*
X168102930Y-67682984D01*
X161686819Y-61266873D01*
X161653334Y-61205550D01*
X161650500Y-61179192D01*
X161650500Y-53195928D01*
X161625502Y-53070261D01*
X161625501Y-53070260D01*
X161625501Y-53070256D01*
X161576465Y-52951873D01*
X161576464Y-52951872D01*
X161576460Y-52951864D01*
X161553329Y-52917247D01*
X161553327Y-52917245D01*
X161535123Y-52890000D01*
X161505277Y-52845331D01*
X161505275Y-52845329D01*
X161505273Y-52845326D01*
X161505272Y-52845325D01*
X150550657Y-41890711D01*
X150517172Y-41829388D01*
X150517689Y-41781245D01*
X150516484Y-41781055D01*
X150550500Y-41566286D01*
X150550500Y-41489807D01*
X150570185Y-41422768D01*
X150622989Y-41377013D01*
X150692147Y-41367069D01*
X150755703Y-41396094D01*
X150762166Y-41402112D01*
X156450159Y-47090104D01*
X162313181Y-52953126D01*
X162346666Y-53014449D01*
X162349500Y-53040807D01*
X162349500Y-60564069D01*
X162355093Y-60592184D01*
X162355093Y-60592186D01*
X162374497Y-60689736D01*
X162374499Y-60689744D01*
X162416277Y-60790606D01*
X162423535Y-60808127D01*
X162494723Y-60914669D01*
X162494726Y-60914673D01*
X162494727Y-60914674D01*
X170182984Y-68602930D01*
X170216469Y-68664253D01*
X170216920Y-68666420D01*
X170230261Y-68733489D01*
X170230264Y-68733501D01*
X170290602Y-68879172D01*
X170290609Y-68879185D01*
X170378210Y-69010288D01*
X170378213Y-69010292D01*
X170489707Y-69121786D01*
X170489711Y-69121789D01*
X170620814Y-69209390D01*
X170620827Y-69209397D01*
X170766498Y-69269735D01*
X170766503Y-69269737D01*
X170921153Y-69300499D01*
X170921156Y-69300500D01*
X170921158Y-69300500D01*
X171078844Y-69300500D01*
X171078845Y-69300499D01*
X171233497Y-69269737D01*
X171379179Y-69209394D01*
X171510289Y-69121789D01*
X171621789Y-69010289D01*
X171709394Y-68879179D01*
X171769737Y-68733497D01*
X171800500Y-68578842D01*
X171800500Y-68421158D01*
X171800500Y-68421155D01*
X171800499Y-68421153D01*
X176199500Y-68421153D01*
X176199500Y-68578846D01*
X176230261Y-68733489D01*
X176230264Y-68733501D01*
X176290602Y-68879172D01*
X176290606Y-68879179D01*
X176328602Y-68936044D01*
X176349480Y-69002721D01*
X176349500Y-69004935D01*
X176349500Y-70104070D01*
X176362925Y-70171557D01*
X176362925Y-70171559D01*
X176374497Y-70229736D01*
X176374499Y-70229744D01*
X176403800Y-70300484D01*
X176423535Y-70348127D01*
X176494723Y-70454669D01*
X176494726Y-70454673D01*
X176494727Y-70454674D01*
X182149342Y-76109287D01*
X182182827Y-76170610D01*
X182182321Y-76218755D01*
X182183516Y-76218945D01*
X182149500Y-76433713D01*
X182149500Y-76646286D01*
X182163311Y-76733489D01*
X182182754Y-76856243D01*
X182241131Y-77035909D01*
X182248444Y-77058414D01*
X182344951Y-77247820D01*
X182469890Y-77419786D01*
X182620213Y-77570109D01*
X182792182Y-77695050D01*
X182800946Y-77699516D01*
X182851742Y-77747491D01*
X182868536Y-77815312D01*
X182845998Y-77881447D01*
X182800946Y-77920484D01*
X182792182Y-77924949D01*
X182620213Y-78049890D01*
X182469890Y-78200213D01*
X182344951Y-78372179D01*
X182248444Y-78561585D01*
X182182753Y-78763760D01*
X182149500Y-78973713D01*
X182149500Y-79186286D01*
X182179720Y-79377092D01*
X182182754Y-79396243D01*
X182244912Y-79587546D01*
X182248444Y-79598414D01*
X182344951Y-79787820D01*
X182469890Y-79959786D01*
X182620213Y-80110109D01*
X182792182Y-80235050D01*
X182800946Y-80239516D01*
X182851742Y-80287491D01*
X182868536Y-80355312D01*
X182845998Y-80421447D01*
X182800946Y-80460484D01*
X182792182Y-80464949D01*
X182620213Y-80589890D01*
X182469890Y-80740213D01*
X182344951Y-80912179D01*
X182248444Y-81101585D01*
X182182753Y-81303760D01*
X182161426Y-81438414D01*
X182149500Y-81513713D01*
X182149500Y-81726287D01*
X182182754Y-81936243D01*
X182241991Y-82118556D01*
X182248444Y-82138414D01*
X182344951Y-82327820D01*
X182469890Y-82499786D01*
X182620213Y-82650109D01*
X182792182Y-82775050D01*
X182800946Y-82779516D01*
X182851742Y-82827491D01*
X182868536Y-82895312D01*
X182845998Y-82961447D01*
X182800946Y-83000484D01*
X182792182Y-83004949D01*
X182620213Y-83129890D01*
X182469890Y-83280213D01*
X182344951Y-83452179D01*
X182248444Y-83641585D01*
X182182753Y-83843760D01*
X182161426Y-83978414D01*
X182149500Y-84053713D01*
X182149500Y-84266287D01*
X182182754Y-84476243D01*
X182229306Y-84619516D01*
X182248444Y-84678414D01*
X182344951Y-84867820D01*
X182469890Y-85039786D01*
X182620213Y-85190109D01*
X182792182Y-85315050D01*
X182800946Y-85319516D01*
X182851742Y-85367491D01*
X182868536Y-85435312D01*
X182845998Y-85501447D01*
X182800946Y-85540484D01*
X182792182Y-85544949D01*
X182620213Y-85669890D01*
X182469890Y-85820213D01*
X182344951Y-85992179D01*
X182248444Y-86181585D01*
X182182753Y-86383760D01*
X182161426Y-86518414D01*
X182149500Y-86593713D01*
X182149500Y-86806287D01*
X182182754Y-87016243D01*
X182187259Y-87030109D01*
X182248444Y-87218414D01*
X182344951Y-87407820D01*
X182469890Y-87579786D01*
X182620213Y-87730109D01*
X182792182Y-87855050D01*
X182800946Y-87859516D01*
X182851742Y-87907491D01*
X182868536Y-87975312D01*
X182845998Y-88041447D01*
X182800946Y-88080484D01*
X182792182Y-88084949D01*
X182620213Y-88209890D01*
X182469890Y-88360213D01*
X182344951Y-88532179D01*
X182248444Y-88721585D01*
X182182753Y-88923760D01*
X182149500Y-89133713D01*
X182149500Y-89346286D01*
X182182753Y-89556239D01*
X182248444Y-89758414D01*
X182344951Y-89947820D01*
X182469890Y-90119786D01*
X182620213Y-90270109D01*
X182792179Y-90395048D01*
X182792181Y-90395049D01*
X182792184Y-90395051D01*
X182981588Y-90491557D01*
X183183757Y-90557246D01*
X183393713Y-90590500D01*
X183393714Y-90590500D01*
X183606286Y-90590500D01*
X183606287Y-90590500D01*
X183816243Y-90557246D01*
X184018412Y-90491557D01*
X184207816Y-90395051D01*
X184229789Y-90379086D01*
X184379786Y-90270109D01*
X184379788Y-90270106D01*
X184379792Y-90270104D01*
X184530104Y-90119792D01*
X184530106Y-90119788D01*
X184530109Y-90119786D01*
X184655048Y-89947820D01*
X184655047Y-89947820D01*
X184655051Y-89947816D01*
X184751557Y-89758412D01*
X184817246Y-89556243D01*
X184850500Y-89346287D01*
X184850500Y-89133713D01*
X184817246Y-88923757D01*
X184751557Y-88721588D01*
X184655051Y-88532184D01*
X184655049Y-88532181D01*
X184655048Y-88532179D01*
X184530109Y-88360213D01*
X184379786Y-88209890D01*
X184207820Y-88084951D01*
X184207115Y-88084591D01*
X184199054Y-88080485D01*
X184148259Y-88032512D01*
X184131463Y-87964692D01*
X184153999Y-87898556D01*
X184199054Y-87859515D01*
X184207816Y-87855051D01*
X184229789Y-87839086D01*
X184379786Y-87730109D01*
X184379788Y-87730106D01*
X184379792Y-87730104D01*
X184530104Y-87579792D01*
X184530106Y-87579788D01*
X184530109Y-87579786D01*
X184655048Y-87407820D01*
X184655047Y-87407820D01*
X184655051Y-87407816D01*
X184751557Y-87218412D01*
X184817246Y-87016243D01*
X184850500Y-86806287D01*
X184850500Y-86593713D01*
X184817246Y-86383757D01*
X184751557Y-86181588D01*
X184655051Y-85992184D01*
X184655049Y-85992181D01*
X184655048Y-85992179D01*
X184530109Y-85820213D01*
X184379786Y-85669890D01*
X184207820Y-85544951D01*
X184207115Y-85544591D01*
X184199054Y-85540485D01*
X184148259Y-85492512D01*
X184131463Y-85424692D01*
X184153999Y-85358556D01*
X184199054Y-85319515D01*
X184207816Y-85315051D01*
X184241467Y-85290602D01*
X184379786Y-85190109D01*
X184379788Y-85190106D01*
X184379792Y-85190104D01*
X184530104Y-85039792D01*
X184530106Y-85039788D01*
X184530109Y-85039786D01*
X184655048Y-84867820D01*
X184655047Y-84867820D01*
X184655051Y-84867816D01*
X184751557Y-84678412D01*
X184817246Y-84476243D01*
X184850500Y-84266287D01*
X184850500Y-84053713D01*
X184817246Y-83843757D01*
X184751557Y-83641588D01*
X184655051Y-83452184D01*
X184655049Y-83452181D01*
X184655048Y-83452179D01*
X184530109Y-83280213D01*
X184379786Y-83129890D01*
X184207820Y-83004951D01*
X184207115Y-83004591D01*
X184199054Y-83000485D01*
X184148259Y-82952512D01*
X184131463Y-82884692D01*
X184153999Y-82818556D01*
X184199054Y-82779515D01*
X184207816Y-82775051D01*
X184239297Y-82752179D01*
X184379786Y-82650109D01*
X184379788Y-82650106D01*
X184379792Y-82650104D01*
X184530104Y-82499792D01*
X184530106Y-82499788D01*
X184530109Y-82499786D01*
X184655048Y-82327820D01*
X184655047Y-82327820D01*
X184655051Y-82327816D01*
X184751557Y-82138412D01*
X184817246Y-81936243D01*
X184850500Y-81726287D01*
X184850500Y-81513713D01*
X184817246Y-81303757D01*
X184751557Y-81101588D01*
X184655051Y-80912184D01*
X184655049Y-80912181D01*
X184655048Y-80912179D01*
X184530109Y-80740213D01*
X184379786Y-80589890D01*
X184207820Y-80464951D01*
X184207115Y-80464591D01*
X184199054Y-80460485D01*
X184148259Y-80412512D01*
X184131463Y-80344692D01*
X184153999Y-80278556D01*
X184199054Y-80239515D01*
X184207816Y-80235051D01*
X184256748Y-80199500D01*
X184379786Y-80110109D01*
X184379788Y-80110106D01*
X184379792Y-80110104D01*
X184530104Y-79959792D01*
X184530106Y-79959788D01*
X184530109Y-79959786D01*
X184655048Y-79787820D01*
X184655047Y-79787820D01*
X184655051Y-79787816D01*
X184751557Y-79598412D01*
X184817246Y-79396243D01*
X184850500Y-79186287D01*
X184850500Y-78973713D01*
X184817246Y-78763757D01*
X184751557Y-78561588D01*
X184655051Y-78372184D01*
X184655049Y-78372181D01*
X184655048Y-78372179D01*
X184530109Y-78200213D01*
X184379786Y-78049890D01*
X184207820Y-77924951D01*
X184207115Y-77924591D01*
X184199054Y-77920485D01*
X184148259Y-77872512D01*
X184131463Y-77804692D01*
X184153999Y-77738556D01*
X184199054Y-77699515D01*
X184207816Y-77695051D01*
X184229789Y-77679086D01*
X184379786Y-77570109D01*
X184379788Y-77570106D01*
X184379792Y-77570104D01*
X184530104Y-77419792D01*
X184530106Y-77419788D01*
X184530109Y-77419786D01*
X184655048Y-77247820D01*
X184655047Y-77247820D01*
X184655051Y-77247816D01*
X184751557Y-77058412D01*
X184817246Y-76856243D01*
X184850500Y-76646287D01*
X184850500Y-76433713D01*
X184817246Y-76223757D01*
X184751557Y-76021588D01*
X184655051Y-75832184D01*
X184655049Y-75832181D01*
X184655048Y-75832179D01*
X184530109Y-75660213D01*
X184379786Y-75509890D01*
X184207820Y-75384951D01*
X184207115Y-75384591D01*
X184199054Y-75380485D01*
X184148259Y-75332512D01*
X184131463Y-75264692D01*
X184153999Y-75198556D01*
X184199054Y-75159515D01*
X184207816Y-75155051D01*
X184253602Y-75121786D01*
X184379786Y-75030109D01*
X184379788Y-75030106D01*
X184379792Y-75030104D01*
X184530104Y-74879792D01*
X184530106Y-74879788D01*
X184530109Y-74879786D01*
X184655048Y-74707820D01*
X184655047Y-74707820D01*
X184655051Y-74707816D01*
X184751557Y-74518412D01*
X184817246Y-74316243D01*
X184850500Y-74106287D01*
X184850500Y-73893713D01*
X184817246Y-73683757D01*
X184751557Y-73481588D01*
X184655051Y-73292184D01*
X184655049Y-73292181D01*
X184655048Y-73292179D01*
X184530109Y-73120213D01*
X184379786Y-72969890D01*
X184207820Y-72844951D01*
X184207115Y-72844591D01*
X184199054Y-72840485D01*
X184148259Y-72792512D01*
X184131463Y-72724692D01*
X184153999Y-72658556D01*
X184199054Y-72619515D01*
X184207816Y-72615051D01*
X184229789Y-72599086D01*
X184379786Y-72490109D01*
X184379788Y-72490106D01*
X184379792Y-72490104D01*
X184530104Y-72339792D01*
X184530106Y-72339788D01*
X184530109Y-72339786D01*
X184655048Y-72167820D01*
X184655047Y-72167820D01*
X184655051Y-72167816D01*
X184751557Y-71978412D01*
X184817246Y-71776243D01*
X184850500Y-71566287D01*
X184850500Y-71353713D01*
X184817246Y-71143757D01*
X184751557Y-70941588D01*
X184655051Y-70752184D01*
X184655049Y-70752181D01*
X184655048Y-70752179D01*
X184530109Y-70580213D01*
X184379786Y-70429890D01*
X184207820Y-70304951D01*
X184207115Y-70304591D01*
X184199054Y-70300485D01*
X184148259Y-70252512D01*
X184131463Y-70184692D01*
X184153999Y-70118556D01*
X184199054Y-70079515D01*
X184207816Y-70075051D01*
X184229789Y-70059086D01*
X184379786Y-69950109D01*
X184379788Y-69950106D01*
X184379792Y-69950104D01*
X184530104Y-69799792D01*
X184530106Y-69799788D01*
X184530109Y-69799786D01*
X184655048Y-69627820D01*
X184655047Y-69627820D01*
X184655051Y-69627816D01*
X184751557Y-69438412D01*
X184817246Y-69236243D01*
X184850500Y-69026287D01*
X184850500Y-68813713D01*
X184817246Y-68603757D01*
X184751557Y-68401588D01*
X184655051Y-68212184D01*
X184655049Y-68212181D01*
X184655048Y-68212179D01*
X184530109Y-68040213D01*
X184379786Y-67889890D01*
X184207820Y-67764951D01*
X184207115Y-67764591D01*
X184199054Y-67760485D01*
X184148259Y-67712512D01*
X184131463Y-67644692D01*
X184153999Y-67578556D01*
X184199054Y-67539515D01*
X184207816Y-67535051D01*
X184229789Y-67519086D01*
X184379786Y-67410109D01*
X184379788Y-67410106D01*
X184379792Y-67410104D01*
X184530104Y-67259792D01*
X184530106Y-67259788D01*
X184530109Y-67259786D01*
X184655048Y-67087820D01*
X184655047Y-67087820D01*
X184655051Y-67087816D01*
X184751557Y-66898412D01*
X184817246Y-66696243D01*
X184850500Y-66486287D01*
X184850500Y-66273713D01*
X184817246Y-66063757D01*
X184751557Y-65861588D01*
X184655051Y-65672184D01*
X184655049Y-65672181D01*
X184655048Y-65672179D01*
X184530109Y-65500213D01*
X184379786Y-65349890D01*
X184207820Y-65224951D01*
X184207115Y-65224591D01*
X184199054Y-65220485D01*
X184148259Y-65172512D01*
X184131463Y-65104692D01*
X184153999Y-65038556D01*
X184199054Y-64999515D01*
X184207816Y-64995051D01*
X184309529Y-64921153D01*
X184379786Y-64870109D01*
X184379788Y-64870106D01*
X184379792Y-64870104D01*
X184530104Y-64719792D01*
X184530106Y-64719788D01*
X184530109Y-64719786D01*
X184655048Y-64547820D01*
X184655047Y-64547820D01*
X184655051Y-64547816D01*
X184751557Y-64358412D01*
X184817246Y-64156243D01*
X184850500Y-63946287D01*
X184850500Y-63733713D01*
X184817246Y-63523757D01*
X184751557Y-63321588D01*
X184655051Y-63132184D01*
X184655049Y-63132181D01*
X184655048Y-63132179D01*
X184530109Y-62960213D01*
X184379786Y-62809890D01*
X184207820Y-62684951D01*
X184207115Y-62684591D01*
X184199054Y-62680485D01*
X184148259Y-62632512D01*
X184131463Y-62564692D01*
X184153999Y-62498556D01*
X184199054Y-62459515D01*
X184207816Y-62455051D01*
X184229789Y-62439086D01*
X184379786Y-62330109D01*
X184379788Y-62330106D01*
X184379792Y-62330104D01*
X184530104Y-62179792D01*
X184530106Y-62179788D01*
X184530109Y-62179786D01*
X184655048Y-62007820D01*
X184655047Y-62007820D01*
X184655051Y-62007816D01*
X184751557Y-61818412D01*
X184817246Y-61616243D01*
X184850500Y-61406287D01*
X184850500Y-61193713D01*
X184817246Y-60983757D01*
X184751557Y-60781588D01*
X184655051Y-60592184D01*
X184655049Y-60592181D01*
X184655048Y-60592179D01*
X184530109Y-60420213D01*
X184379786Y-60269890D01*
X184207820Y-60144951D01*
X184207115Y-60144591D01*
X184199054Y-60140485D01*
X184148259Y-60092512D01*
X184131463Y-60024692D01*
X184153999Y-59958556D01*
X184199054Y-59919515D01*
X184207816Y-59915051D01*
X184229789Y-59899086D01*
X184379786Y-59790109D01*
X184379788Y-59790106D01*
X184379792Y-59790104D01*
X184530104Y-59639792D01*
X184530106Y-59639788D01*
X184530109Y-59639786D01*
X184655048Y-59467820D01*
X184655047Y-59467820D01*
X184655051Y-59467816D01*
X184751557Y-59278412D01*
X184817246Y-59076243D01*
X184850500Y-58866287D01*
X184850500Y-58653713D01*
X184817246Y-58443757D01*
X184751557Y-58241588D01*
X184655051Y-58052184D01*
X184655049Y-58052181D01*
X184655048Y-58052179D01*
X184530109Y-57880213D01*
X184379786Y-57729890D01*
X184207820Y-57604951D01*
X184207115Y-57604591D01*
X184199054Y-57600485D01*
X184148259Y-57552512D01*
X184131463Y-57484692D01*
X184153999Y-57418556D01*
X184199054Y-57379515D01*
X184207816Y-57375051D01*
X184229789Y-57359086D01*
X184379786Y-57250109D01*
X184379792Y-57250104D01*
X184449082Y-57180814D01*
X184530104Y-57099792D01*
X184530106Y-57099788D01*
X184530109Y-57099786D01*
X184655048Y-56927820D01*
X184655047Y-56927820D01*
X184655051Y-56927816D01*
X184751557Y-56738412D01*
X184817246Y-56536243D01*
X184850500Y-56326287D01*
X184850500Y-56113713D01*
X184817246Y-55903757D01*
X184751557Y-55701588D01*
X184655051Y-55512184D01*
X184655049Y-55512181D01*
X184655048Y-55512179D01*
X184530109Y-55340213D01*
X184379786Y-55189890D01*
X184207820Y-55064951D01*
X184207115Y-55064591D01*
X184199054Y-55060485D01*
X184148259Y-55012512D01*
X184131463Y-54944692D01*
X184153999Y-54878556D01*
X184199054Y-54839515D01*
X184207816Y-54835051D01*
X184301565Y-54766939D01*
X184379786Y-54710109D01*
X184379788Y-54710106D01*
X184379792Y-54710104D01*
X184530104Y-54559792D01*
X184530106Y-54559788D01*
X184530109Y-54559786D01*
X184655048Y-54387820D01*
X184655047Y-54387820D01*
X184655051Y-54387816D01*
X184751557Y-54198412D01*
X184817246Y-53996243D01*
X184850500Y-53786287D01*
X184850500Y-53573713D01*
X184817246Y-53363757D01*
X184751557Y-53161588D01*
X184655051Y-52972184D01*
X184655049Y-52972181D01*
X184655048Y-52972179D01*
X184530109Y-52800213D01*
X184416569Y-52686673D01*
X184383084Y-52625350D01*
X184388068Y-52555658D01*
X184429940Y-52499725D01*
X184460915Y-52482810D01*
X184592331Y-52433796D01*
X184707546Y-52347546D01*
X184793796Y-52232331D01*
X184844091Y-52097483D01*
X184850500Y-52037873D01*
X184850499Y-50242128D01*
X184844091Y-50182517D01*
X184821078Y-50120817D01*
X184793797Y-50047671D01*
X184793793Y-50047664D01*
X184707547Y-49932455D01*
X184707544Y-49932452D01*
X184592335Y-49846206D01*
X184592328Y-49846202D01*
X184457482Y-49795908D01*
X184457483Y-49795908D01*
X184397883Y-49789501D01*
X184397881Y-49789500D01*
X184397873Y-49789500D01*
X184397865Y-49789500D01*
X184387309Y-49789500D01*
X184320270Y-49769815D01*
X184299628Y-49753181D01*
X183629408Y-49082962D01*
X183692993Y-49065925D01*
X183807007Y-49000099D01*
X183900099Y-48907007D01*
X183965925Y-48792993D01*
X183982962Y-48729408D01*
X184615270Y-49361717D01*
X184615270Y-49361716D01*
X184654622Y-49307554D01*
X184751095Y-49118217D01*
X184816757Y-48916130D01*
X184816757Y-48916127D01*
X184850000Y-48706246D01*
X184850000Y-48493753D01*
X184816757Y-48283872D01*
X184816757Y-48283869D01*
X184751095Y-48081782D01*
X184654624Y-47892449D01*
X184615270Y-47838282D01*
X184615269Y-47838282D01*
X183982962Y-48470590D01*
X183965925Y-48407007D01*
X183900099Y-48292993D01*
X183807007Y-48199901D01*
X183692993Y-48134075D01*
X183629409Y-48117037D01*
X184261716Y-47484728D01*
X184207547Y-47445373D01*
X184207547Y-47445372D01*
X184198500Y-47440763D01*
X184147706Y-47392788D01*
X184130912Y-47324966D01*
X184153451Y-47258832D01*
X184198508Y-47219793D01*
X184207816Y-47215051D01*
X184287007Y-47157515D01*
X184379786Y-47090109D01*
X184379788Y-47090106D01*
X184379792Y-47090104D01*
X184530104Y-46939792D01*
X184530106Y-46939788D01*
X184530109Y-46939786D01*
X184655048Y-46767820D01*
X184655047Y-46767820D01*
X184655051Y-46767816D01*
X184751557Y-46578412D01*
X184817246Y-46376243D01*
X184850500Y-46166287D01*
X184850500Y-45953713D01*
X184817246Y-45743757D01*
X184751557Y-45541588D01*
X184655051Y-45352184D01*
X184655049Y-45352181D01*
X184655048Y-45352179D01*
X184530109Y-45180213D01*
X184379786Y-45029890D01*
X184207820Y-44904951D01*
X184207115Y-44904591D01*
X184199054Y-44900485D01*
X184148259Y-44852512D01*
X184131463Y-44784692D01*
X184153999Y-44718556D01*
X184199054Y-44679515D01*
X184207816Y-44675051D01*
X184229789Y-44659086D01*
X184379786Y-44550109D01*
X184379788Y-44550106D01*
X184379792Y-44550104D01*
X184530104Y-44399792D01*
X184530106Y-44399788D01*
X184530109Y-44399786D01*
X184655048Y-44227820D01*
X184655047Y-44227820D01*
X184655051Y-44227816D01*
X184751557Y-44038412D01*
X184817246Y-43836243D01*
X184850500Y-43626287D01*
X184850500Y-43413713D01*
X184817246Y-43203757D01*
X184751557Y-43001588D01*
X184655051Y-42812184D01*
X184655049Y-42812181D01*
X184655048Y-42812179D01*
X184530109Y-42640213D01*
X184379786Y-42489890D01*
X184207820Y-42364951D01*
X184207115Y-42364591D01*
X184199054Y-42360485D01*
X184148259Y-42312512D01*
X184131463Y-42244692D01*
X184153999Y-42178556D01*
X184199054Y-42139515D01*
X184207816Y-42135051D01*
X184229789Y-42119086D01*
X184379786Y-42010109D01*
X184379788Y-42010106D01*
X184379792Y-42010104D01*
X184530104Y-41859792D01*
X184530106Y-41859788D01*
X184530109Y-41859786D01*
X184655048Y-41687820D01*
X184655047Y-41687820D01*
X184655051Y-41687816D01*
X184751557Y-41498412D01*
X184817246Y-41296243D01*
X184850500Y-41086287D01*
X184850500Y-40873713D01*
X184817246Y-40663757D01*
X184751557Y-40461588D01*
X184655051Y-40272184D01*
X184655049Y-40272181D01*
X184655048Y-40272179D01*
X184530109Y-40100213D01*
X184379786Y-39949890D01*
X184207820Y-39824951D01*
X184207115Y-39824591D01*
X184199054Y-39820485D01*
X184148259Y-39772512D01*
X184131463Y-39704692D01*
X184153999Y-39638556D01*
X184199054Y-39599515D01*
X184207816Y-39595051D01*
X184229789Y-39579086D01*
X184379786Y-39470109D01*
X184379788Y-39470106D01*
X184379792Y-39470104D01*
X184530104Y-39319792D01*
X184530106Y-39319788D01*
X184530109Y-39319786D01*
X184655048Y-39147820D01*
X184655047Y-39147820D01*
X184655051Y-39147816D01*
X184751557Y-38958412D01*
X184817246Y-38756243D01*
X184850500Y-38546287D01*
X184850500Y-38333713D01*
X184817246Y-38123757D01*
X184751557Y-37921588D01*
X184655051Y-37732184D01*
X184655049Y-37732181D01*
X184655048Y-37732179D01*
X184530109Y-37560213D01*
X184379786Y-37409890D01*
X184207820Y-37284951D01*
X184207115Y-37284591D01*
X184199054Y-37280485D01*
X184148259Y-37232512D01*
X184131463Y-37164692D01*
X184153999Y-37098556D01*
X184199054Y-37059515D01*
X184207816Y-37055051D01*
X184229789Y-37039086D01*
X184379786Y-36930109D01*
X184379788Y-36930106D01*
X184379792Y-36930104D01*
X184530104Y-36779792D01*
X184530106Y-36779788D01*
X184530109Y-36779786D01*
X184655048Y-36607820D01*
X184655047Y-36607820D01*
X184655051Y-36607816D01*
X184751557Y-36418412D01*
X184817246Y-36216243D01*
X184850500Y-36006287D01*
X184850500Y-35793713D01*
X184817246Y-35583757D01*
X184751557Y-35381588D01*
X184655051Y-35192184D01*
X184655049Y-35192181D01*
X184655048Y-35192179D01*
X184530109Y-35020213D01*
X184379786Y-34869890D01*
X184207820Y-34744951D01*
X184018414Y-34648444D01*
X184018413Y-34648443D01*
X184018412Y-34648443D01*
X183816243Y-34582754D01*
X183816241Y-34582753D01*
X183816240Y-34582753D01*
X183654957Y-34557208D01*
X183606287Y-34549500D01*
X183393713Y-34549500D01*
X183345042Y-34557208D01*
X183183760Y-34582753D01*
X182981585Y-34648444D01*
X182792179Y-34744951D01*
X182620213Y-34869890D01*
X182469890Y-35020213D01*
X182344951Y-35192179D01*
X182248444Y-35381585D01*
X182182753Y-35583760D01*
X182171917Y-35652179D01*
X182149500Y-35793713D01*
X182149500Y-36006287D01*
X182182754Y-36216243D01*
X182201427Y-36273713D01*
X182248444Y-36418414D01*
X182344951Y-36607820D01*
X182469890Y-36779786D01*
X182620213Y-36930109D01*
X182792182Y-37055050D01*
X182800946Y-37059516D01*
X182851742Y-37107491D01*
X182868536Y-37175312D01*
X182845998Y-37241447D01*
X182800946Y-37280484D01*
X182792182Y-37284949D01*
X182620213Y-37409890D01*
X182469890Y-37560213D01*
X182344951Y-37732179D01*
X182248444Y-37921585D01*
X182182753Y-38123760D01*
X182171917Y-38192179D01*
X182149500Y-38333713D01*
X182149500Y-38546287D01*
X182182754Y-38756243D01*
X182201427Y-38813713D01*
X182248444Y-38958414D01*
X182344951Y-39147820D01*
X182469890Y-39319786D01*
X182620213Y-39470109D01*
X182792182Y-39595050D01*
X182800946Y-39599516D01*
X182851742Y-39647491D01*
X182868536Y-39715312D01*
X182845998Y-39781447D01*
X182800946Y-39820484D01*
X182792182Y-39824949D01*
X182620213Y-39949890D01*
X182469890Y-40100213D01*
X182344951Y-40272179D01*
X182248444Y-40461585D01*
X182182753Y-40663760D01*
X182149500Y-40873713D01*
X182149500Y-41086286D01*
X182172816Y-41233501D01*
X182182754Y-41296243D01*
X182209699Y-41379172D01*
X182248444Y-41498414D01*
X182344951Y-41687820D01*
X182469890Y-41859786D01*
X182620213Y-42010109D01*
X182792182Y-42135050D01*
X182800946Y-42139516D01*
X182851742Y-42187491D01*
X182868536Y-42255312D01*
X182845998Y-42321447D01*
X182800946Y-42360484D01*
X182792182Y-42364949D01*
X182620213Y-42489890D01*
X182469890Y-42640213D01*
X182344951Y-42812179D01*
X182248444Y-43001585D01*
X182182753Y-43203760D01*
X182149500Y-43413713D01*
X182149500Y-43626286D01*
X182182753Y-43836239D01*
X182248444Y-44038414D01*
X182344951Y-44227820D01*
X182469890Y-44399786D01*
X182620213Y-44550109D01*
X182792182Y-44675050D01*
X182800946Y-44679516D01*
X182851742Y-44727491D01*
X182868536Y-44795312D01*
X182845998Y-44861447D01*
X182800946Y-44900484D01*
X182792182Y-44904949D01*
X182620213Y-45029890D01*
X182469890Y-45180213D01*
X182344951Y-45352179D01*
X182248444Y-45541585D01*
X182182753Y-45743760D01*
X182171917Y-45812179D01*
X182149500Y-45953713D01*
X182149500Y-46166287D01*
X182182754Y-46376243D01*
X182201427Y-46433713D01*
X182248444Y-46578414D01*
X182344951Y-46767820D01*
X182469890Y-46939786D01*
X182620213Y-47090109D01*
X182792179Y-47215048D01*
X182792181Y-47215049D01*
X182792184Y-47215051D01*
X182801493Y-47219794D01*
X182852290Y-47267766D01*
X182869087Y-47335587D01*
X182846552Y-47401722D01*
X182801505Y-47440760D01*
X182792446Y-47445376D01*
X182792440Y-47445380D01*
X182738282Y-47484727D01*
X182738282Y-47484728D01*
X183370591Y-48117037D01*
X183307007Y-48134075D01*
X183192993Y-48199901D01*
X183099901Y-48292993D01*
X183034075Y-48407007D01*
X183017037Y-48470591D01*
X182384728Y-47838282D01*
X182384727Y-47838282D01*
X182345380Y-47892439D01*
X182248904Y-48081782D01*
X182183242Y-48283869D01*
X182183242Y-48283872D01*
X182150000Y-48493753D01*
X182150000Y-48706246D01*
X182183242Y-48916127D01*
X182183242Y-48916130D01*
X182248904Y-49118217D01*
X182345375Y-49307550D01*
X182384728Y-49361716D01*
X183017037Y-48729408D01*
X183034075Y-48792993D01*
X183099901Y-48907007D01*
X183192993Y-49000099D01*
X183307007Y-49065925D01*
X183370590Y-49082962D01*
X182700370Y-49753181D01*
X182639047Y-49786666D01*
X182612698Y-49789500D01*
X182602134Y-49789500D01*
X182602123Y-49789501D01*
X182542516Y-49795908D01*
X182407671Y-49846202D01*
X182407664Y-49846206D01*
X182292455Y-49932452D01*
X182292452Y-49932455D01*
X182206206Y-50047664D01*
X182206202Y-50047671D01*
X182155908Y-50182517D01*
X182152411Y-50215048D01*
X182149501Y-50242123D01*
X182149500Y-50242135D01*
X182149500Y-52037870D01*
X182149501Y-52037876D01*
X182155908Y-52097483D01*
X182206202Y-52232328D01*
X182206206Y-52232335D01*
X182292452Y-52347544D01*
X182292455Y-52347547D01*
X182407664Y-52433793D01*
X182407671Y-52433797D01*
X182539082Y-52482810D01*
X182595016Y-52524681D01*
X182619433Y-52590145D01*
X182604582Y-52658418D01*
X182583431Y-52686673D01*
X182469889Y-52800215D01*
X182344951Y-52972179D01*
X182248444Y-53161585D01*
X182182753Y-53363760D01*
X182156511Y-53529446D01*
X182149500Y-53573713D01*
X182149500Y-53786287D01*
X182182754Y-53996243D01*
X182245647Y-54189808D01*
X182248444Y-54198414D01*
X182344951Y-54387820D01*
X182469890Y-54559786D01*
X182620213Y-54710109D01*
X182792182Y-54835050D01*
X182800946Y-54839516D01*
X182851742Y-54887491D01*
X182868536Y-54955312D01*
X182845998Y-55021447D01*
X182800946Y-55060484D01*
X182792182Y-55064949D01*
X182620213Y-55189890D01*
X182469890Y-55340213D01*
X182344951Y-55512179D01*
X182248444Y-55701585D01*
X182182753Y-55903760D01*
X182149500Y-56113713D01*
X182149500Y-56326287D01*
X182158620Y-56383870D01*
X182182753Y-56536239D01*
X182248444Y-56738414D01*
X182344951Y-56927820D01*
X182469890Y-57099786D01*
X182620213Y-57250109D01*
X182792182Y-57375050D01*
X182800946Y-57379516D01*
X182851742Y-57427491D01*
X182868536Y-57495312D01*
X182845998Y-57561447D01*
X182800946Y-57600484D01*
X182792182Y-57604949D01*
X182620213Y-57729890D01*
X182469890Y-57880213D01*
X182344951Y-58052179D01*
X182248444Y-58241585D01*
X182182753Y-58443760D01*
X182153968Y-58625501D01*
X182149500Y-58653713D01*
X182149500Y-58866287D01*
X182182754Y-59076243D01*
X182233984Y-59233913D01*
X182248444Y-59278414D01*
X182344951Y-59467820D01*
X182469890Y-59639786D01*
X182620213Y-59790109D01*
X182792182Y-59915050D01*
X182800946Y-59919516D01*
X182851742Y-59967491D01*
X182868536Y-60035312D01*
X182845998Y-60101447D01*
X182800946Y-60140484D01*
X182792182Y-60144949D01*
X182620213Y-60269890D01*
X182469890Y-60420213D01*
X182344951Y-60592180D01*
X182248337Y-60781795D01*
X182200362Y-60832591D01*
X182137852Y-60849500D01*
X180504935Y-60849500D01*
X180437896Y-60829815D01*
X180436090Y-60828633D01*
X180379179Y-60790606D01*
X180379172Y-60790602D01*
X180233501Y-60730264D01*
X180233489Y-60730261D01*
X180078845Y-60699500D01*
X180078842Y-60699500D01*
X179921158Y-60699500D01*
X179921155Y-60699500D01*
X179766510Y-60730261D01*
X179766498Y-60730264D01*
X179620827Y-60790602D01*
X179620814Y-60790609D01*
X179489711Y-60878210D01*
X179489707Y-60878213D01*
X179378213Y-60989707D01*
X179378210Y-60989711D01*
X179290609Y-61120814D01*
X179290602Y-61120827D01*
X179230264Y-61266498D01*
X179230261Y-61266510D01*
X179199500Y-61421153D01*
X179199500Y-61578846D01*
X179230261Y-61733489D01*
X179230264Y-61733501D01*
X179290602Y-61879172D01*
X179290609Y-61879185D01*
X179378210Y-62010288D01*
X179378213Y-62010292D01*
X179489707Y-62121786D01*
X179489711Y-62121789D01*
X179620814Y-62209390D01*
X179620827Y-62209397D01*
X179766498Y-62269735D01*
X179766503Y-62269737D01*
X179921153Y-62300499D01*
X179921156Y-62300500D01*
X179921158Y-62300500D01*
X180078844Y-62300500D01*
X180078845Y-62300499D01*
X180233497Y-62269737D01*
X180379179Y-62209394D01*
X180436044Y-62171397D01*
X180502721Y-62150520D01*
X180504935Y-62150500D01*
X182389242Y-62150500D01*
X182456281Y-62170185D01*
X182476923Y-62186819D01*
X182620213Y-62330109D01*
X182792182Y-62455050D01*
X182800946Y-62459516D01*
X182851742Y-62507491D01*
X182868536Y-62575312D01*
X182845998Y-62641447D01*
X182800946Y-62680484D01*
X182792182Y-62684949D01*
X182620213Y-62809890D01*
X182469890Y-62960213D01*
X182342085Y-63136125D01*
X182340740Y-63135148D01*
X182294295Y-63177166D01*
X182240382Y-63189500D01*
X179660808Y-63189500D01*
X179593769Y-63169815D01*
X179573127Y-63153181D01*
X178126819Y-61706873D01*
X178093334Y-61645550D01*
X178090500Y-61619192D01*
X178090500Y-58064935D01*
X178110185Y-57997896D01*
X178111366Y-57996090D01*
X178149394Y-57939179D01*
X178209737Y-57793497D01*
X178240500Y-57638842D01*
X178240500Y-57481158D01*
X178240500Y-57481155D01*
X178240499Y-57481153D01*
X178229825Y-57427491D01*
X178209737Y-57326503D01*
X178182312Y-57260292D01*
X178149397Y-57180827D01*
X178149390Y-57180814D01*
X178061789Y-57049711D01*
X178061786Y-57049707D01*
X177950292Y-56938213D01*
X177950288Y-56938210D01*
X177819185Y-56850609D01*
X177819172Y-56850602D01*
X177673501Y-56790264D01*
X177673489Y-56790261D01*
X177518845Y-56759500D01*
X177518842Y-56759500D01*
X177361158Y-56759500D01*
X177361155Y-56759500D01*
X177206510Y-56790261D01*
X177206498Y-56790264D01*
X177060827Y-56850602D01*
X177060814Y-56850609D01*
X176929711Y-56938210D01*
X176929707Y-56938213D01*
X176818213Y-57049707D01*
X176818210Y-57049711D01*
X176730609Y-57180814D01*
X176730602Y-57180827D01*
X176670264Y-57326498D01*
X176670261Y-57326510D01*
X176639500Y-57481153D01*
X176639500Y-57638846D01*
X176670261Y-57793489D01*
X176670264Y-57793501D01*
X176730602Y-57939172D01*
X176730606Y-57939179D01*
X176768602Y-57996044D01*
X176789480Y-58062721D01*
X176789500Y-58064935D01*
X176789500Y-62004069D01*
X176800542Y-62059576D01*
X176800542Y-62059579D01*
X176814497Y-62129736D01*
X176814499Y-62129744D01*
X176863471Y-62247974D01*
X176863535Y-62248127D01*
X176918313Y-62330109D01*
X176934726Y-62354673D01*
X178925325Y-64345272D01*
X178925332Y-64345278D01*
X179029175Y-64414663D01*
X179029176Y-64414663D01*
X179029185Y-64414669D01*
X179031873Y-64416465D01*
X179150256Y-64465501D01*
X179150260Y-64465501D01*
X179150261Y-64465502D01*
X179275928Y-64490500D01*
X179275931Y-64490500D01*
X179404069Y-64490500D01*
X182240382Y-64490500D01*
X182307421Y-64510185D01*
X182341099Y-64544591D01*
X182342085Y-64543875D01*
X182469890Y-64719786D01*
X182620213Y-64870109D01*
X182792182Y-64995050D01*
X182800946Y-64999516D01*
X182851742Y-65047491D01*
X182868536Y-65115312D01*
X182845998Y-65181447D01*
X182800946Y-65220484D01*
X182792182Y-65224949D01*
X182620213Y-65349890D01*
X182469890Y-65500213D01*
X182344951Y-65672179D01*
X182248444Y-65861585D01*
X182182753Y-66063760D01*
X182149500Y-66273713D01*
X182149500Y-66486286D01*
X182182753Y-66696239D01*
X182248444Y-66898414D01*
X182344951Y-67087820D01*
X182469890Y-67259786D01*
X182620213Y-67410109D01*
X182792182Y-67535050D01*
X182800946Y-67539516D01*
X182851742Y-67587491D01*
X182868536Y-67655312D01*
X182845998Y-67721447D01*
X182800946Y-67760484D01*
X182792182Y-67764949D01*
X182620213Y-67889890D01*
X182469890Y-68040213D01*
X182344951Y-68212179D01*
X182248444Y-68401585D01*
X182182753Y-68603760D01*
X182149500Y-68813713D01*
X182149500Y-69026286D01*
X182178501Y-69209394D01*
X182182754Y-69236243D01*
X182203632Y-69300500D01*
X182248444Y-69438414D01*
X182344951Y-69627820D01*
X182469890Y-69799786D01*
X182620213Y-69950109D01*
X182792182Y-70075050D01*
X182800946Y-70079516D01*
X182851742Y-70127491D01*
X182868536Y-70195312D01*
X182845998Y-70261447D01*
X182800946Y-70300484D01*
X182792182Y-70304949D01*
X182620213Y-70429890D01*
X182469890Y-70580213D01*
X182344951Y-70752179D01*
X182248444Y-70941585D01*
X182182753Y-71143760D01*
X182149500Y-71353713D01*
X182149500Y-71566286D01*
X182182753Y-71776239D01*
X182248444Y-71978414D01*
X182344951Y-72167820D01*
X182469890Y-72339786D01*
X182620213Y-72490109D01*
X182792182Y-72615050D01*
X182800946Y-72619516D01*
X182851742Y-72667491D01*
X182868536Y-72735312D01*
X182845998Y-72801447D01*
X182800946Y-72840484D01*
X182792182Y-72844949D01*
X182620213Y-72969890D01*
X182469890Y-73120213D01*
X182344951Y-73292179D01*
X182248444Y-73481585D01*
X182182753Y-73683760D01*
X182149500Y-73893713D01*
X182149500Y-73970192D01*
X182129815Y-74037231D01*
X182077011Y-74082986D01*
X182007853Y-74092930D01*
X181944297Y-74063905D01*
X181937819Y-74057873D01*
X177686819Y-69806873D01*
X177653334Y-69745550D01*
X177650500Y-69719192D01*
X177650500Y-69004935D01*
X177670185Y-68937896D01*
X177671366Y-68936090D01*
X177709394Y-68879179D01*
X177769737Y-68733497D01*
X177800500Y-68578842D01*
X177800500Y-68421158D01*
X177800500Y-68421155D01*
X177800499Y-68421153D01*
X177769738Y-68266510D01*
X177769737Y-68266505D01*
X177769737Y-68266503D01*
X177747238Y-68212184D01*
X177709397Y-68120827D01*
X177709390Y-68120814D01*
X177621789Y-67989711D01*
X177621786Y-67989707D01*
X177510292Y-67878213D01*
X177510288Y-67878210D01*
X177379185Y-67790609D01*
X177379172Y-67790602D01*
X177233501Y-67730264D01*
X177233489Y-67730261D01*
X177078845Y-67699500D01*
X177078842Y-67699500D01*
X176921158Y-67699500D01*
X176921155Y-67699500D01*
X176766510Y-67730261D01*
X176766498Y-67730264D01*
X176620827Y-67790602D01*
X176620814Y-67790609D01*
X176489711Y-67878210D01*
X176489707Y-67878213D01*
X176378213Y-67989707D01*
X176378210Y-67989711D01*
X176290609Y-68120814D01*
X176290602Y-68120827D01*
X176230264Y-68266498D01*
X176230261Y-68266510D01*
X176199500Y-68421153D01*
X171800499Y-68421153D01*
X171769738Y-68266510D01*
X171769737Y-68266505D01*
X171769737Y-68266503D01*
X171747238Y-68212184D01*
X171709397Y-68120827D01*
X171709390Y-68120814D01*
X171621789Y-67989711D01*
X171621786Y-67989707D01*
X171510292Y-67878213D01*
X171510288Y-67878210D01*
X171379185Y-67790609D01*
X171379172Y-67790602D01*
X171233501Y-67730264D01*
X171233489Y-67730261D01*
X171166420Y-67716920D01*
X171104509Y-67684535D01*
X171102930Y-67682984D01*
X163686819Y-60266873D01*
X163653334Y-60205550D01*
X163650500Y-60179192D01*
X163650500Y-52655928D01*
X163625502Y-52530261D01*
X163625501Y-52530260D01*
X163625501Y-52530256D01*
X163576465Y-52411873D01*
X163576464Y-52411872D01*
X163576461Y-52411866D01*
X163505277Y-52305332D01*
X163462779Y-52262834D01*
X163414669Y-52214724D01*
X150550657Y-39350711D01*
X150517172Y-39289388D01*
X150517689Y-39241245D01*
X150516484Y-39241055D01*
X150550500Y-39026286D01*
X150550500Y-38813715D01*
X150547332Y-38793713D01*
X150545600Y-38782777D01*
X150554554Y-38713487D01*
X150599550Y-38660034D01*
X150666301Y-38639394D01*
X150733615Y-38658118D01*
X150755754Y-38675700D01*
X153182984Y-41102930D01*
X153216469Y-41164253D01*
X153216920Y-41166420D01*
X153230261Y-41233489D01*
X153230264Y-41233501D01*
X153290602Y-41379172D01*
X153290609Y-41379185D01*
X153378210Y-41510288D01*
X153378213Y-41510292D01*
X153489707Y-41621786D01*
X153489711Y-41621789D01*
X153620814Y-41709390D01*
X153620827Y-41709397D01*
X153733925Y-41756243D01*
X153766503Y-41769737D01*
X153921153Y-41800499D01*
X153921156Y-41800500D01*
X153921158Y-41800500D01*
X154078844Y-41800500D01*
X154078845Y-41800499D01*
X154233497Y-41769737D01*
X154379179Y-41709394D01*
X154510289Y-41621789D01*
X154621789Y-41510289D01*
X154709394Y-41379179D01*
X154769737Y-41233497D01*
X154800500Y-41078842D01*
X154800500Y-40921158D01*
X154800500Y-40921155D01*
X154800499Y-40921153D01*
X154769737Y-40766503D01*
X154727179Y-40663757D01*
X154709397Y-40620827D01*
X154709390Y-40620814D01*
X154621789Y-40489711D01*
X154621786Y-40489707D01*
X154510292Y-40378213D01*
X154510288Y-40378210D01*
X154379185Y-40290609D01*
X154379172Y-40290602D01*
X154233501Y-40230264D01*
X154233489Y-40230261D01*
X154166420Y-40216920D01*
X154104509Y-40184535D01*
X154102930Y-40182984D01*
X150575449Y-36655503D01*
X150541964Y-36594180D01*
X150540657Y-36548429D01*
X150550500Y-36486287D01*
X150550500Y-36273713D01*
X150517246Y-36063757D01*
X150451557Y-35861588D01*
X150355051Y-35672184D01*
X150355049Y-35672181D01*
X150355048Y-35672179D01*
X150230109Y-35500213D01*
X150079786Y-35349890D01*
X149907820Y-35224951D01*
X149907115Y-35224591D01*
X149899054Y-35220485D01*
X149848259Y-35172512D01*
X149831463Y-35104692D01*
X149853999Y-35038556D01*
X149899054Y-34999515D01*
X149907816Y-34995051D01*
X149935348Y-34975048D01*
X150079786Y-34870109D01*
X150079788Y-34870106D01*
X150079792Y-34870104D01*
X150177294Y-34772602D01*
X150238617Y-34739117D01*
X150308309Y-34744101D01*
X150352656Y-34772602D01*
X163813181Y-48233127D01*
X163846666Y-48294450D01*
X163849500Y-48320808D01*
X163849500Y-49995064D01*
X163829815Y-50062103D01*
X163828603Y-50063954D01*
X163790608Y-50120817D01*
X163790602Y-50120828D01*
X163730264Y-50266498D01*
X163730261Y-50266510D01*
X163699500Y-50421153D01*
X163699500Y-50578846D01*
X163730261Y-50733489D01*
X163730264Y-50733501D01*
X163790602Y-50879172D01*
X163790609Y-50879185D01*
X163878210Y-51010288D01*
X163878213Y-51010292D01*
X163989707Y-51121786D01*
X163989711Y-51121789D01*
X164120814Y-51209390D01*
X164120827Y-51209397D01*
X164207400Y-51245256D01*
X164266503Y-51269737D01*
X164421153Y-51300499D01*
X164421156Y-51300500D01*
X164421158Y-51300500D01*
X164578844Y-51300500D01*
X164578845Y-51300499D01*
X164733497Y-51269737D01*
X164851592Y-51220821D01*
X164879172Y-51209397D01*
X164879172Y-51209396D01*
X164879179Y-51209394D01*
X165010289Y-51121789D01*
X165121789Y-51010289D01*
X165209394Y-50879179D01*
X165212854Y-50870827D01*
X165229655Y-50830264D01*
X165269737Y-50733497D01*
X165300500Y-50578842D01*
X165300500Y-50421158D01*
X165300500Y-50421155D01*
X165300499Y-50421153D01*
X165282367Y-50330000D01*
X165269737Y-50266503D01*
X165256708Y-50235048D01*
X165209397Y-50120828D01*
X165209396Y-50120827D01*
X165209394Y-50120821D01*
X165171396Y-50063953D01*
X165150520Y-49997276D01*
X165150500Y-49995064D01*
X165150500Y-47935928D01*
X165125502Y-47810261D01*
X165125501Y-47810260D01*
X165125501Y-47810256D01*
X165076465Y-47691873D01*
X165076464Y-47691871D01*
X165065225Y-47675050D01*
X165065225Y-47675049D01*
X165005278Y-47585332D01*
X165005272Y-47585325D01*
X150754673Y-33334726D01*
X150754669Y-33334723D01*
X150648127Y-33263535D01*
X150529744Y-33214499D01*
X150529738Y-33214497D01*
X150441008Y-33196847D01*
X150379097Y-33164461D01*
X150358064Y-33136048D01*
X150357596Y-33136336D01*
X150355051Y-33132184D01*
X150230109Y-32960213D01*
X150079786Y-32809890D01*
X149907820Y-32684951D01*
X149907115Y-32684591D01*
X149899054Y-32680485D01*
X149848259Y-32632512D01*
X149831463Y-32564692D01*
X149853999Y-32498556D01*
X149899054Y-32459515D01*
X149907816Y-32455051D01*
X150000413Y-32387776D01*
X150079786Y-32330109D01*
X150079788Y-32330106D01*
X150079792Y-32330104D01*
X150230104Y-32179792D01*
X150230106Y-32179788D01*
X150230109Y-32179786D01*
X150355048Y-32007820D01*
X150355047Y-32007820D01*
X150355051Y-32007816D01*
X150451557Y-31818412D01*
X150517246Y-31616243D01*
X150550500Y-31406287D01*
X150550500Y-31193713D01*
X150517246Y-30983757D01*
X150451557Y-30781588D01*
X150355051Y-30592184D01*
X150355049Y-30592181D01*
X150355048Y-30592179D01*
X150230109Y-30420213D01*
X150079786Y-30269890D01*
X149907820Y-30144951D01*
X149907115Y-30144591D01*
X149899054Y-30140485D01*
X149848259Y-30092512D01*
X149831463Y-30024692D01*
X149853999Y-29958556D01*
X149899054Y-29919515D01*
X149907816Y-29915051D01*
X149935348Y-29895048D01*
X150079786Y-29790109D01*
X150079788Y-29790106D01*
X150079792Y-29790104D01*
X150230104Y-29639792D01*
X150230106Y-29639788D01*
X150230109Y-29639786D01*
X150355048Y-29467820D01*
X150355047Y-29467820D01*
X150355051Y-29467816D01*
X150451557Y-29278412D01*
X150517246Y-29076243D01*
X150550500Y-28866287D01*
X150550500Y-28653713D01*
X150547332Y-28633713D01*
X165614500Y-28633713D01*
X165614500Y-28846287D01*
X165647754Y-29056243D01*
X165654252Y-29076243D01*
X165713444Y-29258414D01*
X165809951Y-29447820D01*
X165934890Y-29619786D01*
X166085213Y-29770109D01*
X166257182Y-29895050D01*
X166265946Y-29899516D01*
X166316742Y-29947491D01*
X166333536Y-30015312D01*
X166310998Y-30081447D01*
X166265946Y-30120484D01*
X166257182Y-30124949D01*
X166085213Y-30249890D01*
X165934890Y-30400213D01*
X165809951Y-30572179D01*
X165713444Y-30761585D01*
X165647753Y-30963760D01*
X165614500Y-31173713D01*
X165614500Y-31386287D01*
X165647754Y-31596243D01*
X165654252Y-31616243D01*
X165713444Y-31798414D01*
X165809951Y-31987820D01*
X165934890Y-32159786D01*
X166085213Y-32310109D01*
X166257182Y-32435050D01*
X166265946Y-32439516D01*
X166316742Y-32487491D01*
X166333536Y-32555312D01*
X166310998Y-32621447D01*
X166265946Y-32660484D01*
X166257182Y-32664949D01*
X166085213Y-32789890D01*
X165934890Y-32940213D01*
X165809951Y-33112179D01*
X165713444Y-33301585D01*
X165647753Y-33503760D01*
X165614500Y-33713713D01*
X165614500Y-33926287D01*
X165647754Y-34136243D01*
X165654252Y-34156243D01*
X165713444Y-34338414D01*
X165809951Y-34527820D01*
X165934890Y-34699786D01*
X166085213Y-34850109D01*
X166257182Y-34975050D01*
X166265946Y-34979516D01*
X166316742Y-35027491D01*
X166333536Y-35095312D01*
X166310998Y-35161447D01*
X166265946Y-35200484D01*
X166257182Y-35204949D01*
X166085213Y-35329890D01*
X165934890Y-35480213D01*
X165809951Y-35652179D01*
X165713444Y-35841585D01*
X165647753Y-36043760D01*
X165620435Y-36216239D01*
X165614500Y-36253713D01*
X165614500Y-36466287D01*
X165647754Y-36676243D01*
X165681399Y-36779792D01*
X165713444Y-36878414D01*
X165809951Y-37067820D01*
X165934890Y-37239786D01*
X166085213Y-37390109D01*
X166257182Y-37515050D01*
X166265946Y-37519516D01*
X166316742Y-37567491D01*
X166333536Y-37635312D01*
X166310998Y-37701447D01*
X166265946Y-37740484D01*
X166257182Y-37744949D01*
X166085213Y-37869890D01*
X165934890Y-38020213D01*
X165809951Y-38192179D01*
X165713444Y-38381585D01*
X165647753Y-38583760D01*
X165620435Y-38756239D01*
X165614500Y-38793713D01*
X165614500Y-39006287D01*
X165647754Y-39216243D01*
X165681399Y-39319792D01*
X165713444Y-39418414D01*
X165809951Y-39607820D01*
X165934890Y-39779786D01*
X166085213Y-39930109D01*
X166257182Y-40055050D01*
X166265946Y-40059516D01*
X166316742Y-40107491D01*
X166333536Y-40175312D01*
X166310998Y-40241447D01*
X166265946Y-40280484D01*
X166257182Y-40284949D01*
X166085213Y-40409890D01*
X165934890Y-40560213D01*
X165809951Y-40732179D01*
X165713444Y-40921585D01*
X165647753Y-41123760D01*
X165630374Y-41233489D01*
X165614500Y-41333713D01*
X165614500Y-41546287D01*
X165647754Y-41756243D01*
X165681399Y-41859792D01*
X165713444Y-41958414D01*
X165809951Y-42147820D01*
X165934890Y-42319786D01*
X166085213Y-42470109D01*
X166257182Y-42595050D01*
X166265946Y-42599516D01*
X166316742Y-42647491D01*
X166333536Y-42715312D01*
X166310998Y-42781447D01*
X166265946Y-42820484D01*
X166257182Y-42824949D01*
X166085213Y-42949890D01*
X165934890Y-43100213D01*
X165809951Y-43272179D01*
X165713444Y-43461585D01*
X165647753Y-43663760D01*
X165620435Y-43836239D01*
X165614500Y-43873713D01*
X165614500Y-44086287D01*
X165647754Y-44296243D01*
X165681399Y-44399792D01*
X165713444Y-44498414D01*
X165809951Y-44687820D01*
X165934890Y-44859786D01*
X166085213Y-45010109D01*
X166257182Y-45135050D01*
X166265946Y-45139516D01*
X166316742Y-45187491D01*
X166333536Y-45255312D01*
X166310998Y-45321447D01*
X166265946Y-45360484D01*
X166257182Y-45364949D01*
X166085213Y-45489890D01*
X165934890Y-45640213D01*
X165809951Y-45812179D01*
X165713444Y-46001585D01*
X165647753Y-46203760D01*
X165620435Y-46376239D01*
X165614500Y-46413713D01*
X165614500Y-46626287D01*
X165647754Y-46836243D01*
X165681399Y-46939792D01*
X165713444Y-47038414D01*
X165809951Y-47227820D01*
X165934890Y-47399786D01*
X166085213Y-47550109D01*
X166257182Y-47675050D01*
X166265946Y-47679516D01*
X166316742Y-47727491D01*
X166333536Y-47795312D01*
X166310998Y-47861447D01*
X166265946Y-47900484D01*
X166257182Y-47904949D01*
X166085213Y-48029890D01*
X165934890Y-48180213D01*
X165809951Y-48352179D01*
X165713444Y-48541585D01*
X165647753Y-48743760D01*
X165614500Y-48953713D01*
X165614500Y-49166286D01*
X165636874Y-49307554D01*
X165647754Y-49376243D01*
X165691445Y-49510710D01*
X165713444Y-49578414D01*
X165809951Y-49767820D01*
X165934890Y-49939786D01*
X166085213Y-50090109D01*
X166257182Y-50215050D01*
X166265946Y-50219516D01*
X166316742Y-50267491D01*
X166333536Y-50335312D01*
X166310998Y-50401447D01*
X166265946Y-50440484D01*
X166257182Y-50444949D01*
X166085213Y-50569890D01*
X165934890Y-50720213D01*
X165809951Y-50892179D01*
X165713444Y-51081585D01*
X165647753Y-51283760D01*
X165614500Y-51493713D01*
X165614500Y-51706286D01*
X165640712Y-51871786D01*
X165647754Y-51916243D01*
X165710803Y-52110288D01*
X165713444Y-52118414D01*
X165809951Y-52307820D01*
X165934890Y-52479786D01*
X166085213Y-52630109D01*
X166257182Y-52755050D01*
X166265946Y-52759516D01*
X166316742Y-52807491D01*
X166333536Y-52875312D01*
X166310998Y-52941447D01*
X166265946Y-52980484D01*
X166257182Y-52984949D01*
X166085213Y-53109890D01*
X165934890Y-53260213D01*
X165809951Y-53432179D01*
X165713444Y-53621585D01*
X165647753Y-53823760D01*
X165614500Y-54033713D01*
X165614500Y-54246286D01*
X165631865Y-54355928D01*
X165647754Y-54456243D01*
X165712920Y-54656803D01*
X165713444Y-54658414D01*
X165809951Y-54847820D01*
X165934890Y-55019786D01*
X166048430Y-55133326D01*
X166081915Y-55194649D01*
X166076931Y-55264341D01*
X166035059Y-55320274D01*
X166004083Y-55337189D01*
X165872669Y-55386203D01*
X165872664Y-55386206D01*
X165757455Y-55472452D01*
X165757452Y-55472455D01*
X165671206Y-55587664D01*
X165671202Y-55587671D01*
X165620908Y-55722517D01*
X165614501Y-55782116D01*
X165614501Y-55782123D01*
X165614500Y-55782135D01*
X165614500Y-57577870D01*
X165614501Y-57577876D01*
X165620908Y-57637483D01*
X165671202Y-57772328D01*
X165671206Y-57772335D01*
X165757452Y-57887544D01*
X165757455Y-57887547D01*
X165872664Y-57973793D01*
X165872671Y-57973797D01*
X166007517Y-58024091D01*
X166007516Y-58024091D01*
X166014444Y-58024835D01*
X166067127Y-58030500D01*
X167862872Y-58030499D01*
X167922483Y-58024091D01*
X168057331Y-57973796D01*
X168172546Y-57887546D01*
X168258796Y-57772331D01*
X168309091Y-57637483D01*
X168315500Y-57577873D01*
X168315499Y-55782128D01*
X168309091Y-55722517D01*
X168289606Y-55670276D01*
X168258797Y-55587671D01*
X168258793Y-55587664D01*
X168172547Y-55472455D01*
X168172544Y-55472452D01*
X168057335Y-55386206D01*
X168057328Y-55386202D01*
X167925917Y-55337189D01*
X167869983Y-55295318D01*
X167845566Y-55229853D01*
X167860418Y-55161580D01*
X167881563Y-55133332D01*
X167995104Y-55019792D01*
X168032411Y-54968443D01*
X168122915Y-54843875D01*
X168124259Y-54844851D01*
X168170705Y-54802834D01*
X168224618Y-54790500D01*
X168819192Y-54790500D01*
X168886231Y-54810185D01*
X168906873Y-54826819D01*
X170932984Y-56852930D01*
X170966469Y-56914253D01*
X170966920Y-56916420D01*
X170980261Y-56983489D01*
X170980264Y-56983501D01*
X171040602Y-57129172D01*
X171040609Y-57129185D01*
X171128210Y-57260288D01*
X171128213Y-57260292D01*
X171239707Y-57371786D01*
X171239711Y-57371789D01*
X171370814Y-57459390D01*
X171370827Y-57459397D01*
X171516498Y-57519735D01*
X171516503Y-57519737D01*
X171671153Y-57550499D01*
X171671156Y-57550500D01*
X171671158Y-57550500D01*
X171828844Y-57550500D01*
X171828845Y-57550499D01*
X171983497Y-57519737D01*
X172129179Y-57459394D01*
X172260289Y-57371789D01*
X172371789Y-57260289D01*
X172459394Y-57129179D01*
X172519737Y-56983497D01*
X172550500Y-56828842D01*
X172550500Y-56671158D01*
X172550500Y-56671155D01*
X172550499Y-56671153D01*
X172543143Y-56634174D01*
X172519737Y-56516503D01*
X172468578Y-56392993D01*
X172459397Y-56370827D01*
X172459390Y-56370814D01*
X172371789Y-56239711D01*
X172371786Y-56239707D01*
X172260292Y-56128213D01*
X172260288Y-56128210D01*
X172129185Y-56040609D01*
X172129172Y-56040602D01*
X171983501Y-55980264D01*
X171983489Y-55980261D01*
X171916420Y-55966920D01*
X171854509Y-55934535D01*
X171852930Y-55932984D01*
X169554674Y-53634727D01*
X169554673Y-53634726D01*
X169554669Y-53634723D01*
X169448127Y-53563535D01*
X169329744Y-53514499D01*
X169329738Y-53514497D01*
X169204071Y-53489500D01*
X169204069Y-53489500D01*
X168224618Y-53489500D01*
X168157579Y-53469815D01*
X168123900Y-53435408D01*
X168122915Y-53436125D01*
X167995109Y-53260213D01*
X167844786Y-53109890D01*
X167672820Y-52984951D01*
X167672115Y-52984591D01*
X167664054Y-52980485D01*
X167613259Y-52932512D01*
X167596463Y-52864692D01*
X167618999Y-52798556D01*
X167664054Y-52759515D01*
X167672816Y-52755051D01*
X167766931Y-52686673D01*
X167844786Y-52630109D01*
X167844788Y-52630106D01*
X167844792Y-52630104D01*
X167995104Y-52479792D01*
X167995106Y-52479788D01*
X167995109Y-52479786D01*
X168122915Y-52303875D01*
X168124259Y-52304851D01*
X168170705Y-52262834D01*
X168224618Y-52250500D01*
X170995065Y-52250500D01*
X171062104Y-52270185D01*
X171063909Y-52271366D01*
X171120821Y-52309394D01*
X171120823Y-52309395D01*
X171120827Y-52309397D01*
X171212931Y-52347547D01*
X171266503Y-52369737D01*
X171421153Y-52400499D01*
X171421156Y-52400500D01*
X171421158Y-52400500D01*
X171578844Y-52400500D01*
X171578845Y-52400499D01*
X171733497Y-52369737D01*
X171879179Y-52309394D01*
X172010289Y-52221789D01*
X172121789Y-52110289D01*
X172209394Y-51979179D01*
X172269737Y-51833497D01*
X172300500Y-51678842D01*
X172300500Y-51521158D01*
X172300500Y-51521155D01*
X172300499Y-51521153D01*
X172295041Y-51493713D01*
X172269737Y-51366503D01*
X172254139Y-51328846D01*
X172209397Y-51220827D01*
X172209390Y-51220814D01*
X172121789Y-51089711D01*
X172121786Y-51089707D01*
X172010292Y-50978213D01*
X172010288Y-50978210D01*
X171879185Y-50890609D01*
X171879172Y-50890602D01*
X171733501Y-50830264D01*
X171733489Y-50830261D01*
X171578845Y-50799500D01*
X171578842Y-50799500D01*
X171421158Y-50799500D01*
X171421155Y-50799500D01*
X171266510Y-50830261D01*
X171266498Y-50830264D01*
X171120827Y-50890602D01*
X171120820Y-50890606D01*
X171113634Y-50895408D01*
X171063955Y-50928602D01*
X170997279Y-50949480D01*
X170995065Y-50949500D01*
X168224618Y-50949500D01*
X168157579Y-50929815D01*
X168123900Y-50895408D01*
X168122915Y-50896125D01*
X167995109Y-50720213D01*
X167844786Y-50569890D01*
X167672820Y-50444951D01*
X167672115Y-50444591D01*
X167664054Y-50440485D01*
X167613259Y-50392512D01*
X167596463Y-50324692D01*
X167618999Y-50258556D01*
X167664054Y-50219515D01*
X167672816Y-50215051D01*
X167802504Y-50120828D01*
X167844786Y-50090109D01*
X167844788Y-50090106D01*
X167844792Y-50090104D01*
X167995104Y-49939792D01*
X167995106Y-49939788D01*
X167995109Y-49939786D01*
X168120048Y-49767820D01*
X168120047Y-49767820D01*
X168120051Y-49767816D01*
X168216557Y-49578412D01*
X168282246Y-49376243D01*
X168315500Y-49166287D01*
X168315500Y-48953713D01*
X168282246Y-48743757D01*
X168216557Y-48541588D01*
X168120051Y-48352184D01*
X168120049Y-48352181D01*
X168120048Y-48352179D01*
X167995109Y-48180213D01*
X167844786Y-48029890D01*
X167672820Y-47904951D01*
X167672115Y-47904591D01*
X167664054Y-47900485D01*
X167613259Y-47852512D01*
X167596463Y-47784692D01*
X167618999Y-47718556D01*
X167664054Y-47679515D01*
X167672816Y-47675051D01*
X167694789Y-47659086D01*
X167844786Y-47550109D01*
X167844788Y-47550106D01*
X167844792Y-47550104D01*
X167995104Y-47399792D01*
X167995106Y-47399788D01*
X167995109Y-47399786D01*
X168120048Y-47227820D01*
X168120047Y-47227820D01*
X168120051Y-47227816D01*
X168216557Y-47038412D01*
X168282246Y-46836243D01*
X168315500Y-46626287D01*
X168315500Y-46413713D01*
X168282246Y-46203757D01*
X168216557Y-46001588D01*
X168120051Y-45812184D01*
X168120049Y-45812181D01*
X168120048Y-45812179D01*
X167995109Y-45640213D01*
X167844786Y-45489890D01*
X167672820Y-45364951D01*
X167672115Y-45364591D01*
X167664054Y-45360485D01*
X167613259Y-45312512D01*
X167596463Y-45244692D01*
X167618999Y-45178556D01*
X167664054Y-45139515D01*
X167672816Y-45135051D01*
X167731610Y-45092335D01*
X167844786Y-45010109D01*
X167844788Y-45010106D01*
X167844792Y-45010104D01*
X167995104Y-44859792D01*
X167995106Y-44859788D01*
X167995109Y-44859786D01*
X168120048Y-44687820D01*
X168120047Y-44687820D01*
X168120051Y-44687816D01*
X168216557Y-44498412D01*
X168282246Y-44296243D01*
X168315500Y-44086287D01*
X168315500Y-43873713D01*
X168282246Y-43663757D01*
X168216557Y-43461588D01*
X168120051Y-43272184D01*
X168120049Y-43272181D01*
X168120048Y-43272179D01*
X167995109Y-43100213D01*
X167844786Y-42949890D01*
X167672820Y-42824951D01*
X167672115Y-42824591D01*
X167664054Y-42820485D01*
X167613259Y-42772512D01*
X167596463Y-42704692D01*
X167618999Y-42638556D01*
X167664054Y-42599515D01*
X167672816Y-42595051D01*
X167783481Y-42514649D01*
X167844786Y-42470109D01*
X167844788Y-42470106D01*
X167844792Y-42470104D01*
X167995104Y-42319792D01*
X167995106Y-42319788D01*
X167995109Y-42319786D01*
X168120048Y-42147820D01*
X168120047Y-42147820D01*
X168120051Y-42147816D01*
X168216557Y-41958412D01*
X168282246Y-41756243D01*
X168315500Y-41546287D01*
X168315500Y-41333713D01*
X168282246Y-41123757D01*
X168216557Y-40921588D01*
X168120051Y-40732184D01*
X168120049Y-40732181D01*
X168120048Y-40732179D01*
X167995109Y-40560213D01*
X167844786Y-40409890D01*
X167672820Y-40284951D01*
X167672115Y-40284591D01*
X167664054Y-40280485D01*
X167613259Y-40232512D01*
X167596463Y-40164692D01*
X167618999Y-40098556D01*
X167664054Y-40059515D01*
X167672816Y-40055051D01*
X167694789Y-40039086D01*
X167844786Y-39930109D01*
X167844788Y-39930106D01*
X167844792Y-39930104D01*
X167995104Y-39779792D01*
X167995106Y-39779788D01*
X167995109Y-39779786D01*
X168120048Y-39607820D01*
X168120047Y-39607820D01*
X168120051Y-39607816D01*
X168216557Y-39418412D01*
X168282246Y-39216243D01*
X168315500Y-39006287D01*
X168315500Y-38793713D01*
X168282246Y-38583757D01*
X168216557Y-38381588D01*
X168120051Y-38192184D01*
X168120049Y-38192181D01*
X168120048Y-38192179D01*
X167995109Y-38020213D01*
X167844786Y-37869890D01*
X167672820Y-37744951D01*
X167672115Y-37744591D01*
X167664054Y-37740485D01*
X167613259Y-37692512D01*
X167596463Y-37624692D01*
X167618999Y-37558556D01*
X167664054Y-37519515D01*
X167672816Y-37515051D01*
X167694789Y-37499086D01*
X167844786Y-37390109D01*
X167844788Y-37390106D01*
X167844792Y-37390104D01*
X167995104Y-37239792D01*
X167995106Y-37239788D01*
X167995109Y-37239786D01*
X168120048Y-37067820D01*
X168120047Y-37067820D01*
X168120051Y-37067816D01*
X168216557Y-36878412D01*
X168282246Y-36676243D01*
X168315500Y-36466287D01*
X168315500Y-36253713D01*
X168282246Y-36043757D01*
X168216557Y-35841588D01*
X168120051Y-35652184D01*
X168120049Y-35652181D01*
X168120048Y-35652179D01*
X167995109Y-35480213D01*
X167844786Y-35329890D01*
X167672820Y-35204951D01*
X167672115Y-35204591D01*
X167664054Y-35200485D01*
X167613259Y-35152512D01*
X167596463Y-35084692D01*
X167618999Y-35018556D01*
X167664054Y-34979515D01*
X167672816Y-34975051D01*
X167694789Y-34959086D01*
X167844786Y-34850109D01*
X167844788Y-34850106D01*
X167844792Y-34850104D01*
X167995104Y-34699792D01*
X167995106Y-34699788D01*
X167995109Y-34699786D01*
X168120048Y-34527820D01*
X168120047Y-34527820D01*
X168120051Y-34527816D01*
X168216557Y-34338412D01*
X168282246Y-34136243D01*
X168315500Y-33926287D01*
X168315500Y-33713713D01*
X168282246Y-33503757D01*
X168216557Y-33301588D01*
X168120051Y-33112184D01*
X168120049Y-33112181D01*
X168120048Y-33112179D01*
X167995109Y-32940213D01*
X167844786Y-32789890D01*
X167672820Y-32664951D01*
X167672115Y-32664591D01*
X167664054Y-32660485D01*
X167613259Y-32612512D01*
X167596463Y-32544692D01*
X167618999Y-32478556D01*
X167664054Y-32439515D01*
X167672816Y-32435051D01*
X167737885Y-32387776D01*
X167844786Y-32310109D01*
X167844788Y-32310106D01*
X167844792Y-32310104D01*
X167995104Y-32159792D01*
X167995106Y-32159788D01*
X167995109Y-32159786D01*
X168120048Y-31987820D01*
X168120047Y-31987820D01*
X168120051Y-31987816D01*
X168216557Y-31798412D01*
X168282246Y-31596243D01*
X168315500Y-31386287D01*
X168315500Y-31173713D01*
X168282246Y-30963757D01*
X168216557Y-30761588D01*
X168120051Y-30572184D01*
X168120049Y-30572181D01*
X168120048Y-30572179D01*
X167995109Y-30400213D01*
X167844786Y-30249890D01*
X167672820Y-30124951D01*
X167672115Y-30124591D01*
X167664054Y-30120485D01*
X167613259Y-30072512D01*
X167596463Y-30004692D01*
X167618999Y-29938556D01*
X167664054Y-29899515D01*
X167672816Y-29895051D01*
X167694789Y-29879086D01*
X167844786Y-29770109D01*
X167844788Y-29770106D01*
X167844792Y-29770104D01*
X167995104Y-29619792D01*
X167995106Y-29619788D01*
X167995109Y-29619786D01*
X168120048Y-29447820D01*
X168120047Y-29447820D01*
X168120051Y-29447816D01*
X168179321Y-29331491D01*
X183499500Y-29331491D01*
X183499500Y-29668508D01*
X183537231Y-30003381D01*
X183537233Y-30003397D01*
X183612223Y-30331953D01*
X183612227Y-30331965D01*
X183723532Y-30650054D01*
X183869752Y-30953683D01*
X183869754Y-30953686D01*
X184049054Y-31239039D01*
X184259175Y-31502523D01*
X184497477Y-31740825D01*
X184760961Y-31950946D01*
X185046314Y-32130246D01*
X185349949Y-32276469D01*
X185588848Y-32360063D01*
X185668034Y-32387772D01*
X185668046Y-32387776D01*
X185996606Y-32462767D01*
X186331492Y-32500499D01*
X186331493Y-32500500D01*
X186331496Y-32500500D01*
X186668507Y-32500500D01*
X186668507Y-32500499D01*
X187003394Y-32462767D01*
X187331954Y-32387776D01*
X187650051Y-32276469D01*
X187953686Y-32130246D01*
X188239039Y-31950946D01*
X188502523Y-31740825D01*
X188740825Y-31502523D01*
X188950946Y-31239039D01*
X189130246Y-30953686D01*
X189276469Y-30650051D01*
X189387776Y-30331954D01*
X189462767Y-30003394D01*
X189500500Y-29668504D01*
X189500500Y-29331496D01*
X189500499Y-29331491D01*
X242499500Y-29331491D01*
X242499500Y-29668508D01*
X242537231Y-30003381D01*
X242537233Y-30003397D01*
X242612223Y-30331953D01*
X242612227Y-30331965D01*
X242723532Y-30650054D01*
X242869752Y-30953683D01*
X242869754Y-30953686D01*
X243049054Y-31239039D01*
X243259175Y-31502523D01*
X243497477Y-31740825D01*
X243760961Y-31950946D01*
X244046314Y-32130246D01*
X244349949Y-32276469D01*
X244588848Y-32360063D01*
X244668034Y-32387772D01*
X244668046Y-32387776D01*
X244996606Y-32462767D01*
X245331492Y-32500499D01*
X245331493Y-32500500D01*
X245331496Y-32500500D01*
X245668507Y-32500500D01*
X245668507Y-32500499D01*
X246003394Y-32462767D01*
X246331954Y-32387776D01*
X246650051Y-32276469D01*
X246953686Y-32130246D01*
X247239039Y-31950946D01*
X247502523Y-31740825D01*
X247740825Y-31502523D01*
X247950946Y-31239039D01*
X248130246Y-30953686D01*
X248276469Y-30650051D01*
X248387776Y-30331954D01*
X248462767Y-30003394D01*
X248500500Y-29668504D01*
X248500500Y-29331496D01*
X248462767Y-28996606D01*
X248387776Y-28668046D01*
X248380843Y-28648234D01*
X248309295Y-28443760D01*
X248276469Y-28349949D01*
X248130246Y-28046314D01*
X247950946Y-27760961D01*
X247740825Y-27497477D01*
X247502523Y-27259175D01*
X247239039Y-27049054D01*
X246953686Y-26869754D01*
X246953683Y-26869752D01*
X246650054Y-26723532D01*
X246331965Y-26612227D01*
X246331953Y-26612223D01*
X246003397Y-26537233D01*
X246003381Y-26537231D01*
X245668508Y-26499500D01*
X245668504Y-26499500D01*
X245331496Y-26499500D01*
X245331491Y-26499500D01*
X244996618Y-26537231D01*
X244996602Y-26537233D01*
X244668046Y-26612223D01*
X244668034Y-26612227D01*
X244349945Y-26723532D01*
X244046316Y-26869752D01*
X243760962Y-27049053D01*
X243497477Y-27259174D01*
X243259174Y-27497477D01*
X243049053Y-27760962D01*
X242869752Y-28046316D01*
X242723532Y-28349945D01*
X242612227Y-28668034D01*
X242612223Y-28668046D01*
X242537233Y-28996602D01*
X242537231Y-28996618D01*
X242499500Y-29331491D01*
X189500499Y-29331491D01*
X189462767Y-28996606D01*
X189387776Y-28668046D01*
X189380843Y-28648234D01*
X189309295Y-28443760D01*
X189276469Y-28349949D01*
X189130246Y-28046314D01*
X188950946Y-27760961D01*
X188740825Y-27497477D01*
X188502523Y-27259175D01*
X188239039Y-27049054D01*
X187953686Y-26869754D01*
X187953683Y-26869752D01*
X187650054Y-26723532D01*
X187331965Y-26612227D01*
X187331953Y-26612223D01*
X187003397Y-26537233D01*
X187003381Y-26537231D01*
X186668508Y-26499500D01*
X186668504Y-26499500D01*
X186331496Y-26499500D01*
X186331491Y-26499500D01*
X185996618Y-26537231D01*
X185996602Y-26537233D01*
X185668046Y-26612223D01*
X185668034Y-26612227D01*
X185349945Y-26723532D01*
X185046316Y-26869752D01*
X184760962Y-27049053D01*
X184497477Y-27259174D01*
X184259174Y-27497477D01*
X184049053Y-27760962D01*
X183869752Y-28046316D01*
X183723532Y-28349945D01*
X183612227Y-28668034D01*
X183612223Y-28668046D01*
X183537233Y-28996602D01*
X183537231Y-28996618D01*
X183499500Y-29331491D01*
X168179321Y-29331491D01*
X168216557Y-29258412D01*
X168282246Y-29056243D01*
X168315500Y-28846287D01*
X168315500Y-28633713D01*
X168282246Y-28423757D01*
X168216557Y-28221588D01*
X168120051Y-28032184D01*
X168120049Y-28032181D01*
X168120048Y-28032179D01*
X167995109Y-27860213D01*
X167844786Y-27709890D01*
X167672820Y-27584951D01*
X167483414Y-27488444D01*
X167483413Y-27488443D01*
X167483412Y-27488443D01*
X167281243Y-27422754D01*
X167281241Y-27422753D01*
X167281240Y-27422753D01*
X167119957Y-27397208D01*
X167071287Y-27389500D01*
X166858713Y-27389500D01*
X166810042Y-27397208D01*
X166648760Y-27422753D01*
X166446585Y-27488444D01*
X166257179Y-27584951D01*
X166085213Y-27709890D01*
X165934890Y-27860213D01*
X165809951Y-28032179D01*
X165713444Y-28221585D01*
X165647753Y-28423760D01*
X165614500Y-28633713D01*
X150547332Y-28633713D01*
X150517246Y-28443757D01*
X150451557Y-28241588D01*
X150355051Y-28052184D01*
X150355049Y-28052181D01*
X150355048Y-28052179D01*
X150230109Y-27880213D01*
X150079786Y-27729890D01*
X149907820Y-27604951D01*
X149718414Y-27508444D01*
X149718413Y-27508443D01*
X149718412Y-27508443D01*
X149516243Y-27442754D01*
X149516241Y-27442753D01*
X149516240Y-27442753D01*
X149354957Y-27417208D01*
X149306287Y-27409500D01*
X149093713Y-27409500D01*
X149045042Y-27417208D01*
X148883760Y-27442753D01*
X148681585Y-27508444D01*
X148492179Y-27604951D01*
X148320213Y-27729890D01*
X148169890Y-27880213D01*
X148044951Y-28052179D01*
X147948444Y-28241585D01*
X147882753Y-28443760D01*
X147849500Y-28653713D01*
X147849500Y-28866286D01*
X147879585Y-29056239D01*
X147882754Y-29076243D01*
X147946269Y-29271722D01*
X147948444Y-29278414D01*
X148044951Y-29467820D01*
X148169890Y-29639786D01*
X148320213Y-29790109D01*
X148492182Y-29915050D01*
X148500946Y-29919516D01*
X148551742Y-29967491D01*
X148568536Y-30035312D01*
X148545998Y-30101447D01*
X148500946Y-30140484D01*
X148492182Y-30144949D01*
X148320213Y-30269890D01*
X148169890Y-30420213D01*
X148044951Y-30592179D01*
X147948444Y-30781585D01*
X147882753Y-30983760D01*
X147849500Y-31193713D01*
X147849500Y-31406286D01*
X147879585Y-31596239D01*
X147882754Y-31616243D01*
X147941945Y-31798414D01*
X147948444Y-31818414D01*
X148044951Y-32007820D01*
X148169890Y-32179786D01*
X148320213Y-32330109D01*
X148492182Y-32455050D01*
X148500946Y-32459516D01*
X148551742Y-32507491D01*
X148568536Y-32575312D01*
X148545998Y-32641447D01*
X148500946Y-32680484D01*
X148492182Y-32684949D01*
X148320213Y-32809890D01*
X148169890Y-32960213D01*
X148044951Y-33132179D01*
X147948444Y-33321585D01*
X147882753Y-33523760D01*
X147849500Y-33733713D01*
X147849500Y-33946286D01*
X147879585Y-34136239D01*
X147882754Y-34156243D01*
X147941945Y-34338414D01*
X147948444Y-34358414D01*
X148044951Y-34547820D01*
X148169890Y-34719786D01*
X148320213Y-34870109D01*
X148492182Y-34995050D01*
X148500946Y-34999516D01*
X148551742Y-35047491D01*
X148568536Y-35115312D01*
X148545998Y-35181447D01*
X148500946Y-35220484D01*
X148492182Y-35224949D01*
X148320213Y-35349890D01*
X148169890Y-35500213D01*
X148044951Y-35672179D01*
X147948444Y-35861585D01*
X147882753Y-36063760D01*
X147849500Y-36273713D01*
X147849500Y-36486286D01*
X147879585Y-36676239D01*
X147882754Y-36696243D01*
X147941945Y-36878414D01*
X147948444Y-36898414D01*
X148044951Y-37087820D01*
X148169890Y-37259786D01*
X148320213Y-37410109D01*
X148492182Y-37535050D01*
X148500946Y-37539516D01*
X148551742Y-37587491D01*
X148568536Y-37655312D01*
X148545998Y-37721447D01*
X148500946Y-37760484D01*
X148492182Y-37764949D01*
X148320213Y-37889890D01*
X148169890Y-38040213D01*
X148044951Y-38212179D01*
X147948444Y-38401585D01*
X147882753Y-38603760D01*
X147849500Y-38813713D01*
X147849500Y-39026286D01*
X147879585Y-39216239D01*
X147882754Y-39236243D01*
X147941945Y-39418414D01*
X147948444Y-39438414D01*
X148044951Y-39627820D01*
X148169890Y-39799786D01*
X148320213Y-39950109D01*
X148492182Y-40075050D01*
X148500946Y-40079516D01*
X148551742Y-40127491D01*
X148568536Y-40195312D01*
X148545998Y-40261447D01*
X148500946Y-40300484D01*
X148492182Y-40304949D01*
X148320213Y-40429890D01*
X148169890Y-40580213D01*
X148044951Y-40752179D01*
X147948444Y-40941585D01*
X147882753Y-41143760D01*
X147849500Y-41353713D01*
X147849500Y-41566286D01*
X147881723Y-41769738D01*
X147882754Y-41776243D01*
X147941945Y-41958414D01*
X147948444Y-41978414D01*
X148044951Y-42167820D01*
X148169890Y-42339786D01*
X148283430Y-42453326D01*
X148316915Y-42514649D01*
X148311931Y-42584341D01*
X148270059Y-42640274D01*
X148239083Y-42657189D01*
X148107669Y-42706203D01*
X148107664Y-42706206D01*
X147992455Y-42792452D01*
X147992452Y-42792455D01*
X147906206Y-42907664D01*
X147906202Y-42907671D01*
X147855908Y-43042517D01*
X147849501Y-43102116D01*
X147849500Y-43102135D01*
X147849500Y-44897870D01*
X147849501Y-44897876D01*
X147855908Y-44957483D01*
X147906202Y-45092328D01*
X147906206Y-45092335D01*
X147992452Y-45207544D01*
X147992455Y-45207547D01*
X148107664Y-45293793D01*
X148107671Y-45293797D01*
X148239082Y-45342810D01*
X148295016Y-45384681D01*
X148319433Y-45450145D01*
X148304582Y-45518418D01*
X148283431Y-45546673D01*
X148169889Y-45660215D01*
X148044951Y-45832179D01*
X147948444Y-46021585D01*
X147882753Y-46223760D01*
X147849500Y-46433713D01*
X147849500Y-46646286D01*
X147879585Y-46836239D01*
X147882754Y-46856243D01*
X147941945Y-47038414D01*
X147948444Y-47058414D01*
X148044951Y-47247820D01*
X148169890Y-47419786D01*
X148320213Y-47570109D01*
X148492182Y-47695050D01*
X148500946Y-47699516D01*
X148551742Y-47747491D01*
X148568536Y-47815312D01*
X148545998Y-47881447D01*
X148500946Y-47920484D01*
X148492182Y-47924949D01*
X148320213Y-48049890D01*
X148169890Y-48200213D01*
X148044951Y-48372179D01*
X147948444Y-48561585D01*
X147882753Y-48763760D01*
X147849500Y-48973713D01*
X147849500Y-49186286D01*
X147883516Y-49401055D01*
X147881877Y-49401314D01*
X147878738Y-49463883D01*
X147849342Y-49510710D01*
X146274724Y-51085328D01*
X146217375Y-51171159D01*
X146203535Y-51191871D01*
X146154499Y-51310255D01*
X146154497Y-51310261D01*
X146129500Y-51435928D01*
X144500500Y-51435928D01*
X144500500Y-25624500D01*
X144520185Y-25557461D01*
X144572989Y-25511706D01*
X144624500Y-25500500D01*
X249875500Y-25500500D01*
X249942539Y-25520185D01*
G37*
%TD.AperFunction*%
%TD*%
M02*
