%TF.GenerationSoftware,KiCad,Pcbnew,9.0.4-1.fc42*%
%TF.CreationDate,2025-10-10T15:13:49+02:00*%
%TF.ProjectId,BST_PCB,4253545f-5043-4422-9e6b-696361645f70,rev?*%
%TF.SameCoordinates,Original*%
%TF.FileFunction,Legend,Top*%
%TF.FilePolarity,Positive*%
%FSLAX46Y46*%
G04 Gerber Fmt 4.6, Leading zero omitted, Abs format (unit mm)*
G04 Created by KiCad (PCBNEW 9.0.4-1.fc42) date 2025-10-10 15:13:49*
%MOMM*%
%LPD*%
G01*
G04 APERTURE LIST*
%ADD10C,0.100000*%
%ADD11C,0.300000*%
%ADD12C,0.150000*%
%ADD13C,0.120000*%
G04 APERTURE END LIST*
D10*
X146872419Y-109838972D02*
X147872419Y-109505639D01*
X147872419Y-109505639D02*
X146872419Y-109172306D01*
X147872419Y-108838972D02*
X146872419Y-108838972D01*
X147872419Y-108362782D02*
X146872419Y-108362782D01*
X146872419Y-108362782D02*
X147872419Y-107791354D01*
X147872419Y-107791354D02*
X146872419Y-107791354D01*
X152872419Y-120838972D02*
X153872419Y-120505639D01*
X153872419Y-120505639D02*
X152872419Y-120172306D01*
X153872419Y-119696115D02*
X153824800Y-119791353D01*
X153824800Y-119791353D02*
X153777180Y-119838972D01*
X153777180Y-119838972D02*
X153681942Y-119886591D01*
X153681942Y-119886591D02*
X153396228Y-119886591D01*
X153396228Y-119886591D02*
X153300990Y-119838972D01*
X153300990Y-119838972D02*
X153253371Y-119791353D01*
X153253371Y-119791353D02*
X153205752Y-119696115D01*
X153205752Y-119696115D02*
X153205752Y-119553258D01*
X153205752Y-119553258D02*
X153253371Y-119458020D01*
X153253371Y-119458020D02*
X153300990Y-119410401D01*
X153300990Y-119410401D02*
X153396228Y-119362782D01*
X153396228Y-119362782D02*
X153681942Y-119362782D01*
X153681942Y-119362782D02*
X153777180Y-119410401D01*
X153777180Y-119410401D02*
X153824800Y-119458020D01*
X153824800Y-119458020D02*
X153872419Y-119553258D01*
X153872419Y-119553258D02*
X153872419Y-119696115D01*
X153205752Y-118505639D02*
X153872419Y-118505639D01*
X153205752Y-118934210D02*
X153729561Y-118934210D01*
X153729561Y-118934210D02*
X153824800Y-118886591D01*
X153824800Y-118886591D02*
X153872419Y-118791353D01*
X153872419Y-118791353D02*
X153872419Y-118648496D01*
X153872419Y-118648496D02*
X153824800Y-118553258D01*
X153824800Y-118553258D02*
X153777180Y-118505639D01*
X153205752Y-118172305D02*
X153205752Y-117791353D01*
X152872419Y-118029448D02*
X153729561Y-118029448D01*
X153729561Y-118029448D02*
X153824800Y-117981829D01*
X153824800Y-117981829D02*
X153872419Y-117886591D01*
X153872419Y-117886591D02*
X153872419Y-117791353D01*
D11*
X153340225Y-123300828D02*
X153840225Y-124800828D01*
X153840225Y-124800828D02*
X154340225Y-123300828D01*
X155340224Y-124015114D02*
X155554510Y-124086542D01*
X155554510Y-124086542D02*
X155625939Y-124157971D01*
X155625939Y-124157971D02*
X155697367Y-124300828D01*
X155697367Y-124300828D02*
X155697367Y-124515114D01*
X155697367Y-124515114D02*
X155625939Y-124657971D01*
X155625939Y-124657971D02*
X155554510Y-124729400D01*
X155554510Y-124729400D02*
X155411653Y-124800828D01*
X155411653Y-124800828D02*
X154840224Y-124800828D01*
X154840224Y-124800828D02*
X154840224Y-123300828D01*
X154840224Y-123300828D02*
X155340224Y-123300828D01*
X155340224Y-123300828D02*
X155483082Y-123372257D01*
X155483082Y-123372257D02*
X155554510Y-123443685D01*
X155554510Y-123443685D02*
X155625939Y-123586542D01*
X155625939Y-123586542D02*
X155625939Y-123729400D01*
X155625939Y-123729400D02*
X155554510Y-123872257D01*
X155554510Y-123872257D02*
X155483082Y-123943685D01*
X155483082Y-123943685D02*
X155340224Y-124015114D01*
X155340224Y-124015114D02*
X154840224Y-124015114D01*
X156268796Y-124372257D02*
X156983082Y-124372257D01*
X156125939Y-124800828D02*
X156625939Y-123300828D01*
X156625939Y-123300828D02*
X157125939Y-124800828D01*
X157411653Y-123300828D02*
X158268796Y-123300828D01*
X157840224Y-124800828D02*
X157840224Y-123300828D01*
X159911652Y-124800828D02*
X159911652Y-123300828D01*
X160625938Y-124800828D02*
X160625938Y-123300828D01*
X160625938Y-123300828D02*
X161483081Y-124800828D01*
X161483081Y-124800828D02*
X161483081Y-123300828D01*
D10*
X152920038Y-115172306D02*
X152872419Y-115267544D01*
X152872419Y-115267544D02*
X152872419Y-115410401D01*
X152872419Y-115410401D02*
X152920038Y-115553258D01*
X152920038Y-115553258D02*
X153015276Y-115648496D01*
X153015276Y-115648496D02*
X153110514Y-115696115D01*
X153110514Y-115696115D02*
X153300990Y-115743734D01*
X153300990Y-115743734D02*
X153443847Y-115743734D01*
X153443847Y-115743734D02*
X153634323Y-115696115D01*
X153634323Y-115696115D02*
X153729561Y-115648496D01*
X153729561Y-115648496D02*
X153824800Y-115553258D01*
X153824800Y-115553258D02*
X153872419Y-115410401D01*
X153872419Y-115410401D02*
X153872419Y-115315163D01*
X153872419Y-115315163D02*
X153824800Y-115172306D01*
X153824800Y-115172306D02*
X153777180Y-115124687D01*
X153777180Y-115124687D02*
X153443847Y-115124687D01*
X153443847Y-115124687D02*
X153443847Y-115315163D01*
X153872419Y-114696115D02*
X152872419Y-114696115D01*
X152872419Y-114696115D02*
X153872419Y-114124687D01*
X153872419Y-114124687D02*
X152872419Y-114124687D01*
X153872419Y-113648496D02*
X152872419Y-113648496D01*
X152872419Y-113648496D02*
X152872419Y-113410401D01*
X152872419Y-113410401D02*
X152920038Y-113267544D01*
X152920038Y-113267544D02*
X153015276Y-113172306D01*
X153015276Y-113172306D02*
X153110514Y-113124687D01*
X153110514Y-113124687D02*
X153300990Y-113077068D01*
X153300990Y-113077068D02*
X153443847Y-113077068D01*
X153443847Y-113077068D02*
X153634323Y-113124687D01*
X153634323Y-113124687D02*
X153729561Y-113172306D01*
X153729561Y-113172306D02*
X153824800Y-113267544D01*
X153824800Y-113267544D02*
X153872419Y-113410401D01*
X153872419Y-113410401D02*
X153872419Y-113648496D01*
D11*
X169840225Y-126872257D02*
X169697368Y-126800828D01*
X169697368Y-126800828D02*
X169483082Y-126800828D01*
X169483082Y-126800828D02*
X169268796Y-126872257D01*
X169268796Y-126872257D02*
X169125939Y-127015114D01*
X169125939Y-127015114D02*
X169054510Y-127157971D01*
X169054510Y-127157971D02*
X168983082Y-127443685D01*
X168983082Y-127443685D02*
X168983082Y-127657971D01*
X168983082Y-127657971D02*
X169054510Y-127943685D01*
X169054510Y-127943685D02*
X169125939Y-128086542D01*
X169125939Y-128086542D02*
X169268796Y-128229400D01*
X169268796Y-128229400D02*
X169483082Y-128300828D01*
X169483082Y-128300828D02*
X169625939Y-128300828D01*
X169625939Y-128300828D02*
X169840225Y-128229400D01*
X169840225Y-128229400D02*
X169911653Y-128157971D01*
X169911653Y-128157971D02*
X169911653Y-127657971D01*
X169911653Y-127657971D02*
X169625939Y-127657971D01*
X170554510Y-128300828D02*
X170554510Y-126800828D01*
X170554510Y-126800828D02*
X171411653Y-128300828D01*
X171411653Y-128300828D02*
X171411653Y-126800828D01*
X172125939Y-128300828D02*
X172125939Y-126800828D01*
X172125939Y-126800828D02*
X172483082Y-126800828D01*
X172483082Y-126800828D02*
X172697368Y-126872257D01*
X172697368Y-126872257D02*
X172840225Y-127015114D01*
X172840225Y-127015114D02*
X172911654Y-127157971D01*
X172911654Y-127157971D02*
X172983082Y-127443685D01*
X172983082Y-127443685D02*
X172983082Y-127657971D01*
X172983082Y-127657971D02*
X172911654Y-127943685D01*
X172911654Y-127943685D02*
X172840225Y-128086542D01*
X172840225Y-128086542D02*
X172697368Y-128229400D01*
X172697368Y-128229400D02*
X172483082Y-128300828D01*
X172483082Y-128300828D02*
X172125939Y-128300828D01*
X174125939Y-127515114D02*
X174340225Y-127586542D01*
X174340225Y-127586542D02*
X174411654Y-127657971D01*
X174411654Y-127657971D02*
X174483082Y-127800828D01*
X174483082Y-127800828D02*
X174483082Y-128015114D01*
X174483082Y-128015114D02*
X174411654Y-128157971D01*
X174411654Y-128157971D02*
X174340225Y-128229400D01*
X174340225Y-128229400D02*
X174197368Y-128300828D01*
X174197368Y-128300828D02*
X173625939Y-128300828D01*
X173625939Y-128300828D02*
X173625939Y-126800828D01*
X173625939Y-126800828D02*
X174125939Y-126800828D01*
X174125939Y-126800828D02*
X174268797Y-126872257D01*
X174268797Y-126872257D02*
X174340225Y-126943685D01*
X174340225Y-126943685D02*
X174411654Y-127086542D01*
X174411654Y-127086542D02*
X174411654Y-127229400D01*
X174411654Y-127229400D02*
X174340225Y-127372257D01*
X174340225Y-127372257D02*
X174268797Y-127443685D01*
X174268797Y-127443685D02*
X174125939Y-127515114D01*
X174125939Y-127515114D02*
X173625939Y-127515114D01*
X175054511Y-127872257D02*
X175768797Y-127872257D01*
X174911654Y-128300828D02*
X175411654Y-126800828D01*
X175411654Y-126800828D02*
X175911654Y-128300828D01*
X176197368Y-126800828D02*
X177054511Y-126800828D01*
X176625939Y-128300828D02*
X176625939Y-126800828D01*
X177340225Y-126800828D02*
X178197368Y-126800828D01*
X177768796Y-128300828D02*
X177768796Y-126800828D01*
D10*
X188140200Y-105811904D02*
X188092580Y-105954761D01*
X188092580Y-105954761D02*
X188092580Y-106192856D01*
X188092580Y-106192856D02*
X188140200Y-106288094D01*
X188140200Y-106288094D02*
X188187819Y-106335713D01*
X188187819Y-106335713D02*
X188283057Y-106383332D01*
X188283057Y-106383332D02*
X188378295Y-106383332D01*
X188378295Y-106383332D02*
X188473533Y-106335713D01*
X188473533Y-106335713D02*
X188521152Y-106288094D01*
X188521152Y-106288094D02*
X188568771Y-106192856D01*
X188568771Y-106192856D02*
X188616390Y-106002380D01*
X188616390Y-106002380D02*
X188664009Y-105907142D01*
X188664009Y-105907142D02*
X188711628Y-105859523D01*
X188711628Y-105859523D02*
X188806866Y-105811904D01*
X188806866Y-105811904D02*
X188902104Y-105811904D01*
X188902104Y-105811904D02*
X188997342Y-105859523D01*
X188997342Y-105859523D02*
X189044961Y-105907142D01*
X189044961Y-105907142D02*
X189092580Y-106002380D01*
X189092580Y-106002380D02*
X189092580Y-106240475D01*
X189092580Y-106240475D02*
X189044961Y-106383332D01*
X188759247Y-107240475D02*
X188092580Y-107240475D01*
X188759247Y-106811904D02*
X188235438Y-106811904D01*
X188235438Y-106811904D02*
X188140200Y-106859523D01*
X188140200Y-106859523D02*
X188092580Y-106954761D01*
X188092580Y-106954761D02*
X188092580Y-107097618D01*
X188092580Y-107097618D02*
X188140200Y-107192856D01*
X188140200Y-107192856D02*
X188187819Y-107240475D01*
X188759247Y-107716666D02*
X187759247Y-107716666D01*
X188711628Y-107716666D02*
X188759247Y-107811904D01*
X188759247Y-107811904D02*
X188759247Y-108002380D01*
X188759247Y-108002380D02*
X188711628Y-108097618D01*
X188711628Y-108097618D02*
X188664009Y-108145237D01*
X188664009Y-108145237D02*
X188568771Y-108192856D01*
X188568771Y-108192856D02*
X188283057Y-108192856D01*
X188283057Y-108192856D02*
X188187819Y-108145237D01*
X188187819Y-108145237D02*
X188140200Y-108097618D01*
X188140200Y-108097618D02*
X188092580Y-108002380D01*
X188092580Y-108002380D02*
X188092580Y-107811904D01*
X188092580Y-107811904D02*
X188140200Y-107716666D01*
X188140200Y-109002380D02*
X188092580Y-108907142D01*
X188092580Y-108907142D02*
X188092580Y-108716666D01*
X188092580Y-108716666D02*
X188140200Y-108621428D01*
X188140200Y-108621428D02*
X188235438Y-108573809D01*
X188235438Y-108573809D02*
X188616390Y-108573809D01*
X188616390Y-108573809D02*
X188711628Y-108621428D01*
X188711628Y-108621428D02*
X188759247Y-108716666D01*
X188759247Y-108716666D02*
X188759247Y-108907142D01*
X188759247Y-108907142D02*
X188711628Y-109002380D01*
X188711628Y-109002380D02*
X188616390Y-109049999D01*
X188616390Y-109049999D02*
X188521152Y-109049999D01*
X188521152Y-109049999D02*
X188425914Y-108573809D01*
X188092580Y-109478571D02*
X188759247Y-109478571D01*
X188568771Y-109478571D02*
X188664009Y-109526190D01*
X188664009Y-109526190D02*
X188711628Y-109573809D01*
X188711628Y-109573809D02*
X188759247Y-109669047D01*
X188759247Y-109669047D02*
X188759247Y-109764285D01*
X188140200Y-110526190D02*
X188092580Y-110430952D01*
X188092580Y-110430952D02*
X188092580Y-110240476D01*
X188092580Y-110240476D02*
X188140200Y-110145238D01*
X188140200Y-110145238D02*
X188187819Y-110097619D01*
X188187819Y-110097619D02*
X188283057Y-110050000D01*
X188283057Y-110050000D02*
X188568771Y-110050000D01*
X188568771Y-110050000D02*
X188664009Y-110097619D01*
X188664009Y-110097619D02*
X188711628Y-110145238D01*
X188711628Y-110145238D02*
X188759247Y-110240476D01*
X188759247Y-110240476D02*
X188759247Y-110430952D01*
X188759247Y-110430952D02*
X188711628Y-110526190D01*
X188092580Y-111383333D02*
X188616390Y-111383333D01*
X188616390Y-111383333D02*
X188711628Y-111335714D01*
X188711628Y-111335714D02*
X188759247Y-111240476D01*
X188759247Y-111240476D02*
X188759247Y-111050000D01*
X188759247Y-111050000D02*
X188711628Y-110954762D01*
X188140200Y-111383333D02*
X188092580Y-111288095D01*
X188092580Y-111288095D02*
X188092580Y-111050000D01*
X188092580Y-111050000D02*
X188140200Y-110954762D01*
X188140200Y-110954762D02*
X188235438Y-110907143D01*
X188235438Y-110907143D02*
X188330676Y-110907143D01*
X188330676Y-110907143D02*
X188425914Y-110954762D01*
X188425914Y-110954762D02*
X188473533Y-111050000D01*
X188473533Y-111050000D02*
X188473533Y-111288095D01*
X188473533Y-111288095D02*
X188521152Y-111383333D01*
X188759247Y-111859524D02*
X187759247Y-111859524D01*
X188711628Y-111859524D02*
X188759247Y-111954762D01*
X188759247Y-111954762D02*
X188759247Y-112145238D01*
X188759247Y-112145238D02*
X188711628Y-112240476D01*
X188711628Y-112240476D02*
X188664009Y-112288095D01*
X188664009Y-112288095D02*
X188568771Y-112335714D01*
X188568771Y-112335714D02*
X188283057Y-112335714D01*
X188283057Y-112335714D02*
X188187819Y-112288095D01*
X188187819Y-112288095D02*
X188140200Y-112240476D01*
X188140200Y-112240476D02*
X188092580Y-112145238D01*
X188092580Y-112145238D02*
X188092580Y-111954762D01*
X188092580Y-111954762D02*
X188140200Y-111859524D01*
X188092580Y-113288095D02*
X188092580Y-112716667D01*
X188092580Y-113002381D02*
X189092580Y-113002381D01*
X189092580Y-113002381D02*
X188949723Y-112907143D01*
X188949723Y-112907143D02*
X188854485Y-112811905D01*
X188854485Y-112811905D02*
X188806866Y-112716667D01*
X186269925Y-105677580D02*
X186746115Y-105677580D01*
X186746115Y-105677580D02*
X186793734Y-105201390D01*
X186793734Y-105201390D02*
X186746115Y-105249009D01*
X186746115Y-105249009D02*
X186650877Y-105296628D01*
X186650877Y-105296628D02*
X186412782Y-105296628D01*
X186412782Y-105296628D02*
X186317544Y-105249009D01*
X186317544Y-105249009D02*
X186269925Y-105201390D01*
X186269925Y-105201390D02*
X186222306Y-105106152D01*
X186222306Y-105106152D02*
X186222306Y-104868057D01*
X186222306Y-104868057D02*
X186269925Y-104772819D01*
X186269925Y-104772819D02*
X186317544Y-104725200D01*
X186317544Y-104725200D02*
X186412782Y-104677580D01*
X186412782Y-104677580D02*
X186650877Y-104677580D01*
X186650877Y-104677580D02*
X186746115Y-104725200D01*
X186746115Y-104725200D02*
X186793734Y-104772819D01*
X185936591Y-105677580D02*
X185603258Y-104677580D01*
X185603258Y-104677580D02*
X185269925Y-105677580D01*
X186222306Y-113629961D02*
X186317544Y-113677580D01*
X186317544Y-113677580D02*
X186460401Y-113677580D01*
X186460401Y-113677580D02*
X186603258Y-113629961D01*
X186603258Y-113629961D02*
X186698496Y-113534723D01*
X186698496Y-113534723D02*
X186746115Y-113439485D01*
X186746115Y-113439485D02*
X186793734Y-113249009D01*
X186793734Y-113249009D02*
X186793734Y-113106152D01*
X186793734Y-113106152D02*
X186746115Y-112915676D01*
X186746115Y-112915676D02*
X186698496Y-112820438D01*
X186698496Y-112820438D02*
X186603258Y-112725200D01*
X186603258Y-112725200D02*
X186460401Y-112677580D01*
X186460401Y-112677580D02*
X186365163Y-112677580D01*
X186365163Y-112677580D02*
X186222306Y-112725200D01*
X186222306Y-112725200D02*
X186174687Y-112772819D01*
X186174687Y-112772819D02*
X186174687Y-113106152D01*
X186174687Y-113106152D02*
X186365163Y-113106152D01*
X185746115Y-112677580D02*
X185746115Y-113677580D01*
X185746115Y-113677580D02*
X185174687Y-112677580D01*
X185174687Y-112677580D02*
X185174687Y-113677580D01*
X184698496Y-112677580D02*
X184698496Y-113677580D01*
X184698496Y-113677580D02*
X184460401Y-113677580D01*
X184460401Y-113677580D02*
X184317544Y-113629961D01*
X184317544Y-113629961D02*
X184222306Y-113534723D01*
X184222306Y-113534723D02*
X184174687Y-113439485D01*
X184174687Y-113439485D02*
X184127068Y-113249009D01*
X184127068Y-113249009D02*
X184127068Y-113106152D01*
X184127068Y-113106152D02*
X184174687Y-112915676D01*
X184174687Y-112915676D02*
X184222306Y-112820438D01*
X184222306Y-112820438D02*
X184317544Y-112725200D01*
X184317544Y-112725200D02*
X184460401Y-112677580D01*
X184460401Y-112677580D02*
X184698496Y-112677580D01*
X156457419Y-115642857D02*
X155457419Y-115642857D01*
X155457419Y-115642857D02*
X155457419Y-115261905D01*
X155457419Y-115261905D02*
X155505038Y-115166667D01*
X155505038Y-115166667D02*
X155552657Y-115119048D01*
X155552657Y-115119048D02*
X155647895Y-115071429D01*
X155647895Y-115071429D02*
X155790752Y-115071429D01*
X155790752Y-115071429D02*
X155885990Y-115119048D01*
X155885990Y-115119048D02*
X155933609Y-115166667D01*
X155933609Y-115166667D02*
X155981228Y-115261905D01*
X155981228Y-115261905D02*
X155981228Y-115642857D01*
X156457419Y-114500000D02*
X156409800Y-114595238D01*
X156409800Y-114595238D02*
X156362180Y-114642857D01*
X156362180Y-114642857D02*
X156266942Y-114690476D01*
X156266942Y-114690476D02*
X155981228Y-114690476D01*
X155981228Y-114690476D02*
X155885990Y-114642857D01*
X155885990Y-114642857D02*
X155838371Y-114595238D01*
X155838371Y-114595238D02*
X155790752Y-114500000D01*
X155790752Y-114500000D02*
X155790752Y-114357143D01*
X155790752Y-114357143D02*
X155838371Y-114261905D01*
X155838371Y-114261905D02*
X155885990Y-114214286D01*
X155885990Y-114214286D02*
X155981228Y-114166667D01*
X155981228Y-114166667D02*
X156266942Y-114166667D01*
X156266942Y-114166667D02*
X156362180Y-114214286D01*
X156362180Y-114214286D02*
X156409800Y-114261905D01*
X156409800Y-114261905D02*
X156457419Y-114357143D01*
X156457419Y-114357143D02*
X156457419Y-114500000D01*
X156457419Y-113595238D02*
X156409800Y-113690476D01*
X156409800Y-113690476D02*
X156314561Y-113738095D01*
X156314561Y-113738095D02*
X155457419Y-113738095D01*
X156457419Y-113071428D02*
X156409800Y-113166666D01*
X156409800Y-113166666D02*
X156362180Y-113214285D01*
X156362180Y-113214285D02*
X156266942Y-113261904D01*
X156266942Y-113261904D02*
X155981228Y-113261904D01*
X155981228Y-113261904D02*
X155885990Y-113214285D01*
X155885990Y-113214285D02*
X155838371Y-113166666D01*
X155838371Y-113166666D02*
X155790752Y-113071428D01*
X155790752Y-113071428D02*
X155790752Y-112928571D01*
X155790752Y-112928571D02*
X155838371Y-112833333D01*
X155838371Y-112833333D02*
X155885990Y-112785714D01*
X155885990Y-112785714D02*
X155981228Y-112738095D01*
X155981228Y-112738095D02*
X156266942Y-112738095D01*
X156266942Y-112738095D02*
X156362180Y-112785714D01*
X156362180Y-112785714D02*
X156409800Y-112833333D01*
X156409800Y-112833333D02*
X156457419Y-112928571D01*
X156457419Y-112928571D02*
X156457419Y-113071428D01*
X156457419Y-112166666D02*
X156409800Y-112261904D01*
X156409800Y-112261904D02*
X156314561Y-112309523D01*
X156314561Y-112309523D02*
X155457419Y-112309523D01*
X155790752Y-111357142D02*
X156457419Y-111357142D01*
X155790752Y-111785713D02*
X156314561Y-111785713D01*
X156314561Y-111785713D02*
X156409800Y-111738094D01*
X156409800Y-111738094D02*
X156457419Y-111642856D01*
X156457419Y-111642856D02*
X156457419Y-111499999D01*
X156457419Y-111499999D02*
X156409800Y-111404761D01*
X156409800Y-111404761D02*
X156362180Y-111357142D01*
X199198570Y-104112300D02*
X199341427Y-104159919D01*
X199341427Y-104159919D02*
X199579522Y-104159919D01*
X199579522Y-104159919D02*
X199674760Y-104112300D01*
X199674760Y-104112300D02*
X199722379Y-104064680D01*
X199722379Y-104064680D02*
X199769998Y-103969442D01*
X199769998Y-103969442D02*
X199769998Y-103874204D01*
X199769998Y-103874204D02*
X199722379Y-103778966D01*
X199722379Y-103778966D02*
X199674760Y-103731347D01*
X199674760Y-103731347D02*
X199579522Y-103683728D01*
X199579522Y-103683728D02*
X199389046Y-103636109D01*
X199389046Y-103636109D02*
X199293808Y-103588490D01*
X199293808Y-103588490D02*
X199246189Y-103540871D01*
X199246189Y-103540871D02*
X199198570Y-103445633D01*
X199198570Y-103445633D02*
X199198570Y-103350395D01*
X199198570Y-103350395D02*
X199246189Y-103255157D01*
X199246189Y-103255157D02*
X199293808Y-103207538D01*
X199293808Y-103207538D02*
X199389046Y-103159919D01*
X199389046Y-103159919D02*
X199627141Y-103159919D01*
X199627141Y-103159919D02*
X199769998Y-103207538D01*
X200198570Y-104159919D02*
X200198570Y-103159919D01*
X200198570Y-103159919D02*
X200436665Y-103159919D01*
X200436665Y-103159919D02*
X200579522Y-103207538D01*
X200579522Y-103207538D02*
X200674760Y-103302776D01*
X200674760Y-103302776D02*
X200722379Y-103398014D01*
X200722379Y-103398014D02*
X200769998Y-103588490D01*
X200769998Y-103588490D02*
X200769998Y-103731347D01*
X200769998Y-103731347D02*
X200722379Y-103921823D01*
X200722379Y-103921823D02*
X200674760Y-104017061D01*
X200674760Y-104017061D02*
X200579522Y-104112300D01*
X200579522Y-104112300D02*
X200436665Y-104159919D01*
X200436665Y-104159919D02*
X200198570Y-104159919D01*
X202389046Y-104112300D02*
X202293808Y-104159919D01*
X202293808Y-104159919D02*
X202103332Y-104159919D01*
X202103332Y-104159919D02*
X202008094Y-104112300D01*
X202008094Y-104112300D02*
X201960475Y-104064680D01*
X201960475Y-104064680D02*
X201912856Y-103969442D01*
X201912856Y-103969442D02*
X201912856Y-103683728D01*
X201912856Y-103683728D02*
X201960475Y-103588490D01*
X201960475Y-103588490D02*
X202008094Y-103540871D01*
X202008094Y-103540871D02*
X202103332Y-103493252D01*
X202103332Y-103493252D02*
X202293808Y-103493252D01*
X202293808Y-103493252D02*
X202389046Y-103540871D01*
X203246189Y-104159919D02*
X203246189Y-103636109D01*
X203246189Y-103636109D02*
X203198570Y-103540871D01*
X203198570Y-103540871D02*
X203103332Y-103493252D01*
X203103332Y-103493252D02*
X202912856Y-103493252D01*
X202912856Y-103493252D02*
X202817618Y-103540871D01*
X203246189Y-104112300D02*
X203150951Y-104159919D01*
X203150951Y-104159919D02*
X202912856Y-104159919D01*
X202912856Y-104159919D02*
X202817618Y-104112300D01*
X202817618Y-104112300D02*
X202769999Y-104017061D01*
X202769999Y-104017061D02*
X202769999Y-103921823D01*
X202769999Y-103921823D02*
X202817618Y-103826585D01*
X202817618Y-103826585D02*
X202912856Y-103778966D01*
X202912856Y-103778966D02*
X203150951Y-103778966D01*
X203150951Y-103778966D02*
X203246189Y-103731347D01*
X203722380Y-104159919D02*
X203722380Y-103493252D01*
X203722380Y-103683728D02*
X203769999Y-103588490D01*
X203769999Y-103588490D02*
X203817618Y-103540871D01*
X203817618Y-103540871D02*
X203912856Y-103493252D01*
X203912856Y-103493252D02*
X204008094Y-103493252D01*
X204769999Y-104159919D02*
X204769999Y-103159919D01*
X204769999Y-104112300D02*
X204674761Y-104159919D01*
X204674761Y-104159919D02*
X204484285Y-104159919D01*
X204484285Y-104159919D02*
X204389047Y-104112300D01*
X204389047Y-104112300D02*
X204341428Y-104064680D01*
X204341428Y-104064680D02*
X204293809Y-103969442D01*
X204293809Y-103969442D02*
X204293809Y-103683728D01*
X204293809Y-103683728D02*
X204341428Y-103588490D01*
X204341428Y-103588490D02*
X204389047Y-103540871D01*
X204389047Y-103540871D02*
X204484285Y-103493252D01*
X204484285Y-103493252D02*
X204674761Y-103493252D01*
X204674761Y-103493252D02*
X204769999Y-103540871D01*
X206008095Y-104159919D02*
X206008095Y-103493252D01*
X206008095Y-103683728D02*
X206055714Y-103588490D01*
X206055714Y-103588490D02*
X206103333Y-103540871D01*
X206103333Y-103540871D02*
X206198571Y-103493252D01*
X206198571Y-103493252D02*
X206293809Y-103493252D01*
X207008095Y-104112300D02*
X206912857Y-104159919D01*
X206912857Y-104159919D02*
X206722381Y-104159919D01*
X206722381Y-104159919D02*
X206627143Y-104112300D01*
X206627143Y-104112300D02*
X206579524Y-104017061D01*
X206579524Y-104017061D02*
X206579524Y-103636109D01*
X206579524Y-103636109D02*
X206627143Y-103540871D01*
X206627143Y-103540871D02*
X206722381Y-103493252D01*
X206722381Y-103493252D02*
X206912857Y-103493252D01*
X206912857Y-103493252D02*
X207008095Y-103540871D01*
X207008095Y-103540871D02*
X207055714Y-103636109D01*
X207055714Y-103636109D02*
X207055714Y-103731347D01*
X207055714Y-103731347D02*
X206579524Y-103826585D01*
X207912857Y-104159919D02*
X207912857Y-103636109D01*
X207912857Y-103636109D02*
X207865238Y-103540871D01*
X207865238Y-103540871D02*
X207770000Y-103493252D01*
X207770000Y-103493252D02*
X207579524Y-103493252D01*
X207579524Y-103493252D02*
X207484286Y-103540871D01*
X207912857Y-104112300D02*
X207817619Y-104159919D01*
X207817619Y-104159919D02*
X207579524Y-104159919D01*
X207579524Y-104159919D02*
X207484286Y-104112300D01*
X207484286Y-104112300D02*
X207436667Y-104017061D01*
X207436667Y-104017061D02*
X207436667Y-103921823D01*
X207436667Y-103921823D02*
X207484286Y-103826585D01*
X207484286Y-103826585D02*
X207579524Y-103778966D01*
X207579524Y-103778966D02*
X207817619Y-103778966D01*
X207817619Y-103778966D02*
X207912857Y-103731347D01*
X208817619Y-104159919D02*
X208817619Y-103159919D01*
X208817619Y-104112300D02*
X208722381Y-104159919D01*
X208722381Y-104159919D02*
X208531905Y-104159919D01*
X208531905Y-104159919D02*
X208436667Y-104112300D01*
X208436667Y-104112300D02*
X208389048Y-104064680D01*
X208389048Y-104064680D02*
X208341429Y-103969442D01*
X208341429Y-103969442D02*
X208341429Y-103683728D01*
X208341429Y-103683728D02*
X208389048Y-103588490D01*
X208389048Y-103588490D02*
X208436667Y-103540871D01*
X208436667Y-103540871D02*
X208531905Y-103493252D01*
X208531905Y-103493252D02*
X208722381Y-103493252D01*
X208722381Y-103493252D02*
X208817619Y-103540871D01*
X209674762Y-104112300D02*
X209579524Y-104159919D01*
X209579524Y-104159919D02*
X209389048Y-104159919D01*
X209389048Y-104159919D02*
X209293810Y-104112300D01*
X209293810Y-104112300D02*
X209246191Y-104017061D01*
X209246191Y-104017061D02*
X209246191Y-103636109D01*
X209246191Y-103636109D02*
X209293810Y-103540871D01*
X209293810Y-103540871D02*
X209389048Y-103493252D01*
X209389048Y-103493252D02*
X209579524Y-103493252D01*
X209579524Y-103493252D02*
X209674762Y-103540871D01*
X209674762Y-103540871D02*
X209722381Y-103636109D01*
X209722381Y-103636109D02*
X209722381Y-103731347D01*
X209722381Y-103731347D02*
X209246191Y-103826585D01*
X210150953Y-104159919D02*
X210150953Y-103493252D01*
X210150953Y-103683728D02*
X210198572Y-103588490D01*
X210198572Y-103588490D02*
X210246191Y-103540871D01*
X210246191Y-103540871D02*
X210341429Y-103493252D01*
X210341429Y-103493252D02*
X210436667Y-103493252D01*
X207303884Y-116872419D02*
X207303884Y-115872419D01*
X207303884Y-115872419D02*
X207541979Y-115872419D01*
X207541979Y-115872419D02*
X207684836Y-115920038D01*
X207684836Y-115920038D02*
X207780074Y-116015276D01*
X207780074Y-116015276D02*
X207827693Y-116110514D01*
X207827693Y-116110514D02*
X207875312Y-116300990D01*
X207875312Y-116300990D02*
X207875312Y-116443847D01*
X207875312Y-116443847D02*
X207827693Y-116634323D01*
X207827693Y-116634323D02*
X207780074Y-116729561D01*
X207780074Y-116729561D02*
X207684836Y-116824800D01*
X207684836Y-116824800D02*
X207541979Y-116872419D01*
X207541979Y-116872419D02*
X207303884Y-116872419D01*
X208494360Y-115872419D02*
X208684836Y-115872419D01*
X208684836Y-115872419D02*
X208780074Y-115920038D01*
X208780074Y-115920038D02*
X208875312Y-116015276D01*
X208875312Y-116015276D02*
X208922931Y-116205752D01*
X208922931Y-116205752D02*
X208922931Y-116539085D01*
X208922931Y-116539085D02*
X208875312Y-116729561D01*
X208875312Y-116729561D02*
X208780074Y-116824800D01*
X208780074Y-116824800D02*
X208684836Y-116872419D01*
X208684836Y-116872419D02*
X208494360Y-116872419D01*
X208494360Y-116872419D02*
X208399122Y-116824800D01*
X208399122Y-116824800D02*
X208303884Y-116729561D01*
X208303884Y-116729561D02*
X208256265Y-116539085D01*
X208256265Y-116539085D02*
X208256265Y-116205752D01*
X208256265Y-116205752D02*
X208303884Y-116015276D01*
X208303884Y-116015276D02*
X208399122Y-115920038D01*
X208399122Y-115920038D02*
X208494360Y-115872419D01*
X207875312Y-114277180D02*
X207827693Y-114324800D01*
X207827693Y-114324800D02*
X207684836Y-114372419D01*
X207684836Y-114372419D02*
X207589598Y-114372419D01*
X207589598Y-114372419D02*
X207446741Y-114324800D01*
X207446741Y-114324800D02*
X207351503Y-114229561D01*
X207351503Y-114229561D02*
X207303884Y-114134323D01*
X207303884Y-114134323D02*
X207256265Y-113943847D01*
X207256265Y-113943847D02*
X207256265Y-113800990D01*
X207256265Y-113800990D02*
X207303884Y-113610514D01*
X207303884Y-113610514D02*
X207351503Y-113515276D01*
X207351503Y-113515276D02*
X207446741Y-113420038D01*
X207446741Y-113420038D02*
X207589598Y-113372419D01*
X207589598Y-113372419D02*
X207684836Y-113372419D01*
X207684836Y-113372419D02*
X207827693Y-113420038D01*
X207827693Y-113420038D02*
X207875312Y-113467657D01*
X208780074Y-114372419D02*
X208303884Y-114372419D01*
X208303884Y-114372419D02*
X208303884Y-113372419D01*
X209113408Y-114372419D02*
X209113408Y-113372419D01*
X209684836Y-114372419D02*
X209256265Y-113800990D01*
X209684836Y-113372419D02*
X209113408Y-113943847D01*
X207827693Y-111420038D02*
X207732455Y-111372419D01*
X207732455Y-111372419D02*
X207589598Y-111372419D01*
X207589598Y-111372419D02*
X207446741Y-111420038D01*
X207446741Y-111420038D02*
X207351503Y-111515276D01*
X207351503Y-111515276D02*
X207303884Y-111610514D01*
X207303884Y-111610514D02*
X207256265Y-111800990D01*
X207256265Y-111800990D02*
X207256265Y-111943847D01*
X207256265Y-111943847D02*
X207303884Y-112134323D01*
X207303884Y-112134323D02*
X207351503Y-112229561D01*
X207351503Y-112229561D02*
X207446741Y-112324800D01*
X207446741Y-112324800D02*
X207589598Y-112372419D01*
X207589598Y-112372419D02*
X207684836Y-112372419D01*
X207684836Y-112372419D02*
X207827693Y-112324800D01*
X207827693Y-112324800D02*
X207875312Y-112277180D01*
X207875312Y-112277180D02*
X207875312Y-111943847D01*
X207875312Y-111943847D02*
X207684836Y-111943847D01*
X208303884Y-112372419D02*
X208303884Y-111372419D01*
X208303884Y-111372419D02*
X208875312Y-112372419D01*
X208875312Y-112372419D02*
X208875312Y-111372419D01*
X209351503Y-112372419D02*
X209351503Y-111372419D01*
X209351503Y-111372419D02*
X209589598Y-111372419D01*
X209589598Y-111372419D02*
X209732455Y-111420038D01*
X209732455Y-111420038D02*
X209827693Y-111515276D01*
X209827693Y-111515276D02*
X209875312Y-111610514D01*
X209875312Y-111610514D02*
X209922931Y-111800990D01*
X209922931Y-111800990D02*
X209922931Y-111943847D01*
X209922931Y-111943847D02*
X209875312Y-112134323D01*
X209875312Y-112134323D02*
X209827693Y-112229561D01*
X209827693Y-112229561D02*
X209732455Y-112324800D01*
X209732455Y-112324800D02*
X209589598Y-112372419D01*
X209589598Y-112372419D02*
X209351503Y-112372419D01*
X208280074Y-105872419D02*
X207803884Y-105872419D01*
X207803884Y-105872419D02*
X207756265Y-106348609D01*
X207756265Y-106348609D02*
X207803884Y-106300990D01*
X207803884Y-106300990D02*
X207899122Y-106253371D01*
X207899122Y-106253371D02*
X208137217Y-106253371D01*
X208137217Y-106253371D02*
X208232455Y-106300990D01*
X208232455Y-106300990D02*
X208280074Y-106348609D01*
X208280074Y-106348609D02*
X208327693Y-106443847D01*
X208327693Y-106443847D02*
X208327693Y-106681942D01*
X208327693Y-106681942D02*
X208280074Y-106777180D01*
X208280074Y-106777180D02*
X208232455Y-106824800D01*
X208232455Y-106824800D02*
X208137217Y-106872419D01*
X208137217Y-106872419D02*
X207899122Y-106872419D01*
X207899122Y-106872419D02*
X207803884Y-106824800D01*
X207803884Y-106824800D02*
X207756265Y-106777180D01*
X208661027Y-106205752D02*
X208899122Y-106872419D01*
X208899122Y-106872419D02*
X209137217Y-106205752D01*
X207875312Y-121777180D02*
X207827693Y-121824800D01*
X207827693Y-121824800D02*
X207684836Y-121872419D01*
X207684836Y-121872419D02*
X207589598Y-121872419D01*
X207589598Y-121872419D02*
X207446741Y-121824800D01*
X207446741Y-121824800D02*
X207351503Y-121729561D01*
X207351503Y-121729561D02*
X207303884Y-121634323D01*
X207303884Y-121634323D02*
X207256265Y-121443847D01*
X207256265Y-121443847D02*
X207256265Y-121300990D01*
X207256265Y-121300990D02*
X207303884Y-121110514D01*
X207303884Y-121110514D02*
X207351503Y-121015276D01*
X207351503Y-121015276D02*
X207446741Y-120920038D01*
X207446741Y-120920038D02*
X207589598Y-120872419D01*
X207589598Y-120872419D02*
X207684836Y-120872419D01*
X207684836Y-120872419D02*
X207827693Y-120920038D01*
X207827693Y-120920038D02*
X207875312Y-120967657D01*
X208256265Y-121824800D02*
X208399122Y-121872419D01*
X208399122Y-121872419D02*
X208637217Y-121872419D01*
X208637217Y-121872419D02*
X208732455Y-121824800D01*
X208732455Y-121824800D02*
X208780074Y-121777180D01*
X208780074Y-121777180D02*
X208827693Y-121681942D01*
X208827693Y-121681942D02*
X208827693Y-121586704D01*
X208827693Y-121586704D02*
X208780074Y-121491466D01*
X208780074Y-121491466D02*
X208732455Y-121443847D01*
X208732455Y-121443847D02*
X208637217Y-121396228D01*
X208637217Y-121396228D02*
X208446741Y-121348609D01*
X208446741Y-121348609D02*
X208351503Y-121300990D01*
X208351503Y-121300990D02*
X208303884Y-121253371D01*
X208303884Y-121253371D02*
X208256265Y-121158133D01*
X208256265Y-121158133D02*
X208256265Y-121062895D01*
X208256265Y-121062895D02*
X208303884Y-120967657D01*
X208303884Y-120967657D02*
X208351503Y-120920038D01*
X208351503Y-120920038D02*
X208446741Y-120872419D01*
X208446741Y-120872419D02*
X208684836Y-120872419D01*
X208684836Y-120872419D02*
X208827693Y-120920038D01*
X207875312Y-124277180D02*
X207827693Y-124324800D01*
X207827693Y-124324800D02*
X207684836Y-124372419D01*
X207684836Y-124372419D02*
X207589598Y-124372419D01*
X207589598Y-124372419D02*
X207446741Y-124324800D01*
X207446741Y-124324800D02*
X207351503Y-124229561D01*
X207351503Y-124229561D02*
X207303884Y-124134323D01*
X207303884Y-124134323D02*
X207256265Y-123943847D01*
X207256265Y-123943847D02*
X207256265Y-123800990D01*
X207256265Y-123800990D02*
X207303884Y-123610514D01*
X207303884Y-123610514D02*
X207351503Y-123515276D01*
X207351503Y-123515276D02*
X207446741Y-123420038D01*
X207446741Y-123420038D02*
X207589598Y-123372419D01*
X207589598Y-123372419D02*
X207684836Y-123372419D01*
X207684836Y-123372419D02*
X207827693Y-123420038D01*
X207827693Y-123420038D02*
X207875312Y-123467657D01*
X208303884Y-124372419D02*
X208303884Y-123372419D01*
X208303884Y-123372419D02*
X208541979Y-123372419D01*
X208541979Y-123372419D02*
X208684836Y-123420038D01*
X208684836Y-123420038D02*
X208780074Y-123515276D01*
X208780074Y-123515276D02*
X208827693Y-123610514D01*
X208827693Y-123610514D02*
X208875312Y-123800990D01*
X208875312Y-123800990D02*
X208875312Y-123943847D01*
X208875312Y-123943847D02*
X208827693Y-124134323D01*
X208827693Y-124134323D02*
X208780074Y-124229561D01*
X208780074Y-124229561D02*
X208684836Y-124324800D01*
X208684836Y-124324800D02*
X208541979Y-124372419D01*
X208541979Y-124372419D02*
X208303884Y-124372419D01*
X207708646Y-108372419D02*
X208327693Y-108372419D01*
X208327693Y-108372419D02*
X207994360Y-108753371D01*
X207994360Y-108753371D02*
X208137217Y-108753371D01*
X208137217Y-108753371D02*
X208232455Y-108800990D01*
X208232455Y-108800990D02*
X208280074Y-108848609D01*
X208280074Y-108848609D02*
X208327693Y-108943847D01*
X208327693Y-108943847D02*
X208327693Y-109181942D01*
X208327693Y-109181942D02*
X208280074Y-109277180D01*
X208280074Y-109277180D02*
X208232455Y-109324800D01*
X208232455Y-109324800D02*
X208137217Y-109372419D01*
X208137217Y-109372419D02*
X207851503Y-109372419D01*
X207851503Y-109372419D02*
X207756265Y-109324800D01*
X207756265Y-109324800D02*
X207708646Y-109277180D01*
X208661027Y-108705752D02*
X208899122Y-109372419D01*
X208899122Y-109372419D02*
X209137217Y-108705752D01*
X207303884Y-119372419D02*
X207303884Y-118372419D01*
X207303884Y-118372419D02*
X207541979Y-118372419D01*
X207541979Y-118372419D02*
X207684836Y-118420038D01*
X207684836Y-118420038D02*
X207780074Y-118515276D01*
X207780074Y-118515276D02*
X207827693Y-118610514D01*
X207827693Y-118610514D02*
X207875312Y-118800990D01*
X207875312Y-118800990D02*
X207875312Y-118943847D01*
X207875312Y-118943847D02*
X207827693Y-119134323D01*
X207827693Y-119134323D02*
X207780074Y-119229561D01*
X207780074Y-119229561D02*
X207684836Y-119324800D01*
X207684836Y-119324800D02*
X207541979Y-119372419D01*
X207541979Y-119372419D02*
X207303884Y-119372419D01*
X208303884Y-119372419D02*
X208303884Y-118372419D01*
X149531904Y-76072580D02*
X149531904Y-75263057D01*
X149531904Y-75263057D02*
X149484285Y-75167819D01*
X149484285Y-75167819D02*
X149436666Y-75120200D01*
X149436666Y-75120200D02*
X149341428Y-75072580D01*
X149341428Y-75072580D02*
X149150952Y-75072580D01*
X149150952Y-75072580D02*
X149055714Y-75120200D01*
X149055714Y-75120200D02*
X149008095Y-75167819D01*
X149008095Y-75167819D02*
X148960476Y-75263057D01*
X148960476Y-75263057D02*
X148960476Y-76072580D01*
X148579523Y-76072580D02*
X147960476Y-76072580D01*
X147960476Y-76072580D02*
X148293809Y-75691628D01*
X148293809Y-75691628D02*
X148150952Y-75691628D01*
X148150952Y-75691628D02*
X148055714Y-75644009D01*
X148055714Y-75644009D02*
X148008095Y-75596390D01*
X148008095Y-75596390D02*
X147960476Y-75501152D01*
X147960476Y-75501152D02*
X147960476Y-75263057D01*
X147960476Y-75263057D02*
X148008095Y-75167819D01*
X148008095Y-75167819D02*
X148055714Y-75120200D01*
X148055714Y-75120200D02*
X148150952Y-75072580D01*
X148150952Y-75072580D02*
X148436666Y-75072580D01*
X148436666Y-75072580D02*
X148531904Y-75120200D01*
X148531904Y-75120200D02*
X148579523Y-75167819D01*
X151803884Y-86402419D02*
X151803884Y-85402419D01*
X151803884Y-85402419D02*
X152041979Y-85402419D01*
X152041979Y-85402419D02*
X152184836Y-85450038D01*
X152184836Y-85450038D02*
X152280074Y-85545276D01*
X152280074Y-85545276D02*
X152327693Y-85640514D01*
X152327693Y-85640514D02*
X152375312Y-85830990D01*
X152375312Y-85830990D02*
X152375312Y-85973847D01*
X152375312Y-85973847D02*
X152327693Y-86164323D01*
X152327693Y-86164323D02*
X152280074Y-86259561D01*
X152280074Y-86259561D02*
X152184836Y-86354800D01*
X152184836Y-86354800D02*
X152041979Y-86402419D01*
X152041979Y-86402419D02*
X151803884Y-86402419D01*
X152803884Y-86402419D02*
X152803884Y-85402419D01*
X153470550Y-85402419D02*
X153661026Y-85402419D01*
X153661026Y-85402419D02*
X153756264Y-85450038D01*
X153756264Y-85450038D02*
X153851502Y-85545276D01*
X153851502Y-85545276D02*
X153899121Y-85735752D01*
X153899121Y-85735752D02*
X153899121Y-86069085D01*
X153899121Y-86069085D02*
X153851502Y-86259561D01*
X153851502Y-86259561D02*
X153756264Y-86354800D01*
X153756264Y-86354800D02*
X153661026Y-86402419D01*
X153661026Y-86402419D02*
X153470550Y-86402419D01*
X153470550Y-86402419D02*
X153375312Y-86354800D01*
X153375312Y-86354800D02*
X153280074Y-86259561D01*
X153280074Y-86259561D02*
X153232455Y-86069085D01*
X153232455Y-86069085D02*
X153232455Y-85735752D01*
X153232455Y-85735752D02*
X153280074Y-85545276D01*
X153280074Y-85545276D02*
X153375312Y-85450038D01*
X153375312Y-85450038D02*
X153470550Y-85402419D01*
X151375312Y-83777180D02*
X151327693Y-83824800D01*
X151327693Y-83824800D02*
X151184836Y-83872419D01*
X151184836Y-83872419D02*
X151089598Y-83872419D01*
X151089598Y-83872419D02*
X150946741Y-83824800D01*
X150946741Y-83824800D02*
X150851503Y-83729561D01*
X150851503Y-83729561D02*
X150803884Y-83634323D01*
X150803884Y-83634323D02*
X150756265Y-83443847D01*
X150756265Y-83443847D02*
X150756265Y-83300990D01*
X150756265Y-83300990D02*
X150803884Y-83110514D01*
X150803884Y-83110514D02*
X150851503Y-83015276D01*
X150851503Y-83015276D02*
X150946741Y-82920038D01*
X150946741Y-82920038D02*
X151089598Y-82872419D01*
X151089598Y-82872419D02*
X151184836Y-82872419D01*
X151184836Y-82872419D02*
X151327693Y-82920038D01*
X151327693Y-82920038D02*
X151375312Y-82967657D01*
X152280074Y-83872419D02*
X151803884Y-83872419D01*
X151803884Y-83872419D02*
X151803884Y-82872419D01*
X152613408Y-83872419D02*
X152613408Y-82872419D01*
X153184836Y-83872419D02*
X152756265Y-83300990D01*
X153184836Y-82872419D02*
X152613408Y-83443847D01*
X151375312Y-81372419D02*
X151041979Y-80896228D01*
X150803884Y-81372419D02*
X150803884Y-80372419D01*
X150803884Y-80372419D02*
X151184836Y-80372419D01*
X151184836Y-80372419D02*
X151280074Y-80420038D01*
X151280074Y-80420038D02*
X151327693Y-80467657D01*
X151327693Y-80467657D02*
X151375312Y-80562895D01*
X151375312Y-80562895D02*
X151375312Y-80705752D01*
X151375312Y-80705752D02*
X151327693Y-80800990D01*
X151327693Y-80800990D02*
X151280074Y-80848609D01*
X151280074Y-80848609D02*
X151184836Y-80896228D01*
X151184836Y-80896228D02*
X150803884Y-80896228D01*
X151756265Y-81324800D02*
X151899122Y-81372419D01*
X151899122Y-81372419D02*
X152137217Y-81372419D01*
X152137217Y-81372419D02*
X152232455Y-81324800D01*
X152232455Y-81324800D02*
X152280074Y-81277180D01*
X152280074Y-81277180D02*
X152327693Y-81181942D01*
X152327693Y-81181942D02*
X152327693Y-81086704D01*
X152327693Y-81086704D02*
X152280074Y-80991466D01*
X152280074Y-80991466D02*
X152232455Y-80943847D01*
X152232455Y-80943847D02*
X152137217Y-80896228D01*
X152137217Y-80896228D02*
X151946741Y-80848609D01*
X151946741Y-80848609D02*
X151851503Y-80800990D01*
X151851503Y-80800990D02*
X151803884Y-80753371D01*
X151803884Y-80753371D02*
X151756265Y-80658133D01*
X151756265Y-80658133D02*
X151756265Y-80562895D01*
X151756265Y-80562895D02*
X151803884Y-80467657D01*
X151803884Y-80467657D02*
X151851503Y-80420038D01*
X151851503Y-80420038D02*
X151946741Y-80372419D01*
X151946741Y-80372419D02*
X152184836Y-80372419D01*
X152184836Y-80372419D02*
X152327693Y-80420038D01*
X152613408Y-80372419D02*
X153184836Y-80372419D01*
X152899122Y-81372419D02*
X152899122Y-80372419D01*
X151327693Y-77920038D02*
X151232455Y-77872419D01*
X151232455Y-77872419D02*
X151089598Y-77872419D01*
X151089598Y-77872419D02*
X150946741Y-77920038D01*
X150946741Y-77920038D02*
X150851503Y-78015276D01*
X150851503Y-78015276D02*
X150803884Y-78110514D01*
X150803884Y-78110514D02*
X150756265Y-78300990D01*
X150756265Y-78300990D02*
X150756265Y-78443847D01*
X150756265Y-78443847D02*
X150803884Y-78634323D01*
X150803884Y-78634323D02*
X150851503Y-78729561D01*
X150851503Y-78729561D02*
X150946741Y-78824800D01*
X150946741Y-78824800D02*
X151089598Y-78872419D01*
X151089598Y-78872419D02*
X151184836Y-78872419D01*
X151184836Y-78872419D02*
X151327693Y-78824800D01*
X151327693Y-78824800D02*
X151375312Y-78777180D01*
X151375312Y-78777180D02*
X151375312Y-78443847D01*
X151375312Y-78443847D02*
X151184836Y-78443847D01*
X151803884Y-78872419D02*
X151803884Y-77872419D01*
X151803884Y-77872419D02*
X152375312Y-78872419D01*
X152375312Y-78872419D02*
X152375312Y-77872419D01*
X152851503Y-78872419D02*
X152851503Y-77872419D01*
X152851503Y-77872419D02*
X153089598Y-77872419D01*
X153089598Y-77872419D02*
X153232455Y-77920038D01*
X153232455Y-77920038D02*
X153327693Y-78015276D01*
X153327693Y-78015276D02*
X153375312Y-78110514D01*
X153375312Y-78110514D02*
X153422931Y-78300990D01*
X153422931Y-78300990D02*
X153422931Y-78443847D01*
X153422931Y-78443847D02*
X153375312Y-78634323D01*
X153375312Y-78634323D02*
X153327693Y-78729561D01*
X153327693Y-78729561D02*
X153232455Y-78824800D01*
X153232455Y-78824800D02*
X153089598Y-78872419D01*
X153089598Y-78872419D02*
X152851503Y-78872419D01*
X156880953Y-47457419D02*
X157119048Y-48457419D01*
X157119048Y-48457419D02*
X157309524Y-47743133D01*
X157309524Y-47743133D02*
X157500000Y-48457419D01*
X157500000Y-48457419D02*
X157738096Y-47457419D01*
X158119048Y-48457419D02*
X158119048Y-47790752D01*
X158119048Y-47457419D02*
X158071429Y-47505038D01*
X158071429Y-47505038D02*
X158119048Y-47552657D01*
X158119048Y-47552657D02*
X158166667Y-47505038D01*
X158166667Y-47505038D02*
X158119048Y-47457419D01*
X158119048Y-47457419D02*
X158119048Y-47552657D01*
X158738095Y-48457419D02*
X158642857Y-48409800D01*
X158642857Y-48409800D02*
X158595238Y-48362180D01*
X158595238Y-48362180D02*
X158547619Y-48266942D01*
X158547619Y-48266942D02*
X158547619Y-47981228D01*
X158547619Y-47981228D02*
X158595238Y-47885990D01*
X158595238Y-47885990D02*
X158642857Y-47838371D01*
X158642857Y-47838371D02*
X158738095Y-47790752D01*
X158738095Y-47790752D02*
X158880952Y-47790752D01*
X158880952Y-47790752D02*
X158976190Y-47838371D01*
X158976190Y-47838371D02*
X159023809Y-47885990D01*
X159023809Y-47885990D02*
X159071428Y-47981228D01*
X159071428Y-47981228D02*
X159071428Y-48266942D01*
X159071428Y-48266942D02*
X159023809Y-48362180D01*
X159023809Y-48362180D02*
X158976190Y-48409800D01*
X158976190Y-48409800D02*
X158880952Y-48457419D01*
X158880952Y-48457419D02*
X158738095Y-48457419D01*
X145275312Y-49627180D02*
X145227693Y-49674800D01*
X145227693Y-49674800D02*
X145084836Y-49722419D01*
X145084836Y-49722419D02*
X144989598Y-49722419D01*
X144989598Y-49722419D02*
X144846741Y-49674800D01*
X144846741Y-49674800D02*
X144751503Y-49579561D01*
X144751503Y-49579561D02*
X144703884Y-49484323D01*
X144703884Y-49484323D02*
X144656265Y-49293847D01*
X144656265Y-49293847D02*
X144656265Y-49150990D01*
X144656265Y-49150990D02*
X144703884Y-48960514D01*
X144703884Y-48960514D02*
X144751503Y-48865276D01*
X144751503Y-48865276D02*
X144846741Y-48770038D01*
X144846741Y-48770038D02*
X144989598Y-48722419D01*
X144989598Y-48722419D02*
X145084836Y-48722419D01*
X145084836Y-48722419D02*
X145227693Y-48770038D01*
X145227693Y-48770038D02*
X145275312Y-48817657D01*
X146180074Y-49722419D02*
X145703884Y-49722419D01*
X145703884Y-49722419D02*
X145703884Y-48722419D01*
X146513408Y-49722419D02*
X146513408Y-48722419D01*
X147084836Y-49722419D02*
X146656265Y-49150990D01*
X147084836Y-48722419D02*
X146513408Y-49293847D01*
X144703884Y-31522419D02*
X144703884Y-30522419D01*
X144703884Y-30522419D02*
X144941979Y-30522419D01*
X144941979Y-30522419D02*
X145084836Y-30570038D01*
X145084836Y-30570038D02*
X145180074Y-30665276D01*
X145180074Y-30665276D02*
X145227693Y-30760514D01*
X145227693Y-30760514D02*
X145275312Y-30950990D01*
X145275312Y-30950990D02*
X145275312Y-31093847D01*
X145275312Y-31093847D02*
X145227693Y-31284323D01*
X145227693Y-31284323D02*
X145180074Y-31379561D01*
X145180074Y-31379561D02*
X145084836Y-31474800D01*
X145084836Y-31474800D02*
X144941979Y-31522419D01*
X144941979Y-31522419D02*
X144703884Y-31522419D01*
X146227693Y-31522419D02*
X145656265Y-31522419D01*
X145941979Y-31522419D02*
X145941979Y-30522419D01*
X145941979Y-30522419D02*
X145846741Y-30665276D01*
X145846741Y-30665276D02*
X145751503Y-30760514D01*
X145751503Y-30760514D02*
X145656265Y-30808133D01*
X146846741Y-30522419D02*
X146941979Y-30522419D01*
X146941979Y-30522419D02*
X147037217Y-30570038D01*
X147037217Y-30570038D02*
X147084836Y-30617657D01*
X147084836Y-30617657D02*
X147132455Y-30712895D01*
X147132455Y-30712895D02*
X147180074Y-30903371D01*
X147180074Y-30903371D02*
X147180074Y-31141466D01*
X147180074Y-31141466D02*
X147132455Y-31331942D01*
X147132455Y-31331942D02*
X147084836Y-31427180D01*
X147084836Y-31427180D02*
X147037217Y-31474800D01*
X147037217Y-31474800D02*
X146941979Y-31522419D01*
X146941979Y-31522419D02*
X146846741Y-31522419D01*
X146846741Y-31522419D02*
X146751503Y-31474800D01*
X146751503Y-31474800D02*
X146703884Y-31427180D01*
X146703884Y-31427180D02*
X146656265Y-31331942D01*
X146656265Y-31331942D02*
X146608646Y-31141466D01*
X146608646Y-31141466D02*
X146608646Y-30903371D01*
X146608646Y-30903371D02*
X146656265Y-30712895D01*
X146656265Y-30712895D02*
X146703884Y-30617657D01*
X146703884Y-30617657D02*
X146751503Y-30570038D01*
X146751503Y-30570038D02*
X146846741Y-30522419D01*
X145003884Y-28922419D02*
X145003884Y-27922419D01*
X145003884Y-27922419D02*
X145241979Y-27922419D01*
X145241979Y-27922419D02*
X145384836Y-27970038D01*
X145384836Y-27970038D02*
X145480074Y-28065276D01*
X145480074Y-28065276D02*
X145527693Y-28160514D01*
X145527693Y-28160514D02*
X145575312Y-28350990D01*
X145575312Y-28350990D02*
X145575312Y-28493847D01*
X145575312Y-28493847D02*
X145527693Y-28684323D01*
X145527693Y-28684323D02*
X145480074Y-28779561D01*
X145480074Y-28779561D02*
X145384836Y-28874800D01*
X145384836Y-28874800D02*
X145241979Y-28922419D01*
X145241979Y-28922419D02*
X145003884Y-28922419D01*
X146051503Y-28922419D02*
X146241979Y-28922419D01*
X146241979Y-28922419D02*
X146337217Y-28874800D01*
X146337217Y-28874800D02*
X146384836Y-28827180D01*
X146384836Y-28827180D02*
X146480074Y-28684323D01*
X146480074Y-28684323D02*
X146527693Y-28493847D01*
X146527693Y-28493847D02*
X146527693Y-28112895D01*
X146527693Y-28112895D02*
X146480074Y-28017657D01*
X146480074Y-28017657D02*
X146432455Y-27970038D01*
X146432455Y-27970038D02*
X146337217Y-27922419D01*
X146337217Y-27922419D02*
X146146741Y-27922419D01*
X146146741Y-27922419D02*
X146051503Y-27970038D01*
X146051503Y-27970038D02*
X146003884Y-28017657D01*
X146003884Y-28017657D02*
X145956265Y-28112895D01*
X145956265Y-28112895D02*
X145956265Y-28350990D01*
X145956265Y-28350990D02*
X146003884Y-28446228D01*
X146003884Y-28446228D02*
X146051503Y-28493847D01*
X146051503Y-28493847D02*
X146146741Y-28541466D01*
X146146741Y-28541466D02*
X146337217Y-28541466D01*
X146337217Y-28541466D02*
X146432455Y-28493847D01*
X146432455Y-28493847D02*
X146480074Y-28446228D01*
X146480074Y-28446228D02*
X146527693Y-28350990D01*
X144768884Y-52222419D02*
X144768884Y-51222419D01*
X144768884Y-51222419D02*
X145006979Y-51222419D01*
X145006979Y-51222419D02*
X145149836Y-51270038D01*
X145149836Y-51270038D02*
X145245074Y-51365276D01*
X145245074Y-51365276D02*
X145292693Y-51460514D01*
X145292693Y-51460514D02*
X145340312Y-51650990D01*
X145340312Y-51650990D02*
X145340312Y-51793847D01*
X145340312Y-51793847D02*
X145292693Y-51984323D01*
X145292693Y-51984323D02*
X145245074Y-52079561D01*
X145245074Y-52079561D02*
X145149836Y-52174800D01*
X145149836Y-52174800D02*
X145006979Y-52222419D01*
X145006979Y-52222419D02*
X144768884Y-52222419D01*
X145768884Y-52222419D02*
X145768884Y-51222419D01*
X146435550Y-51222419D02*
X146626026Y-51222419D01*
X146626026Y-51222419D02*
X146721264Y-51270038D01*
X146721264Y-51270038D02*
X146816502Y-51365276D01*
X146816502Y-51365276D02*
X146864121Y-51555752D01*
X146864121Y-51555752D02*
X146864121Y-51889085D01*
X146864121Y-51889085D02*
X146816502Y-52079561D01*
X146816502Y-52079561D02*
X146721264Y-52174800D01*
X146721264Y-52174800D02*
X146626026Y-52222419D01*
X146626026Y-52222419D02*
X146435550Y-52222419D01*
X146435550Y-52222419D02*
X146340312Y-52174800D01*
X146340312Y-52174800D02*
X146245074Y-52079561D01*
X146245074Y-52079561D02*
X146197455Y-51889085D01*
X146197455Y-51889085D02*
X146197455Y-51555752D01*
X146197455Y-51555752D02*
X146245074Y-51365276D01*
X146245074Y-51365276D02*
X146340312Y-51270038D01*
X146340312Y-51270038D02*
X146435550Y-51222419D01*
X151303884Y-39372419D02*
X151303884Y-38372419D01*
X151303884Y-38372419D02*
X151637217Y-39086704D01*
X151637217Y-39086704D02*
X151970550Y-38372419D01*
X151970550Y-38372419D02*
X151970550Y-39372419D01*
X152446741Y-39372419D02*
X152446741Y-38372419D01*
X152875312Y-39324800D02*
X153018169Y-39372419D01*
X153018169Y-39372419D02*
X153256264Y-39372419D01*
X153256264Y-39372419D02*
X153351502Y-39324800D01*
X153351502Y-39324800D02*
X153399121Y-39277180D01*
X153399121Y-39277180D02*
X153446740Y-39181942D01*
X153446740Y-39181942D02*
X153446740Y-39086704D01*
X153446740Y-39086704D02*
X153399121Y-38991466D01*
X153399121Y-38991466D02*
X153351502Y-38943847D01*
X153351502Y-38943847D02*
X153256264Y-38896228D01*
X153256264Y-38896228D02*
X153065788Y-38848609D01*
X153065788Y-38848609D02*
X152970550Y-38800990D01*
X152970550Y-38800990D02*
X152922931Y-38753371D01*
X152922931Y-38753371D02*
X152875312Y-38658133D01*
X152875312Y-38658133D02*
X152875312Y-38562895D01*
X152875312Y-38562895D02*
X152922931Y-38467657D01*
X152922931Y-38467657D02*
X152970550Y-38420038D01*
X152970550Y-38420038D02*
X153065788Y-38372419D01*
X153065788Y-38372419D02*
X153303883Y-38372419D01*
X153303883Y-38372419D02*
X153446740Y-38420038D01*
X154065788Y-38372419D02*
X154256264Y-38372419D01*
X154256264Y-38372419D02*
X154351502Y-38420038D01*
X154351502Y-38420038D02*
X154446740Y-38515276D01*
X154446740Y-38515276D02*
X154494359Y-38705752D01*
X154494359Y-38705752D02*
X154494359Y-39039085D01*
X154494359Y-39039085D02*
X154446740Y-39229561D01*
X154446740Y-39229561D02*
X154351502Y-39324800D01*
X154351502Y-39324800D02*
X154256264Y-39372419D01*
X154256264Y-39372419D02*
X154065788Y-39372419D01*
X154065788Y-39372419D02*
X153970550Y-39324800D01*
X153970550Y-39324800D02*
X153875312Y-39229561D01*
X153875312Y-39229561D02*
X153827693Y-39039085D01*
X153827693Y-39039085D02*
X153827693Y-38705752D01*
X153827693Y-38705752D02*
X153875312Y-38515276D01*
X153875312Y-38515276D02*
X153970550Y-38420038D01*
X153970550Y-38420038D02*
X154065788Y-38372419D01*
X169956265Y-52074800D02*
X170099122Y-52122419D01*
X170099122Y-52122419D02*
X170337217Y-52122419D01*
X170337217Y-52122419D02*
X170432455Y-52074800D01*
X170432455Y-52074800D02*
X170480074Y-52027180D01*
X170480074Y-52027180D02*
X170527693Y-51931942D01*
X170527693Y-51931942D02*
X170527693Y-51836704D01*
X170527693Y-51836704D02*
X170480074Y-51741466D01*
X170480074Y-51741466D02*
X170432455Y-51693847D01*
X170432455Y-51693847D02*
X170337217Y-51646228D01*
X170337217Y-51646228D02*
X170146741Y-51598609D01*
X170146741Y-51598609D02*
X170051503Y-51550990D01*
X170051503Y-51550990D02*
X170003884Y-51503371D01*
X170003884Y-51503371D02*
X169956265Y-51408133D01*
X169956265Y-51408133D02*
X169956265Y-51312895D01*
X169956265Y-51312895D02*
X170003884Y-51217657D01*
X170003884Y-51217657D02*
X170051503Y-51170038D01*
X170051503Y-51170038D02*
X170146741Y-51122419D01*
X170146741Y-51122419D02*
X170384836Y-51122419D01*
X170384836Y-51122419D02*
X170527693Y-51170038D01*
X170956265Y-52122419D02*
X170956265Y-51122419D01*
X170956265Y-51122419D02*
X171194360Y-51122419D01*
X171194360Y-51122419D02*
X171337217Y-51170038D01*
X171337217Y-51170038D02*
X171432455Y-51265276D01*
X171432455Y-51265276D02*
X171480074Y-51360514D01*
X171480074Y-51360514D02*
X171527693Y-51550990D01*
X171527693Y-51550990D02*
X171527693Y-51693847D01*
X171527693Y-51693847D02*
X171480074Y-51884323D01*
X171480074Y-51884323D02*
X171432455Y-51979561D01*
X171432455Y-51979561D02*
X171337217Y-52074800D01*
X171337217Y-52074800D02*
X171194360Y-52122419D01*
X171194360Y-52122419D02*
X170956265Y-52122419D01*
X171908646Y-51836704D02*
X172384836Y-51836704D01*
X171813408Y-52122419D02*
X172146741Y-51122419D01*
X172146741Y-51122419D02*
X172480074Y-52122419D01*
X169856265Y-46736704D02*
X170332455Y-46736704D01*
X169761027Y-47022419D02*
X170094360Y-46022419D01*
X170094360Y-46022419D02*
X170427693Y-47022419D01*
X170665789Y-46022419D02*
X171284836Y-46022419D01*
X171284836Y-46022419D02*
X170951503Y-46403371D01*
X170951503Y-46403371D02*
X171094360Y-46403371D01*
X171094360Y-46403371D02*
X171189598Y-46450990D01*
X171189598Y-46450990D02*
X171237217Y-46498609D01*
X171237217Y-46498609D02*
X171284836Y-46593847D01*
X171284836Y-46593847D02*
X171284836Y-46831942D01*
X171284836Y-46831942D02*
X171237217Y-46927180D01*
X171237217Y-46927180D02*
X171189598Y-46974800D01*
X171189598Y-46974800D02*
X171094360Y-47022419D01*
X171094360Y-47022419D02*
X170808646Y-47022419D01*
X170808646Y-47022419D02*
X170713408Y-46974800D01*
X170713408Y-46974800D02*
X170665789Y-46927180D01*
X170292693Y-56280038D02*
X170197455Y-56232419D01*
X170197455Y-56232419D02*
X170054598Y-56232419D01*
X170054598Y-56232419D02*
X169911741Y-56280038D01*
X169911741Y-56280038D02*
X169816503Y-56375276D01*
X169816503Y-56375276D02*
X169768884Y-56470514D01*
X169768884Y-56470514D02*
X169721265Y-56660990D01*
X169721265Y-56660990D02*
X169721265Y-56803847D01*
X169721265Y-56803847D02*
X169768884Y-56994323D01*
X169768884Y-56994323D02*
X169816503Y-57089561D01*
X169816503Y-57089561D02*
X169911741Y-57184800D01*
X169911741Y-57184800D02*
X170054598Y-57232419D01*
X170054598Y-57232419D02*
X170149836Y-57232419D01*
X170149836Y-57232419D02*
X170292693Y-57184800D01*
X170292693Y-57184800D02*
X170340312Y-57137180D01*
X170340312Y-57137180D02*
X170340312Y-56803847D01*
X170340312Y-56803847D02*
X170149836Y-56803847D01*
X170768884Y-57232419D02*
X170768884Y-56232419D01*
X170768884Y-56232419D02*
X171340312Y-57232419D01*
X171340312Y-57232419D02*
X171340312Y-56232419D01*
X171816503Y-57232419D02*
X171816503Y-56232419D01*
X171816503Y-56232419D02*
X172054598Y-56232419D01*
X172054598Y-56232419D02*
X172197455Y-56280038D01*
X172197455Y-56280038D02*
X172292693Y-56375276D01*
X172292693Y-56375276D02*
X172340312Y-56470514D01*
X172340312Y-56470514D02*
X172387931Y-56660990D01*
X172387931Y-56660990D02*
X172387931Y-56803847D01*
X172387931Y-56803847D02*
X172340312Y-56994323D01*
X172340312Y-56994323D02*
X172292693Y-57089561D01*
X172292693Y-57089561D02*
X172197455Y-57184800D01*
X172197455Y-57184800D02*
X172054598Y-57232419D01*
X172054598Y-57232419D02*
X171816503Y-57232419D01*
X144656265Y-34274800D02*
X144799122Y-34322419D01*
X144799122Y-34322419D02*
X145037217Y-34322419D01*
X145037217Y-34322419D02*
X145132455Y-34274800D01*
X145132455Y-34274800D02*
X145180074Y-34227180D01*
X145180074Y-34227180D02*
X145227693Y-34131942D01*
X145227693Y-34131942D02*
X145227693Y-34036704D01*
X145227693Y-34036704D02*
X145180074Y-33941466D01*
X145180074Y-33941466D02*
X145132455Y-33893847D01*
X145132455Y-33893847D02*
X145037217Y-33846228D01*
X145037217Y-33846228D02*
X144846741Y-33798609D01*
X144846741Y-33798609D02*
X144751503Y-33750990D01*
X144751503Y-33750990D02*
X144703884Y-33703371D01*
X144703884Y-33703371D02*
X144656265Y-33608133D01*
X144656265Y-33608133D02*
X144656265Y-33512895D01*
X144656265Y-33512895D02*
X144703884Y-33417657D01*
X144703884Y-33417657D02*
X144751503Y-33370038D01*
X144751503Y-33370038D02*
X144846741Y-33322419D01*
X144846741Y-33322419D02*
X145084836Y-33322419D01*
X145084836Y-33322419D02*
X145227693Y-33370038D01*
X146227693Y-34227180D02*
X146180074Y-34274800D01*
X146180074Y-34274800D02*
X146037217Y-34322419D01*
X146037217Y-34322419D02*
X145941979Y-34322419D01*
X145941979Y-34322419D02*
X145799122Y-34274800D01*
X145799122Y-34274800D02*
X145703884Y-34179561D01*
X145703884Y-34179561D02*
X145656265Y-34084323D01*
X145656265Y-34084323D02*
X145608646Y-33893847D01*
X145608646Y-33893847D02*
X145608646Y-33750990D01*
X145608646Y-33750990D02*
X145656265Y-33560514D01*
X145656265Y-33560514D02*
X145703884Y-33465276D01*
X145703884Y-33465276D02*
X145799122Y-33370038D01*
X145799122Y-33370038D02*
X145941979Y-33322419D01*
X145941979Y-33322419D02*
X146037217Y-33322419D01*
X146037217Y-33322419D02*
X146180074Y-33370038D01*
X146180074Y-33370038D02*
X146227693Y-33417657D01*
X146656265Y-34322419D02*
X146656265Y-33322419D01*
X147227693Y-34322419D02*
X146799122Y-33750990D01*
X147227693Y-33322419D02*
X146656265Y-33893847D01*
X169756265Y-54674800D02*
X169899122Y-54722419D01*
X169899122Y-54722419D02*
X170137217Y-54722419D01*
X170137217Y-54722419D02*
X170232455Y-54674800D01*
X170232455Y-54674800D02*
X170280074Y-54627180D01*
X170280074Y-54627180D02*
X170327693Y-54531942D01*
X170327693Y-54531942D02*
X170327693Y-54436704D01*
X170327693Y-54436704D02*
X170280074Y-54341466D01*
X170280074Y-54341466D02*
X170232455Y-54293847D01*
X170232455Y-54293847D02*
X170137217Y-54246228D01*
X170137217Y-54246228D02*
X169946741Y-54198609D01*
X169946741Y-54198609D02*
X169851503Y-54150990D01*
X169851503Y-54150990D02*
X169803884Y-54103371D01*
X169803884Y-54103371D02*
X169756265Y-54008133D01*
X169756265Y-54008133D02*
X169756265Y-53912895D01*
X169756265Y-53912895D02*
X169803884Y-53817657D01*
X169803884Y-53817657D02*
X169851503Y-53770038D01*
X169851503Y-53770038D02*
X169946741Y-53722419D01*
X169946741Y-53722419D02*
X170184836Y-53722419D01*
X170184836Y-53722419D02*
X170327693Y-53770038D01*
X171327693Y-54627180D02*
X171280074Y-54674800D01*
X171280074Y-54674800D02*
X171137217Y-54722419D01*
X171137217Y-54722419D02*
X171041979Y-54722419D01*
X171041979Y-54722419D02*
X170899122Y-54674800D01*
X170899122Y-54674800D02*
X170803884Y-54579561D01*
X170803884Y-54579561D02*
X170756265Y-54484323D01*
X170756265Y-54484323D02*
X170708646Y-54293847D01*
X170708646Y-54293847D02*
X170708646Y-54150990D01*
X170708646Y-54150990D02*
X170756265Y-53960514D01*
X170756265Y-53960514D02*
X170803884Y-53865276D01*
X170803884Y-53865276D02*
X170899122Y-53770038D01*
X170899122Y-53770038D02*
X171041979Y-53722419D01*
X171041979Y-53722419D02*
X171137217Y-53722419D01*
X171137217Y-53722419D02*
X171280074Y-53770038D01*
X171280074Y-53770038D02*
X171327693Y-53817657D01*
X172232455Y-54722419D02*
X171756265Y-54722419D01*
X171756265Y-54722419D02*
X171756265Y-53722419D01*
X151303884Y-41872419D02*
X151303884Y-40872419D01*
X151303884Y-40872419D02*
X151637217Y-41586704D01*
X151637217Y-41586704D02*
X151970550Y-40872419D01*
X151970550Y-40872419D02*
X151970550Y-41872419D01*
X152637217Y-40872419D02*
X152827693Y-40872419D01*
X152827693Y-40872419D02*
X152922931Y-40920038D01*
X152922931Y-40920038D02*
X153018169Y-41015276D01*
X153018169Y-41015276D02*
X153065788Y-41205752D01*
X153065788Y-41205752D02*
X153065788Y-41539085D01*
X153065788Y-41539085D02*
X153018169Y-41729561D01*
X153018169Y-41729561D02*
X152922931Y-41824800D01*
X152922931Y-41824800D02*
X152827693Y-41872419D01*
X152827693Y-41872419D02*
X152637217Y-41872419D01*
X152637217Y-41872419D02*
X152541979Y-41824800D01*
X152541979Y-41824800D02*
X152446741Y-41729561D01*
X152446741Y-41729561D02*
X152399122Y-41539085D01*
X152399122Y-41539085D02*
X152399122Y-41205752D01*
X152399122Y-41205752D02*
X152446741Y-41015276D01*
X152446741Y-41015276D02*
X152541979Y-40920038D01*
X152541979Y-40920038D02*
X152637217Y-40872419D01*
X153446741Y-41824800D02*
X153589598Y-41872419D01*
X153589598Y-41872419D02*
X153827693Y-41872419D01*
X153827693Y-41872419D02*
X153922931Y-41824800D01*
X153922931Y-41824800D02*
X153970550Y-41777180D01*
X153970550Y-41777180D02*
X154018169Y-41681942D01*
X154018169Y-41681942D02*
X154018169Y-41586704D01*
X154018169Y-41586704D02*
X153970550Y-41491466D01*
X153970550Y-41491466D02*
X153922931Y-41443847D01*
X153922931Y-41443847D02*
X153827693Y-41396228D01*
X153827693Y-41396228D02*
X153637217Y-41348609D01*
X153637217Y-41348609D02*
X153541979Y-41300990D01*
X153541979Y-41300990D02*
X153494360Y-41253371D01*
X153494360Y-41253371D02*
X153446741Y-41158133D01*
X153446741Y-41158133D02*
X153446741Y-41062895D01*
X153446741Y-41062895D02*
X153494360Y-40967657D01*
X153494360Y-40967657D02*
X153541979Y-40920038D01*
X153541979Y-40920038D02*
X153637217Y-40872419D01*
X153637217Y-40872419D02*
X153875312Y-40872419D01*
X153875312Y-40872419D02*
X154018169Y-40920038D01*
X154446741Y-41872419D02*
X154446741Y-40872419D01*
X170175312Y-36722419D02*
X169841979Y-36246228D01*
X169603884Y-36722419D02*
X169603884Y-35722419D01*
X169603884Y-35722419D02*
X169984836Y-35722419D01*
X169984836Y-35722419D02*
X170080074Y-35770038D01*
X170080074Y-35770038D02*
X170127693Y-35817657D01*
X170127693Y-35817657D02*
X170175312Y-35912895D01*
X170175312Y-35912895D02*
X170175312Y-36055752D01*
X170175312Y-36055752D02*
X170127693Y-36150990D01*
X170127693Y-36150990D02*
X170080074Y-36198609D01*
X170080074Y-36198609D02*
X169984836Y-36246228D01*
X169984836Y-36246228D02*
X169603884Y-36246228D01*
X170508646Y-35722419D02*
X171175312Y-36722419D01*
X171175312Y-35722419D02*
X170508646Y-36722419D01*
X172080074Y-36722419D02*
X171508646Y-36722419D01*
X171794360Y-36722419D02*
X171794360Y-35722419D01*
X171794360Y-35722419D02*
X171699122Y-35865276D01*
X171699122Y-35865276D02*
X171603884Y-35960514D01*
X171603884Y-35960514D02*
X171508646Y-36008133D01*
X145327693Y-43670038D02*
X145232455Y-43622419D01*
X145232455Y-43622419D02*
X145089598Y-43622419D01*
X145089598Y-43622419D02*
X144946741Y-43670038D01*
X144946741Y-43670038D02*
X144851503Y-43765276D01*
X144851503Y-43765276D02*
X144803884Y-43860514D01*
X144803884Y-43860514D02*
X144756265Y-44050990D01*
X144756265Y-44050990D02*
X144756265Y-44193847D01*
X144756265Y-44193847D02*
X144803884Y-44384323D01*
X144803884Y-44384323D02*
X144851503Y-44479561D01*
X144851503Y-44479561D02*
X144946741Y-44574800D01*
X144946741Y-44574800D02*
X145089598Y-44622419D01*
X145089598Y-44622419D02*
X145184836Y-44622419D01*
X145184836Y-44622419D02*
X145327693Y-44574800D01*
X145327693Y-44574800D02*
X145375312Y-44527180D01*
X145375312Y-44527180D02*
X145375312Y-44193847D01*
X145375312Y-44193847D02*
X145184836Y-44193847D01*
X145803884Y-44622419D02*
X145803884Y-43622419D01*
X145803884Y-43622419D02*
X146375312Y-44622419D01*
X146375312Y-44622419D02*
X146375312Y-43622419D01*
X146851503Y-44622419D02*
X146851503Y-43622419D01*
X146851503Y-43622419D02*
X147089598Y-43622419D01*
X147089598Y-43622419D02*
X147232455Y-43670038D01*
X147232455Y-43670038D02*
X147327693Y-43765276D01*
X147327693Y-43765276D02*
X147375312Y-43860514D01*
X147375312Y-43860514D02*
X147422931Y-44050990D01*
X147422931Y-44050990D02*
X147422931Y-44193847D01*
X147422931Y-44193847D02*
X147375312Y-44384323D01*
X147375312Y-44384323D02*
X147327693Y-44479561D01*
X147327693Y-44479561D02*
X147232455Y-44574800D01*
X147232455Y-44574800D02*
X147089598Y-44622419D01*
X147089598Y-44622419D02*
X146851503Y-44622419D01*
X144703884Y-37022419D02*
X144703884Y-36022419D01*
X144703884Y-36022419D02*
X145275312Y-37022419D01*
X145275312Y-37022419D02*
X145275312Y-36022419D01*
X145703884Y-36974800D02*
X145846741Y-37022419D01*
X145846741Y-37022419D02*
X146084836Y-37022419D01*
X146084836Y-37022419D02*
X146180074Y-36974800D01*
X146180074Y-36974800D02*
X146227693Y-36927180D01*
X146227693Y-36927180D02*
X146275312Y-36831942D01*
X146275312Y-36831942D02*
X146275312Y-36736704D01*
X146275312Y-36736704D02*
X146227693Y-36641466D01*
X146227693Y-36641466D02*
X146180074Y-36593847D01*
X146180074Y-36593847D02*
X146084836Y-36546228D01*
X146084836Y-36546228D02*
X145894360Y-36498609D01*
X145894360Y-36498609D02*
X145799122Y-36450990D01*
X145799122Y-36450990D02*
X145751503Y-36403371D01*
X145751503Y-36403371D02*
X145703884Y-36308133D01*
X145703884Y-36308133D02*
X145703884Y-36212895D01*
X145703884Y-36212895D02*
X145751503Y-36117657D01*
X145751503Y-36117657D02*
X145799122Y-36070038D01*
X145799122Y-36070038D02*
X145894360Y-36022419D01*
X145894360Y-36022419D02*
X146132455Y-36022419D01*
X146132455Y-36022419D02*
X146275312Y-36070038D01*
X146656265Y-36974800D02*
X146799122Y-37022419D01*
X146799122Y-37022419D02*
X147037217Y-37022419D01*
X147037217Y-37022419D02*
X147132455Y-36974800D01*
X147132455Y-36974800D02*
X147180074Y-36927180D01*
X147180074Y-36927180D02*
X147227693Y-36831942D01*
X147227693Y-36831942D02*
X147227693Y-36736704D01*
X147227693Y-36736704D02*
X147180074Y-36641466D01*
X147180074Y-36641466D02*
X147132455Y-36593847D01*
X147132455Y-36593847D02*
X147037217Y-36546228D01*
X147037217Y-36546228D02*
X146846741Y-36498609D01*
X146846741Y-36498609D02*
X146751503Y-36450990D01*
X146751503Y-36450990D02*
X146703884Y-36403371D01*
X146703884Y-36403371D02*
X146656265Y-36308133D01*
X146656265Y-36308133D02*
X146656265Y-36212895D01*
X146656265Y-36212895D02*
X146703884Y-36117657D01*
X146703884Y-36117657D02*
X146751503Y-36070038D01*
X146751503Y-36070038D02*
X146846741Y-36022419D01*
X146846741Y-36022419D02*
X147084836Y-36022419D01*
X147084836Y-36022419D02*
X147227693Y-36070038D01*
X169956265Y-49136704D02*
X170432455Y-49136704D01*
X169861027Y-49422419D02*
X170194360Y-48422419D01*
X170194360Y-48422419D02*
X170527693Y-49422419D01*
X171289598Y-48755752D02*
X171289598Y-49422419D01*
X171051503Y-48374800D02*
X170813408Y-49089085D01*
X170813408Y-49089085D02*
X171432455Y-49089085D01*
X170175312Y-31722419D02*
X169841979Y-31246228D01*
X169603884Y-31722419D02*
X169603884Y-30722419D01*
X169603884Y-30722419D02*
X169984836Y-30722419D01*
X169984836Y-30722419D02*
X170080074Y-30770038D01*
X170080074Y-30770038D02*
X170127693Y-30817657D01*
X170127693Y-30817657D02*
X170175312Y-30912895D01*
X170175312Y-30912895D02*
X170175312Y-31055752D01*
X170175312Y-31055752D02*
X170127693Y-31150990D01*
X170127693Y-31150990D02*
X170080074Y-31198609D01*
X170080074Y-31198609D02*
X169984836Y-31246228D01*
X169984836Y-31246228D02*
X169603884Y-31246228D01*
X170508646Y-30722419D02*
X171175312Y-31722419D01*
X171175312Y-30722419D02*
X170508646Y-31722419D01*
X171508646Y-30817657D02*
X171556265Y-30770038D01*
X171556265Y-30770038D02*
X171651503Y-30722419D01*
X171651503Y-30722419D02*
X171889598Y-30722419D01*
X171889598Y-30722419D02*
X171984836Y-30770038D01*
X171984836Y-30770038D02*
X172032455Y-30817657D01*
X172032455Y-30817657D02*
X172080074Y-30912895D01*
X172080074Y-30912895D02*
X172080074Y-31008133D01*
X172080074Y-31008133D02*
X172032455Y-31150990D01*
X172032455Y-31150990D02*
X171461027Y-31722419D01*
X171461027Y-31722419D02*
X172080074Y-31722419D01*
X169703884Y-39322419D02*
X169703884Y-38322419D01*
X169703884Y-38322419D02*
X169941979Y-38322419D01*
X169941979Y-38322419D02*
X170084836Y-38370038D01*
X170084836Y-38370038D02*
X170180074Y-38465276D01*
X170180074Y-38465276D02*
X170227693Y-38560514D01*
X170227693Y-38560514D02*
X170275312Y-38750990D01*
X170275312Y-38750990D02*
X170275312Y-38893847D01*
X170275312Y-38893847D02*
X170227693Y-39084323D01*
X170227693Y-39084323D02*
X170180074Y-39179561D01*
X170180074Y-39179561D02*
X170084836Y-39274800D01*
X170084836Y-39274800D02*
X169941979Y-39322419D01*
X169941979Y-39322419D02*
X169703884Y-39322419D01*
X170894360Y-38322419D02*
X170989598Y-38322419D01*
X170989598Y-38322419D02*
X171084836Y-38370038D01*
X171084836Y-38370038D02*
X171132455Y-38417657D01*
X171132455Y-38417657D02*
X171180074Y-38512895D01*
X171180074Y-38512895D02*
X171227693Y-38703371D01*
X171227693Y-38703371D02*
X171227693Y-38941466D01*
X171227693Y-38941466D02*
X171180074Y-39131942D01*
X171180074Y-39131942D02*
X171132455Y-39227180D01*
X171132455Y-39227180D02*
X171084836Y-39274800D01*
X171084836Y-39274800D02*
X170989598Y-39322419D01*
X170989598Y-39322419D02*
X170894360Y-39322419D01*
X170894360Y-39322419D02*
X170799122Y-39274800D01*
X170799122Y-39274800D02*
X170751503Y-39227180D01*
X170751503Y-39227180D02*
X170703884Y-39131942D01*
X170703884Y-39131942D02*
X170656265Y-38941466D01*
X170656265Y-38941466D02*
X170656265Y-38703371D01*
X170656265Y-38703371D02*
X170703884Y-38512895D01*
X170703884Y-38512895D02*
X170751503Y-38417657D01*
X170751503Y-38417657D02*
X170799122Y-38370038D01*
X170799122Y-38370038D02*
X170894360Y-38322419D01*
X169561027Y-28022419D02*
X170132455Y-28022419D01*
X169846741Y-29022419D02*
X169846741Y-28022419D01*
X170370551Y-28022419D02*
X171037217Y-29022419D01*
X171037217Y-28022419D02*
X170370551Y-29022419D01*
X171370551Y-28117657D02*
X171418170Y-28070038D01*
X171418170Y-28070038D02*
X171513408Y-28022419D01*
X171513408Y-28022419D02*
X171751503Y-28022419D01*
X171751503Y-28022419D02*
X171846741Y-28070038D01*
X171846741Y-28070038D02*
X171894360Y-28117657D01*
X171894360Y-28117657D02*
X171941979Y-28212895D01*
X171941979Y-28212895D02*
X171941979Y-28308133D01*
X171941979Y-28308133D02*
X171894360Y-28450990D01*
X171894360Y-28450990D02*
X171322932Y-29022419D01*
X171322932Y-29022419D02*
X171941979Y-29022419D01*
X145745074Y-56222419D02*
X145268884Y-56222419D01*
X145268884Y-56222419D02*
X145221265Y-56698609D01*
X145221265Y-56698609D02*
X145268884Y-56650990D01*
X145268884Y-56650990D02*
X145364122Y-56603371D01*
X145364122Y-56603371D02*
X145602217Y-56603371D01*
X145602217Y-56603371D02*
X145697455Y-56650990D01*
X145697455Y-56650990D02*
X145745074Y-56698609D01*
X145745074Y-56698609D02*
X145792693Y-56793847D01*
X145792693Y-56793847D02*
X145792693Y-57031942D01*
X145792693Y-57031942D02*
X145745074Y-57127180D01*
X145745074Y-57127180D02*
X145697455Y-57174800D01*
X145697455Y-57174800D02*
X145602217Y-57222419D01*
X145602217Y-57222419D02*
X145364122Y-57222419D01*
X145364122Y-57222419D02*
X145268884Y-57174800D01*
X145268884Y-57174800D02*
X145221265Y-57127180D01*
X146078408Y-56222419D02*
X146411741Y-57222419D01*
X146411741Y-57222419D02*
X146745074Y-56222419D01*
X151208646Y-53872419D02*
X151827693Y-53872419D01*
X151827693Y-53872419D02*
X151494360Y-54253371D01*
X151494360Y-54253371D02*
X151637217Y-54253371D01*
X151637217Y-54253371D02*
X151732455Y-54300990D01*
X151732455Y-54300990D02*
X151780074Y-54348609D01*
X151780074Y-54348609D02*
X151827693Y-54443847D01*
X151827693Y-54443847D02*
X151827693Y-54681942D01*
X151827693Y-54681942D02*
X151780074Y-54777180D01*
X151780074Y-54777180D02*
X151732455Y-54824800D01*
X151732455Y-54824800D02*
X151637217Y-54872419D01*
X151637217Y-54872419D02*
X151351503Y-54872419D01*
X151351503Y-54872419D02*
X151256265Y-54824800D01*
X151256265Y-54824800D02*
X151208646Y-54777180D01*
X152303884Y-54824800D02*
X152303884Y-54872419D01*
X152303884Y-54872419D02*
X152256265Y-54967657D01*
X152256265Y-54967657D02*
X152208646Y-55015276D01*
X152637217Y-53872419D02*
X153256264Y-53872419D01*
X153256264Y-53872419D02*
X152922931Y-54253371D01*
X152922931Y-54253371D02*
X153065788Y-54253371D01*
X153065788Y-54253371D02*
X153161026Y-54300990D01*
X153161026Y-54300990D02*
X153208645Y-54348609D01*
X153208645Y-54348609D02*
X153256264Y-54443847D01*
X153256264Y-54443847D02*
X153256264Y-54681942D01*
X153256264Y-54681942D02*
X153208645Y-54777180D01*
X153208645Y-54777180D02*
X153161026Y-54824800D01*
X153161026Y-54824800D02*
X153065788Y-54872419D01*
X153065788Y-54872419D02*
X152780074Y-54872419D01*
X152780074Y-54872419D02*
X152684836Y-54824800D01*
X152684836Y-54824800D02*
X152637217Y-54777180D01*
X153541979Y-53872419D02*
X153875312Y-54872419D01*
X153875312Y-54872419D02*
X154208645Y-53872419D01*
X169461027Y-33222419D02*
X170032455Y-33222419D01*
X169746741Y-34222419D02*
X169746741Y-33222419D01*
X170270551Y-33222419D02*
X170937217Y-34222419D01*
X170937217Y-33222419D02*
X170270551Y-34222419D01*
X171841979Y-34222419D02*
X171270551Y-34222419D01*
X171556265Y-34222419D02*
X171556265Y-33222419D01*
X171556265Y-33222419D02*
X171461027Y-33365276D01*
X171461027Y-33365276D02*
X171365789Y-33460514D01*
X171365789Y-33460514D02*
X171270551Y-33508133D01*
X145475312Y-47222419D02*
X145141979Y-46746228D01*
X144903884Y-47222419D02*
X144903884Y-46222419D01*
X144903884Y-46222419D02*
X145284836Y-46222419D01*
X145284836Y-46222419D02*
X145380074Y-46270038D01*
X145380074Y-46270038D02*
X145427693Y-46317657D01*
X145427693Y-46317657D02*
X145475312Y-46412895D01*
X145475312Y-46412895D02*
X145475312Y-46555752D01*
X145475312Y-46555752D02*
X145427693Y-46650990D01*
X145427693Y-46650990D02*
X145380074Y-46698609D01*
X145380074Y-46698609D02*
X145284836Y-46746228D01*
X145284836Y-46746228D02*
X144903884Y-46746228D01*
X145856265Y-47174800D02*
X145999122Y-47222419D01*
X145999122Y-47222419D02*
X146237217Y-47222419D01*
X146237217Y-47222419D02*
X146332455Y-47174800D01*
X146332455Y-47174800D02*
X146380074Y-47127180D01*
X146380074Y-47127180D02*
X146427693Y-47031942D01*
X146427693Y-47031942D02*
X146427693Y-46936704D01*
X146427693Y-46936704D02*
X146380074Y-46841466D01*
X146380074Y-46841466D02*
X146332455Y-46793847D01*
X146332455Y-46793847D02*
X146237217Y-46746228D01*
X146237217Y-46746228D02*
X146046741Y-46698609D01*
X146046741Y-46698609D02*
X145951503Y-46650990D01*
X145951503Y-46650990D02*
X145903884Y-46603371D01*
X145903884Y-46603371D02*
X145856265Y-46508133D01*
X145856265Y-46508133D02*
X145856265Y-46412895D01*
X145856265Y-46412895D02*
X145903884Y-46317657D01*
X145903884Y-46317657D02*
X145951503Y-46270038D01*
X145951503Y-46270038D02*
X146046741Y-46222419D01*
X146046741Y-46222419D02*
X146284836Y-46222419D01*
X146284836Y-46222419D02*
X146427693Y-46270038D01*
X146713408Y-46222419D02*
X147284836Y-46222419D01*
X146999122Y-47222419D02*
X146999122Y-46222419D01*
X169761027Y-40922419D02*
X170332455Y-40922419D01*
X170046741Y-41922419D02*
X170046741Y-40922419D01*
X170570551Y-40922419D02*
X171237217Y-41922419D01*
X171237217Y-40922419D02*
X170570551Y-41922419D01*
X170475312Y-44522419D02*
X170141979Y-44046228D01*
X169903884Y-44522419D02*
X169903884Y-43522419D01*
X169903884Y-43522419D02*
X170284836Y-43522419D01*
X170284836Y-43522419D02*
X170380074Y-43570038D01*
X170380074Y-43570038D02*
X170427693Y-43617657D01*
X170427693Y-43617657D02*
X170475312Y-43712895D01*
X170475312Y-43712895D02*
X170475312Y-43855752D01*
X170475312Y-43855752D02*
X170427693Y-43950990D01*
X170427693Y-43950990D02*
X170380074Y-43998609D01*
X170380074Y-43998609D02*
X170284836Y-44046228D01*
X170284836Y-44046228D02*
X169903884Y-44046228D01*
X170808646Y-43522419D02*
X171475312Y-44522419D01*
X171475312Y-43522419D02*
X170808646Y-44522419D01*
D12*
X182238095Y-92074819D02*
X182238095Y-91074819D01*
X182238095Y-91074819D02*
X182809523Y-92074819D01*
X182809523Y-92074819D02*
X182809523Y-91074819D01*
X183857142Y-91979580D02*
X183809523Y-92027200D01*
X183809523Y-92027200D02*
X183666666Y-92074819D01*
X183666666Y-92074819D02*
X183571428Y-92074819D01*
X183571428Y-92074819D02*
X183428571Y-92027200D01*
X183428571Y-92027200D02*
X183333333Y-91931961D01*
X183333333Y-91931961D02*
X183285714Y-91836723D01*
X183285714Y-91836723D02*
X183238095Y-91646247D01*
X183238095Y-91646247D02*
X183238095Y-91503390D01*
X183238095Y-91503390D02*
X183285714Y-91312914D01*
X183285714Y-91312914D02*
X183333333Y-91217676D01*
X183333333Y-91217676D02*
X183428571Y-91122438D01*
X183428571Y-91122438D02*
X183571428Y-91074819D01*
X183571428Y-91074819D02*
X183666666Y-91074819D01*
X183666666Y-91074819D02*
X183809523Y-91122438D01*
X183809523Y-91122438D02*
X183857142Y-91170057D01*
X184238095Y-91170057D02*
X184285714Y-91122438D01*
X184285714Y-91122438D02*
X184380952Y-91074819D01*
X184380952Y-91074819D02*
X184619047Y-91074819D01*
X184619047Y-91074819D02*
X184714285Y-91122438D01*
X184714285Y-91122438D02*
X184761904Y-91170057D01*
X184761904Y-91170057D02*
X184809523Y-91265295D01*
X184809523Y-91265295D02*
X184809523Y-91360533D01*
X184809523Y-91360533D02*
X184761904Y-91503390D01*
X184761904Y-91503390D02*
X184190476Y-92074819D01*
X184190476Y-92074819D02*
X184809523Y-92074819D01*
D10*
X179637217Y-38188609D02*
X179780074Y-38236228D01*
X179780074Y-38236228D02*
X179827693Y-38283847D01*
X179827693Y-38283847D02*
X179875312Y-38379085D01*
X179875312Y-38379085D02*
X179875312Y-38521942D01*
X179875312Y-38521942D02*
X179827693Y-38617180D01*
X179827693Y-38617180D02*
X179780074Y-38664800D01*
X179780074Y-38664800D02*
X179684836Y-38712419D01*
X179684836Y-38712419D02*
X179303884Y-38712419D01*
X179303884Y-38712419D02*
X179303884Y-37712419D01*
X179303884Y-37712419D02*
X179637217Y-37712419D01*
X179637217Y-37712419D02*
X179732455Y-37760038D01*
X179732455Y-37760038D02*
X179780074Y-37807657D01*
X179780074Y-37807657D02*
X179827693Y-37902895D01*
X179827693Y-37902895D02*
X179827693Y-37998133D01*
X179827693Y-37998133D02*
X179780074Y-38093371D01*
X179780074Y-38093371D02*
X179732455Y-38140990D01*
X179732455Y-38140990D02*
X179637217Y-38188609D01*
X179637217Y-38188609D02*
X179303884Y-38188609D01*
X180256265Y-38426704D02*
X180732455Y-38426704D01*
X180161027Y-38712419D02*
X180494360Y-37712419D01*
X180494360Y-37712419D02*
X180827693Y-38712419D01*
X181018170Y-37712419D02*
X181589598Y-37712419D01*
X181303884Y-38712419D02*
X181303884Y-37712419D01*
X179661027Y-88712419D02*
X180232455Y-88712419D01*
X179946741Y-89712419D02*
X179946741Y-88712419D01*
X180470551Y-88712419D02*
X181137217Y-89712419D01*
X181137217Y-88712419D02*
X180470551Y-89712419D01*
X179756265Y-76926704D02*
X180232455Y-76926704D01*
X179661027Y-77212419D02*
X179994360Y-76212419D01*
X179994360Y-76212419D02*
X180327693Y-77212419D01*
X181184836Y-77212419D02*
X180613408Y-77212419D01*
X180899122Y-77212419D02*
X180899122Y-76212419D01*
X180899122Y-76212419D02*
X180803884Y-76355276D01*
X180803884Y-76355276D02*
X180708646Y-76450514D01*
X180708646Y-76450514D02*
X180613408Y-76498133D01*
X179256265Y-66926704D02*
X179732455Y-66926704D01*
X179161027Y-67212419D02*
X179494360Y-66212419D01*
X179494360Y-66212419D02*
X179827693Y-67212419D01*
X180018170Y-66212419D02*
X180589598Y-66212419D01*
X180303884Y-67212419D02*
X180303884Y-66212419D01*
X180922932Y-67212419D02*
X180922932Y-66212419D01*
X180922932Y-66212419D02*
X181494360Y-67212419D01*
X181494360Y-67212419D02*
X181494360Y-66212419D01*
X179756265Y-84426704D02*
X180232455Y-84426704D01*
X179661027Y-84712419D02*
X179994360Y-83712419D01*
X179994360Y-83712419D02*
X180327693Y-84712419D01*
X181089598Y-84045752D02*
X181089598Y-84712419D01*
X180851503Y-83664800D02*
X180613408Y-84379085D01*
X180613408Y-84379085D02*
X181232455Y-84379085D01*
X179732455Y-41712419D02*
X179732455Y-40712419D01*
X179732455Y-40712419D02*
X179965789Y-41426704D01*
X179965789Y-41426704D02*
X180199122Y-40712419D01*
X180199122Y-40712419D02*
X180199122Y-41712419D01*
X180499122Y-41426704D02*
X180832455Y-41426704D01*
X180432455Y-41712419D02*
X180665789Y-40712419D01*
X180665789Y-40712419D02*
X180899122Y-41712419D01*
X181132455Y-41712419D02*
X181132455Y-40712419D01*
X181465788Y-41712419D02*
X181465788Y-40712419D01*
X181465788Y-40712419D02*
X181865788Y-41712419D01*
X181865788Y-41712419D02*
X181865788Y-40712419D01*
X179756265Y-79426704D02*
X180232455Y-79426704D01*
X179661027Y-79712419D02*
X179994360Y-78712419D01*
X179994360Y-78712419D02*
X180327693Y-79712419D01*
X180613408Y-78807657D02*
X180661027Y-78760038D01*
X180661027Y-78760038D02*
X180756265Y-78712419D01*
X180756265Y-78712419D02*
X180994360Y-78712419D01*
X180994360Y-78712419D02*
X181089598Y-78760038D01*
X181089598Y-78760038D02*
X181137217Y-78807657D01*
X181137217Y-78807657D02*
X181184836Y-78902895D01*
X181184836Y-78902895D02*
X181184836Y-78998133D01*
X181184836Y-78998133D02*
X181137217Y-79140990D01*
X181137217Y-79140990D02*
X180565789Y-79712419D01*
X180565789Y-79712419D02*
X181184836Y-79712419D01*
X179256265Y-64664800D02*
X179399122Y-64712419D01*
X179399122Y-64712419D02*
X179637217Y-64712419D01*
X179637217Y-64712419D02*
X179732455Y-64664800D01*
X179732455Y-64664800D02*
X179780074Y-64617180D01*
X179780074Y-64617180D02*
X179827693Y-64521942D01*
X179827693Y-64521942D02*
X179827693Y-64426704D01*
X179827693Y-64426704D02*
X179780074Y-64331466D01*
X179780074Y-64331466D02*
X179732455Y-64283847D01*
X179732455Y-64283847D02*
X179637217Y-64236228D01*
X179637217Y-64236228D02*
X179446741Y-64188609D01*
X179446741Y-64188609D02*
X179351503Y-64140990D01*
X179351503Y-64140990D02*
X179303884Y-64093371D01*
X179303884Y-64093371D02*
X179256265Y-63998133D01*
X179256265Y-63998133D02*
X179256265Y-63902895D01*
X179256265Y-63902895D02*
X179303884Y-63807657D01*
X179303884Y-63807657D02*
X179351503Y-63760038D01*
X179351503Y-63760038D02*
X179446741Y-63712419D01*
X179446741Y-63712419D02*
X179684836Y-63712419D01*
X179684836Y-63712419D02*
X179827693Y-63760038D01*
X180256265Y-64712419D02*
X180256265Y-63712419D01*
X180256265Y-63712419D02*
X180494360Y-63712419D01*
X180494360Y-63712419D02*
X180637217Y-63760038D01*
X180637217Y-63760038D02*
X180732455Y-63855276D01*
X180732455Y-63855276D02*
X180780074Y-63950514D01*
X180780074Y-63950514D02*
X180827693Y-64140990D01*
X180827693Y-64140990D02*
X180827693Y-64283847D01*
X180827693Y-64283847D02*
X180780074Y-64474323D01*
X180780074Y-64474323D02*
X180732455Y-64569561D01*
X180732455Y-64569561D02*
X180637217Y-64664800D01*
X180637217Y-64664800D02*
X180494360Y-64712419D01*
X180494360Y-64712419D02*
X180256265Y-64712419D01*
X181208646Y-64426704D02*
X181684836Y-64426704D01*
X181113408Y-64712419D02*
X181446741Y-63712419D01*
X181446741Y-63712419D02*
X181780074Y-64712419D01*
X178803884Y-35712419D02*
X178803884Y-36521942D01*
X178803884Y-36521942D02*
X178851503Y-36617180D01*
X178851503Y-36617180D02*
X178899122Y-36664800D01*
X178899122Y-36664800D02*
X178994360Y-36712419D01*
X178994360Y-36712419D02*
X179184836Y-36712419D01*
X179184836Y-36712419D02*
X179280074Y-36664800D01*
X179280074Y-36664800D02*
X179327693Y-36617180D01*
X179327693Y-36617180D02*
X179375312Y-36521942D01*
X179375312Y-36521942D02*
X179375312Y-35712419D01*
X179803884Y-36664800D02*
X179946741Y-36712419D01*
X179946741Y-36712419D02*
X180184836Y-36712419D01*
X180184836Y-36712419D02*
X180280074Y-36664800D01*
X180280074Y-36664800D02*
X180327693Y-36617180D01*
X180327693Y-36617180D02*
X180375312Y-36521942D01*
X180375312Y-36521942D02*
X180375312Y-36426704D01*
X180375312Y-36426704D02*
X180327693Y-36331466D01*
X180327693Y-36331466D02*
X180280074Y-36283847D01*
X180280074Y-36283847D02*
X180184836Y-36236228D01*
X180184836Y-36236228D02*
X179994360Y-36188609D01*
X179994360Y-36188609D02*
X179899122Y-36140990D01*
X179899122Y-36140990D02*
X179851503Y-36093371D01*
X179851503Y-36093371D02*
X179803884Y-35998133D01*
X179803884Y-35998133D02*
X179803884Y-35902895D01*
X179803884Y-35902895D02*
X179851503Y-35807657D01*
X179851503Y-35807657D02*
X179899122Y-35760038D01*
X179899122Y-35760038D02*
X179994360Y-35712419D01*
X179994360Y-35712419D02*
X180232455Y-35712419D01*
X180232455Y-35712419D02*
X180375312Y-35760038D01*
X181137217Y-36188609D02*
X181280074Y-36236228D01*
X181280074Y-36236228D02*
X181327693Y-36283847D01*
X181327693Y-36283847D02*
X181375312Y-36379085D01*
X181375312Y-36379085D02*
X181375312Y-36521942D01*
X181375312Y-36521942D02*
X181327693Y-36617180D01*
X181327693Y-36617180D02*
X181280074Y-36664800D01*
X181280074Y-36664800D02*
X181184836Y-36712419D01*
X181184836Y-36712419D02*
X180803884Y-36712419D01*
X180803884Y-36712419D02*
X180803884Y-35712419D01*
X180803884Y-35712419D02*
X181137217Y-35712419D01*
X181137217Y-35712419D02*
X181232455Y-35760038D01*
X181232455Y-35760038D02*
X181280074Y-35807657D01*
X181280074Y-35807657D02*
X181327693Y-35902895D01*
X181327693Y-35902895D02*
X181327693Y-35998133D01*
X181327693Y-35998133D02*
X181280074Y-36093371D01*
X181280074Y-36093371D02*
X181232455Y-36140990D01*
X181232455Y-36140990D02*
X181137217Y-36188609D01*
X181137217Y-36188609D02*
X180803884Y-36188609D01*
X179161027Y-43212419D02*
X179494360Y-44212419D01*
X179494360Y-44212419D02*
X179827693Y-43212419D01*
X180161027Y-44212419D02*
X180161027Y-43212419D01*
X180827693Y-43212419D02*
X181018169Y-43212419D01*
X181018169Y-43212419D02*
X181113407Y-43260038D01*
X181113407Y-43260038D02*
X181208645Y-43355276D01*
X181208645Y-43355276D02*
X181256264Y-43545752D01*
X181256264Y-43545752D02*
X181256264Y-43879085D01*
X181256264Y-43879085D02*
X181208645Y-44069561D01*
X181208645Y-44069561D02*
X181113407Y-44164800D01*
X181113407Y-44164800D02*
X181018169Y-44212419D01*
X181018169Y-44212419D02*
X180827693Y-44212419D01*
X180827693Y-44212419D02*
X180732455Y-44164800D01*
X180732455Y-44164800D02*
X180637217Y-44069561D01*
X180637217Y-44069561D02*
X180589598Y-43879085D01*
X180589598Y-43879085D02*
X180589598Y-43545752D01*
X180589598Y-43545752D02*
X180637217Y-43355276D01*
X180637217Y-43355276D02*
X180732455Y-43260038D01*
X180732455Y-43260038D02*
X180827693Y-43212419D01*
X179756265Y-81926704D02*
X180232455Y-81926704D01*
X179661027Y-82212419D02*
X179994360Y-81212419D01*
X179994360Y-81212419D02*
X180327693Y-82212419D01*
X180565789Y-81212419D02*
X181184836Y-81212419D01*
X181184836Y-81212419D02*
X180851503Y-81593371D01*
X180851503Y-81593371D02*
X180994360Y-81593371D01*
X180994360Y-81593371D02*
X181089598Y-81640990D01*
X181089598Y-81640990D02*
X181137217Y-81688609D01*
X181137217Y-81688609D02*
X181184836Y-81783847D01*
X181184836Y-81783847D02*
X181184836Y-82021942D01*
X181184836Y-82021942D02*
X181137217Y-82117180D01*
X181137217Y-82117180D02*
X181089598Y-82164800D01*
X181089598Y-82164800D02*
X180994360Y-82212419D01*
X180994360Y-82212419D02*
X180708646Y-82212419D01*
X180708646Y-82212419D02*
X180613408Y-82164800D01*
X180613408Y-82164800D02*
X180565789Y-82117180D01*
X179875312Y-56712419D02*
X179541979Y-56236228D01*
X179303884Y-56712419D02*
X179303884Y-55712419D01*
X179303884Y-55712419D02*
X179684836Y-55712419D01*
X179684836Y-55712419D02*
X179780074Y-55760038D01*
X179780074Y-55760038D02*
X179827693Y-55807657D01*
X179827693Y-55807657D02*
X179875312Y-55902895D01*
X179875312Y-55902895D02*
X179875312Y-56045752D01*
X179875312Y-56045752D02*
X179827693Y-56140990D01*
X179827693Y-56140990D02*
X179780074Y-56188609D01*
X179780074Y-56188609D02*
X179684836Y-56236228D01*
X179684836Y-56236228D02*
X179303884Y-56236228D01*
X180256265Y-56664800D02*
X180399122Y-56712419D01*
X180399122Y-56712419D02*
X180637217Y-56712419D01*
X180637217Y-56712419D02*
X180732455Y-56664800D01*
X180732455Y-56664800D02*
X180780074Y-56617180D01*
X180780074Y-56617180D02*
X180827693Y-56521942D01*
X180827693Y-56521942D02*
X180827693Y-56426704D01*
X180827693Y-56426704D02*
X180780074Y-56331466D01*
X180780074Y-56331466D02*
X180732455Y-56283847D01*
X180732455Y-56283847D02*
X180637217Y-56236228D01*
X180637217Y-56236228D02*
X180446741Y-56188609D01*
X180446741Y-56188609D02*
X180351503Y-56140990D01*
X180351503Y-56140990D02*
X180303884Y-56093371D01*
X180303884Y-56093371D02*
X180256265Y-55998133D01*
X180256265Y-55998133D02*
X180256265Y-55902895D01*
X180256265Y-55902895D02*
X180303884Y-55807657D01*
X180303884Y-55807657D02*
X180351503Y-55760038D01*
X180351503Y-55760038D02*
X180446741Y-55712419D01*
X180446741Y-55712419D02*
X180684836Y-55712419D01*
X180684836Y-55712419D02*
X180827693Y-55760038D01*
X181113408Y-55712419D02*
X181684836Y-55712419D01*
X181399122Y-56712419D02*
X181399122Y-55712419D01*
X180375312Y-87212419D02*
X180041979Y-86736228D01*
X179803884Y-87212419D02*
X179803884Y-86212419D01*
X179803884Y-86212419D02*
X180184836Y-86212419D01*
X180184836Y-86212419D02*
X180280074Y-86260038D01*
X180280074Y-86260038D02*
X180327693Y-86307657D01*
X180327693Y-86307657D02*
X180375312Y-86402895D01*
X180375312Y-86402895D02*
X180375312Y-86545752D01*
X180375312Y-86545752D02*
X180327693Y-86640990D01*
X180327693Y-86640990D02*
X180280074Y-86688609D01*
X180280074Y-86688609D02*
X180184836Y-86736228D01*
X180184836Y-86736228D02*
X179803884Y-86736228D01*
X180708646Y-86212419D02*
X181375312Y-87212419D01*
X181375312Y-86212419D02*
X180708646Y-87212419D01*
X179661027Y-53212419D02*
X179994360Y-54212419D01*
X179994360Y-54212419D02*
X180327693Y-53212419D01*
X180661027Y-54212419D02*
X180661027Y-53212419D01*
X181137217Y-54212419D02*
X181137217Y-53212419D01*
X181137217Y-53212419D02*
X181708645Y-54212419D01*
X181708645Y-54212419D02*
X181708645Y-53212419D01*
X180161027Y-48212419D02*
X180494360Y-49212419D01*
X180494360Y-49212419D02*
X180827693Y-48212419D01*
X181161027Y-49117180D02*
X181208646Y-49164800D01*
X181208646Y-49164800D02*
X181161027Y-49212419D01*
X181161027Y-49212419D02*
X181113408Y-49164800D01*
X181113408Y-49164800D02*
X181161027Y-49117180D01*
X181161027Y-49117180D02*
X181161027Y-49212419D01*
X178756265Y-69426704D02*
X179232455Y-69426704D01*
X178661027Y-69712419D02*
X178994360Y-68712419D01*
X178994360Y-68712419D02*
X179327693Y-69712419D01*
X179661027Y-69188609D02*
X179994360Y-69188609D01*
X180137217Y-69712419D02*
X179661027Y-69712419D01*
X179661027Y-69712419D02*
X179661027Y-68712419D01*
X179661027Y-68712419D02*
X180137217Y-68712419D01*
X180565789Y-69712419D02*
X180565789Y-68712419D01*
X180565789Y-68712419D02*
X181137217Y-69712419D01*
X181137217Y-69712419D02*
X181137217Y-68712419D01*
X179827693Y-50760038D02*
X179732455Y-50712419D01*
X179732455Y-50712419D02*
X179589598Y-50712419D01*
X179589598Y-50712419D02*
X179446741Y-50760038D01*
X179446741Y-50760038D02*
X179351503Y-50855276D01*
X179351503Y-50855276D02*
X179303884Y-50950514D01*
X179303884Y-50950514D02*
X179256265Y-51140990D01*
X179256265Y-51140990D02*
X179256265Y-51283847D01*
X179256265Y-51283847D02*
X179303884Y-51474323D01*
X179303884Y-51474323D02*
X179351503Y-51569561D01*
X179351503Y-51569561D02*
X179446741Y-51664800D01*
X179446741Y-51664800D02*
X179589598Y-51712419D01*
X179589598Y-51712419D02*
X179684836Y-51712419D01*
X179684836Y-51712419D02*
X179827693Y-51664800D01*
X179827693Y-51664800D02*
X179875312Y-51617180D01*
X179875312Y-51617180D02*
X179875312Y-51283847D01*
X179875312Y-51283847D02*
X179684836Y-51283847D01*
X180303884Y-51712419D02*
X180303884Y-50712419D01*
X180303884Y-50712419D02*
X180875312Y-51712419D01*
X180875312Y-51712419D02*
X180875312Y-50712419D01*
X181351503Y-51712419D02*
X181351503Y-50712419D01*
X181351503Y-50712419D02*
X181589598Y-50712419D01*
X181589598Y-50712419D02*
X181732455Y-50760038D01*
X181732455Y-50760038D02*
X181827693Y-50855276D01*
X181827693Y-50855276D02*
X181875312Y-50950514D01*
X181875312Y-50950514D02*
X181922931Y-51140990D01*
X181922931Y-51140990D02*
X181922931Y-51283847D01*
X181922931Y-51283847D02*
X181875312Y-51474323D01*
X181875312Y-51474323D02*
X181827693Y-51569561D01*
X181827693Y-51569561D02*
X181732455Y-51664800D01*
X181732455Y-51664800D02*
X181589598Y-51712419D01*
X181589598Y-51712419D02*
X181351503Y-51712419D01*
X178756265Y-74426704D02*
X179232455Y-74426704D01*
X178661027Y-74712419D02*
X178994360Y-73712419D01*
X178994360Y-73712419D02*
X179327693Y-74712419D01*
X179518170Y-73712419D02*
X180089598Y-73712419D01*
X179803884Y-74712419D02*
X179803884Y-73712419D01*
X180327694Y-73712419D02*
X180994360Y-74712419D01*
X180994360Y-73712419D02*
X180327694Y-74712419D01*
X178756265Y-71926704D02*
X179232455Y-71926704D01*
X178661027Y-72212419D02*
X178994360Y-71212419D01*
X178994360Y-71212419D02*
X179327693Y-72212419D01*
X180232455Y-72212419D02*
X179899122Y-71736228D01*
X179661027Y-72212419D02*
X179661027Y-71212419D01*
X179661027Y-71212419D02*
X180041979Y-71212419D01*
X180041979Y-71212419D02*
X180137217Y-71260038D01*
X180137217Y-71260038D02*
X180184836Y-71307657D01*
X180184836Y-71307657D02*
X180232455Y-71402895D01*
X180232455Y-71402895D02*
X180232455Y-71545752D01*
X180232455Y-71545752D02*
X180184836Y-71640990D01*
X180184836Y-71640990D02*
X180137217Y-71688609D01*
X180137217Y-71688609D02*
X180041979Y-71736228D01*
X180041979Y-71736228D02*
X179661027Y-71736228D01*
X180565789Y-71212419D02*
X181232455Y-72212419D01*
X181232455Y-71212419D02*
X180565789Y-72212419D01*
X179256265Y-61664800D02*
X179399122Y-61712419D01*
X179399122Y-61712419D02*
X179637217Y-61712419D01*
X179637217Y-61712419D02*
X179732455Y-61664800D01*
X179732455Y-61664800D02*
X179780074Y-61617180D01*
X179780074Y-61617180D02*
X179827693Y-61521942D01*
X179827693Y-61521942D02*
X179827693Y-61426704D01*
X179827693Y-61426704D02*
X179780074Y-61331466D01*
X179780074Y-61331466D02*
X179732455Y-61283847D01*
X179732455Y-61283847D02*
X179637217Y-61236228D01*
X179637217Y-61236228D02*
X179446741Y-61188609D01*
X179446741Y-61188609D02*
X179351503Y-61140990D01*
X179351503Y-61140990D02*
X179303884Y-61093371D01*
X179303884Y-61093371D02*
X179256265Y-60998133D01*
X179256265Y-60998133D02*
X179256265Y-60902895D01*
X179256265Y-60902895D02*
X179303884Y-60807657D01*
X179303884Y-60807657D02*
X179351503Y-60760038D01*
X179351503Y-60760038D02*
X179446741Y-60712419D01*
X179446741Y-60712419D02*
X179684836Y-60712419D01*
X179684836Y-60712419D02*
X179827693Y-60760038D01*
X180827693Y-61617180D02*
X180780074Y-61664800D01*
X180780074Y-61664800D02*
X180637217Y-61712419D01*
X180637217Y-61712419D02*
X180541979Y-61712419D01*
X180541979Y-61712419D02*
X180399122Y-61664800D01*
X180399122Y-61664800D02*
X180303884Y-61569561D01*
X180303884Y-61569561D02*
X180256265Y-61474323D01*
X180256265Y-61474323D02*
X180208646Y-61283847D01*
X180208646Y-61283847D02*
X180208646Y-61140990D01*
X180208646Y-61140990D02*
X180256265Y-60950514D01*
X180256265Y-60950514D02*
X180303884Y-60855276D01*
X180303884Y-60855276D02*
X180399122Y-60760038D01*
X180399122Y-60760038D02*
X180541979Y-60712419D01*
X180541979Y-60712419D02*
X180637217Y-60712419D01*
X180637217Y-60712419D02*
X180780074Y-60760038D01*
X180780074Y-60760038D02*
X180827693Y-60807657D01*
X181732455Y-61712419D02*
X181256265Y-61712419D01*
X181256265Y-61712419D02*
X181256265Y-60712419D01*
%TO.C,Supercap1*%
X187050000Y-111650000D02*
X184950000Y-111650000D01*
X184950000Y-106250000D01*
X187050000Y-106250000D01*
X187050000Y-111650000D01*
D13*
%TO.C,Pololu*%
X149620000Y-106000000D02*
X151000000Y-106000000D01*
X149620000Y-107380000D02*
X149620000Y-106000000D01*
X152380000Y-108650000D02*
X152380000Y-118920000D01*
X149620000Y-108650000D02*
X152380000Y-108650000D01*
X149620000Y-108650000D02*
X149620000Y-118920000D01*
X149620000Y-118920000D02*
X152380000Y-118920000D01*
%TO.C,SD card reader*%
X203620000Y-122982500D02*
X203620000Y-105092500D01*
X206380000Y-105092500D02*
X203620000Y-105092500D01*
X206380000Y-122982500D02*
X203620000Y-122982500D01*
X206380000Y-122982500D02*
X206380000Y-105092500D01*
X206380000Y-124252500D02*
X206380000Y-125632500D01*
X206380000Y-125632500D02*
X205000000Y-125632500D01*
%TO.C,U3*%
X147620000Y-77000000D02*
X149000000Y-77000000D01*
X147620000Y-78380000D02*
X147620000Y-77000000D01*
X147620000Y-79650000D02*
X147620000Y-87380000D01*
X147620000Y-79650000D02*
X150380000Y-79650000D01*
X147620000Y-87380000D02*
X150380000Y-87380000D01*
X150380000Y-79650000D02*
X150380000Y-87380000D01*
%TO.C,Wio*%
X147870000Y-55430000D02*
X147870000Y-27430000D01*
X150530000Y-27430000D02*
X147870000Y-27430000D01*
X150530000Y-55430000D02*
X147870000Y-55430000D01*
X150530000Y-55430000D02*
X150530000Y-27430000D01*
X150530000Y-56700000D02*
X150530000Y-58030000D01*
X150530000Y-58030000D02*
X149200000Y-58030000D01*
X165635000Y-55410000D02*
X165635000Y-27410000D01*
X165635000Y-58010000D02*
X165635000Y-56680000D01*
X166965000Y-58010000D02*
X165635000Y-58010000D01*
X168295000Y-27410000D02*
X165635000Y-27410000D01*
X168295000Y-55410000D02*
X165635000Y-55410000D01*
X168295000Y-55410000D02*
X168295000Y-27410000D01*
%TO.C,NC2*%
X182120000Y-87970000D02*
X182120000Y-34520000D01*
X184880000Y-34520000D02*
X182120000Y-34520000D01*
X184880000Y-87970000D02*
X182120000Y-87970000D01*
X184880000Y-87970000D02*
X184880000Y-34520000D01*
X184880000Y-89240000D02*
X184880000Y-90620000D01*
X184880000Y-90620000D02*
X183500000Y-90620000D01*
%TD*%
M02*
